G04*
G04 #@! TF.GenerationSoftware,Altium Limited,Altium Designer,19.1.8 (144)*
G04*
G04 Layer_Color=8421504*
%FSAX25Y25*%
%MOIN*%
G70*
G01*
G75*
%ADD10C,0.03937*%
%ADD11R,0.01968X0.02362*%
%ADD12R,0.02520X0.02362*%
%ADD13R,0.01575X0.03543*%
%ADD14R,0.01890X0.03740*%
%ADD15R,0.09843X0.09843*%
%ADD16R,0.03150X0.03150*%
%ADD18R,0.01181X0.01575*%
%ADD19R,0.04724X0.09843*%
%ADD20R,0.02362X0.01968*%
%ADD21R,0.01181X0.02756*%
%ADD22R,0.01968X0.01968*%
%ADD23R,0.02362X0.02520*%
%ADD24R,0.05118X0.03543*%
%ADD78R,0.01417X0.01024*%
G36*
X0328823Y0343385D02*
X0328818Y0340472D01*
X0323091Y0340472D01*
X0323092Y0343386D01*
X0328823Y0343385D01*
D02*
G37*
G36*
Y0250471D02*
X0328818Y0247558D01*
X0323091Y0247559D01*
X0323092Y0250472D01*
X0328823Y0250471D01*
D02*
G37*
G36*
Y0157558D02*
X0328818Y0154645D01*
X0323091Y0154645D01*
X0323092Y0157559D01*
X0328823Y0157558D01*
D02*
G37*
D10*
X0126772Y0112992D02*
D03*
X0454528Y0402559D02*
D03*
D11*
X0366575Y0337598D02*
D03*
X0370512D02*
D03*
X0294567Y0356299D02*
D03*
X0290630D02*
D03*
X0307401Y0362244D02*
D03*
X0303465D02*
D03*
X0294528Y0368818D02*
D03*
X0290591D02*
D03*
X0302638Y0368897D02*
D03*
X0298701D02*
D03*
X0372441Y0332362D02*
D03*
X0368504D02*
D03*
X0298307Y0319606D02*
D03*
X0294370D02*
D03*
X0366575Y0244685D02*
D03*
X0370512D02*
D03*
X0294567Y0263385D02*
D03*
X0290630D02*
D03*
X0307401Y0269330D02*
D03*
X0303465D02*
D03*
X0294528Y0275905D02*
D03*
X0290591D02*
D03*
X0302638Y0275984D02*
D03*
X0298701D02*
D03*
X0372441Y0239448D02*
D03*
X0368504D02*
D03*
X0298307Y0226692D02*
D03*
X0294370D02*
D03*
X0366575Y0151771D02*
D03*
X0370512D02*
D03*
X0294567Y0170472D02*
D03*
X0290630D02*
D03*
X0307401Y0176417D02*
D03*
X0303465D02*
D03*
X0294528Y0182992D02*
D03*
X0290591D02*
D03*
X0302638Y0183070D02*
D03*
X0298701D02*
D03*
X0372441Y0146535D02*
D03*
X0368504D02*
D03*
X0298307Y0133779D02*
D03*
X0294370D02*
D03*
D12*
X0362598Y0319527D02*
D03*
Y0323307D02*
D03*
X0295787Y0339763D02*
D03*
Y0335984D02*
D03*
X0353465Y0362913D02*
D03*
Y0359133D02*
D03*
X0357992Y0362913D02*
D03*
Y0359133D02*
D03*
X0275787Y0340787D02*
D03*
Y0344566D02*
D03*
X0280276Y0340826D02*
D03*
Y0344606D02*
D03*
X0311575Y0362244D02*
D03*
Y0358464D02*
D03*
X0318583Y0337755D02*
D03*
Y0333976D02*
D03*
X0362598Y0226614D02*
D03*
Y0230393D02*
D03*
X0295787Y0246850D02*
D03*
Y0243070D02*
D03*
X0353465Y0270000D02*
D03*
Y0266220D02*
D03*
X0357992Y0270000D02*
D03*
Y0266220D02*
D03*
X0275787Y0247873D02*
D03*
Y0251653D02*
D03*
X0280276Y0247913D02*
D03*
Y0251692D02*
D03*
X0311575Y0269330D02*
D03*
Y0265551D02*
D03*
X0318583Y0244842D02*
D03*
Y0241062D02*
D03*
X0362598Y0133700D02*
D03*
Y0137480D02*
D03*
X0295787Y0153936D02*
D03*
Y0150157D02*
D03*
X0353465Y0177086D02*
D03*
Y0173307D02*
D03*
X0357992Y0177086D02*
D03*
Y0173307D02*
D03*
X0275787Y0154960D02*
D03*
Y0158740D02*
D03*
X0280276Y0154999D02*
D03*
Y0158779D02*
D03*
X0311575Y0176417D02*
D03*
Y0172637D02*
D03*
X0318583Y0151929D02*
D03*
Y0148149D02*
D03*
D13*
X0373110Y0323818D02*
D03*
X0370551D02*
D03*
X0367992D02*
D03*
Y0318700D02*
D03*
X0370551D02*
D03*
X0373110D02*
D03*
Y0230905D02*
D03*
X0370551D02*
D03*
X0367992D02*
D03*
Y0225787D02*
D03*
X0370551D02*
D03*
X0373110D02*
D03*
Y0137992D02*
D03*
X0370551D02*
D03*
X0367992D02*
D03*
Y0132873D02*
D03*
X0370551D02*
D03*
X0373110D02*
D03*
D14*
X0283976Y0332598D02*
D03*
X0291614D02*
D03*
X0287795Y0340236D02*
D03*
X0283976Y0239685D02*
D03*
X0291614D02*
D03*
X0287795Y0247322D02*
D03*
X0283976Y0146771D02*
D03*
X0291614D02*
D03*
X0287795Y0154409D02*
D03*
D15*
X0272047Y0379448D02*
D03*
Y0286535D02*
D03*
Y0193622D02*
D03*
D16*
X0279055Y0321614D02*
D03*
Y0327519D02*
D03*
X0317283Y0349291D02*
D03*
Y0343385D02*
D03*
X0279055Y0228700D02*
D03*
Y0234606D02*
D03*
X0317283Y0256377D02*
D03*
Y0250472D02*
D03*
X0279055Y0135787D02*
D03*
Y0141692D02*
D03*
X0317283Y0163464D02*
D03*
Y0157559D02*
D03*
D18*
X0292205Y0363936D02*
D03*
Y0359999D02*
D03*
Y0271023D02*
D03*
Y0267086D02*
D03*
Y0178110D02*
D03*
Y0174173D02*
D03*
D19*
X0308858Y0379330D02*
D03*
X0299803D02*
D03*
X0290748D02*
D03*
X0281693Y0379330D02*
D03*
X0326968Y0379330D02*
D03*
X0317913D02*
D03*
X0308858Y0286417D02*
D03*
X0299803D02*
D03*
X0290748D02*
D03*
X0281693Y0286417D02*
D03*
X0326968Y0286417D02*
D03*
X0317913D02*
D03*
X0308858Y0193503D02*
D03*
X0299803D02*
D03*
X0290748D02*
D03*
X0281693Y0193503D02*
D03*
X0326968Y0193503D02*
D03*
X0317913D02*
D03*
D20*
X0298819Y0356574D02*
D03*
Y0360511D02*
D03*
X0333268Y0345787D02*
D03*
Y0341850D02*
D03*
X0298819Y0263661D02*
D03*
Y0267598D02*
D03*
X0333268Y0252873D02*
D03*
Y0248937D02*
D03*
X0298819Y0170747D02*
D03*
Y0174685D02*
D03*
X0333268Y0159960D02*
D03*
Y0156023D02*
D03*
D21*
X0322992Y0337795D02*
D03*
X0324961D02*
D03*
X0326929D02*
D03*
X0328898D02*
D03*
Y0346062D02*
D03*
X0326929D02*
D03*
X0324961D02*
D03*
X0322992D02*
D03*
Y0244881D02*
D03*
X0324961D02*
D03*
X0326929D02*
D03*
X0328898D02*
D03*
Y0253149D02*
D03*
X0326929D02*
D03*
X0324961D02*
D03*
X0322992D02*
D03*
Y0151968D02*
D03*
X0324961D02*
D03*
X0326929D02*
D03*
X0328898D02*
D03*
Y0160236D02*
D03*
X0326929D02*
D03*
X0324961D02*
D03*
X0322992D02*
D03*
D22*
X0325945Y0341929D02*
D03*
Y0249015D02*
D03*
Y0156102D02*
D03*
D23*
X0312598Y0371692D02*
D03*
X0308819D02*
D03*
X0312598Y0278779D02*
D03*
X0308819D02*
D03*
X0312598Y0185866D02*
D03*
X0308819D02*
D03*
D24*
X0360236Y0353149D02*
D03*
Y0345669D02*
D03*
X0351693Y0353149D02*
D03*
Y0345669D02*
D03*
X0360236Y0260236D02*
D03*
Y0252755D02*
D03*
X0351693Y0260236D02*
D03*
Y0252755D02*
D03*
X0360236Y0167322D02*
D03*
Y0159842D02*
D03*
X0351693Y0167322D02*
D03*
Y0159842D02*
D03*
D78*
X0290118Y0363936D02*
D03*
X0294291D02*
D03*
X0290118Y0359999D02*
D03*
X0294291D02*
D03*
X0290118Y0271023D02*
D03*
X0294291D02*
D03*
X0290118Y0267086D02*
D03*
X0294291D02*
D03*
X0290118Y0178110D02*
D03*
X0294291D02*
D03*
X0290118Y0174173D02*
D03*
X0294291D02*
D03*
M02*
