G04*
G04 #@! TF.GenerationSoftware,Altium Limited,Altium Designer,19.1.8 (144)*
G04*
G04 Layer_Color=16711935*
%FSAX25Y25*%
%MOIN*%
G70*
G01*
G75*
%ADD35C,0.01575*%
%ADD73R,0.01968X0.01575*%
%ADD82C,0.11811*%
%ADD83R,0.02769X0.03162*%
%ADD84R,0.03320X0.03162*%
%ADD88R,0.03950X0.03950*%
%ADD92R,0.03162X0.02769*%
%ADD95R,0.03162X0.03320*%
%ADD96R,0.05918X0.04343*%
%ADD97C,0.13005*%
%ADD98C,0.02375*%
%ADD99C,0.05524*%
%ADD100C,0.04343*%
%ADD101C,0.06706*%
%ADD103R,0.11575X0.08228*%
%ADD104R,0.50268X0.12362*%
%ADD105R,0.03162X0.03753*%
G04:AMPARAMS|DCode=106|XSize=15.75mil|YSize=22.64mil|CornerRadius=0mil|HoleSize=0mil|Usage=FLASHONLY|Rotation=45.000|XOffset=0mil|YOffset=0mil|HoleType=Round|Shape=Rectangle|*
%AMROTATEDRECTD106*
4,1,4,0.00244,-0.01357,-0.01357,0.00244,-0.00244,0.01357,0.01357,-0.00244,0.00244,-0.01357,0.0*
%
%ADD106ROTATEDRECTD106*%

G04:AMPARAMS|DCode=107|XSize=15.75mil|YSize=22.64mil|CornerRadius=0mil|HoleSize=0mil|Usage=FLASHONLY|Rotation=315.000|XOffset=0mil|YOffset=0mil|HoleType=Round|Shape=Rectangle|*
%AMROTATEDRECTD107*
4,1,4,-0.01357,-0.00244,0.00244,0.01357,0.01357,0.00244,-0.00244,-0.01357,-0.01357,-0.00244,0.0*
%
%ADD107ROTATEDRECTD107*%

%ADD108P,0.06403X4X180.0*%
%ADD109R,0.02362X0.03347*%
%ADD110R,0.01981X0.02769*%
%ADD111R,0.02362X0.03197*%
%ADD112R,0.01890X0.02284*%
%ADD113C,0.03910*%
%ADD114C,0.01417*%
%ADD115R,0.06706X0.06706*%
G04:AMPARAMS|DCode=116|XSize=67.06mil|YSize=67.06mil|CornerRadius=9.91mil|HoleSize=0mil|Usage=FLASHONLY|Rotation=360.000|XOffset=0mil|YOffset=0mil|HoleType=Round|Shape=RoundedRectangle|*
%AMROUNDEDRECTD116*
21,1,0.06706,0.04724,0,0,360.0*
21,1,0.04724,0.06706,0,0,360.0*
1,1,0.01981,0.02362,-0.02362*
1,1,0.01981,-0.02362,-0.02362*
1,1,0.01981,-0.02362,0.02362*
1,1,0.01981,0.02362,0.02362*
%
%ADD116ROUNDEDRECTD116*%
%ADD117R,0.02769X0.07493*%
%ADD118R,0.07493X0.02769*%
%ADD119R,0.01772X0.01772*%
%ADD120R,0.01772X0.01772*%
%ADD121R,0.03241X0.03044*%
%ADD122R,0.04737X0.04737*%
%ADD123R,0.04737X0.09461*%
%ADD124R,0.04934X0.09461*%
%ADD125R,0.03950X0.03950*%
%ADD126R,0.42926X0.08674*%
%ADD127R,0.05524X0.08674*%
%ADD128R,0.03162X0.05131*%
%ADD129R,0.02165X0.01772*%
%ADD130R,0.01981X0.02572*%
%ADD131R,0.03556X0.07493*%
%ADD132R,0.03603X0.03044*%
%ADD133R,0.03044X0.03603*%
%ADD134R,0.02769X0.02375*%
%ADD135R,0.03603X0.03320*%
%ADD136R,0.03162X0.03603*%
%ADD137C,0.08674*%
G36*
X0356937Y0329847D02*
X0356962Y0329846D01*
X0356962Y0329846D01*
X0356962D01*
X0356987Y0329841D01*
X0357013Y0329836D01*
X0357013Y0329836D01*
X0357013Y0329836D01*
X0357032Y0329829D01*
X0357063Y0329819D01*
X0357063Y0329819D01*
X0357063Y0329819D01*
X0357084Y0329808D01*
X0357110Y0329796D01*
X0357110Y0329796D01*
X0357110Y0329796D01*
X0357127Y0329784D01*
X0357153Y0329766D01*
X0357153Y0329766D01*
X0357153Y0329766D01*
X0357165Y0329756D01*
X0357193Y0329732D01*
X0357193Y0329732D01*
X0357193Y0329732D01*
X0357217Y0329704D01*
X0357227Y0329692D01*
X0357227Y0329692D01*
X0357227Y0329692D01*
X0357245Y0329666D01*
X0357257Y0329649D01*
X0357257Y0329649D01*
X0357257Y0329649D01*
X0357269Y0329623D01*
X0357280Y0329602D01*
X0357280Y0329602D01*
X0357280Y0329602D01*
X0357290Y0329571D01*
X0357296Y0329552D01*
X0357296Y0329552D01*
X0357297Y0329552D01*
X0357302Y0329526D01*
X0357307Y0329501D01*
Y0329501D01*
X0357307Y0329501D01*
X0357308Y0329476D01*
X0357310Y0329448D01*
X0357310Y0328710D01*
Y0328710D01*
Y0328710D01*
X0357309Y0328683D01*
X0357307Y0328658D01*
X0357307Y0328658D01*
Y0328658D01*
X0357302Y0328633D01*
X0357297Y0328607D01*
X0357297Y0328607D01*
X0357297Y0328607D01*
X0357287Y0328578D01*
X0357280Y0328557D01*
X0357280Y0328557D01*
X0357280Y0328557D01*
X0357265Y0328527D01*
X0357257Y0328510D01*
X0357257Y0328510D01*
X0357257Y0328510D01*
X0357245Y0328492D01*
X0357228Y0328466D01*
X0357227Y0328466D01*
X0357227Y0328466D01*
X0357217Y0328454D01*
X0357193Y0328427D01*
X0357193Y0328427D01*
X0357193Y0328427D01*
X0356848Y0328082D01*
X0356848Y0328082D01*
X0356848Y0328082D01*
X0356809Y0328048D01*
X0356780Y0328028D01*
X0356765Y0328018D01*
X0356765Y0328018D01*
X0356764Y0328018D01*
X0356718Y0327995D01*
X0356716Y0327994D01*
X0356669Y0327978D01*
X0356638Y0327972D01*
X0356617Y0327968D01*
X0356565Y0327965D01*
X0356565D01*
X0355925Y0327965D01*
X0355873Y0327968D01*
X0355852Y0327972D01*
X0355821Y0327978D01*
X0355772Y0327995D01*
X0355725Y0328018D01*
X0355725Y0328018D01*
X0355710Y0328028D01*
X0355681Y0328048D01*
X0355642Y0328082D01*
X0355642Y0328082D01*
X0355642Y0328082D01*
X0355607Y0328122D01*
X0355588Y0328151D01*
X0355578Y0328165D01*
X0355578Y0328165D01*
X0355555Y0328212D01*
X0355538Y0328262D01*
X0355532Y0328293D01*
X0355528Y0328313D01*
X0355524Y0328366D01*
Y0329448D01*
X0355528Y0329501D01*
X0355538Y0329552D01*
X0355555Y0329602D01*
X0355578Y0329649D01*
X0355607Y0329692D01*
X0355642Y0329732D01*
X0355681Y0329766D01*
X0355725Y0329796D01*
X0355772Y0329819D01*
X0355821Y0329836D01*
X0355873Y0329846D01*
X0355925Y0329849D01*
X0356909D01*
X0356937Y0329847D01*
D02*
G37*
G36*
Y0236934D02*
X0356962Y0236932D01*
X0356962Y0236932D01*
X0356962D01*
X0356987Y0236927D01*
X0357013Y0236922D01*
X0357013Y0236922D01*
X0357013Y0236922D01*
X0357032Y0236916D01*
X0357063Y0236905D01*
X0357063Y0236905D01*
X0357063Y0236905D01*
X0357084Y0236895D01*
X0357110Y0236882D01*
X0357110Y0236882D01*
X0357110Y0236882D01*
X0357127Y0236870D01*
X0357153Y0236853D01*
X0357153Y0236853D01*
X0357153Y0236853D01*
X0357165Y0236843D01*
X0357193Y0236818D01*
X0357193Y0236818D01*
X0357193Y0236818D01*
X0357217Y0236791D01*
X0357227Y0236779D01*
X0357227Y0236779D01*
X0357227Y0236779D01*
X0357245Y0236753D01*
X0357257Y0236735D01*
X0357257Y0236735D01*
X0357257Y0236735D01*
X0357269Y0236710D01*
X0357280Y0236688D01*
X0357280Y0236688D01*
X0357280Y0236688D01*
X0357290Y0236657D01*
X0357296Y0236639D01*
X0357296Y0236639D01*
X0357297Y0236639D01*
X0357302Y0236613D01*
X0357307Y0236587D01*
Y0236587D01*
X0357307Y0236587D01*
X0357308Y0236562D01*
X0357310Y0236535D01*
X0357310Y0235797D01*
Y0235797D01*
Y0235797D01*
X0357309Y0235770D01*
X0357307Y0235745D01*
X0357307Y0235745D01*
Y0235745D01*
X0357302Y0235719D01*
X0357297Y0235693D01*
X0357297Y0235693D01*
X0357297Y0235693D01*
X0357287Y0235665D01*
X0357280Y0235644D01*
X0357280Y0235644D01*
X0357280Y0235643D01*
X0357265Y0235614D01*
X0357257Y0235596D01*
X0357257Y0235596D01*
X0357257Y0235596D01*
X0357245Y0235579D01*
X0357228Y0235553D01*
X0357227Y0235553D01*
X0357227Y0235553D01*
X0357217Y0235541D01*
X0357193Y0235513D01*
X0357193Y0235513D01*
X0357193Y0235513D01*
X0356848Y0235169D01*
X0356848Y0235169D01*
X0356848Y0235169D01*
X0356809Y0235134D01*
X0356780Y0235115D01*
X0356765Y0235105D01*
X0356765Y0235105D01*
X0356764Y0235104D01*
X0356718Y0235082D01*
X0356716Y0235081D01*
X0356669Y0235065D01*
X0356638Y0235059D01*
X0356617Y0235055D01*
X0356565Y0235051D01*
X0356565D01*
X0355925Y0235051D01*
X0355873Y0235055D01*
X0355852Y0235059D01*
X0355821Y0235065D01*
X0355772Y0235082D01*
X0355725Y0235105D01*
X0355725Y0235105D01*
X0355710Y0235115D01*
X0355681Y0235134D01*
X0355642Y0235169D01*
X0355642Y0235169D01*
X0355642Y0235169D01*
X0355607Y0235208D01*
X0355588Y0235237D01*
X0355578Y0235252D01*
X0355578Y0235252D01*
X0355555Y0235299D01*
X0355538Y0235349D01*
X0355532Y0235380D01*
X0355528Y0235400D01*
X0355524Y0235452D01*
Y0236535D01*
X0355528Y0236587D01*
X0355538Y0236639D01*
X0355555Y0236688D01*
X0355578Y0236735D01*
X0355607Y0236779D01*
X0355642Y0236818D01*
X0355681Y0236853D01*
X0355725Y0236882D01*
X0355772Y0236905D01*
X0355821Y0236922D01*
X0355873Y0236932D01*
X0355925Y0236936D01*
X0356909D01*
X0356937Y0236934D01*
D02*
G37*
G36*
Y0144021D02*
X0356962Y0144019D01*
X0356962Y0144019D01*
X0356962D01*
X0356987Y0144014D01*
X0357013Y0144009D01*
X0357013Y0144009D01*
X0357013Y0144009D01*
X0357032Y0144002D01*
X0357063Y0143992D01*
X0357063Y0143992D01*
X0357063Y0143992D01*
X0357084Y0143981D01*
X0357110Y0143969D01*
X0357110Y0143969D01*
X0357110Y0143969D01*
X0357127Y0143957D01*
X0357153Y0143940D01*
X0357153Y0143939D01*
X0357153Y0143939D01*
X0357165Y0143929D01*
X0357193Y0143905D01*
X0357193Y0143905D01*
X0357193Y0143905D01*
X0357217Y0143877D01*
X0357227Y0143866D01*
X0357227Y0143866D01*
X0357227Y0143866D01*
X0357245Y0143840D01*
X0357257Y0143822D01*
X0357257Y0143822D01*
X0357257Y0143822D01*
X0357269Y0143796D01*
X0357280Y0143775D01*
X0357280Y0143775D01*
X0357280Y0143775D01*
X0357290Y0143744D01*
X0357296Y0143725D01*
X0357296Y0143725D01*
X0357297Y0143725D01*
X0357302Y0143699D01*
X0357307Y0143674D01*
Y0143674D01*
X0357307Y0143674D01*
X0357308Y0143649D01*
X0357310Y0143622D01*
X0357310Y0142884D01*
Y0142884D01*
Y0142883D01*
X0357309Y0142856D01*
X0357307Y0142831D01*
X0357307Y0142831D01*
Y0142831D01*
X0357302Y0142806D01*
X0357297Y0142780D01*
X0357297Y0142780D01*
X0357297Y0142780D01*
X0357287Y0142752D01*
X0357280Y0142730D01*
X0357280Y0142730D01*
X0357280Y0142730D01*
X0357265Y0142700D01*
X0357257Y0142683D01*
X0357257Y0142683D01*
X0357257Y0142683D01*
X0357245Y0142665D01*
X0357228Y0142640D01*
X0357227Y0142639D01*
X0357227Y0142639D01*
X0357217Y0142628D01*
X0357193Y0142600D01*
X0357193Y0142600D01*
X0357193Y0142600D01*
X0356848Y0142255D01*
X0356848Y0142255D01*
X0356848Y0142255D01*
X0356809Y0142221D01*
X0356780Y0142201D01*
X0356765Y0142192D01*
X0356765Y0142192D01*
X0356764Y0142191D01*
X0356718Y0142168D01*
X0356716Y0142167D01*
X0356669Y0142152D01*
X0356638Y0142145D01*
X0356617Y0142141D01*
X0356565Y0142138D01*
X0356565D01*
X0355925Y0142138D01*
X0355873Y0142141D01*
X0355852Y0142146D01*
X0355821Y0142152D01*
X0355772Y0142168D01*
X0355725Y0142192D01*
X0355725Y0142192D01*
X0355710Y0142201D01*
X0355681Y0142221D01*
X0355642Y0142255D01*
X0355642Y0142255D01*
X0355642Y0142255D01*
X0355607Y0142295D01*
X0355588Y0142324D01*
X0355578Y0142338D01*
X0355578Y0142338D01*
X0355555Y0142385D01*
X0355538Y0142435D01*
X0355532Y0142466D01*
X0355528Y0142487D01*
X0355524Y0142539D01*
Y0143622D01*
X0355528Y0143674D01*
X0355538Y0143725D01*
X0355555Y0143775D01*
X0355578Y0143822D01*
X0355607Y0143866D01*
X0355642Y0143905D01*
X0355681Y0143939D01*
X0355725Y0143969D01*
X0355772Y0143992D01*
X0355821Y0144009D01*
X0355873Y0144019D01*
X0355925Y0144022D01*
X0356909D01*
X0356937Y0144021D01*
D02*
G37*
D35*
X0231102Y0148721D02*
D03*
X0232874D02*
D03*
X0234646D02*
D03*
X0231102Y0146949D02*
D03*
X0232874D02*
D03*
X0234646D02*
D03*
X0233937Y0156417D02*
D03*
Y0158386D02*
D03*
Y0160354D02*
D03*
Y0162323D02*
D03*
Y0164291D02*
D03*
Y0166260D02*
D03*
Y0168228D02*
D03*
Y0170197D02*
D03*
Y0172165D02*
D03*
X0218189Y0156417D02*
D03*
X0220158D02*
D03*
X0222126D02*
D03*
X0224095D02*
D03*
X0226063D02*
D03*
X0228031D02*
D03*
X0230000D02*
D03*
X0231968D02*
D03*
X0218189Y0158386D02*
D03*
Y0160354D02*
D03*
X0222126D02*
D03*
X0224095D02*
D03*
X0226063D02*
D03*
X0228031D02*
D03*
X0230000D02*
D03*
X0218189Y0162323D02*
D03*
X0222126D02*
D03*
X0224095D02*
D03*
X0228031D02*
D03*
X0230000D02*
D03*
X0218189Y0164291D02*
D03*
X0222126D02*
D03*
X0230000D02*
D03*
X0218189Y0166260D02*
D03*
X0224095D02*
D03*
X0228031D02*
D03*
X0230000D02*
D03*
X0218189Y0168228D02*
D03*
X0222126D02*
D03*
X0224095D02*
D03*
X0226063D02*
D03*
X0228031D02*
D03*
X0230000D02*
D03*
X0218189Y0170197D02*
D03*
Y0172165D02*
D03*
X0220158D02*
D03*
X0222126D02*
D03*
X0224095D02*
D03*
X0226063D02*
D03*
X0228031D02*
D03*
X0230000D02*
D03*
X0231968D02*
D03*
X0231102Y0241634D02*
D03*
X0232874D02*
D03*
X0234646D02*
D03*
X0231102Y0239862D02*
D03*
X0232874D02*
D03*
X0234646D02*
D03*
X0233937Y0249331D02*
D03*
Y0251299D02*
D03*
Y0253268D02*
D03*
Y0255236D02*
D03*
Y0257205D02*
D03*
Y0259173D02*
D03*
Y0261142D02*
D03*
Y0263110D02*
D03*
Y0265079D02*
D03*
X0218189Y0249331D02*
D03*
X0220158D02*
D03*
X0222126D02*
D03*
X0224095D02*
D03*
X0226063D02*
D03*
X0228031D02*
D03*
X0230000D02*
D03*
X0231968D02*
D03*
X0218189Y0251299D02*
D03*
Y0253268D02*
D03*
X0222126D02*
D03*
X0224095D02*
D03*
X0226063D02*
D03*
X0228031D02*
D03*
X0230000D02*
D03*
X0218189Y0255236D02*
D03*
X0222126D02*
D03*
X0224095D02*
D03*
X0228031D02*
D03*
X0230000D02*
D03*
X0218189Y0257205D02*
D03*
X0222126D02*
D03*
X0230000D02*
D03*
X0218189Y0259173D02*
D03*
X0224095D02*
D03*
X0228031D02*
D03*
X0230000D02*
D03*
X0218189Y0261142D02*
D03*
X0222126D02*
D03*
X0224095D02*
D03*
X0226063D02*
D03*
X0228031D02*
D03*
X0230000D02*
D03*
X0218189Y0263110D02*
D03*
Y0265079D02*
D03*
X0220158D02*
D03*
X0222126D02*
D03*
X0224095D02*
D03*
X0226063D02*
D03*
X0228031D02*
D03*
X0230000D02*
D03*
X0231968D02*
D03*
X0231102Y0334547D02*
D03*
X0232874D02*
D03*
X0234646D02*
D03*
X0231102Y0332776D02*
D03*
X0232874D02*
D03*
X0234646D02*
D03*
X0233937Y0342244D02*
D03*
Y0344213D02*
D03*
Y0346181D02*
D03*
Y0348150D02*
D03*
Y0350118D02*
D03*
Y0352087D02*
D03*
Y0354055D02*
D03*
Y0356024D02*
D03*
Y0357992D02*
D03*
X0218189Y0342244D02*
D03*
X0220158D02*
D03*
X0222126D02*
D03*
X0224095D02*
D03*
X0226063D02*
D03*
X0228031D02*
D03*
X0230000D02*
D03*
X0231968D02*
D03*
X0218189Y0344213D02*
D03*
Y0346181D02*
D03*
X0222126D02*
D03*
X0224095D02*
D03*
X0226063D02*
D03*
X0228031D02*
D03*
X0230000D02*
D03*
X0218189Y0348150D02*
D03*
X0222126D02*
D03*
X0224095D02*
D03*
X0228031D02*
D03*
X0230000D02*
D03*
X0218189Y0350118D02*
D03*
X0222126D02*
D03*
X0230000D02*
D03*
X0218189Y0352087D02*
D03*
X0224095D02*
D03*
X0228031D02*
D03*
X0230000D02*
D03*
X0218189Y0354055D02*
D03*
X0222126D02*
D03*
X0224095D02*
D03*
X0226063D02*
D03*
X0228031D02*
D03*
X0230000D02*
D03*
X0218189Y0356024D02*
D03*
Y0357992D02*
D03*
X0220158D02*
D03*
X0222126D02*
D03*
X0224095D02*
D03*
X0226063D02*
D03*
X0228031D02*
D03*
X0230000D02*
D03*
X0231968D02*
D03*
D73*
X0344921Y0376850D02*
D03*
X0340984D02*
D03*
X0344921Y0283937D02*
D03*
X0340984D02*
D03*
X0344921Y0191023D02*
D03*
X0340984D02*
D03*
D82*
X0454725Y0113189D02*
D03*
X0126181Y0402362D02*
D03*
D83*
X0368346Y0332362D02*
D03*
X0372283D02*
D03*
X0358110Y0351299D02*
D03*
X0362047D02*
D03*
X0359646Y0342952D02*
D03*
X0355709D02*
D03*
X0359646Y0338661D02*
D03*
X0355709D02*
D03*
X0349094Y0379684D02*
D03*
X0353031D02*
D03*
X0332401Y0377834D02*
D03*
X0328465D02*
D03*
X0359921Y0332913D02*
D03*
X0355984D02*
D03*
X0352008D02*
D03*
X0348071D02*
D03*
X0368346Y0239448D02*
D03*
X0372283D02*
D03*
X0358110Y0258385D02*
D03*
X0362047D02*
D03*
X0359646Y0250039D02*
D03*
X0355709D02*
D03*
X0359646Y0245747D02*
D03*
X0355709D02*
D03*
X0349094Y0286771D02*
D03*
X0353031D02*
D03*
X0332401Y0284921D02*
D03*
X0328465D02*
D03*
X0359921Y0240000D02*
D03*
X0355984D02*
D03*
X0352008D02*
D03*
X0348071D02*
D03*
X0368346Y0146535D02*
D03*
X0372283D02*
D03*
X0358110Y0165472D02*
D03*
X0362047D02*
D03*
X0359646Y0157125D02*
D03*
X0355709D02*
D03*
X0359646Y0152834D02*
D03*
X0355709D02*
D03*
X0349094Y0193858D02*
D03*
X0353031D02*
D03*
X0332401Y0192007D02*
D03*
X0328465D02*
D03*
X0359921Y0147086D02*
D03*
X0355984D02*
D03*
X0352008D02*
D03*
X0348071D02*
D03*
X0230000Y0152559D02*
D03*
X0233937D02*
D03*
X0238172Y0184919D02*
D03*
X0234235D02*
D03*
X0234245Y0193669D02*
D03*
X0238182D02*
D03*
X0166732Y0147441D02*
D03*
X0162795D02*
D03*
X0244291Y0173425D02*
D03*
X0240354D02*
D03*
X0189803Y0134488D02*
D03*
X0193740D02*
D03*
X0185354Y0138858D02*
D03*
X0189291D02*
D03*
X0230000Y0245473D02*
D03*
X0233937D02*
D03*
X0238172Y0277832D02*
D03*
X0234235D02*
D03*
X0234245Y0286582D02*
D03*
X0238182D02*
D03*
X0166732Y0240354D02*
D03*
X0162795D02*
D03*
X0244291Y0266339D02*
D03*
X0240354D02*
D03*
X0189803Y0227402D02*
D03*
X0193740D02*
D03*
X0185354Y0231772D02*
D03*
X0189291D02*
D03*
X0230000Y0338386D02*
D03*
X0233937D02*
D03*
X0238172Y0370746D02*
D03*
X0234235D02*
D03*
X0234245Y0379496D02*
D03*
X0238182D02*
D03*
X0166732Y0333268D02*
D03*
X0162795D02*
D03*
X0244291Y0359252D02*
D03*
X0240354D02*
D03*
X0189803Y0320315D02*
D03*
X0193740D02*
D03*
X0185354Y0324685D02*
D03*
X0189291D02*
D03*
D84*
X0333779Y0344527D02*
D03*
Y0348307D02*
D03*
Y0251614D02*
D03*
Y0255393D02*
D03*
Y0158700D02*
D03*
Y0162480D02*
D03*
X0229764Y0139252D02*
D03*
Y0143032D02*
D03*
Y0232165D02*
D03*
Y0235945D02*
D03*
Y0325079D02*
D03*
Y0328858D02*
D03*
D88*
X0371811Y0326732D02*
D03*
Y0320433D02*
D03*
Y0233818D02*
D03*
Y0227519D02*
D03*
Y0140905D02*
D03*
Y0134606D02*
D03*
X0218268Y0142953D02*
D03*
Y0137047D02*
D03*
X0224370Y0142992D02*
D03*
Y0137087D02*
D03*
X0218268Y0235866D02*
D03*
Y0229961D02*
D03*
X0224370Y0235906D02*
D03*
Y0230000D02*
D03*
X0218268Y0328780D02*
D03*
Y0322874D02*
D03*
X0224370Y0328819D02*
D03*
Y0322914D02*
D03*
D92*
X0335748Y0339606D02*
D03*
Y0335669D02*
D03*
X0330984Y0368700D02*
D03*
Y0364763D02*
D03*
X0336653Y0375157D02*
D03*
Y0379094D02*
D03*
X0335748Y0246692D02*
D03*
Y0242755D02*
D03*
X0330984Y0275787D02*
D03*
Y0271850D02*
D03*
X0336653Y0282244D02*
D03*
Y0286181D02*
D03*
X0335748Y0153779D02*
D03*
Y0149842D02*
D03*
X0330984Y0182873D02*
D03*
Y0178936D02*
D03*
X0336653Y0189330D02*
D03*
Y0193267D02*
D03*
X0172638Y0143504D02*
D03*
Y0147441D02*
D03*
Y0135630D02*
D03*
Y0139567D02*
D03*
X0159646Y0139173D02*
D03*
Y0143110D02*
D03*
X0225494Y0151513D02*
D03*
Y0147575D02*
D03*
X0172638Y0236417D02*
D03*
Y0240354D02*
D03*
Y0228543D02*
D03*
Y0232480D02*
D03*
X0159646Y0232087D02*
D03*
Y0236024D02*
D03*
X0225494Y0244426D02*
D03*
Y0240489D02*
D03*
X0172638Y0329331D02*
D03*
Y0333268D02*
D03*
Y0321457D02*
D03*
Y0325394D02*
D03*
X0159646Y0325000D02*
D03*
Y0328937D02*
D03*
X0225494Y0337339D02*
D03*
Y0333402D02*
D03*
D95*
X0340079Y0335669D02*
D03*
X0343858D02*
D03*
X0348110Y0328503D02*
D03*
X0344331D02*
D03*
X0352953Y0375275D02*
D03*
X0349173D02*
D03*
X0340079Y0242755D02*
D03*
X0343858D02*
D03*
X0348110Y0235590D02*
D03*
X0344331D02*
D03*
X0352953Y0282362D02*
D03*
X0349173D02*
D03*
X0340079Y0149842D02*
D03*
X0343858D02*
D03*
X0348110Y0142677D02*
D03*
X0344331D02*
D03*
X0352953Y0189448D02*
D03*
X0349173D02*
D03*
X0242165Y0164764D02*
D03*
X0238386D02*
D03*
X0242165Y0169095D02*
D03*
X0238386D02*
D03*
X0242165Y0160354D02*
D03*
X0238386D02*
D03*
X0202418Y0168858D02*
D03*
Y0180276D02*
D03*
X0238233Y0189339D02*
D03*
X0234454D02*
D03*
X0242165Y0257677D02*
D03*
X0238386D02*
D03*
X0242165Y0262008D02*
D03*
X0238386D02*
D03*
X0242165Y0253268D02*
D03*
X0238386D02*
D03*
X0202418Y0261772D02*
D03*
Y0273189D02*
D03*
X0238233Y0282252D02*
D03*
X0234454D02*
D03*
X0242165Y0350591D02*
D03*
X0238386D02*
D03*
X0242165Y0354921D02*
D03*
X0238386D02*
D03*
X0242165Y0346181D02*
D03*
X0238386D02*
D03*
X0202418Y0354685D02*
D03*
Y0366103D02*
D03*
X0238233Y0375166D02*
D03*
X0234454D02*
D03*
D96*
X0210787Y0136339D02*
D03*
Y0143819D02*
D03*
Y0229252D02*
D03*
Y0236732D02*
D03*
Y0322165D02*
D03*
Y0329646D02*
D03*
D97*
X0424410Y0113189D02*
D03*
X0422244Y0402559D02*
D03*
X0150787Y0112992D02*
D03*
X0153740Y0402362D02*
D03*
D98*
X0356102Y0314566D02*
D03*
X0359449D02*
D03*
X0362795D02*
D03*
X0288189D02*
D03*
X0294882D02*
D03*
X0348583Y0383464D02*
D03*
X0345236D02*
D03*
X0341890D02*
D03*
X0291535Y0314566D02*
D03*
X0356102Y0221653D02*
D03*
X0359449D02*
D03*
X0362795D02*
D03*
X0288189D02*
D03*
X0294882D02*
D03*
X0348583Y0290551D02*
D03*
X0345236D02*
D03*
X0341890D02*
D03*
X0291535Y0221653D02*
D03*
X0356102Y0128740D02*
D03*
X0359449D02*
D03*
X0362795D02*
D03*
X0288189D02*
D03*
X0294882D02*
D03*
X0348583Y0197637D02*
D03*
X0345236D02*
D03*
X0341890D02*
D03*
X0291535Y0128740D02*
D03*
D99*
X0358239Y0382480D02*
D03*
X0367244Y0374330D02*
D03*
X0326991Y0382480D02*
D03*
X0317917D02*
D03*
X0308869D02*
D03*
X0299822D02*
D03*
X0290748D02*
D03*
X0272239D02*
D03*
X0281690D02*
D03*
X0358239Y0289566D02*
D03*
X0367244Y0281417D02*
D03*
X0326991Y0289566D02*
D03*
X0317917D02*
D03*
X0308869D02*
D03*
X0299822D02*
D03*
X0290748D02*
D03*
X0272239D02*
D03*
X0281690D02*
D03*
X0358239Y0196653D02*
D03*
X0367244Y0188503D02*
D03*
X0326991Y0196653D02*
D03*
X0317917D02*
D03*
X0308869D02*
D03*
X0299822D02*
D03*
X0290748D02*
D03*
X0272239D02*
D03*
X0281690D02*
D03*
D100*
X0429587Y0335551D02*
D03*
X0433587Y0355551D02*
D03*
X0425587D02*
D03*
X0429587Y0242637D02*
D03*
X0433587Y0262637D02*
D03*
X0425587D02*
D03*
X0429587Y0149724D02*
D03*
X0433587Y0169724D02*
D03*
X0425587D02*
D03*
D101*
X0368110Y0345866D02*
D03*
X0269701Y0365551D02*
D03*
Y0326181D02*
D03*
X0410827Y0357677D02*
D03*
Y0334055D02*
D03*
X0368110Y0252952D02*
D03*
X0269701Y0272637D02*
D03*
Y0233267D02*
D03*
X0410827Y0264763D02*
D03*
Y0241141D02*
D03*
X0368110Y0160039D02*
D03*
X0269701Y0179724D02*
D03*
Y0140354D02*
D03*
X0410827Y0171850D02*
D03*
Y0148228D02*
D03*
D103*
X0144961Y0127925D02*
D03*
Y0220838D02*
D03*
Y0313752D02*
D03*
D104*
X0164307Y0196378D02*
D03*
Y0289291D02*
D03*
Y0382205D02*
D03*
D105*
X0348149Y0360669D02*
D03*
X0351929D02*
D03*
X0348149Y0267755D02*
D03*
X0351929D02*
D03*
X0348149Y0174842D02*
D03*
X0351929D02*
D03*
D106*
X0352447Y0368194D02*
D03*
X0353936Y0369489D02*
D03*
X0355230Y0370978D02*
D03*
X0360782Y0365427D02*
D03*
X0359292Y0364132D02*
D03*
X0357998Y0362643D02*
D03*
X0352447Y0275281D02*
D03*
X0353936Y0276575D02*
D03*
X0355230Y0278065D02*
D03*
X0360782Y0272514D02*
D03*
X0359292Y0271219D02*
D03*
X0357998Y0269730D02*
D03*
X0352447Y0182367D02*
D03*
X0353936Y0183662D02*
D03*
X0355230Y0185151D02*
D03*
X0360782Y0179600D02*
D03*
X0359292Y0178306D02*
D03*
X0357998Y0176816D02*
D03*
D107*
X0357999Y0370979D02*
D03*
X0359294Y0369490D02*
D03*
X0360783Y0368196D02*
D03*
X0355230Y0362643D02*
D03*
X0353936Y0364132D02*
D03*
X0352447Y0365427D02*
D03*
X0357999Y0278066D02*
D03*
X0359294Y0276577D02*
D03*
X0360783Y0275282D02*
D03*
X0355230Y0269730D02*
D03*
X0353936Y0271219D02*
D03*
X0352447Y0272514D02*
D03*
X0357999Y0185153D02*
D03*
X0359294Y0183663D02*
D03*
X0360783Y0182369D02*
D03*
X0355230Y0176816D02*
D03*
X0353936Y0178306D02*
D03*
X0352447Y0179600D02*
D03*
D108*
X0356614Y0366810D02*
D03*
Y0273897D02*
D03*
Y0180984D02*
D03*
D109*
X0335079Y0360807D02*
D03*
Y0267893D02*
D03*
Y0174980D02*
D03*
D110*
X0337638Y0360807D02*
D03*
Y0364744D02*
D03*
Y0267893D02*
D03*
Y0271830D02*
D03*
Y0174980D02*
D03*
Y0178917D02*
D03*
D111*
X0340197Y0360807D02*
D03*
X0335079Y0364744D02*
D03*
X0340197D02*
D03*
Y0267893D02*
D03*
X0335079Y0271830D02*
D03*
X0340197D02*
D03*
Y0174980D02*
D03*
X0335079Y0178917D02*
D03*
X0340197D02*
D03*
D112*
X0344921Y0374763D02*
D03*
Y0378937D02*
D03*
X0340984Y0374763D02*
D03*
Y0378937D02*
D03*
X0344921Y0281850D02*
D03*
Y0286023D02*
D03*
X0340984Y0281850D02*
D03*
Y0286023D02*
D03*
X0344921Y0188936D02*
D03*
Y0193110D02*
D03*
X0340984Y0188936D02*
D03*
Y0193110D02*
D03*
D113*
X0427086Y0340551D02*
D03*
X0432087D02*
D03*
X0427086Y0345551D02*
D03*
X0432087D02*
D03*
X0427086Y0350866D02*
D03*
X0432087Y0350551D02*
D03*
X0427086Y0247637D02*
D03*
X0432087D02*
D03*
X0427086Y0252637D02*
D03*
X0432087D02*
D03*
X0427086Y0257952D02*
D03*
X0432087Y0257637D02*
D03*
X0427086Y0154724D02*
D03*
X0432087D02*
D03*
X0427086Y0159724D02*
D03*
X0432087D02*
D03*
X0427086Y0165039D02*
D03*
X0432087Y0164724D02*
D03*
D114*
X0343149Y0369114D02*
D03*
Y0370885D02*
D03*
X0341378Y0369114D02*
D03*
Y0370885D02*
D03*
X0339606Y0369114D02*
D03*
Y0370885D02*
D03*
X0343149Y0276200D02*
D03*
Y0277972D02*
D03*
X0341378Y0276200D02*
D03*
Y0277972D02*
D03*
X0339606Y0276200D02*
D03*
Y0277972D02*
D03*
X0343149Y0183287D02*
D03*
Y0185058D02*
D03*
X0341378Y0183287D02*
D03*
Y0185058D02*
D03*
X0339606Y0183287D02*
D03*
Y0185058D02*
D03*
D115*
X0312409Y0356476D02*
D03*
X0302567D02*
D03*
X0292626D02*
D03*
X0312409Y0346633D02*
D03*
X0302567D02*
D03*
X0292724D02*
D03*
X0312409Y0336791D02*
D03*
X0302567Y0336791D02*
D03*
X0312409Y0263562D02*
D03*
X0302567D02*
D03*
X0292626D02*
D03*
X0312409Y0253720D02*
D03*
X0302567D02*
D03*
X0292724D02*
D03*
X0312409Y0243877D02*
D03*
X0302567Y0243877D02*
D03*
X0312409Y0170649D02*
D03*
X0302567D02*
D03*
X0292626D02*
D03*
X0312409Y0160807D02*
D03*
X0302567D02*
D03*
X0292724D02*
D03*
X0312409Y0150964D02*
D03*
X0302567Y0150964D02*
D03*
D116*
X0292724Y0336791D02*
D03*
Y0243877D02*
D03*
Y0150964D02*
D03*
D117*
X0285236Y0325157D02*
D03*
X0288425D02*
D03*
X0291575D02*
D03*
X0294724D02*
D03*
X0297874D02*
D03*
X0301024D02*
D03*
X0304173D02*
D03*
X0307323D02*
D03*
X0310472D02*
D03*
X0313622D02*
D03*
X0316732D02*
D03*
X0319921D02*
D03*
X0320079Y0368090D02*
D03*
X0316768Y0368090D02*
D03*
X0313591D02*
D03*
X0310441Y0368086D02*
D03*
X0307291Y0368086D02*
D03*
X0304142Y0368090D02*
D03*
X0300992D02*
D03*
X0297842Y0368090D02*
D03*
X0294693Y0368090D02*
D03*
X0291543Y0368090D02*
D03*
X0288394D02*
D03*
X0285236D02*
D03*
Y0232244D02*
D03*
X0288425D02*
D03*
X0291575D02*
D03*
X0294724D02*
D03*
X0297874D02*
D03*
X0301024D02*
D03*
X0304173D02*
D03*
X0307323D02*
D03*
X0310472D02*
D03*
X0313622D02*
D03*
X0316732D02*
D03*
X0319921D02*
D03*
X0320079Y0275177D02*
D03*
X0316768Y0275177D02*
D03*
X0313591D02*
D03*
X0310441Y0275173D02*
D03*
X0307291Y0275173D02*
D03*
X0304142Y0275177D02*
D03*
X0300992D02*
D03*
X0297842Y0275177D02*
D03*
X0294693Y0275177D02*
D03*
X0291543Y0275177D02*
D03*
X0288394D02*
D03*
X0285236D02*
D03*
Y0139330D02*
D03*
X0288425D02*
D03*
X0291575D02*
D03*
X0294724D02*
D03*
X0297874D02*
D03*
X0301024D02*
D03*
X0304173D02*
D03*
X0307323D02*
D03*
X0310472D02*
D03*
X0313622D02*
D03*
X0316732D02*
D03*
X0319921D02*
D03*
X0320079Y0182263D02*
D03*
X0316768Y0182263D02*
D03*
X0313591D02*
D03*
X0310441Y0182259D02*
D03*
X0307291Y0182259D02*
D03*
X0304142Y0182263D02*
D03*
X0300992D02*
D03*
X0297842Y0182263D02*
D03*
X0294693Y0182263D02*
D03*
X0291543Y0182263D02*
D03*
X0288394D02*
D03*
X0285236D02*
D03*
D118*
X0325787Y0329291D02*
D03*
Y0332440D02*
D03*
Y0335629D02*
D03*
Y0338740D02*
D03*
Y0341889D02*
D03*
Y0345078D02*
D03*
X0325795Y0348208D02*
D03*
X0325795Y0351358D02*
D03*
X0325795Y0354507D02*
D03*
X0325795Y0357645D02*
D03*
X0325795Y0360803D02*
D03*
Y0363956D02*
D03*
X0279331Y0363936D02*
D03*
Y0360826D02*
D03*
Y0357637D02*
D03*
Y0354527D02*
D03*
Y0351377D02*
D03*
Y0348188D02*
D03*
Y0345078D02*
D03*
Y0341929D02*
D03*
Y0338779D02*
D03*
Y0335629D02*
D03*
Y0332440D02*
D03*
Y0329291D02*
D03*
X0325787Y0236377D02*
D03*
Y0239527D02*
D03*
Y0242716D02*
D03*
Y0245826D02*
D03*
Y0248976D02*
D03*
Y0252165D02*
D03*
X0325795Y0255295D02*
D03*
X0325795Y0258444D02*
D03*
X0325795Y0261594D02*
D03*
X0325795Y0264732D02*
D03*
X0325795Y0267889D02*
D03*
Y0271043D02*
D03*
X0279331Y0271023D02*
D03*
Y0267913D02*
D03*
Y0264724D02*
D03*
Y0261614D02*
D03*
Y0258464D02*
D03*
Y0255275D02*
D03*
Y0252165D02*
D03*
Y0249015D02*
D03*
Y0245866D02*
D03*
Y0242716D02*
D03*
Y0239527D02*
D03*
Y0236377D02*
D03*
X0325787Y0143464D02*
D03*
Y0146614D02*
D03*
Y0149803D02*
D03*
Y0152913D02*
D03*
Y0156062D02*
D03*
Y0159251D02*
D03*
X0325795Y0162381D02*
D03*
X0325795Y0165531D02*
D03*
X0325795Y0168681D02*
D03*
X0325795Y0171818D02*
D03*
X0325795Y0174976D02*
D03*
Y0178129D02*
D03*
X0279331Y0178110D02*
D03*
Y0174999D02*
D03*
Y0171810D02*
D03*
Y0168700D02*
D03*
Y0165551D02*
D03*
Y0162362D02*
D03*
Y0159251D02*
D03*
Y0156102D02*
D03*
Y0152952D02*
D03*
Y0149803D02*
D03*
Y0146614D02*
D03*
Y0143464D02*
D03*
D119*
X0356417Y0328897D02*
D03*
X0358386D02*
D03*
X0360354D02*
D03*
X0362323D02*
D03*
Y0322992D02*
D03*
X0360354D02*
D03*
X0358386D02*
D03*
X0356417D02*
D03*
Y0235984D02*
D03*
X0358386D02*
D03*
X0360354D02*
D03*
X0362323D02*
D03*
Y0230078D02*
D03*
X0360354D02*
D03*
X0358386D02*
D03*
X0356417D02*
D03*
Y0143070D02*
D03*
X0358386D02*
D03*
X0360354D02*
D03*
X0362323D02*
D03*
Y0137165D02*
D03*
X0360354D02*
D03*
X0358386D02*
D03*
X0356417D02*
D03*
D120*
X0362323Y0326929D02*
D03*
X0362323Y0324960D02*
D03*
X0356417D02*
D03*
Y0326929D02*
D03*
X0362323Y0234015D02*
D03*
X0362323Y0232047D02*
D03*
X0356417D02*
D03*
Y0234015D02*
D03*
X0362323Y0141102D02*
D03*
X0362323Y0139133D02*
D03*
X0356417D02*
D03*
Y0141102D02*
D03*
D121*
X0343937Y0356614D02*
D03*
Y0360314D02*
D03*
Y0263700D02*
D03*
Y0267401D02*
D03*
Y0170787D02*
D03*
Y0174488D02*
D03*
D122*
X0367126Y0369968D02*
D03*
Y0277055D02*
D03*
Y0184141D02*
D03*
D123*
X0361713Y0375873D02*
D03*
Y0282960D02*
D03*
Y0190047D02*
D03*
D124*
X0372933Y0375873D02*
D03*
Y0282960D02*
D03*
Y0190047D02*
D03*
D125*
X0342205Y0322992D02*
D03*
X0348110D02*
D03*
X0342205Y0230078D02*
D03*
X0348110D02*
D03*
X0342205Y0137165D02*
D03*
X0348110D02*
D03*
X0239252Y0155000D02*
D03*
X0245158D02*
D03*
X0239213Y0148819D02*
D03*
X0245118D02*
D03*
X0239252Y0247914D02*
D03*
X0245158D02*
D03*
X0239213Y0241732D02*
D03*
X0245118D02*
D03*
X0239252Y0340827D02*
D03*
X0245158D02*
D03*
X0239213Y0334646D02*
D03*
X0245118D02*
D03*
D126*
X0227957Y0127756D02*
D03*
Y0220669D02*
D03*
Y0313583D02*
D03*
D127*
X0155315Y0127756D02*
D03*
X0164370D02*
D03*
X0173425D02*
D03*
X0182480D02*
D03*
X0191535D02*
D03*
X0200591D02*
D03*
X0155315Y0220669D02*
D03*
X0164370D02*
D03*
X0173425D02*
D03*
X0182480D02*
D03*
X0191535D02*
D03*
X0200591D02*
D03*
X0155315Y0313583D02*
D03*
X0164370D02*
D03*
X0173425D02*
D03*
X0182480D02*
D03*
X0191535D02*
D03*
X0200591D02*
D03*
D128*
X0221378Y0151850D02*
D03*
X0215866D02*
D03*
X0221378Y0244764D02*
D03*
X0215866D02*
D03*
X0221378Y0337677D02*
D03*
X0215866D02*
D03*
D129*
X0229158Y0183550D02*
D03*
Y0185519D02*
D03*
Y0187487D02*
D03*
X0226008D02*
D03*
Y0185519D02*
D03*
Y0183550D02*
D03*
X0229158Y0276464D02*
D03*
Y0278432D02*
D03*
Y0280401D02*
D03*
X0226008D02*
D03*
Y0278432D02*
D03*
Y0276464D02*
D03*
X0229158Y0369377D02*
D03*
Y0371346D02*
D03*
Y0373314D02*
D03*
X0226008D02*
D03*
Y0371346D02*
D03*
Y0369377D02*
D03*
D130*
X0164803Y0138366D02*
D03*
X0166772D02*
D03*
X0168740D02*
D03*
X0164803Y0143681D02*
D03*
X0166772D02*
D03*
X0168740D02*
D03*
X0164803Y0231280D02*
D03*
X0166772D02*
D03*
X0168740D02*
D03*
X0164803Y0236595D02*
D03*
X0166772D02*
D03*
X0168740D02*
D03*
X0164803Y0324193D02*
D03*
X0166772D02*
D03*
X0168740D02*
D03*
X0164803Y0329508D02*
D03*
X0166772D02*
D03*
X0168740D02*
D03*
D131*
X0234606Y0140852D02*
D03*
X0240905D02*
D03*
X0234606Y0233766D02*
D03*
X0240905D02*
D03*
X0234606Y0326679D02*
D03*
X0240905D02*
D03*
D132*
X0198641Y0176417D02*
D03*
Y0172717D02*
D03*
Y0269331D02*
D03*
Y0265630D02*
D03*
Y0362244D02*
D03*
Y0358543D02*
D03*
D133*
X0221595Y0188335D02*
D03*
X0217894D02*
D03*
X0221595Y0281248D02*
D03*
X0217894D02*
D03*
X0221595Y0374162D02*
D03*
X0217894D02*
D03*
D134*
X0198228Y0165354D02*
D03*
X0194291D02*
D03*
X0198228Y0258268D02*
D03*
X0194291D02*
D03*
X0198228Y0351181D02*
D03*
X0194291D02*
D03*
D135*
X0198638Y0168858D02*
D03*
Y0180276D02*
D03*
Y0261772D02*
D03*
Y0273189D02*
D03*
Y0354685D02*
D03*
Y0366103D02*
D03*
D136*
X0213722Y0188336D02*
D03*
X0209942D02*
D03*
X0213722Y0281250D02*
D03*
X0209942D02*
D03*
X0213722Y0374163D02*
D03*
X0209942D02*
D03*
D137*
X0198622Y0158858D02*
D03*
Y0251772D02*
D03*
Y0344685D02*
D03*
M02*
