G04*
G04 #@! TF.GenerationSoftware,Altium Limited,Altium Designer,19.1.8 (144)*
G04*
G04 Layer_Color=16711935*
%FSAX25Y25*%
%MOIN*%
G70*
G01*
G75*
%ADD28C,0.00600*%
%ADD62C,0.01000*%
D28*
X0536608Y0243263D02*
X0535608Y0244263D01*
Y0246262D01*
X0536608Y0247262D01*
X0537608D01*
X0538608Y0246262D01*
X0539607Y0247262D01*
X0540607D01*
X0541607Y0246262D01*
Y0244263D01*
X0540607Y0243263D01*
X0539607D01*
X0538608Y0244263D01*
X0537608Y0243263D01*
X0536608D01*
X0538608Y0244263D02*
Y0246262D01*
X0536608Y0249261D02*
X0535608Y0250260D01*
Y0252260D01*
X0536608Y0253259D01*
X0540607D01*
X0541607Y0252260D01*
Y0250260D01*
X0540607Y0249261D01*
X0536608D01*
X0542606Y0256259D02*
X0541607Y0257258D01*
X0540607D01*
Y0256259D01*
X0541607D01*
Y0257258D01*
X0542606Y0256259D01*
X0543606Y0255259D01*
X0536608Y0261257D02*
X0535608Y0262257D01*
Y0264256D01*
X0536608Y0265256D01*
X0540607D01*
X0541607Y0264256D01*
Y0262257D01*
X0540607Y0261257D01*
X0536608D01*
Y0267255D02*
X0535608Y0268255D01*
Y0270254D01*
X0536608Y0271254D01*
X0540607D01*
X0541607Y0270254D01*
Y0268255D01*
X0540607Y0267255D01*
X0536608D01*
X0274562Y0482621D02*
X0275562Y0481622D01*
X0277561D01*
X0278561Y0482621D01*
Y0486620D01*
X0277561Y0487620D01*
X0275562D01*
X0274562Y0486620D01*
Y0485620D01*
X0275562Y0484621D01*
X0278561D01*
X0280560Y0486620D02*
X0281560Y0487620D01*
X0283559D01*
X0284559Y0486620D01*
Y0482621D01*
X0283559Y0481622D01*
X0281560D01*
X0280560Y0482621D01*
Y0486620D01*
X0287558Y0480622D02*
X0288558Y0481622D01*
Y0482621D01*
X0287558D01*
Y0481622D01*
X0288558D01*
X0287558Y0480622D01*
X0286558Y0479622D01*
X0292556Y0486620D02*
X0293556Y0487620D01*
X0295555D01*
X0296555Y0486620D01*
Y0482621D01*
X0295555Y0481622D01*
X0293556D01*
X0292556Y0482621D01*
Y0486620D01*
X0298554D02*
X0299554Y0487620D01*
X0301553D01*
X0302553Y0486620D01*
Y0482621D01*
X0301553Y0481622D01*
X0299554D01*
X0298554Y0482621D01*
Y0486620D01*
D62*
X0537008Y0416339D02*
X0539008Y0410339D01*
X0535008D02*
X0537008Y0416339D01*
X0535008Y0107378D02*
X0537008Y0101378D01*
X0539008Y0107378D01*
X0537008Y0272854D02*
Y0416339D01*
Y0101378D02*
Y0241663D01*
X0468716Y0416339D02*
X0538008D01*
X0468717Y0101378D02*
X0538008D01*
X0112992Y0486221D02*
X0118992Y0488221D01*
X0112992Y0486221D02*
X0118992Y0484221D01*
X0461323D02*
X0467323Y0486221D01*
X0461323Y0488221D02*
X0467323Y0486221D01*
X0112992D02*
X0272962D01*
X0304153D02*
X0467323D01*
X0112992Y0417732D02*
Y0487220D01*
X0467323Y0417732D02*
Y0487220D01*
M02*
