G04*
G04 #@! TF.GenerationSoftware,Altium Limited,Altium Designer,19.1.8 (144)*
G04*
G04 Layer_Color=32896*
%FSAX25Y25*%
%MOIN*%
G70*
G01*
G75*
%ADD25C,0.00787*%
%ADD26C,0.01575*%
%ADD32C,0.00591*%
%ADD33C,0.00598*%
%ADD62C,0.01000*%
%ADD77C,0.00394*%
%ADD150C,0.00197*%
D25*
X0340092Y0357696D02*
G03*
X0340092Y0357696I0000329J0000000D01*
G01*
X0344546Y0367326D02*
G03*
X0344546Y0367326I0000376J0000000D01*
G01*
X0374811Y0316582D02*
X0368811D01*
X0374811Y0317582D02*
X0368811D01*
X0374811Y0329582D02*
Y0316582D01*
Y0329582D02*
X0368811D01*
Y0316582D01*
X0351185Y0367507D02*
X0350489Y0366810D01*
X0351185Y0366114D02*
X0350489Y0366810D01*
X0357310Y0361382D02*
X0356614Y0360686D01*
X0355918Y0361382D01*
X0362739Y0366810D02*
X0362043Y0367507D01*
X0362739Y0366810D02*
X0362043Y0366114D01*
X0356614Y0372935D02*
X0355918Y0372239D01*
X0357310D02*
X0356614Y0372935D01*
X0277677Y0327480D02*
Y0323779D01*
X0277716Y0323740D02*
X0277677Y0323779D01*
X0283386Y0323740D02*
X0277716D01*
X0327126Y0323779D02*
X0321732D01*
X0327244Y0323897D02*
X0327126Y0323779D01*
X0327244Y0327480D02*
Y0323897D01*
X0327205Y0369724D02*
Y0365787D01*
Y0369724D02*
X0327126Y0369803D01*
X0321811D01*
X0283386Y0369881D02*
X0277874D01*
X0277716Y0369724D02*
Y0365747D01*
X0277874Y0369881D02*
X0277716Y0369724D01*
X0373819Y0381779D02*
Y0380992D01*
Y0381779D02*
X0360433D01*
Y0380992D01*
X0373819Y0369574D02*
X0369882D01*
X0373819Y0370755D02*
Y0369574D01*
X0360433Y0370755D02*
X0360433Y0369574D01*
X0364370D02*
X0360433D01*
X0350907Y0320242D02*
X0339407D01*
X0350907Y0325742D02*
Y0320242D01*
Y0325742D02*
X0339407D01*
Y0320242D01*
X0340092Y0264783D02*
G03*
X0340092Y0264783I0000329J0000000D01*
G01*
X0344546Y0274413D02*
G03*
X0344546Y0274413I0000376J0000000D01*
G01*
X0374811Y0223669D02*
X0368811D01*
X0374811Y0224669D02*
X0368811D01*
X0374811Y0236669D02*
Y0223669D01*
Y0236669D02*
X0368811D01*
Y0223669D01*
X0351185Y0274593D02*
X0350489Y0273897D01*
X0351185Y0273201D02*
X0350489Y0273897D01*
X0357310Y0268468D02*
X0356614Y0267773D01*
X0355918Y0268468D01*
X0362739Y0273897D02*
X0362043Y0274593D01*
X0362739Y0273897D02*
X0362043Y0273201D01*
X0356614Y0280022D02*
X0355918Y0279326D01*
X0357310D02*
X0356614Y0280022D01*
X0277677Y0234566D02*
Y0230866D01*
X0277716Y0230826D02*
X0277677Y0230866D01*
X0283386Y0230826D02*
X0277716D01*
X0327126Y0230866D02*
X0321732D01*
X0327244Y0230984D02*
X0327126Y0230866D01*
X0327244Y0234566D02*
Y0230984D01*
X0327205Y0276811D02*
Y0272873D01*
Y0276811D02*
X0327126Y0276889D01*
X0321811D01*
X0283386Y0276968D02*
X0277874D01*
X0277716Y0276811D02*
Y0272834D01*
X0277874Y0276968D02*
X0277716Y0276811D01*
X0373819Y0288866D02*
Y0288078D01*
Y0288866D02*
X0360433D01*
Y0288078D01*
X0373819Y0276661D02*
X0369882D01*
X0373819Y0277842D02*
Y0276661D01*
X0360433Y0277842D02*
X0360433Y0276661D01*
X0364370D02*
X0360433D01*
X0350907Y0227328D02*
X0339407D01*
X0350907Y0232828D02*
Y0227328D01*
Y0232828D02*
X0339407D01*
Y0227328D01*
X0340092Y0171870D02*
G03*
X0340092Y0171870I0000329J0000000D01*
G01*
X0344546Y0181499D02*
G03*
X0344546Y0181499I0000376J0000000D01*
G01*
X0374811Y0130755D02*
X0368811D01*
X0374811Y0131755D02*
X0368811D01*
X0374811Y0143755D02*
Y0130755D01*
Y0143755D02*
X0368811D01*
Y0130755D01*
X0351185Y0181680D02*
X0350489Y0180984D01*
X0351185Y0180288D02*
X0350489Y0180984D01*
X0357310Y0175555D02*
X0356614Y0174859D01*
X0355918Y0175555D01*
X0362739Y0180984D02*
X0362043Y0181680D01*
X0362739Y0180984D02*
X0362043Y0180288D01*
X0356614Y0187108D02*
X0355918Y0186412D01*
X0357310D02*
X0356614Y0187108D01*
X0277677Y0141653D02*
Y0137952D01*
X0277716Y0137913D02*
X0277677Y0137952D01*
X0283386Y0137913D02*
X0277716D01*
X0327126Y0137952D02*
X0321732D01*
X0327244Y0138070D02*
X0327126Y0137952D01*
X0327244Y0141653D02*
Y0138070D01*
X0327205Y0183897D02*
Y0179960D01*
Y0183897D02*
X0327126Y0183976D01*
X0321811D01*
X0283386Y0184055D02*
X0277874D01*
X0277716Y0183897D02*
Y0179921D01*
X0277874Y0184055D02*
X0277716Y0183897D01*
X0373819Y0195952D02*
Y0195165D01*
Y0195952D02*
X0360433D01*
Y0195165D01*
X0373819Y0183747D02*
X0369882D01*
X0373819Y0184929D02*
Y0183747D01*
X0360433Y0184929D02*
X0360433Y0183747D01*
X0364370D02*
X0360433D01*
X0350907Y0134415D02*
X0339407D01*
X0350907Y0139915D02*
Y0134415D01*
Y0139915D02*
X0339407D01*
Y0134415D01*
X0229736Y0145943D02*
G03*
X0229736Y0145943I-0000223J0000000D01*
G01*
X0232047Y0145183D02*
X0243465D01*
Y0136522D02*
Y0145183D01*
X0232047Y0136522D02*
X0243465D01*
X0232047D02*
Y0145183D01*
X0236455Y0152250D02*
X0247955D01*
Y0157750D01*
X0236455D02*
X0247955D01*
X0236455Y0152250D02*
Y0157750D01*
X0215518Y0134250D02*
Y0145750D01*
Y0134250D02*
X0221018D01*
Y0145750D01*
X0215518D02*
X0221018D01*
X0236415Y0146069D02*
X0247915D01*
Y0151569D01*
X0236415D02*
X0247915D01*
X0236415Y0146069D02*
Y0151569D01*
X0206787Y0133079D02*
Y0147079D01*
X0214787D01*
Y0133079D02*
Y0147079D01*
X0206787Y0133079D02*
X0214787D01*
X0221620Y0134289D02*
Y0145789D01*
Y0134289D02*
X0227120D01*
Y0145789D01*
X0221620D02*
X0227120D01*
X0229736Y0238857D02*
G03*
X0229736Y0238857I-0000223J0000000D01*
G01*
X0232047Y0238096D02*
X0243465D01*
Y0229435D02*
Y0238096D01*
X0232047Y0229435D02*
X0243465D01*
X0232047D02*
Y0238096D01*
X0236455Y0245163D02*
X0247955D01*
Y0250663D01*
X0236455D02*
X0247955D01*
X0236455Y0245163D02*
Y0250663D01*
X0215518Y0227163D02*
Y0238663D01*
Y0227163D02*
X0221018D01*
Y0238663D01*
X0215518D02*
X0221018D01*
X0236415Y0238982D02*
X0247915D01*
Y0244482D01*
X0236415D02*
X0247915D01*
X0236415Y0238982D02*
Y0244482D01*
X0206787Y0225992D02*
Y0239992D01*
X0214787D01*
Y0225992D02*
Y0239992D01*
X0206787Y0225992D02*
X0214787D01*
X0221620Y0227203D02*
Y0238703D01*
Y0227203D02*
X0227120D01*
Y0238703D01*
X0221620D02*
X0227120D01*
X0229736Y0331770D02*
G03*
X0229736Y0331770I-0000223J0000000D01*
G01*
X0232047Y0331010D02*
X0243465D01*
Y0322348D02*
Y0331010D01*
X0232047Y0322348D02*
X0243465D01*
X0232047D02*
Y0331010D01*
X0236455Y0338077D02*
X0247955D01*
Y0343577D01*
X0236455D02*
X0247955D01*
X0236455Y0338077D02*
Y0343577D01*
X0215518Y0320077D02*
Y0331577D01*
Y0320077D02*
X0221018D01*
Y0331577D01*
X0215518D02*
X0221018D01*
X0236415Y0331896D02*
X0247915D01*
Y0337396D01*
X0236415D02*
X0247915D01*
X0236415Y0331896D02*
Y0337396D01*
X0206787Y0318906D02*
Y0332906D01*
X0214787D01*
Y0318906D02*
Y0332906D01*
X0206787Y0318906D02*
X0214787D01*
X0221620Y0320116D02*
Y0331616D01*
Y0320116D02*
X0227120D01*
Y0331616D01*
X0221620D02*
X0227120D01*
D26*
X0274607Y0348228D02*
Y0342980D01*
X0375801Y0348385D02*
Y0343138D01*
X0373178Y0345761D02*
X0378425D01*
X0274607Y0255314D02*
Y0250067D01*
X0375801Y0255472D02*
Y0250224D01*
X0373178Y0252848D02*
X0378425D01*
X0274607Y0162401D02*
Y0157153D01*
X0375801Y0162558D02*
Y0157311D01*
X0373178Y0159935D02*
X0378425D01*
D32*
X0363189Y0317205D02*
Y0320354D01*
X0364763D01*
X0365288Y0319829D01*
Y0317730D01*
X0364763Y0317205D01*
X0363189D01*
X0366337Y0320354D02*
X0367387D01*
X0366862D01*
Y0317205D01*
X0366337Y0317730D01*
X0373740Y0340551D02*
X0370591D01*
Y0338976D01*
X0371116Y0338452D01*
X0372166D01*
X0372691Y0338976D01*
Y0340551D01*
Y0339501D02*
X0373740Y0338452D01*
X0370591Y0335303D02*
Y0337402D01*
X0372166D01*
X0371641Y0336353D01*
Y0335828D01*
X0372166Y0335303D01*
X0373215D01*
X0373740Y0335828D01*
Y0336877D01*
X0373215Y0337402D01*
X0359676Y0357513D02*
X0357820Y0359368D01*
Y0360110D01*
X0358562Y0360853D01*
X0359305Y0360853D01*
X0361160Y0358997D01*
X0361902Y0359739D02*
X0363386Y0361224D01*
X0363015Y0361595D01*
X0360047D01*
X0359676Y0361966D01*
X0362244Y0340236D02*
Y0337087D01*
X0363818D01*
X0364343Y0337612D01*
Y0338661D01*
X0363818Y0339186D01*
X0362244D01*
X0363294D02*
X0364343Y0340236D01*
X0365393D02*
X0366442D01*
X0365917D01*
Y0337087D01*
X0365393Y0337612D01*
X0368016Y0340236D02*
X0369066D01*
X0368541D01*
Y0337087D01*
X0368016Y0337612D01*
X0365433Y0353385D02*
Y0350237D01*
X0367007D01*
X0367532Y0350762D01*
Y0351811D01*
X0367007Y0352336D01*
X0365433D01*
X0366482D02*
X0367532Y0353385D01*
X0368582D02*
X0369631D01*
X0369106D01*
Y0350237D01*
X0368582Y0350762D01*
X0373305Y0350237D02*
X0371205D01*
Y0351811D01*
X0372255Y0351286D01*
X0372780D01*
X0373305Y0351811D01*
Y0352860D01*
X0372780Y0353385D01*
X0371730D01*
X0371205Y0352860D01*
X0345197Y0344370D02*
Y0341221D01*
X0346771D01*
X0347296Y0341746D01*
Y0342795D01*
X0346771Y0343320D01*
X0345197D01*
X0346246D02*
X0347296Y0344370D01*
X0348345D02*
X0349395D01*
X0348870D01*
Y0341221D01*
X0348345Y0341746D01*
X0350969D02*
X0351494Y0341221D01*
X0352543D01*
X0353068Y0341746D01*
Y0342270D01*
X0352543Y0342795D01*
X0352019D01*
X0352543D01*
X0353068Y0343320D01*
Y0343845D01*
X0352543Y0344370D01*
X0351494D01*
X0350969Y0343845D01*
X0342217Y0353897D02*
X0345366D01*
Y0351798D01*
Y0348650D02*
Y0350748D01*
X0343267Y0348650D01*
X0342742D01*
X0342217Y0349174D01*
Y0350224D01*
X0342742Y0350748D01*
X0371825Y0365420D02*
X0371300Y0365945D01*
Y0366994D01*
X0371825Y0367519D01*
X0373924D01*
X0374449Y0366994D01*
Y0365945D01*
X0373924Y0365420D01*
X0371300Y0362796D02*
Y0363846D01*
X0371825Y0364371D01*
X0373924D01*
X0374449Y0363846D01*
Y0362796D01*
X0373924Y0362271D01*
X0371825D01*
X0371300Y0362796D01*
X0374449Y0361222D02*
X0371300D01*
X0374449Y0359123D01*
X0371300D01*
X0374449Y0355974D02*
Y0358073D01*
X0372350Y0355974D01*
X0371825D01*
X0371300Y0356499D01*
Y0357549D01*
X0371825Y0358073D01*
X0341469Y0338911D02*
X0340944Y0338386D01*
X0339895D01*
X0339370Y0338911D01*
Y0341010D01*
X0339895Y0341535D01*
X0340944D01*
X0341469Y0341010D01*
X0342519Y0338911D02*
X0343043Y0338386D01*
X0344093D01*
X0344618Y0338911D01*
Y0339436D01*
X0344093Y0339961D01*
X0343568D01*
X0344093D01*
X0344618Y0340485D01*
Y0341010D01*
X0344093Y0341535D01*
X0343043D01*
X0342519Y0341010D01*
X0365630Y0336220D02*
X0362481D01*
Y0334646D01*
X0363006Y0334121D01*
X0364055D01*
X0364580Y0334646D01*
Y0336220D01*
Y0335170D02*
X0365630Y0334121D01*
Y0330972D02*
Y0333071D01*
X0363531Y0330972D01*
X0363006D01*
X0362481Y0331497D01*
Y0332547D01*
X0363006Y0333071D01*
X0348110Y0338897D02*
Y0335749D01*
X0349685D01*
X0350209Y0336273D01*
Y0337323D01*
X0349685Y0337848D01*
X0348110D01*
X0349160D02*
X0350209Y0338897D01*
X0351259D02*
X0352308D01*
X0351783D01*
Y0335749D01*
X0351259Y0336273D01*
X0274575Y0319154D02*
Y0321778D01*
X0275099Y0322303D01*
X0276149D01*
X0276674Y0321778D01*
Y0319154D01*
X0279822Y0322303D02*
X0277723D01*
X0279822Y0320204D01*
Y0319679D01*
X0279298Y0319154D01*
X0278248D01*
X0277723Y0319679D01*
X0364253Y0326299D02*
X0366877D01*
X0367402Y0325774D01*
Y0324724D01*
X0366877Y0324200D01*
X0364253D01*
X0367402Y0323150D02*
Y0322101D01*
Y0322625D01*
X0364253D01*
X0364778Y0323150D01*
X0320590Y0379527D02*
Y0376378D01*
X0322165D01*
X0322690Y0376903D01*
Y0377953D01*
X0322165Y0378478D01*
X0320590D01*
X0321640D02*
X0322690Y0379527D01*
X0323739Y0376903D02*
X0324264Y0376378D01*
X0325313D01*
X0325838Y0376903D01*
Y0377428D01*
X0325313Y0377953D01*
X0325838Y0378478D01*
Y0379002D01*
X0325313Y0379527D01*
X0324264D01*
X0323739Y0379002D01*
Y0378478D01*
X0324264Y0377953D01*
X0323739Y0377428D01*
Y0376903D01*
X0324264Y0377953D02*
X0325313D01*
X0328110Y0374960D02*
Y0371812D01*
X0329684D01*
X0330209Y0372336D01*
Y0373386D01*
X0329684Y0373911D01*
X0328110D01*
X0329160D02*
X0330209Y0374960D01*
X0331259Y0371812D02*
X0333358D01*
Y0372336D01*
X0331259Y0374435D01*
Y0374960D01*
X0329803Y0335078D02*
X0332952D01*
Y0336652D01*
X0332427Y0337177D01*
X0331377D01*
X0330853Y0336652D01*
Y0335078D01*
Y0336128D02*
X0329803Y0337177D01*
Y0339801D02*
X0332952D01*
X0331377Y0338227D01*
Y0340326D01*
X0335878Y0327336D02*
X0335354Y0326812D01*
X0334304D01*
X0333779Y0327336D01*
Y0329435D01*
X0334304Y0329960D01*
X0335354D01*
X0335878Y0329435D01*
X0336928Y0329960D02*
X0337978D01*
X0337453D01*
Y0326812D01*
X0336928Y0327336D01*
X0341126Y0329960D02*
Y0326812D01*
X0339552Y0328386D01*
X0341651D01*
X0332729Y0321943D02*
X0332204Y0321418D01*
X0331155D01*
X0330630Y0321943D01*
Y0324042D01*
X0331155Y0324566D01*
X0332204D01*
X0332729Y0324042D01*
X0333778Y0324566D02*
X0334828D01*
X0334303D01*
Y0321418D01*
X0333778Y0321943D01*
X0336402D02*
X0336927Y0321418D01*
X0337977D01*
X0338501Y0321943D01*
Y0322467D01*
X0337977Y0322992D01*
X0337452D01*
X0337977D01*
X0338501Y0323517D01*
Y0324042D01*
X0337977Y0324566D01*
X0336927D01*
X0336402Y0324042D01*
X0358608Y0376402D02*
X0359133Y0375877D01*
Y0374827D01*
X0358608Y0374303D01*
X0356509D01*
X0355984Y0374827D01*
Y0375877D01*
X0356509Y0376402D01*
X0355984Y0377451D02*
Y0378501D01*
Y0377976D01*
X0359133D01*
X0358608Y0377451D01*
X0355984Y0380075D02*
Y0381125D01*
Y0380600D01*
X0359133D01*
X0358608Y0380075D01*
X0330301Y0345918D02*
X0330826Y0345393D01*
Y0344343D01*
X0330301Y0343818D01*
X0328202D01*
X0327677Y0344343D01*
Y0345393D01*
X0328202Y0345918D01*
X0330826Y0346967D02*
Y0349066D01*
X0330301D01*
X0328202Y0346967D01*
X0327677D01*
X0363189Y0224292D02*
Y0227440D01*
X0364763D01*
X0365288Y0226916D01*
Y0224817D01*
X0364763Y0224292D01*
X0363189D01*
X0366337Y0227440D02*
X0367387D01*
X0366862D01*
Y0224292D01*
X0366337Y0224817D01*
X0373740Y0247637D02*
X0370591D01*
Y0246063D01*
X0371116Y0245538D01*
X0372166D01*
X0372691Y0246063D01*
Y0247637D01*
Y0246588D02*
X0373740Y0245538D01*
X0370591Y0242390D02*
Y0244489D01*
X0372166D01*
X0371641Y0243439D01*
Y0242914D01*
X0372166Y0242390D01*
X0373215D01*
X0373740Y0242914D01*
Y0243964D01*
X0373215Y0244489D01*
X0359676Y0264600D02*
X0357820Y0266455D01*
Y0267197D01*
X0358562Y0267939D01*
X0359305Y0267939D01*
X0361160Y0266084D01*
X0361902Y0266826D02*
X0363386Y0268310D01*
X0363015Y0268681D01*
X0360047D01*
X0359676Y0269052D01*
X0362244Y0247322D02*
Y0244174D01*
X0363818D01*
X0364343Y0244699D01*
Y0245748D01*
X0363818Y0246273D01*
X0362244D01*
X0363294D02*
X0364343Y0247322D01*
X0365393D02*
X0366442D01*
X0365917D01*
Y0244174D01*
X0365393Y0244699D01*
X0368016Y0247322D02*
X0369066D01*
X0368541D01*
Y0244174D01*
X0368016Y0244699D01*
X0365433Y0260472D02*
Y0257323D01*
X0367007D01*
X0367532Y0257848D01*
Y0258898D01*
X0367007Y0259422D01*
X0365433D01*
X0366482D02*
X0367532Y0260472D01*
X0368582D02*
X0369631D01*
X0369106D01*
Y0257323D01*
X0368582Y0257848D01*
X0373305Y0257323D02*
X0371205D01*
Y0258898D01*
X0372255Y0258373D01*
X0372780D01*
X0373305Y0258898D01*
Y0259947D01*
X0372780Y0260472D01*
X0371730D01*
X0371205Y0259947D01*
X0345197Y0251456D02*
Y0248308D01*
X0346771D01*
X0347296Y0248832D01*
Y0249882D01*
X0346771Y0250407D01*
X0345197D01*
X0346246D02*
X0347296Y0251456D01*
X0348345D02*
X0349395D01*
X0348870D01*
Y0248308D01*
X0348345Y0248832D01*
X0350969D02*
X0351494Y0248308D01*
X0352543D01*
X0353068Y0248832D01*
Y0249357D01*
X0352543Y0249882D01*
X0352019D01*
X0352543D01*
X0353068Y0250407D01*
Y0250931D01*
X0352543Y0251456D01*
X0351494D01*
X0350969Y0250931D01*
X0342217Y0260984D02*
X0345366D01*
Y0258885D01*
Y0255736D02*
Y0257835D01*
X0343267Y0255736D01*
X0342742D01*
X0342217Y0256261D01*
Y0257310D01*
X0342742Y0257835D01*
X0371825Y0272507D02*
X0371300Y0273031D01*
Y0274081D01*
X0371825Y0274606D01*
X0373924D01*
X0374449Y0274081D01*
Y0273031D01*
X0373924Y0272507D01*
X0371300Y0269883D02*
Y0270932D01*
X0371825Y0271457D01*
X0373924D01*
X0374449Y0270932D01*
Y0269883D01*
X0373924Y0269358D01*
X0371825D01*
X0371300Y0269883D01*
X0374449Y0268309D02*
X0371300D01*
X0374449Y0266210D01*
X0371300D01*
X0374449Y0263061D02*
Y0265160D01*
X0372350Y0263061D01*
X0371825D01*
X0371300Y0263586D01*
Y0264635D01*
X0371825Y0265160D01*
X0341469Y0245998D02*
X0340944Y0245473D01*
X0339895D01*
X0339370Y0245998D01*
Y0248097D01*
X0339895Y0248622D01*
X0340944D01*
X0341469Y0248097D01*
X0342519Y0245998D02*
X0343043Y0245473D01*
X0344093D01*
X0344618Y0245998D01*
Y0246522D01*
X0344093Y0247047D01*
X0343568D01*
X0344093D01*
X0344618Y0247572D01*
Y0248097D01*
X0344093Y0248622D01*
X0343043D01*
X0342519Y0248097D01*
X0365630Y0243307D02*
X0362481D01*
Y0241732D01*
X0363006Y0241208D01*
X0364055D01*
X0364580Y0241732D01*
Y0243307D01*
Y0242257D02*
X0365630Y0241208D01*
Y0238059D02*
Y0240158D01*
X0363531Y0238059D01*
X0363006D01*
X0362481Y0238584D01*
Y0239633D01*
X0363006Y0240158D01*
X0348110Y0245984D02*
Y0242835D01*
X0349685D01*
X0350209Y0243360D01*
Y0244409D01*
X0349685Y0244934D01*
X0348110D01*
X0349160D02*
X0350209Y0245984D01*
X0351259D02*
X0352308D01*
X0351783D01*
Y0242835D01*
X0351259Y0243360D01*
X0274575Y0226241D02*
Y0228864D01*
X0275099Y0229389D01*
X0276149D01*
X0276674Y0228864D01*
Y0226241D01*
X0279822Y0229389D02*
X0277723D01*
X0279822Y0227290D01*
Y0226765D01*
X0279298Y0226241D01*
X0278248D01*
X0277723Y0226765D01*
X0364253Y0233385D02*
X0366877D01*
X0367402Y0232860D01*
Y0231811D01*
X0366877Y0231286D01*
X0364253D01*
X0367402Y0230237D02*
Y0229187D01*
Y0229712D01*
X0364253D01*
X0364778Y0230237D01*
X0320590Y0286614D02*
Y0283465D01*
X0322165D01*
X0322690Y0283990D01*
Y0285039D01*
X0322165Y0285564D01*
X0320590D01*
X0321640D02*
X0322690Y0286614D01*
X0323739Y0283990D02*
X0324264Y0283465D01*
X0325313D01*
X0325838Y0283990D01*
Y0284515D01*
X0325313Y0285039D01*
X0325838Y0285564D01*
Y0286089D01*
X0325313Y0286614D01*
X0324264D01*
X0323739Y0286089D01*
Y0285564D01*
X0324264Y0285039D01*
X0323739Y0284515D01*
Y0283990D01*
X0324264Y0285039D02*
X0325313D01*
X0328110Y0282047D02*
Y0278898D01*
X0329684D01*
X0330209Y0279423D01*
Y0280472D01*
X0329684Y0280997D01*
X0328110D01*
X0329160D02*
X0330209Y0282047D01*
X0331259Y0278898D02*
X0333358D01*
Y0279423D01*
X0331259Y0281522D01*
Y0282047D01*
X0329803Y0242165D02*
X0332952D01*
Y0243739D01*
X0332427Y0244264D01*
X0331377D01*
X0330853Y0243739D01*
Y0242165D01*
Y0243214D02*
X0329803Y0244264D01*
Y0246888D02*
X0332952D01*
X0331377Y0245313D01*
Y0247412D01*
X0335878Y0234423D02*
X0335354Y0233898D01*
X0334304D01*
X0333779Y0234423D01*
Y0236522D01*
X0334304Y0237047D01*
X0335354D01*
X0335878Y0236522D01*
X0336928Y0237047D02*
X0337978D01*
X0337453D01*
Y0233898D01*
X0336928Y0234423D01*
X0341126Y0237047D02*
Y0233898D01*
X0339552Y0235472D01*
X0341651D01*
X0332729Y0229029D02*
X0332204Y0228504D01*
X0331155D01*
X0330630Y0229029D01*
Y0231128D01*
X0331155Y0231653D01*
X0332204D01*
X0332729Y0231128D01*
X0333778Y0231653D02*
X0334828D01*
X0334303D01*
Y0228504D01*
X0333778Y0229029D01*
X0336402D02*
X0336927Y0228504D01*
X0337977D01*
X0338501Y0229029D01*
Y0229554D01*
X0337977Y0230079D01*
X0337452D01*
X0337977D01*
X0338501Y0230604D01*
Y0231128D01*
X0337977Y0231653D01*
X0336927D01*
X0336402Y0231128D01*
X0358608Y0283488D02*
X0359133Y0282963D01*
Y0281914D01*
X0358608Y0281389D01*
X0356509D01*
X0355984Y0281914D01*
Y0282963D01*
X0356509Y0283488D01*
X0355984Y0284538D02*
Y0285587D01*
Y0285063D01*
X0359133D01*
X0358608Y0284538D01*
X0355984Y0287162D02*
Y0288211D01*
Y0287686D01*
X0359133D01*
X0358608Y0287162D01*
X0330301Y0253004D02*
X0330826Y0252479D01*
Y0251430D01*
X0330301Y0250905D01*
X0328202D01*
X0327677Y0251430D01*
Y0252479D01*
X0328202Y0253004D01*
X0330826Y0254054D02*
Y0256153D01*
X0330301D01*
X0328202Y0254054D01*
X0327677D01*
X0363189Y0131378D02*
Y0134527D01*
X0364763D01*
X0365288Y0134002D01*
Y0131903D01*
X0364763Y0131378D01*
X0363189D01*
X0366337Y0134527D02*
X0367387D01*
X0366862D01*
Y0131378D01*
X0366337Y0131903D01*
X0373740Y0154724D02*
X0370591D01*
Y0153149D01*
X0371116Y0152625D01*
X0372166D01*
X0372691Y0153149D01*
Y0154724D01*
Y0153674D02*
X0373740Y0152625D01*
X0370591Y0149476D02*
Y0151575D01*
X0372166D01*
X0371641Y0150526D01*
Y0150001D01*
X0372166Y0149476D01*
X0373215D01*
X0373740Y0150001D01*
Y0151050D01*
X0373215Y0151575D01*
X0359676Y0171686D02*
X0357820Y0173542D01*
Y0174284D01*
X0358562Y0175026D01*
X0359305Y0175026D01*
X0361160Y0173170D01*
X0361902Y0173913D02*
X0363386Y0175397D01*
X0363015Y0175768D01*
X0360047D01*
X0359676Y0176139D01*
X0362244Y0154409D02*
Y0151260D01*
X0363818D01*
X0364343Y0151785D01*
Y0152835D01*
X0363818Y0153359D01*
X0362244D01*
X0363294D02*
X0364343Y0154409D01*
X0365393D02*
X0366442D01*
X0365917D01*
Y0151260D01*
X0365393Y0151785D01*
X0368016Y0154409D02*
X0369066D01*
X0368541D01*
Y0151260D01*
X0368016Y0151785D01*
X0365433Y0167559D02*
Y0164410D01*
X0367007D01*
X0367532Y0164935D01*
Y0165984D01*
X0367007Y0166509D01*
X0365433D01*
X0366482D02*
X0367532Y0167559D01*
X0368582D02*
X0369631D01*
X0369106D01*
Y0164410D01*
X0368582Y0164935D01*
X0373305Y0164410D02*
X0371205D01*
Y0165984D01*
X0372255Y0165459D01*
X0372780D01*
X0373305Y0165984D01*
Y0167034D01*
X0372780Y0167559D01*
X0371730D01*
X0371205Y0167034D01*
X0345197Y0158543D02*
Y0155394D01*
X0346771D01*
X0347296Y0155919D01*
Y0156968D01*
X0346771Y0157493D01*
X0345197D01*
X0346246D02*
X0347296Y0158543D01*
X0348345D02*
X0349395D01*
X0348870D01*
Y0155394D01*
X0348345Y0155919D01*
X0350969D02*
X0351494Y0155394D01*
X0352543D01*
X0353068Y0155919D01*
Y0156444D01*
X0352543Y0156968D01*
X0352019D01*
X0352543D01*
X0353068Y0157493D01*
Y0158018D01*
X0352543Y0158543D01*
X0351494D01*
X0350969Y0158018D01*
X0342217Y0168070D02*
X0345366D01*
Y0165971D01*
Y0162823D02*
Y0164922D01*
X0343267Y0162823D01*
X0342742D01*
X0342217Y0163347D01*
Y0164397D01*
X0342742Y0164922D01*
X0371825Y0179593D02*
X0371300Y0180118D01*
Y0181168D01*
X0371825Y0181692D01*
X0373924D01*
X0374449Y0181168D01*
Y0180118D01*
X0373924Y0179593D01*
X0371300Y0176970D02*
Y0178019D01*
X0371825Y0178544D01*
X0373924D01*
X0374449Y0178019D01*
Y0176970D01*
X0373924Y0176445D01*
X0371825D01*
X0371300Y0176970D01*
X0374449Y0175395D02*
X0371300D01*
X0374449Y0173296D01*
X0371300D01*
X0374449Y0170148D02*
Y0172247D01*
X0372350Y0170148D01*
X0371825D01*
X0371300Y0170672D01*
Y0171722D01*
X0371825Y0172247D01*
X0341469Y0153084D02*
X0340944Y0152559D01*
X0339895D01*
X0339370Y0153084D01*
Y0155183D01*
X0339895Y0155708D01*
X0340944D01*
X0341469Y0155183D01*
X0342519Y0153084D02*
X0343043Y0152559D01*
X0344093D01*
X0344618Y0153084D01*
Y0153609D01*
X0344093Y0154134D01*
X0343568D01*
X0344093D01*
X0344618Y0154659D01*
Y0155183D01*
X0344093Y0155708D01*
X0343043D01*
X0342519Y0155183D01*
X0365630Y0150393D02*
X0362481D01*
Y0148819D01*
X0363006Y0148294D01*
X0364055D01*
X0364580Y0148819D01*
Y0150393D01*
Y0149344D02*
X0365630Y0148294D01*
Y0145145D02*
Y0147245D01*
X0363531Y0145145D01*
X0363006D01*
X0362481Y0145670D01*
Y0146720D01*
X0363006Y0147245D01*
X0348110Y0153070D02*
Y0149922D01*
X0349685D01*
X0350209Y0150446D01*
Y0151496D01*
X0349685Y0152021D01*
X0348110D01*
X0349160D02*
X0350209Y0153070D01*
X0351259D02*
X0352308D01*
X0351783D01*
Y0149922D01*
X0351259Y0150446D01*
X0274575Y0133327D02*
Y0135951D01*
X0275099Y0136476D01*
X0276149D01*
X0276674Y0135951D01*
Y0133327D01*
X0279822Y0136476D02*
X0277723D01*
X0279822Y0134377D01*
Y0133852D01*
X0279298Y0133327D01*
X0278248D01*
X0277723Y0133852D01*
X0364253Y0140472D02*
X0366877D01*
X0367402Y0139947D01*
Y0138898D01*
X0366877Y0138373D01*
X0364253D01*
X0367402Y0137323D02*
Y0136274D01*
Y0136799D01*
X0364253D01*
X0364778Y0137323D01*
X0320590Y0193700D02*
Y0190552D01*
X0322165D01*
X0322690Y0191076D01*
Y0192126D01*
X0322165Y0192651D01*
X0320590D01*
X0321640D02*
X0322690Y0193700D01*
X0323739Y0191076D02*
X0324264Y0190552D01*
X0325313D01*
X0325838Y0191076D01*
Y0191601D01*
X0325313Y0192126D01*
X0325838Y0192651D01*
Y0193175D01*
X0325313Y0193700D01*
X0324264D01*
X0323739Y0193175D01*
Y0192651D01*
X0324264Y0192126D01*
X0323739Y0191601D01*
Y0191076D01*
X0324264Y0192126D02*
X0325313D01*
X0328110Y0189133D02*
Y0185985D01*
X0329684D01*
X0330209Y0186510D01*
Y0187559D01*
X0329684Y0188084D01*
X0328110D01*
X0329160D02*
X0330209Y0189133D01*
X0331259Y0185985D02*
X0333358D01*
Y0186510D01*
X0331259Y0188609D01*
Y0189133D01*
X0329803Y0149251D02*
X0332952D01*
Y0150826D01*
X0332427Y0151350D01*
X0331377D01*
X0330853Y0150826D01*
Y0149251D01*
Y0150301D02*
X0329803Y0151350D01*
Y0153974D02*
X0332952D01*
X0331377Y0152400D01*
Y0154499D01*
X0335878Y0141509D02*
X0335354Y0140985D01*
X0334304D01*
X0333779Y0141509D01*
Y0143608D01*
X0334304Y0144133D01*
X0335354D01*
X0335878Y0143608D01*
X0336928Y0144133D02*
X0337978D01*
X0337453D01*
Y0140985D01*
X0336928Y0141509D01*
X0341126Y0144133D02*
Y0140985D01*
X0339552Y0142559D01*
X0341651D01*
X0332729Y0136116D02*
X0332204Y0135591D01*
X0331155D01*
X0330630Y0136116D01*
Y0138215D01*
X0331155Y0138740D01*
X0332204D01*
X0332729Y0138215D01*
X0333778Y0138740D02*
X0334828D01*
X0334303D01*
Y0135591D01*
X0333778Y0136116D01*
X0336402D02*
X0336927Y0135591D01*
X0337977D01*
X0338501Y0136116D01*
Y0136641D01*
X0337977Y0137165D01*
X0337452D01*
X0337977D01*
X0338501Y0137690D01*
Y0138215D01*
X0337977Y0138740D01*
X0336927D01*
X0336402Y0138215D01*
X0358608Y0190575D02*
X0359133Y0190050D01*
Y0189001D01*
X0358608Y0188476D01*
X0356509D01*
X0355984Y0189001D01*
Y0190050D01*
X0356509Y0190575D01*
X0355984Y0191624D02*
Y0192674D01*
Y0192149D01*
X0359133D01*
X0358608Y0191624D01*
X0355984Y0194248D02*
Y0195298D01*
Y0194773D01*
X0359133D01*
X0358608Y0194248D01*
X0330301Y0160091D02*
X0330826Y0159566D01*
Y0158516D01*
X0330301Y0157992D01*
X0328202D01*
X0327677Y0158516D01*
Y0159566D01*
X0328202Y0160091D01*
X0330826Y0161140D02*
Y0163239D01*
X0330301D01*
X0328202Y0161140D01*
X0327677D01*
X0221620Y0145789D02*
Y0148938D01*
X0220046D01*
X0219521Y0148413D01*
Y0147364D01*
X0220046Y0146839D01*
X0221620D01*
X0220571D02*
X0219521Y0145789D01*
X0216372Y0148938D02*
X0218472D01*
Y0147364D01*
X0217422Y0147889D01*
X0216897D01*
X0216372Y0147364D01*
Y0146314D01*
X0216897Y0145789D01*
X0217947D01*
X0218472Y0146314D01*
X0186969Y0132756D02*
Y0135905D01*
X0185394D01*
X0184869Y0135380D01*
Y0134330D01*
X0185394Y0133806D01*
X0186969D01*
X0185919D02*
X0184869Y0132756D01*
X0182246D02*
Y0135905D01*
X0183820Y0134330D01*
X0181721D01*
X0240591Y0135865D02*
Y0132717D01*
X0238492D01*
X0235868D02*
Y0135865D01*
X0237442Y0134291D01*
X0235343D01*
X0247073Y0139068D02*
X0247597Y0138543D01*
Y0137493D01*
X0247073Y0136969D01*
X0244974D01*
X0244449Y0137493D01*
Y0138543D01*
X0244974Y0139068D01*
X0244449Y0140117D02*
Y0141167D01*
Y0140642D01*
X0247597D01*
X0247073Y0140117D01*
X0247597Y0144840D02*
Y0142741D01*
X0246023D01*
X0246548Y0143790D01*
Y0144315D01*
X0246023Y0144840D01*
X0244974D01*
X0244449Y0144315D01*
Y0143266D01*
X0244974Y0142741D01*
X0247507Y0163198D02*
X0248032Y0162673D01*
Y0161624D01*
X0247507Y0161099D01*
X0245408D01*
X0244883Y0161624D01*
Y0162673D01*
X0245408Y0163198D01*
X0244883Y0164248D02*
Y0165297D01*
Y0164772D01*
X0248032D01*
X0247507Y0164248D01*
X0244883Y0168446D02*
X0248032D01*
X0246458Y0166871D01*
Y0168970D01*
X0205065Y0137887D02*
X0205590Y0137362D01*
Y0136312D01*
X0205065Y0135787D01*
X0202966D01*
X0202441Y0136312D01*
Y0137362D01*
X0202966Y0137887D01*
X0202441Y0138936D02*
Y0139986D01*
Y0139461D01*
X0205590D01*
X0205065Y0138936D01*
X0202441Y0143659D02*
Y0141560D01*
X0204540Y0143659D01*
X0205065D01*
X0205590Y0143134D01*
Y0142085D01*
X0205065Y0141560D01*
X0215905Y0173700D02*
Y0171076D01*
X0215381Y0170551D01*
X0214331D01*
X0213806Y0171076D01*
Y0173700D01*
X0212757Y0170551D02*
X0211707D01*
X0212232D01*
Y0173700D01*
X0212757Y0173175D01*
X0213819Y0152283D02*
X0211720Y0149134D01*
Y0152283D02*
X0213819Y0149134D01*
X0210670D02*
X0209621D01*
X0210145D01*
Y0152283D01*
X0210670Y0151758D01*
X0229953Y0193418D02*
Y0190794D01*
X0229429Y0190269D01*
X0228379D01*
X0227854Y0190794D01*
Y0193418D01*
X0224706Y0190269D02*
X0226805D01*
X0224706Y0192368D01*
Y0192893D01*
X0225230Y0193418D01*
X0226280D01*
X0226805Y0192893D01*
X0168976Y0136574D02*
X0166877D01*
X0167927D01*
Y0133425D01*
X0165828D02*
X0164778D01*
X0165303D01*
Y0136574D01*
X0165828Y0136049D01*
X0247683Y0192629D02*
Y0195777D01*
X0246109D01*
X0245584Y0195253D01*
Y0194203D01*
X0246109Y0193678D01*
X0247683D01*
X0246634D02*
X0245584Y0192629D01*
X0244535D02*
X0243485D01*
X0244010D01*
Y0195777D01*
X0244535Y0195253D01*
X0241911Y0192629D02*
X0240861D01*
X0241386D01*
Y0195777D01*
X0241911Y0195253D01*
X0175630Y0142165D02*
X0178779D01*
Y0143740D01*
X0178254Y0144264D01*
X0177204D01*
X0176679Y0143740D01*
Y0142165D01*
Y0143215D02*
X0175630Y0144264D01*
Y0145314D02*
Y0146363D01*
Y0145839D01*
X0178779D01*
X0178254Y0145314D01*
Y0147938D02*
X0178779Y0148463D01*
Y0149512D01*
X0178254Y0150037D01*
X0176155D01*
X0175630Y0149512D01*
Y0148463D01*
X0176155Y0147938D01*
X0178254D01*
X0177402Y0135197D02*
X0180550D01*
Y0136771D01*
X0180025Y0137296D01*
X0178976D01*
X0178451Y0136771D01*
Y0135197D01*
Y0136246D02*
X0177402Y0137296D01*
X0177926Y0138346D02*
X0177402Y0138870D01*
Y0139920D01*
X0177926Y0140445D01*
X0180025D01*
X0180550Y0139920D01*
Y0138870D01*
X0180025Y0138346D01*
X0179501D01*
X0178976Y0138870D01*
Y0140445D01*
X0153386Y0138701D02*
X0156534D01*
Y0140275D01*
X0156010Y0140800D01*
X0154960D01*
X0154435Y0140275D01*
Y0138701D01*
Y0139750D02*
X0153386Y0140800D01*
X0156010Y0141849D02*
X0156534Y0142374D01*
Y0143424D01*
X0156010Y0143948D01*
X0155485D01*
X0154960Y0143424D01*
X0154435Y0143948D01*
X0153911D01*
X0153386Y0143424D01*
Y0142374D01*
X0153911Y0141849D01*
X0154435D01*
X0154960Y0142374D01*
X0155485Y0141849D01*
X0156010D01*
X0154960Y0142374D02*
Y0143424D01*
X0166654Y0150236D02*
Y0153385D01*
X0165079D01*
X0164555Y0152860D01*
Y0151811D01*
X0165079Y0151286D01*
X0166654D01*
X0165604D02*
X0164555Y0150236D01*
X0163505Y0153385D02*
X0161406D01*
Y0152860D01*
X0163505Y0150761D01*
Y0150236D01*
X0243013Y0177829D02*
Y0180977D01*
X0241439D01*
X0240914Y0180453D01*
Y0179403D01*
X0241439Y0178878D01*
X0243013D01*
X0241964D02*
X0240914Y0177829D01*
X0237766Y0180977D02*
X0238815Y0180453D01*
X0239865Y0179403D01*
Y0178354D01*
X0239340Y0177829D01*
X0238290D01*
X0237766Y0178354D01*
Y0178878D01*
X0238290Y0179403D01*
X0239865D01*
X0246373Y0183549D02*
Y0186697D01*
X0244799D01*
X0244274Y0186173D01*
Y0185123D01*
X0244799Y0184599D01*
X0246373D01*
X0245324D02*
X0244274Y0183549D01*
X0241126D02*
X0243225D01*
X0241126Y0185648D01*
Y0186173D01*
X0241650Y0186697D01*
X0242700D01*
X0243225Y0186173D01*
X0195866Y0137244D02*
Y0140393D01*
X0194292D01*
X0193767Y0139868D01*
Y0138818D01*
X0194292Y0138294D01*
X0195866D01*
X0194817D02*
X0193767Y0137244D01*
X0192718D02*
X0191668D01*
X0192193D01*
Y0140393D01*
X0192718Y0139868D01*
X0195235Y0172008D02*
X0192087D01*
Y0174107D01*
Y0177256D02*
Y0175156D01*
X0194186Y0177256D01*
X0194710D01*
X0195235Y0176731D01*
Y0175681D01*
X0194710Y0175156D01*
X0221555Y0185460D02*
Y0182311D01*
X0219456D01*
X0218407D02*
X0217357D01*
X0217882D01*
Y0185460D01*
X0218407Y0184935D01*
X0190827Y0166613D02*
Y0163465D01*
X0189252D01*
X0188728Y0163989D01*
Y0166088D01*
X0189252Y0166613D01*
X0190827D01*
X0187678Y0163465D02*
X0186629D01*
X0187153D01*
Y0166613D01*
X0187678Y0166088D01*
X0192980Y0169986D02*
X0193504Y0170511D01*
X0194554D01*
X0195079Y0169986D01*
Y0167887D01*
X0194554Y0167362D01*
X0193504D01*
X0192980Y0167887D01*
X0191930Y0167362D02*
X0190881D01*
X0191405D01*
Y0170511D01*
X0191930Y0169986D01*
X0189306D02*
X0188781Y0170511D01*
X0187732D01*
X0187207Y0169986D01*
Y0167887D01*
X0187732Y0167362D01*
X0188781D01*
X0189306Y0167887D01*
Y0169986D01*
X0192468Y0181521D02*
X0192993Y0182046D01*
X0194042D01*
X0194567Y0181521D01*
Y0179422D01*
X0194042Y0178898D01*
X0192993D01*
X0192468Y0179422D01*
X0191418Y0182046D02*
X0189319D01*
Y0181521D01*
X0191418Y0179422D01*
Y0178898D01*
X0205245Y0189464D02*
X0205769Y0189989D01*
X0206819D01*
X0207344Y0189464D01*
Y0187365D01*
X0206819Y0186840D01*
X0205769D01*
X0205245Y0187365D01*
X0202096Y0186840D02*
X0204195D01*
X0202096Y0188939D01*
Y0189464D01*
X0202621Y0189989D01*
X0203670D01*
X0204195Y0189464D01*
X0243714Y0190593D02*
X0244239Y0191118D01*
X0245288D01*
X0245813Y0190593D01*
Y0188494D01*
X0245288Y0187969D01*
X0244239D01*
X0243714Y0188494D01*
X0242665Y0187969D02*
X0241615D01*
X0242140D01*
Y0191118D01*
X0242665Y0190593D01*
X0221620Y0238703D02*
Y0241851D01*
X0220046D01*
X0219521Y0241327D01*
Y0240277D01*
X0220046Y0239752D01*
X0221620D01*
X0220571D02*
X0219521Y0238703D01*
X0216372Y0241851D02*
X0218472D01*
Y0240277D01*
X0217422Y0240802D01*
X0216897D01*
X0216372Y0240277D01*
Y0239228D01*
X0216897Y0238703D01*
X0217947D01*
X0218472Y0239228D01*
X0186969Y0225669D02*
Y0228818D01*
X0185394D01*
X0184869Y0228293D01*
Y0227244D01*
X0185394Y0226719D01*
X0186969D01*
X0185919D02*
X0184869Y0225669D01*
X0182246D02*
Y0228818D01*
X0183820Y0227244D01*
X0181721D01*
X0240591Y0228779D02*
Y0225630D01*
X0238492D01*
X0235868D02*
Y0228779D01*
X0237442Y0227204D01*
X0235343D01*
X0247073Y0231981D02*
X0247597Y0231456D01*
Y0230407D01*
X0247073Y0229882D01*
X0244974D01*
X0244449Y0230407D01*
Y0231456D01*
X0244974Y0231981D01*
X0244449Y0233031D02*
Y0234080D01*
Y0233555D01*
X0247597D01*
X0247073Y0233031D01*
X0247597Y0237753D02*
Y0235654D01*
X0246023D01*
X0246548Y0236704D01*
Y0237229D01*
X0246023Y0237753D01*
X0244974D01*
X0244449Y0237229D01*
Y0236179D01*
X0244974Y0235654D01*
X0247507Y0256111D02*
X0248032Y0255587D01*
Y0254537D01*
X0247507Y0254012D01*
X0245408D01*
X0244883Y0254537D01*
Y0255587D01*
X0245408Y0256111D01*
X0244883Y0257161D02*
Y0258210D01*
Y0257686D01*
X0248032D01*
X0247507Y0257161D01*
X0244883Y0261359D02*
X0248032D01*
X0246458Y0259785D01*
Y0261884D01*
X0205065Y0230800D02*
X0205590Y0230275D01*
Y0229226D01*
X0205065Y0228701D01*
X0202966D01*
X0202441Y0229226D01*
Y0230275D01*
X0202966Y0230800D01*
X0202441Y0231849D02*
Y0232899D01*
Y0232374D01*
X0205590D01*
X0205065Y0231849D01*
X0202441Y0236572D02*
Y0234473D01*
X0204540Y0236572D01*
X0205065D01*
X0205590Y0236048D01*
Y0234998D01*
X0205065Y0234473D01*
X0215905Y0266613D02*
Y0263989D01*
X0215381Y0263465D01*
X0214331D01*
X0213806Y0263989D01*
Y0266613D01*
X0212757Y0263465D02*
X0211707D01*
X0212232D01*
Y0266613D01*
X0212757Y0266089D01*
X0213819Y0245196D02*
X0211720Y0242047D01*
Y0245196D02*
X0213819Y0242047D01*
X0210670D02*
X0209621D01*
X0210145D01*
Y0245196D01*
X0210670Y0244671D01*
X0229953Y0286331D02*
Y0283707D01*
X0229429Y0283182D01*
X0228379D01*
X0227854Y0283707D01*
Y0286331D01*
X0224706Y0283182D02*
X0226805D01*
X0224706Y0285281D01*
Y0285806D01*
X0225230Y0286331D01*
X0226280D01*
X0226805Y0285806D01*
X0168976Y0229487D02*
X0166877D01*
X0167927D01*
Y0226339D01*
X0165828D02*
X0164778D01*
X0165303D01*
Y0229487D01*
X0165828Y0228962D01*
X0247683Y0285542D02*
Y0288691D01*
X0246109D01*
X0245584Y0288166D01*
Y0287117D01*
X0246109Y0286592D01*
X0247683D01*
X0246634D02*
X0245584Y0285542D01*
X0244535D02*
X0243485D01*
X0244010D01*
Y0288691D01*
X0244535Y0288166D01*
X0241911Y0285542D02*
X0240861D01*
X0241386D01*
Y0288691D01*
X0241911Y0288166D01*
X0175630Y0235079D02*
X0178779D01*
Y0236653D01*
X0178254Y0237178D01*
X0177204D01*
X0176679Y0236653D01*
Y0235079D01*
Y0236128D02*
X0175630Y0237178D01*
Y0238227D02*
Y0239277D01*
Y0238752D01*
X0178779D01*
X0178254Y0238227D01*
Y0240851D02*
X0178779Y0241376D01*
Y0242425D01*
X0178254Y0242950D01*
X0176155D01*
X0175630Y0242425D01*
Y0241376D01*
X0176155Y0240851D01*
X0178254D01*
X0177402Y0228110D02*
X0180550D01*
Y0229685D01*
X0180025Y0230209D01*
X0178976D01*
X0178451Y0229685D01*
Y0228110D01*
Y0229160D02*
X0177402Y0230209D01*
X0177926Y0231259D02*
X0177402Y0231784D01*
Y0232833D01*
X0177926Y0233358D01*
X0180025D01*
X0180550Y0232833D01*
Y0231784D01*
X0180025Y0231259D01*
X0179501D01*
X0178976Y0231784D01*
Y0233358D01*
X0153386Y0231614D02*
X0156534D01*
Y0233189D01*
X0156010Y0233713D01*
X0154960D01*
X0154435Y0233189D01*
Y0231614D01*
Y0232664D02*
X0153386Y0233713D01*
X0156010Y0234763D02*
X0156534Y0235288D01*
Y0236337D01*
X0156010Y0236862D01*
X0155485D01*
X0154960Y0236337D01*
X0154435Y0236862D01*
X0153911D01*
X0153386Y0236337D01*
Y0235288D01*
X0153911Y0234763D01*
X0154435D01*
X0154960Y0235288D01*
X0155485Y0234763D01*
X0156010D01*
X0154960Y0235288D02*
Y0236337D01*
X0166654Y0243150D02*
Y0246298D01*
X0165079D01*
X0164555Y0245774D01*
Y0244724D01*
X0165079Y0244199D01*
X0166654D01*
X0165604D02*
X0164555Y0243150D01*
X0163505Y0246298D02*
X0161406D01*
Y0245774D01*
X0163505Y0243674D01*
Y0243150D01*
X0243013Y0270742D02*
Y0273891D01*
X0241439D01*
X0240914Y0273366D01*
Y0272317D01*
X0241439Y0271792D01*
X0243013D01*
X0241964D02*
X0240914Y0270742D01*
X0237766Y0273891D02*
X0238815Y0273366D01*
X0239865Y0272317D01*
Y0271267D01*
X0239340Y0270742D01*
X0238290D01*
X0237766Y0271267D01*
Y0271792D01*
X0238290Y0272317D01*
X0239865D01*
X0246373Y0276462D02*
Y0279611D01*
X0244799D01*
X0244274Y0279086D01*
Y0278037D01*
X0244799Y0277512D01*
X0246373D01*
X0245324D02*
X0244274Y0276462D01*
X0241126D02*
X0243225D01*
X0241126Y0278561D01*
Y0279086D01*
X0241650Y0279611D01*
X0242700D01*
X0243225Y0279086D01*
X0195866Y0230157D02*
Y0233306D01*
X0194292D01*
X0193767Y0232781D01*
Y0231732D01*
X0194292Y0231207D01*
X0195866D01*
X0194817D02*
X0193767Y0230157D01*
X0192718D02*
X0191668D01*
X0192193D01*
Y0233306D01*
X0192718Y0232781D01*
X0195235Y0264921D02*
X0192087D01*
Y0267020D01*
Y0270169D02*
Y0268070D01*
X0194186Y0270169D01*
X0194710D01*
X0195235Y0269644D01*
Y0268595D01*
X0194710Y0268070D01*
X0221555Y0278373D02*
Y0275224D01*
X0219456D01*
X0218407D02*
X0217357D01*
X0217882D01*
Y0278373D01*
X0218407Y0277848D01*
X0190827Y0259527D02*
Y0256378D01*
X0189252D01*
X0188728Y0256903D01*
Y0259002D01*
X0189252Y0259527D01*
X0190827D01*
X0187678Y0256378D02*
X0186629D01*
X0187153D01*
Y0259527D01*
X0187678Y0259002D01*
X0192980Y0262899D02*
X0193504Y0263424D01*
X0194554D01*
X0195079Y0262899D01*
Y0260800D01*
X0194554Y0260276D01*
X0193504D01*
X0192980Y0260800D01*
X0191930Y0260276D02*
X0190881D01*
X0191405D01*
Y0263424D01*
X0191930Y0262899D01*
X0189306D02*
X0188781Y0263424D01*
X0187732D01*
X0187207Y0262899D01*
Y0260800D01*
X0187732Y0260276D01*
X0188781D01*
X0189306Y0260800D01*
Y0262899D01*
X0192468Y0274435D02*
X0192993Y0274960D01*
X0194042D01*
X0194567Y0274435D01*
Y0272336D01*
X0194042Y0271811D01*
X0192993D01*
X0192468Y0272336D01*
X0191418Y0274960D02*
X0189319D01*
Y0274435D01*
X0191418Y0272336D01*
Y0271811D01*
X0205245Y0282378D02*
X0205769Y0282902D01*
X0206819D01*
X0207344Y0282378D01*
Y0280278D01*
X0206819Y0279754D01*
X0205769D01*
X0205245Y0280278D01*
X0202096Y0279754D02*
X0204195D01*
X0202096Y0281853D01*
Y0282378D01*
X0202621Y0282902D01*
X0203670D01*
X0204195Y0282378D01*
X0243714Y0283506D02*
X0244239Y0284031D01*
X0245288D01*
X0245813Y0283506D01*
Y0281407D01*
X0245288Y0280882D01*
X0244239D01*
X0243714Y0281407D01*
X0242665Y0280882D02*
X0241615D01*
X0242140D01*
Y0284031D01*
X0242665Y0283506D01*
X0221620Y0331616D02*
Y0334765D01*
X0220046D01*
X0219521Y0334240D01*
Y0333190D01*
X0220046Y0332666D01*
X0221620D01*
X0220571D02*
X0219521Y0331616D01*
X0216372Y0334765D02*
X0218472D01*
Y0333190D01*
X0217422Y0333715D01*
X0216897D01*
X0216372Y0333190D01*
Y0332141D01*
X0216897Y0331616D01*
X0217947D01*
X0218472Y0332141D01*
X0186969Y0318583D02*
Y0321731D01*
X0185394D01*
X0184869Y0321207D01*
Y0320157D01*
X0185394Y0319632D01*
X0186969D01*
X0185919D02*
X0184869Y0318583D01*
X0182246D02*
Y0321731D01*
X0183820Y0320157D01*
X0181721D01*
X0240591Y0321692D02*
Y0318543D01*
X0238492D01*
X0235868D02*
Y0321692D01*
X0237442Y0320118D01*
X0235343D01*
X0247073Y0324894D02*
X0247597Y0324370D01*
Y0323320D01*
X0247073Y0322795D01*
X0244974D01*
X0244449Y0323320D01*
Y0324370D01*
X0244974Y0324894D01*
X0244449Y0325944D02*
Y0326993D01*
Y0326469D01*
X0247597D01*
X0247073Y0325944D01*
X0247597Y0330667D02*
Y0328568D01*
X0246023D01*
X0246548Y0329617D01*
Y0330142D01*
X0246023Y0330667D01*
X0244974D01*
X0244449Y0330142D01*
Y0329093D01*
X0244974Y0328568D01*
X0247507Y0349025D02*
X0248032Y0348500D01*
Y0347450D01*
X0247507Y0346926D01*
X0245408D01*
X0244883Y0347450D01*
Y0348500D01*
X0245408Y0349025D01*
X0244883Y0350074D02*
Y0351124D01*
Y0350599D01*
X0248032D01*
X0247507Y0350074D01*
X0244883Y0354273D02*
X0248032D01*
X0246458Y0352698D01*
Y0354797D01*
X0205065Y0323713D02*
X0205590Y0323189D01*
Y0322139D01*
X0205065Y0321614D01*
X0202966D01*
X0202441Y0322139D01*
Y0323189D01*
X0202966Y0323713D01*
X0202441Y0324763D02*
Y0325812D01*
Y0325288D01*
X0205590D01*
X0205065Y0324763D01*
X0202441Y0329486D02*
Y0327387D01*
X0204540Y0329486D01*
X0205065D01*
X0205590Y0328961D01*
Y0327911D01*
X0205065Y0327387D01*
X0215905Y0359527D02*
Y0356903D01*
X0215381Y0356378D01*
X0214331D01*
X0213806Y0356903D01*
Y0359527D01*
X0212757Y0356378D02*
X0211707D01*
X0212232D01*
Y0359527D01*
X0212757Y0359002D01*
X0213819Y0338109D02*
X0211720Y0334961D01*
Y0338109D02*
X0213819Y0334961D01*
X0210670D02*
X0209621D01*
X0210145D01*
Y0338109D01*
X0210670Y0337584D01*
X0229953Y0379244D02*
Y0376621D01*
X0229429Y0376096D01*
X0228379D01*
X0227854Y0376621D01*
Y0379244D01*
X0224706Y0376096D02*
X0226805D01*
X0224706Y0378195D01*
Y0378720D01*
X0225230Y0379244D01*
X0226280D01*
X0226805Y0378720D01*
X0168976Y0322401D02*
X0166877D01*
X0167927D01*
Y0319252D01*
X0165828D02*
X0164778D01*
X0165303D01*
Y0322401D01*
X0165828Y0321876D01*
X0247683Y0378456D02*
Y0381604D01*
X0246109D01*
X0245584Y0381080D01*
Y0380030D01*
X0246109Y0379505D01*
X0247683D01*
X0246634D02*
X0245584Y0378456D01*
X0244535D02*
X0243485D01*
X0244010D01*
Y0381604D01*
X0244535Y0381080D01*
X0241911Y0378456D02*
X0240861D01*
X0241386D01*
Y0381604D01*
X0241911Y0381080D01*
X0175630Y0327992D02*
X0178779D01*
Y0329567D01*
X0178254Y0330091D01*
X0177204D01*
X0176679Y0329567D01*
Y0327992D01*
Y0329042D02*
X0175630Y0330091D01*
Y0331141D02*
Y0332190D01*
Y0331666D01*
X0178779D01*
X0178254Y0331141D01*
Y0333765D02*
X0178779Y0334289D01*
Y0335339D01*
X0178254Y0335864D01*
X0176155D01*
X0175630Y0335339D01*
Y0334289D01*
X0176155Y0333765D01*
X0178254D01*
X0177402Y0321024D02*
X0180550D01*
Y0322598D01*
X0180025Y0323123D01*
X0178976D01*
X0178451Y0322598D01*
Y0321024D01*
Y0322073D02*
X0177402Y0323123D01*
X0177926Y0324172D02*
X0177402Y0324697D01*
Y0325747D01*
X0177926Y0326271D01*
X0180025D01*
X0180550Y0325747D01*
Y0324697D01*
X0180025Y0324172D01*
X0179501D01*
X0178976Y0324697D01*
Y0326271D01*
X0153386Y0324528D02*
X0156534D01*
Y0326102D01*
X0156010Y0326627D01*
X0154960D01*
X0154435Y0326102D01*
Y0324528D01*
Y0325577D02*
X0153386Y0326627D01*
X0156010Y0327676D02*
X0156534Y0328201D01*
Y0329251D01*
X0156010Y0329775D01*
X0155485D01*
X0154960Y0329251D01*
X0154435Y0329775D01*
X0153911D01*
X0153386Y0329251D01*
Y0328201D01*
X0153911Y0327676D01*
X0154435D01*
X0154960Y0328201D01*
X0155485Y0327676D01*
X0156010D01*
X0154960Y0328201D02*
Y0329251D01*
X0166654Y0336063D02*
Y0339212D01*
X0165079D01*
X0164555Y0338687D01*
Y0337637D01*
X0165079Y0337113D01*
X0166654D01*
X0165604D02*
X0164555Y0336063D01*
X0163505Y0339212D02*
X0161406D01*
Y0338687D01*
X0163505Y0336588D01*
Y0336063D01*
X0243013Y0363656D02*
Y0366804D01*
X0241439D01*
X0240914Y0366280D01*
Y0365230D01*
X0241439Y0364705D01*
X0243013D01*
X0241964D02*
X0240914Y0363656D01*
X0237766Y0366804D02*
X0238815Y0366280D01*
X0239865Y0365230D01*
Y0364180D01*
X0239340Y0363656D01*
X0238290D01*
X0237766Y0364180D01*
Y0364705D01*
X0238290Y0365230D01*
X0239865D01*
X0246373Y0369376D02*
Y0372524D01*
X0244799D01*
X0244274Y0372000D01*
Y0370950D01*
X0244799Y0370425D01*
X0246373D01*
X0245324D02*
X0244274Y0369376D01*
X0241126D02*
X0243225D01*
X0241126Y0371475D01*
Y0372000D01*
X0241650Y0372524D01*
X0242700D01*
X0243225Y0372000D01*
X0195866Y0323071D02*
Y0326220D01*
X0194292D01*
X0193767Y0325695D01*
Y0324645D01*
X0194292Y0324120D01*
X0195866D01*
X0194817D02*
X0193767Y0323071D01*
X0192718D02*
X0191668D01*
X0192193D01*
Y0326220D01*
X0192718Y0325695D01*
X0195235Y0357835D02*
X0192087D01*
Y0359934D01*
Y0363082D02*
Y0360983D01*
X0194186Y0363082D01*
X0194710D01*
X0195235Y0362558D01*
Y0361508D01*
X0194710Y0360983D01*
X0221555Y0371287D02*
Y0368138D01*
X0219456D01*
X0218407D02*
X0217357D01*
X0217882D01*
Y0371287D01*
X0218407Y0370762D01*
X0190827Y0352440D02*
Y0349291D01*
X0189252D01*
X0188728Y0349816D01*
Y0351915D01*
X0189252Y0352440D01*
X0190827D01*
X0187678Y0349291D02*
X0186629D01*
X0187153D01*
Y0352440D01*
X0187678Y0351915D01*
X0192980Y0355813D02*
X0193504Y0356338D01*
X0194554D01*
X0195079Y0355813D01*
Y0353714D01*
X0194554Y0353189D01*
X0193504D01*
X0192980Y0353714D01*
X0191930Y0353189D02*
X0190881D01*
X0191405D01*
Y0356338D01*
X0191930Y0355813D01*
X0189306D02*
X0188781Y0356338D01*
X0187732D01*
X0187207Y0355813D01*
Y0353714D01*
X0187732Y0353189D01*
X0188781D01*
X0189306Y0353714D01*
Y0355813D01*
X0192468Y0367348D02*
X0192993Y0367873D01*
X0194042D01*
X0194567Y0367348D01*
Y0365249D01*
X0194042Y0364724D01*
X0192993D01*
X0192468Y0365249D01*
X0191418Y0367873D02*
X0189319D01*
Y0367348D01*
X0191418Y0365249D01*
Y0364724D01*
X0205245Y0375291D02*
X0205769Y0375816D01*
X0206819D01*
X0207344Y0375291D01*
Y0373192D01*
X0206819Y0372667D01*
X0205769D01*
X0205245Y0373192D01*
X0202096Y0372667D02*
X0204195D01*
X0202096Y0374766D01*
Y0375291D01*
X0202621Y0375816D01*
X0203670D01*
X0204195Y0375291D01*
X0243714Y0376420D02*
X0244239Y0376944D01*
X0245288D01*
X0245813Y0376420D01*
Y0374321D01*
X0245288Y0373796D01*
X0244239D01*
X0243714Y0374321D01*
X0242665Y0373796D02*
X0241615D01*
X0242140D01*
Y0376944D01*
X0242665Y0376420D01*
D33*
X0349194Y0354683D02*
X0348669Y0354158D01*
X0347619D01*
X0347094Y0354683D01*
Y0356782D01*
X0347619Y0357307D01*
X0348669D01*
X0349194Y0356782D01*
X0350243Y0357307D02*
X0351292D01*
X0350768D01*
Y0354158D01*
X0350243Y0354683D01*
X0352867Y0356782D02*
X0353392Y0357307D01*
X0354441D01*
X0354966Y0356782D01*
Y0354683D01*
X0354441Y0354158D01*
X0353392D01*
X0352867Y0354683D01*
Y0355207D01*
X0353392Y0355732D01*
X0354966D01*
X0334686Y0371929D02*
X0337310D01*
X0337835Y0371404D01*
Y0370354D01*
X0337310Y0369830D01*
X0334686D01*
Y0366681D02*
X0335211Y0367730D01*
X0336260Y0368780D01*
X0337310D01*
X0337835Y0368255D01*
Y0367206D01*
X0337310Y0366681D01*
X0336785D01*
X0336260Y0367206D01*
Y0368780D01*
X0332386Y0355237D02*
Y0357860D01*
X0332910Y0358385D01*
X0333960D01*
X0334485Y0357860D01*
Y0355237D01*
X0337633D02*
X0335534D01*
Y0356811D01*
X0336584Y0356286D01*
X0337109D01*
X0337633Y0356811D01*
Y0357860D01*
X0337109Y0358385D01*
X0336059D01*
X0335534Y0357860D01*
X0349194Y0261769D02*
X0348669Y0261245D01*
X0347619D01*
X0347094Y0261769D01*
Y0263868D01*
X0347619Y0264393D01*
X0348669D01*
X0349194Y0263868D01*
X0350243Y0264393D02*
X0351292D01*
X0350768D01*
Y0261245D01*
X0350243Y0261769D01*
X0352867Y0263868D02*
X0353392Y0264393D01*
X0354441D01*
X0354966Y0263868D01*
Y0261769D01*
X0354441Y0261245D01*
X0353392D01*
X0352867Y0261769D01*
Y0262294D01*
X0353392Y0262819D01*
X0354966D01*
X0334686Y0279015D02*
X0337310D01*
X0337835Y0278490D01*
Y0277441D01*
X0337310Y0276916D01*
X0334686D01*
Y0273768D02*
X0335211Y0274817D01*
X0336260Y0275867D01*
X0337310D01*
X0337835Y0275342D01*
Y0274292D01*
X0337310Y0273768D01*
X0336785D01*
X0336260Y0274292D01*
Y0275867D01*
X0332386Y0262323D02*
Y0264947D01*
X0332910Y0265472D01*
X0333960D01*
X0334485Y0264947D01*
Y0262323D01*
X0337633D02*
X0335534D01*
Y0263898D01*
X0336584Y0263373D01*
X0337109D01*
X0337633Y0263898D01*
Y0264947D01*
X0337109Y0265472D01*
X0336059D01*
X0335534Y0264947D01*
X0349194Y0168856D02*
X0348669Y0168331D01*
X0347619D01*
X0347094Y0168856D01*
Y0170955D01*
X0347619Y0171480D01*
X0348669D01*
X0349194Y0170955D01*
X0350243Y0171480D02*
X0351292D01*
X0350768D01*
Y0168331D01*
X0350243Y0168856D01*
X0352867Y0170955D02*
X0353392Y0171480D01*
X0354441D01*
X0354966Y0170955D01*
Y0168856D01*
X0354441Y0168331D01*
X0353392D01*
X0352867Y0168856D01*
Y0169381D01*
X0353392Y0169905D01*
X0354966D01*
X0334686Y0186102D02*
X0337310D01*
X0337835Y0185577D01*
Y0184528D01*
X0337310Y0184003D01*
X0334686D01*
Y0180854D02*
X0335211Y0181904D01*
X0336260Y0182953D01*
X0337310D01*
X0337835Y0182428D01*
Y0181379D01*
X0337310Y0180854D01*
X0336785D01*
X0336260Y0181379D01*
Y0182953D01*
X0332386Y0169410D02*
Y0172034D01*
X0332910Y0172558D01*
X0333960D01*
X0334485Y0172034D01*
Y0169410D01*
X0337633D02*
X0335534D01*
Y0170984D01*
X0336584Y0170459D01*
X0337109D01*
X0337633Y0170984D01*
Y0172034D01*
X0337109Y0172558D01*
X0336059D01*
X0335534Y0172034D01*
D62*
X0348927Y0368147D02*
G03*
X0348927Y0368147I0000449J0000000D01*
G01*
X0344736Y0380708D02*
G03*
X0344736Y0380708I0000347J0000000D01*
G01*
X0274409Y0325039D02*
G03*
X0274409Y0325039I0000905J0000000D01*
G01*
X0353096Y0329291D02*
G03*
X0353096Y0329291I0000487J0000000D01*
G01*
X0436087Y0333051D02*
X0423087D01*
X0436087Y0358051D02*
Y0333051D01*
Y0358051D02*
X0423087D01*
Y0333051D01*
X0415498Y0356299D02*
Y0354299D01*
Y0355299D01*
X0421496D01*
Y0356299D01*
Y0354299D01*
X0416498Y0347302D02*
X0415498Y0348301D01*
Y0350301D01*
X0416498Y0351300D01*
X0420496D01*
X0421496Y0350301D01*
Y0348301D01*
X0420496Y0347302D01*
X0416498Y0341303D02*
X0415498Y0342303D01*
Y0344303D01*
X0416498Y0345302D01*
X0417497D01*
X0418497Y0344303D01*
Y0342303D01*
X0419497Y0341303D01*
X0420496D01*
X0421496Y0342303D01*
Y0344303D01*
X0420496Y0345302D01*
X0421496Y0339304D02*
X0415498D01*
Y0336305D01*
X0416498Y0335306D01*
X0418497D01*
X0419497Y0336305D01*
Y0339304D01*
X0348927Y0275233D02*
G03*
X0348927Y0275233I0000449J0000000D01*
G01*
X0344736Y0287795D02*
G03*
X0344736Y0287795I0000347J0000000D01*
G01*
X0274409Y0232125D02*
G03*
X0274409Y0232125I0000905J0000000D01*
G01*
X0353096Y0236377D02*
G03*
X0353096Y0236377I0000487J0000000D01*
G01*
X0436087Y0240137D02*
X0423087D01*
X0436087Y0265137D02*
Y0240137D01*
Y0265137D02*
X0423087D01*
Y0240137D01*
X0415498Y0263385D02*
Y0261386D01*
Y0262386D01*
X0421496D01*
Y0263385D01*
Y0261386D01*
X0416498Y0254388D02*
X0415498Y0255388D01*
Y0257387D01*
X0416498Y0258387D01*
X0420496D01*
X0421496Y0257387D01*
Y0255388D01*
X0420496Y0254388D01*
X0416498Y0248390D02*
X0415498Y0249390D01*
Y0251389D01*
X0416498Y0252389D01*
X0417497D01*
X0418497Y0251389D01*
Y0249390D01*
X0419497Y0248390D01*
X0420496D01*
X0421496Y0249390D01*
Y0251389D01*
X0420496Y0252389D01*
X0421496Y0246391D02*
X0415498D01*
Y0243392D01*
X0416498Y0242392D01*
X0418497D01*
X0419497Y0243392D01*
Y0246391D01*
X0348927Y0182320D02*
G03*
X0348927Y0182320I0000449J0000000D01*
G01*
X0344736Y0194881D02*
G03*
X0344736Y0194881I0000347J0000000D01*
G01*
X0274409Y0139212D02*
G03*
X0274409Y0139212I0000905J0000000D01*
G01*
X0353096Y0143464D02*
G03*
X0353096Y0143464I0000487J0000000D01*
G01*
X0436087Y0147224D02*
X0423087D01*
X0436087Y0172224D02*
Y0147224D01*
Y0172224D02*
X0423087D01*
Y0147224D01*
X0415498Y0170472D02*
Y0168473D01*
Y0169472D01*
X0421496D01*
Y0170472D01*
Y0168473D01*
X0416498Y0161475D02*
X0415498Y0162475D01*
Y0164474D01*
X0416498Y0165473D01*
X0420496D01*
X0421496Y0164474D01*
Y0162475D01*
X0420496Y0161475D01*
X0416498Y0155477D02*
X0415498Y0156476D01*
Y0158476D01*
X0416498Y0159475D01*
X0417497D01*
X0418497Y0158476D01*
Y0156476D01*
X0419497Y0155477D01*
X0420496D01*
X0421496Y0156476D01*
Y0158476D01*
X0420496Y0159475D01*
X0421496Y0153477D02*
X0415498D01*
Y0150478D01*
X0416498Y0149479D01*
X0418497D01*
X0419497Y0150478D01*
Y0153477D01*
X0224827Y0183550D02*
G03*
X0224827Y0183550I-0000197J0000000D01*
G01*
X0236645Y0174449D02*
G03*
X0236645Y0174449I-0000424J0000000D01*
G01*
X0162599Y0143504D02*
G03*
X0162599Y0143504I-0000473J0000000D01*
G01*
X0224827Y0276464D02*
G03*
X0224827Y0276464I-0000197J0000000D01*
G01*
X0236645Y0267362D02*
G03*
X0236645Y0267362I-0000424J0000000D01*
G01*
X0162599Y0236417D02*
G03*
X0162599Y0236417I-0000473J0000000D01*
G01*
X0224827Y0369377D02*
G03*
X0224827Y0369377I-0000197J0000000D01*
G01*
X0236645Y0360276D02*
G03*
X0236645Y0360276I-0000424J0000000D01*
G01*
X0162599Y0329331D02*
G03*
X0162599Y0329331I-0000473J0000000D01*
G01*
D77*
X0366575Y0334330D02*
Y0330393D01*
X0374055Y0334330D02*
X0366575D01*
X0374055D02*
Y0330393D01*
X0366575D01*
X0353878Y0358602D02*
X0346201D01*
X0353878Y0362736D02*
Y0358602D01*
Y0362736D02*
X0346201D01*
Y0358602D01*
X0334193Y0365137D02*
Y0360413D01*
X0341083Y0365137D02*
Y0360413D01*
X0363819Y0353267D02*
X0356339D01*
Y0349330D01*
X0363819D02*
X0356339D01*
X0363819Y0353267D02*
Y0349330D01*
X0361417Y0340984D02*
X0353937D01*
X0361417Y0344921D02*
Y0340984D01*
Y0344921D02*
X0353937D01*
Y0340984D01*
X0361417Y0336692D02*
X0353937D01*
X0361417Y0340629D02*
Y0336692D01*
Y0340629D02*
X0353937D01*
Y0336692D01*
X0335846Y0350255D02*
X0331713D01*
X0335846D02*
Y0342578D01*
X0331713D01*
Y0350255D02*
Y0342578D01*
X0337716Y0341377D02*
Y0333897D01*
Y0341377D02*
X0333779D01*
Y0333897D01*
X0337716D02*
X0333779D01*
X0345807Y0337736D02*
Y0333602D01*
X0338130D01*
Y0337736D02*
Y0333602D01*
X0345807Y0337736D02*
X0338130D01*
X0342382Y0330570D02*
Y0326436D01*
X0350059Y0330570D02*
X0342382D01*
X0350059D02*
Y0326436D01*
X0342382D01*
X0345709Y0379606D02*
X0340197D01*
X0345709Y0374094D02*
X0340197D01*
X0344078Y0371900D02*
Y0368099D01*
X0338678D01*
Y0371900D02*
Y0368099D01*
X0344078Y0371900D02*
X0338678D01*
X0332953Y0370472D02*
X0329016D01*
X0332953D02*
Y0362992D01*
X0329016D01*
Y0370472D02*
Y0362992D01*
X0334685Y0380866D02*
Y0373385D01*
X0338622D02*
X0334685D01*
X0338622Y0380866D02*
Y0373385D01*
Y0380866D02*
X0334685D01*
X0347224Y0377342D02*
Y0373208D01*
X0354902Y0377342D02*
X0347224D01*
X0354902D02*
Y0373208D01*
X0347224D01*
X0354803Y0381653D02*
X0347323D01*
Y0377716D01*
X0354803D02*
X0347323D01*
X0354803Y0381653D02*
Y0377716D01*
X0334173Y0375866D02*
X0326693D01*
X0334173Y0379803D02*
Y0375866D01*
Y0379803D02*
X0326693D01*
Y0375866D01*
X0363504Y0330078D02*
X0355236D01*
Y0321811D01*
X0363504D02*
X0355236D01*
X0363504Y0330078D02*
Y0321811D01*
X0361693Y0334881D02*
Y0330944D01*
X0354212D01*
Y0334881D02*
Y0330944D01*
X0361693Y0334881D02*
X0354212D01*
X0353779D02*
Y0330944D01*
X0346299D01*
Y0334881D02*
Y0330944D01*
X0353779Y0334881D02*
X0346299D01*
X0345905Y0354724D02*
X0341968D01*
Y0362204D02*
Y0354724D01*
X0345905Y0362204D02*
X0341968D01*
X0345905D02*
Y0354724D01*
X0366575Y0241417D02*
Y0237480D01*
X0374055Y0241417D02*
X0366575D01*
X0374055D02*
Y0237480D01*
X0366575D01*
X0353878Y0265688D02*
X0346201D01*
X0353878Y0269822D02*
Y0265688D01*
Y0269822D02*
X0346201D01*
Y0265688D01*
X0334193Y0272224D02*
Y0267499D01*
X0341083Y0272224D02*
Y0267499D01*
X0363819Y0260354D02*
X0356339D01*
Y0256417D01*
X0363819D02*
X0356339D01*
X0363819Y0260354D02*
Y0256417D01*
X0361417Y0248070D02*
X0353937D01*
X0361417Y0252007D02*
Y0248070D01*
Y0252007D02*
X0353937D01*
Y0248070D01*
X0361417Y0243779D02*
X0353937D01*
X0361417Y0247716D02*
Y0243779D01*
Y0247716D02*
X0353937D01*
Y0243779D01*
X0335846Y0257342D02*
X0331713D01*
X0335846D02*
Y0249665D01*
X0331713D01*
Y0257342D02*
Y0249665D01*
X0337716Y0248464D02*
Y0240984D01*
Y0248464D02*
X0333779D01*
Y0240984D01*
X0337716D02*
X0333779D01*
X0345807Y0244822D02*
Y0240688D01*
X0338130D01*
Y0244822D02*
Y0240688D01*
X0345807Y0244822D02*
X0338130D01*
X0342382Y0237657D02*
Y0233523D01*
X0350059Y0237657D02*
X0342382D01*
X0350059D02*
Y0233523D01*
X0342382D01*
X0345709Y0286692D02*
X0340197D01*
X0345709Y0281181D02*
X0340197D01*
X0344078Y0278986D02*
Y0275186D01*
X0338678D01*
Y0278986D02*
Y0275186D01*
X0344078Y0278986D02*
X0338678D01*
X0332953Y0277558D02*
X0329016D01*
X0332953D02*
Y0270078D01*
X0329016D01*
Y0277558D02*
Y0270078D01*
X0334685Y0287952D02*
Y0280472D01*
X0338622D02*
X0334685D01*
X0338622Y0287952D02*
Y0280472D01*
Y0287952D02*
X0334685D01*
X0347224Y0284429D02*
Y0280295D01*
X0354902Y0284429D02*
X0347224D01*
X0354902D02*
Y0280295D01*
X0347224D01*
X0354803Y0288740D02*
X0347323D01*
Y0284803D01*
X0354803D02*
X0347323D01*
X0354803Y0288740D02*
Y0284803D01*
X0334173Y0282952D02*
X0326693D01*
X0334173Y0286889D02*
Y0282952D01*
Y0286889D02*
X0326693D01*
Y0282952D01*
X0363504Y0237165D02*
X0355236D01*
Y0228897D01*
X0363504D02*
X0355236D01*
X0363504Y0237165D02*
Y0228897D01*
X0361693Y0241968D02*
Y0238031D01*
X0354212D01*
Y0241968D02*
Y0238031D01*
X0361693Y0241968D02*
X0354212D01*
X0353779D02*
Y0238031D01*
X0346299D01*
Y0241968D02*
Y0238031D01*
X0353779Y0241968D02*
X0346299D01*
X0345905Y0261810D02*
X0341968D01*
Y0269291D02*
Y0261810D01*
X0345905Y0269291D02*
X0341968D01*
X0345905D02*
Y0261810D01*
X0366575Y0148503D02*
Y0144566D01*
X0374055Y0148503D02*
X0366575D01*
X0374055D02*
Y0144566D01*
X0366575D01*
X0353878Y0172775D02*
X0346201D01*
X0353878Y0176909D02*
Y0172775D01*
Y0176909D02*
X0346201D01*
Y0172775D01*
X0334193Y0179311D02*
Y0174586D01*
X0341083Y0179311D02*
Y0174586D01*
X0363819Y0167440D02*
X0356339D01*
Y0163503D01*
X0363819D02*
X0356339D01*
X0363819Y0167440D02*
Y0163503D01*
X0361417Y0155157D02*
X0353937D01*
X0361417Y0159094D02*
Y0155157D01*
Y0159094D02*
X0353937D01*
Y0155157D01*
X0361417Y0150866D02*
X0353937D01*
X0361417Y0154803D02*
Y0150866D01*
Y0154803D02*
X0353937D01*
Y0150866D01*
X0335846Y0164429D02*
X0331713D01*
X0335846D02*
Y0156751D01*
X0331713D01*
Y0164429D02*
Y0156751D01*
X0337716Y0155551D02*
Y0148070D01*
Y0155551D02*
X0333779D01*
Y0148070D01*
X0337716D02*
X0333779D01*
X0345807Y0151909D02*
Y0147775D01*
X0338130D01*
Y0151909D02*
Y0147775D01*
X0345807Y0151909D02*
X0338130D01*
X0342382Y0144744D02*
Y0140610D01*
X0350059Y0144744D02*
X0342382D01*
X0350059D02*
Y0140610D01*
X0342382D01*
X0345709Y0193779D02*
X0340197D01*
X0345709Y0188267D02*
X0340197D01*
X0344078Y0186073D02*
Y0182273D01*
X0338678D01*
Y0186073D02*
Y0182273D01*
X0344078Y0186073D02*
X0338678D01*
X0332953Y0184645D02*
X0329016D01*
X0332953D02*
Y0177165D01*
X0329016D01*
Y0184645D02*
Y0177165D01*
X0334685Y0195039D02*
Y0187558D01*
X0338622D02*
X0334685D01*
X0338622Y0195039D02*
Y0187558D01*
Y0195039D02*
X0334685D01*
X0347224Y0191515D02*
Y0187381D01*
X0354902Y0191515D02*
X0347224D01*
X0354902D02*
Y0187381D01*
X0347224D01*
X0354803Y0195826D02*
X0347323D01*
Y0191889D01*
X0354803D02*
X0347323D01*
X0354803Y0195826D02*
Y0191889D01*
X0334173Y0190039D02*
X0326693D01*
X0334173Y0193976D02*
Y0190039D01*
Y0193976D02*
X0326693D01*
Y0190039D01*
X0363504Y0144251D02*
X0355236D01*
Y0135984D01*
X0363504D02*
X0355236D01*
X0363504Y0144251D02*
Y0135984D01*
X0361693Y0149055D02*
Y0145118D01*
X0354212D01*
Y0149055D02*
Y0145118D01*
X0361693Y0149055D02*
X0354212D01*
X0353779D02*
Y0145118D01*
X0346299D01*
Y0149055D02*
Y0145118D01*
X0353779Y0149055D02*
X0346299D01*
X0345905Y0168897D02*
X0341968D01*
Y0176377D02*
Y0168897D01*
X0345905Y0176377D02*
X0341968D01*
X0345905D02*
Y0168897D01*
X0228228Y0150591D02*
Y0154528D01*
X0235709D01*
Y0150591D02*
Y0154528D01*
X0228228Y0150591D02*
X0235709D01*
X0236437Y0166831D02*
X0244114D01*
X0236437Y0162697D02*
Y0166831D01*
Y0162697D02*
X0244114D01*
Y0166831D01*
X0236437Y0171161D02*
X0244114D01*
X0236437Y0167028D02*
Y0171161D01*
Y0167028D02*
X0244114D01*
Y0171161D01*
X0214685Y0149488D02*
Y0154213D01*
X0222559D01*
Y0149488D02*
Y0154213D01*
X0219016Y0149488D02*
X0222559D01*
X0214685D02*
X0219016D01*
X0239943Y0182950D02*
Y0186887D01*
X0232463Y0182950D02*
X0239943D01*
X0232463D02*
Y0186887D01*
X0239943D01*
X0225615Y0188472D02*
X0229552D01*
X0225615Y0182566D02*
X0229552D01*
Y0188472D01*
X0225615Y0182566D02*
Y0188472D01*
X0231968Y0155039D02*
X0235315D01*
Y0158386D01*
X0216811Y0155039D02*
X0220158D01*
X0216811D02*
Y0158386D01*
Y0170197D02*
Y0173543D01*
X0220158D01*
X0235315Y0170197D02*
Y0173543D01*
X0231968D02*
X0235315D01*
X0170118Y0137795D02*
Y0144223D01*
X0163425Y0137785D02*
Y0144213D01*
X0232473Y0191700D02*
Y0195637D01*
X0239953D01*
Y0191700D02*
Y0195637D01*
X0232473Y0191700D02*
X0239953D01*
X0170669Y0141732D02*
X0174606D01*
X0170669D02*
Y0149213D01*
X0174606D01*
Y0141732D02*
Y0149213D01*
X0170669Y0133858D02*
X0174606D01*
X0170669D02*
Y0141339D01*
X0174606D01*
Y0133858D02*
Y0141339D01*
X0157677Y0137402D02*
X0161614D01*
X0157677D02*
Y0144882D01*
X0161614D01*
Y0137402D02*
Y0144882D01*
X0168504Y0145473D02*
Y0149409D01*
X0161024Y0145473D02*
X0168504D01*
X0161024D02*
Y0149409D01*
X0168504D01*
X0246063Y0171457D02*
Y0175394D01*
X0238583Y0171457D02*
X0246063D01*
X0238583D02*
Y0175394D01*
X0246063D01*
X0223525Y0153284D02*
X0227462D01*
Y0145804D02*
Y0153284D01*
X0223525Y0145804D02*
X0227462D01*
X0223525D02*
Y0153284D01*
X0188031Y0132520D02*
Y0136457D01*
X0195512D01*
Y0132520D02*
Y0136457D01*
X0188031Y0132520D02*
X0195512D01*
X0183583Y0136890D02*
Y0140827D01*
X0191063D01*
Y0136890D02*
Y0140827D01*
X0183583Y0136890D02*
X0191063D01*
X0196673Y0178307D02*
X0200610D01*
Y0170827D02*
Y0178307D01*
X0196673Y0170827D02*
X0200610D01*
X0196673D02*
Y0178307D01*
X0223484Y0186366D02*
Y0190303D01*
X0216004Y0186366D02*
X0223484D01*
X0216004D02*
Y0190303D01*
X0223484D01*
X0197054Y0164173D02*
X0198268D01*
X0197047Y0166535D02*
X0198228D01*
X0194291D02*
X0197054D01*
X0194291Y0164173D02*
X0197054D01*
Y0165354D01*
Y0164173D02*
Y0166535D01*
X0236437Y0162421D02*
X0244114D01*
X0236437Y0158287D02*
Y0162421D01*
Y0158287D02*
X0244114D01*
Y0162421D01*
X0231831Y0137303D02*
Y0144980D01*
X0227697D02*
X0231831D01*
X0227697Y0137303D02*
Y0144980D01*
Y0137303D02*
X0231831D01*
X0196689Y0170925D02*
X0204366D01*
X0196689Y0166791D02*
Y0170925D01*
Y0166791D02*
X0204366D01*
Y0170925D01*
X0196689Y0182343D02*
X0204366D01*
X0196689Y0178209D02*
Y0182343D01*
Y0178209D02*
X0204366D01*
Y0182343D01*
X0207993Y0190403D02*
X0215670D01*
X0207993Y0186269D02*
Y0190403D01*
Y0186269D02*
X0215670D01*
Y0190403D01*
X0232505Y0191406D02*
X0240182D01*
X0232505Y0187272D02*
Y0191406D01*
Y0187272D02*
X0240182D01*
Y0191406D01*
X0228228Y0243504D02*
Y0247441D01*
X0235709D01*
Y0243504D02*
Y0247441D01*
X0228228Y0243504D02*
X0235709D01*
X0236437Y0259744D02*
X0244114D01*
X0236437Y0255610D02*
Y0259744D01*
Y0255610D02*
X0244114D01*
Y0259744D01*
X0236437Y0264075D02*
X0244114D01*
X0236437Y0259941D02*
Y0264075D01*
Y0259941D02*
X0244114D01*
Y0264075D01*
X0214685Y0242402D02*
Y0247126D01*
X0222559D01*
Y0242402D02*
Y0247126D01*
X0219016Y0242402D02*
X0222559D01*
X0214685D02*
X0219016D01*
X0239943Y0275864D02*
Y0279801D01*
X0232463Y0275864D02*
X0239943D01*
X0232463D02*
Y0279801D01*
X0239943D01*
X0225615Y0281385D02*
X0229552D01*
X0225615Y0275480D02*
X0229552D01*
Y0281385D01*
X0225615Y0275480D02*
Y0281385D01*
X0231968Y0247953D02*
X0235315D01*
Y0251299D01*
X0216811Y0247953D02*
X0220158D01*
X0216811D02*
Y0251299D01*
Y0263110D02*
Y0266457D01*
X0220158D01*
X0235315Y0263110D02*
Y0266457D01*
X0231968D02*
X0235315D01*
X0170118Y0230709D02*
Y0237136D01*
X0163425Y0230698D02*
Y0237126D01*
X0232473Y0284614D02*
Y0288551D01*
X0239953D01*
Y0284614D02*
Y0288551D01*
X0232473Y0284614D02*
X0239953D01*
X0170669Y0234646D02*
X0174606D01*
X0170669D02*
Y0242126D01*
X0174606D01*
Y0234646D02*
Y0242126D01*
X0170669Y0226772D02*
X0174606D01*
X0170669D02*
Y0234252D01*
X0174606D01*
Y0226772D02*
Y0234252D01*
X0157677Y0230315D02*
X0161614D01*
X0157677D02*
Y0237795D01*
X0161614D01*
Y0230315D02*
Y0237795D01*
X0168504Y0238386D02*
Y0242323D01*
X0161024Y0238386D02*
X0168504D01*
X0161024D02*
Y0242323D01*
X0168504D01*
X0246063Y0264370D02*
Y0268307D01*
X0238583Y0264370D02*
X0246063D01*
X0238583D02*
Y0268307D01*
X0246063D01*
X0223525Y0246198D02*
X0227462D01*
Y0238717D02*
Y0246198D01*
X0223525Y0238717D02*
X0227462D01*
X0223525D02*
Y0246198D01*
X0188031Y0225433D02*
Y0229370D01*
X0195512D01*
Y0225433D02*
Y0229370D01*
X0188031Y0225433D02*
X0195512D01*
X0183583Y0229803D02*
Y0233740D01*
X0191063D01*
Y0229803D02*
Y0233740D01*
X0183583Y0229803D02*
X0191063D01*
X0196673Y0271221D02*
X0200610D01*
Y0263740D02*
Y0271221D01*
X0196673Y0263740D02*
X0200610D01*
X0196673D02*
Y0271221D01*
X0223484Y0279280D02*
Y0283217D01*
X0216004Y0279280D02*
X0223484D01*
X0216004D02*
Y0283217D01*
X0223484D01*
X0197054Y0257087D02*
X0198268D01*
X0197047Y0259449D02*
X0198228D01*
X0194291D02*
X0197054D01*
X0194291Y0257087D02*
X0197054D01*
Y0258268D01*
Y0257087D02*
Y0259449D01*
X0236437Y0255335D02*
X0244114D01*
X0236437Y0251201D02*
Y0255335D01*
Y0251201D02*
X0244114D01*
Y0255335D01*
X0231831Y0230217D02*
Y0237894D01*
X0227697D02*
X0231831D01*
X0227697Y0230217D02*
Y0237894D01*
Y0230217D02*
X0231831D01*
X0196689Y0263839D02*
X0204366D01*
X0196689Y0259705D02*
Y0263839D01*
Y0259705D02*
X0204366D01*
Y0263839D01*
X0196689Y0275256D02*
X0204366D01*
X0196689Y0271122D02*
Y0275256D01*
Y0271122D02*
X0204366D01*
Y0275256D01*
X0207993Y0283317D02*
X0215670D01*
X0207993Y0279183D02*
Y0283317D01*
Y0279183D02*
X0215670D01*
Y0283317D01*
X0232505Y0284319D02*
X0240182D01*
X0232505Y0280185D02*
Y0284319D01*
Y0280185D02*
X0240182D01*
Y0284319D01*
X0228228Y0336417D02*
Y0340354D01*
X0235709D01*
Y0336417D02*
Y0340354D01*
X0228228Y0336417D02*
X0235709D01*
X0236437Y0352658D02*
X0244114D01*
X0236437Y0348524D02*
Y0352658D01*
Y0348524D02*
X0244114D01*
Y0352658D01*
X0236437Y0356988D02*
X0244114D01*
X0236437Y0352854D02*
Y0356988D01*
Y0352854D02*
X0244114D01*
Y0356988D01*
X0214685Y0335315D02*
Y0340039D01*
X0222559D01*
Y0335315D02*
Y0340039D01*
X0219016Y0335315D02*
X0222559D01*
X0214685D02*
X0219016D01*
X0239943Y0368777D02*
Y0372714D01*
X0232463Y0368777D02*
X0239943D01*
X0232463D02*
Y0372714D01*
X0239943D01*
X0225615Y0374299D02*
X0229552D01*
X0225615Y0368393D02*
X0229552D01*
Y0374299D01*
X0225615Y0368393D02*
Y0374299D01*
X0231968Y0340866D02*
X0235315D01*
Y0344213D01*
X0216811Y0340866D02*
X0220158D01*
X0216811D02*
Y0344213D01*
Y0356024D02*
Y0359370D01*
X0220158D01*
X0235315Y0356024D02*
Y0359370D01*
X0231968D02*
X0235315D01*
X0170118Y0323622D02*
Y0330050D01*
X0163425Y0323612D02*
Y0330040D01*
X0232473Y0377527D02*
Y0381464D01*
X0239953D01*
Y0377527D02*
Y0381464D01*
X0232473Y0377527D02*
X0239953D01*
X0170669Y0327559D02*
X0174606D01*
X0170669D02*
Y0335039D01*
X0174606D01*
Y0327559D02*
Y0335039D01*
X0170669Y0319685D02*
X0174606D01*
X0170669D02*
Y0327165D01*
X0174606D01*
Y0319685D02*
Y0327165D01*
X0157677Y0323228D02*
X0161614D01*
X0157677D02*
Y0330709D01*
X0161614D01*
Y0323228D02*
Y0330709D01*
X0168504Y0331299D02*
Y0335236D01*
X0161024Y0331299D02*
X0168504D01*
X0161024D02*
Y0335236D01*
X0168504D01*
X0246063Y0357284D02*
Y0361221D01*
X0238583Y0357284D02*
X0246063D01*
X0238583D02*
Y0361221D01*
X0246063D01*
X0223525Y0339111D02*
X0227462D01*
Y0331631D02*
Y0339111D01*
X0223525Y0331631D02*
X0227462D01*
X0223525D02*
Y0339111D01*
X0188031Y0318347D02*
Y0322284D01*
X0195512D01*
Y0318347D02*
Y0322284D01*
X0188031Y0318347D02*
X0195512D01*
X0183583Y0322717D02*
Y0326654D01*
X0191063D01*
Y0322717D02*
Y0326654D01*
X0183583Y0322717D02*
X0191063D01*
X0196673Y0364134D02*
X0200610D01*
Y0356654D02*
Y0364134D01*
X0196673Y0356654D02*
X0200610D01*
X0196673D02*
Y0364134D01*
X0223484Y0372193D02*
Y0376130D01*
X0216004Y0372193D02*
X0223484D01*
X0216004D02*
Y0376130D01*
X0223484D01*
X0197054Y0350000D02*
X0198268D01*
X0197047Y0352362D02*
X0198228D01*
X0194291D02*
X0197054D01*
X0194291Y0350000D02*
X0197054D01*
Y0351181D01*
Y0350000D02*
Y0352362D01*
X0236437Y0348248D02*
X0244114D01*
X0236437Y0344114D02*
Y0348248D01*
Y0344114D02*
X0244114D01*
Y0348248D01*
X0231831Y0323130D02*
Y0330807D01*
X0227697D02*
X0231831D01*
X0227697Y0323130D02*
Y0330807D01*
Y0323130D02*
X0231831D01*
X0196689Y0356752D02*
X0204366D01*
X0196689Y0352618D02*
Y0356752D01*
Y0352618D02*
X0204366D01*
Y0356752D01*
X0196689Y0368169D02*
X0204366D01*
X0196689Y0364036D02*
Y0368169D01*
Y0364036D02*
X0204366D01*
Y0368169D01*
X0207993Y0376230D02*
X0215670D01*
X0207993Y0372096D02*
Y0376230D01*
Y0372096D02*
X0215670D01*
Y0376230D01*
X0232505Y0377233D02*
X0240182D01*
X0232505Y0373099D02*
Y0377233D01*
Y0373099D02*
X0240182D01*
Y0377233D01*
D150*
X0230315Y0146102D02*
X0235394D01*
X0230315D02*
Y0149606D01*
X0235394Y0146102D02*
Y0149606D01*
X0230315D02*
X0235394D01*
X0230315Y0239016D02*
X0235394D01*
X0230315D02*
Y0242520D01*
X0235394Y0239016D02*
Y0242520D01*
X0230315D02*
X0235394D01*
X0230315Y0331929D02*
X0235394D01*
X0230315D02*
Y0335433D01*
X0235394Y0331929D02*
Y0335433D01*
X0230315D02*
X0235394D01*
M02*
