G04*
G04 #@! TF.GenerationSoftware,Altium Limited,Altium Designer,19.1.8 (144)*
G04*
G04 Layer_Color=128*
%FSAX25Y25*%
%MOIN*%
G70*
G01*
G75*
%ADD10C,0.03937*%
%ADD11R,0.01968X0.02362*%
%ADD12R,0.02520X0.02362*%
%ADD16R,0.03150X0.03150*%
%ADD20R,0.02362X0.01968*%
%ADD23R,0.02362X0.02520*%
%ADD24R,0.05118X0.03543*%
%ADD40R,0.02362X0.02953*%
%ADD44R,0.01968X0.02953*%
%ADD45R,0.01181X0.01968*%
%ADD46R,0.01968X0.02803*%
%ADD48R,0.01575X0.01181*%
%ADD50C,0.01181*%
%ADD55R,0.01181X0.01181*%
%ADD56R,0.01181X0.01181*%
%ADD57R,0.02441X0.02244*%
%ADD58R,0.03937X0.03937*%
%ADD59R,0.03937X0.08661*%
%ADD60R,0.04134X0.08661*%
%ADD61R,0.03150X0.03150*%
%ADD66R,0.42126X0.07874*%
%ADD67R,0.04724X0.07874*%
%ADD68R,0.02362X0.04331*%
%ADD69R,0.01181X0.01772*%
%ADD70R,0.02756X0.06693*%
%ADD71R,0.02803X0.02244*%
%ADD72R,0.02244X0.02803*%
%ADD73R,0.01968X0.01575*%
%ADD74R,0.02803X0.02520*%
%ADD75R,0.02362X0.02803*%
%ADD138R,0.03780X0.01968*%
%ADD139R,0.03740X0.01929*%
%ADD140R,0.03740X0.01929*%
%ADD141R,0.01929X0.03740*%
G04:AMPARAMS|DCode=142|XSize=9.84mil|YSize=16.73mil|CornerRadius=0mil|HoleSize=0mil|Usage=FLASHONLY|Rotation=45.000|XOffset=0mil|YOffset=0mil|HoleType=Round|Shape=Rectangle|*
%AMROTATEDRECTD142*
4,1,4,0.00244,-0.00940,-0.00940,0.00244,-0.00244,0.00940,0.00940,-0.00244,0.00244,-0.00940,0.0*
%
%ADD142ROTATEDRECTD142*%

G04:AMPARAMS|DCode=143|XSize=9.84mil|YSize=16.73mil|CornerRadius=0mil|HoleSize=0mil|Usage=FLASHONLY|Rotation=315.000|XOffset=0mil|YOffset=0mil|HoleType=Round|Shape=Rectangle|*
%AMROTATEDRECTD143*
4,1,4,-0.00940,-0.00244,0.00244,0.00940,0.00940,0.00244,-0.00244,-0.00940,-0.00940,-0.00244,0.0*
%
%ADD143ROTATEDRECTD143*%

%ADD144P,0.03897X4X180.0*%
%ADD145R,0.01024X0.01417*%
%ADD146C,0.00039*%
%ADD147C,0.00787*%
%ADD148R,0.04724X0.04724*%
G04:AMPARAMS|DCode=149|XSize=47.24mil|YSize=47.24mil|CornerRadius=0mil|HoleSize=0mil|Usage=FLASHONLY|Rotation=360.000|XOffset=0mil|YOffset=0mil|HoleType=Round|Shape=RoundedRectangle|*
%AMROUNDEDRECTD149*
21,1,0.04724,0.04724,0,0,360.0*
21,1,0.04724,0.04724,0,0,360.0*
1,1,0.00000,0.02362,-0.02362*
1,1,0.00000,-0.02362,-0.02362*
1,1,0.00000,-0.02362,0.02362*
1,1,0.00000,0.02362,0.02362*
%
%ADD149ROUNDEDRECTD149*%
G36*
X0356909Y0328710D02*
X0356565Y0328366D01*
X0355925Y0328366D01*
Y0329448D01*
X0356909D01*
X0356909Y0328710D01*
D02*
G37*
G36*
Y0235797D02*
X0356565Y0235452D01*
X0355925Y0235452D01*
Y0236535D01*
X0356909D01*
X0356909Y0235797D01*
D02*
G37*
G36*
Y0142883D02*
X0356565Y0142539D01*
X0355925Y0142539D01*
Y0143622D01*
X0356909D01*
X0356909Y0142883D01*
D02*
G37*
D10*
X0454725Y0113189D02*
D03*
X0126181Y0402362D02*
D03*
D11*
X0368346Y0332362D02*
D03*
X0372283D02*
D03*
X0358110Y0351299D02*
D03*
X0362047D02*
D03*
X0359646Y0342952D02*
D03*
X0355709D02*
D03*
X0359646Y0338661D02*
D03*
X0355709D02*
D03*
X0349094Y0379684D02*
D03*
X0353031D02*
D03*
X0332401Y0377834D02*
D03*
X0328465D02*
D03*
X0359921Y0332913D02*
D03*
X0355984D02*
D03*
X0352008D02*
D03*
X0348071D02*
D03*
X0368346Y0239448D02*
D03*
X0372283D02*
D03*
X0358110Y0258385D02*
D03*
X0362047D02*
D03*
X0359646Y0250039D02*
D03*
X0355709D02*
D03*
X0359646Y0245747D02*
D03*
X0355709D02*
D03*
X0349094Y0286771D02*
D03*
X0353031D02*
D03*
X0332401Y0284921D02*
D03*
X0328465D02*
D03*
X0359921Y0240000D02*
D03*
X0355984D02*
D03*
X0352008D02*
D03*
X0348071D02*
D03*
X0368346Y0146535D02*
D03*
X0372283D02*
D03*
X0358110Y0165472D02*
D03*
X0362047D02*
D03*
X0359646Y0157125D02*
D03*
X0355709D02*
D03*
X0359646Y0152834D02*
D03*
X0355709D02*
D03*
X0349094Y0193858D02*
D03*
X0353031D02*
D03*
X0332401Y0192007D02*
D03*
X0328465D02*
D03*
X0359921Y0147086D02*
D03*
X0355984D02*
D03*
X0352008D02*
D03*
X0348071D02*
D03*
X0230000Y0152559D02*
D03*
X0233937D02*
D03*
X0238172Y0184919D02*
D03*
X0234235D02*
D03*
X0234245Y0193669D02*
D03*
X0238182D02*
D03*
X0166732Y0147441D02*
D03*
X0162795D02*
D03*
X0244291Y0173425D02*
D03*
X0240354D02*
D03*
X0189803Y0134488D02*
D03*
X0193740D02*
D03*
X0185354Y0138858D02*
D03*
X0189291D02*
D03*
X0230000Y0245473D02*
D03*
X0233937D02*
D03*
X0238172Y0277832D02*
D03*
X0234235D02*
D03*
X0234245Y0286582D02*
D03*
X0238182D02*
D03*
X0166732Y0240354D02*
D03*
X0162795D02*
D03*
X0244291Y0266339D02*
D03*
X0240354D02*
D03*
X0189803Y0227402D02*
D03*
X0193740D02*
D03*
X0185354Y0231772D02*
D03*
X0189291D02*
D03*
X0230000Y0338386D02*
D03*
X0233937D02*
D03*
X0238172Y0370746D02*
D03*
X0234235D02*
D03*
X0234245Y0379496D02*
D03*
X0238182D02*
D03*
X0166732Y0333268D02*
D03*
X0162795D02*
D03*
X0244291Y0359252D02*
D03*
X0240354D02*
D03*
X0189803Y0320315D02*
D03*
X0193740D02*
D03*
X0185354Y0324685D02*
D03*
X0189291D02*
D03*
D12*
X0333779Y0344527D02*
D03*
Y0348307D02*
D03*
Y0251614D02*
D03*
Y0255393D02*
D03*
Y0158700D02*
D03*
Y0162480D02*
D03*
X0229764Y0139252D02*
D03*
Y0143032D02*
D03*
Y0232165D02*
D03*
Y0235945D02*
D03*
Y0325079D02*
D03*
Y0328858D02*
D03*
D16*
X0371811Y0326732D02*
D03*
Y0320433D02*
D03*
Y0233818D02*
D03*
Y0227519D02*
D03*
Y0140905D02*
D03*
Y0134606D02*
D03*
X0218268Y0142953D02*
D03*
Y0137047D02*
D03*
X0224370Y0142992D02*
D03*
Y0137087D02*
D03*
X0218268Y0235866D02*
D03*
Y0229961D02*
D03*
X0224370Y0235906D02*
D03*
Y0230000D02*
D03*
X0218268Y0328780D02*
D03*
Y0322874D02*
D03*
X0224370Y0328819D02*
D03*
Y0322914D02*
D03*
D20*
X0335748Y0339606D02*
D03*
Y0335669D02*
D03*
X0330984Y0368700D02*
D03*
Y0364763D02*
D03*
X0336653Y0375157D02*
D03*
Y0379094D02*
D03*
X0335748Y0246692D02*
D03*
Y0242755D02*
D03*
X0330984Y0275787D02*
D03*
Y0271850D02*
D03*
X0336653Y0282244D02*
D03*
Y0286181D02*
D03*
X0335748Y0153779D02*
D03*
Y0149842D02*
D03*
X0330984Y0182873D02*
D03*
Y0178936D02*
D03*
X0336653Y0189330D02*
D03*
Y0193267D02*
D03*
X0172638Y0143504D02*
D03*
Y0147441D02*
D03*
Y0135630D02*
D03*
Y0139567D02*
D03*
X0159646Y0139173D02*
D03*
Y0143110D02*
D03*
X0225494Y0151513D02*
D03*
Y0147575D02*
D03*
X0172638Y0236417D02*
D03*
Y0240354D02*
D03*
Y0228543D02*
D03*
Y0232480D02*
D03*
X0159646Y0232087D02*
D03*
Y0236024D02*
D03*
X0225494Y0244426D02*
D03*
Y0240489D02*
D03*
X0172638Y0329331D02*
D03*
Y0333268D02*
D03*
Y0321457D02*
D03*
Y0325394D02*
D03*
X0159646Y0325000D02*
D03*
Y0328937D02*
D03*
X0225494Y0337339D02*
D03*
Y0333402D02*
D03*
D23*
X0340079Y0335669D02*
D03*
X0343858D02*
D03*
X0348110Y0328503D02*
D03*
X0344331D02*
D03*
X0352953Y0375275D02*
D03*
X0349173D02*
D03*
X0340079Y0242755D02*
D03*
X0343858D02*
D03*
X0348110Y0235590D02*
D03*
X0344331D02*
D03*
X0352953Y0282362D02*
D03*
X0349173D02*
D03*
X0340079Y0149842D02*
D03*
X0343858D02*
D03*
X0348110Y0142677D02*
D03*
X0344331D02*
D03*
X0352953Y0189448D02*
D03*
X0349173D02*
D03*
X0242165Y0164764D02*
D03*
X0238386D02*
D03*
X0242165Y0169095D02*
D03*
X0238386D02*
D03*
X0242165Y0160354D02*
D03*
X0238386D02*
D03*
X0202418Y0168858D02*
D03*
Y0180276D02*
D03*
X0238233Y0189339D02*
D03*
X0234454D02*
D03*
X0242165Y0257677D02*
D03*
X0238386D02*
D03*
X0242165Y0262008D02*
D03*
X0238386D02*
D03*
X0242165Y0253268D02*
D03*
X0238386D02*
D03*
X0202418Y0261772D02*
D03*
Y0273189D02*
D03*
X0238233Y0282252D02*
D03*
X0234454D02*
D03*
X0242165Y0350591D02*
D03*
X0238386D02*
D03*
X0242165Y0354921D02*
D03*
X0238386D02*
D03*
X0242165Y0346181D02*
D03*
X0238386D02*
D03*
X0202418Y0354685D02*
D03*
Y0366103D02*
D03*
X0238233Y0375166D02*
D03*
X0234454D02*
D03*
D24*
X0210787Y0136339D02*
D03*
Y0143819D02*
D03*
Y0229252D02*
D03*
Y0236732D02*
D03*
Y0322165D02*
D03*
Y0329646D02*
D03*
D40*
X0348149Y0360669D02*
D03*
X0351929D02*
D03*
X0348149Y0267755D02*
D03*
X0351929D02*
D03*
X0348149Y0174842D02*
D03*
X0351929D02*
D03*
D44*
X0335079Y0360807D02*
D03*
Y0267893D02*
D03*
Y0174980D02*
D03*
D45*
X0337638Y0360807D02*
D03*
Y0364744D02*
D03*
Y0267893D02*
D03*
Y0271830D02*
D03*
Y0174980D02*
D03*
Y0178917D02*
D03*
D46*
X0340197Y0360807D02*
D03*
X0335079Y0364744D02*
D03*
X0340197D02*
D03*
Y0267893D02*
D03*
X0335079Y0271830D02*
D03*
X0340197D02*
D03*
Y0174980D02*
D03*
X0335079Y0178917D02*
D03*
X0340197D02*
D03*
D48*
X0344921Y0376850D02*
D03*
X0340984D02*
D03*
X0344921Y0283937D02*
D03*
X0340984D02*
D03*
X0344921Y0191023D02*
D03*
X0340984D02*
D03*
X0229158Y0183550D02*
D03*
Y0185519D02*
D03*
Y0187487D02*
D03*
X0226008D02*
D03*
Y0185519D02*
D03*
Y0183550D02*
D03*
X0229158Y0276464D02*
D03*
Y0278432D02*
D03*
Y0280401D02*
D03*
X0226008D02*
D03*
Y0278432D02*
D03*
Y0276464D02*
D03*
X0229158Y0369377D02*
D03*
Y0371346D02*
D03*
Y0373314D02*
D03*
X0226008D02*
D03*
Y0371346D02*
D03*
Y0369377D02*
D03*
D50*
X0233937Y0156417D02*
D03*
Y0158386D02*
D03*
Y0160354D02*
D03*
Y0162323D02*
D03*
Y0164291D02*
D03*
Y0166260D02*
D03*
Y0168228D02*
D03*
Y0170197D02*
D03*
Y0172165D02*
D03*
X0218189Y0156417D02*
D03*
X0220158D02*
D03*
X0222126D02*
D03*
X0224095D02*
D03*
X0226063D02*
D03*
X0228031D02*
D03*
X0230000D02*
D03*
X0231968D02*
D03*
X0218189Y0158386D02*
D03*
Y0160354D02*
D03*
X0222126D02*
D03*
X0224095D02*
D03*
X0226063D02*
D03*
X0228031D02*
D03*
X0230000D02*
D03*
X0218189Y0162323D02*
D03*
X0222126D02*
D03*
X0224095D02*
D03*
X0228031D02*
D03*
X0230000D02*
D03*
X0218189Y0164291D02*
D03*
X0222126D02*
D03*
X0230000D02*
D03*
X0218189Y0166260D02*
D03*
X0224095D02*
D03*
X0228031D02*
D03*
X0230000D02*
D03*
X0218189Y0168228D02*
D03*
X0222126D02*
D03*
X0224095D02*
D03*
X0226063D02*
D03*
X0228031D02*
D03*
X0230000D02*
D03*
X0218189Y0170197D02*
D03*
Y0172165D02*
D03*
X0220158D02*
D03*
X0222126D02*
D03*
X0224095D02*
D03*
X0226063D02*
D03*
X0228031D02*
D03*
X0230000D02*
D03*
X0231968D02*
D03*
X0233937Y0249331D02*
D03*
Y0251299D02*
D03*
Y0253268D02*
D03*
Y0255236D02*
D03*
Y0257205D02*
D03*
Y0259173D02*
D03*
Y0261142D02*
D03*
Y0263110D02*
D03*
Y0265079D02*
D03*
X0218189Y0249331D02*
D03*
X0220158D02*
D03*
X0222126D02*
D03*
X0224095D02*
D03*
X0226063D02*
D03*
X0228031D02*
D03*
X0230000D02*
D03*
X0231968D02*
D03*
X0218189Y0251299D02*
D03*
Y0253268D02*
D03*
X0222126D02*
D03*
X0224095D02*
D03*
X0226063D02*
D03*
X0228031D02*
D03*
X0230000D02*
D03*
X0218189Y0255236D02*
D03*
X0222126D02*
D03*
X0224095D02*
D03*
X0228031D02*
D03*
X0230000D02*
D03*
X0218189Y0257205D02*
D03*
X0222126D02*
D03*
X0230000D02*
D03*
X0218189Y0259173D02*
D03*
X0224095D02*
D03*
X0228031D02*
D03*
X0230000D02*
D03*
X0218189Y0261142D02*
D03*
X0222126D02*
D03*
X0224095D02*
D03*
X0226063D02*
D03*
X0228031D02*
D03*
X0230000D02*
D03*
X0218189Y0263110D02*
D03*
Y0265079D02*
D03*
X0220158D02*
D03*
X0222126D02*
D03*
X0224095D02*
D03*
X0226063D02*
D03*
X0228031D02*
D03*
X0230000D02*
D03*
X0231968D02*
D03*
X0233937Y0342244D02*
D03*
Y0344213D02*
D03*
Y0346181D02*
D03*
Y0348150D02*
D03*
Y0350118D02*
D03*
Y0352087D02*
D03*
Y0354055D02*
D03*
Y0356024D02*
D03*
Y0357992D02*
D03*
X0218189Y0342244D02*
D03*
X0220158D02*
D03*
X0222126D02*
D03*
X0224095D02*
D03*
X0226063D02*
D03*
X0228031D02*
D03*
X0230000D02*
D03*
X0231968D02*
D03*
X0218189Y0344213D02*
D03*
Y0346181D02*
D03*
X0222126D02*
D03*
X0224095D02*
D03*
X0226063D02*
D03*
X0228031D02*
D03*
X0230000D02*
D03*
X0218189Y0348150D02*
D03*
X0222126D02*
D03*
X0224095D02*
D03*
X0228031D02*
D03*
X0230000D02*
D03*
X0218189Y0350118D02*
D03*
X0222126D02*
D03*
X0230000D02*
D03*
X0218189Y0352087D02*
D03*
X0224095D02*
D03*
X0228031D02*
D03*
X0230000D02*
D03*
X0218189Y0354055D02*
D03*
X0222126D02*
D03*
X0224095D02*
D03*
X0226063D02*
D03*
X0228031D02*
D03*
X0230000D02*
D03*
X0218189Y0356024D02*
D03*
Y0357992D02*
D03*
X0220158D02*
D03*
X0222126D02*
D03*
X0224095D02*
D03*
X0226063D02*
D03*
X0228031D02*
D03*
X0230000D02*
D03*
X0231968D02*
D03*
D55*
X0356417Y0328897D02*
D03*
X0358386D02*
D03*
X0360354D02*
D03*
X0362323D02*
D03*
Y0322992D02*
D03*
X0360354D02*
D03*
X0358386D02*
D03*
X0356417D02*
D03*
Y0235984D02*
D03*
X0358386D02*
D03*
X0360354D02*
D03*
X0362323D02*
D03*
Y0230078D02*
D03*
X0360354D02*
D03*
X0358386D02*
D03*
X0356417D02*
D03*
Y0143070D02*
D03*
X0358386D02*
D03*
X0360354D02*
D03*
X0362323D02*
D03*
Y0137165D02*
D03*
X0360354D02*
D03*
X0358386D02*
D03*
X0356417D02*
D03*
D56*
X0362323Y0326929D02*
D03*
X0362323Y0324960D02*
D03*
X0356417D02*
D03*
Y0326929D02*
D03*
X0362323Y0234015D02*
D03*
X0362323Y0232047D02*
D03*
X0356417D02*
D03*
Y0234015D02*
D03*
X0362323Y0141102D02*
D03*
X0362323Y0139133D02*
D03*
X0356417D02*
D03*
Y0141102D02*
D03*
D57*
X0343937Y0356614D02*
D03*
Y0360314D02*
D03*
Y0263700D02*
D03*
Y0267401D02*
D03*
Y0170787D02*
D03*
Y0174488D02*
D03*
D58*
X0367126Y0369968D02*
D03*
Y0277055D02*
D03*
Y0184141D02*
D03*
D59*
X0361713Y0375873D02*
D03*
Y0282960D02*
D03*
Y0190047D02*
D03*
D60*
X0372933Y0375873D02*
D03*
Y0282960D02*
D03*
Y0190047D02*
D03*
D61*
X0342205Y0322992D02*
D03*
X0348110D02*
D03*
X0342205Y0230078D02*
D03*
X0348110D02*
D03*
X0342205Y0137165D02*
D03*
X0348110D02*
D03*
X0239252Y0155000D02*
D03*
X0245158D02*
D03*
X0239213Y0148819D02*
D03*
X0245118D02*
D03*
X0239252Y0247914D02*
D03*
X0245158D02*
D03*
X0239213Y0241732D02*
D03*
X0245118D02*
D03*
X0239252Y0340827D02*
D03*
X0245158D02*
D03*
X0239213Y0334646D02*
D03*
X0245118D02*
D03*
D66*
X0227957Y0127756D02*
D03*
Y0220669D02*
D03*
Y0313583D02*
D03*
D67*
X0155315Y0127756D02*
D03*
X0164370D02*
D03*
X0173425D02*
D03*
X0182480D02*
D03*
X0191535D02*
D03*
X0200591D02*
D03*
X0155315Y0220669D02*
D03*
X0164370D02*
D03*
X0173425D02*
D03*
X0182480D02*
D03*
X0191535D02*
D03*
X0200591D02*
D03*
X0155315Y0313583D02*
D03*
X0164370D02*
D03*
X0173425D02*
D03*
X0182480D02*
D03*
X0191535D02*
D03*
X0200591D02*
D03*
D68*
X0221378Y0151850D02*
D03*
X0215866D02*
D03*
X0221378Y0244764D02*
D03*
X0215866D02*
D03*
X0221378Y0337677D02*
D03*
X0215866D02*
D03*
D69*
X0164803Y0138366D02*
D03*
X0166772D02*
D03*
X0168740D02*
D03*
X0164803Y0143681D02*
D03*
X0166772D02*
D03*
X0168740D02*
D03*
X0164803Y0231280D02*
D03*
X0166772D02*
D03*
X0168740D02*
D03*
X0164803Y0236595D02*
D03*
X0166772D02*
D03*
X0168740D02*
D03*
X0164803Y0324193D02*
D03*
X0166772D02*
D03*
X0168740D02*
D03*
X0164803Y0329508D02*
D03*
X0166772D02*
D03*
X0168740D02*
D03*
D70*
X0234606Y0140852D02*
D03*
X0240905D02*
D03*
X0234606Y0233766D02*
D03*
X0240905D02*
D03*
X0234606Y0326679D02*
D03*
X0240905D02*
D03*
D71*
X0198641Y0176417D02*
D03*
Y0172717D02*
D03*
Y0269331D02*
D03*
Y0265630D02*
D03*
Y0362244D02*
D03*
Y0358543D02*
D03*
D72*
X0221595Y0188335D02*
D03*
X0217894D02*
D03*
X0221595Y0281248D02*
D03*
X0217894D02*
D03*
X0221595Y0374162D02*
D03*
X0217894D02*
D03*
D73*
X0198228Y0165354D02*
D03*
X0194291D02*
D03*
X0198228Y0258268D02*
D03*
X0194291D02*
D03*
X0198228Y0351181D02*
D03*
X0194291D02*
D03*
D74*
X0198638Y0168858D02*
D03*
Y0180276D02*
D03*
Y0261772D02*
D03*
Y0273189D02*
D03*
Y0354685D02*
D03*
Y0366103D02*
D03*
D75*
X0213722Y0188336D02*
D03*
X0209942D02*
D03*
X0213722Y0281250D02*
D03*
X0209942D02*
D03*
X0213722Y0374163D02*
D03*
X0209942D02*
D03*
D138*
X0280787Y0329291D02*
D03*
X0324330Y0329330D02*
D03*
Y0332480D02*
D03*
Y0335630D02*
D03*
Y0338779D02*
D03*
Y0341929D02*
D03*
Y0345078D02*
D03*
Y0348228D02*
D03*
Y0351377D02*
D03*
Y0354527D02*
D03*
Y0357677D02*
D03*
Y0360826D02*
D03*
Y0363976D02*
D03*
X0280787Y0236378D02*
D03*
X0324330Y0236417D02*
D03*
Y0239567D02*
D03*
Y0242716D02*
D03*
Y0245866D02*
D03*
Y0249015D02*
D03*
Y0252165D02*
D03*
Y0255314D02*
D03*
Y0258464D02*
D03*
Y0261613D02*
D03*
Y0264763D02*
D03*
Y0267913D02*
D03*
Y0271062D02*
D03*
X0280787Y0143464D02*
D03*
X0324330Y0143504D02*
D03*
Y0146653D02*
D03*
Y0149803D02*
D03*
Y0152952D02*
D03*
Y0156102D02*
D03*
Y0159252D02*
D03*
Y0162401D02*
D03*
Y0165550D02*
D03*
Y0168700D02*
D03*
Y0171850D02*
D03*
Y0174999D02*
D03*
Y0178149D02*
D03*
D139*
X0280768Y0332421D02*
D03*
Y0335610D02*
D03*
Y0341909D02*
D03*
Y0345059D02*
D03*
Y0348208D02*
D03*
Y0351358D02*
D03*
Y0354507D02*
D03*
Y0357657D02*
D03*
Y0360806D02*
D03*
Y0363956D02*
D03*
Y0239508D02*
D03*
Y0242696D02*
D03*
Y0248996D02*
D03*
Y0252145D02*
D03*
Y0255294D02*
D03*
Y0258444D02*
D03*
Y0261594D02*
D03*
Y0264743D02*
D03*
Y0267893D02*
D03*
Y0271043D02*
D03*
Y0146594D02*
D03*
Y0149783D02*
D03*
Y0156082D02*
D03*
Y0159232D02*
D03*
Y0162381D02*
D03*
Y0165531D02*
D03*
Y0168680D02*
D03*
Y0171830D02*
D03*
Y0174980D02*
D03*
Y0178129D02*
D03*
D140*
Y0338760D02*
D03*
Y0245846D02*
D03*
Y0152933D02*
D03*
D141*
X0285216Y0366633D02*
D03*
X0288366D02*
D03*
X0291555D02*
D03*
X0294705D02*
D03*
X0297815D02*
D03*
X0300965D02*
D03*
X0304114D02*
D03*
X0307264D02*
D03*
X0310413D02*
D03*
X0313562D02*
D03*
X0316752D02*
D03*
X0320059D02*
D03*
X0285216Y0326634D02*
D03*
X0288405Y0326594D02*
D03*
X0291555D02*
D03*
X0294705D02*
D03*
X0297854D02*
D03*
X0300965D02*
D03*
X0304114D02*
D03*
X0307264D02*
D03*
X0310413D02*
D03*
X0313563D02*
D03*
X0316712D02*
D03*
X0319901D02*
D03*
X0285216Y0273720D02*
D03*
X0288366D02*
D03*
X0291555D02*
D03*
X0294705D02*
D03*
X0297815D02*
D03*
X0300965D02*
D03*
X0304114D02*
D03*
X0307264D02*
D03*
X0310413D02*
D03*
X0313562D02*
D03*
X0316752D02*
D03*
X0320059D02*
D03*
X0285216Y0233720D02*
D03*
X0288405Y0233681D02*
D03*
X0291555D02*
D03*
X0294705D02*
D03*
X0297854D02*
D03*
X0300965D02*
D03*
X0304114D02*
D03*
X0307264D02*
D03*
X0310413D02*
D03*
X0313563D02*
D03*
X0316712D02*
D03*
X0319901D02*
D03*
X0285216Y0180806D02*
D03*
X0288366D02*
D03*
X0291555D02*
D03*
X0294705D02*
D03*
X0297815D02*
D03*
X0300965D02*
D03*
X0304114D02*
D03*
X0307264D02*
D03*
X0310413D02*
D03*
X0313562D02*
D03*
X0316752D02*
D03*
X0320059D02*
D03*
X0285216Y0140807D02*
D03*
X0288405Y0140767D02*
D03*
X0291555D02*
D03*
X0294705D02*
D03*
X0297854D02*
D03*
X0300965D02*
D03*
X0304114D02*
D03*
X0307264D02*
D03*
X0310413D02*
D03*
X0313563D02*
D03*
X0316712D02*
D03*
X0319901D02*
D03*
D142*
X0352447Y0368194D02*
D03*
X0353936Y0369489D02*
D03*
X0355230Y0370978D02*
D03*
X0360782Y0365427D02*
D03*
X0359292Y0364132D02*
D03*
X0357998Y0362643D02*
D03*
X0352447Y0275281D02*
D03*
X0353936Y0276575D02*
D03*
X0355230Y0278065D02*
D03*
X0360782Y0272514D02*
D03*
X0359292Y0271219D02*
D03*
X0357998Y0269730D02*
D03*
X0352447Y0182367D02*
D03*
X0353936Y0183662D02*
D03*
X0355230Y0185151D02*
D03*
X0360782Y0179600D02*
D03*
X0359292Y0178306D02*
D03*
X0357998Y0176816D02*
D03*
D143*
X0357999Y0370979D02*
D03*
X0359294Y0369490D02*
D03*
X0360783Y0368196D02*
D03*
X0355230Y0362643D02*
D03*
X0353936Y0364132D02*
D03*
X0352447Y0365427D02*
D03*
X0357999Y0278066D02*
D03*
X0359294Y0276577D02*
D03*
X0360783Y0275282D02*
D03*
X0355230Y0269730D02*
D03*
X0353936Y0271219D02*
D03*
X0352447Y0272514D02*
D03*
X0357999Y0185153D02*
D03*
X0359294Y0183663D02*
D03*
X0360783Y0182369D02*
D03*
X0355230Y0176816D02*
D03*
X0353936Y0178306D02*
D03*
X0352447Y0179600D02*
D03*
D144*
X0356614Y0366810D02*
D03*
Y0273897D02*
D03*
Y0180984D02*
D03*
D145*
X0344921Y0374763D02*
D03*
Y0378937D02*
D03*
X0340984Y0374763D02*
D03*
Y0378937D02*
D03*
X0344921Y0281850D02*
D03*
Y0286023D02*
D03*
X0340984Y0281850D02*
D03*
Y0286023D02*
D03*
X0344921Y0188936D02*
D03*
Y0193110D02*
D03*
X0340984Y0188936D02*
D03*
Y0193110D02*
D03*
D146*
X0427086Y0340551D02*
D03*
X0432087D02*
D03*
X0427086Y0345551D02*
D03*
X0432087D02*
D03*
X0427086Y0350866D02*
D03*
X0432087Y0350551D02*
D03*
X0427086Y0247637D02*
D03*
X0432087D02*
D03*
X0427086Y0252637D02*
D03*
X0432087D02*
D03*
X0427086Y0257952D02*
D03*
X0432087Y0257637D02*
D03*
X0427086Y0154724D02*
D03*
X0432087D02*
D03*
X0427086Y0159724D02*
D03*
X0432087D02*
D03*
X0427086Y0165039D02*
D03*
X0432087Y0164724D02*
D03*
D147*
X0343149Y0369114D02*
D03*
Y0370885D02*
D03*
X0341378Y0369114D02*
D03*
Y0370885D02*
D03*
X0339606Y0369114D02*
D03*
Y0370885D02*
D03*
X0343149Y0276200D02*
D03*
Y0277972D02*
D03*
X0341378Y0276200D02*
D03*
Y0277972D02*
D03*
X0339606Y0276200D02*
D03*
Y0277972D02*
D03*
X0343149Y0183287D02*
D03*
Y0185058D02*
D03*
X0341378Y0183287D02*
D03*
Y0185058D02*
D03*
X0339606Y0183287D02*
D03*
Y0185058D02*
D03*
X0231102Y0148721D02*
D03*
X0232874D02*
D03*
X0234646D02*
D03*
X0231102Y0146949D02*
D03*
X0232874D02*
D03*
X0234646D02*
D03*
X0231102Y0241634D02*
D03*
X0232874D02*
D03*
X0234646D02*
D03*
X0231102Y0239862D02*
D03*
X0232874D02*
D03*
X0234646D02*
D03*
X0231102Y0334547D02*
D03*
X0232874D02*
D03*
X0234646D02*
D03*
X0231102Y0332776D02*
D03*
X0232874D02*
D03*
X0234646D02*
D03*
D148*
X0312409Y0356476D02*
D03*
X0302567D02*
D03*
X0292626D02*
D03*
X0312409Y0346633D02*
D03*
X0302567D02*
D03*
X0292724D02*
D03*
X0312409Y0336791D02*
D03*
X0302567Y0336791D02*
D03*
X0312409Y0263562D02*
D03*
X0302567D02*
D03*
X0292626D02*
D03*
X0312409Y0253720D02*
D03*
X0302567D02*
D03*
X0292724D02*
D03*
X0312409Y0243877D02*
D03*
X0302567Y0243877D02*
D03*
X0312409Y0170649D02*
D03*
X0302567D02*
D03*
X0292626D02*
D03*
X0312409Y0160807D02*
D03*
X0302567D02*
D03*
X0292724D02*
D03*
X0312409Y0150964D02*
D03*
X0302567Y0150964D02*
D03*
D149*
X0292724Y0336791D02*
D03*
Y0243877D02*
D03*
Y0150964D02*
D03*
M02*
