G04*
G04 #@! TF.GenerationSoftware,Altium Limited,Altium Designer,19.1.6 (110)*
G04*
G04 Layer_Color=16711935*
%FSAX25Y25*%
%MOIN*%
G70*
G01*
G75*
%ADD31R,0.02769X0.03162*%
%ADD32R,0.03162X0.02769*%
%ADD37R,0.03950X0.03950*%
%ADD39R,0.03950X0.03950*%
%ADD40R,0.03320X0.03162*%
%ADD42O,0.07099X0.06312*%
%ADD43C,0.04343*%
%ADD44C,0.06706*%
%ADD45C,0.03950*%
%ADD46C,0.02375*%
%ADD81R,0.10224X0.02877*%
%ADD82C,0.03910*%
%ADD83C,0.01417*%
%ADD84R,0.01981X0.02769*%
%ADD85R,0.02769X0.03603*%
%ADD86R,0.06706X0.06706*%
%ADD87R,0.01968X0.01575*%
%ADD88R,0.02375X0.04343*%
%ADD89R,0.06706X0.06706*%
G04:AMPARAMS|DCode=90|XSize=67.06mil|YSize=67.06mil|CornerRadius=9.91mil|HoleSize=0mil|Usage=FLASHONLY|Rotation=180.000|XOffset=0mil|YOffset=0mil|HoleType=Round|Shape=RoundedRectangle|*
%AMROUNDEDRECTD90*
21,1,0.06706,0.04724,0,0,180.0*
21,1,0.04724,0.06706,0,0,180.0*
1,1,0.01981,-0.02362,0.02362*
1,1,0.01981,0.02362,0.02362*
1,1,0.01981,0.02362,-0.02362*
1,1,0.01981,-0.02362,-0.02362*
%
%ADD90ROUNDEDRECTD90*%
%ADD91R,0.02769X0.07493*%
%ADD92R,0.07493X0.02769*%
%ADD93R,0.01194X0.01194*%
%ADD94R,0.01784X0.01883*%
%ADD95R,0.01883X0.01784*%
%ADD96R,0.03241X0.03044*%
%ADD97R,0.04737X0.04737*%
%ADD98R,0.09461X0.04934*%
%ADD99R,0.03162X0.03603*%
G36*
X0129043Y0171365D02*
X0129096Y0171362D01*
X0129116Y0171358D01*
X0129147Y0171352D01*
X0129197Y0171335D01*
X0129244Y0171312D01*
D01*
X0129244Y0171312D01*
X0129258Y0171302D01*
X0129287Y0171283D01*
X0129327Y0171248D01*
X0129327Y0171248D01*
X0129327Y0171248D01*
X0129361Y0171209D01*
X0129381Y0171180D01*
X0129391Y0171165D01*
X0129391Y0171165D01*
D01*
X0129414Y0171118D01*
X0129430Y0171068D01*
X0129437Y0171037D01*
X0129441Y0171017D01*
X0129444Y0170965D01*
Y0169882D01*
X0129441Y0169830D01*
X0129430Y0169778D01*
X0129414Y0169729D01*
X0129391Y0169681D01*
X0129361Y0169638D01*
X0129327Y0169598D01*
X0129287Y0169564D01*
X0129244Y0169535D01*
X0129197Y0169511D01*
X0129147Y0169495D01*
X0129096Y0169484D01*
X0129043Y0169481D01*
X0128059D01*
X0128032Y0169483D01*
X0128007Y0169484D01*
X0128007Y0169484D01*
X0128007D01*
X0127981Y0169490D01*
X0127955Y0169495D01*
X0127955Y0169495D01*
X0127955Y0169495D01*
X0127937Y0169501D01*
X0127906Y0169511D01*
X0127906Y0169511D01*
X0127906Y0169511D01*
X0127884Y0169522D01*
X0127859Y0169535D01*
X0127859Y0169535D01*
X0127859Y0169535D01*
X0127841Y0169546D01*
X0127815Y0169564D01*
X0127815Y0169564D01*
X0127815Y0169564D01*
X0127803Y0169574D01*
X0127776Y0169598D01*
X0127776Y0169598D01*
X0127776Y0169598D01*
X0127751Y0169626D01*
X0127741Y0169638D01*
X0127741Y0169638D01*
X0127741Y0169638D01*
X0127724Y0169664D01*
X0127712Y0169681D01*
X0127712Y0169681D01*
X0127712Y0169681D01*
X0127699Y0169707D01*
X0127689Y0169728D01*
X0127689Y0169728D01*
X0127689Y0169729D01*
X0127678Y0169759D01*
X0127672Y0169778D01*
X0127672Y0169778D01*
X0127672Y0169778D01*
X0127667Y0169804D01*
X0127662Y0169829D01*
Y0169829D01*
X0127662Y0169830D01*
X0127660Y0169854D01*
X0127658Y0169882D01*
X0127658Y0170620D01*
Y0170620D01*
Y0170620D01*
X0127660Y0170647D01*
X0127662Y0170672D01*
X0127662Y0170672D01*
Y0170672D01*
X0127666Y0170697D01*
X0127672Y0170724D01*
X0127672Y0170724D01*
X0127672Y0170724D01*
X0127681Y0170752D01*
X0127689Y0170773D01*
X0127689Y0170773D01*
X0127689Y0170773D01*
X0127703Y0170803D01*
X0127712Y0170820D01*
X0127712Y0170820D01*
X0127712Y0170820D01*
X0127724Y0170838D01*
X0127741Y0170864D01*
X0127741Y0170864D01*
X0127741Y0170864D01*
X0127751Y0170876D01*
X0127775Y0170903D01*
X0127776Y0170903D01*
X0127776Y0170903D01*
X0128120Y0171248D01*
X0128120Y0171248D01*
X0128120Y0171248D01*
X0128160Y0171283D01*
X0128189Y0171302D01*
X0128203Y0171312D01*
X0128203Y0171312D01*
D01*
X0128204Y0171312D01*
X0128250Y0171335D01*
X0128253Y0171336D01*
X0128300Y0171352D01*
X0128331Y0171358D01*
X0128351Y0171362D01*
X0128404Y0171365D01*
X0128404D01*
X0128404D01*
X0129043Y0171365D01*
D02*
G37*
D31*
X0147370Y0127992D02*
D03*
X0143433D02*
D03*
X0153905Y0120945D02*
D03*
X0157843D02*
D03*
X0138315Y0158031D02*
D03*
X0134378D02*
D03*
X0125126Y0166496D02*
D03*
X0129063D02*
D03*
X0136150Y0169803D02*
D03*
X0140087D02*
D03*
D32*
X0137922Y0120102D02*
D03*
Y0124039D02*
D03*
X0149535Y0123386D02*
D03*
Y0119449D02*
D03*
D37*
X0207961Y0156968D02*
D03*
Y0151063D02*
D03*
D39*
X0141819Y0178228D02*
D03*
X0135913D02*
D03*
D40*
X0129496Y0130709D02*
D03*
Y0126929D02*
D03*
X0162055Y0118976D02*
D03*
Y0122756D02*
D03*
X0200362Y0123268D02*
D03*
Y0127047D02*
D03*
X0202291Y0147480D02*
D03*
Y0151260D02*
D03*
Y0162284D02*
D03*
Y0158504D02*
D03*
D42*
X0120524Y0135898D02*
D03*
D43*
X0055382Y0163622D02*
D03*
X0051382Y0143622D02*
D03*
X0059382D02*
D03*
D44*
X0116858Y0153307D02*
D03*
X0215268Y0133622D02*
D03*
Y0172992D02*
D03*
X0074142Y0141496D02*
D03*
Y0165118D02*
D03*
D45*
X0146622Y0178465D02*
D03*
X0185992D02*
D03*
D46*
X0122567Y0115709D02*
D03*
X0125520D02*
D03*
X0128472D02*
D03*
X0128472Y0184606D02*
D03*
X0125520D02*
D03*
X0122567D02*
D03*
X0190480D02*
D03*
X0193433D02*
D03*
X0196386D02*
D03*
X0196386Y0115709D02*
D03*
X0193433D02*
D03*
X0190480D02*
D03*
D81*
X0117167Y0135845D02*
D03*
D82*
X0057882Y0158622D02*
D03*
X0052882D02*
D03*
X0057882Y0153622D02*
D03*
X0052882D02*
D03*
X0057882Y0148307D02*
D03*
X0052882Y0148622D02*
D03*
D83*
X0132882Y0128425D02*
D03*
Y0126850D02*
D03*
X0134457Y0128425D02*
D03*
Y0126850D02*
D03*
X0136031Y0128425D02*
D03*
Y0126850D02*
D03*
D84*
X0138866Y0131929D02*
D03*
X0141032D02*
D03*
X0143197D02*
D03*
X0141032Y0135866D02*
D03*
D85*
X0138472D02*
D03*
X0143591D02*
D03*
D86*
X0215638Y0141496D02*
D03*
Y0149370D02*
D03*
Y0157244D02*
D03*
Y0165118D02*
D03*
D87*
X0145009Y0120298D02*
D03*
Y0121873D02*
D03*
Y0123448D02*
D03*
X0141466Y0120298D02*
D03*
Y0121873D02*
D03*
Y0123448D02*
D03*
D88*
X0204575Y0123346D02*
D03*
X0207134D02*
D03*
X0209693D02*
D03*
Y0128465D02*
D03*
X0207134D02*
D03*
X0204575D02*
D03*
D89*
X0163268Y0140197D02*
D03*
X0173110D02*
D03*
X0183051D02*
D03*
X0163268Y0150039D02*
D03*
X0173110D02*
D03*
X0182953D02*
D03*
X0163268Y0159882D02*
D03*
X0173110Y0159882D02*
D03*
D90*
X0182953Y0159882D02*
D03*
D91*
X0190441Y0171516D02*
D03*
X0187252D02*
D03*
X0184102D02*
D03*
X0180953D02*
D03*
X0177803D02*
D03*
X0174653D02*
D03*
X0171504D02*
D03*
X0168354D02*
D03*
X0165205D02*
D03*
X0162055D02*
D03*
X0158945D02*
D03*
X0155756D02*
D03*
X0155598Y0128583D02*
D03*
X0158909Y0128583D02*
D03*
X0162087D02*
D03*
X0165236Y0128587D02*
D03*
X0168386Y0128587D02*
D03*
X0171535Y0128583D02*
D03*
X0174685D02*
D03*
X0177835Y0128583D02*
D03*
X0180984Y0128583D02*
D03*
X0184134Y0128583D02*
D03*
X0187283D02*
D03*
X0190441D02*
D03*
D92*
X0149890Y0167382D02*
D03*
Y0164232D02*
D03*
Y0161043D02*
D03*
Y0157933D02*
D03*
Y0154783D02*
D03*
Y0151594D02*
D03*
X0149882Y0148465D02*
D03*
X0149882Y0145315D02*
D03*
X0149882Y0142165D02*
D03*
X0149882Y0139028D02*
D03*
X0149882Y0135870D02*
D03*
Y0132717D02*
D03*
X0196346Y0132736D02*
D03*
Y0135846D02*
D03*
Y0139035D02*
D03*
Y0142146D02*
D03*
Y0145295D02*
D03*
Y0148484D02*
D03*
Y0151594D02*
D03*
Y0154744D02*
D03*
Y0157894D02*
D03*
Y0161043D02*
D03*
Y0164232D02*
D03*
Y0167382D02*
D03*
D93*
X0128551Y0170433D02*
D03*
D94*
X0126583D02*
D03*
X0124614D02*
D03*
X0122646D02*
D03*
Y0176339D02*
D03*
X0124614D02*
D03*
X0126583D02*
D03*
X0128551D02*
D03*
D95*
X0122646Y0172402D02*
D03*
X0122646Y0174370D02*
D03*
X0128551D02*
D03*
Y0172402D02*
D03*
D96*
X0125402Y0139842D02*
D03*
Y0136142D02*
D03*
X0136346Y0139842D02*
D03*
Y0136142D02*
D03*
D97*
X0112417Y0135866D02*
D03*
D98*
X0118323Y0141673D02*
D03*
Y0130059D02*
D03*
D99*
X0128866Y0135866D02*
D03*
X0132646D02*
D03*
M02*
