G04*
G04 #@! TF.GenerationSoftware,Altium Limited,Altium Designer,19.1.6 (110)*
G04*
G04 Layer_Color=128*
%FSAX25Y25*%
%MOIN*%
G70*
G01*
G75*
%ADD17R,0.01968X0.02362*%
%ADD18R,0.02362X0.01968*%
%ADD23R,0.03150X0.03150*%
%ADD25R,0.03150X0.03150*%
%ADD26R,0.02520X0.02362*%
%ADD61C,0.01181*%
%ADD62R,0.01181X0.01968*%
%ADD63R,0.01968X0.02803*%
%ADD64R,0.05906X0.05906*%
%ADD65R,0.01575X0.01181*%
%ADD66R,0.01575X0.03543*%
%ADD67R,0.05906X0.05906*%
G04:AMPARAMS|DCode=68|XSize=59.06mil|YSize=59.06mil|CornerRadius=5.91mil|HoleSize=0mil|Usage=FLASHONLY|Rotation=180.000|XOffset=0mil|YOffset=0mil|HoleType=Round|Shape=RoundedRectangle|*
%AMROUNDEDRECTD68*
21,1,0.05906,0.04724,0,0,180.0*
21,1,0.04724,0.05906,0,0,180.0*
1,1,0.01181,-0.02362,0.02362*
1,1,0.01181,0.02362,0.02362*
1,1,0.01181,0.02362,-0.02362*
1,1,0.01181,-0.02362,-0.02362*
%
%ADD68ROUNDEDRECTD68*%
%ADD71R,0.00394X0.00394*%
%ADD72R,0.00984X0.01083*%
%ADD73R,0.01083X0.00984*%
%ADD74R,0.02441X0.02244*%
%ADD75R,0.03937X0.03937*%
%ADD76R,0.08661X0.04134*%
%ADD77R,0.02362X0.02803*%
%ADD100R,0.03780X0.01968*%
%ADD101R,0.03740X0.01929*%
%ADD102R,0.03740X0.01929*%
%ADD103R,0.01929X0.03740*%
%ADD104C,0.00039*%
G36*
X0129043Y0170965D02*
Y0169882D01*
X0128059D01*
X0128059Y0170620D01*
X0128404Y0170965D01*
X0129043Y0170965D01*
D02*
G37*
D17*
X0147370Y0127992D02*
D03*
X0143433D02*
D03*
X0153905Y0120945D02*
D03*
X0157843D02*
D03*
X0138315Y0158031D02*
D03*
X0134378D02*
D03*
X0125126Y0166496D02*
D03*
X0129063D02*
D03*
X0136150Y0169803D02*
D03*
X0140087D02*
D03*
D18*
X0137922Y0120102D02*
D03*
Y0124039D02*
D03*
X0149535Y0123386D02*
D03*
Y0119449D02*
D03*
D23*
X0207961Y0156968D02*
D03*
Y0151063D02*
D03*
D25*
X0141819Y0178228D02*
D03*
X0135913D02*
D03*
D26*
X0129496Y0130709D02*
D03*
Y0126929D02*
D03*
X0162055Y0118976D02*
D03*
Y0122756D02*
D03*
X0200362Y0123268D02*
D03*
Y0127047D02*
D03*
X0202291Y0147480D02*
D03*
Y0151260D02*
D03*
Y0162284D02*
D03*
Y0158504D02*
D03*
D61*
X0132882Y0128425D02*
D03*
Y0126850D02*
D03*
X0134457Y0128425D02*
D03*
Y0126850D02*
D03*
X0136031Y0128425D02*
D03*
Y0126850D02*
D03*
D62*
X0138866Y0131929D02*
D03*
X0141032D02*
D03*
X0143197D02*
D03*
X0141032Y0135866D02*
D03*
D63*
X0138472D02*
D03*
X0143591D02*
D03*
D64*
X0215638Y0141496D02*
D03*
Y0149370D02*
D03*
Y0157244D02*
D03*
Y0165118D02*
D03*
D65*
X0145009Y0120298D02*
D03*
Y0121873D02*
D03*
Y0123448D02*
D03*
X0141466Y0120298D02*
D03*
Y0121873D02*
D03*
Y0123448D02*
D03*
D66*
X0204575Y0123346D02*
D03*
X0207134D02*
D03*
X0209693D02*
D03*
Y0128465D02*
D03*
X0207134D02*
D03*
X0204575D02*
D03*
D67*
X0163268Y0140197D02*
D03*
X0173110D02*
D03*
X0183051D02*
D03*
X0163268Y0150039D02*
D03*
X0173110D02*
D03*
X0182953D02*
D03*
X0163268Y0159882D02*
D03*
X0173110Y0159882D02*
D03*
D68*
X0182953Y0159882D02*
D03*
D71*
X0128551Y0170433D02*
D03*
D72*
X0126583D02*
D03*
X0124614D02*
D03*
X0122646D02*
D03*
Y0176339D02*
D03*
X0124614D02*
D03*
X0126583D02*
D03*
X0128551D02*
D03*
D73*
X0122646Y0172402D02*
D03*
X0122646Y0174370D02*
D03*
X0128551D02*
D03*
Y0172402D02*
D03*
D74*
X0125402Y0139842D02*
D03*
Y0136142D02*
D03*
X0136346Y0139842D02*
D03*
Y0136142D02*
D03*
D75*
X0112417Y0135866D02*
D03*
D76*
X0118323Y0141673D02*
D03*
Y0130059D02*
D03*
D77*
X0128866Y0135866D02*
D03*
X0132646D02*
D03*
D100*
X0194889Y0167382D02*
D03*
X0151347Y0167342D02*
D03*
Y0164193D02*
D03*
Y0161043D02*
D03*
Y0157894D02*
D03*
Y0154744D02*
D03*
Y0151594D02*
D03*
Y0148445D02*
D03*
Y0145296D02*
D03*
Y0142146D02*
D03*
Y0138996D02*
D03*
Y0135847D02*
D03*
Y0132697D02*
D03*
D101*
X0194909Y0164252D02*
D03*
Y0161063D02*
D03*
Y0154764D02*
D03*
Y0151614D02*
D03*
Y0148465D02*
D03*
Y0145315D02*
D03*
Y0142166D02*
D03*
Y0139016D02*
D03*
Y0135866D02*
D03*
Y0132717D02*
D03*
D102*
Y0157913D02*
D03*
D103*
X0190461Y0130040D02*
D03*
X0187311D02*
D03*
X0184122D02*
D03*
X0180972D02*
D03*
X0177862D02*
D03*
X0174712D02*
D03*
X0171563D02*
D03*
X0168413D02*
D03*
X0165264D02*
D03*
X0162115D02*
D03*
X0158926D02*
D03*
X0155618D02*
D03*
X0190461Y0170039D02*
D03*
X0187272Y0170079D02*
D03*
X0184122D02*
D03*
X0180972D02*
D03*
X0177823D02*
D03*
X0174712D02*
D03*
X0171563D02*
D03*
X0168413D02*
D03*
X0165264D02*
D03*
X0162114D02*
D03*
X0158965D02*
D03*
X0155776D02*
D03*
D104*
X0057882Y0158622D02*
D03*
X0052882D02*
D03*
X0057882Y0153622D02*
D03*
X0052882D02*
D03*
X0057882Y0148307D02*
D03*
X0052882Y0148622D02*
D03*
M02*
