G04*
G04 #@! TF.GenerationSoftware,Altium Limited,Altium Designer,19.1.5 (86)*
G04*
G04 Layer_Color=16711935*
%FSAX25Y25*%
%MOIN*%
G70*
G01*
G75*
%ADD12C,0.01784*%
%ADD13C,0.06706*%
%ADD38R,0.02572X0.03556*%
%ADD39R,0.02769X0.03162*%
%ADD40R,0.03162X0.02769*%
%ADD41R,0.03320X0.03162*%
%ADD42R,0.03162X0.03320*%
%ADD43R,0.03950X0.03950*%
%ADD44R,0.01883X0.01784*%
%ADD45R,0.01784X0.01883*%
%ADD46R,0.01194X0.01194*%
%ADD47R,0.04540X0.02690*%
%ADD48R,0.02769X0.01981*%
%ADD49R,0.07690X0.13005*%
%ADD50R,0.07493X0.03556*%
%ADD51R,0.04343X0.05918*%
G36*
X0166709Y0185045D02*
X0166733Y0185043D01*
X0166733Y0185043D01*
X0166733D01*
X0166759Y0185038D01*
X0166785Y0185033D01*
X0166785Y0185033D01*
X0166785Y0185033D01*
X0166803Y0185027D01*
X0166834Y0185016D01*
X0166834Y0185016D01*
X0166834Y0185016D01*
X0166856Y0185005D01*
X0166882Y0184993D01*
X0166882Y0184993D01*
X0166882Y0184993D01*
X0166899Y0184981D01*
X0166925Y0184964D01*
X0166925Y0184964D01*
X0166925Y0184964D01*
X0166937Y0184953D01*
X0166964Y0184929D01*
X0166964Y0184929D01*
X0166965Y0184929D01*
X0166989Y0184901D01*
X0166999Y0184890D01*
X0166999Y0184890D01*
X0166999Y0184890D01*
X0167016Y0184864D01*
X0167028Y0184846D01*
X0167028Y0184846D01*
X0167028Y0184846D01*
X0167041Y0184820D01*
X0167051Y0184799D01*
X0167051Y0184799D01*
X0167051Y0184799D01*
X0167062Y0184768D01*
X0167068Y0184749D01*
X0167068Y0184749D01*
X0167068Y0184749D01*
X0167074Y0184723D01*
X0167078Y0184698D01*
Y0184698D01*
X0167078Y0184698D01*
X0167080Y0184673D01*
X0167082Y0184646D01*
X0167082Y0183908D01*
Y0183908D01*
Y0183908D01*
X0167080Y0183880D01*
X0167079Y0183855D01*
X0167079Y0183855D01*
Y0183855D01*
X0167074Y0183830D01*
X0167069Y0183804D01*
X0167069Y0183804D01*
X0167068Y0183804D01*
X0167059Y0183776D01*
X0167052Y0183754D01*
X0167052Y0183754D01*
X0167052Y0183754D01*
X0167037Y0183724D01*
X0167028Y0183707D01*
X0167028Y0183707D01*
X0167028Y0183707D01*
X0167017Y0183690D01*
X0166999Y0183664D01*
X0166999Y0183664D01*
X0166999Y0183664D01*
X0166989Y0183652D01*
X0166965Y0183624D01*
X0166965Y0183624D01*
X0166965Y0183624D01*
X0166620Y0183280D01*
X0166620Y0183280D01*
X0166620Y0183280D01*
X0166581Y0183245D01*
X0166552Y0183226D01*
X0166537Y0183216D01*
X0166537Y0183216D01*
D01*
X0166536Y0183215D01*
X0166490Y0183193D01*
X0166487Y0183192D01*
X0166440Y0183176D01*
X0166409Y0183170D01*
X0166389Y0183166D01*
X0166337Y0183162D01*
X0166337D01*
X0166337D01*
X0165697Y0183162D01*
X0165645Y0183166D01*
X0165624Y0183170D01*
X0165593Y0183176D01*
X0165543Y0183193D01*
X0165496Y0183216D01*
D01*
X0165496Y0183216D01*
X0165482Y0183226D01*
X0165453Y0183245D01*
X0165413Y0183280D01*
X0165413Y0183280D01*
X0165413Y0183280D01*
X0165379Y0183319D01*
X0165359Y0183348D01*
X0165350Y0183363D01*
X0165350Y0183363D01*
D01*
X0165326Y0183410D01*
X0165310Y0183459D01*
X0165304Y0183490D01*
X0165299Y0183511D01*
X0165296Y0183563D01*
Y0184646D01*
X0165299Y0184698D01*
X0165310Y0184749D01*
X0165326Y0184799D01*
X0165350Y0184846D01*
X0165379Y0184890D01*
X0165413Y0184929D01*
X0165453Y0184964D01*
X0165496Y0184993D01*
X0165543Y0185016D01*
X0165593Y0185033D01*
X0165645Y0185043D01*
X0165697Y0185047D01*
X0166681D01*
X0166709Y0185045D01*
D02*
G37*
D12*
X0198315Y0152520D02*
D03*
X0197252Y0148150D02*
D03*
X0136728Y0203413D02*
D03*
X0132902Y0201760D02*
D03*
X0129051Y0199752D02*
D03*
X0128736Y0120236D02*
D03*
X0125087Y0122598D02*
D03*
D13*
X0192328Y0176351D02*
D03*
X0182803Y0190315D02*
D03*
X0152488Y0203307D02*
D03*
X0169021Y0199928D02*
D03*
D03*
X0195768Y0159933D02*
D03*
X0182803Y0190315D02*
D03*
X0152488Y0203307D02*
D03*
D03*
D03*
X0122173Y0190315D02*
D03*
X0112685Y0176440D02*
D03*
X0109181Y0159933D02*
D03*
X0112554Y0143386D02*
D03*
X0121780Y0129291D02*
D03*
X0135867Y0119854D02*
D03*
X0152461Y0116693D02*
D03*
X0169067Y0119872D02*
D03*
X0183197Y0129291D02*
D03*
X0192340Y0143416D02*
D03*
D38*
X0127134Y0147110D02*
D03*
Y0156953D02*
D03*
X0158709Y0157402D02*
D03*
Y0147559D02*
D03*
D39*
X0160126Y0130354D02*
D03*
X0164063D02*
D03*
X0150638Y0167835D02*
D03*
X0154575D02*
D03*
X0150638Y0172165D02*
D03*
X0154575D02*
D03*
X0164315Y0188504D02*
D03*
X0168252D02*
D03*
X0148126Y0158264D02*
D03*
X0152063D02*
D03*
X0173236Y0144882D02*
D03*
X0177173D02*
D03*
X0177173Y0162559D02*
D03*
X0173236D02*
D03*
X0165323D02*
D03*
X0169260D02*
D03*
D40*
X0154969Y0180315D02*
D03*
Y0176378D02*
D03*
X0150638Y0180276D02*
D03*
Y0176339D02*
D03*
X0146307Y0180276D02*
D03*
Y0176339D02*
D03*
X0179535Y0169685D02*
D03*
Y0173622D02*
D03*
X0176347Y0179842D02*
D03*
Y0175906D02*
D03*
X0148142Y0150169D02*
D03*
Y0154106D02*
D03*
D41*
X0139220Y0142441D02*
D03*
Y0138661D02*
D03*
X0134614Y0142402D02*
D03*
Y0138622D02*
D03*
X0160165Y0134961D02*
D03*
Y0138740D02*
D03*
X0168827Y0144882D02*
D03*
Y0141102D02*
D03*
X0182252Y0152087D02*
D03*
Y0155866D02*
D03*
D42*
X0155953Y0130276D02*
D03*
X0152173D02*
D03*
X0144024D02*
D03*
X0147803D02*
D03*
X0166189Y0174331D02*
D03*
X0169968D02*
D03*
X0134653Y0148622D02*
D03*
X0138433D02*
D03*
X0134693Y0176575D02*
D03*
X0138472D02*
D03*
D43*
X0166228Y0168858D02*
D03*
X0172134D02*
D03*
X0138146Y0187846D02*
D03*
X0144051D02*
D03*
X0134693Y0182008D02*
D03*
X0140598D02*
D03*
D44*
X0166189Y0182126D02*
D03*
Y0180157D02*
D03*
X0172095D02*
D03*
X0172095Y0182126D02*
D03*
D45*
X0166189Y0178189D02*
D03*
X0168157D02*
D03*
X0170126D02*
D03*
X0172095D02*
D03*
Y0184095D02*
D03*
X0170126D02*
D03*
X0168157D02*
D03*
D46*
X0166189D02*
D03*
D47*
X0154654Y0142441D02*
D03*
Y0134961D02*
D03*
X0144024D02*
D03*
Y0142441D02*
D03*
X0154654Y0138701D02*
D03*
X0166543Y0150236D02*
D03*
Y0157717D02*
D03*
X0177173D02*
D03*
Y0150236D02*
D03*
X0166543Y0153976D02*
D03*
D48*
X0134673Y0163181D02*
D03*
Y0165150D02*
D03*
Y0167118D02*
D03*
Y0169087D02*
D03*
Y0171055D02*
D03*
X0145106D02*
D03*
Y0169087D02*
D03*
Y0167118D02*
D03*
Y0165150D02*
D03*
Y0163181D02*
D03*
D49*
X0139890Y0167118D02*
D03*
D50*
X0127842Y0170276D02*
D03*
Y0163976D02*
D03*
D51*
X0142095Y0155315D02*
D03*
X0134614D02*
D03*
M02*
