G04*
G04 #@! TF.GenerationSoftware,Altium Limited,Altium Designer,19.1.5 (86)*
G04*
G04 Layer_Physical_Order=2*
G04 Layer_Color=16711680*
%FSAX25Y25*%
%MOIN*%
G70*
G01*
G75*
%ADD11C,0.00787*%
%ADD14C,0.01575*%
%ADD15C,0.01000*%
%ADD16C,0.01181*%
%ADD17C,0.00984*%
%ADD18C,0.05906*%
%ADD19C,0.01968*%
%ADD20R,0.01772X0.02756*%
%ADD21R,0.01968X0.02362*%
%ADD22R,0.02362X0.01968*%
%ADD23R,0.02520X0.02362*%
%ADD24R,0.02362X0.02520*%
%ADD25R,0.03150X0.03150*%
%ADD26R,0.01083X0.00984*%
%ADD27R,0.00984X0.01083*%
%ADD28R,0.00394X0.00394*%
%ADD29R,0.03740X0.01890*%
%ADD30R,0.01968X0.01181*%
%ADD31R,0.06890X0.12205*%
%ADD32R,0.06693X0.02756*%
%ADD33R,0.03543X0.05118*%
%ADD34C,0.01968*%
%ADD35C,0.02362*%
%ADD36C,0.02756*%
%ADD37C,0.00984*%
G36*
X0173546Y0196474D02*
X0176645Y0194500D01*
X0179179Y0192555D01*
X0179536Y0192201D01*
X0179159Y0191291D01*
X0179031Y0190315D01*
X0179047Y0190191D01*
X0179045Y0189892D01*
X0178997Y0189185D01*
X0178956Y0188902D01*
X0178903Y0188647D01*
X0178842Y0188430D01*
X0178774Y0188250D01*
X0178704Y0188108D01*
X0178636Y0188004D01*
X0176383Y0185751D01*
X0176311Y0185693D01*
X0176207Y0185623D01*
X0176102Y0185564D01*
X0175995Y0185514D01*
X0175883Y0185473D01*
X0175767Y0185441D01*
X0175644Y0185417D01*
X0175553Y0185407D01*
X0173374D01*
Y0185423D01*
X0172592D01*
X0172575Y0185427D01*
X0172557Y0185423D01*
X0171431D01*
Y0186378D01*
X0171331Y0186877D01*
X0171048Y0187300D01*
X0170314Y0188034D01*
X0170159Y0188202D01*
X0170052Y0188335D01*
X0170024Y0188374D01*
Y0190472D01*
X0166711D01*
X0166299Y0190685D01*
X0166299Y0190685D01*
X0166299Y0190685D01*
X0165102D01*
Y0188693D01*
X0165275Y0188924D01*
X0165229Y0188839D01*
X0165210Y0188743D01*
X0165216Y0188634D01*
X0165248Y0188513D01*
X0165306Y0188380D01*
X0165389Y0188235D01*
X0165499Y0188077D01*
X0165635Y0187908D01*
X0165983Y0187532D01*
X0165484Y0186639D01*
X0165272Y0186844D01*
X0164897Y0187164D01*
X0164734Y0187279D01*
X0164587Y0187365D01*
X0164456Y0187421D01*
X0164340Y0187447D01*
X0164242Y0187444D01*
X0164159Y0187410D01*
X0164092Y0187347D01*
X0164960Y0188504D01*
X0163528D01*
Y0190685D01*
X0162344D01*
Y0191394D01*
X0167471Y0196521D01*
X0168045Y0196284D01*
X0169021Y0196155D01*
X0169998Y0196284D01*
X0170908Y0196661D01*
X0171689Y0197260D01*
X0171788Y0197389D01*
X0173546Y0196474D01*
D02*
G37*
G36*
X0161533Y0189796D02*
X0161548Y0189606D01*
X0161562Y0189521D01*
X0161579Y0189444D01*
X0161600Y0189374D01*
X0161624Y0189311D01*
X0161652Y0189256D01*
X0161685Y0189208D01*
X0161721Y0189167D01*
X0160343D01*
X0160378Y0189208D01*
X0160410Y0189256D01*
X0160439Y0189311D01*
X0160464Y0189374D01*
X0160484Y0189444D01*
X0160501Y0189521D01*
X0160514Y0189606D01*
X0160524Y0189697D01*
X0160531Y0189903D01*
X0161531D01*
X0161533Y0189796D01*
D02*
G37*
G36*
X0182774Y0187362D02*
X0182349Y0187359D01*
X0181589Y0187308D01*
X0181252Y0187259D01*
X0180945Y0187196D01*
X0180667Y0187117D01*
X0180418Y0187023D01*
X0180198Y0186914D01*
X0180008Y0186790D01*
X0179846Y0186651D01*
X0179139Y0187358D01*
X0179278Y0187519D01*
X0179402Y0187710D01*
X0179511Y0187929D01*
X0179605Y0188178D01*
X0179684Y0188457D01*
X0179747Y0188764D01*
X0179796Y0189101D01*
X0179847Y0189861D01*
X0179850Y0190285D01*
X0182774Y0187362D01*
D02*
G37*
G36*
X0169155Y0188599D02*
X0169127Y0188511D01*
X0169127Y0188409D01*
X0169155Y0188291D01*
X0169211Y0188160D01*
X0169296Y0188013D01*
X0169410Y0187852D01*
X0169552Y0187676D01*
X0169920Y0187280D01*
X0169169Y0186639D01*
X0168969Y0186832D01*
X0168609Y0187138D01*
X0168449Y0187250D01*
X0168303Y0187334D01*
X0168171Y0187391D01*
X0168052Y0187421D01*
X0167947Y0187424D01*
X0167855Y0187399D01*
X0167777Y0187347D01*
X0169212Y0188672D01*
X0169155Y0188599D01*
D02*
G37*
G36*
X0185044Y0186690D02*
X0186988Y0184157D01*
X0188962Y0181058D01*
X0189920Y0179218D01*
X0189661Y0179018D01*
X0189061Y0178237D01*
X0188787Y0177575D01*
X0188730Y0177564D01*
X0188305Y0177279D01*
X0185089Y0174064D01*
X0184611Y0174209D01*
X0184590Y0174313D01*
X0184199Y0174899D01*
X0183613Y0175291D01*
X0182921Y0175428D01*
X0182230Y0175291D01*
X0182004Y0175140D01*
X0181504Y0175394D01*
Y0175394D01*
X0180722D01*
X0180704Y0175397D01*
X0180687Y0175394D01*
X0179683D01*
X0179607Y0175447D01*
X0179349Y0175665D01*
X0178857Y0176157D01*
X0178800Y0176219D01*
X0178535Y0176540D01*
X0178450Y0176661D01*
X0178384Y0176767D01*
X0178342Y0176848D01*
X0178322Y0176897D01*
X0178319Y0176907D01*
X0178315Y0176952D01*
Y0177571D01*
X0178315Y0177677D01*
X0178315D01*
Y0178071D01*
X0178315D01*
Y0181614D01*
X0177659D01*
Y0183315D01*
X0180492Y0186147D01*
X0180597Y0186216D01*
X0180738Y0186286D01*
X0180918Y0186354D01*
X0181136Y0186415D01*
X0181391Y0186468D01*
X0181673Y0186509D01*
X0182380Y0186557D01*
X0182680Y0186559D01*
X0182803Y0186542D01*
X0183780Y0186671D01*
X0184689Y0187048D01*
X0185044Y0186690D01*
D02*
G37*
G36*
X0176936Y0183741D02*
X0176583Y0184095D01*
X0175376Y0184595D01*
X0175573Y0184601D01*
X0175764Y0184623D01*
X0175949Y0184658D01*
X0176129Y0184708D01*
X0176302Y0184771D01*
X0176470Y0184849D01*
X0176632Y0184941D01*
X0176788Y0185047D01*
X0176938Y0185167D01*
X0177083Y0185302D01*
X0176936Y0183741D01*
D02*
G37*
G36*
X0136583Y0187738D02*
X0138146Y0186665D01*
X0137716Y0186642D01*
X0137332Y0186571D01*
X0136993Y0186453D01*
X0136699Y0186287D01*
X0136450Y0186075D01*
X0136247Y0185815D01*
X0136088Y0185508D01*
X0135975Y0185153D01*
X0135929Y0184880D01*
X0135978Y0184161D01*
X0136018Y0183949D01*
X0136067Y0183783D01*
X0136122Y0183665D01*
X0136185Y0183594D01*
X0136256Y0183571D01*
X0133130D01*
X0133205Y0183594D01*
X0133271Y0183665D01*
X0133330Y0183783D01*
X0133381Y0183949D01*
X0133424Y0184161D01*
X0133460Y0184421D01*
X0133488Y0184820D01*
X0133431Y0185153D01*
X0133317Y0185508D01*
X0133157Y0185815D01*
X0132952Y0186075D01*
X0132701Y0186287D01*
X0132404Y0186453D01*
X0132062Y0186571D01*
X0131674Y0186642D01*
X0131240Y0186665D01*
X0134704Y0189028D01*
X0135061Y0189031D01*
X0135906Y0189089D01*
X0136113Y0189123D01*
X0136282Y0189165D01*
X0136414Y0189215D01*
X0136508Y0189272D01*
X0136564Y0189337D01*
X0136583Y0189409D01*
Y0187738D01*
D02*
G37*
G36*
X0172585Y0184618D02*
X0172615Y0184613D01*
X0172665Y0184609D01*
X0173065Y0184597D01*
X0173575Y0184595D01*
Y0183595D01*
X0172575Y0183565D01*
Y0184624D01*
X0172585Y0184618D01*
D02*
G37*
G36*
X0166681Y0183908D02*
X0166337Y0183563D01*
X0165697Y0183563D01*
Y0184646D01*
X0166681D01*
X0166681Y0183908D01*
D02*
G37*
G36*
X0149221Y0201421D02*
X0149821Y0200640D01*
X0150602Y0200040D01*
X0151512Y0199663D01*
X0152488Y0199535D01*
X0153465Y0199663D01*
X0154038Y0199901D01*
X0157435Y0196503D01*
Y0187008D01*
X0157535Y0186505D01*
X0157820Y0186080D01*
X0161589Y0182311D01*
X0161428Y0181764D01*
X0160935Y0181435D01*
X0160544Y0180849D01*
X0160406Y0180157D01*
X0160544Y0179466D01*
X0160935Y0178880D01*
X0161521Y0178489D01*
X0162213Y0178351D01*
X0162904Y0178489D01*
X0163429Y0178840D01*
X0163448Y0178843D01*
X0163477Y0178845D01*
X0164414D01*
X0164815Y0178345D01*
X0164784Y0178189D01*
Y0176503D01*
X0164778Y0176434D01*
X0164769Y0176378D01*
X0164220D01*
Y0175596D01*
X0164217Y0175578D01*
X0164220Y0175561D01*
Y0173100D01*
X0164217Y0173083D01*
X0164220Y0173066D01*
Y0172283D01*
X0164596D01*
X0164604Y0172227D01*
X0164623Y0171948D01*
Y0171643D01*
X0164613Y0171529D01*
X0164585Y0171361D01*
X0164554Y0171242D01*
X0164545Y0171221D01*
X0163866D01*
Y0170992D01*
X0163366Y0170600D01*
X0163039Y0170665D01*
X0162348Y0170527D01*
X0161762Y0170135D01*
X0161371Y0169550D01*
X0161348Y0169438D01*
X0157573Y0165663D01*
X0157225Y0165142D01*
X0157103Y0164528D01*
X0157103Y0164527D01*
Y0159567D01*
X0157035D01*
Y0158889D01*
X0156535Y0158840D01*
X0156519Y0158921D01*
X0156128Y0159507D01*
X0155542Y0159899D01*
X0154850Y0160036D01*
X0154335Y0159934D01*
X0153835Y0160232D01*
Y0160232D01*
X0150398D01*
X0150291Y0160232D01*
X0149898D01*
X0149439Y0160586D01*
Y0161994D01*
X0149744Y0162145D01*
X0149923Y0162169D01*
X0150227Y0161715D01*
X0150813Y0161323D01*
X0151504Y0161186D01*
X0152195Y0161323D01*
X0152781Y0161715D01*
X0153173Y0162301D01*
X0153310Y0162992D01*
X0153264Y0163227D01*
X0153674Y0163727D01*
X0153748D01*
X0154250Y0163827D01*
X0154676Y0164111D01*
X0155503Y0164938D01*
X0155788Y0165364D01*
X0155887Y0165866D01*
X0156346D01*
X0156346Y0169572D01*
X0156559Y0169984D01*
X0156559Y0170215D01*
Y0171378D01*
X0155597D01*
X0155576Y0171345D01*
X0155545Y0171260D01*
X0155535Y0171165D01*
Y0171378D01*
X0154575D01*
Y0172953D01*
X0155535D01*
Y0173165D01*
X0155545Y0173070D01*
X0155576Y0172985D01*
X0155597Y0172953D01*
X0156559D01*
Y0174312D01*
X0156937Y0174606D01*
X0156937Y0174641D01*
Y0178043D01*
X0156937Y0178150D01*
Y0178543D01*
X0156937Y0178650D01*
Y0182087D01*
X0156937D01*
X0156718Y0182587D01*
X0156775Y0182874D01*
X0156637Y0183565D01*
X0156246Y0184151D01*
X0155660Y0184543D01*
X0154969Y0184680D01*
X0154277Y0184543D01*
X0153691Y0184151D01*
X0153300Y0183565D01*
X0153162Y0182874D01*
X0153219Y0182587D01*
X0153128Y0182379D01*
X0152775Y0182260D01*
X0152572Y0182260D01*
X0151425D01*
Y0181310D01*
X0151458Y0181288D01*
X0151543Y0181258D01*
X0151638Y0181248D01*
X0151425D01*
Y0180276D01*
X0149850D01*
Y0181248D01*
X0149638D01*
X0149733Y0181258D01*
X0149818Y0181288D01*
X0149850Y0181310D01*
Y0182260D01*
X0148457D01*
X0148280Y0182169D01*
X0147982Y0182571D01*
X0148035Y0182835D01*
X0147897Y0183526D01*
X0147506Y0184112D01*
X0146920Y0184503D01*
X0146228Y0184641D01*
X0145537Y0184503D01*
X0144951Y0184112D01*
X0144560Y0183526D01*
X0144422Y0182835D01*
X0144479Y0182547D01*
X0144339Y0182047D01*
X0144339D01*
X0144339Y0182047D01*
Y0178610D01*
X0144339Y0178504D01*
Y0178110D01*
X0144339Y0178004D01*
Y0174719D01*
X0144337Y0174566D01*
X0143982Y0174221D01*
X0141114D01*
X0140654Y0174315D01*
Y0175787D01*
X0138472D01*
Y0176575D01*
X0137685D01*
Y0178835D01*
X0137071D01*
Y0180591D01*
X0137055Y0180668D01*
Y0183553D01*
X0137058Y0183571D01*
X0137055Y0183588D01*
Y0183615D01*
X0137057Y0183626D01*
X0137055Y0183632D01*
Y0184370D01*
X0136768D01*
X0136737Y0184840D01*
X0136757Y0184964D01*
X0136833Y0185200D01*
X0136925Y0185380D01*
X0137007Y0185484D01*
X0140508D01*
Y0190209D01*
X0136600D01*
X0136583Y0190212D01*
X0136566Y0190209D01*
X0135784D01*
Y0189885D01*
X0135319Y0189854D01*
X0131240D01*
X0130472Y0189701D01*
X0129821Y0189266D01*
X0119002Y0178447D01*
X0116755D01*
X0116691Y0178453D01*
X0116479Y0178488D01*
X0116283Y0178535D01*
X0116102Y0178595D01*
X0115934Y0178666D01*
X0115778Y0178748D01*
X0115632Y0178842D01*
X0115496Y0178949D01*
X0115417Y0179023D01*
X0115352Y0179107D01*
X0115100Y0179301D01*
X0116015Y0181058D01*
X0117989Y0184157D01*
X0119933Y0186690D01*
X0120287Y0187048D01*
X0121197Y0186671D01*
X0122173Y0186542D01*
X0123150Y0186671D01*
X0124059Y0187048D01*
X0124841Y0187647D01*
X0125440Y0188429D01*
X0125817Y0189339D01*
X0125946Y0190315D01*
X0125817Y0191291D01*
X0125440Y0192201D01*
X0125798Y0192555D01*
X0128331Y0194500D01*
X0131430Y0196474D01*
X0134689Y0198170D01*
X0138084Y0199576D01*
X0141588Y0200681D01*
X0145175Y0201476D01*
X0148818Y0201956D01*
X0148996Y0201964D01*
X0149221Y0201421D01*
D02*
G37*
G36*
X0155472Y0182171D02*
X0155657D01*
X0155622Y0182130D01*
X0155589Y0182082D01*
X0155561Y0182027D01*
X0155536Y0181965D01*
X0155516Y0181895D01*
X0155503Y0181838D01*
X0155514Y0181777D01*
X0155549Y0181647D01*
X0155594Y0181537D01*
X0155649Y0181447D01*
X0155713Y0181377D01*
X0155789Y0181327D01*
X0155874Y0181297D01*
X0155968Y0181287D01*
X0153969D01*
X0154063Y0181297D01*
X0154148Y0181327D01*
X0154224Y0181377D01*
X0154288Y0181447D01*
X0154343Y0181537D01*
X0154388Y0181647D01*
X0154423Y0181777D01*
X0154434Y0181838D01*
X0154421Y0181895D01*
X0154401Y0181965D01*
X0154376Y0182027D01*
X0154348Y0182082D01*
X0154315Y0182130D01*
X0154279Y0182171D01*
X0154465D01*
X0154469Y0182287D01*
X0155468D01*
X0155472Y0182171D01*
D02*
G37*
G36*
X0146809Y0182176D02*
X0146971Y0182189D01*
X0146940Y0182148D01*
X0146912Y0182099D01*
X0146888Y0182043D01*
X0146866Y0181980D01*
X0146848Y0181909D01*
X0146835Y0181840D01*
X0146852Y0181738D01*
X0146887Y0181608D01*
X0146932Y0181498D01*
X0146987Y0181408D01*
X0147052Y0181338D01*
X0147127Y0181288D01*
X0147212Y0181258D01*
X0147307Y0181248D01*
X0145307D01*
X0145402Y0181258D01*
X0145487Y0181288D01*
X0145562Y0181338D01*
X0145627Y0181408D01*
X0145682Y0181498D01*
X0145727Y0181608D01*
X0145762Y0181738D01*
X0145766Y0181764D01*
X0145755Y0181810D01*
X0145732Y0181879D01*
X0145704Y0181940D01*
X0145673Y0181994D01*
X0145638Y0182040D01*
X0145598Y0182079D01*
X0145803Y0182095D01*
X0145807Y0182248D01*
X0146807D01*
X0146809Y0182176D01*
D02*
G37*
G36*
X0176851Y0181625D02*
X0176866Y0181455D01*
X0176892Y0181305D01*
X0176926Y0181175D01*
X0176971Y0181065D01*
X0177026Y0180975D01*
X0177092Y0180905D01*
X0177166Y0180855D01*
X0177251Y0180825D01*
X0177347Y0180815D01*
X0175347D01*
X0175442Y0180825D01*
X0175526Y0180855D01*
X0175601Y0180905D01*
X0175666Y0180975D01*
X0175722Y0181065D01*
X0175767Y0181175D01*
X0175801Y0181305D01*
X0175826Y0181455D01*
X0175841Y0181625D01*
X0175847Y0181815D01*
X0176847D01*
X0176851Y0181625D01*
D02*
G37*
G36*
X0162956Y0180810D02*
X0163004Y0180778D01*
X0163059Y0180750D01*
X0163122Y0180726D01*
X0163192Y0180705D01*
X0163269Y0180688D01*
X0163354Y0180675D01*
X0163445Y0180665D01*
X0163651Y0180657D01*
Y0179657D01*
X0163545Y0179656D01*
X0163354Y0179640D01*
X0163269Y0179627D01*
X0163192Y0179610D01*
X0163122Y0179589D01*
X0163059Y0179565D01*
X0163004Y0179536D01*
X0162956Y0179504D01*
X0162916Y0179469D01*
Y0180846D01*
X0162956Y0180810D01*
D02*
G37*
G36*
X0136268Y0178189D02*
X0135874Y0177795D01*
X0133534D01*
X0133524Y0177805D01*
Y0175354D01*
X0135795D01*
X0135795Y0174247D01*
X0135638Y0174050D01*
Y0171614D01*
X0134024Y0171614D01*
X0133689Y0171614D01*
X0133512Y0171791D01*
Y0175354D01*
X0133519D01*
X0133508Y0175414D01*
X0133461Y0175493D01*
X0133382Y0175562D01*
X0133272Y0175622D01*
X0133130Y0175672D01*
X0132957Y0175714D01*
X0132752Y0175746D01*
X0132516Y0175769D01*
X0131949Y0175787D01*
Y0177362D01*
X0132248Y0177367D01*
X0132752Y0177404D01*
X0132957Y0177436D01*
X0133130Y0177477D01*
X0133272Y0177528D01*
X0133382Y0177588D01*
X0133461Y0177657D01*
X0133508Y0177735D01*
X0133521Y0177808D01*
X0133118Y0178211D01*
Y0180591D01*
X0136268D01*
Y0178189D01*
D02*
G37*
G36*
X0153799Y0175406D02*
X0153789Y0175495D01*
X0153759Y0175576D01*
X0153709Y0175646D01*
X0153639Y0175708D01*
X0153549Y0175760D01*
X0153439Y0175802D01*
X0153309Y0175835D01*
X0153159Y0175859D01*
X0152989Y0175873D01*
X0152803Y0175878D01*
X0152615Y0175873D01*
X0152444Y0175858D01*
X0152292Y0175833D01*
X0152161Y0175798D01*
X0152050Y0175753D01*
X0151958Y0175698D01*
X0151887Y0175633D01*
X0151836Y0175558D01*
X0151806Y0175473D01*
X0151795Y0175378D01*
X0151807Y0177311D01*
X0151817Y0177229D01*
X0151847Y0177155D01*
X0151897Y0177090D01*
X0151967Y0177034D01*
X0152057Y0176986D01*
X0152167Y0176947D01*
X0152297Y0176917D01*
X0152447Y0176895D01*
X0152617Y0176882D01*
X0152803Y0176878D01*
X0152989Y0176883D01*
X0153159Y0176897D01*
X0153309Y0176920D01*
X0153439Y0176953D01*
X0153549Y0176996D01*
X0153639Y0177048D01*
X0153709Y0177109D01*
X0153759Y0177180D01*
X0153789Y0177260D01*
X0153799Y0177350D01*
Y0175406D01*
D02*
G37*
G36*
X0149469Y0175366D02*
X0149459Y0175456D01*
X0149429Y0175536D01*
X0149379Y0175607D01*
X0149309Y0175669D01*
X0149219Y0175721D01*
X0149109Y0175763D01*
X0148979Y0175796D01*
X0148829Y0175820D01*
X0148659Y0175834D01*
X0148472Y0175838D01*
X0148286Y0175834D01*
X0148116Y0175820D01*
X0147966Y0175796D01*
X0147836Y0175763D01*
X0147726Y0175721D01*
X0147636Y0175669D01*
X0147566Y0175607D01*
X0147516Y0175536D01*
X0147486Y0175456D01*
X0147476Y0175366D01*
Y0177311D01*
X0147486Y0177221D01*
X0147516Y0177141D01*
X0147566Y0177070D01*
X0147636Y0177009D01*
X0147726Y0176957D01*
X0147836Y0176914D01*
X0147966Y0176881D01*
X0148116Y0176857D01*
X0148286Y0176843D01*
X0148472Y0176839D01*
X0148659Y0176843D01*
X0148829Y0176857D01*
X0148979Y0176881D01*
X0149109Y0176914D01*
X0149219Y0176957D01*
X0149309Y0177009D01*
X0149379Y0177070D01*
X0149429Y0177141D01*
X0149459Y0177221D01*
X0149469Y0177311D01*
Y0175366D01*
D02*
G37*
G36*
X0166785Y0176535D02*
X0166803Y0176334D01*
X0166832Y0176157D01*
X0166872Y0176004D01*
X0166924Y0175874D01*
X0166988Y0175768D01*
X0167063Y0175685D01*
X0167150Y0175626D01*
X0167248Y0175590D01*
X0167358Y0175578D01*
X0165020D01*
X0165130Y0175590D01*
X0165228Y0175626D01*
X0165315Y0175685D01*
X0165390Y0175768D01*
X0165454Y0175874D01*
X0165506Y0176004D01*
X0165546Y0176157D01*
X0165575Y0176334D01*
X0165593Y0176535D01*
X0165598Y0176760D01*
X0166779D01*
X0166785Y0176535D01*
D02*
G37*
G36*
X0170392Y0176128D02*
X0170419Y0175816D01*
X0170435Y0175740D01*
X0170455Y0175678D01*
X0170479Y0175629D01*
X0170506Y0175594D01*
X0170537Y0175574D01*
X0170571Y0175567D01*
X0169209D01*
X0169243Y0175574D01*
X0169274Y0175594D01*
X0169301Y0175629D01*
X0169325Y0175678D01*
X0169344Y0175740D01*
X0169361Y0175816D01*
X0169373Y0175906D01*
X0169383Y0176010D01*
X0169390Y0176260D01*
X0170390D01*
X0170392Y0176128D01*
D02*
G37*
G36*
X0114973Y0178339D02*
X0115166Y0178188D01*
X0115371Y0178055D01*
X0115589Y0177940D01*
X0115820Y0177842D01*
X0116063Y0177763D01*
X0116319Y0177701D01*
X0116588Y0177656D01*
X0116869Y0177630D01*
X0117163Y0177621D01*
Y0175259D01*
X0116869Y0175250D01*
X0116588Y0175223D01*
X0116319Y0175179D01*
X0116063Y0175117D01*
X0115820Y0175037D01*
X0115589Y0174940D01*
X0115371Y0174825D01*
X0115166Y0174692D01*
X0114973Y0174541D01*
X0114793Y0174373D01*
Y0178507D01*
X0114973Y0178339D01*
D02*
G37*
G36*
X0147212Y0175368D02*
X0147127Y0175338D01*
X0147052Y0175287D01*
X0146987Y0175216D01*
X0146932Y0175125D01*
X0146887Y0175014D01*
X0146852Y0174882D01*
X0146827Y0174731D01*
X0146812Y0174559D01*
X0146807Y0174366D01*
X0145807D01*
X0145802Y0174559D01*
X0145787Y0174731D01*
X0145762Y0174882D01*
X0145727Y0175014D01*
X0145682Y0175125D01*
X0145627Y0175216D01*
X0145562Y0175287D01*
X0145487Y0175338D01*
X0145402Y0175368D01*
X0145307Y0175378D01*
X0147307D01*
X0147212Y0175368D01*
D02*
G37*
G36*
X0177526Y0176767D02*
X0177558Y0176645D01*
X0177611Y0176513D01*
X0177685Y0176370D01*
X0177781Y0176216D01*
X0177897Y0176052D01*
X0178194Y0175691D01*
X0178375Y0175495D01*
X0178569Y0175296D01*
X0178761Y0175111D01*
X0179118Y0174809D01*
X0179278Y0174698D01*
X0179426Y0174613D01*
X0179561Y0174554D01*
X0179684Y0174522D01*
X0179794Y0174515D01*
X0179892Y0174536D01*
X0179977Y0174582D01*
X0178378Y0173377D01*
X0178443Y0173445D01*
X0178476Y0173529D01*
X0178480Y0173630D01*
X0178454Y0173747D01*
X0178397Y0173880D01*
X0178310Y0174030D01*
X0178192Y0174195D01*
X0178045Y0174378D01*
X0177676Y0174773D01*
X0177516Y0174933D01*
Y0176878D01*
X0177526Y0176767D01*
D02*
G37*
G36*
X0139569Y0175311D02*
X0139504Y0175264D01*
X0139447Y0175185D01*
X0139397Y0175075D01*
X0139355Y0174933D01*
X0139321Y0174760D01*
X0139294Y0174555D01*
X0139281Y0174333D01*
X0139291Y0174212D01*
X0139331Y0173974D01*
X0139386Y0173768D01*
X0139457Y0173593D01*
X0139543Y0173450D01*
X0139646Y0173339D01*
X0139764Y0173260D01*
X0139898Y0173212D01*
X0140047Y0173196D01*
X0136898D01*
X0137047Y0173212D01*
X0137181Y0173260D01*
X0137299Y0173339D01*
X0137402Y0173450D01*
X0137488Y0173593D01*
X0137559Y0173768D01*
X0137614Y0173974D01*
X0137654Y0174212D01*
X0137661Y0174299D01*
X0137624Y0174760D01*
X0137590Y0174933D01*
X0137548Y0175075D01*
X0137498Y0175185D01*
X0137441Y0175264D01*
X0137376Y0175311D01*
X0137303Y0175327D01*
X0139641D01*
X0139569Y0175311D01*
D02*
G37*
G36*
X0180714Y0174505D02*
X0180745Y0174424D01*
X0180795Y0174353D01*
X0180865Y0174292D01*
X0180955Y0174240D01*
X0181064Y0174198D01*
X0181194Y0174164D01*
X0181344Y0174141D01*
X0181515Y0174127D01*
X0181599Y0174125D01*
X0181780Y0174139D01*
X0181865Y0174152D01*
X0181942Y0174169D01*
X0182012Y0174190D01*
X0182074Y0174215D01*
X0182130Y0174243D01*
X0182178Y0174275D01*
X0182218Y0174311D01*
Y0172933D01*
X0182178Y0172969D01*
X0182130Y0173001D01*
X0182074Y0173029D01*
X0182012Y0173054D01*
X0181942Y0173075D01*
X0181865Y0173092D01*
X0181780Y0173105D01*
X0181688Y0173115D01*
X0181572Y0173119D01*
X0181515Y0173117D01*
X0181344Y0173103D01*
X0181194Y0173080D01*
X0181064Y0173047D01*
X0180955Y0173004D01*
X0180865Y0172952D01*
X0180795Y0172891D01*
X0180745Y0172820D01*
X0180714Y0172740D01*
X0180704Y0172650D01*
Y0174594D01*
X0180714Y0174505D01*
D02*
G37*
G36*
X0132380Y0185504D02*
X0132480Y0185377D01*
X0132574Y0185197D01*
X0132650Y0184962D01*
X0132667Y0184860D01*
X0132402Y0184370D01*
X0132331D01*
Y0183641D01*
X0132330Y0183640D01*
X0132331Y0183635D01*
Y0183588D01*
X0132327Y0183571D01*
X0132331Y0183553D01*
Y0180668D01*
X0132315Y0180591D01*
Y0178211D01*
X0132315Y0178211D01*
X0132290Y0178180D01*
X0131286D01*
X0131250Y0178204D01*
X0130559Y0178342D01*
X0129868Y0178204D01*
X0129282Y0177813D01*
X0128890Y0177227D01*
X0128753Y0176535D01*
X0128890Y0175844D01*
X0129282Y0175258D01*
X0129868Y0174867D01*
X0130559Y0174729D01*
X0131250Y0174867D01*
X0131404Y0174969D01*
X0132411D01*
X0132464Y0174967D01*
X0132651Y0174949D01*
X0132709Y0174940D01*
Y0172195D01*
X0132215Y0171946D01*
X0131989Y0172108D01*
X0131976Y0172125D01*
Y0172441D01*
X0131251D01*
X0131173Y0172456D01*
X0131173Y0172456D01*
X0131172Y0172456D01*
X0131095Y0172441D01*
X0123709D01*
Y0168110D01*
X0130825D01*
X0131007Y0167928D01*
X0131268Y0167754D01*
X0131575Y0167693D01*
X0132689D01*
Y0166543D01*
X0131559Y0166543D01*
X0131252Y0166482D01*
X0130991Y0166308D01*
X0130991Y0166308D01*
X0130825Y0166142D01*
X0123709D01*
Y0161811D01*
X0131096D01*
X0131173Y0161796D01*
X0131390D01*
X0131390Y0161796D01*
X0131467Y0161811D01*
X0131976D01*
Y0162050D01*
X0132347Y0162420D01*
X0132847Y0162213D01*
Y0158661D01*
X0132055D01*
Y0151969D01*
X0132808D01*
Y0150669D01*
X0132685D01*
Y0150428D01*
X0131346D01*
X0130655Y0150291D01*
X0130069Y0149899D01*
X0129307Y0149137D01*
X0128807Y0149276D01*
Y0149276D01*
X0125538D01*
X0125461Y0149276D01*
X0125038Y0149462D01*
Y0154331D01*
X0125495Y0154787D01*
X0128807D01*
Y0159118D01*
X0125461D01*
Y0158759D01*
X0125106D01*
X0124414Y0158622D01*
X0123828Y0158230D01*
X0121954Y0156356D01*
X0121563Y0155770D01*
X0121425Y0155079D01*
Y0144534D01*
X0121563Y0143842D01*
X0121954Y0143256D01*
X0124086Y0141124D01*
X0124672Y0140733D01*
X0125364Y0140595D01*
X0132354D01*
Y0139409D01*
X0133316D01*
X0133338Y0139442D01*
X0133368Y0139527D01*
X0133378Y0139622D01*
Y0139409D01*
X0134614D01*
Y0138622D01*
X0135402D01*
Y0137453D01*
X0135614D01*
X0135519Y0137443D01*
X0135434Y0137413D01*
X0135402Y0137391D01*
Y0136441D01*
X0136874D01*
Y0136441D01*
X0136961Y0136480D01*
X0138433D01*
Y0138661D01*
X0139220D01*
Y0139449D01*
X0140456D01*
Y0139661D01*
X0140466Y0139566D01*
X0140497Y0139481D01*
X0140519Y0139449D01*
X0141480D01*
Y0140709D01*
X0142148D01*
X0142166Y0140705D01*
X0142183Y0140709D01*
X0146681D01*
Y0144173D01*
X0142183D01*
X0142166Y0144177D01*
X0142148Y0144173D01*
X0141366D01*
X0141268Y0144409D01*
X0140486D01*
X0140468Y0144413D01*
X0140451Y0144409D01*
X0137990D01*
X0137973Y0144413D01*
X0137955Y0144409D01*
X0137173D01*
Y0144409D01*
X0136917Y0144219D01*
X0136661Y0144370D01*
Y0144370D01*
X0135879D01*
X0135862Y0144374D01*
X0135845Y0144370D01*
X0132567D01*
Y0144208D01*
X0126291D01*
X0126110Y0144445D01*
X0126357Y0144945D01*
X0128807D01*
Y0145304D01*
X0129835D01*
X0130526Y0145441D01*
X0131112Y0145833D01*
X0132095Y0146816D01*
X0132685D01*
Y0146575D01*
X0136252D01*
Y0146362D01*
X0137646D01*
Y0148622D01*
Y0150882D01*
X0136421D01*
Y0151969D01*
X0137173D01*
Y0158661D01*
X0136460D01*
Y0160016D01*
X0139102D01*
Y0167118D01*
X0139158D01*
X0138453Y0167738D01*
X0138416Y0167750D01*
X0139258Y0168592D01*
X0139270Y0168554D01*
X0139301Y0168501D01*
X0139351Y0168430D01*
X0139420Y0168343D01*
X0139745Y0167982D01*
X0140243Y0167472D01*
X0139890Y0167118D01*
X0140677D01*
Y0161039D01*
X0143323Y0161028D01*
X0143239Y0161012D01*
X0143164Y0160965D01*
X0143098Y0160886D01*
X0143041Y0160776D01*
X0142992Y0160634D01*
X0142952Y0160461D01*
X0142922Y0160256D01*
X0142900Y0160020D01*
X0142899Y0160016D01*
X0144335D01*
Y0161803D01*
X0146032D01*
X0146043Y0161801D01*
X0146061Y0161803D01*
X0146061D01*
X0146079Y0161800D01*
X0146096Y0161803D01*
X0146569D01*
X0146813Y0161559D01*
Y0160232D01*
X0146354D01*
Y0159450D01*
X0146351Y0159433D01*
X0146354Y0159416D01*
Y0157112D01*
X0146351Y0157095D01*
X0146354Y0157077D01*
Y0156295D01*
X0146354Y0156295D01*
X0146173Y0155878D01*
X0146173D01*
X0146173Y0155870D01*
X0146173Y0152566D01*
X0145961Y0152154D01*
X0145961Y0151923D01*
Y0150957D01*
X0146922D01*
X0146933Y0150971D01*
X0146963Y0151052D01*
X0146973Y0151142D01*
Y0150957D01*
X0150323D01*
Y0152154D01*
X0150110Y0152566D01*
X0150110Y0153310D01*
X0150610Y0153462D01*
X0150778Y0153211D01*
X0151364Y0152819D01*
X0152055Y0152682D01*
X0152746Y0152819D01*
X0152841Y0152883D01*
X0157112D01*
X0157300Y0152862D01*
X0157529Y0152818D01*
X0157748Y0152758D01*
X0157960Y0152680D01*
X0158164Y0152585D01*
X0158362Y0152473D01*
X0158555Y0152342D01*
X0158702Y0152224D01*
X0161825Y0149101D01*
X0161825Y0149101D01*
X0162346Y0148753D01*
X0162961Y0148631D01*
X0163850D01*
X0163886Y0148629D01*
Y0148504D01*
X0164668D01*
X0164685Y0148501D01*
X0164936Y0148104D01*
X0164938Y0148081D01*
Y0147165D01*
X0164938Y0147165D01*
X0165060Y0146551D01*
X0165408Y0146030D01*
X0166178Y0145259D01*
X0166446Y0144972D01*
X0166637Y0144735D01*
X0166779Y0144531D01*
Y0143283D01*
X0166567D01*
Y0141890D01*
X0167530D01*
X0167551Y0141920D01*
X0167581Y0142004D01*
X0167591Y0142099D01*
Y0141890D01*
X0170063D01*
Y0142102D01*
X0170073Y0142007D01*
X0170103Y0141922D01*
X0170125Y0141890D01*
X0171087D01*
Y0142619D01*
X0171465Y0142913D01*
X0172247D01*
X0172264Y0142910D01*
X0172281Y0142913D01*
X0174902D01*
X0175008Y0142913D01*
X0175402D01*
X0175508Y0142913D01*
X0178945D01*
Y0146014D01*
X0178948Y0146028D01*
X0178946Y0146039D01*
X0178948Y0146051D01*
X0178945Y0146068D01*
Y0146850D01*
X0178797D01*
X0178779Y0147137D01*
Y0148081D01*
X0178816Y0148159D01*
X0179031Y0148501D01*
X0179049Y0148504D01*
X0179831D01*
Y0148621D01*
X0179972Y0148631D01*
X0180402D01*
X0180402Y0148631D01*
X0181016Y0148753D01*
X0181537Y0149101D01*
X0182212Y0149776D01*
X0182561Y0150091D01*
X0182596Y0150118D01*
X0184299D01*
Y0153685D01*
X0184512D01*
Y0155079D01*
X0183550D01*
X0183528Y0155046D01*
X0183498Y0154961D01*
X0183488Y0154866D01*
Y0155079D01*
X0182252D01*
Y0155866D01*
X0181465D01*
Y0158047D01*
X0180043D01*
Y0159661D01*
X0177961D01*
Y0158700D01*
X0177993Y0158678D01*
X0178078Y0158648D01*
X0178173Y0158637D01*
X0177961D01*
Y0157717D01*
Y0157139D01*
X0179019Y0158198D01*
X0178964Y0158121D01*
X0178937Y0158030D01*
X0178938Y0157925D01*
X0178967Y0157805D01*
X0179025Y0157670D01*
X0179111Y0157522D01*
X0179226Y0157359D01*
X0179368Y0157182D01*
X0179738Y0156784D01*
X0179031Y0156077D01*
X0178825Y0156276D01*
X0178456Y0156589D01*
X0178293Y0156704D01*
X0178144Y0156790D01*
X0178010Y0156847D01*
X0177961Y0156860D01*
Y0155772D01*
X0179992D01*
Y0153685D01*
X0180205D01*
Y0152380D01*
X0180150Y0152319D01*
X0179831Y0151969D01*
Y0151969D01*
X0179831Y0151969D01*
X0179049D01*
X0179031Y0151972D01*
X0179014Y0151969D01*
X0178990D01*
X0178977Y0151970D01*
X0178971Y0151969D01*
X0174516D01*
Y0148504D01*
X0175491D01*
X0175497Y0148488D01*
X0175529Y0148368D01*
X0175557Y0148199D01*
X0175568Y0148081D01*
Y0147350D01*
X0175402Y0146850D01*
X0175008D01*
X0174902Y0146850D01*
X0172281D01*
X0172264Y0146854D01*
X0172247Y0146850D01*
X0171465D01*
Y0146850D01*
X0170996Y0146767D01*
X0170874Y0146850D01*
Y0146850D01*
X0170092D01*
X0170075Y0146854D01*
X0170057Y0146850D01*
X0169270D01*
X0169240Y0146868D01*
X0169044Y0147004D01*
X0168593Y0147387D01*
X0168149Y0147830D01*
Y0148081D01*
X0168159Y0148199D01*
X0168187Y0148368D01*
X0168219Y0148488D01*
X0168226Y0148504D01*
X0169201D01*
Y0151620D01*
X0169413Y0152032D01*
X0169413Y0152380D01*
Y0153189D01*
X0168437D01*
X0168411Y0153126D01*
X0168401Y0153043D01*
Y0153189D01*
X0166543D01*
Y0154764D01*
X0168401D01*
Y0154909D01*
X0168411Y0154827D01*
X0168437Y0154764D01*
X0169413D01*
Y0155572D01*
X0169413Y0155921D01*
X0169201Y0156333D01*
Y0158015D01*
X0169245Y0158077D01*
X0169682Y0158585D01*
X0170395Y0159298D01*
X0170395Y0159298D01*
X0170743Y0159819D01*
X0170865Y0160433D01*
X0171031Y0160591D01*
X0171465D01*
X0171465Y0160591D01*
X0172247D01*
X0172264Y0160587D01*
X0172281Y0160591D01*
X0174777Y0160591D01*
X0175189Y0160378D01*
X0175420Y0160378D01*
X0176386D01*
Y0161339D01*
X0176371Y0161350D01*
X0176291Y0161380D01*
X0176201Y0161390D01*
X0176386D01*
Y0162559D01*
Y0163728D01*
X0176201D01*
X0176291Y0163738D01*
X0176371Y0163768D01*
X0176386Y0163779D01*
Y0164740D01*
X0175189D01*
X0174777Y0164528D01*
X0172281Y0164527D01*
X0172264Y0164531D01*
X0172247Y0164527D01*
X0171465D01*
Y0164528D01*
X0171031Y0164528D01*
X0171031Y0164527D01*
X0170249D01*
X0170232Y0164531D01*
X0170215Y0164527D01*
X0167595D01*
X0167488Y0164528D01*
X0167095D01*
X0166988Y0164527D01*
X0163551D01*
Y0163989D01*
X0163495Y0163984D01*
X0163330Y0163980D01*
X0163187Y0163947D01*
X0163043Y0163919D01*
X0163034Y0163913D01*
X0163024Y0163910D01*
X0162905Y0163826D01*
X0162783Y0163745D01*
X0162777Y0163736D01*
X0162768Y0163730D01*
X0162690Y0163606D01*
X0162609Y0163484D01*
X0162607Y0163474D01*
X0162601Y0163465D01*
X0162576Y0163321D01*
X0162548Y0163177D01*
Y0162177D01*
X0162576Y0162034D01*
X0162595Y0161924D01*
X0162178Y0161506D01*
X0162055Y0161531D01*
X0161364Y0161393D01*
X0160814Y0161026D01*
X0160628Y0161068D01*
X0160314Y0161208D01*
Y0163863D01*
X0163366Y0166914D01*
X0163866Y0166707D01*
Y0166496D01*
X0164648D01*
X0164665Y0166493D01*
X0164683Y0166496D01*
X0168590D01*
Y0170404D01*
X0168594Y0170421D01*
X0168590Y0170438D01*
Y0171221D01*
X0168147D01*
X0167948Y0171598D01*
X0168179Y0172071D01*
X0169181D01*
Y0174331D01*
X0169968D01*
Y0175118D01*
X0171138D01*
Y0175327D01*
X0171148Y0175233D01*
X0171177Y0175148D01*
X0171198Y0175118D01*
X0172150D01*
Y0176591D01*
X0172626Y0176648D01*
X0173587D01*
Y0177402D01*
X0172095D01*
Y0178677D01*
X0171614D01*
Y0177660D01*
X0171604Y0177665D01*
X0171574Y0177670D01*
X0171524Y0177675D01*
X0171320Y0177681D01*
X0170606Y0177660D01*
Y0178718D01*
X0170616Y0178713D01*
X0170646Y0178708D01*
X0170696Y0178703D01*
X0170900Y0178697D01*
X0171593Y0178718D01*
X0171565Y0179677D01*
X0172095D01*
Y0180638D01*
X0171565D01*
X0171571Y0180648D01*
X0171576Y0180678D01*
X0171580Y0180728D01*
X0171586Y0180932D01*
X0171565Y0181646D01*
X0172624D01*
X0172618Y0181636D01*
X0172613Y0181606D01*
X0172609Y0181556D01*
X0172603Y0181352D01*
X0172615Y0180945D01*
X0173636D01*
Y0181650D01*
X0173636D01*
Y0182782D01*
X0175034D01*
Y0181614D01*
X0174378D01*
Y0178071D01*
X0174378Y0178071D01*
Y0177677D01*
X0174378D01*
X0174378Y0177571D01*
Y0174134D01*
X0177167D01*
X0177274Y0174028D01*
X0177439Y0173851D01*
X0177552Y0173711D01*
X0177567Y0173689D01*
Y0171850D01*
X0177567D01*
Y0171457D01*
X0177567D01*
Y0167913D01*
X0180687D01*
X0180704Y0167910D01*
X0180722Y0167913D01*
X0181504D01*
Y0168372D01*
X0182567D01*
X0183069Y0168472D01*
X0183495Y0168757D01*
X0188855Y0174116D01*
X0189353Y0174083D01*
X0189661Y0173683D01*
X0190442Y0173084D01*
X0191352Y0172707D01*
X0192328Y0172578D01*
X0192628Y0172618D01*
X0193169Y0170900D01*
X0193964Y0167313D01*
X0194444Y0163671D01*
X0194454Y0163437D01*
X0193881Y0163200D01*
X0193100Y0162601D01*
X0192501Y0161819D01*
X0192124Y0160909D01*
X0191995Y0159933D01*
X0192124Y0158957D01*
X0192501Y0158047D01*
X0193100Y0157266D01*
X0193881Y0156666D01*
X0194448Y0156431D01*
X0194444Y0156329D01*
X0193964Y0152687D01*
X0193169Y0149100D01*
X0192308Y0146368D01*
X0192311Y0146368D01*
X0192307Y0146364D01*
X0192064Y0145596D01*
X0190658Y0142201D01*
X0188962Y0138942D01*
X0186988Y0135843D01*
X0184751Y0132928D01*
X0184597Y0132760D01*
X0184173Y0132935D01*
X0183197Y0133064D01*
X0183073Y0133047D01*
X0182773Y0133050D01*
X0182067Y0133098D01*
X0181784Y0133138D01*
X0181529Y0133191D01*
X0181312Y0133253D01*
X0181132Y0133320D01*
X0180990Y0133391D01*
X0180886Y0133459D01*
X0177983Y0136361D01*
X0177557Y0136646D01*
X0177055Y0136746D01*
X0168307D01*
X0168299Y0136747D01*
X0168272Y0136751D01*
X0167746Y0137102D01*
X0167055Y0137239D01*
X0166364Y0137102D01*
X0166267Y0137037D01*
X0165826Y0137273D01*
Y0138899D01*
X0165889Y0138994D01*
X0166027Y0139685D01*
X0165889Y0140376D01*
X0165498Y0140962D01*
X0164912Y0141354D01*
X0164220Y0141491D01*
X0163529Y0141354D01*
X0162943Y0140962D01*
X0162922Y0140930D01*
X0162425Y0140921D01*
X0162425Y0140921D01*
X0162425Y0140921D01*
X0160953D01*
Y0139951D01*
X0160958Y0139947D01*
X0161035Y0139919D01*
X0161122Y0139909D01*
X0160953D01*
Y0138740D01*
X0159378D01*
Y0139909D01*
X0159209D01*
X0159295Y0139919D01*
X0159373Y0139947D01*
X0159378Y0139951D01*
Y0141274D01*
X0159330Y0141421D01*
X0159844Y0141936D01*
X0160192Y0142456D01*
X0160314Y0143071D01*
Y0144332D01*
X0160378Y0144427D01*
X0160515Y0145118D01*
X0160382Y0145787D01*
Y0146176D01*
X0160385Y0146193D01*
X0160382Y0146210D01*
Y0149724D01*
X0157035D01*
Y0146210D01*
X0157032Y0146193D01*
X0157035Y0146176D01*
Y0145787D01*
X0156902Y0145118D01*
X0156991Y0144673D01*
X0156677Y0144208D01*
X0156619Y0144173D01*
X0156529D01*
X0156512Y0144177D01*
X0156494Y0144173D01*
X0151996D01*
Y0141058D01*
X0151783Y0140646D01*
X0151784Y0140297D01*
Y0139488D01*
X0154654D01*
Y0137913D01*
X0151784D01*
Y0137105D01*
X0151783Y0136756D01*
X0151996Y0136344D01*
Y0133228D01*
X0155520D01*
X0155712Y0133065D01*
X0155992Y0132785D01*
X0155801Y0132323D01*
X0154354D01*
Y0132535D01*
X0152961D01*
Y0130276D01*
Y0128016D01*
X0154354D01*
X0154469Y0127653D01*
X0154817Y0127132D01*
X0155880Y0126069D01*
X0156401Y0125721D01*
X0157016Y0125599D01*
X0157016Y0125599D01*
X0163231D01*
X0163231Y0125599D01*
X0163846Y0125721D01*
X0164366Y0126069D01*
X0165198Y0126901D01*
X0165546Y0127422D01*
X0165653Y0127957D01*
X0165835Y0128386D01*
X0165835Y0128386D01*
X0165835Y0128386D01*
Y0129120D01*
X0165836Y0129124D01*
X0165835Y0129133D01*
Y0129168D01*
X0165838Y0129185D01*
X0165835Y0129202D01*
Y0131506D01*
X0165838Y0131523D01*
X0165837Y0131530D01*
X0165838Y0131537D01*
X0165835Y0131728D01*
Y0132323D01*
X0165826D01*
Y0133593D01*
X0166267Y0133829D01*
X0166364Y0133764D01*
X0167055Y0133627D01*
X0167746Y0133764D01*
X0168272Y0134115D01*
X0168290Y0134118D01*
X0168319Y0134121D01*
X0176511D01*
X0179029Y0131603D01*
X0179097Y0131498D01*
X0179168Y0131356D01*
X0179235Y0131177D01*
X0179297Y0130959D01*
X0179350Y0130704D01*
X0179391Y0130421D01*
X0179438Y0129715D01*
X0179441Y0129415D01*
X0179424Y0129291D01*
X0179553Y0128315D01*
X0179728Y0127892D01*
X0179560Y0127737D01*
X0176645Y0125501D01*
X0173546Y0123526D01*
X0171700Y0122565D01*
X0170953Y0123139D01*
X0170043Y0123516D01*
X0169067Y0123644D01*
X0168090Y0123516D01*
X0167180Y0123139D01*
X0166399Y0122539D01*
X0165799Y0121758D01*
X0165423Y0120848D01*
X0165301Y0119922D01*
X0163389Y0119319D01*
X0159802Y0118524D01*
X0156159Y0118044D01*
X0155953Y0118035D01*
X0155728Y0118579D01*
X0155128Y0119360D01*
X0154347Y0119960D01*
X0153437Y0120337D01*
X0152461Y0120465D01*
X0151484Y0120337D01*
X0150574Y0119960D01*
X0149793Y0119360D01*
X0149194Y0118579D01*
X0148969Y0118038D01*
X0148818Y0118044D01*
X0145175Y0118524D01*
X0141588Y0119319D01*
X0139629Y0119937D01*
X0139511Y0120831D01*
X0139134Y0121740D01*
X0138535Y0122522D01*
X0137754Y0123121D01*
X0136844Y0123498D01*
X0135867Y0123627D01*
X0134891Y0123498D01*
X0133981Y0123121D01*
X0133265Y0122571D01*
X0131430Y0123526D01*
X0128331Y0125501D01*
X0125417Y0127737D01*
X0125248Y0127892D01*
X0125423Y0128315D01*
X0125552Y0129291D01*
X0125423Y0130268D01*
X0125047Y0131177D01*
X0124447Y0131959D01*
X0123666Y0132558D01*
X0122756Y0132935D01*
X0121780Y0133064D01*
X0120803Y0132935D01*
X0120380Y0132760D01*
X0120225Y0132928D01*
X0117989Y0135843D01*
X0116015Y0138942D01*
X0114318Y0142201D01*
X0112912Y0145596D01*
X0111807Y0149100D01*
X0111012Y0152687D01*
X0110532Y0156329D01*
X0110527Y0156442D01*
X0111067Y0156666D01*
X0111849Y0157266D01*
X0112448Y0158047D01*
X0112825Y0158957D01*
X0112953Y0159933D01*
X0112825Y0160909D01*
X0112448Y0161819D01*
X0111849Y0162601D01*
X0111067Y0163200D01*
X0110522Y0163426D01*
X0110532Y0163671D01*
X0111012Y0167313D01*
X0111807Y0170900D01*
X0112377Y0172708D01*
X0112685Y0172667D01*
X0113661Y0172796D01*
X0114571Y0173173D01*
X0115352Y0173772D01*
X0115417Y0173857D01*
X0115496Y0173931D01*
X0115632Y0174037D01*
X0115778Y0174131D01*
X0115934Y0174214D01*
X0116102Y0174285D01*
X0116283Y0174344D01*
X0116479Y0174392D01*
X0116691Y0174427D01*
X0116755Y0174433D01*
X0119834D01*
X0120602Y0174586D01*
X0121253Y0175021D01*
X0131965Y0185733D01*
X0132380Y0185504D01*
D02*
G37*
G36*
X0145611Y0172444D02*
X0145625Y0172274D01*
X0145649Y0172124D01*
X0145682Y0171994D01*
X0145724Y0171884D01*
X0145776Y0171794D01*
X0145838Y0171724D01*
X0145909Y0171674D01*
X0145989Y0171644D01*
X0146079Y0171634D01*
X0144134D01*
X0144224Y0171644D01*
X0144304Y0171674D01*
X0144375Y0171724D01*
X0144436Y0171794D01*
X0144488Y0171884D01*
X0144531Y0171994D01*
X0144564Y0172124D01*
X0144587Y0172274D01*
X0144602Y0172444D01*
X0144606Y0172634D01*
X0145606D01*
X0145611Y0172444D01*
D02*
G37*
G36*
X0149666Y0171165D02*
X0149655Y0171260D01*
X0149626Y0171345D01*
X0149575Y0171420D01*
X0149505Y0171485D01*
X0149416Y0171540D01*
X0149305Y0171585D01*
X0149176Y0171620D01*
X0149025Y0171645D01*
X0148855Y0171660D01*
X0148666Y0171665D01*
Y0172665D01*
X0148855Y0172670D01*
X0149025Y0172685D01*
X0149176Y0172710D01*
X0149305Y0172745D01*
X0149416Y0172790D01*
X0149505Y0172845D01*
X0149575Y0172910D01*
X0149626Y0172985D01*
X0149655Y0173070D01*
X0149666Y0173165D01*
Y0171165D01*
D02*
G37*
G36*
X0167293Y0173067D02*
X0167235Y0173020D01*
X0167183Y0172941D01*
X0167139Y0172831D01*
X0167101Y0172689D01*
X0167070Y0172516D01*
X0167047Y0172311D01*
X0167020Y0171826D01*
X0167024Y0171697D01*
X0167047Y0171429D01*
X0167086Y0171193D01*
X0167140Y0170988D01*
X0167210Y0170815D01*
X0167295Y0170673D01*
X0167396Y0170563D01*
X0167512Y0170484D01*
X0167644Y0170437D01*
X0167791Y0170421D01*
X0164665D01*
X0164813Y0170437D01*
X0164945Y0170484D01*
X0165061Y0170563D01*
X0165162Y0170673D01*
X0165247Y0170815D01*
X0165317Y0170988D01*
X0165371Y0171193D01*
X0165410Y0171429D01*
X0165433Y0171697D01*
X0165436Y0171815D01*
X0165403Y0172311D01*
X0165374Y0172516D01*
X0165336Y0172689D01*
X0165289Y0172831D01*
X0165235Y0172941D01*
X0165172Y0173020D01*
X0165100Y0173067D01*
X0165020Y0173083D01*
X0167358D01*
X0167293Y0173067D01*
D02*
G37*
G36*
X0151520Y0170986D02*
X0151440Y0170956D01*
X0151369Y0170906D01*
X0151308Y0170836D01*
X0151256Y0170746D01*
X0151213Y0170636D01*
X0151180Y0170506D01*
X0151157Y0170356D01*
X0151143Y0170186D01*
X0151138Y0170000D01*
X0151143Y0169814D01*
X0151157Y0169644D01*
X0151180Y0169494D01*
X0151213Y0169364D01*
X0151256Y0169254D01*
X0151308Y0169164D01*
X0151369Y0169094D01*
X0151440Y0169044D01*
X0151520Y0169014D01*
X0151610Y0169004D01*
X0149666D01*
X0149755Y0169014D01*
X0149836Y0169044D01*
X0149906Y0169094D01*
X0149968Y0169164D01*
X0150020Y0169254D01*
X0150062Y0169364D01*
X0150095Y0169494D01*
X0150119Y0169644D01*
X0150133Y0169814D01*
X0150138Y0170000D01*
X0150133Y0170186D01*
X0150119Y0170356D01*
X0150095Y0170506D01*
X0150062Y0170636D01*
X0150020Y0170746D01*
X0149968Y0170836D01*
X0149906Y0170906D01*
X0149836Y0170956D01*
X0149755Y0170986D01*
X0149666Y0170996D01*
X0151610D01*
X0151520Y0170986D01*
D02*
G37*
G36*
X0180714Y0170568D02*
X0180745Y0170487D01*
X0180795Y0170416D01*
X0180865Y0170355D01*
X0180955Y0170303D01*
X0181064Y0170261D01*
X0181194Y0170228D01*
X0181344Y0170204D01*
X0181515Y0170190D01*
X0181704Y0170185D01*
Y0169185D01*
X0181515Y0169180D01*
X0181344Y0169166D01*
X0181194Y0169142D01*
X0181064Y0169109D01*
X0180955Y0169067D01*
X0180865Y0169015D01*
X0180795Y0168954D01*
X0180745Y0168883D01*
X0180714Y0168802D01*
X0180704Y0168713D01*
Y0170657D01*
X0180714Y0170568D01*
D02*
G37*
G36*
X0146085Y0169650D02*
X0146105Y0169637D01*
X0146137Y0169625D01*
X0146183Y0169615D01*
X0146242Y0169606D01*
X0146399Y0169594D01*
X0146732Y0169587D01*
Y0168587D01*
X0146608Y0168586D01*
X0146183Y0168558D01*
X0146137Y0168548D01*
X0146105Y0168536D01*
X0146085Y0168523D01*
X0146079Y0168508D01*
Y0169665D01*
X0146085Y0169650D01*
D02*
G37*
G36*
X0133153Y0169677D02*
X0133709Y0169677D01*
Y0168496D01*
X0131575D01*
X0131173Y0168898D01*
X0131173Y0171653D01*
X0133153Y0169677D01*
D02*
G37*
G36*
X0136457Y0167622D02*
X0136645Y0167618D01*
Y0166618D01*
X0136457Y0166617D01*
Y0166118D01*
X0136447Y0166213D01*
X0136417Y0166298D01*
X0136367Y0166373D01*
X0136297Y0166438D01*
X0136207Y0166493D01*
X0136097Y0166538D01*
X0135967Y0166573D01*
X0135911Y0166582D01*
X0135686Y0166568D01*
X0135655Y0166554D01*
X0135645Y0166540D01*
Y0166613D01*
X0135457Y0166618D01*
Y0167618D01*
X0135645Y0167623D01*
Y0167697D01*
X0135655Y0167682D01*
X0135686Y0167668D01*
X0135735Y0167657D01*
X0135805Y0167646D01*
X0135847Y0167643D01*
X0135967Y0167663D01*
X0136097Y0167698D01*
X0136207Y0167743D01*
X0136297Y0167798D01*
X0136367Y0167863D01*
X0136417Y0167938D01*
X0136447Y0168023D01*
X0136457Y0168118D01*
Y0167622D01*
D02*
G37*
G36*
X0164665Y0167296D02*
X0164650Y0167443D01*
X0164602Y0167575D01*
X0164524Y0167691D01*
X0164414Y0167792D01*
X0164272Y0167877D01*
X0164099Y0167947D01*
X0163894Y0168001D01*
X0163658Y0168040D01*
X0163390Y0168063D01*
X0163091Y0168071D01*
Y0169646D01*
X0163390Y0169653D01*
X0163658Y0169677D01*
X0163894Y0169715D01*
X0164099Y0169770D01*
X0164272Y0169840D01*
X0164414Y0169925D01*
X0164524Y0170026D01*
X0164602Y0170142D01*
X0164650Y0170274D01*
X0164665Y0170421D01*
Y0167296D01*
D02*
G37*
G36*
X0146089Y0167682D02*
X0146119Y0167668D01*
X0146169Y0167657D01*
X0146239Y0167646D01*
X0146439Y0167631D01*
X0147079Y0167618D01*
Y0166618D01*
X0146889Y0166617D01*
X0146119Y0166568D01*
X0146089Y0166554D01*
X0146079Y0166540D01*
Y0167697D01*
X0146089Y0167682D01*
D02*
G37*
G36*
X0155317Y0166669D02*
X0155266Y0166645D01*
X0155221Y0166604D01*
X0155183Y0166548D01*
X0155150Y0166475D01*
X0155123Y0166385D01*
X0155102Y0166280D01*
X0155087Y0166158D01*
X0155078Y0166020D01*
X0155075Y0165866D01*
X0154075D01*
X0154072Y0166020D01*
X0154048Y0166280D01*
X0154027Y0166385D01*
X0154000Y0166475D01*
X0153967Y0166548D01*
X0153928Y0166604D01*
X0153883Y0166645D01*
X0153832Y0166669D01*
X0153775Y0166677D01*
X0155374D01*
X0155317Y0166669D01*
D02*
G37*
G36*
X0143321Y0166055D02*
X0143351Y0165970D01*
X0143402Y0165895D01*
X0143473Y0165830D01*
X0143564Y0165775D01*
X0143675Y0165730D01*
X0143807Y0165695D01*
X0143864Y0165685D01*
X0144094Y0165700D01*
X0144124Y0165713D01*
X0144134Y0165728D01*
Y0165655D01*
X0144323Y0165650D01*
Y0164650D01*
X0144134Y0164645D01*
Y0164571D01*
X0144124Y0164586D01*
X0144094Y0164599D01*
X0144044Y0164611D01*
X0143974Y0164621D01*
X0143929Y0164625D01*
X0143807Y0164605D01*
X0143675Y0164570D01*
X0143564Y0164525D01*
X0143473Y0164470D01*
X0143402Y0164405D01*
X0143351Y0164330D01*
X0143321Y0164245D01*
X0143311Y0164150D01*
Y0164646D01*
X0143134Y0164650D01*
Y0165650D01*
X0143311Y0165650D01*
Y0166150D01*
X0143321Y0166055D01*
D02*
G37*
G36*
X0152006Y0164324D02*
X0152021Y0164133D01*
X0152034Y0164049D01*
X0152051Y0163971D01*
X0152072Y0163902D01*
X0152096Y0163839D01*
X0152125Y0163784D01*
X0152157Y0163736D01*
X0152193Y0163695D01*
X0150815D01*
X0150851Y0163736D01*
X0150883Y0163784D01*
X0150911Y0163839D01*
X0150936Y0163902D01*
X0150957Y0163971D01*
X0150974Y0164049D01*
X0150987Y0164133D01*
X0150996Y0164225D01*
X0151004Y0164430D01*
X0152004D01*
X0152006Y0164324D01*
D02*
G37*
G36*
X0172264Y0161390D02*
X0172248Y0161462D01*
X0172201Y0161527D01*
X0172122Y0161585D01*
X0172012Y0161634D01*
X0171870Y0161676D01*
X0171697Y0161711D01*
X0171492Y0161737D01*
X0171285Y0161750D01*
X0170799Y0161711D01*
X0170626Y0161676D01*
X0170484Y0161634D01*
X0170374Y0161585D01*
X0170295Y0161527D01*
X0170248Y0161462D01*
X0170232Y0161390D01*
Y0163728D01*
X0170248Y0163656D01*
X0170295Y0163591D01*
X0170374Y0163533D01*
X0170484Y0163484D01*
X0170626Y0163442D01*
X0170799Y0163408D01*
X0171004Y0163381D01*
X0171211Y0163368D01*
X0171697Y0163408D01*
X0171870Y0163442D01*
X0172012Y0163484D01*
X0172122Y0163533D01*
X0172201Y0163591D01*
X0172248Y0163656D01*
X0172264Y0163728D01*
Y0161390D01*
D02*
G37*
G36*
X0146088Y0163750D02*
X0146116Y0163741D01*
X0146163Y0163734D01*
X0146229Y0163727D01*
X0146540Y0163713D01*
X0147020Y0163709D01*
Y0162709D01*
X0146841Y0162708D01*
X0146229Y0162671D01*
X0146163Y0162657D01*
X0146116Y0162641D01*
X0146088Y0162623D01*
X0146079Y0162602D01*
Y0163760D01*
X0146088Y0163750D01*
D02*
G37*
G36*
X0133716Y0164559D02*
X0133350D01*
X0131390Y0162598D01*
X0131173D01*
Y0165354D01*
X0131559Y0165740D01*
X0133716Y0165740D01*
Y0164559D01*
D02*
G37*
G36*
X0170185Y0161392D02*
X0170156Y0161363D01*
X0170130Y0161315D01*
X0170108Y0161247D01*
X0170090Y0161160D01*
X0170074Y0161053D01*
X0170054Y0160782D01*
X0170047Y0160433D01*
X0168473D01*
X0168471Y0160617D01*
X0168430Y0161160D01*
X0168411Y0161247D01*
X0168389Y0161315D01*
X0168364Y0161363D01*
X0168335Y0161392D01*
X0168303Y0161402D01*
X0170217D01*
X0170185Y0161392D01*
D02*
G37*
G36*
X0148631Y0160243D02*
X0148645Y0160073D01*
X0148669Y0159923D01*
X0148702Y0159793D01*
X0148744Y0159683D01*
X0148796Y0159593D01*
X0148857Y0159523D01*
X0148928Y0159473D01*
X0149009Y0159443D01*
X0149098Y0159433D01*
X0147154D01*
X0147243Y0159443D01*
X0147324Y0159473D01*
X0147395Y0159523D01*
X0147456Y0159593D01*
X0147508Y0159683D01*
X0147550Y0159793D01*
X0147583Y0159923D01*
X0147607Y0160073D01*
X0147621Y0160243D01*
X0147626Y0160433D01*
X0148626D01*
X0148631Y0160243D01*
D02*
G37*
G36*
X0159582Y0158767D02*
X0157835D01*
X0157851Y0158783D01*
X0157866Y0158830D01*
X0157879Y0158909D01*
X0157890Y0159019D01*
X0157913Y0159539D01*
X0157921Y0160342D01*
X0159496D01*
X0159582Y0158767D01*
D02*
G37*
G36*
X0169515Y0159575D02*
X0169160Y0159209D01*
X0168613Y0158573D01*
X0168420Y0158303D01*
X0168280Y0158065D01*
X0168195Y0157858D01*
X0168163Y0157683D01*
X0168184Y0157539D01*
X0168260Y0157428D01*
X0168389Y0157348D01*
X0165249Y0158637D01*
X0165412Y0158591D01*
X0165588Y0158580D01*
X0165777Y0158604D01*
X0165980Y0158664D01*
X0166196Y0158758D01*
X0166426Y0158889D01*
X0166668Y0159054D01*
X0166924Y0159255D01*
X0167194Y0159491D01*
X0167476Y0159763D01*
X0169515Y0159575D01*
D02*
G37*
G36*
X0149012Y0157085D02*
X0148934Y0157055D01*
X0148865Y0157005D01*
X0148806Y0156935D01*
X0148756Y0156845D01*
X0148715Y0156735D01*
X0148683Y0156605D01*
X0148660Y0156455D01*
X0148646Y0156285D01*
X0148642Y0156095D01*
X0147642D01*
X0147637Y0156285D01*
X0147622Y0156455D01*
X0147598Y0156605D01*
X0147564Y0156735D01*
X0147520Y0156845D01*
X0147466Y0156935D01*
X0147403Y0157005D01*
X0147329Y0157055D01*
X0147247Y0157085D01*
X0147154Y0157095D01*
X0149098D01*
X0149012Y0157085D01*
D02*
G37*
G36*
X0148647Y0155886D02*
X0148662Y0155714D01*
X0148687Y0155562D01*
X0148722Y0155431D01*
X0148767Y0155320D01*
X0148822Y0155228D01*
X0148887Y0155158D01*
X0148962Y0155107D01*
X0149047Y0155077D01*
X0149142Y0155067D01*
X0147142D01*
X0147237Y0155077D01*
X0147322Y0155107D01*
X0147397Y0155158D01*
X0147462Y0155228D01*
X0147517Y0155320D01*
X0147562Y0155431D01*
X0147597Y0155562D01*
X0147622Y0155714D01*
X0147637Y0155886D01*
X0147642Y0156079D01*
X0148642D01*
X0148647Y0155886D01*
D02*
G37*
G36*
X0181016Y0154866D02*
X0181006Y0154961D01*
X0180976Y0155046D01*
X0180925Y0155121D01*
X0180854Y0155186D01*
X0180763Y0155241D01*
X0180652Y0155286D01*
X0180520Y0155321D01*
X0180368Y0155346D01*
X0180196Y0155361D01*
X0180004Y0155366D01*
Y0156366D01*
X0180196Y0156371D01*
X0180368Y0156386D01*
X0180520Y0156411D01*
X0180652Y0156446D01*
X0180763Y0156491D01*
X0180854Y0156546D01*
X0180925Y0156611D01*
X0180976Y0156686D01*
X0181006Y0156771D01*
X0181016Y0156866D01*
Y0154866D01*
D02*
G37*
G36*
X0159496Y0156389D02*
X0159507Y0156079D01*
X0159512Y0156036D01*
X0159582D01*
X0159566Y0156020D01*
X0159551Y0155974D01*
X0159538Y0155896D01*
X0159533Y0155845D01*
X0159541Y0155778D01*
X0159596Y0155486D01*
X0159674Y0155203D01*
X0159774Y0154930D01*
X0159897Y0154665D01*
X0160042Y0154410D01*
X0160209Y0154165D01*
X0160398Y0153928D01*
X0160610Y0153701D01*
X0159496Y0152587D01*
X0159269Y0152799D01*
X0159032Y0152988D01*
X0158786Y0153155D01*
X0158531Y0153300D01*
X0158267Y0153422D01*
X0157994Y0153523D01*
X0157711Y0153601D01*
X0157419Y0153656D01*
X0157118Y0153690D01*
X0156808Y0153701D01*
X0156346Y0155276D01*
X0156646Y0155291D01*
X0156913Y0155339D01*
X0157150Y0155417D01*
X0157354Y0155528D01*
X0157528Y0155669D01*
X0157669Y0155842D01*
X0157780Y0156047D01*
X0157858Y0156283D01*
X0157905Y0156551D01*
X0157921Y0156850D01*
X0159496Y0156389D01*
D02*
G37*
G36*
X0182445Y0150929D02*
X0182409Y0150938D01*
X0182351Y0150920D01*
X0182270Y0150875D01*
X0182167Y0150803D01*
X0182042Y0150704D01*
X0181533Y0150245D01*
X0181083Y0149804D01*
X0180402Y0150395D01*
Y0149449D01*
X0180141Y0149447D01*
X0179155Y0149378D01*
X0179086Y0149356D01*
X0179045Y0149331D01*
X0179031Y0149303D01*
Y0151169D01*
X0179045Y0151142D01*
X0179086Y0151117D01*
X0179155Y0151095D01*
X0179251Y0151076D01*
X0179374Y0151060D01*
X0179703Y0151037D01*
X0180080Y0151030D01*
X0180127Y0151078D01*
X0180967Y0152032D01*
X0181011Y0152111D01*
X0181027Y0152168D01*
X0181016Y0152201D01*
X0182445Y0150929D01*
D02*
G37*
G36*
X0164685Y0149303D02*
X0164670Y0149331D01*
X0164622Y0149356D01*
X0164543Y0149378D01*
X0164433Y0149397D01*
X0164292Y0149412D01*
X0163677Y0149443D01*
X0163110Y0149449D01*
Y0151024D01*
X0163410Y0151025D01*
X0164543Y0151095D01*
X0164622Y0151117D01*
X0164670Y0151142D01*
X0164685Y0151169D01*
Y0149303D01*
D02*
G37*
G36*
X0178598Y0149300D02*
X0178465Y0149252D01*
X0178347Y0149172D01*
X0178244Y0149062D01*
X0178157Y0148919D01*
X0178087Y0148744D01*
X0178032Y0148538D01*
X0177992Y0148300D01*
X0177969Y0148030D01*
X0177961Y0147729D01*
X0176386D01*
X0176378Y0148030D01*
X0176354Y0148300D01*
X0176315Y0148538D01*
X0176260Y0148744D01*
X0176189Y0148919D01*
X0176102Y0149062D01*
X0176000Y0149172D01*
X0175882Y0149252D01*
X0175748Y0149300D01*
X0175598Y0149315D01*
X0178748D01*
X0178598Y0149300D01*
D02*
G37*
G36*
X0167968Y0149300D02*
X0167835Y0149252D01*
X0167717Y0149172D01*
X0167614Y0149061D01*
X0167527Y0148919D01*
X0167457Y0148744D01*
X0167402Y0148538D01*
X0167362Y0148300D01*
X0167339Y0148030D01*
X0167331Y0147729D01*
X0165756D01*
X0165748Y0148030D01*
X0165724Y0148300D01*
X0165685Y0148538D01*
X0165630Y0148744D01*
X0165559Y0148919D01*
X0165472Y0149061D01*
X0165370Y0149172D01*
X0165252Y0149252D01*
X0165118Y0149300D01*
X0164969Y0149315D01*
X0168118D01*
X0167968Y0149300D01*
D02*
G37*
G36*
X0177963Y0147327D02*
X0178027Y0146303D01*
X0178051Y0146193D01*
X0178079Y0146114D01*
X0178110Y0146067D01*
X0178146Y0146051D01*
X0176201D01*
X0176236Y0146067D01*
X0176268Y0146114D01*
X0176295Y0146193D01*
X0176319Y0146303D01*
X0176340Y0146445D01*
X0176369Y0146823D01*
X0176386Y0147626D01*
X0177961D01*
X0177963Y0147327D01*
D02*
G37*
G36*
X0159566Y0146182D02*
X0159551Y0146150D01*
X0159538Y0146096D01*
X0159527Y0146021D01*
X0159510Y0145806D01*
X0159497Y0145322D01*
X0159496Y0145118D01*
X0157921D01*
X0157920Y0145322D01*
X0157866Y0146150D01*
X0157851Y0146182D01*
X0157835Y0146193D01*
X0159582D01*
X0159566Y0146182D01*
D02*
G37*
G36*
X0167978Y0146855D02*
X0168554Y0146367D01*
X0168809Y0146189D01*
X0169043Y0146055D01*
X0169255Y0145964D01*
X0169445Y0145917D01*
X0169613Y0145914D01*
X0169760Y0145955D01*
X0169885Y0146039D01*
X0167591Y0143903D01*
X0167682Y0144020D01*
X0167728Y0144162D01*
X0167729Y0144326D01*
X0167685Y0144514D01*
X0167595Y0144725D01*
X0167459Y0144959D01*
X0167279Y0145217D01*
X0167053Y0145498D01*
X0166465Y0146130D01*
X0167658Y0147164D01*
X0167978Y0146855D01*
D02*
G37*
G36*
X0170090Y0145978D02*
X0170138Y0145914D01*
X0170216Y0145856D01*
X0170327Y0145807D01*
X0170468Y0145765D01*
X0170642Y0145730D01*
X0170846Y0145704D01*
X0171143Y0145686D01*
X0171697Y0145730D01*
X0171870Y0145765D01*
X0172012Y0145807D01*
X0172122Y0145856D01*
X0172201Y0145914D01*
X0172248Y0145978D01*
X0172264Y0146051D01*
Y0143713D01*
X0172248Y0143785D01*
X0172201Y0143850D01*
X0172122Y0143907D01*
X0172012Y0143957D01*
X0171870Y0143999D01*
X0171697Y0144033D01*
X0171492Y0144060D01*
X0171195Y0144078D01*
X0170642Y0144033D01*
X0170468Y0143999D01*
X0170327Y0143957D01*
X0170216Y0143907D01*
X0170138Y0143850D01*
X0170090Y0143785D01*
X0170075Y0143713D01*
Y0146051D01*
X0170090Y0145978D01*
D02*
G37*
G36*
X0137973Y0141272D02*
X0137957Y0141344D01*
X0137910Y0141409D01*
X0137831Y0141466D01*
X0137721Y0141516D01*
X0137579Y0141558D01*
X0137406Y0141593D01*
X0137201Y0141619D01*
X0136931Y0141636D01*
X0136634Y0141616D01*
X0136429Y0141586D01*
X0136256Y0141548D01*
X0136114Y0141502D01*
X0136004Y0141447D01*
X0135925Y0141384D01*
X0135878Y0141313D01*
X0135862Y0141233D01*
Y0143571D01*
X0135878Y0143506D01*
X0135925Y0143447D01*
X0136004Y0143396D01*
X0136114Y0143352D01*
X0136256Y0143314D01*
X0136429Y0143283D01*
X0136634Y0143259D01*
X0136871Y0143246D01*
X0137406Y0143289D01*
X0137579Y0143324D01*
X0137721Y0143366D01*
X0137831Y0143415D01*
X0137910Y0143473D01*
X0137957Y0143537D01*
X0137973Y0143610D01*
Y0141272D01*
D02*
G37*
G36*
X0156527Y0143346D02*
X0156574Y0143322D01*
X0156653Y0143300D01*
X0156762Y0143281D01*
X0156903Y0143265D01*
X0157515Y0143234D01*
X0158079Y0143228D01*
Y0141654D01*
X0157781Y0141652D01*
X0156653Y0141582D01*
X0156574Y0141560D01*
X0156527Y0141536D01*
X0156512Y0141508D01*
Y0143374D01*
X0156527Y0143346D01*
D02*
G37*
G36*
X0140484Y0143537D02*
X0140531Y0143473D01*
X0140610Y0143415D01*
X0140720Y0143366D01*
X0140862Y0143324D01*
X0141035Y0143289D01*
X0141240Y0143263D01*
X0141333Y0143257D01*
X0142024Y0143300D01*
X0142103Y0143322D01*
X0142150Y0143346D01*
X0142166Y0143374D01*
Y0141508D01*
X0142150Y0141536D01*
X0142103Y0141560D01*
X0142024Y0141582D01*
X0141914Y0141601D01*
X0141772Y0141617D01*
X0141505Y0141630D01*
X0141035Y0141593D01*
X0140862Y0141558D01*
X0140720Y0141516D01*
X0140610Y0141466D01*
X0140531Y0141409D01*
X0140484Y0141344D01*
X0140468Y0141272D01*
Y0143610D01*
X0140484Y0143537D01*
D02*
G37*
G36*
X0156522Y0139551D02*
X0156552Y0139478D01*
X0156602Y0139413D01*
X0156672Y0139357D01*
X0156762Y0139309D01*
X0156872Y0139270D01*
X0157002Y0139240D01*
X0157152Y0139218D01*
X0157322Y0139205D01*
X0157512Y0139201D01*
Y0138201D01*
X0157322Y0138197D01*
X0157152Y0138183D01*
X0157002Y0138162D01*
X0156872Y0138131D01*
X0156762Y0138093D01*
X0156672Y0138045D01*
X0156602Y0137989D01*
X0156552Y0137924D01*
X0156522Y0137850D01*
X0156512Y0137768D01*
Y0139634D01*
X0156522Y0139551D01*
D02*
G37*
G36*
X0158930Y0137701D02*
X0158919Y0137796D01*
X0158889Y0137881D01*
X0158838Y0137956D01*
X0158768Y0138021D01*
X0158677Y0138076D01*
X0158565Y0138121D01*
X0158434Y0138156D01*
X0158282Y0138181D01*
X0158110Y0138196D01*
X0157917Y0138201D01*
Y0139201D01*
X0158110Y0139206D01*
X0158282Y0139221D01*
X0158434Y0139246D01*
X0158565Y0139281D01*
X0158677Y0139326D01*
X0158768Y0139381D01*
X0158838Y0139446D01*
X0158889Y0139521D01*
X0158919Y0139606D01*
X0158930Y0139701D01*
Y0137701D01*
D02*
G37*
G36*
X0137985Y0137661D02*
X0137975Y0137756D01*
X0137944Y0137841D01*
X0137894Y0137916D01*
X0137823Y0137981D01*
X0137732Y0138036D01*
X0137620Y0138081D01*
X0137489Y0138116D01*
X0137337Y0138141D01*
X0137165Y0138156D01*
X0136973Y0138161D01*
Y0139161D01*
X0137165Y0139166D01*
X0137337Y0139181D01*
X0137489Y0139206D01*
X0137620Y0139241D01*
X0137732Y0139286D01*
X0137823Y0139341D01*
X0137894Y0139406D01*
X0137944Y0139481D01*
X0137975Y0139566D01*
X0137985Y0139661D01*
Y0137661D01*
D02*
G37*
G36*
X0135860Y0139566D02*
X0135890Y0139481D01*
X0135941Y0139406D01*
X0136012Y0139341D01*
X0136103Y0139286D01*
X0136214Y0139241D01*
X0136346Y0139206D01*
X0136498Y0139181D01*
X0136670Y0139166D01*
X0136862Y0139161D01*
Y0138161D01*
X0136670Y0138156D01*
X0136498Y0138141D01*
X0136346Y0138116D01*
X0136214Y0138081D01*
X0136103Y0138036D01*
X0136012Y0137981D01*
X0135941Y0137916D01*
X0135890Y0137841D01*
X0135860Y0137756D01*
X0135850Y0137661D01*
Y0139661D01*
X0135860Y0139566D01*
D02*
G37*
G36*
X0167799Y0136086D02*
X0167847Y0136054D01*
X0167902Y0136026D01*
X0167965Y0136001D01*
X0168035Y0135980D01*
X0168112Y0135963D01*
X0168196Y0135950D01*
X0168288Y0135941D01*
X0168493Y0135933D01*
Y0134933D01*
X0168387Y0134931D01*
X0168196Y0134916D01*
X0168112Y0134903D01*
X0168035Y0134886D01*
X0167965Y0134865D01*
X0167902Y0134841D01*
X0167847Y0134812D01*
X0167799Y0134780D01*
X0167758Y0134744D01*
Y0136122D01*
X0167799Y0136086D01*
D02*
G37*
G36*
X0161429Y0136057D02*
X0161476Y0135992D01*
X0161555Y0135935D01*
X0161665Y0135885D01*
X0161807Y0135843D01*
X0161980Y0135809D01*
X0162185Y0135782D01*
X0162689Y0135752D01*
X0162988Y0135748D01*
Y0134173D01*
X0162689Y0134169D01*
X0161980Y0134112D01*
X0161807Y0134078D01*
X0161665Y0134036D01*
X0161555Y0133986D01*
X0161476Y0133929D01*
X0161429Y0133864D01*
X0161413Y0133791D01*
Y0136130D01*
X0161429Y0136057D01*
D02*
G37*
G36*
X0156454Y0135025D02*
X0156430Y0134955D01*
X0156430Y0134874D01*
X0156453Y0134780D01*
X0156498Y0134675D01*
X0156567Y0134558D01*
X0156658Y0134428D01*
X0156772Y0134287D01*
X0157068Y0133969D01*
X0156453Y0133471D01*
X0156293Y0133625D01*
X0156005Y0133869D01*
X0155878Y0133959D01*
X0155761Y0134026D01*
X0155655Y0134072D01*
X0155560Y0134097D01*
X0155475Y0134099D01*
X0155402Y0134081D01*
X0155339Y0134040D01*
X0156500Y0135082D01*
X0156454Y0135025D01*
D02*
G37*
G36*
X0165035Y0131523D02*
X0163091D01*
X0163156Y0131539D01*
X0163214Y0131586D01*
X0163265Y0131665D01*
X0163310Y0131775D01*
X0163347Y0131917D01*
X0163378Y0132090D01*
X0163402Y0132295D01*
X0163430Y0132799D01*
X0163433Y0133098D01*
X0165008D01*
X0165035Y0131523D01*
D02*
G37*
G36*
X0159128Y0131914D02*
X0159431Y0131655D01*
X0159562Y0131562D01*
X0159680Y0131493D01*
X0159785Y0131448D01*
X0159876Y0131428D01*
X0159954Y0131431D01*
X0160019Y0131459D01*
X0160070Y0131511D01*
X0159166Y0130213D01*
X0159200Y0130282D01*
X0159215Y0130360D01*
X0159209Y0130448D01*
X0159182Y0130545D01*
X0159135Y0130652D01*
X0159068Y0130768D01*
X0158981Y0130894D01*
X0158873Y0131028D01*
X0158597Y0131327D01*
X0158957Y0132080D01*
X0159128Y0131914D01*
D02*
G37*
G36*
X0180401Y0132816D02*
X0180592Y0132692D01*
X0180811Y0132583D01*
X0181060Y0132490D01*
X0181338Y0132411D01*
X0181646Y0132347D01*
X0181982Y0132299D01*
X0182743Y0132247D01*
X0183167Y0132244D01*
X0180244Y0129321D01*
X0180241Y0129745D01*
X0180189Y0130506D01*
X0180141Y0130842D01*
X0180077Y0131150D01*
X0179999Y0131428D01*
X0179905Y0131677D01*
X0179796Y0131896D01*
X0179672Y0132087D01*
X0179533Y0132248D01*
X0180240Y0132955D01*
X0180401Y0132816D01*
D02*
G37*
G36*
X0165000Y0129174D02*
X0164969Y0129139D01*
X0164941Y0129082D01*
X0164917Y0129001D01*
X0164897Y0128898D01*
X0164880Y0128772D01*
X0164858Y0128450D01*
X0164850Y0128037D01*
X0163276D01*
X0163274Y0128255D01*
X0163229Y0128898D01*
X0163209Y0129001D01*
X0163185Y0129082D01*
X0163157Y0129139D01*
X0163126Y0129174D01*
X0163091Y0129185D01*
X0165035D01*
X0165000Y0129174D01*
D02*
G37*
%LPC*%
G36*
X0146626Y0190421D02*
X0144869D01*
X0144870Y0190417D01*
X0144908Y0190181D01*
X0144963Y0189976D01*
X0145032Y0189803D01*
X0145118Y0189661D01*
X0145219Y0189551D01*
X0145335Y0189472D01*
X0145467Y0189425D01*
X0145614Y0189409D01*
X0144839D01*
Y0188634D01*
X0146626D01*
Y0190421D01*
D02*
G37*
G36*
X0143233D02*
X0141476D01*
Y0188634D01*
X0143264D01*
Y0189409D01*
X0142488D01*
X0142636Y0189425D01*
X0142768Y0189472D01*
X0142884Y0189551D01*
X0142985Y0189661D01*
X0143070Y0189803D01*
X0143140Y0189976D01*
X0143194Y0190181D01*
X0143233Y0190417D01*
X0143233Y0190421D01*
D02*
G37*
G36*
X0146626Y0187059D02*
X0144839D01*
Y0185272D01*
X0146626D01*
Y0187059D01*
D02*
G37*
G36*
X0143264D02*
X0141476D01*
Y0185272D01*
X0143264D01*
Y0187059D01*
D02*
G37*
G36*
X0143173Y0184583D02*
X0141386D01*
Y0182795D01*
X0143173D01*
Y0184583D01*
D02*
G37*
G36*
X0139811D02*
X0138024D01*
Y0182795D01*
X0139811D01*
Y0184583D01*
D02*
G37*
G36*
X0143173Y0181220D02*
X0141386D01*
Y0179433D01*
X0143173D01*
Y0181220D01*
D02*
G37*
G36*
X0139811D02*
X0138024D01*
Y0179433D01*
X0139811D01*
Y0181220D01*
D02*
G37*
G36*
X0140654Y0178835D02*
X0139260D01*
Y0177362D01*
X0140654D01*
Y0178835D01*
D02*
G37*
G36*
X0173636Y0179370D02*
X0172602D01*
X0172597Y0179187D01*
X0172596Y0178976D01*
X0173636D01*
Y0179370D01*
D02*
G37*
G36*
X0172150Y0173543D02*
X0171198D01*
X0171177Y0173513D01*
X0171148Y0173429D01*
X0171138Y0173335D01*
Y0173543D01*
X0170756D01*
Y0172071D01*
X0171712D01*
X0171634Y0172165D01*
X0172150Y0173282D01*
Y0173543D01*
D02*
G37*
G36*
X0174709Y0171433D02*
X0172921D01*
Y0170483D01*
X0172954Y0170461D01*
X0173039Y0170431D01*
X0173134Y0170421D01*
X0172921D01*
Y0169646D01*
X0173685D01*
Y0169858D01*
X0173695Y0169763D01*
X0173725Y0169678D01*
X0173747Y0169646D01*
X0174709D01*
Y0171433D01*
D02*
G37*
G36*
X0171346D02*
X0169559D01*
Y0169646D01*
X0171346D01*
Y0170421D01*
X0171134D01*
X0171229Y0170431D01*
X0171314Y0170461D01*
X0171346Y0170483D01*
Y0171433D01*
D02*
G37*
G36*
X0174709Y0168071D02*
X0173747D01*
X0173725Y0168038D01*
X0173695Y0167953D01*
X0173685Y0167858D01*
Y0168071D01*
X0172921D01*
Y0166284D01*
X0174709D01*
Y0168071D01*
D02*
G37*
G36*
X0171346D02*
X0169559D01*
Y0166284D01*
X0171346D01*
Y0168071D01*
D02*
G37*
G36*
X0177961Y0164740D02*
Y0163779D01*
X0177975Y0163768D01*
X0178056Y0163738D01*
X0178146Y0163728D01*
X0177961D01*
Y0163346D01*
X0179157D01*
Y0164740D01*
X0177961D01*
D02*
G37*
G36*
X0179157Y0161772D02*
X0177961D01*
Y0161390D01*
X0178146D01*
X0178056Y0161380D01*
X0177975Y0161350D01*
X0177961Y0161339D01*
Y0160378D01*
X0179157D01*
Y0161772D01*
D02*
G37*
G36*
X0140677Y0161020D02*
Y0160016D01*
X0141276D01*
X0141276Y0160023D01*
X0141236Y0160261D01*
X0141181Y0160467D01*
X0141110Y0160641D01*
X0141024Y0160784D01*
X0140921Y0160896D01*
X0140803Y0160975D01*
X0140677Y0161020D01*
D02*
G37*
G36*
X0176386Y0159661D02*
X0174303D01*
Y0158504D01*
X0175279D01*
X0175305Y0158567D01*
X0175315Y0158649D01*
Y0158504D01*
X0176386D01*
Y0158637D01*
X0176173D01*
X0176268Y0158648D01*
X0176353Y0158678D01*
X0176386Y0158700D01*
Y0159661D01*
D02*
G37*
G36*
Y0156929D02*
X0175315D01*
Y0156784D01*
X0175305Y0156866D01*
X0175279Y0156929D01*
X0174303D01*
Y0155772D01*
X0176386D01*
Y0156929D01*
D02*
G37*
G36*
X0184512Y0158047D02*
X0183039D01*
Y0156653D01*
X0183488D01*
Y0156866D01*
X0183498Y0156771D01*
X0183528Y0156686D01*
X0183550Y0156653D01*
X0184512D01*
Y0158047D01*
D02*
G37*
G36*
X0144866Y0158874D02*
X0142913D01*
X0142913Y0158870D01*
X0142953Y0158634D01*
X0143008Y0158429D01*
X0143079Y0158256D01*
X0143165Y0158114D01*
X0143268Y0158004D01*
X0143386Y0157925D01*
X0143520Y0157878D01*
X0143669Y0157862D01*
X0142882D01*
Y0156102D01*
X0144866D01*
Y0158874D01*
D02*
G37*
G36*
X0141276D02*
X0139323D01*
Y0156102D01*
X0141307D01*
Y0157862D01*
X0140520D01*
X0140669Y0157878D01*
X0140803Y0157925D01*
X0140921Y0158004D01*
X0141024Y0158114D01*
X0141110Y0158256D01*
X0141181Y0158429D01*
X0141236Y0158634D01*
X0141276Y0158870D01*
X0141276Y0158874D01*
D02*
G37*
G36*
X0144866Y0154528D02*
X0142882D01*
Y0152780D01*
X0143095D01*
X0142999Y0152770D01*
X0142914Y0152739D01*
X0142882Y0152717D01*
Y0151756D01*
X0144866D01*
Y0154528D01*
D02*
G37*
G36*
X0141307D02*
X0139323D01*
Y0151756D01*
X0141307D01*
Y0152717D01*
X0141274Y0152739D01*
X0141190Y0152770D01*
X0141095Y0152780D01*
X0141307D01*
Y0154528D01*
D02*
G37*
G36*
X0140614Y0150882D02*
X0139220D01*
Y0149409D01*
X0139602D01*
Y0149622D01*
X0139612Y0149527D01*
X0139642Y0149442D01*
X0139664Y0149409D01*
X0140614D01*
Y0150882D01*
D02*
G37*
G36*
X0147354Y0149382D02*
X0146973D01*
Y0149197D01*
X0146963Y0149287D01*
X0146933Y0149367D01*
X0146922Y0149382D01*
X0145961D01*
Y0148185D01*
X0147354D01*
Y0149135D01*
X0147322Y0149157D01*
X0147237Y0149187D01*
X0147142Y0149197D01*
X0147354D01*
Y0149382D01*
D02*
G37*
G36*
X0150323D02*
X0148929D01*
Y0149197D01*
X0149142D01*
X0149047Y0149187D01*
X0148962Y0149157D01*
X0148929Y0149135D01*
Y0148185D01*
X0150323D01*
Y0149382D01*
D02*
G37*
G36*
X0140614Y0147835D02*
X0139664D01*
X0139642Y0147802D01*
X0139612Y0147717D01*
X0139602Y0147622D01*
Y0147835D01*
X0139220D01*
Y0146362D01*
X0140614D01*
Y0147835D01*
D02*
G37*
G36*
X0168039Y0140315D02*
X0167591D01*
Y0140106D01*
X0167581Y0140200D01*
X0167551Y0140285D01*
X0167530Y0140315D01*
X0166567D01*
Y0138921D01*
X0168039D01*
Y0140315D01*
D02*
G37*
G36*
X0171087D02*
X0170125D01*
X0170103Y0140282D01*
X0170073Y0140197D01*
X0170063Y0140102D01*
Y0140315D01*
X0169614D01*
Y0138921D01*
X0171087D01*
Y0140315D01*
D02*
G37*
G36*
X0141480Y0137874D02*
X0140519D01*
X0140497Y0137841D01*
X0140466Y0137756D01*
X0140456Y0137661D01*
Y0137874D01*
X0140008D01*
Y0136480D01*
X0141068D01*
X0141366Y0136480D01*
X0141366Y0136240D01*
Y0133228D01*
X0142341D01*
X0142348Y0133213D01*
X0142380Y0133093D01*
X0142408Y0132923D01*
X0142418Y0132806D01*
Y0132632D01*
X0142402Y0132371D01*
X0142396Y0132323D01*
X0142055D01*
Y0131541D01*
X0142052Y0131523D01*
X0142055Y0131506D01*
Y0128228D01*
X0145622D01*
Y0128016D01*
X0147016D01*
Y0128977D01*
X0146983Y0128999D01*
X0146898Y0129030D01*
X0146803Y0129040D01*
X0147016D01*
Y0130276D01*
Y0132535D01*
X0146299D01*
X0146011Y0133035D01*
X0146124Y0133228D01*
X0146681D01*
Y0136693D01*
X0141778D01*
X0141480Y0136693D01*
X0141480Y0136933D01*
Y0137874D01*
D02*
G37*
G36*
X0133827Y0137835D02*
X0133378D01*
Y0137622D01*
X0133368Y0137717D01*
X0133338Y0137802D01*
X0133316Y0137835D01*
X0132354D01*
Y0136441D01*
X0133827D01*
Y0137391D01*
X0133794Y0137413D01*
X0133709Y0137443D01*
X0133614Y0137453D01*
X0133827D01*
Y0137835D01*
D02*
G37*
G36*
X0149992Y0132535D02*
X0149492Y0132535D01*
X0148591D01*
Y0130276D01*
Y0129040D01*
X0148803D01*
X0148708Y0129030D01*
X0148623Y0128999D01*
X0148591Y0128977D01*
Y0128016D01*
X0149492D01*
X0149984Y0128016D01*
X0150484Y0128016D01*
X0151386D01*
Y0130276D01*
Y0132535D01*
X0150484D01*
X0149992Y0132535D01*
D02*
G37*
%LPD*%
G36*
X0145449Y0134024D02*
X0145315Y0133976D01*
X0145197Y0133897D01*
X0145095Y0133786D01*
X0145008Y0133643D01*
X0144937Y0133468D01*
X0144882Y0133262D01*
X0144843Y0133024D01*
X0144819Y0132754D01*
X0144819Y0132750D01*
X0144872Y0132090D01*
X0144906Y0131917D01*
X0144948Y0131775D01*
X0144998Y0131665D01*
X0145055Y0131586D01*
X0145120Y0131539D01*
X0145193Y0131523D01*
X0142854D01*
X0142927Y0131539D01*
X0142992Y0131586D01*
X0143049Y0131665D01*
X0143099Y0131775D01*
X0143141Y0131917D01*
X0143175Y0132090D01*
X0143202Y0132295D01*
X0143229Y0132739D01*
X0143228Y0132754D01*
X0143205Y0133024D01*
X0143165Y0133262D01*
X0143110Y0133468D01*
X0143039Y0133643D01*
X0142953Y0133786D01*
X0142850Y0133897D01*
X0142732Y0133976D01*
X0142598Y0134024D01*
X0142449Y0134040D01*
X0145598D01*
X0145449Y0134024D01*
D02*
G37*
G36*
X0151004Y0129276D02*
X0150994Y0129371D01*
X0150964Y0129456D01*
X0150914Y0129531D01*
X0150844Y0129596D01*
X0150754Y0129651D01*
X0150644Y0129696D01*
X0150514Y0129731D01*
X0150364Y0129756D01*
X0150194Y0129771D01*
X0150004Y0129776D01*
Y0130776D01*
X0150194Y0130781D01*
X0150364Y0130796D01*
X0150514Y0130821D01*
X0150644Y0130856D01*
X0150754Y0130901D01*
X0150844Y0130956D01*
X0150914Y0131021D01*
X0150964Y0131096D01*
X0150994Y0131181D01*
X0151004Y0131276D01*
Y0129276D01*
D02*
G37*
G36*
X0148982Y0131181D02*
X0149012Y0131096D01*
X0149062Y0131021D01*
X0149132Y0130956D01*
X0149222Y0130901D01*
X0149332Y0130856D01*
X0149462Y0130821D01*
X0149612Y0130796D01*
X0149782Y0130781D01*
X0149972Y0130776D01*
Y0129776D01*
X0149782Y0129771D01*
X0149612Y0129756D01*
X0149462Y0129731D01*
X0149332Y0129696D01*
X0149222Y0129651D01*
X0149132Y0129596D01*
X0149062Y0129531D01*
X0149012Y0129456D01*
X0148982Y0129371D01*
X0148972Y0129276D01*
Y0131276D01*
X0148982Y0131181D01*
D02*
G37*
D11*
X0154654Y0134961D02*
X0155520D01*
X0160126Y0130354D01*
D14*
X0152055Y0154488D02*
X0158709D01*
X0166189Y0174331D02*
X0166228Y0174291D01*
Y0168858D02*
Y0174291D01*
X0163039Y0168858D02*
X0166228D01*
X0157016Y0127205D02*
X0163231D01*
X0155953Y0128268D02*
X0157016Y0127205D01*
X0155953Y0128268D02*
Y0130276D01*
X0163231Y0127205D02*
X0164063Y0128037D01*
Y0130354D01*
X0164220Y0135039D02*
Y0139685D01*
Y0130512D02*
Y0135039D01*
X0164142Y0134961D02*
X0164220Y0135039D01*
X0160165Y0134961D02*
X0164142D01*
X0164063Y0130354D02*
X0164220Y0130512D01*
X0158709Y0145118D02*
Y0147559D01*
Y0143071D02*
Y0145118D01*
X0144051Y0191807D02*
X0144067Y0191823D01*
X0144051Y0187846D02*
Y0191807D01*
X0130598Y0176575D02*
X0134693D01*
X0130559Y0176535D02*
X0130598Y0176575D01*
X0134614Y0142402D02*
X0134653Y0142441D01*
X0139220D01*
X0144024D01*
X0144024Y0134961D02*
X0144024Y0134961D01*
X0144024Y0130276D02*
Y0134961D01*
X0160008Y0134803D02*
X0160165Y0134961D01*
X0160165Y0134961D01*
X0154654Y0142441D02*
X0154654Y0142441D01*
X0158079D01*
X0158709Y0143071D01*
Y0154488D02*
X0162961Y0150236D01*
X0166543D01*
X0158709Y0154488D02*
Y0157402D01*
Y0164528D02*
X0163039Y0168858D01*
X0158709Y0157402D02*
Y0164528D01*
X0142095Y0155315D02*
Y0164913D01*
X0138472Y0168535D02*
Y0176575D01*
X0169260Y0162559D02*
X0173236D01*
X0169260Y0160433D02*
Y0162559D01*
X0166543Y0157717D02*
X0169260Y0160433D01*
X0177173Y0150236D02*
X0180402D01*
X0182252Y0152087D01*
X0177173Y0144882D02*
Y0150236D01*
X0168827Y0144882D02*
X0168827Y0144882D01*
X0173236D01*
X0166543Y0147165D02*
Y0150236D01*
Y0147165D02*
X0168827Y0144882D01*
D15*
X0162252Y0159724D02*
X0165205Y0162677D01*
X0162055Y0159724D02*
X0162252D01*
X0148142Y0140732D02*
Y0150169D01*
X0146071Y0138661D02*
X0148142Y0140732D01*
X0139220Y0138661D02*
X0146071D01*
X0130717Y0138622D02*
X0134614D01*
X0127921D02*
X0130717D01*
X0172134Y0172165D02*
Y0174331D01*
X0155913Y0185315D02*
X0158630Y0182598D01*
Y0174094D02*
Y0182598D01*
X0175087Y0168858D02*
X0177173Y0166772D01*
X0185165Y0155866D02*
X0188906Y0152126D01*
X0168827Y0141102D02*
X0181268D01*
X0170205Y0153976D02*
X0173945Y0157717D01*
X0138709Y0167118D02*
X0140677Y0165150D01*
X0146228Y0125945D02*
X0147803Y0127520D01*
X0142095Y0148685D02*
Y0155315D01*
X0134614Y0133386D02*
Y0138622D01*
X0144051Y0185177D02*
X0148768D01*
X0146228Y0182835D02*
X0146307Y0182756D01*
X0176347Y0175906D02*
X0177252D01*
X0179535Y0173622D01*
X0176347Y0179842D02*
Y0183858D01*
X0158748Y0187008D02*
X0163630Y0182126D01*
X0158748Y0187008D02*
Y0197047D01*
X0152488Y0203307D02*
X0158748Y0197047D01*
X0167055Y0135433D02*
X0177055D01*
X0161031Y0191938D02*
X0169021Y0199928D01*
X0161031Y0188465D02*
Y0191938D01*
X0179948Y0155866D02*
X0182252D01*
X0178098Y0157717D02*
X0179948Y0155866D01*
X0177173Y0157717D02*
X0178098D01*
X0172134Y0168858D02*
Y0172165D01*
X0169968Y0174331D02*
X0172134D01*
X0160823Y0174094D02*
X0160913Y0174185D01*
X0164063Y0185079D02*
X0165047Y0184095D01*
X0165205Y0162677D02*
X0165323Y0162559D01*
X0177055Y0135433D02*
X0183197Y0129291D01*
X0112554Y0143386D02*
X0112593Y0143347D01*
X0134614Y0133386D02*
X0142055Y0125945D01*
X0146228D01*
X0147803Y0127520D02*
Y0130276D01*
X0166583Y0141102D02*
X0168827D01*
X0164654Y0143032D02*
X0166583Y0141102D01*
X0162331Y0143032D02*
X0164654D01*
X0160165Y0140866D02*
X0162331Y0143032D01*
X0160165Y0138740D02*
Y0140866D01*
X0134614Y0138622D02*
X0134653Y0138661D01*
X0139220D01*
X0160126Y0138701D02*
X0160165Y0138740D01*
X0154654Y0138701D02*
X0160126D01*
X0147803Y0130276D02*
X0152173D01*
X0158630Y0174094D02*
X0160823D01*
X0138709Y0167118D02*
X0139890D01*
X0134673D02*
X0138709D01*
X0141858Y0165150D02*
X0145106D01*
X0140677D02*
X0141858D01*
X0150638Y0183307D02*
X0152646Y0185315D01*
X0150677Y0176378D02*
X0154969D01*
X0138472Y0168535D02*
X0139890Y0167118D01*
X0148768Y0185177D02*
X0150638Y0183307D01*
X0146307Y0174185D02*
Y0176339D01*
X0148126Y0158264D02*
Y0162102D01*
X0146307Y0176339D02*
X0150638D01*
X0150638Y0176339D02*
X0150677Y0176378D01*
X0150638Y0176339D02*
X0150638Y0176339D01*
Y0167835D02*
Y0172165D01*
X0154575Y0165866D02*
Y0167835D01*
X0142032Y0148622D02*
X0143996D01*
X0149221Y0165039D02*
X0151484D01*
X0153748D01*
X0151484D02*
X0151504Y0165020D01*
Y0162992D02*
Y0165020D01*
X0138433Y0148622D02*
X0142032D01*
X0142095Y0148685D01*
X0145543Y0150169D02*
X0148142D01*
X0143996Y0148622D02*
X0145543Y0150169D01*
X0148126Y0158264D02*
X0148142Y0158248D01*
Y0154106D02*
Y0158248D01*
X0139890Y0167118D02*
X0141858Y0165150D01*
X0142095Y0164913D01*
X0145106Y0167118D02*
X0147142D01*
X0149221Y0165039D01*
X0145134Y0163209D02*
X0147020D01*
X0148126Y0162102D01*
X0145106Y0163181D02*
X0145134Y0163209D01*
X0153748Y0165039D02*
X0154575Y0165866D01*
X0146732Y0169087D02*
X0147606Y0169961D01*
X0145106Y0169087D02*
X0146732D01*
X0145106Y0172984D02*
X0146307Y0174185D01*
X0147606Y0171181D02*
X0148591Y0172165D01*
X0150638D01*
X0147606Y0169961D02*
Y0171181D01*
X0145106Y0171055D02*
Y0172984D01*
X0156701Y0172165D02*
X0158630Y0174094D01*
X0154575Y0172165D02*
X0156701D01*
X0140551Y0181961D02*
X0140598Y0182008D01*
X0146307Y0180276D02*
Y0182756D01*
X0150638Y0180276D02*
Y0183307D01*
X0154969Y0180315D02*
Y0182874D01*
Y0180315D02*
X0155017D01*
X0152646Y0185315D02*
X0155913D01*
X0187016Y0146850D02*
X0188906D01*
X0181268Y0141102D02*
X0187016Y0146850D01*
X0188906D02*
Y0152126D01*
X0182252Y0155866D02*
X0185165D01*
X0188906Y0146850D02*
X0192340Y0143416D01*
X0177173Y0162559D02*
Y0166772D01*
X0172134Y0168858D02*
X0175087D01*
X0177173Y0157717D02*
X0177173Y0157717D01*
Y0162559D01*
X0173945Y0157717D02*
X0177173D01*
X0166543Y0153976D02*
X0170205D01*
X0177173Y0150236D02*
X0177173Y0150236D01*
X0179535Y0169685D02*
X0182567D01*
X0179535Y0173622D02*
X0179535Y0173622D01*
X0182921D01*
X0182567Y0169685D02*
X0189233Y0176351D01*
X0173551Y0173583D02*
Y0173898D01*
X0172134Y0172165D02*
X0173551Y0173583D01*
X0176347Y0183858D02*
X0176583Y0184095D01*
X0189233Y0176351D02*
X0192328D01*
X0162213Y0180157D02*
X0166189D01*
X0165047Y0184095D02*
X0166189D01*
X0163630Y0182126D02*
X0166189D01*
X0176583Y0184095D02*
X0182803Y0190315D01*
X0172095Y0184095D02*
X0176583D01*
X0172095Y0182126D02*
X0172095Y0182126D01*
Y0180157D02*
Y0182126D01*
Y0178189D02*
Y0180157D01*
X0170126Y0178189D02*
X0172095D01*
X0169890Y0174409D02*
X0169968Y0174331D01*
X0169890Y0174409D02*
Y0176260D01*
X0170126Y0176496D01*
Y0178189D01*
D16*
X0152063Y0158264D02*
X0152097Y0158230D01*
X0154850D01*
X0166189Y0174331D02*
Y0178189D01*
X0168157D01*
D17*
X0198315Y0152520D02*
D03*
X0197252Y0148150D02*
D03*
X0136728Y0203413D02*
D03*
X0132902Y0201760D02*
D03*
X0129051Y0199752D02*
D03*
X0128736Y0120236D02*
D03*
X0125087Y0122598D02*
D03*
D18*
X0192328Y0176351D02*
D03*
X0182803Y0190315D02*
D03*
X0152488Y0203307D02*
D03*
X0169021Y0199928D02*
D03*
D03*
X0195768Y0159933D02*
D03*
X0182803Y0190315D02*
D03*
X0152488Y0203307D02*
D03*
D03*
D03*
X0122173Y0190315D02*
D03*
X0112685Y0176440D02*
D03*
X0109181Y0159933D02*
D03*
X0112554Y0143386D02*
D03*
X0121780Y0129291D02*
D03*
X0135867Y0119854D02*
D03*
X0152461Y0116693D02*
D03*
X0169067Y0119872D02*
D03*
X0183197Y0129291D02*
D03*
X0192340Y0143416D02*
D03*
D19*
X0188976Y0159449D02*
D03*
X0191929Y0153543D02*
D03*
X0188976Y0147638D02*
D03*
X0183071D02*
D03*
X0186024Y0141732D02*
D03*
X0183071Y0135827D02*
D03*
X0180118Y0141732D02*
D03*
X0171260Y0194882D02*
D03*
X0174213Y0129921D02*
D03*
X0165354Y0124016D02*
D03*
X0162401Y0177165D02*
D03*
X0159449Y0171260D02*
D03*
Y0124016D02*
D03*
X0153543Y0194882D02*
D03*
X0147638D02*
D03*
X0150591Y0141732D02*
D03*
X0141732Y0194882D02*
D03*
Y0124016D02*
D03*
X0135827Y0194882D02*
D03*
X0138779Y0129921D02*
D03*
X0132874D02*
D03*
X0126969Y0188976D02*
D03*
X0124016Y0135827D02*
D03*
X0126969Y0129921D02*
D03*
X0118110Y0171260D02*
D03*
Y0159449D02*
D03*
Y0147638D02*
D03*
X0121063Y0141732D02*
D03*
X0115157Y0165354D02*
D03*
Y0153543D02*
D03*
X0162055Y0159724D02*
D03*
X0134653Y0158622D02*
D03*
X0154850Y0158230D02*
D03*
X0130795Y0135039D02*
D03*
X0152055Y0154488D02*
D03*
X0148118Y0142717D02*
D03*
X0147882Y0138858D02*
D03*
Y0134409D02*
D03*
Y0126142D02*
D03*
X0148472Y0146260D02*
D03*
X0145165D02*
D03*
X0130717Y0138622D02*
D03*
X0123231Y0155079D02*
D03*
X0163039Y0168858D02*
D03*
X0158709Y0145118D02*
D03*
X0140650Y0192165D02*
D03*
X0146228Y0182835D02*
D03*
X0142449Y0178268D02*
D03*
X0142488Y0175551D02*
D03*
X0144067Y0191823D02*
D03*
X0137252Y0192283D02*
D03*
X0130559Y0176535D02*
D03*
X0127488Y0178701D02*
D03*
X0127409Y0174149D02*
D03*
X0151425Y0190394D02*
D03*
X0153770Y0188047D02*
D03*
X0156189Y0186181D02*
D03*
X0158276Y0183307D02*
D03*
X0158709Y0179961D02*
D03*
Y0177008D02*
D03*
X0185559Y0179646D02*
D03*
X0180795Y0183908D02*
D03*
X0152252Y0126063D02*
D03*
X0133748Y0135039D02*
D03*
X0137016Y0135079D02*
D03*
X0139890Y0135039D02*
D03*
X0138433Y0145472D02*
D03*
X0130165Y0160197D02*
D03*
X0126425Y0160232D02*
D03*
X0122488Y0160354D02*
D03*
X0122370Y0163772D02*
D03*
X0122252Y0167165D02*
D03*
X0122488Y0170236D02*
D03*
Y0174221D02*
D03*
X0130165Y0191693D02*
D03*
X0134102Y0192165D02*
D03*
X0145323Y0159961D02*
D03*
X0138276Y0151772D02*
D03*
Y0158976D02*
D03*
X0143315Y0138740D02*
D03*
X0151583Y0146260D02*
D03*
X0143433Y0150272D02*
D03*
X0141976Y0146221D02*
D03*
X0172685Y0141220D02*
D03*
X0172724Y0138122D02*
D03*
X0167055Y0135433D02*
D03*
X0173433Y0148122D02*
D03*
X0171465Y0150472D02*
D03*
X0171504Y0153819D02*
D03*
X0171583Y0157835D02*
D03*
X0174929Y0153740D02*
D03*
X0178000Y0153819D02*
D03*
X0186346Y0154528D02*
D03*
Y0157480D02*
D03*
X0183866Y0160091D02*
D03*
X0180874Y0161085D02*
D03*
X0180756Y0164331D02*
D03*
X0176189Y0168358D02*
D03*
Y0172205D02*
D03*
X0173748Y0187647D02*
D03*
X0176307Y0191378D02*
D03*
X0173276Y0191457D02*
D03*
X0170283Y0191496D02*
D03*
X0167370Y0191535D02*
D03*
X0164457D02*
D03*
X0161031Y0188465D02*
D03*
X0162213Y0180157D02*
D03*
X0160913Y0174185D02*
D03*
X0164063Y0185079D02*
D03*
X0164220Y0139685D02*
D03*
X0154969Y0182874D02*
D03*
X0151504Y0162992D02*
D03*
X0182921Y0173622D02*
D03*
X0173551Y0173898D02*
D03*
D20*
X0127134Y0147110D02*
D03*
Y0156953D02*
D03*
X0158709Y0157402D02*
D03*
Y0147559D02*
D03*
D21*
X0160126Y0130354D02*
D03*
X0164063D02*
D03*
X0150638Y0167835D02*
D03*
X0154575D02*
D03*
X0150638Y0172165D02*
D03*
X0154575D02*
D03*
X0164315Y0188504D02*
D03*
X0168252D02*
D03*
X0148126Y0158264D02*
D03*
X0152063D02*
D03*
X0173236Y0144882D02*
D03*
X0177173D02*
D03*
X0177173Y0162559D02*
D03*
X0173236D02*
D03*
X0165323D02*
D03*
X0169260D02*
D03*
D22*
X0154969Y0180315D02*
D03*
Y0176378D02*
D03*
X0150638Y0180276D02*
D03*
Y0176339D02*
D03*
X0146307Y0180276D02*
D03*
Y0176339D02*
D03*
X0179535Y0169685D02*
D03*
Y0173622D02*
D03*
X0176347Y0179842D02*
D03*
Y0175906D02*
D03*
X0148142Y0150169D02*
D03*
Y0154106D02*
D03*
D23*
X0139220Y0142441D02*
D03*
Y0138661D02*
D03*
X0134614Y0142402D02*
D03*
Y0138622D02*
D03*
X0160165Y0134961D02*
D03*
Y0138740D02*
D03*
X0168827Y0144882D02*
D03*
Y0141102D02*
D03*
X0182252Y0152087D02*
D03*
Y0155866D02*
D03*
D24*
X0155953Y0130276D02*
D03*
X0152173D02*
D03*
X0144024D02*
D03*
X0147803D02*
D03*
X0166189Y0174331D02*
D03*
X0169968D02*
D03*
X0134653Y0148622D02*
D03*
X0138433D02*
D03*
X0134693Y0176575D02*
D03*
X0138472D02*
D03*
D25*
X0166228Y0168858D02*
D03*
X0172134D02*
D03*
X0138146Y0187846D02*
D03*
X0144051D02*
D03*
X0134693Y0182008D02*
D03*
X0140598D02*
D03*
D26*
X0166189Y0182126D02*
D03*
Y0180157D02*
D03*
X0172095D02*
D03*
X0172095Y0182126D02*
D03*
D27*
X0166189Y0178189D02*
D03*
X0168157D02*
D03*
X0170126D02*
D03*
X0172095D02*
D03*
Y0184095D02*
D03*
X0170126D02*
D03*
X0168157D02*
D03*
D28*
X0166189D02*
D03*
D29*
X0154654Y0142441D02*
D03*
Y0134961D02*
D03*
X0144024D02*
D03*
Y0142441D02*
D03*
X0154654Y0138701D02*
D03*
X0166543Y0150236D02*
D03*
Y0157717D02*
D03*
X0177173D02*
D03*
Y0150236D02*
D03*
X0166543Y0153976D02*
D03*
D30*
X0134673Y0163181D02*
D03*
Y0165150D02*
D03*
Y0167118D02*
D03*
Y0169087D02*
D03*
Y0171055D02*
D03*
X0145106D02*
D03*
Y0169087D02*
D03*
Y0167118D02*
D03*
Y0165150D02*
D03*
Y0163181D02*
D03*
D31*
X0139890Y0167118D02*
D03*
D32*
X0127842Y0170276D02*
D03*
Y0163976D02*
D03*
D33*
X0142095Y0155315D02*
D03*
X0134614D02*
D03*
D34*
X0134653Y0158622D02*
Y0162697D01*
X0134673Y0162716D01*
X0134653Y0155394D02*
Y0158622D01*
Y0155394D02*
X0134673Y0155374D01*
X0123231Y0144534D02*
Y0155079D01*
Y0144534D02*
X0125364Y0142402D01*
X0134614D01*
X0127134Y0147110D02*
X0129835D01*
X0131346Y0148622D01*
X0134653D01*
X0134614Y0148661D02*
X0134653Y0148622D01*
X0134614Y0148661D02*
Y0155315D01*
X0134673Y0155374D01*
X0123231Y0155079D02*
X0125106Y0156953D01*
X0126779D01*
D35*
X0134704Y0187846D02*
X0138146D01*
X0131240D02*
X0134704D01*
X0134693Y0182008D02*
X0134704Y0182019D01*
Y0187846D01*
X0119834Y0176440D02*
X0131240Y0187846D01*
X0112685Y0176440D02*
X0119834D01*
D36*
X0134693Y0182008D02*
Y0182874D01*
X0134631Y0182070D02*
X0134693Y0182008D01*
D37*
X0166071Y0186260D02*
X0166347Y0185984D01*
X0166071Y0186260D02*
Y0186748D01*
X0166347Y0185984D02*
X0167252D01*
X0164315Y0188504D02*
X0166071Y0186748D01*
X0167252Y0185984D02*
X0168157Y0185079D01*
Y0184095D02*
Y0185079D01*
X0168236Y0188268D02*
X0170126Y0186378D01*
Y0184095D02*
Y0186378D01*
M02*
