G04*
G04 #@! TF.GenerationSoftware,Altium Limited,Altium Designer,19.1.5 (86)*
G04*
G04 Layer_Color=32896*
%FSAX25Y25*%
%MOIN*%
G70*
G01*
G75*
%ADD10C,0.00394*%
%ADD11C,0.00787*%
%ADD15C,0.01000*%
%ADD37C,0.00984*%
%ADD52C,0.00591*%
D10*
X0125264Y0157937D02*
G03*
X0125264Y0157937I-0000197J0000000D01*
G01*
X0156839Y0158386D02*
G03*
X0156839Y0158386I-0000197J0000000D01*
G01*
X0158354Y0132323D02*
X0165835D01*
X0158354Y0128386D02*
Y0132323D01*
Y0128386D02*
X0165835D01*
Y0132323D01*
X0148866Y0165866D02*
Y0169803D01*
X0156346D01*
Y0165866D02*
Y0169803D01*
X0148866Y0165866D02*
X0156346D01*
X0148866Y0170197D02*
Y0174134D01*
X0156346D01*
Y0170197D02*
Y0174134D01*
X0148866Y0170197D02*
X0156346D01*
X0153000Y0182087D02*
X0156937D01*
Y0174606D02*
Y0182087D01*
X0153000Y0174606D02*
X0156937D01*
X0153000D02*
Y0182087D01*
X0148669Y0182047D02*
X0152606D01*
Y0174567D02*
Y0182047D01*
X0148669Y0174567D02*
X0152606D01*
X0148669D02*
Y0182047D01*
X0144339Y0182047D02*
X0148276D01*
Y0174567D02*
Y0182047D01*
X0144339Y0174567D02*
X0148276D01*
X0144339D02*
Y0182047D01*
X0137153Y0136713D02*
X0141287D01*
X0137153D02*
Y0144390D01*
X0141287D01*
Y0136713D02*
Y0144390D01*
X0132547Y0136673D02*
X0136681D01*
X0132547D02*
Y0144350D01*
X0136681D01*
Y0136673D02*
Y0144350D01*
X0150224Y0128209D02*
Y0132343D01*
X0157902D01*
Y0128209D02*
Y0132343D01*
X0150224Y0128209D02*
X0157902D01*
X0149752D02*
Y0132343D01*
X0142075Y0128209D02*
X0149752D01*
X0142075D02*
Y0132343D01*
X0149752D01*
X0158098Y0140689D02*
X0162232D01*
Y0133012D02*
Y0140689D01*
X0158098Y0133012D02*
X0162232D01*
X0158098D02*
Y0140689D01*
X0171917Y0172264D02*
Y0176398D01*
X0164240Y0172264D02*
X0171917D01*
X0164240D02*
Y0176398D01*
X0171917D01*
X0177567Y0167913D02*
X0181504D01*
X0177567D02*
Y0175394D01*
X0181504D01*
Y0167913D02*
Y0175394D01*
X0174378Y0181614D02*
X0178315D01*
Y0174134D02*
Y0181614D01*
X0174378Y0174134D02*
X0178315D01*
X0174378D02*
Y0181614D01*
X0162543Y0186535D02*
Y0190472D01*
X0170024D01*
Y0186535D02*
Y0190472D01*
X0162543Y0186535D02*
X0170024D01*
X0173276Y0177008D02*
Y0185276D01*
X0165008Y0177008D02*
X0173276D01*
X0165008D02*
Y0185276D01*
X0173276D01*
X0146031Y0161016D02*
Y0161803D01*
X0144024Y0161016D02*
X0146031Y0161016D01*
Y0172433D02*
Y0173221D01*
X0144024D02*
X0146031D01*
X0133748D02*
X0133748Y0172433D01*
X0133748Y0173221D02*
X0135756Y0173221D01*
X0133748Y0161016D02*
Y0161803D01*
Y0161016D02*
X0135756Y0161016D01*
X0146173Y0148398D02*
X0150110D01*
X0146173D02*
Y0155878D01*
X0150110D01*
Y0148398D02*
Y0155878D01*
X0146354Y0156295D02*
Y0160232D01*
X0153835D01*
Y0156295D02*
Y0160232D01*
X0146354Y0156295D02*
X0153835D01*
X0140382Y0146555D02*
Y0150689D01*
X0132705Y0146555D02*
X0140382D01*
X0132705D02*
Y0150689D01*
X0140382D01*
X0140421Y0174508D02*
Y0178642D01*
X0132744Y0174508D02*
X0140421D01*
X0132744D02*
Y0178642D01*
X0140421D01*
X0171465Y0142913D02*
Y0146850D01*
X0178945D01*
Y0142913D02*
Y0146850D01*
X0171465Y0142913D02*
X0178945D01*
X0166760Y0139154D02*
X0170894D01*
X0166760D02*
Y0146831D01*
X0170894D01*
Y0139154D02*
Y0146831D01*
X0180185Y0157815D02*
X0184319D01*
Y0150138D02*
Y0157815D01*
X0180185Y0150138D02*
X0184319D01*
X0180185D02*
Y0157815D01*
X0178945Y0160591D02*
Y0164527D01*
X0171465Y0160591D02*
X0178945D01*
X0171465D02*
Y0164527D01*
X0178945D01*
X0163551Y0160591D02*
Y0164527D01*
X0171031D01*
Y0160591D02*
Y0164527D01*
X0163551Y0160591D02*
X0171031D01*
D11*
X0129201Y0148488D02*
X0129890D01*
X0129201Y0155575D02*
X0129890D01*
X0124378Y0148488D02*
X0125067D01*
X0124378Y0155575D02*
X0125067D01*
X0129890Y0148488D02*
Y0155575D01*
X0124378Y0148488D02*
Y0155575D01*
X0155953Y0148937D02*
Y0156024D01*
X0161465Y0148937D02*
Y0156024D01*
X0155953D02*
X0156642D01*
X0155953Y0148937D02*
X0156642D01*
X0160776Y0156024D02*
X0161465D01*
X0160776Y0148937D02*
X0161465D01*
X0163431Y0166108D02*
X0174931D01*
Y0171608D01*
X0163431D02*
X0174931D01*
X0163431Y0166108D02*
Y0171608D01*
X0132173Y0161417D02*
Y0172835D01*
X0123512Y0161417D02*
X0132173D01*
X0123512D02*
Y0172835D01*
X0132173D01*
X0131354Y0151315D02*
X0145354D01*
X0131354D02*
Y0159315D01*
X0145354D01*
Y0151315D02*
Y0159315D01*
X0135348Y0185096D02*
X0146848D01*
Y0190596D01*
X0135348D02*
X0146848D01*
X0135348Y0185096D02*
Y0190596D01*
X0131896Y0179258D02*
X0143396D01*
Y0184758D01*
X0131896D02*
X0143396D01*
X0131896Y0179258D02*
Y0184758D01*
D15*
X0166504Y0186614D02*
G03*
X0166504Y0186614I-0000487J0000000D01*
G01*
X0134939Y0159756D02*
G03*
X0134939Y0159756I-0000325J0000000D01*
G01*
D37*
X0156524Y0145787D02*
G03*
X0156524Y0145787I-0000492J0000000D01*
G01*
X0165657Y0146890D02*
G03*
X0165657Y0146890I-0000492J0000000D01*
G01*
D52*
X0143826Y0144409D02*
X0154850D01*
X0143826Y0132992D02*
X0154850D01*
X0143826Y0144409D02*
X0143827Y0144213D01*
X0143826Y0133189D02*
X0143827Y0132992D01*
X0154850Y0133189D02*
X0154850Y0132992D01*
X0154850Y0144409D02*
X0154850Y0144213D01*
X0154850Y0140669D02*
X0154850Y0140472D01*
X0154850Y0136929D02*
X0154850Y0136732D01*
X0143826Y0140669D02*
X0143827Y0140472D01*
X0143826Y0136929D02*
X0143827Y0136732D01*
X0166347Y0148268D02*
X0177370D01*
X0166347Y0159685D02*
X0177370D01*
X0177370Y0148465D02*
X0177370Y0148268D01*
X0177370Y0159685D02*
X0177370Y0159488D01*
X0166346Y0159685D02*
X0166347Y0159488D01*
X0166346Y0148465D02*
X0166347Y0148268D01*
X0166346Y0152205D02*
X0166347Y0152008D01*
X0166346Y0155945D02*
X0166347Y0155748D01*
X0177370Y0152205D02*
X0177370Y0152008D01*
X0177370Y0155945D02*
X0177370Y0155748D01*
X0119655Y0154646D02*
X0122803D01*
Y0153071D01*
X0122278Y0152547D01*
X0120179D01*
X0119655Y0153071D01*
Y0154646D01*
X0122803Y0149398D02*
Y0151497D01*
X0120704Y0149398D01*
X0120179D01*
X0119655Y0149923D01*
Y0150972D01*
X0120179Y0151497D01*
X0175126Y0128779D02*
Y0131928D01*
X0173552D01*
X0173027Y0131403D01*
Y0130354D01*
X0173552Y0129829D01*
X0175126D01*
X0174076D02*
X0173027Y0128779D01*
X0171977D02*
X0170928D01*
X0171453D01*
Y0131928D01*
X0171977Y0131403D01*
X0167779Y0128779D02*
Y0131928D01*
X0169354Y0130354D01*
X0167254D01*
X0128709Y0177282D02*
Y0174659D01*
X0128184Y0174134D01*
X0127134D01*
X0126610Y0174659D01*
Y0177282D01*
X0123986Y0174134D02*
Y0177282D01*
X0125560Y0175708D01*
X0123461D01*
X0151465Y0183071D02*
X0154613D01*
Y0184645D01*
X0154088Y0185170D01*
X0153039D01*
X0152514Y0184645D01*
Y0183071D01*
Y0184120D02*
X0151465Y0185170D01*
Y0186220D02*
Y0187269D01*
Y0186744D01*
X0154613D01*
X0154088Y0186220D01*
Y0188843D02*
X0154613Y0189368D01*
Y0190418D01*
X0154088Y0190942D01*
X0151989D01*
X0151465Y0190418D01*
Y0189368D01*
X0151989Y0188843D01*
X0154088D01*
X0147567Y0183110D02*
X0150715D01*
Y0184685D01*
X0150191Y0185209D01*
X0149141D01*
X0148617Y0184685D01*
Y0183110D01*
Y0184160D02*
X0147567Y0185209D01*
X0148092Y0186259D02*
X0147567Y0186784D01*
Y0187833D01*
X0148092Y0188358D01*
X0150191D01*
X0150715Y0187833D01*
Y0186784D01*
X0150191Y0186259D01*
X0149666D01*
X0149141Y0186784D01*
Y0188358D01*
X0145244Y0150197D02*
X0142095D01*
Y0148623D01*
X0142620Y0148098D01*
X0143670D01*
X0144195Y0148623D01*
Y0150197D01*
Y0149147D02*
X0145244Y0148098D01*
X0142095Y0147048D02*
Y0144949D01*
X0142620D01*
X0144719Y0147048D01*
X0145244D01*
X0159063Y0162165D02*
Y0165314D01*
X0157489D01*
X0156964Y0164789D01*
Y0163740D01*
X0157489Y0163215D01*
X0159063D01*
X0158013D02*
X0156964Y0162165D01*
X0153815Y0165314D02*
X0154865Y0164789D01*
X0155914Y0163740D01*
Y0162690D01*
X0155390Y0162165D01*
X0154340D01*
X0153815Y0162690D01*
Y0163215D01*
X0154340Y0163740D01*
X0155914D01*
X0162213Y0170669D02*
Y0173818D01*
X0160638D01*
X0160114Y0173293D01*
Y0172244D01*
X0160638Y0171719D01*
X0162213D01*
X0161163D02*
X0160114Y0170669D01*
X0156965Y0173818D02*
X0159064D01*
Y0172244D01*
X0158015Y0172768D01*
X0157490D01*
X0156965Y0172244D01*
Y0171194D01*
X0157490Y0170669D01*
X0158539D01*
X0159064Y0171194D01*
X0152724Y0161016D02*
Y0164164D01*
X0151150D01*
X0150625Y0163640D01*
Y0162590D01*
X0151150Y0162065D01*
X0152724D01*
X0151675D02*
X0150625Y0161016D01*
X0148002D02*
Y0164164D01*
X0149576Y0162590D01*
X0147477D01*
X0155559Y0183228D02*
X0158708D01*
Y0184803D01*
X0158183Y0185327D01*
X0157133D01*
X0156609Y0184803D01*
Y0183228D01*
Y0184278D02*
X0155559Y0185327D01*
X0158183Y0186377D02*
X0158708Y0186902D01*
Y0187951D01*
X0158183Y0188476D01*
X0157658D01*
X0157133Y0187951D01*
Y0187426D01*
Y0187951D01*
X0156609Y0188476D01*
X0156084D01*
X0155559Y0187951D01*
Y0186902D01*
X0156084Y0186377D01*
X0122172Y0164961D02*
X0119024D01*
Y0167060D01*
Y0168109D02*
Y0169159D01*
Y0168634D01*
X0122172D01*
X0121648Y0168109D01*
X0129562Y0147348D02*
X0130087Y0147873D01*
X0131137D01*
X0131661Y0147348D01*
Y0145249D01*
X0131137Y0144724D01*
X0130087D01*
X0129562Y0145249D01*
X0128513D02*
X0127988Y0144724D01*
X0126938D01*
X0126414Y0145249D01*
Y0147348D01*
X0126938Y0147873D01*
X0127988D01*
X0128513Y0147348D01*
Y0146824D01*
X0127988Y0146299D01*
X0126414D01*
X0116373Y0157742D02*
X0116898Y0158267D01*
X0117948D01*
X0118472Y0157742D01*
Y0155643D01*
X0117948Y0155118D01*
X0116898D01*
X0116373Y0155643D01*
X0115324Y0157742D02*
X0114799Y0158267D01*
X0113750D01*
X0113225Y0157742D01*
Y0157217D01*
X0113750Y0156692D01*
X0113225Y0156168D01*
Y0155643D01*
X0113750Y0155118D01*
X0114799D01*
X0115324Y0155643D01*
Y0156168D01*
X0114799Y0156692D01*
X0115324Y0157217D01*
Y0157742D01*
X0114799Y0156692D02*
X0113750D01*
X0141676Y0194092D02*
X0142201Y0194617D01*
X0143251D01*
X0143776Y0194092D01*
Y0191993D01*
X0143251Y0191469D01*
X0142201D01*
X0141676Y0191993D01*
X0140627Y0194617D02*
X0138528D01*
Y0194092D01*
X0140627Y0191993D01*
Y0191469D01*
X0127279Y0184907D02*
X0127804Y0185432D01*
X0128853D01*
X0129378Y0184907D01*
Y0182808D01*
X0128853Y0182283D01*
X0127804D01*
X0127279Y0182808D01*
X0124130Y0185432D02*
X0125180Y0184907D01*
X0126229Y0183858D01*
Y0182808D01*
X0125705Y0182283D01*
X0124655D01*
X0124130Y0182808D01*
Y0183333D01*
X0124655Y0183858D01*
X0126229D01*
X0127121Y0180931D02*
X0127646Y0181456D01*
X0128696D01*
X0129220Y0180931D01*
Y0178832D01*
X0128696Y0178307D01*
X0127646D01*
X0127121Y0178832D01*
X0123973Y0181456D02*
X0126072D01*
Y0179881D01*
X0125022Y0180406D01*
X0124498D01*
X0123973Y0179881D01*
Y0178832D01*
X0124498Y0178307D01*
X0125547D01*
X0126072Y0178832D01*
X0185008Y0148857D02*
Y0146233D01*
X0184483Y0145709D01*
X0183434D01*
X0182909Y0146233D01*
Y0148857D01*
X0181859Y0148333D02*
X0181334Y0148857D01*
X0180285D01*
X0179760Y0148333D01*
Y0147808D01*
X0180285Y0147283D01*
X0180810D01*
X0180285D01*
X0179760Y0146758D01*
Y0146233D01*
X0180285Y0145709D01*
X0181334D01*
X0181859Y0146233D01*
X0141287Y0135629D02*
Y0133005D01*
X0140763Y0132480D01*
X0139713D01*
X0139188Y0133005D01*
Y0135629D01*
X0136040Y0132480D02*
X0138139D01*
X0136040Y0134579D01*
Y0135104D01*
X0136565Y0135629D01*
X0137614D01*
X0138139Y0135104D01*
X0163984Y0184802D02*
Y0182178D01*
X0163460Y0181653D01*
X0162410D01*
X0161885Y0182178D01*
Y0184802D01*
X0160836Y0181653D02*
X0159786D01*
X0160311D01*
Y0184802D01*
X0160836Y0184277D01*
X0179457Y0139016D02*
Y0142164D01*
X0177882D01*
X0177358Y0141640D01*
Y0140590D01*
X0177882Y0140065D01*
X0179457D01*
X0178407D02*
X0177358Y0139016D01*
X0176308D02*
X0175259D01*
X0175783D01*
Y0142164D01*
X0176308Y0141640D01*
X0173684D02*
X0173160Y0142164D01*
X0172110D01*
X0171585Y0141640D01*
Y0141115D01*
X0172110Y0140590D01*
X0172635D01*
X0172110D01*
X0171585Y0140065D01*
Y0139541D01*
X0172110Y0139016D01*
X0173160D01*
X0173684Y0139541D01*
X0174496Y0182480D02*
X0177645D01*
Y0184055D01*
X0177120Y0184579D01*
X0176070D01*
X0175546Y0184055D01*
Y0182480D01*
Y0183530D02*
X0174496Y0184579D01*
Y0185629D02*
Y0186678D01*
Y0186154D01*
X0177645D01*
X0177120Y0185629D01*
X0174496Y0190352D02*
Y0188253D01*
X0176595Y0190352D01*
X0177120D01*
X0177645Y0189827D01*
Y0188777D01*
X0177120Y0188253D01*
X0182252Y0168465D02*
X0185401D01*
Y0170039D01*
X0184876Y0170564D01*
X0183826D01*
X0183301Y0170039D01*
Y0168465D01*
Y0169514D02*
X0182252Y0170564D01*
Y0171613D02*
Y0172663D01*
Y0172138D01*
X0185401D01*
X0184876Y0171613D01*
X0182252Y0174237D02*
Y0175286D01*
Y0174762D01*
X0185401D01*
X0184876Y0174237D01*
X0159732Y0158307D02*
X0162881D01*
Y0159881D01*
X0162356Y0160406D01*
X0161307D01*
X0160782Y0159881D01*
Y0158307D01*
Y0159357D02*
X0159732Y0160406D01*
X0162356Y0161456D02*
X0162881Y0161980D01*
Y0163030D01*
X0162356Y0163555D01*
X0161831D01*
X0161307Y0163030D01*
X0160782Y0163555D01*
X0160257D01*
X0159732Y0163030D01*
Y0161980D01*
X0160257Y0161456D01*
X0160782D01*
X0161307Y0161980D01*
X0161831Y0161456D01*
X0162356D01*
X0161307Y0161980D02*
Y0163030D01*
X0179772Y0161221D02*
X0182920D01*
Y0162795D01*
X0182396Y0163320D01*
X0181346D01*
X0180821Y0162795D01*
Y0161221D01*
Y0162270D02*
X0179772Y0163320D01*
Y0166468D02*
Y0164369D01*
X0181871Y0166468D01*
X0182396D01*
X0182920Y0165943D01*
Y0164894D01*
X0182396Y0164369D01*
X0166756Y0191220D02*
Y0194369D01*
X0165182D01*
X0164657Y0193844D01*
Y0192795D01*
X0165182Y0192270D01*
X0166756D01*
X0165706D02*
X0164657Y0191220D01*
X0163607D02*
X0162558D01*
X0163083D01*
Y0194369D01*
X0163607Y0193844D01*
X0155007Y0150591D02*
X0151858D01*
Y0152165D01*
X0152383Y0152690D01*
X0154482D01*
X0155007Y0152165D01*
Y0150591D01*
X0151858Y0153739D02*
Y0154789D01*
Y0154264D01*
X0155007D01*
X0154482Y0153739D01*
X0127159Y0138713D02*
X0127684Y0138189D01*
Y0137139D01*
X0127159Y0136614D01*
X0125060D01*
X0124535Y0137139D01*
Y0138189D01*
X0125060Y0138713D01*
X0124535Y0139763D02*
Y0140812D01*
Y0140287D01*
X0127684D01*
X0127159Y0139763D01*
X0124535Y0143961D02*
X0127684D01*
X0126110Y0142387D01*
Y0144486D01*
X0131333Y0138516D02*
X0131857Y0137992D01*
Y0136942D01*
X0131333Y0136417D01*
X0129233D01*
X0128709Y0136942D01*
Y0137992D01*
X0129233Y0138516D01*
X0128709Y0139566D02*
Y0140615D01*
Y0140091D01*
X0131857D01*
X0131333Y0139566D01*
Y0142190D02*
X0131857Y0142715D01*
Y0143764D01*
X0131333Y0144289D01*
X0130808D01*
X0130283Y0143764D01*
Y0143239D01*
Y0143764D01*
X0129758Y0144289D01*
X0129233D01*
X0128709Y0143764D01*
Y0142715D01*
X0129233Y0142190D01*
X0147318Y0126954D02*
X0147843Y0127479D01*
X0148893D01*
X0149417Y0126954D01*
Y0124855D01*
X0148893Y0124331D01*
X0147843D01*
X0147318Y0124855D01*
X0146269Y0124331D02*
X0145219D01*
X0145744D01*
Y0127479D01*
X0146269Y0126954D01*
X0141546Y0124331D02*
X0143645D01*
X0141546Y0126430D01*
Y0126954D01*
X0142071Y0127479D01*
X0143120D01*
X0143645Y0126954D01*
X0155192Y0126758D02*
X0155717Y0127282D01*
X0156767D01*
X0157291Y0126758D01*
Y0124659D01*
X0156767Y0124134D01*
X0155717D01*
X0155192Y0124659D01*
X0154143Y0124134D02*
X0153093D01*
X0153618D01*
Y0127282D01*
X0154143Y0126758D01*
X0151519Y0124134D02*
X0150469D01*
X0150994D01*
Y0127282D01*
X0151519Y0126758D01*
X0168854Y0136128D02*
X0169378Y0136653D01*
X0170428D01*
X0170953Y0136128D01*
Y0134029D01*
X0170428Y0133504D01*
X0169378D01*
X0168854Y0134029D01*
X0167804Y0133504D02*
X0166755D01*
X0167279D01*
Y0136653D01*
X0167804Y0136128D01*
X0165180D02*
X0164656Y0136653D01*
X0163606D01*
X0163081Y0136128D01*
Y0134029D01*
X0163606Y0133504D01*
X0164656D01*
X0165180Y0134029D01*
Y0136128D01*
X0165742Y0141823D02*
X0166267Y0141299D01*
Y0140249D01*
X0165742Y0139724D01*
X0163643D01*
X0163118Y0140249D01*
Y0141299D01*
X0163643Y0141823D01*
X0163118Y0144447D02*
X0166267D01*
X0164692Y0142873D01*
Y0144972D01*
X0187632Y0153516D02*
X0188156Y0152992D01*
Y0151942D01*
X0187632Y0151417D01*
X0185533D01*
X0185008Y0151942D01*
Y0152992D01*
X0185533Y0153516D01*
X0187632Y0154566D02*
X0188156Y0155091D01*
Y0156140D01*
X0187632Y0156665D01*
X0187107D01*
X0186582Y0156140D01*
Y0155615D01*
Y0156140D01*
X0186057Y0156665D01*
X0185533D01*
X0185008Y0156140D01*
Y0155091D01*
X0185533Y0154566D01*
X0160980Y0177033D02*
X0161504Y0177558D01*
X0162554D01*
X0163079Y0177033D01*
Y0174934D01*
X0162554Y0174409D01*
X0161504D01*
X0160980Y0174934D01*
X0157831Y0174409D02*
X0159930D01*
X0157831Y0176508D01*
Y0177033D01*
X0158356Y0177558D01*
X0159405D01*
X0159930Y0177033D01*
X0160192Y0169199D02*
X0160717Y0169723D01*
X0161767D01*
X0162291Y0169199D01*
Y0167100D01*
X0161767Y0166575D01*
X0160717D01*
X0160192Y0167100D01*
X0159143Y0166575D02*
X0158093D01*
X0158618D01*
Y0169723D01*
X0159143Y0169199D01*
M02*
