G04*
G04 #@! TF.GenerationSoftware,Altium Limited,Altium Designer,19.1.5 (86)*
G04*
G04 Layer_Color=65535*
%FSAX25Y25*%
%MOIN*%
G70*
G01*
G75*
%ADD10C,0.00394*%
%ADD11C,0.00787*%
D10*
X0112685Y0163267D02*
Y0161693D01*
X0113472Y0160906D01*
X0114259Y0161693D01*
Y0163267D01*
X0116621Y0162873D02*
X0116227Y0163267D01*
X0115440D01*
X0115047Y0162873D01*
Y0161299D01*
X0115440Y0160906D01*
X0116227D01*
X0116621Y0161299D01*
Y0162086D01*
X0115834D01*
X0117408Y0160906D02*
Y0163267D01*
X0118589D01*
X0118982Y0162873D01*
Y0162086D01*
X0118589Y0161693D01*
X0117408D01*
X0121344Y0162873D02*
X0120950Y0163267D01*
X0120163D01*
X0119769Y0162873D01*
Y0162480D01*
X0120163Y0162086D01*
X0120950D01*
X0121344Y0161693D01*
Y0161299D01*
X0120950Y0160906D01*
X0120163D01*
X0119769Y0161299D01*
X0120362Y0183701D02*
Y0186062D01*
X0121543D01*
X0121937Y0185669D01*
Y0184881D01*
X0121543Y0184488D01*
X0120362D01*
X0121149D02*
X0121937Y0183701D01*
X0124298Y0186062D02*
X0122724D01*
Y0183701D01*
X0124298D01*
X0122724Y0184881D02*
X0123511D01*
X0126659Y0186062D02*
X0125085D01*
Y0183701D01*
X0126659D01*
X0125085Y0184881D02*
X0125872D01*
X0127446Y0186062D02*
Y0183701D01*
X0128627D01*
X0129021Y0184094D01*
Y0185669D01*
X0128627Y0186062D01*
X0127446D01*
X0125559Y0133464D02*
Y0131889D01*
X0126346Y0131102D01*
X0127133Y0131889D01*
Y0133464D01*
X0127920D02*
Y0131102D01*
X0129101D01*
X0129495Y0131496D01*
Y0131889D01*
X0129101Y0132283D01*
X0127920D01*
X0129101D01*
X0129495Y0132677D01*
Y0133070D01*
X0129101Y0133464D01*
X0127920D01*
X0130282D02*
Y0131102D01*
Y0131889D01*
X0131856Y0133464D01*
X0130675Y0132283D01*
X0131856Y0131102D01*
X0132643D02*
Y0133464D01*
X0133824D01*
X0134218Y0133070D01*
Y0132283D01*
X0133824Y0131889D01*
X0132643D01*
X0161976Y0127598D02*
X0161582Y0127991D01*
X0160795D01*
X0160402Y0127598D01*
Y0126023D01*
X0160795Y0125630D01*
X0161582D01*
X0161976Y0126023D01*
Y0126811D01*
X0161189D01*
X0162763Y0125630D02*
Y0127991D01*
X0163944D01*
X0164337Y0127598D01*
Y0126811D01*
X0163944Y0126417D01*
X0162763D01*
X0166699Y0127598D02*
X0166305Y0127991D01*
X0165518D01*
X0165124Y0127598D01*
Y0127204D01*
X0165518Y0126811D01*
X0166305D01*
X0166699Y0126417D01*
Y0126023D01*
X0166305Y0125630D01*
X0165518D01*
X0165124Y0126023D01*
X0169060Y0127991D02*
X0167486D01*
Y0125630D01*
X0169060D01*
X0167486Y0126811D02*
X0168273D01*
X0169847Y0125630D02*
Y0127991D01*
X0171422Y0125630D01*
Y0127991D01*
X0184299Y0177440D02*
X0183905Y0177834D01*
X0183118D01*
X0182724Y0177440D01*
Y0177047D01*
X0183118Y0176653D01*
X0183905D01*
X0184299Y0176260D01*
Y0175866D01*
X0183905Y0175472D01*
X0183118D01*
X0182724Y0175866D01*
X0186660Y0177440D02*
X0186267Y0177834D01*
X0185479D01*
X0185086Y0177440D01*
Y0175866D01*
X0185479Y0175472D01*
X0186267D01*
X0186660Y0175866D01*
X0187447Y0177834D02*
Y0175472D01*
X0189022D01*
X0184890Y0165393D02*
Y0163819D01*
X0185677Y0163031D01*
X0186464Y0163819D01*
Y0165393D01*
X0187251Y0163031D02*
Y0165393D01*
X0188038Y0164606D01*
X0188826Y0165393D01*
Y0163031D01*
X0191187Y0164999D02*
X0190793Y0165393D01*
X0190006D01*
X0189613Y0164999D01*
Y0163425D01*
X0190006Y0163031D01*
X0190793D01*
X0191187Y0163425D01*
X0191974Y0165393D02*
Y0163425D01*
X0192368Y0163031D01*
X0193155D01*
X0193548Y0163425D01*
Y0165393D01*
X0148630Y0198936D02*
X0149417D01*
X0149023D01*
Y0196575D01*
X0148630D01*
X0149417D01*
X0150598D02*
Y0198936D01*
X0152172Y0196575D01*
Y0198936D01*
X0152959D02*
X0154534D01*
X0153746D01*
Y0196575D01*
X0155321D02*
X0156108D01*
X0155714D01*
Y0198936D01*
X0155321Y0198543D01*
X0116701Y0178031D02*
Y0176456D01*
X0117488Y0175669D01*
X0118275Y0176456D01*
Y0178031D01*
X0119062D02*
Y0175669D01*
X0120243D01*
X0120636Y0176063D01*
Y0176456D01*
X0120243Y0176850D01*
X0119062D01*
X0120243D01*
X0120636Y0177244D01*
Y0177637D01*
X0120243Y0178031D01*
X0119062D01*
X0121424Y0175669D02*
Y0177244D01*
X0122211Y0178031D01*
X0122998Y0177244D01*
Y0175669D01*
Y0176850D01*
X0121424D01*
X0123785Y0178031D02*
X0125359D01*
X0124572D01*
Y0175669D01*
X0117921Y0145511D02*
X0117527Y0145905D01*
X0116740D01*
X0116347Y0145511D01*
Y0143937D01*
X0116740Y0143543D01*
X0117527D01*
X0117921Y0143937D01*
Y0144724D01*
X0117134D01*
X0118708Y0143543D02*
Y0145905D01*
X0120282Y0143543D01*
Y0145905D01*
X0121069D02*
Y0143543D01*
X0122250D01*
X0122644Y0143937D01*
Y0145511D01*
X0122250Y0145905D01*
X0121069D01*
X0160795Y0195432D02*
X0161582D01*
X0161189D01*
Y0193071D01*
X0160795D01*
X0161582D01*
X0162763D02*
Y0195432D01*
X0164337Y0193071D01*
Y0195432D01*
X0165125D02*
X0166699D01*
X0165912D01*
Y0193071D01*
X0169060D02*
X0167486D01*
X0169060Y0194645D01*
Y0195039D01*
X0168667Y0195432D01*
X0167880D01*
X0167486Y0195039D01*
X0176661Y0187283D02*
X0176267Y0187676D01*
X0175480D01*
X0175087Y0187283D01*
Y0186889D01*
X0175480Y0186496D01*
X0176267D01*
X0176661Y0186102D01*
Y0185708D01*
X0176267Y0185315D01*
X0175480D01*
X0175087Y0185708D01*
X0177448Y0187676D02*
Y0185315D01*
X0178629D01*
X0179022Y0185708D01*
Y0187283D01*
X0178629Y0187676D01*
X0177448D01*
X0179809Y0185315D02*
Y0186889D01*
X0180597Y0187676D01*
X0181384Y0186889D01*
Y0185315D01*
Y0186496D01*
X0179809D01*
X0183984Y0145236D02*
X0183590Y0145629D01*
X0182803D01*
X0182409Y0145236D01*
Y0143661D01*
X0182803Y0143268D01*
X0183590D01*
X0183984Y0143661D01*
Y0144448D01*
X0183197D01*
X0184771Y0143268D02*
Y0145629D01*
X0186345Y0143268D01*
Y0145629D01*
X0187132D02*
Y0143268D01*
X0188313D01*
X0188707Y0143661D01*
Y0145236D01*
X0188313Y0145629D01*
X0187132D01*
X0172409Y0135039D02*
Y0132677D01*
X0173590D01*
X0173984Y0133071D01*
Y0133464D01*
X0173590Y0133858D01*
X0172409D01*
X0173590D01*
X0173984Y0134251D01*
Y0134645D01*
X0173590Y0135039D01*
X0172409D01*
X0174771Y0132284D02*
X0176345D01*
X0178707Y0135039D02*
X0177132D01*
Y0132677D01*
X0178707D01*
X0177132Y0133858D02*
X0177919D01*
X0179494Y0132677D02*
Y0135039D01*
X0181068Y0132677D01*
Y0135039D01*
X0153197Y0122873D02*
X0154771D01*
X0153984D01*
Y0120512D01*
X0155558Y0122873D02*
X0157133Y0120512D01*
Y0122873D02*
X0155558Y0120512D01*
X0135756Y0124449D02*
Y0126810D01*
X0136937D01*
X0137330Y0126417D01*
Y0125629D01*
X0136937Y0125236D01*
X0135756D01*
X0136543D02*
X0137330Y0124449D01*
X0138117Y0126810D02*
X0139692Y0124449D01*
Y0126810D02*
X0138117Y0124449D01*
D11*
X0150009Y0150962D02*
X0152633D01*
X0153945Y0152274D01*
X0152633Y0153586D01*
X0150009D01*
X0150665Y0154897D02*
X0150009Y0155553D01*
Y0156865D01*
X0150665Y0157521D01*
X0153289D01*
X0153945Y0156865D01*
Y0155553D01*
X0153289Y0154897D01*
X0150665D01*
X0143867Y0150529D02*
Y0151841D01*
Y0151185D01*
X0147803D01*
Y0150529D01*
Y0151841D01*
Y0153808D02*
X0143867D01*
Y0155776D01*
X0144523Y0156432D01*
X0145835D01*
X0146491Y0155776D01*
Y0153808D01*
Y0155120D02*
X0147803Y0156432D01*
Y0157744D02*
X0143867D01*
X0147803Y0160368D01*
X0143867D01*
X0147803Y0161680D02*
X0145179D01*
X0143867Y0162992D01*
X0145179Y0164304D01*
X0147803D01*
X0145835D01*
Y0161680D01*
X0144523Y0168239D02*
X0143867Y0167584D01*
Y0166272D01*
X0144523Y0165616D01*
X0145179D01*
X0145835Y0166272D01*
Y0167584D01*
X0146491Y0168239D01*
X0147147D01*
X0147803Y0167584D01*
Y0166272D01*
X0147147Y0165616D01*
M02*
