G04*
G04 #@! TF.GenerationSoftware,Altium Limited,Altium Designer,19.1.5 (86)*
G04*
G04 Layer_Color=128*
%FSAX25Y25*%
%MOIN*%
G70*
G01*
G75*
%ADD20R,0.01772X0.02756*%
%ADD21R,0.01968X0.02362*%
%ADD22R,0.02362X0.01968*%
%ADD23R,0.02520X0.02362*%
%ADD24R,0.02362X0.02520*%
%ADD25R,0.03150X0.03150*%
%ADD26R,0.01083X0.00984*%
%ADD27R,0.00984X0.01083*%
%ADD28R,0.00394X0.00394*%
%ADD29R,0.03740X0.01890*%
%ADD30R,0.01968X0.01181*%
%ADD31R,0.06890X0.12205*%
%ADD32R,0.06693X0.02756*%
%ADD33R,0.03543X0.05118*%
G36*
X0166681Y0183908D02*
X0166337Y0183563D01*
X0165697Y0183563D01*
Y0184646D01*
X0166681D01*
X0166681Y0183908D01*
D02*
G37*
D20*
X0127134Y0147110D02*
D03*
Y0156953D02*
D03*
X0158709Y0157402D02*
D03*
Y0147559D02*
D03*
D21*
X0160126Y0130354D02*
D03*
X0164063D02*
D03*
X0150638Y0167835D02*
D03*
X0154575D02*
D03*
X0150638Y0172165D02*
D03*
X0154575D02*
D03*
X0164315Y0188504D02*
D03*
X0168252D02*
D03*
X0148126Y0158264D02*
D03*
X0152063D02*
D03*
X0173236Y0144882D02*
D03*
X0177173D02*
D03*
X0177173Y0162559D02*
D03*
X0173236D02*
D03*
X0165323D02*
D03*
X0169260D02*
D03*
D22*
X0154969Y0180315D02*
D03*
Y0176378D02*
D03*
X0150638Y0180276D02*
D03*
Y0176339D02*
D03*
X0146307Y0180276D02*
D03*
Y0176339D02*
D03*
X0179535Y0169685D02*
D03*
Y0173622D02*
D03*
X0176347Y0179842D02*
D03*
Y0175906D02*
D03*
X0148142Y0150169D02*
D03*
Y0154106D02*
D03*
D23*
X0139220Y0142441D02*
D03*
Y0138661D02*
D03*
X0134614Y0142402D02*
D03*
Y0138622D02*
D03*
X0160165Y0134961D02*
D03*
Y0138740D02*
D03*
X0168827Y0144882D02*
D03*
Y0141102D02*
D03*
X0182252Y0152087D02*
D03*
Y0155866D02*
D03*
D24*
X0155953Y0130276D02*
D03*
X0152173D02*
D03*
X0144024D02*
D03*
X0147803D02*
D03*
X0166189Y0174331D02*
D03*
X0169968D02*
D03*
X0134653Y0148622D02*
D03*
X0138433D02*
D03*
X0134693Y0176575D02*
D03*
X0138472D02*
D03*
D25*
X0166228Y0168858D02*
D03*
X0172134D02*
D03*
X0138146Y0187846D02*
D03*
X0144051D02*
D03*
X0134693Y0182008D02*
D03*
X0140598D02*
D03*
D26*
X0166189Y0182126D02*
D03*
Y0180157D02*
D03*
X0172095D02*
D03*
X0172095Y0182126D02*
D03*
D27*
X0166189Y0178189D02*
D03*
X0168157D02*
D03*
X0170126D02*
D03*
X0172095D02*
D03*
Y0184095D02*
D03*
X0170126D02*
D03*
X0168157D02*
D03*
D28*
X0166189D02*
D03*
D29*
X0154654Y0142441D02*
D03*
Y0134961D02*
D03*
X0144024D02*
D03*
Y0142441D02*
D03*
X0154654Y0138701D02*
D03*
X0166543Y0150236D02*
D03*
Y0157717D02*
D03*
X0177173D02*
D03*
Y0150236D02*
D03*
X0166543Y0153976D02*
D03*
D30*
X0134673Y0163181D02*
D03*
Y0165150D02*
D03*
Y0167118D02*
D03*
Y0169087D02*
D03*
Y0171055D02*
D03*
X0145106D02*
D03*
Y0169087D02*
D03*
Y0167118D02*
D03*
Y0165150D02*
D03*
Y0163181D02*
D03*
D31*
X0139890Y0167118D02*
D03*
D32*
X0127842Y0170276D02*
D03*
Y0163976D02*
D03*
D33*
X0142095Y0155315D02*
D03*
X0134614D02*
D03*
M02*
