G04*
G04 #@! TF.GenerationSoftware,Altium Limited,Altium Designer,19.1.5 (86)*
G04*
G04 Layer_Color=16711935*
%FSAX25Y25*%
%MOIN*%
G70*
G01*
G75*
%ADD11C,0.00394*%
%ADD41C,0.03150*%
%ADD42C,0.00472*%
D11*
X0122449Y0178347D02*
X0126386D01*
X0122449Y0185827D02*
X0126386D01*
Y0178347D02*
Y0185827D01*
X0122449Y0178347D02*
Y0185827D01*
X0150382Y0183031D02*
Y0196260D01*
X0150461Y0196339D01*
X0162350D01*
Y0182992D02*
Y0196339D01*
X0162311Y0183031D02*
X0162350Y0182992D01*
X0150382Y0183031D02*
X0162311D01*
X0134713Y0172697D02*
X0142390D01*
X0134713Y0168563D02*
X0142390D01*
Y0172697D01*
X0134713Y0168563D02*
Y0172697D01*
Y0185177D02*
X0142390D01*
X0134713Y0181043D02*
X0142390D01*
Y0185177D01*
X0134713Y0181043D02*
Y0185177D01*
X0139969Y0180630D02*
X0143905D01*
X0139969Y0173150D02*
X0143905D01*
X0139969D02*
Y0180630D01*
X0143905Y0173150D02*
Y0180630D01*
X0115638Y0161457D02*
Y0165394D01*
X0123118Y0161457D02*
Y0165394D01*
X0115638Y0161457D02*
X0123118D01*
X0115638Y0165394D02*
X0123118D01*
X0128748Y0168150D02*
X0175992D01*
Y0124843D02*
Y0168150D01*
X0128748Y0124843D02*
X0175992D01*
X0128748D02*
Y0168150D01*
X0153953Y0187939D02*
X0153296Y0187283D01*
Y0185971D01*
X0153953Y0185315D01*
X0156576D01*
X0157232Y0185971D01*
Y0187283D01*
X0156576Y0187939D01*
X0153296Y0191219D02*
Y0189907D01*
X0153953Y0189251D01*
X0156576D01*
X0157232Y0189907D01*
Y0191219D01*
X0156576Y0191875D01*
X0153953D01*
X0153296Y0191219D01*
X0157232Y0193186D02*
X0153296D01*
X0157232Y0195810D01*
X0153296D01*
X0157232Y0199746D02*
Y0197122D01*
X0154609Y0199746D01*
X0153953D01*
X0153296Y0199090D01*
Y0197778D01*
X0153953Y0197122D01*
D41*
X0133930Y0155945D02*
G03*
X0133930Y0155945I-0001245J0000000D01*
G01*
D42*
X0123039Y0179134D02*
X0125401D01*
Y0180315D01*
X0125007Y0180708D01*
X0124220D01*
X0123827Y0180315D01*
Y0179134D01*
Y0179921D02*
X0123039Y0180708D01*
Y0181495D02*
Y0182282D01*
Y0181889D01*
X0125401D01*
X0125007Y0181495D01*
X0137370Y0169942D02*
X0136976Y0169548D01*
X0136189D01*
X0135795Y0169942D01*
Y0171516D01*
X0136189Y0171909D01*
X0136976D01*
X0137370Y0171516D01*
X0139731Y0171909D02*
X0138157D01*
X0139731Y0170335D01*
Y0169942D01*
X0139337Y0169548D01*
X0138550D01*
X0138157Y0169942D01*
X0137370Y0182422D02*
X0136976Y0182028D01*
X0136189D01*
X0135795Y0182422D01*
Y0183996D01*
X0136189Y0184390D01*
X0136976D01*
X0137370Y0183996D01*
X0138157Y0184390D02*
X0138944D01*
X0138550D01*
Y0182028D01*
X0138157Y0182422D01*
X0140757Y0179646D02*
X0143118D01*
Y0178071D01*
Y0175710D02*
Y0177284D01*
X0141544Y0175710D01*
X0141150D01*
X0140757Y0176103D01*
Y0176891D01*
X0141150Y0177284D01*
X0116622Y0162245D02*
Y0164606D01*
X0118196D01*
X0118983Y0162638D02*
X0119377Y0162245D01*
X0120164D01*
X0120558Y0162638D01*
Y0163032D01*
X0120164Y0163426D01*
X0119771D01*
X0120164D01*
X0120558Y0163819D01*
Y0164213D01*
X0120164Y0164606D01*
X0119377D01*
X0118983Y0164213D01*
X0147744Y0148366D02*
Y0146792D01*
X0148531Y0146005D01*
X0149318Y0146792D01*
Y0148366D01*
Y0147185D01*
X0147744D01*
X0150106Y0148366D02*
X0150893D01*
X0150499D01*
Y0146005D01*
X0150106Y0146398D01*
M02*
