G04*
G04 #@! TF.GenerationSoftware,Altium Limited,Altium Designer,19.1.5 (86)*
G04*
G04 Layer_Color=32896*
%FSAX25Y25*%
%MOIN*%
G70*
G01*
G75*
%ADD10C,0.00787*%
%ADD11C,0.00394*%
%ADD12C,0.00591*%
%ADD40C,0.01968*%
D10*
X0128748Y0124843D02*
Y0168150D01*
X0175992D01*
X0128748Y0124843D02*
X0175992D01*
Y0168150D01*
D11*
X0122449Y0178347D02*
X0126386D01*
X0122449D02*
Y0185827D01*
X0126386D01*
Y0178347D02*
Y0185827D01*
X0134713Y0168563D02*
Y0172697D01*
X0142390D01*
Y0168563D02*
Y0172697D01*
X0134713Y0168563D02*
X0142390D01*
X0134713Y0181043D02*
Y0185177D01*
X0142390D01*
Y0181043D02*
Y0185177D01*
X0134713Y0181043D02*
X0142390D01*
X0139969Y0180630D02*
X0143905D01*
Y0173150D02*
Y0180630D01*
X0139969Y0173150D02*
X0143905D01*
X0139969D02*
Y0180630D01*
X0115638Y0161457D02*
Y0165394D01*
X0123118D01*
Y0161457D02*
Y0165394D01*
X0115638Y0161457D02*
X0123118D01*
D12*
X0127134Y0180236D02*
X0130282D01*
Y0181810D01*
X0129758Y0182335D01*
X0128708D01*
X0128183Y0181810D01*
Y0180236D01*
Y0181286D02*
X0127134Y0182335D01*
Y0183385D02*
Y0184434D01*
Y0183910D01*
X0130282D01*
X0129758Y0183385D01*
X0131925Y0171797D02*
X0132449Y0172322D01*
X0133499D01*
X0134024Y0171797D01*
Y0169698D01*
X0133499Y0169173D01*
X0132449D01*
X0131925Y0169698D01*
X0128776Y0169173D02*
X0130875D01*
X0128776Y0171272D01*
Y0171797D01*
X0129301Y0172322D01*
X0130350D01*
X0130875Y0171797D01*
X0116976Y0157481D02*
Y0160630D01*
X0119075D01*
X0120125Y0158006D02*
X0120650Y0157481D01*
X0121699D01*
X0122224Y0158006D01*
Y0158531D01*
X0121699Y0159056D01*
X0121175D01*
X0121699D01*
X0122224Y0159580D01*
Y0160105D01*
X0121699Y0160630D01*
X0120650D01*
X0120125Y0160105D01*
X0135875Y0179409D02*
X0139024D01*
Y0177310D01*
Y0174162D02*
Y0176261D01*
X0136925Y0174162D01*
X0136400D01*
X0135875Y0174687D01*
Y0175736D01*
X0136400Y0176261D01*
X0142317Y0188477D02*
X0142841Y0187952D01*
Y0186903D01*
X0142317Y0186378D01*
X0140218D01*
X0139693Y0186903D01*
Y0187952D01*
X0140218Y0188477D01*
X0139693Y0189526D02*
Y0190576D01*
Y0190051D01*
X0142841D01*
X0142317Y0189526D01*
X0127252Y0160709D02*
X0125153D01*
X0124103Y0159659D01*
X0125153Y0158610D01*
X0127252D01*
X0125678D01*
Y0160709D01*
X0127252Y0157560D02*
Y0156510D01*
Y0157035D01*
X0124103D01*
X0124628Y0157560D01*
D40*
X0125691Y0165394D02*
G03*
X0125691Y0165394I-0000880J0000000D01*
G01*
M02*
