G04*
G04 #@! TF.GenerationSoftware,Altium Limited,Altium Designer,19.0.15 (446)*
G04*
G04 Layer_Color=8388736*
%FSAX25Y25*%
%MOIN*%
G70*
G01*
G75*
%ADD20C,0.07874*%
D20*
X1230077Y0327853D02*
G03*
X1170955Y0373579I-0047244J0000000D01*
G01*
X1229931Y0324141D02*
G03*
X1230077Y0327853I-0047098J0003712D01*
G01*
X1154746Y0365841D02*
G03*
X1151770Y0292257I0028087J-0037988D01*
G01*
X1161963Y0285468D02*
G03*
X1227296Y0311882I0020870J0042385D01*
G01*
X1230077Y0434152D02*
G03*
X1170955Y0479879I-0047244J0000000D01*
G01*
X1229931Y0430440D02*
G03*
X1230077Y0434152I-0047098J0003712D01*
G01*
X1154746Y0472141D02*
G03*
X1151770Y0398556I0028087J-0037988D01*
G01*
X1161963Y0391767D02*
G03*
X1227296Y0418181I0020870J0042385D01*
G01*
X1230077Y0540451D02*
G03*
X1170955Y0586178I-0047244J0000000D01*
G01*
X1229931Y0536739D02*
G03*
X1230077Y0540451I-0047098J0003712D01*
G01*
X1154746Y0578440D02*
G03*
X1151770Y0504855I0028087J-0037988D01*
G01*
X1161963Y0498067D02*
G03*
X1227296Y0524480I0020870J0042385D01*
G01*
X1115904Y0327853D02*
G03*
X1056781Y0373579I-0047244J0000000D01*
G01*
X1115758Y0324141D02*
G03*
X1115904Y0327853I-0047098J0003712D01*
G01*
X1040573Y0365841D02*
G03*
X1037597Y0292257I0028087J-0037988D01*
G01*
X1047790Y0285468D02*
G03*
X1113123Y0311882I0020870J0042385D01*
G01*
X1115904Y0434152D02*
G03*
X1056781Y0479879I-0047244J0000000D01*
G01*
X1115758Y0430440D02*
G03*
X1115904Y0434152I-0047098J0003712D01*
G01*
X1040573Y0472141D02*
G03*
X1037597Y0398556I0028087J-0037988D01*
G01*
X1047790Y0391767D02*
G03*
X1113123Y0418181I0020870J0042385D01*
G01*
X1115904Y0540451D02*
G03*
X1056781Y0586178I-0047244J0000000D01*
G01*
X1115758Y0536739D02*
G03*
X1115904Y0540451I-0047098J0003712D01*
G01*
X1040573Y0578440D02*
G03*
X1037597Y0504855I0028087J-0037988D01*
G01*
X1047790Y0498067D02*
G03*
X1113123Y0524480I0020870J0042385D01*
G01*
X0933617Y0285468D02*
G03*
X0998950Y0311882I0020870J0042385D01*
G01*
X0926400Y0365841D02*
G03*
X0923423Y0292257I0028087J-0037988D01*
G01*
X1001585Y0324141D02*
G03*
X1001731Y0327853I-0047098J0003712D01*
G01*
D02*
G03*
X0942608Y0373579I-0047244J0000000D01*
G01*
X0933617Y0391767D02*
G03*
X0998950Y0418181I0020870J0042385D01*
G01*
X0926400Y0472141D02*
G03*
X0923423Y0398556I0028087J-0037988D01*
G01*
X1001585Y0430440D02*
G03*
X1001731Y0434152I-0047098J0003712D01*
G01*
D02*
G03*
X0942608Y0479879I-0047244J0000000D01*
G01*
X0933617Y0498067D02*
G03*
X0998950Y0524480I0020870J0042385D01*
G01*
X0926400Y0578440D02*
G03*
X0923423Y0504855I0028087J-0037988D01*
G01*
X1001585Y0536739D02*
G03*
X1001731Y0540451I-0047098J0003712D01*
G01*
D02*
G03*
X0942608Y0586178I-0047244J0000000D01*
G01*
X0819444Y0285468D02*
G03*
X0884776Y0311882I0020870J0042385D01*
G01*
X0812226Y0365841D02*
G03*
X0809250Y0292257I0028087J-0037988D01*
G01*
X0887412Y0324141D02*
G03*
X0887558Y0327853I-0047098J0003712D01*
G01*
D02*
G03*
X0828435Y0373579I-0047244J0000000D01*
G01*
X0819444Y0391767D02*
G03*
X0884776Y0418181I0020870J0042385D01*
G01*
X0812226Y0472141D02*
G03*
X0809250Y0398556I0028087J-0037988D01*
G01*
X0887412Y0430440D02*
G03*
X0887558Y0434152I-0047098J0003712D01*
G01*
D02*
G03*
X0828435Y0479879I-0047244J0000000D01*
G01*
X0819444Y0498067D02*
G03*
X0884776Y0524480I0020870J0042385D01*
G01*
X0812226Y0578440D02*
G03*
X0809250Y0504855I0028087J-0037988D01*
G01*
X0887412Y0536739D02*
G03*
X0887558Y0540451I-0047098J0003712D01*
G01*
D02*
G03*
X0828435Y0586178I-0047244J0000000D01*
G01*
M02*
