G04*
G04 #@! TF.GenerationSoftware,Altium Limited,Altium Designer,19.0.15 (446)*
G04*
G04 Layer_Physical_Order=1*
G04 Layer_Color=255*
%FSAX25Y25*%
%MOIN*%
G70*
G01*
G75*
%ADD10C,0.03937*%
%ADD11C,0.14567*%
%ADD12C,0.00984*%
%ADD13C,0.05906*%
G36*
X0951006Y0581698D02*
X0951640Y0580872D01*
X0952466Y0580239D01*
X0953427Y0579840D01*
X0954459Y0579705D01*
X0955491Y0579840D01*
X0956452Y0580239D01*
X0957278Y0580872D01*
X0957912Y0581698D01*
X0958244Y0582501D01*
X0958899Y0582449D01*
X0959186Y0582395D01*
X0959473Y0582321D01*
X0959473Y0582321D01*
X0959958Y0582324D01*
X0961768Y0582037D01*
X0962181Y0581972D01*
X0962437Y0581912D01*
X0962745Y0581826D01*
X0962745Y0581826D01*
X0963236Y0581763D01*
X0965424Y0581237D01*
X0965511Y0581211D01*
X0965975Y0581064D01*
D01*
X0966460Y0580945D01*
X0967063Y0580749D01*
X0967005Y0580312D01*
X0967141Y0579280D01*
X0967540Y0578319D01*
X0968173Y0577493D01*
X0968999Y0576859D01*
X0969960Y0576461D01*
X0970992Y0576325D01*
X0972024Y0576461D01*
X0972986Y0576859D01*
X0973811Y0577493D01*
X0974080Y0577843D01*
X0974735Y0577509D01*
X0974759Y0577497D01*
X0975076Y0577309D01*
X0975081Y0577292D01*
X0975158Y0577260D01*
X0975567Y0577041D01*
X0977512Y0575849D01*
X0977903Y0575547D01*
X0977982Y0575514D01*
X0978406Y0575251D01*
X0980286Y0573886D01*
X0980571Y0573582D01*
X0980785Y0573455D01*
X0980828Y0573429D01*
X0981064Y0573268D01*
X0981486Y0572908D01*
X0981321Y0572693D01*
X0980923Y0571731D01*
X0980787Y0570699D01*
X0980923Y0569667D01*
X0981321Y0568706D01*
X0981955Y0567880D01*
X0982781Y0567247D01*
X0983742Y0566848D01*
X0984774Y0566712D01*
X0985806Y0566848D01*
X0986767Y0567247D01*
X0986983Y0567412D01*
X0987395Y0566928D01*
X0987447Y0566848D01*
X0987531Y0566709D01*
X0987657Y0566496D01*
X0987657Y0566496D01*
X0988002Y0566154D01*
X0989326Y0564331D01*
X0989589Y0563908D01*
X0989622Y0563828D01*
X0989924Y0563437D01*
X0991116Y0561492D01*
X0991145Y0561438D01*
X0991367Y0561006D01*
X0991367Y0561006D01*
X0991625Y0560579D01*
X0991960Y0559923D01*
X0991480Y0559554D01*
X0990846Y0558729D01*
X0990448Y0557767D01*
X0990312Y0556735D01*
X0990448Y0555703D01*
X0990846Y0554742D01*
X0991480Y0553916D01*
X0992305Y0553282D01*
X0993267Y0552884D01*
X0994299Y0552748D01*
X0994877Y0552824D01*
X0995046Y0552303D01*
X0995049Y0552295D01*
X0995147Y0551915D01*
X0995139Y0551900D01*
X0995171Y0551823D01*
X0995312Y0551349D01*
X0995866Y0549040D01*
X0995900Y0548671D01*
X0995987Y0548362D01*
X0995987Y0548362D01*
X0996013Y0548252D01*
X0996047Y0548106D01*
X0996112Y0547693D01*
X0996342Y0546242D01*
X0996420Y0545748D01*
X0996396Y0545398D01*
X0996470Y0545111D01*
Y0545111D01*
X0996491Y0545000D01*
X0996524Y0544824D01*
X0996580Y0544116D01*
X0995745Y0543770D01*
X0994919Y0543137D01*
X0994286Y0542311D01*
X0993888Y0541349D01*
X0993752Y0540317D01*
X0993888Y0539286D01*
X0994286Y0538324D01*
X0994919Y0537498D01*
X0995745Y0536865D01*
X0996570Y0536523D01*
X0996524Y0535945D01*
X0996470Y0535657D01*
X0996396Y0535371D01*
X0996396Y0535371D01*
X0996399Y0534885D01*
X0996112Y0533076D01*
X0996047Y0532663D01*
X0995987Y0532406D01*
X0995900Y0532098D01*
X0995900Y0532098D01*
X0995837Y0531608D01*
X0995312Y0529420D01*
X0995286Y0529332D01*
X0995139Y0528868D01*
D01*
X0995020Y0528384D01*
X0994300Y0526170D01*
X0994142Y0525768D01*
X0994118Y0525707D01*
X0994118Y0525706D01*
X0993954Y0525242D01*
X0993094Y0523164D01*
X0992883Y0522725D01*
X0992883Y0522724D01*
X0992819Y0522578D01*
X0992804Y0522542D01*
X0992645Y0522191D01*
X0992457Y0521822D01*
X0991584Y0520108D01*
X0991572Y0520084D01*
X0991384Y0519767D01*
X0991367Y0519763D01*
X0991335Y0519685D01*
X0991116Y0519276D01*
X0989924Y0517332D01*
X0989622Y0516940D01*
X0989589Y0516861D01*
X0989326Y0516437D01*
X0987960Y0514557D01*
X0987657Y0514272D01*
X0987530Y0514059D01*
X0987504Y0514015D01*
X0987343Y0513779D01*
X0986885Y0513243D01*
X0986200Y0513527D01*
X0985168Y0513662D01*
X0984136Y0513527D01*
X0983174Y0513128D01*
X0982349Y0512495D01*
X0981715Y0511669D01*
X0981317Y0510708D01*
X0981181Y0509676D01*
X0981317Y0508644D01*
X0981601Y0507959D01*
X0981003Y0507448D01*
X0980923Y0507396D01*
X0980784Y0507313D01*
X0980571Y0507187D01*
X0980571Y0507187D01*
X0980229Y0506842D01*
X0978406Y0505517D01*
X0977982Y0505254D01*
X0977903Y0505222D01*
X0977512Y0504920D01*
X0975567Y0503728D01*
X0975513Y0503699D01*
X0975081Y0503476D01*
X0975081Y0503476D01*
X0974654Y0503218D01*
X0974002Y0502886D01*
X0973857Y0503076D01*
X0973031Y0503709D01*
X0972069Y0504107D01*
X0971037Y0504243D01*
X0970006Y0504107D01*
X0969044Y0503709D01*
X0968218Y0503076D01*
X0967585Y0502250D01*
X0967186Y0501288D01*
X0967050Y0500256D01*
X0967081Y0500026D01*
X0966378Y0499797D01*
X0966370Y0499795D01*
X0965990Y0499696D01*
X0965975Y0499705D01*
X0965898Y0499673D01*
X0965424Y0499531D01*
X0963114Y0498977D01*
X0962745Y0498943D01*
X0962437Y0498857D01*
X0962437Y0498856D01*
X0962326Y0498831D01*
X0962181Y0498797D01*
X0961768Y0498731D01*
X0960317Y0498501D01*
X0959823Y0498423D01*
X0959473Y0498447D01*
X0959186Y0498373D01*
X0959186D01*
X0959074Y0498352D01*
X0958899Y0498319D01*
X0958218Y0498266D01*
X0957884Y0499071D01*
X0957251Y0499896D01*
X0956425Y0500530D01*
X0955463Y0500928D01*
X0954432Y0501064D01*
X0953400Y0500928D01*
X0952438Y0500530D01*
X0951612Y0499896D01*
X0950979Y0499071D01*
X0950647Y0498270D01*
X0950020Y0498319D01*
X0949732Y0498373D01*
X0949446Y0498447D01*
X0949446Y0498447D01*
X0948960Y0498445D01*
X0947150Y0498731D01*
X0946738Y0498797D01*
X0946481Y0498856D01*
X0946173Y0498943D01*
X0946173Y0498943D01*
X0945683Y0499006D01*
X0943495Y0499531D01*
X0943407Y0499557D01*
X0942943Y0499705D01*
D01*
X0942459Y0499824D01*
X0941799Y0500038D01*
X0941825Y0500239D01*
X0941689Y0501270D01*
X0941291Y0502232D01*
X0940658Y0503058D01*
X0939832Y0503691D01*
X0938870Y0504090D01*
X0937838Y0504225D01*
X0936806Y0504090D01*
X0935845Y0503691D01*
X0935019Y0503058D01*
X0934895Y0502896D01*
X0934183Y0503259D01*
X0934159Y0503272D01*
X0933842Y0503460D01*
X0933837Y0503476D01*
X0933760Y0503508D01*
X0933351Y0503728D01*
X0931406Y0504920D01*
X0931015Y0505222D01*
X0930936Y0505254D01*
X0930512Y0505517D01*
X0928632Y0506883D01*
X0928347Y0507187D01*
X0928133Y0507313D01*
X0928090Y0507339D01*
X0927854Y0507501D01*
X0927318Y0507959D01*
X0927602Y0508644D01*
X0927737Y0509676D01*
X0927602Y0510708D01*
X0927203Y0511669D01*
X0926570Y0512495D01*
X0925744Y0513128D01*
X0924782Y0513527D01*
X0923750Y0513662D01*
X0922719Y0513527D01*
X0922033Y0513243D01*
X0921523Y0513840D01*
X0921471Y0513920D01*
X0921388Y0514059D01*
X0921261Y0514272D01*
X0921261Y0514272D01*
X0920917Y0514614D01*
X0919592Y0516437D01*
X0919329Y0516861D01*
X0919296Y0516940D01*
X0918994Y0517332D01*
X0917803Y0519276D01*
X0917774Y0519330D01*
X0917551Y0519763D01*
X0917551Y0519763D01*
X0917293Y0520190D01*
X0916234Y0522268D01*
X0916108Y0522557D01*
X0916035Y0522724D01*
X0916035Y0522724D01*
X0915822Y0523170D01*
X0914964Y0525242D01*
X0914800Y0525706D01*
X0914800Y0525706D01*
X0914780Y0525758D01*
X0914725Y0525896D01*
X0914593Y0526247D01*
X0913872Y0528465D01*
X0913869Y0528473D01*
X0913771Y0528853D01*
X0913779Y0528868D01*
X0913747Y0528945D01*
X0913606Y0529420D01*
X0913052Y0531729D01*
X0913018Y0532098D01*
X0912931Y0532406D01*
X0912931Y0532407D01*
X0912905Y0532517D01*
X0912871Y0532663D01*
X0912806Y0533076D01*
X0912576Y0534527D01*
X0912498Y0535021D01*
X0912522Y0535371D01*
X0912448Y0535657D01*
Y0535657D01*
X0912427Y0535769D01*
X0912394Y0535945D01*
X0912348Y0536534D01*
X0913145Y0536865D01*
X0913971Y0537498D01*
X0914605Y0538324D01*
X0915003Y0539286D01*
X0915139Y0540317D01*
X0915003Y0541349D01*
X0914605Y0542311D01*
X0913971Y0543137D01*
X0913145Y0543770D01*
X0912337Y0544105D01*
X0912394Y0544824D01*
X0912448Y0545111D01*
X0912522Y0545398D01*
X0912522Y0545398D01*
X0912519Y0545884D01*
X0912806Y0547693D01*
X0912871Y0548106D01*
X0912931Y0548362D01*
X0913018Y0548671D01*
X0913018Y0548671D01*
X0913081Y0549161D01*
X0913606Y0551349D01*
X0913632Y0551437D01*
X0913779Y0551900D01*
D01*
X0913899Y0552385D01*
X0914071Y0552914D01*
X0914656Y0552837D01*
X0915687Y0552973D01*
X0916649Y0553371D01*
X0917475Y0554005D01*
X0918108Y0554831D01*
X0918507Y0555792D01*
X0918643Y0556824D01*
X0918507Y0557856D01*
X0918108Y0558818D01*
X0917475Y0559643D01*
X0917001Y0560007D01*
X0917334Y0560660D01*
X0917347Y0560685D01*
X0917535Y0561001D01*
X0917551Y0561006D01*
X0917583Y0561083D01*
X0917803Y0561492D01*
X0918994Y0563437D01*
X0919296Y0563828D01*
X0919329Y0563908D01*
X0919592Y0564331D01*
X0920958Y0566211D01*
X0921261Y0566496D01*
X0921388Y0566710D01*
X0921414Y0566753D01*
X0921575Y0566990D01*
X0921936Y0567412D01*
X0922151Y0567247D01*
X0923112Y0566848D01*
X0924144Y0566712D01*
X0925176Y0566848D01*
X0926138Y0567247D01*
X0926963Y0567880D01*
X0927597Y0568706D01*
X0927995Y0569667D01*
X0928131Y0570699D01*
X0927995Y0571731D01*
X0927597Y0572693D01*
X0927432Y0572908D01*
X0927915Y0573320D01*
X0927935Y0573337D01*
X0927940Y0573340D01*
X0928347Y0573582D01*
X0928347D01*
X0928347Y0573586D01*
X0928684Y0573923D01*
X0930512Y0575251D01*
X0930936Y0575514D01*
X0931015Y0575547D01*
X0931406Y0575849D01*
X0933351Y0577041D01*
X0933405Y0577070D01*
X0933837Y0577292D01*
X0933837Y0577292D01*
X0934264Y0577551D01*
X0935897Y0578383D01*
X0936343Y0578610D01*
X0936632Y0578736D01*
X0936799Y0578808D01*
X0936799Y0578808D01*
X0937245Y0579021D01*
X0939317Y0579880D01*
X0939781Y0580043D01*
X0939781Y0580043D01*
X0939832Y0580063D01*
X0939971Y0580118D01*
X0940322Y0580251D01*
X0942540Y0580971D01*
X0942548Y0580974D01*
X0942928Y0581072D01*
X0942943Y0581064D01*
X0943020Y0581096D01*
X0943495Y0581237D01*
X0945804Y0581792D01*
X0946173Y0581826D01*
X0946481Y0581912D01*
X0946481Y0581912D01*
X0946592Y0581938D01*
X0946738Y0581972D01*
X0947150Y0582037D01*
X0949362Y0582388D01*
X0949446Y0582321D01*
X0949534Y0582358D01*
X0950025Y0582450D01*
X0950674Y0582501D01*
X0951006Y0581698D01*
D02*
G37*
G36*
X0836833D02*
X0837467Y0580872D01*
X0838292Y0580239D01*
X0839254Y0579840D01*
X0840286Y0579705D01*
X0841318Y0579840D01*
X0842279Y0580239D01*
X0843105Y0580872D01*
X0843739Y0581698D01*
X0844071Y0582501D01*
X0844725Y0582449D01*
X0845013Y0582395D01*
X0845299Y0582321D01*
X0845299Y0582321D01*
X0845785Y0582324D01*
X0847595Y0582037D01*
X0848007Y0581972D01*
X0848264Y0581912D01*
X0848572Y0581826D01*
X0848572Y0581826D01*
X0849063Y0581763D01*
X0851250Y0581237D01*
X0851338Y0581211D01*
X0851802Y0581064D01*
D01*
X0852287Y0580945D01*
X0852890Y0580749D01*
X0852832Y0580312D01*
X0852968Y0579280D01*
X0853366Y0578319D01*
X0854000Y0577493D01*
X0854826Y0576859D01*
X0855787Y0576461D01*
X0856819Y0576325D01*
X0857851Y0576461D01*
X0858813Y0576859D01*
X0859638Y0577493D01*
X0859907Y0577843D01*
X0860562Y0577509D01*
X0860586Y0577497D01*
X0860903Y0577309D01*
X0860907Y0577292D01*
X0860985Y0577260D01*
X0861394Y0577041D01*
X0863339Y0575849D01*
X0863730Y0575547D01*
X0863809Y0575514D01*
X0864233Y0575251D01*
X0866113Y0573886D01*
X0866398Y0573582D01*
X0866612Y0573455D01*
X0866655Y0573429D01*
X0866891Y0573268D01*
X0867313Y0572908D01*
X0867148Y0572693D01*
X0866750Y0571731D01*
X0866614Y0570699D01*
X0866750Y0569667D01*
X0867148Y0568706D01*
X0867782Y0567880D01*
X0868607Y0567247D01*
X0869569Y0566848D01*
X0870601Y0566712D01*
X0871633Y0566848D01*
X0872594Y0567247D01*
X0872809Y0567412D01*
X0873222Y0566928D01*
X0873274Y0566848D01*
X0873357Y0566709D01*
X0873484Y0566496D01*
X0873484Y0566496D01*
X0873828Y0566154D01*
X0875153Y0564331D01*
X0875416Y0563908D01*
X0875449Y0563828D01*
X0875751Y0563437D01*
X0876942Y0561492D01*
X0876971Y0561438D01*
X0877194Y0561006D01*
X0877194Y0561006D01*
X0877452Y0560579D01*
X0877787Y0559923D01*
X0877306Y0559554D01*
X0876673Y0558729D01*
X0876275Y0557767D01*
X0876139Y0556735D01*
X0876275Y0555703D01*
X0876673Y0554742D01*
X0877306Y0553916D01*
X0878132Y0553282D01*
X0879094Y0552884D01*
X0880126Y0552748D01*
X0880704Y0552824D01*
X0880873Y0552303D01*
X0880875Y0552295D01*
X0880974Y0551915D01*
X0880966Y0551900D01*
X0880998Y0551823D01*
X0881139Y0551349D01*
X0881693Y0549040D01*
X0881727Y0548671D01*
X0881814Y0548362D01*
X0881814Y0548362D01*
X0881840Y0548252D01*
X0881874Y0548106D01*
X0881939Y0547693D01*
X0882169Y0546242D01*
X0882247Y0545748D01*
X0882223Y0545398D01*
X0882297Y0545111D01*
Y0545111D01*
X0882318Y0545000D01*
X0882351Y0544824D01*
X0882407Y0544116D01*
X0881572Y0543770D01*
X0880746Y0543137D01*
X0880113Y0542311D01*
X0879714Y0541349D01*
X0879578Y0540317D01*
X0879714Y0539286D01*
X0880113Y0538324D01*
X0880746Y0537498D01*
X0881572Y0536865D01*
X0882397Y0536523D01*
X0882351Y0535945D01*
X0882297Y0535657D01*
X0882223Y0535371D01*
X0882223Y0535371D01*
X0882226Y0534885D01*
X0881939Y0533076D01*
X0881874Y0532663D01*
X0881814Y0532406D01*
X0881727Y0532098D01*
X0881727Y0532098D01*
X0881664Y0531608D01*
X0881139Y0529420D01*
X0881113Y0529332D01*
X0880966Y0528868D01*
D01*
X0880846Y0528384D01*
X0880127Y0526170D01*
X0879969Y0525768D01*
X0879945Y0525707D01*
X0879945Y0525706D01*
X0879781Y0525242D01*
X0878921Y0523164D01*
X0878710Y0522725D01*
X0878710Y0522724D01*
X0878646Y0522578D01*
X0878630Y0522542D01*
X0878472Y0522191D01*
X0878284Y0521822D01*
X0877411Y0520108D01*
X0877398Y0520084D01*
X0877211Y0519767D01*
X0877194Y0519763D01*
X0877162Y0519685D01*
X0876942Y0519276D01*
X0875751Y0517332D01*
X0875449Y0516940D01*
X0875416Y0516861D01*
X0875153Y0516437D01*
X0873787Y0514557D01*
X0873484Y0514272D01*
X0873357Y0514059D01*
X0873331Y0514015D01*
X0873170Y0513779D01*
X0872712Y0513243D01*
X0872026Y0513527D01*
X0870994Y0513662D01*
X0869963Y0513527D01*
X0869001Y0513128D01*
X0868175Y0512495D01*
X0867542Y0511669D01*
X0867144Y0510708D01*
X0867008Y0509676D01*
X0867144Y0508644D01*
X0867427Y0507959D01*
X0866830Y0507448D01*
X0866750Y0507396D01*
X0866611Y0507313D01*
X0866398Y0507187D01*
X0866398Y0507187D01*
X0866056Y0506842D01*
X0864233Y0505517D01*
X0863809Y0505254D01*
X0863730Y0505222D01*
X0863339Y0504920D01*
X0861394Y0503728D01*
X0861340Y0503699D01*
X0860908Y0503476D01*
X0860907Y0503476D01*
X0860481Y0503218D01*
X0859829Y0502886D01*
X0859683Y0503076D01*
X0858858Y0503709D01*
X0857896Y0504107D01*
X0856864Y0504243D01*
X0855832Y0504107D01*
X0854871Y0503709D01*
X0854045Y0503076D01*
X0853411Y0502250D01*
X0853013Y0501288D01*
X0852877Y0500256D01*
X0852908Y0500026D01*
X0852205Y0499797D01*
X0852197Y0499795D01*
X0851817Y0499696D01*
X0851802Y0499705D01*
X0851725Y0499673D01*
X0851250Y0499531D01*
X0848941Y0498977D01*
X0848572Y0498943D01*
X0848264Y0498857D01*
X0848264Y0498856D01*
X0848153Y0498831D01*
X0848007Y0498797D01*
X0847595Y0498731D01*
X0846144Y0498501D01*
X0845650Y0498423D01*
X0845299Y0498447D01*
X0845013Y0498373D01*
X0845013D01*
X0844901Y0498352D01*
X0844725Y0498319D01*
X0844044Y0498266D01*
X0843711Y0499071D01*
X0843077Y0499896D01*
X0842252Y0500530D01*
X0841290Y0500928D01*
X0840258Y0501064D01*
X0839226Y0500928D01*
X0838265Y0500530D01*
X0837439Y0499896D01*
X0836806Y0499071D01*
X0836474Y0498270D01*
X0835846Y0498319D01*
X0835559Y0498373D01*
X0835272Y0498447D01*
X0835272Y0498447D01*
X0834787Y0498445D01*
X0832977Y0498731D01*
X0832564Y0498797D01*
X0832308Y0498856D01*
X0831999Y0498943D01*
X0831999Y0498943D01*
X0831509Y0499006D01*
X0829321Y0499531D01*
X0829234Y0499557D01*
X0828770Y0499705D01*
D01*
X0828285Y0499824D01*
X0827626Y0500038D01*
X0827652Y0500239D01*
X0827516Y0501270D01*
X0827118Y0502232D01*
X0826484Y0503058D01*
X0825659Y0503691D01*
X0824697Y0504090D01*
X0823665Y0504225D01*
X0822633Y0504090D01*
X0821672Y0503691D01*
X0820846Y0503058D01*
X0820722Y0502896D01*
X0820010Y0503259D01*
X0819986Y0503272D01*
X0819669Y0503460D01*
X0819664Y0503476D01*
X0819587Y0503508D01*
X0819178Y0503728D01*
X0817233Y0504920D01*
X0816842Y0505222D01*
X0816763Y0505254D01*
X0816339Y0505517D01*
X0814459Y0506883D01*
X0814174Y0507187D01*
X0813960Y0507313D01*
X0813917Y0507339D01*
X0813681Y0507501D01*
X0813144Y0507959D01*
X0813428Y0508644D01*
X0813564Y0509676D01*
X0813428Y0510708D01*
X0813030Y0511669D01*
X0812396Y0512495D01*
X0811571Y0513128D01*
X0810609Y0513527D01*
X0809577Y0513662D01*
X0808545Y0513527D01*
X0807860Y0513243D01*
X0807350Y0513840D01*
X0807298Y0513920D01*
X0807214Y0514059D01*
X0807088Y0514272D01*
X0807088Y0514272D01*
X0806743Y0514614D01*
X0805419Y0516437D01*
X0805156Y0516861D01*
X0805123Y0516940D01*
X0804821Y0517332D01*
X0803629Y0519276D01*
X0803600Y0519330D01*
X0803378Y0519763D01*
X0803378Y0519763D01*
X0803119Y0520190D01*
X0802061Y0522268D01*
X0801935Y0522557D01*
X0801862Y0522724D01*
X0801862Y0522724D01*
X0801649Y0523170D01*
X0800790Y0525242D01*
X0800627Y0525706D01*
X0800627Y0525706D01*
X0800607Y0525758D01*
X0800552Y0525896D01*
X0800420Y0526247D01*
X0799699Y0528465D01*
X0799696Y0528473D01*
X0799598Y0528853D01*
X0799606Y0528868D01*
X0799574Y0528945D01*
X0799433Y0529420D01*
X0798879Y0531729D01*
X0798845Y0532098D01*
X0798758Y0532406D01*
X0798758Y0532407D01*
X0798732Y0532517D01*
X0798698Y0532663D01*
X0798633Y0533076D01*
X0798403Y0534527D01*
X0798325Y0535021D01*
X0798349Y0535371D01*
X0798275Y0535657D01*
Y0535657D01*
X0798254Y0535769D01*
X0798221Y0535945D01*
X0798174Y0536534D01*
X0798972Y0536865D01*
X0799798Y0537498D01*
X0800432Y0538324D01*
X0800830Y0539286D01*
X0800966Y0540317D01*
X0800830Y0541349D01*
X0800432Y0542311D01*
X0799798Y0543137D01*
X0798972Y0543770D01*
X0798164Y0544105D01*
X0798221Y0544824D01*
X0798275Y0545111D01*
X0798349Y0545398D01*
X0798349Y0545398D01*
X0798346Y0545884D01*
X0798633Y0547693D01*
X0798698Y0548106D01*
X0798758Y0548362D01*
X0798845Y0548671D01*
X0798845Y0548671D01*
X0798908Y0549161D01*
X0799433Y0551349D01*
X0799459Y0551437D01*
X0799606Y0551900D01*
D01*
X0799725Y0552385D01*
X0799897Y0552914D01*
X0800482Y0552837D01*
X0801514Y0552973D01*
X0802476Y0553371D01*
X0803302Y0554005D01*
X0803935Y0554831D01*
X0804333Y0555792D01*
X0804469Y0556824D01*
X0804333Y0557856D01*
X0803935Y0558818D01*
X0803302Y0559643D01*
X0802828Y0560007D01*
X0803161Y0560660D01*
X0803174Y0560685D01*
X0803361Y0561001D01*
X0803378Y0561006D01*
X0803410Y0561083D01*
X0803629Y0561492D01*
X0804821Y0563437D01*
X0805123Y0563828D01*
X0805156Y0563908D01*
X0805419Y0564331D01*
X0806785Y0566211D01*
X0807088Y0566496D01*
X0807215Y0566710D01*
X0807241Y0566753D01*
X0807402Y0566990D01*
X0807763Y0567412D01*
X0807977Y0567247D01*
X0808939Y0566848D01*
X0809971Y0566712D01*
X0811003Y0566848D01*
X0811964Y0567247D01*
X0812790Y0567880D01*
X0813424Y0568706D01*
X0813822Y0569667D01*
X0813958Y0570699D01*
X0813822Y0571731D01*
X0813424Y0572693D01*
X0813259Y0572908D01*
X0813742Y0573320D01*
X0813762Y0573337D01*
X0813767Y0573340D01*
X0814174Y0573582D01*
X0814174D01*
X0814174Y0573586D01*
X0814511Y0573923D01*
X0816339Y0575251D01*
X0816763Y0575514D01*
X0816842Y0575547D01*
X0817233Y0575849D01*
X0819178Y0577041D01*
X0819232Y0577070D01*
X0819664Y0577292D01*
X0819664Y0577292D01*
X0820091Y0577551D01*
X0821724Y0578383D01*
X0822169Y0578610D01*
X0822459Y0578736D01*
X0822626Y0578808D01*
X0822626Y0578808D01*
X0823071Y0579021D01*
X0825144Y0579880D01*
X0825607Y0580043D01*
X0825608Y0580043D01*
X0825659Y0580063D01*
X0825798Y0580118D01*
X0826149Y0580251D01*
X0828367Y0580971D01*
X0828375Y0580974D01*
X0828755Y0581072D01*
X0828770Y0581064D01*
X0828847Y0581096D01*
X0829321Y0581237D01*
X0831631Y0581792D01*
X0831999Y0581826D01*
X0832308Y0581912D01*
X0832308Y0581912D01*
X0832419Y0581938D01*
X0832564Y0581972D01*
X0832977Y0582037D01*
X0835189Y0582388D01*
X0835272Y0582321D01*
X0835361Y0582358D01*
X0835852Y0582450D01*
X0836501Y0582501D01*
X0836833Y0581698D01*
D02*
G37*
G36*
X1179353D02*
X1179986Y0580872D01*
X1180812Y0580239D01*
X1181774Y0579840D01*
X1182806Y0579705D01*
X1183837Y0579840D01*
X1184799Y0580239D01*
X1185625Y0580872D01*
X1186258Y0581698D01*
X1186591Y0582501D01*
X1187245Y0582449D01*
X1187533Y0582395D01*
X1187819Y0582321D01*
X1187819Y0582321D01*
X1188305Y0582324D01*
X1190114Y0582037D01*
X1190527Y0581972D01*
X1190784Y0581912D01*
X1191092Y0581826D01*
X1191092Y0581826D01*
X1191582Y0581763D01*
X1193770Y0581237D01*
X1193858Y0581211D01*
X1194322Y0581064D01*
D01*
X1194806Y0580945D01*
X1195409Y0580749D01*
X1195352Y0580312D01*
X1195488Y0579280D01*
X1195886Y0578319D01*
X1196520Y0577493D01*
X1197345Y0576859D01*
X1198307Y0576461D01*
X1199339Y0576325D01*
X1200371Y0576461D01*
X1201332Y0576859D01*
X1202158Y0577493D01*
X1202427Y0577843D01*
X1203082Y0577509D01*
X1203106Y0577497D01*
X1203423Y0577309D01*
X1203427Y0577292D01*
X1203505Y0577260D01*
X1203914Y0577041D01*
X1205858Y0575849D01*
X1206250Y0575547D01*
X1206329Y0575514D01*
X1206753Y0575251D01*
X1208632Y0573886D01*
X1208918Y0573582D01*
X1209131Y0573455D01*
X1209175Y0573429D01*
X1209411Y0573268D01*
X1209833Y0572908D01*
X1209668Y0572693D01*
X1209270Y0571731D01*
X1209134Y0570699D01*
X1209270Y0569667D01*
X1209668Y0568706D01*
X1210301Y0567880D01*
X1211127Y0567247D01*
X1212089Y0566848D01*
X1213120Y0566712D01*
X1214152Y0566848D01*
X1215114Y0567247D01*
X1215329Y0567412D01*
X1215742Y0566928D01*
X1215794Y0566848D01*
X1215877Y0566709D01*
X1216003Y0566496D01*
X1216003Y0566496D01*
X1216348Y0566154D01*
X1217673Y0564331D01*
X1217935Y0563908D01*
X1217968Y0563828D01*
X1218270Y0563437D01*
X1219462Y0561492D01*
X1219491Y0561438D01*
X1219714Y0561006D01*
X1219714Y0561006D01*
X1219972Y0560579D01*
X1220306Y0559923D01*
X1219826Y0559554D01*
X1219193Y0558729D01*
X1218794Y0557767D01*
X1218659Y0556735D01*
X1218794Y0555703D01*
X1219193Y0554742D01*
X1219826Y0553916D01*
X1220652Y0553282D01*
X1221614Y0552884D01*
X1222645Y0552748D01*
X1223223Y0552824D01*
X1223393Y0552303D01*
X1223395Y0552295D01*
X1223493Y0551915D01*
X1223485Y0551900D01*
X1223517Y0551823D01*
X1223658Y0551349D01*
X1224213Y0549040D01*
X1224247Y0548671D01*
X1224333Y0548362D01*
X1224333Y0548362D01*
X1224359Y0548252D01*
X1224393Y0548106D01*
X1224459Y0547693D01*
X1224689Y0546242D01*
X1224767Y0545748D01*
X1224743Y0545398D01*
X1224817Y0545111D01*
Y0545111D01*
X1224837Y0545000D01*
X1224871Y0544824D01*
X1224926Y0544116D01*
X1224092Y0543770D01*
X1223266Y0543137D01*
X1222632Y0542311D01*
X1222234Y0541349D01*
X1222098Y0540317D01*
X1222234Y0539286D01*
X1222632Y0538324D01*
X1223266Y0537498D01*
X1224092Y0536865D01*
X1224916Y0536523D01*
X1224871Y0535945D01*
X1224817Y0535657D01*
X1224743Y0535371D01*
X1224743Y0535371D01*
X1224745Y0534885D01*
X1224459Y0533076D01*
X1224393Y0532663D01*
X1224333Y0532406D01*
X1224247Y0532098D01*
X1224247Y0532098D01*
X1224184Y0531608D01*
X1223658Y0529420D01*
X1223632Y0529332D01*
X1223485Y0528868D01*
D01*
X1223366Y0528384D01*
X1222647Y0526170D01*
X1222489Y0525768D01*
X1222465Y0525707D01*
X1222464Y0525706D01*
X1222301Y0525242D01*
X1221440Y0523164D01*
X1221230Y0522725D01*
X1221229Y0522724D01*
X1221166Y0522578D01*
X1221150Y0522542D01*
X1220992Y0522191D01*
X1220804Y0521822D01*
X1219930Y0520108D01*
X1219918Y0520084D01*
X1219730Y0519767D01*
X1219714Y0519763D01*
X1219682Y0519685D01*
X1219462Y0519276D01*
X1218270Y0517332D01*
X1217968Y0516940D01*
X1217935Y0516861D01*
X1217673Y0516437D01*
X1216307Y0514557D01*
X1216003Y0514272D01*
X1215877Y0514059D01*
X1215851Y0514015D01*
X1215689Y0513779D01*
X1215231Y0513243D01*
X1214546Y0513527D01*
X1213514Y0513662D01*
X1212482Y0513527D01*
X1211521Y0513128D01*
X1210695Y0512495D01*
X1210061Y0511669D01*
X1209663Y0510708D01*
X1209527Y0509676D01*
X1209663Y0508644D01*
X1209947Y0507959D01*
X1209349Y0507448D01*
X1209270Y0507396D01*
X1209130Y0507313D01*
X1208918Y0507187D01*
X1208918Y0507187D01*
X1208576Y0506842D01*
X1206753Y0505517D01*
X1206329Y0505254D01*
X1206250Y0505222D01*
X1205858Y0504920D01*
X1203914Y0503728D01*
X1203860Y0503699D01*
X1203427Y0503476D01*
X1203427Y0503476D01*
X1203000Y0503218D01*
X1202349Y0502886D01*
X1202203Y0503076D01*
X1201377Y0503709D01*
X1200416Y0504107D01*
X1199384Y0504243D01*
X1198352Y0504107D01*
X1197390Y0503709D01*
X1196565Y0503076D01*
X1195931Y0502250D01*
X1195533Y0501288D01*
X1195397Y0500256D01*
X1195427Y0500026D01*
X1194724Y0499797D01*
X1194717Y0499795D01*
X1194337Y0499696D01*
X1194322Y0499705D01*
X1194244Y0499673D01*
X1193770Y0499531D01*
X1191461Y0498977D01*
X1191092Y0498943D01*
X1190784Y0498857D01*
X1190783Y0498856D01*
X1190673Y0498831D01*
X1190527Y0498797D01*
X1190114Y0498731D01*
X1188663Y0498501D01*
X1188169Y0498423D01*
X1187819Y0498447D01*
X1187533Y0498373D01*
X1187533D01*
X1187421Y0498352D01*
X1187245Y0498319D01*
X1186564Y0498266D01*
X1186231Y0499071D01*
X1185597Y0499896D01*
X1184771Y0500530D01*
X1183810Y0500928D01*
X1182778Y0501064D01*
X1181746Y0500928D01*
X1180785Y0500530D01*
X1179959Y0499896D01*
X1179325Y0499071D01*
X1178994Y0498270D01*
X1178366Y0498319D01*
X1178078Y0498373D01*
X1177792Y0498447D01*
X1177792Y0498447D01*
X1177306Y0498445D01*
X1175497Y0498731D01*
X1175084Y0498797D01*
X1174828Y0498856D01*
X1174519Y0498943D01*
X1174519Y0498943D01*
X1174029Y0499006D01*
X1171841Y0499531D01*
X1171753Y0499557D01*
X1171289Y0499705D01*
D01*
X1170805Y0499824D01*
X1170145Y0500038D01*
X1170172Y0500239D01*
X1170036Y0501270D01*
X1169637Y0502232D01*
X1169004Y0503058D01*
X1168178Y0503691D01*
X1167217Y0504090D01*
X1166185Y0504225D01*
X1165153Y0504090D01*
X1164191Y0503691D01*
X1163366Y0503058D01*
X1163242Y0502896D01*
X1162529Y0503259D01*
X1162505Y0503272D01*
X1162189Y0503460D01*
X1162184Y0503476D01*
X1162107Y0503508D01*
X1161697Y0503728D01*
X1159753Y0504920D01*
X1159361Y0505222D01*
X1159282Y0505254D01*
X1158858Y0505517D01*
X1156979Y0506883D01*
X1156693Y0507187D01*
X1156480Y0507313D01*
X1156437Y0507339D01*
X1156200Y0507501D01*
X1155664Y0507959D01*
X1155948Y0508644D01*
X1156084Y0509676D01*
X1155948Y0510708D01*
X1155550Y0511669D01*
X1154916Y0512495D01*
X1154090Y0513128D01*
X1153129Y0513527D01*
X1152097Y0513662D01*
X1151065Y0513527D01*
X1150380Y0513243D01*
X1149869Y0513840D01*
X1149817Y0513920D01*
X1149734Y0514059D01*
X1149608Y0514272D01*
X1149608Y0514272D01*
X1149263Y0514614D01*
X1147939Y0516437D01*
X1147676Y0516861D01*
X1147643Y0516940D01*
X1147341Y0517332D01*
X1146149Y0519276D01*
X1146120Y0519330D01*
X1145897Y0519763D01*
X1145897Y0519763D01*
X1145639Y0520190D01*
X1144580Y0522268D01*
X1144454Y0522557D01*
X1144382Y0522724D01*
X1144382Y0522724D01*
X1144168Y0523170D01*
X1143310Y0525242D01*
X1143147Y0525706D01*
X1143147Y0525706D01*
X1143126Y0525758D01*
X1143072Y0525896D01*
X1142939Y0526247D01*
X1142218Y0528465D01*
X1142216Y0528473D01*
X1142118Y0528853D01*
X1142126Y0528868D01*
X1142094Y0528945D01*
X1141953Y0529420D01*
X1141398Y0531729D01*
X1141364Y0532098D01*
X1141278Y0532406D01*
X1141278Y0532407D01*
X1141252Y0532517D01*
X1141218Y0532663D01*
X1141152Y0533076D01*
X1140923Y0534527D01*
X1140844Y0535021D01*
X1140868Y0535371D01*
X1140795Y0535657D01*
Y0535657D01*
X1140774Y0535769D01*
X1140740Y0535945D01*
X1140694Y0536534D01*
X1141492Y0536865D01*
X1142318Y0537498D01*
X1142951Y0538324D01*
X1143349Y0539286D01*
X1143485Y0540317D01*
X1143349Y0541349D01*
X1142951Y0542311D01*
X1142318Y0543137D01*
X1141492Y0543770D01*
X1140684Y0544105D01*
X1140740Y0544824D01*
X1140795Y0545111D01*
X1140868Y0545398D01*
X1140868Y0545398D01*
X1140866Y0545884D01*
X1141152Y0547693D01*
X1141218Y0548106D01*
X1141278Y0548362D01*
X1141364Y0548671D01*
X1141364Y0548671D01*
X1141427Y0549161D01*
X1141953Y0551349D01*
X1141979Y0551437D01*
X1142126Y0551900D01*
D01*
X1142245Y0552385D01*
X1142417Y0552914D01*
X1143002Y0552837D01*
X1144034Y0552973D01*
X1144996Y0553371D01*
X1145821Y0554005D01*
X1146455Y0554831D01*
X1146853Y0555792D01*
X1146989Y0556824D01*
X1146853Y0557856D01*
X1146455Y0558818D01*
X1145821Y0559643D01*
X1145348Y0560007D01*
X1145681Y0560660D01*
X1145693Y0560685D01*
X1145881Y0561001D01*
X1145897Y0561006D01*
X1145930Y0561083D01*
X1146149Y0561492D01*
X1147341Y0563437D01*
X1147643Y0563828D01*
X1147676Y0563908D01*
X1147939Y0564331D01*
X1149304Y0566211D01*
X1149608Y0566496D01*
X1149735Y0566710D01*
X1149760Y0566753D01*
X1149922Y0566990D01*
X1150282Y0567412D01*
X1150497Y0567247D01*
X1151459Y0566848D01*
X1152491Y0566712D01*
X1153522Y0566848D01*
X1154484Y0567247D01*
X1155310Y0567880D01*
X1155943Y0568706D01*
X1156342Y0569667D01*
X1156478Y0570699D01*
X1156342Y0571731D01*
X1155943Y0572693D01*
X1155778Y0572908D01*
X1156262Y0573321D01*
X1156341Y0573373D01*
X1156481Y0573456D01*
X1156693Y0573582D01*
X1156693Y0573582D01*
X1157035Y0573927D01*
X1158858Y0575251D01*
X1159282Y0575514D01*
X1159361Y0575547D01*
X1159753Y0575849D01*
X1161697Y0577041D01*
X1161751Y0577070D01*
X1162184Y0577292D01*
X1162184Y0577292D01*
X1162611Y0577551D01*
X1164243Y0578383D01*
X1164689Y0578610D01*
X1164979Y0578736D01*
X1165145Y0578808D01*
X1165146Y0578808D01*
X1165591Y0579021D01*
X1167663Y0579880D01*
X1168127Y0580043D01*
X1168127Y0580043D01*
X1168179Y0580063D01*
X1168317Y0580118D01*
X1168668Y0580251D01*
X1170887Y0580971D01*
X1170895Y0580974D01*
X1171275Y0581072D01*
X1171289Y0581064D01*
X1171367Y0581096D01*
X1171841Y0581237D01*
X1174150Y0581792D01*
X1174519Y0581826D01*
X1174828Y0581912D01*
X1174828Y0581912D01*
X1174938Y0581938D01*
X1175084Y0581972D01*
X1175497Y0582037D01*
X1176948Y0582267D01*
X1177442Y0582346D01*
X1177792Y0582321D01*
X1178078Y0582395D01*
X1178079D01*
X1178190Y0582416D01*
X1178366Y0582449D01*
X1179020Y0582501D01*
X1179353Y0581698D01*
D02*
G37*
G36*
X1065180D02*
X1065813Y0580872D01*
X1066639Y0580239D01*
X1067601Y0579840D01*
X1068632Y0579705D01*
X1069664Y0579840D01*
X1070626Y0580239D01*
X1071451Y0580872D01*
X1072085Y0581698D01*
X1072418Y0582501D01*
X1073072Y0582449D01*
X1073359Y0582395D01*
X1073646Y0582321D01*
X1073646Y0582321D01*
X1074131Y0582324D01*
X1075941Y0582037D01*
X1076354Y0581972D01*
X1076610Y0581912D01*
X1076919Y0581826D01*
X1076919Y0581826D01*
X1077409Y0581763D01*
X1079597Y0581237D01*
X1079685Y0581211D01*
X1080149Y0581064D01*
D01*
X1080633Y0580945D01*
X1081236Y0580749D01*
X1081179Y0580312D01*
X1081314Y0579280D01*
X1081713Y0578319D01*
X1082346Y0577493D01*
X1083172Y0576859D01*
X1084134Y0576461D01*
X1085166Y0576325D01*
X1086197Y0576461D01*
X1087159Y0576859D01*
X1087985Y0577493D01*
X1088253Y0577843D01*
X1088908Y0577509D01*
X1088933Y0577497D01*
X1089249Y0577309D01*
X1089254Y0577292D01*
X1089331Y0577260D01*
X1089740Y0577041D01*
X1091685Y0575849D01*
X1092076Y0575547D01*
X1092156Y0575514D01*
X1092579Y0575251D01*
X1094459Y0573886D01*
X1094744Y0573582D01*
X1094958Y0573455D01*
X1095001Y0573429D01*
X1095238Y0573268D01*
X1095660Y0572908D01*
X1095495Y0572693D01*
X1095096Y0571731D01*
X1094960Y0570699D01*
X1095096Y0569667D01*
X1095495Y0568706D01*
X1096128Y0567880D01*
X1096954Y0567247D01*
X1097915Y0566848D01*
X1098947Y0566712D01*
X1099979Y0566848D01*
X1100941Y0567247D01*
X1101156Y0567412D01*
X1101569Y0566928D01*
X1101621Y0566848D01*
X1101704Y0566709D01*
X1101830Y0566496D01*
X1101830Y0566496D01*
X1102175Y0566154D01*
X1103499Y0564331D01*
X1103762Y0563908D01*
X1103795Y0563828D01*
X1104097Y0563437D01*
X1105289Y0561492D01*
X1105318Y0561438D01*
X1105540Y0561006D01*
X1105540Y0561006D01*
X1105799Y0560579D01*
X1106133Y0559923D01*
X1105653Y0559554D01*
X1105019Y0558729D01*
X1104621Y0557767D01*
X1104485Y0556735D01*
X1104621Y0555703D01*
X1105019Y0554742D01*
X1105653Y0553916D01*
X1106479Y0553282D01*
X1107440Y0552884D01*
X1108472Y0552748D01*
X1109050Y0552824D01*
X1109219Y0552303D01*
X1109222Y0552295D01*
X1109320Y0551915D01*
X1109312Y0551900D01*
X1109344Y0551823D01*
X1109485Y0551349D01*
X1110040Y0549040D01*
X1110074Y0548671D01*
X1110160Y0548362D01*
X1110160Y0548362D01*
X1110186Y0548252D01*
X1110220Y0548106D01*
X1110285Y0547693D01*
X1110515Y0546242D01*
X1110594Y0545748D01*
X1110569Y0545398D01*
X1110643Y0545111D01*
Y0545111D01*
X1110664Y0545000D01*
X1110697Y0544824D01*
X1110753Y0544116D01*
X1109918Y0543770D01*
X1109093Y0543137D01*
X1108459Y0542311D01*
X1108061Y0541349D01*
X1107925Y0540317D01*
X1108061Y0539286D01*
X1108459Y0538324D01*
X1109093Y0537498D01*
X1109918Y0536865D01*
X1110743Y0536523D01*
X1110697Y0535945D01*
X1110643Y0535657D01*
X1110569Y0535371D01*
X1110569Y0535371D01*
X1110572Y0534885D01*
X1110285Y0533076D01*
X1110220Y0532663D01*
X1110160Y0532406D01*
X1110074Y0532098D01*
X1110074Y0532098D01*
X1110011Y0531608D01*
X1109485Y0529420D01*
X1109459Y0529332D01*
X1109312Y0528868D01*
D01*
X1109193Y0528384D01*
X1108474Y0526170D01*
X1108315Y0525768D01*
X1108292Y0525707D01*
X1108291Y0525706D01*
X1108128Y0525242D01*
X1107267Y0523164D01*
X1107057Y0522725D01*
X1107056Y0522724D01*
X1106992Y0522578D01*
X1106977Y0522542D01*
X1106819Y0522191D01*
X1106631Y0521822D01*
X1105757Y0520108D01*
X1105745Y0520084D01*
X1105557Y0519767D01*
X1105540Y0519763D01*
X1105508Y0519685D01*
X1105289Y0519276D01*
X1104097Y0517332D01*
X1103795Y0516940D01*
X1103762Y0516861D01*
X1103499Y0516437D01*
X1102134Y0514557D01*
X1101830Y0514272D01*
X1101703Y0514059D01*
X1101678Y0514015D01*
X1101516Y0513779D01*
X1101058Y0513243D01*
X1100373Y0513527D01*
X1099341Y0513662D01*
X1098309Y0513527D01*
X1097348Y0513128D01*
X1096522Y0512495D01*
X1095888Y0511669D01*
X1095490Y0510708D01*
X1095354Y0509676D01*
X1095490Y0508644D01*
X1095774Y0507959D01*
X1095176Y0507448D01*
X1095096Y0507396D01*
X1094957Y0507313D01*
X1094744Y0507187D01*
X1094744Y0507187D01*
X1094403Y0506842D01*
X1092579Y0505517D01*
X1092156Y0505254D01*
X1092076Y0505222D01*
X1091685Y0504920D01*
X1089740Y0503728D01*
X1089686Y0503699D01*
X1089254Y0503476D01*
X1089254Y0503476D01*
X1088827Y0503218D01*
X1088175Y0502886D01*
X1088030Y0503076D01*
X1087204Y0503709D01*
X1086242Y0504107D01*
X1085211Y0504243D01*
X1084179Y0504107D01*
X1083217Y0503709D01*
X1082391Y0503076D01*
X1081758Y0502250D01*
X1081360Y0501288D01*
X1081224Y0500256D01*
X1081254Y0500026D01*
X1080551Y0499797D01*
X1080543Y0499795D01*
X1080163Y0499696D01*
X1080149Y0499705D01*
X1080071Y0499673D01*
X1079597Y0499531D01*
X1077288Y0498977D01*
X1076919Y0498943D01*
X1076610Y0498857D01*
X1076610Y0498856D01*
X1076500Y0498831D01*
X1076354Y0498797D01*
X1075941Y0498731D01*
X1074490Y0498501D01*
X1073996Y0498423D01*
X1073646Y0498447D01*
X1073359Y0498373D01*
X1073359D01*
X1073248Y0498352D01*
X1073072Y0498319D01*
X1072391Y0498266D01*
X1072058Y0499071D01*
X1071424Y0499896D01*
X1070598Y0500530D01*
X1069637Y0500928D01*
X1068605Y0501064D01*
X1067573Y0500928D01*
X1066611Y0500530D01*
X1065786Y0499896D01*
X1065152Y0499071D01*
X1064820Y0498270D01*
X1064193Y0498319D01*
X1063905Y0498373D01*
X1063619Y0498447D01*
X1063619Y0498447D01*
X1063133Y0498445D01*
X1061324Y0498731D01*
X1060911Y0498797D01*
X1060654Y0498856D01*
X1060346Y0498943D01*
X1060346Y0498943D01*
X1059856Y0499006D01*
X1057668Y0499531D01*
X1057580Y0499557D01*
X1057116Y0499705D01*
D01*
X1056632Y0499824D01*
X1055972Y0500038D01*
X1055998Y0500239D01*
X1055863Y0501270D01*
X1055464Y0502232D01*
X1054831Y0503058D01*
X1054005Y0503691D01*
X1053043Y0504090D01*
X1052012Y0504225D01*
X1050980Y0504090D01*
X1050018Y0503691D01*
X1049192Y0503058D01*
X1049069Y0502896D01*
X1048356Y0503259D01*
X1048332Y0503272D01*
X1048015Y0503460D01*
X1048011Y0503476D01*
X1047933Y0503508D01*
X1047524Y0503728D01*
X1045580Y0504920D01*
X1045188Y0505222D01*
X1045109Y0505254D01*
X1044685Y0505517D01*
X1042805Y0506883D01*
X1042520Y0507187D01*
X1042307Y0507313D01*
X1042263Y0507339D01*
X1042027Y0507501D01*
X1041491Y0507959D01*
X1041775Y0508644D01*
X1041910Y0509676D01*
X1041775Y0510708D01*
X1041376Y0511669D01*
X1040743Y0512495D01*
X1039917Y0513128D01*
X1038956Y0513527D01*
X1037924Y0513662D01*
X1036892Y0513527D01*
X1036207Y0513243D01*
X1035696Y0513840D01*
X1035644Y0513920D01*
X1035561Y0514059D01*
X1035435Y0514272D01*
X1035435Y0514272D01*
X1035090Y0514614D01*
X1033765Y0516437D01*
X1033502Y0516861D01*
X1033470Y0516940D01*
X1033168Y0517332D01*
X1031976Y0519276D01*
X1031947Y0519330D01*
X1031724Y0519763D01*
X1031724Y0519763D01*
X1031466Y0520190D01*
X1030407Y0522268D01*
X1030281Y0522557D01*
X1030209Y0522724D01*
X1030208Y0522724D01*
X1029995Y0523170D01*
X1029137Y0525242D01*
X1028973Y0525706D01*
X1028973Y0525706D01*
X1028953Y0525758D01*
X1028899Y0525896D01*
X1028766Y0526247D01*
X1028045Y0528465D01*
X1028043Y0528473D01*
X1027944Y0528853D01*
X1027953Y0528868D01*
X1027921Y0528945D01*
X1027779Y0529420D01*
X1027225Y0531729D01*
X1027191Y0532098D01*
X1027105Y0532406D01*
X1027105Y0532407D01*
X1027079Y0532517D01*
X1027044Y0532663D01*
X1026979Y0533076D01*
X1026749Y0534527D01*
X1026671Y0535021D01*
X1026695Y0535371D01*
X1026621Y0535657D01*
Y0535657D01*
X1026600Y0535769D01*
X1026567Y0535945D01*
X1026521Y0536534D01*
X1027319Y0536865D01*
X1028144Y0537498D01*
X1028778Y0538324D01*
X1029176Y0539286D01*
X1029312Y0540317D01*
X1029176Y0541349D01*
X1028778Y0542311D01*
X1028144Y0543137D01*
X1027319Y0543770D01*
X1026511Y0544105D01*
X1026567Y0544824D01*
X1026621Y0545111D01*
X1026695Y0545398D01*
X1026695Y0545398D01*
X1026692Y0545884D01*
X1026979Y0547693D01*
X1027044Y0548106D01*
X1027105Y0548362D01*
X1027191Y0548671D01*
X1027191Y0548671D01*
X1027254Y0549161D01*
X1027779Y0551349D01*
X1027806Y0551437D01*
X1027953Y0551900D01*
D01*
X1028072Y0552385D01*
X1028244Y0552914D01*
X1028829Y0552837D01*
X1029861Y0552973D01*
X1030822Y0553371D01*
X1031648Y0554005D01*
X1032282Y0554831D01*
X1032680Y0555792D01*
X1032816Y0556824D01*
X1032680Y0557856D01*
X1032282Y0558818D01*
X1031648Y0559643D01*
X1031174Y0560007D01*
X1031507Y0560660D01*
X1031520Y0560685D01*
X1031708Y0561001D01*
X1031724Y0561006D01*
X1031756Y0561083D01*
X1031976Y0561492D01*
X1033168Y0563437D01*
X1033470Y0563828D01*
X1033502Y0563908D01*
X1033765Y0564331D01*
X1035131Y0566211D01*
X1035435Y0566496D01*
X1035561Y0566710D01*
X1035587Y0566753D01*
X1035749Y0566990D01*
X1036109Y0567412D01*
X1036324Y0567247D01*
X1037286Y0566848D01*
X1038317Y0566712D01*
X1039349Y0566848D01*
X1040311Y0567247D01*
X1041136Y0567880D01*
X1041770Y0568706D01*
X1042168Y0569667D01*
X1042304Y0570699D01*
X1042168Y0571731D01*
X1041770Y0572693D01*
X1041605Y0572908D01*
X1042089Y0573321D01*
X1042168Y0573373D01*
X1042307Y0573456D01*
X1042520Y0573582D01*
X1042520Y0573582D01*
X1042862Y0573927D01*
X1044685Y0575251D01*
X1045109Y0575514D01*
X1045188Y0575547D01*
X1045580Y0575849D01*
X1047524Y0577041D01*
X1047578Y0577070D01*
X1048011Y0577292D01*
X1048011Y0577292D01*
X1048437Y0577551D01*
X1050070Y0578383D01*
X1050516Y0578610D01*
X1050805Y0578736D01*
X1050972Y0578808D01*
X1050972Y0578808D01*
X1051418Y0579021D01*
X1053490Y0579880D01*
X1053954Y0580043D01*
X1053954Y0580043D01*
X1054006Y0580063D01*
X1054144Y0580118D01*
X1054495Y0580251D01*
X1056713Y0580971D01*
X1056721Y0580974D01*
X1057101Y0581072D01*
X1057116Y0581064D01*
X1057193Y0581096D01*
X1057668Y0581237D01*
X1059977Y0581792D01*
X1060346Y0581826D01*
X1060654Y0581912D01*
X1060655Y0581912D01*
X1060765Y0581938D01*
X1060911Y0581972D01*
X1061324Y0582037D01*
X1062775Y0582267D01*
X1063269Y0582346D01*
X1063619Y0582321D01*
X1063905Y0582395D01*
X1063905D01*
X1064017Y0582416D01*
X1064193Y0582449D01*
X1064847Y0582501D01*
X1065180Y0581698D01*
D02*
G37*
G36*
X0951006Y0475399D02*
X0951640Y0474573D01*
X0952466Y0473940D01*
X0953427Y0473541D01*
X0954459Y0473405D01*
X0955491Y0473541D01*
X0956452Y0473940D01*
X0957278Y0474573D01*
X0957912Y0475399D01*
X0958244Y0476202D01*
X0958899Y0476150D01*
X0959186Y0476096D01*
X0959473Y0476022D01*
X0959473Y0476022D01*
X0959958Y0476025D01*
X0961768Y0475738D01*
X0962181Y0475673D01*
X0962437Y0475613D01*
X0962745Y0475526D01*
X0962745Y0475526D01*
X0963236Y0475463D01*
X0965424Y0474938D01*
X0965511Y0474912D01*
X0965975Y0474765D01*
D01*
X0966460Y0474646D01*
X0967063Y0474450D01*
X0967005Y0474013D01*
X0967141Y0472981D01*
X0967540Y0472019D01*
X0968173Y0471194D01*
X0968999Y0470560D01*
X0969960Y0470162D01*
X0970992Y0470026D01*
X0972024Y0470162D01*
X0972986Y0470560D01*
X0973811Y0471194D01*
X0974080Y0471544D01*
X0974735Y0471210D01*
X0974759Y0471198D01*
X0975076Y0471010D01*
X0975081Y0470993D01*
X0975158Y0470961D01*
X0975567Y0470742D01*
X0977512Y0469550D01*
X0977903Y0469248D01*
X0977982Y0469215D01*
X0978406Y0468952D01*
X0980286Y0467586D01*
X0980571Y0467283D01*
X0980785Y0467156D01*
X0980828Y0467130D01*
X0981064Y0466969D01*
X0981486Y0466608D01*
X0981321Y0466394D01*
X0980923Y0465432D01*
X0980787Y0464400D01*
X0980923Y0463368D01*
X0981321Y0462407D01*
X0981955Y0461581D01*
X0982781Y0460947D01*
X0983742Y0460549D01*
X0984774Y0460413D01*
X0985806Y0460549D01*
X0986767Y0460947D01*
X0986983Y0461112D01*
X0987395Y0460629D01*
X0987447Y0460549D01*
X0987531Y0460410D01*
X0987657Y0460197D01*
X0987657Y0460197D01*
X0988002Y0459855D01*
X0989326Y0458032D01*
X0989589Y0457608D01*
X0989622Y0457529D01*
X0989924Y0457138D01*
X0991116Y0455193D01*
X0991145Y0455139D01*
X0991367Y0454707D01*
X0991367Y0454707D01*
X0991625Y0454280D01*
X0991960Y0453623D01*
X0991480Y0453255D01*
X0990846Y0452429D01*
X0990448Y0451468D01*
X0990312Y0450436D01*
X0990448Y0449404D01*
X0990846Y0448443D01*
X0991480Y0447617D01*
X0992305Y0446983D01*
X0993267Y0446585D01*
X0994299Y0446449D01*
X0994877Y0446525D01*
X0995046Y0446004D01*
X0995049Y0445996D01*
X0995147Y0445616D01*
X0995139Y0445601D01*
X0995171Y0445524D01*
X0995312Y0445050D01*
X0995866Y0442740D01*
X0995900Y0442372D01*
X0995987Y0442063D01*
X0995987Y0442063D01*
X0996013Y0441953D01*
X0996047Y0441807D01*
X0996112Y0441394D01*
X0996342Y0439943D01*
X0996420Y0439449D01*
X0996396Y0439099D01*
X0996470Y0438812D01*
Y0438812D01*
X0996491Y0438700D01*
X0996524Y0438525D01*
X0996580Y0437817D01*
X0995745Y0437471D01*
X0994919Y0436837D01*
X0994286Y0436012D01*
X0993888Y0435050D01*
X0993752Y0434018D01*
X0993888Y0432986D01*
X0994286Y0432025D01*
X0994919Y0431199D01*
X0995745Y0430566D01*
X0996570Y0430224D01*
X0996524Y0429646D01*
X0996470Y0429358D01*
X0996396Y0429072D01*
X0996396Y0429072D01*
X0996399Y0428586D01*
X0996112Y0426776D01*
X0996047Y0426364D01*
X0995987Y0426107D01*
X0995900Y0425799D01*
X0995900Y0425799D01*
X0995837Y0425309D01*
X0995312Y0423121D01*
X0995286Y0423033D01*
X0995139Y0422569D01*
D01*
X0995020Y0422085D01*
X0994300Y0419871D01*
X0994142Y0419468D01*
X0994118Y0419407D01*
X0994118Y0419407D01*
X0993954Y0418943D01*
X0993094Y0416865D01*
X0992883Y0416425D01*
X0992883Y0416425D01*
X0992819Y0416278D01*
X0992804Y0416243D01*
X0992645Y0415892D01*
X0992457Y0415523D01*
X0991584Y0413809D01*
X0991572Y0413785D01*
X0991384Y0413468D01*
X0991367Y0413463D01*
X0991335Y0413386D01*
X0991116Y0412977D01*
X0989924Y0411032D01*
X0989622Y0410641D01*
X0989589Y0410562D01*
X0989326Y0410138D01*
X0987960Y0408258D01*
X0987657Y0407973D01*
X0987530Y0407759D01*
X0987504Y0407716D01*
X0987343Y0407480D01*
X0986885Y0406944D01*
X0986200Y0407228D01*
X0985168Y0407363D01*
X0984136Y0407228D01*
X0983174Y0406829D01*
X0982349Y0406196D01*
X0981715Y0405370D01*
X0981317Y0404408D01*
X0981181Y0403376D01*
X0981317Y0402345D01*
X0981601Y0401659D01*
X0981003Y0401149D01*
X0980923Y0401097D01*
X0980784Y0401014D01*
X0980571Y0400887D01*
X0980571Y0400887D01*
X0980229Y0400543D01*
X0978406Y0399218D01*
X0977982Y0398955D01*
X0977903Y0398922D01*
X0977512Y0398620D01*
X0975567Y0397429D01*
X0975513Y0397400D01*
X0975081Y0397177D01*
X0975081Y0397177D01*
X0974654Y0396919D01*
X0974002Y0396587D01*
X0973857Y0396776D01*
X0973031Y0397410D01*
X0972069Y0397808D01*
X0971037Y0397944D01*
X0970006Y0397808D01*
X0969044Y0397410D01*
X0968218Y0396776D01*
X0967585Y0395951D01*
X0967186Y0394989D01*
X0967050Y0393957D01*
X0967081Y0393726D01*
X0966378Y0393498D01*
X0966370Y0393496D01*
X0965990Y0393397D01*
X0965975Y0393406D01*
X0965898Y0393373D01*
X0965424Y0393232D01*
X0963114Y0392678D01*
X0962745Y0392644D01*
X0962437Y0392557D01*
X0962437Y0392557D01*
X0962326Y0392531D01*
X0962181Y0392497D01*
X0961768Y0392432D01*
X0960317Y0392202D01*
X0959823Y0392124D01*
X0959473Y0392148D01*
X0959186Y0392074D01*
X0959186D01*
X0959074Y0392053D01*
X0958899Y0392020D01*
X0958218Y0391966D01*
X0957884Y0392772D01*
X0957251Y0393597D01*
X0956425Y0394231D01*
X0955463Y0394629D01*
X0954432Y0394765D01*
X0953400Y0394629D01*
X0952438Y0394231D01*
X0951612Y0393597D01*
X0950979Y0392772D01*
X0950647Y0391971D01*
X0950020Y0392020D01*
X0949732Y0392074D01*
X0949446Y0392148D01*
X0949446Y0392148D01*
X0948960Y0392145D01*
X0947150Y0392432D01*
X0946738Y0392497D01*
X0946481Y0392557D01*
X0946173Y0392644D01*
X0946173Y0392644D01*
X0945683Y0392707D01*
X0943495Y0393232D01*
X0943407Y0393258D01*
X0942943Y0393406D01*
D01*
X0942459Y0393525D01*
X0941799Y0393739D01*
X0941825Y0393939D01*
X0941689Y0394971D01*
X0941291Y0395933D01*
X0940658Y0396759D01*
X0939832Y0397392D01*
X0938870Y0397790D01*
X0937838Y0397926D01*
X0936806Y0397790D01*
X0935845Y0397392D01*
X0935019Y0396759D01*
X0934895Y0396597D01*
X0934183Y0396960D01*
X0934159Y0396973D01*
X0933842Y0397161D01*
X0933837Y0397177D01*
X0933760Y0397209D01*
X0933351Y0397429D01*
X0931406Y0398620D01*
X0931015Y0398922D01*
X0930936Y0398955D01*
X0930512Y0399218D01*
X0928632Y0400584D01*
X0928347Y0400887D01*
X0928133Y0401014D01*
X0928090Y0401040D01*
X0927854Y0401201D01*
X0927318Y0401659D01*
X0927602Y0402345D01*
X0927737Y0403376D01*
X0927602Y0404408D01*
X0927203Y0405370D01*
X0926570Y0406196D01*
X0925744Y0406829D01*
X0924782Y0407228D01*
X0923750Y0407363D01*
X0922719Y0407228D01*
X0922033Y0406944D01*
X0921523Y0407541D01*
X0921471Y0407621D01*
X0921388Y0407760D01*
X0921261Y0407973D01*
X0921261Y0407973D01*
X0920917Y0408315D01*
X0919592Y0410138D01*
X0919329Y0410562D01*
X0919296Y0410641D01*
X0918994Y0411032D01*
X0917803Y0412977D01*
X0917774Y0413031D01*
X0917551Y0413463D01*
X0917551Y0413463D01*
X0917293Y0413890D01*
X0916234Y0415968D01*
X0916108Y0416258D01*
X0916035Y0416425D01*
X0916035Y0416425D01*
X0915822Y0416870D01*
X0914964Y0418943D01*
X0914800Y0419407D01*
X0914800Y0419407D01*
X0914780Y0419458D01*
X0914725Y0419597D01*
X0914593Y0419948D01*
X0913872Y0422166D01*
X0913869Y0422174D01*
X0913771Y0422554D01*
X0913779Y0422569D01*
X0913747Y0422646D01*
X0913606Y0423121D01*
X0913052Y0425430D01*
X0913018Y0425799D01*
X0912931Y0426107D01*
X0912931Y0426107D01*
X0912905Y0426218D01*
X0912871Y0426364D01*
X0912806Y0426776D01*
X0912576Y0428228D01*
X0912498Y0428721D01*
X0912522Y0429072D01*
X0912448Y0429358D01*
Y0429358D01*
X0912427Y0429470D01*
X0912394Y0429646D01*
X0912348Y0430235D01*
X0913145Y0430566D01*
X0913971Y0431199D01*
X0914605Y0432025D01*
X0915003Y0432986D01*
X0915139Y0434018D01*
X0915003Y0435050D01*
X0914605Y0436012D01*
X0913971Y0436837D01*
X0913145Y0437471D01*
X0912337Y0437806D01*
X0912394Y0438525D01*
X0912448Y0438812D01*
X0912522Y0439099D01*
X0912522Y0439099D01*
X0912519Y0439584D01*
X0912806Y0441394D01*
X0912871Y0441807D01*
X0912931Y0442063D01*
X0913018Y0442372D01*
X0913018Y0442372D01*
X0913081Y0442862D01*
X0913606Y0445050D01*
X0913632Y0445137D01*
X0913779Y0445601D01*
D01*
X0913899Y0446086D01*
X0914071Y0446615D01*
X0914656Y0446538D01*
X0915687Y0446674D01*
X0916649Y0447072D01*
X0917475Y0447706D01*
X0918108Y0448531D01*
X0918507Y0449493D01*
X0918643Y0450525D01*
X0918507Y0451557D01*
X0918108Y0452518D01*
X0917475Y0453344D01*
X0917001Y0453708D01*
X0917334Y0454361D01*
X0917347Y0454385D01*
X0917535Y0454702D01*
X0917551Y0454707D01*
X0917583Y0454784D01*
X0917803Y0455193D01*
X0918994Y0457138D01*
X0919296Y0457529D01*
X0919329Y0457608D01*
X0919592Y0458032D01*
X0920958Y0459912D01*
X0921261Y0460197D01*
X0921388Y0460411D01*
X0921414Y0460454D01*
X0921575Y0460690D01*
X0921936Y0461112D01*
X0922151Y0460947D01*
X0923112Y0460549D01*
X0924144Y0460413D01*
X0925176Y0460549D01*
X0926138Y0460947D01*
X0926963Y0461581D01*
X0927597Y0462407D01*
X0927995Y0463368D01*
X0928131Y0464400D01*
X0927995Y0465432D01*
X0927597Y0466394D01*
X0927432Y0466608D01*
X0927915Y0467021D01*
X0927935Y0467038D01*
X0927940Y0467041D01*
X0928347Y0467283D01*
X0928347D01*
X0928347Y0467287D01*
X0928684Y0467624D01*
X0930512Y0468952D01*
X0930936Y0469215D01*
X0931015Y0469248D01*
X0931406Y0469550D01*
X0933351Y0470742D01*
X0933405Y0470771D01*
X0933837Y0470993D01*
X0933837Y0470993D01*
X0934264Y0471251D01*
X0935897Y0472083D01*
X0936343Y0472310D01*
X0936632Y0472437D01*
X0936799Y0472509D01*
X0936799Y0472509D01*
X0937245Y0472722D01*
X0939317Y0473581D01*
X0939781Y0473744D01*
X0939781Y0473744D01*
X0939832Y0473764D01*
X0939971Y0473819D01*
X0940322Y0473951D01*
X0942540Y0474672D01*
X0942548Y0474675D01*
X0942928Y0474773D01*
X0942943Y0474765D01*
X0943020Y0474797D01*
X0943495Y0474938D01*
X0945804Y0475492D01*
X0946173Y0475526D01*
X0946481Y0475613D01*
X0946481Y0475613D01*
X0946592Y0475639D01*
X0946738Y0475673D01*
X0947150Y0475738D01*
X0949362Y0476089D01*
X0949446Y0476022D01*
X0949534Y0476059D01*
X0950025Y0476151D01*
X0950674Y0476202D01*
X0951006Y0475399D01*
D02*
G37*
G36*
X0836833D02*
X0837467Y0474573D01*
X0838292Y0473940D01*
X0839254Y0473541D01*
X0840286Y0473405D01*
X0841318Y0473541D01*
X0842279Y0473940D01*
X0843105Y0474573D01*
X0843739Y0475399D01*
X0844071Y0476202D01*
X0844725Y0476150D01*
X0845013Y0476096D01*
X0845299Y0476022D01*
X0845299Y0476022D01*
X0845785Y0476025D01*
X0847595Y0475738D01*
X0848007Y0475673D01*
X0848264Y0475613D01*
X0848572Y0475526D01*
X0848572Y0475526D01*
X0849063Y0475463D01*
X0851250Y0474938D01*
X0851338Y0474912D01*
X0851802Y0474765D01*
D01*
X0852287Y0474646D01*
X0852890Y0474450D01*
X0852832Y0474013D01*
X0852968Y0472981D01*
X0853366Y0472019D01*
X0854000Y0471194D01*
X0854826Y0470560D01*
X0855787Y0470162D01*
X0856819Y0470026D01*
X0857851Y0470162D01*
X0858813Y0470560D01*
X0859638Y0471194D01*
X0859907Y0471544D01*
X0860562Y0471210D01*
X0860586Y0471198D01*
X0860903Y0471010D01*
X0860907Y0470993D01*
X0860985Y0470961D01*
X0861394Y0470742D01*
X0863339Y0469550D01*
X0863730Y0469248D01*
X0863809Y0469215D01*
X0864233Y0468952D01*
X0866113Y0467586D01*
X0866398Y0467283D01*
X0866612Y0467156D01*
X0866655Y0467130D01*
X0866891Y0466969D01*
X0867313Y0466608D01*
X0867148Y0466394D01*
X0866750Y0465432D01*
X0866614Y0464400D01*
X0866750Y0463368D01*
X0867148Y0462407D01*
X0867782Y0461581D01*
X0868607Y0460947D01*
X0869569Y0460549D01*
X0870601Y0460413D01*
X0871633Y0460549D01*
X0872594Y0460947D01*
X0872809Y0461112D01*
X0873222Y0460629D01*
X0873274Y0460549D01*
X0873357Y0460410D01*
X0873484Y0460197D01*
X0873484Y0460197D01*
X0873828Y0459855D01*
X0875153Y0458032D01*
X0875416Y0457608D01*
X0875449Y0457529D01*
X0875751Y0457138D01*
X0876942Y0455193D01*
X0876971Y0455139D01*
X0877194Y0454707D01*
X0877194Y0454707D01*
X0877452Y0454280D01*
X0877787Y0453623D01*
X0877306Y0453255D01*
X0876673Y0452429D01*
X0876275Y0451468D01*
X0876139Y0450436D01*
X0876275Y0449404D01*
X0876673Y0448443D01*
X0877306Y0447617D01*
X0878132Y0446983D01*
X0879094Y0446585D01*
X0880126Y0446449D01*
X0880704Y0446525D01*
X0880873Y0446004D01*
X0880875Y0445996D01*
X0880974Y0445616D01*
X0880966Y0445601D01*
X0880998Y0445524D01*
X0881139Y0445050D01*
X0881693Y0442740D01*
X0881727Y0442372D01*
X0881814Y0442063D01*
X0881814Y0442063D01*
X0881840Y0441953D01*
X0881874Y0441807D01*
X0881939Y0441394D01*
X0882169Y0439943D01*
X0882247Y0439449D01*
X0882223Y0439099D01*
X0882297Y0438812D01*
Y0438812D01*
X0882318Y0438700D01*
X0882351Y0438525D01*
X0882407Y0437817D01*
X0881572Y0437471D01*
X0880746Y0436837D01*
X0880113Y0436012D01*
X0879714Y0435050D01*
X0879578Y0434018D01*
X0879714Y0432986D01*
X0880113Y0432025D01*
X0880746Y0431199D01*
X0881572Y0430566D01*
X0882397Y0430224D01*
X0882351Y0429646D01*
X0882297Y0429358D01*
X0882223Y0429072D01*
X0882223Y0429072D01*
X0882226Y0428586D01*
X0881939Y0426776D01*
X0881874Y0426364D01*
X0881814Y0426107D01*
X0881727Y0425799D01*
X0881727Y0425799D01*
X0881664Y0425309D01*
X0881139Y0423121D01*
X0881113Y0423033D01*
X0880966Y0422569D01*
D01*
X0880846Y0422085D01*
X0880127Y0419871D01*
X0879969Y0419468D01*
X0879945Y0419407D01*
X0879945Y0419407D01*
X0879781Y0418943D01*
X0878921Y0416865D01*
X0878710Y0416425D01*
X0878710Y0416425D01*
X0878646Y0416278D01*
X0878630Y0416243D01*
X0878472Y0415892D01*
X0878284Y0415523D01*
X0877411Y0413809D01*
X0877398Y0413785D01*
X0877211Y0413468D01*
X0877194Y0413463D01*
X0877162Y0413386D01*
X0876942Y0412977D01*
X0875751Y0411032D01*
X0875449Y0410641D01*
X0875416Y0410562D01*
X0875153Y0410138D01*
X0873787Y0408258D01*
X0873484Y0407973D01*
X0873357Y0407759D01*
X0873331Y0407716D01*
X0873170Y0407480D01*
X0872712Y0406944D01*
X0872026Y0407228D01*
X0870994Y0407363D01*
X0869963Y0407228D01*
X0869001Y0406829D01*
X0868175Y0406196D01*
X0867542Y0405370D01*
X0867144Y0404408D01*
X0867008Y0403376D01*
X0867144Y0402345D01*
X0867427Y0401659D01*
X0866830Y0401149D01*
X0866750Y0401097D01*
X0866611Y0401014D01*
X0866398Y0400887D01*
X0866398Y0400887D01*
X0866056Y0400543D01*
X0864233Y0399218D01*
X0863809Y0398955D01*
X0863730Y0398922D01*
X0863339Y0398620D01*
X0861394Y0397429D01*
X0861340Y0397400D01*
X0860908Y0397177D01*
X0860907Y0397177D01*
X0860481Y0396919D01*
X0859829Y0396587D01*
X0859683Y0396776D01*
X0858858Y0397410D01*
X0857896Y0397808D01*
X0856864Y0397944D01*
X0855832Y0397808D01*
X0854871Y0397410D01*
X0854045Y0396776D01*
X0853411Y0395951D01*
X0853013Y0394989D01*
X0852877Y0393957D01*
X0852908Y0393726D01*
X0852205Y0393498D01*
X0852197Y0393496D01*
X0851817Y0393397D01*
X0851802Y0393406D01*
X0851725Y0393373D01*
X0851250Y0393232D01*
X0848941Y0392678D01*
X0848572Y0392644D01*
X0848264Y0392557D01*
X0848264Y0392557D01*
X0848153Y0392531D01*
X0848007Y0392497D01*
X0847595Y0392432D01*
X0846144Y0392202D01*
X0845650Y0392124D01*
X0845299Y0392148D01*
X0845013Y0392074D01*
X0845013D01*
X0844901Y0392053D01*
X0844725Y0392020D01*
X0844044Y0391966D01*
X0843711Y0392772D01*
X0843077Y0393597D01*
X0842252Y0394231D01*
X0841290Y0394629D01*
X0840258Y0394765D01*
X0839226Y0394629D01*
X0838265Y0394231D01*
X0837439Y0393597D01*
X0836806Y0392772D01*
X0836474Y0391971D01*
X0835846Y0392020D01*
X0835559Y0392074D01*
X0835272Y0392148D01*
X0835272Y0392148D01*
X0834787Y0392145D01*
X0832977Y0392432D01*
X0832564Y0392497D01*
X0832308Y0392557D01*
X0831999Y0392644D01*
X0831999Y0392644D01*
X0831509Y0392707D01*
X0829321Y0393232D01*
X0829234Y0393258D01*
X0828770Y0393406D01*
D01*
X0828285Y0393525D01*
X0827626Y0393739D01*
X0827652Y0393939D01*
X0827516Y0394971D01*
X0827118Y0395933D01*
X0826484Y0396759D01*
X0825659Y0397392D01*
X0824697Y0397790D01*
X0823665Y0397926D01*
X0822633Y0397790D01*
X0821672Y0397392D01*
X0820846Y0396759D01*
X0820722Y0396597D01*
X0820010Y0396960D01*
X0819986Y0396973D01*
X0819669Y0397161D01*
X0819664Y0397177D01*
X0819587Y0397209D01*
X0819178Y0397429D01*
X0817233Y0398620D01*
X0816842Y0398922D01*
X0816763Y0398955D01*
X0816339Y0399218D01*
X0814459Y0400584D01*
X0814174Y0400887D01*
X0813960Y0401014D01*
X0813917Y0401040D01*
X0813681Y0401201D01*
X0813144Y0401659D01*
X0813428Y0402345D01*
X0813564Y0403376D01*
X0813428Y0404408D01*
X0813030Y0405370D01*
X0812396Y0406196D01*
X0811571Y0406829D01*
X0810609Y0407228D01*
X0809577Y0407363D01*
X0808545Y0407228D01*
X0807860Y0406944D01*
X0807350Y0407541D01*
X0807298Y0407621D01*
X0807214Y0407760D01*
X0807088Y0407973D01*
X0807088Y0407973D01*
X0806743Y0408315D01*
X0805419Y0410138D01*
X0805156Y0410562D01*
X0805123Y0410641D01*
X0804821Y0411032D01*
X0803629Y0412977D01*
X0803600Y0413031D01*
X0803378Y0413463D01*
X0803378Y0413463D01*
X0803119Y0413890D01*
X0802061Y0415968D01*
X0801935Y0416258D01*
X0801862Y0416425D01*
X0801862Y0416425D01*
X0801649Y0416870D01*
X0800790Y0418943D01*
X0800627Y0419407D01*
X0800627Y0419407D01*
X0800607Y0419458D01*
X0800552Y0419597D01*
X0800420Y0419948D01*
X0799699Y0422166D01*
X0799696Y0422174D01*
X0799598Y0422554D01*
X0799606Y0422569D01*
X0799574Y0422646D01*
X0799433Y0423121D01*
X0798879Y0425430D01*
X0798845Y0425799D01*
X0798758Y0426107D01*
X0798758Y0426107D01*
X0798732Y0426218D01*
X0798698Y0426364D01*
X0798633Y0426776D01*
X0798403Y0428228D01*
X0798325Y0428721D01*
X0798349Y0429072D01*
X0798275Y0429358D01*
Y0429358D01*
X0798254Y0429470D01*
X0798221Y0429646D01*
X0798174Y0430235D01*
X0798972Y0430566D01*
X0799798Y0431199D01*
X0800432Y0432025D01*
X0800830Y0432986D01*
X0800966Y0434018D01*
X0800830Y0435050D01*
X0800432Y0436012D01*
X0799798Y0436837D01*
X0798972Y0437471D01*
X0798164Y0437806D01*
X0798221Y0438525D01*
X0798275Y0438812D01*
X0798349Y0439099D01*
X0798349Y0439099D01*
X0798346Y0439584D01*
X0798633Y0441394D01*
X0798698Y0441807D01*
X0798758Y0442063D01*
X0798845Y0442372D01*
X0798845Y0442372D01*
X0798908Y0442862D01*
X0799433Y0445050D01*
X0799459Y0445137D01*
X0799606Y0445601D01*
D01*
X0799725Y0446086D01*
X0799897Y0446615D01*
X0800482Y0446538D01*
X0801514Y0446674D01*
X0802476Y0447072D01*
X0803302Y0447706D01*
X0803935Y0448531D01*
X0804333Y0449493D01*
X0804469Y0450525D01*
X0804333Y0451557D01*
X0803935Y0452518D01*
X0803302Y0453344D01*
X0802828Y0453708D01*
X0803161Y0454361D01*
X0803174Y0454385D01*
X0803361Y0454702D01*
X0803378Y0454707D01*
X0803410Y0454784D01*
X0803629Y0455193D01*
X0804821Y0457138D01*
X0805123Y0457529D01*
X0805156Y0457608D01*
X0805419Y0458032D01*
X0806785Y0459912D01*
X0807088Y0460197D01*
X0807215Y0460411D01*
X0807241Y0460454D01*
X0807402Y0460690D01*
X0807763Y0461112D01*
X0807977Y0460947D01*
X0808939Y0460549D01*
X0809971Y0460413D01*
X0811003Y0460549D01*
X0811964Y0460947D01*
X0812790Y0461581D01*
X0813424Y0462407D01*
X0813822Y0463368D01*
X0813958Y0464400D01*
X0813822Y0465432D01*
X0813424Y0466394D01*
X0813259Y0466608D01*
X0813742Y0467021D01*
X0813762Y0467038D01*
X0813767Y0467041D01*
X0814174Y0467283D01*
X0814174D01*
X0814174Y0467287D01*
X0814511Y0467624D01*
X0816339Y0468952D01*
X0816763Y0469215D01*
X0816842Y0469248D01*
X0817233Y0469550D01*
X0819178Y0470742D01*
X0819232Y0470771D01*
X0819664Y0470993D01*
X0819664Y0470993D01*
X0820091Y0471251D01*
X0821724Y0472083D01*
X0822169Y0472310D01*
X0822459Y0472437D01*
X0822626Y0472509D01*
X0822626Y0472509D01*
X0823071Y0472722D01*
X0825144Y0473581D01*
X0825607Y0473744D01*
X0825608Y0473744D01*
X0825659Y0473764D01*
X0825798Y0473819D01*
X0826149Y0473951D01*
X0828367Y0474672D01*
X0828375Y0474675D01*
X0828755Y0474773D01*
X0828770Y0474765D01*
X0828847Y0474797D01*
X0829321Y0474938D01*
X0831631Y0475492D01*
X0831999Y0475526D01*
X0832308Y0475613D01*
X0832308Y0475613D01*
X0832419Y0475639D01*
X0832564Y0475673D01*
X0832977Y0475738D01*
X0835189Y0476089D01*
X0835272Y0476022D01*
X0835361Y0476059D01*
X0835852Y0476151D01*
X0836501Y0476202D01*
X0836833Y0475399D01*
D02*
G37*
G36*
X1179353D02*
X1179986Y0474573D01*
X1180812Y0473940D01*
X1181774Y0473541D01*
X1182806Y0473405D01*
X1183837Y0473541D01*
X1184799Y0473940D01*
X1185625Y0474573D01*
X1186258Y0475399D01*
X1186591Y0476202D01*
X1187245Y0476150D01*
X1187533Y0476096D01*
X1187819Y0476022D01*
X1187819Y0476022D01*
X1188305Y0476025D01*
X1190114Y0475738D01*
X1190527Y0475673D01*
X1190784Y0475613D01*
X1191092Y0475526D01*
X1191092Y0475526D01*
X1191582Y0475463D01*
X1193770Y0474938D01*
X1193858Y0474912D01*
X1194322Y0474765D01*
D01*
X1194806Y0474646D01*
X1195409Y0474450D01*
X1195352Y0474013D01*
X1195488Y0472981D01*
X1195886Y0472019D01*
X1196520Y0471194D01*
X1197345Y0470560D01*
X1198307Y0470162D01*
X1199339Y0470026D01*
X1200371Y0470162D01*
X1201332Y0470560D01*
X1202158Y0471194D01*
X1202427Y0471544D01*
X1203082Y0471210D01*
X1203106Y0471198D01*
X1203423Y0471010D01*
X1203427Y0470993D01*
X1203505Y0470961D01*
X1203914Y0470742D01*
X1205858Y0469550D01*
X1206250Y0469248D01*
X1206329Y0469215D01*
X1206753Y0468952D01*
X1208632Y0467586D01*
X1208918Y0467283D01*
X1209131Y0467156D01*
X1209175Y0467130D01*
X1209411Y0466969D01*
X1209833Y0466608D01*
X1209668Y0466394D01*
X1209270Y0465432D01*
X1209134Y0464400D01*
X1209270Y0463368D01*
X1209668Y0462407D01*
X1210301Y0461581D01*
X1211127Y0460947D01*
X1212089Y0460549D01*
X1213120Y0460413D01*
X1214152Y0460549D01*
X1215114Y0460947D01*
X1215329Y0461112D01*
X1215742Y0460629D01*
X1215794Y0460549D01*
X1215877Y0460410D01*
X1216003Y0460197D01*
X1216003Y0460197D01*
X1216348Y0459855D01*
X1217673Y0458032D01*
X1217935Y0457608D01*
X1217968Y0457529D01*
X1218270Y0457138D01*
X1219462Y0455193D01*
X1219491Y0455139D01*
X1219714Y0454707D01*
X1219714Y0454707D01*
X1219972Y0454280D01*
X1220306Y0453623D01*
X1219826Y0453255D01*
X1219193Y0452429D01*
X1218794Y0451468D01*
X1218659Y0450436D01*
X1218794Y0449404D01*
X1219193Y0448443D01*
X1219826Y0447617D01*
X1220652Y0446983D01*
X1221614Y0446585D01*
X1222645Y0446449D01*
X1223223Y0446525D01*
X1223393Y0446004D01*
X1223395Y0445996D01*
X1223493Y0445616D01*
X1223485Y0445601D01*
X1223517Y0445524D01*
X1223658Y0445050D01*
X1224213Y0442740D01*
X1224247Y0442372D01*
X1224333Y0442063D01*
X1224333Y0442063D01*
X1224359Y0441953D01*
X1224393Y0441807D01*
X1224459Y0441394D01*
X1224689Y0439943D01*
X1224767Y0439449D01*
X1224743Y0439099D01*
X1224817Y0438812D01*
Y0438812D01*
X1224837Y0438700D01*
X1224871Y0438525D01*
X1224926Y0437817D01*
X1224092Y0437471D01*
X1223266Y0436837D01*
X1222632Y0436012D01*
X1222234Y0435050D01*
X1222098Y0434018D01*
X1222234Y0432986D01*
X1222632Y0432025D01*
X1223266Y0431199D01*
X1224092Y0430566D01*
X1224916Y0430224D01*
X1224871Y0429646D01*
X1224817Y0429358D01*
X1224743Y0429072D01*
X1224743Y0429072D01*
X1224745Y0428586D01*
X1224459Y0426776D01*
X1224393Y0426364D01*
X1224333Y0426107D01*
X1224247Y0425799D01*
X1224247Y0425799D01*
X1224184Y0425309D01*
X1223658Y0423121D01*
X1223632Y0423033D01*
X1223485Y0422569D01*
D01*
X1223366Y0422085D01*
X1222647Y0419871D01*
X1222489Y0419468D01*
X1222465Y0419407D01*
X1222464Y0419407D01*
X1222301Y0418943D01*
X1221440Y0416865D01*
X1221230Y0416425D01*
X1221229Y0416425D01*
X1221166Y0416278D01*
X1221150Y0416243D01*
X1220992Y0415892D01*
X1220804Y0415523D01*
X1219930Y0413809D01*
X1219918Y0413785D01*
X1219730Y0413468D01*
X1219714Y0413463D01*
X1219682Y0413386D01*
X1219462Y0412977D01*
X1218270Y0411032D01*
X1217968Y0410641D01*
X1217935Y0410562D01*
X1217673Y0410138D01*
X1216307Y0408258D01*
X1216003Y0407973D01*
X1215877Y0407759D01*
X1215851Y0407716D01*
X1215689Y0407480D01*
X1215231Y0406944D01*
X1214546Y0407228D01*
X1213514Y0407363D01*
X1212482Y0407228D01*
X1211521Y0406829D01*
X1210695Y0406196D01*
X1210061Y0405370D01*
X1209663Y0404408D01*
X1209527Y0403376D01*
X1209663Y0402345D01*
X1209947Y0401659D01*
X1209349Y0401149D01*
X1209270Y0401097D01*
X1209130Y0401014D01*
X1208918Y0400887D01*
X1208918Y0400887D01*
X1208576Y0400543D01*
X1206753Y0399218D01*
X1206329Y0398955D01*
X1206250Y0398922D01*
X1205858Y0398620D01*
X1203914Y0397429D01*
X1203860Y0397400D01*
X1203427Y0397177D01*
X1203427Y0397177D01*
X1203000Y0396919D01*
X1202349Y0396587D01*
X1202203Y0396776D01*
X1201377Y0397410D01*
X1200416Y0397808D01*
X1199384Y0397944D01*
X1198352Y0397808D01*
X1197390Y0397410D01*
X1196565Y0396776D01*
X1195931Y0395951D01*
X1195533Y0394989D01*
X1195397Y0393957D01*
X1195427Y0393726D01*
X1194724Y0393498D01*
X1194717Y0393496D01*
X1194337Y0393397D01*
X1194322Y0393406D01*
X1194244Y0393373D01*
X1193770Y0393232D01*
X1191461Y0392678D01*
X1191092Y0392644D01*
X1190784Y0392557D01*
X1190783Y0392557D01*
X1190673Y0392531D01*
X1190527Y0392497D01*
X1190114Y0392432D01*
X1188663Y0392202D01*
X1188169Y0392124D01*
X1187819Y0392148D01*
X1187533Y0392074D01*
X1187533D01*
X1187421Y0392053D01*
X1187245Y0392020D01*
X1186564Y0391966D01*
X1186231Y0392772D01*
X1185597Y0393597D01*
X1184771Y0394231D01*
X1183810Y0394629D01*
X1182778Y0394765D01*
X1181746Y0394629D01*
X1180785Y0394231D01*
X1179959Y0393597D01*
X1179325Y0392772D01*
X1178994Y0391971D01*
X1178366Y0392020D01*
X1178078Y0392074D01*
X1177792Y0392148D01*
X1177792Y0392148D01*
X1177306Y0392145D01*
X1175497Y0392432D01*
X1175084Y0392497D01*
X1174828Y0392557D01*
X1174519Y0392644D01*
X1174519Y0392644D01*
X1174029Y0392707D01*
X1171841Y0393232D01*
X1171753Y0393258D01*
X1171289Y0393406D01*
D01*
X1170805Y0393525D01*
X1170145Y0393739D01*
X1170172Y0393939D01*
X1170036Y0394971D01*
X1169637Y0395933D01*
X1169004Y0396759D01*
X1168178Y0397392D01*
X1167217Y0397790D01*
X1166185Y0397926D01*
X1165153Y0397790D01*
X1164191Y0397392D01*
X1163366Y0396759D01*
X1163242Y0396597D01*
X1162529Y0396960D01*
X1162505Y0396973D01*
X1162189Y0397161D01*
X1162184Y0397177D01*
X1162107Y0397209D01*
X1161697Y0397429D01*
X1159753Y0398620D01*
X1159361Y0398922D01*
X1159282Y0398955D01*
X1158858Y0399218D01*
X1156979Y0400584D01*
X1156693Y0400887D01*
X1156480Y0401014D01*
X1156437Y0401040D01*
X1156200Y0401201D01*
X1155664Y0401659D01*
X1155948Y0402345D01*
X1156084Y0403376D01*
X1155948Y0404408D01*
X1155550Y0405370D01*
X1154916Y0406196D01*
X1154090Y0406829D01*
X1153129Y0407228D01*
X1152097Y0407363D01*
X1151065Y0407228D01*
X1150380Y0406944D01*
X1149869Y0407541D01*
X1149817Y0407621D01*
X1149734Y0407760D01*
X1149608Y0407973D01*
X1149608Y0407973D01*
X1149263Y0408315D01*
X1147939Y0410138D01*
X1147676Y0410562D01*
X1147643Y0410641D01*
X1147341Y0411032D01*
X1146149Y0412977D01*
X1146120Y0413031D01*
X1145897Y0413463D01*
X1145897Y0413463D01*
X1145639Y0413890D01*
X1144580Y0415968D01*
X1144454Y0416258D01*
X1144382Y0416425D01*
X1144382Y0416425D01*
X1144168Y0416870D01*
X1143310Y0418943D01*
X1143147Y0419407D01*
X1143147Y0419407D01*
X1143126Y0419458D01*
X1143072Y0419597D01*
X1142939Y0419948D01*
X1142218Y0422166D01*
X1142216Y0422174D01*
X1142118Y0422554D01*
X1142126Y0422569D01*
X1142094Y0422646D01*
X1141953Y0423121D01*
X1141398Y0425430D01*
X1141364Y0425799D01*
X1141278Y0426107D01*
X1141278Y0426107D01*
X1141252Y0426218D01*
X1141218Y0426364D01*
X1141152Y0426776D01*
X1140923Y0428228D01*
X1140844Y0428721D01*
X1140868Y0429072D01*
X1140795Y0429358D01*
Y0429358D01*
X1140774Y0429470D01*
X1140740Y0429646D01*
X1140694Y0430235D01*
X1141492Y0430566D01*
X1142318Y0431199D01*
X1142951Y0432025D01*
X1143349Y0432986D01*
X1143485Y0434018D01*
X1143349Y0435050D01*
X1142951Y0436012D01*
X1142318Y0436837D01*
X1141492Y0437471D01*
X1140684Y0437806D01*
X1140740Y0438525D01*
X1140795Y0438812D01*
X1140868Y0439099D01*
X1140868Y0439099D01*
X1140866Y0439584D01*
X1141152Y0441394D01*
X1141218Y0441807D01*
X1141278Y0442063D01*
X1141364Y0442372D01*
X1141364Y0442372D01*
X1141427Y0442862D01*
X1141953Y0445050D01*
X1141979Y0445137D01*
X1142126Y0445601D01*
D01*
X1142245Y0446086D01*
X1142417Y0446615D01*
X1143002Y0446538D01*
X1144034Y0446674D01*
X1144996Y0447072D01*
X1145821Y0447706D01*
X1146455Y0448531D01*
X1146853Y0449493D01*
X1146989Y0450525D01*
X1146853Y0451557D01*
X1146455Y0452518D01*
X1145821Y0453344D01*
X1145348Y0453708D01*
X1145681Y0454361D01*
X1145693Y0454385D01*
X1145881Y0454702D01*
X1145897Y0454707D01*
X1145930Y0454784D01*
X1146149Y0455193D01*
X1147341Y0457138D01*
X1147643Y0457529D01*
X1147676Y0457608D01*
X1147939Y0458032D01*
X1149304Y0459912D01*
X1149608Y0460197D01*
X1149735Y0460411D01*
X1149760Y0460454D01*
X1149922Y0460690D01*
X1150282Y0461112D01*
X1150497Y0460947D01*
X1151459Y0460549D01*
X1152491Y0460413D01*
X1153522Y0460549D01*
X1154484Y0460947D01*
X1155310Y0461581D01*
X1155943Y0462407D01*
X1156342Y0463368D01*
X1156478Y0464400D01*
X1156342Y0465432D01*
X1155943Y0466394D01*
X1155778Y0466608D01*
X1156262Y0467021D01*
X1156341Y0467073D01*
X1156481Y0467157D01*
X1156693Y0467283D01*
X1156693Y0467283D01*
X1157035Y0467628D01*
X1158858Y0468952D01*
X1159282Y0469215D01*
X1159361Y0469248D01*
X1159753Y0469550D01*
X1161697Y0470742D01*
X1161751Y0470771D01*
X1162184Y0470993D01*
X1162184Y0470993D01*
X1162611Y0471251D01*
X1164243Y0472083D01*
X1164689Y0472310D01*
X1164979Y0472437D01*
X1165145Y0472509D01*
X1165146Y0472509D01*
X1165591Y0472722D01*
X1167663Y0473581D01*
X1168127Y0473744D01*
X1168127Y0473744D01*
X1168179Y0473764D01*
X1168317Y0473819D01*
X1168668Y0473951D01*
X1170887Y0474672D01*
X1170895Y0474675D01*
X1171275Y0474773D01*
X1171289Y0474765D01*
X1171367Y0474797D01*
X1171841Y0474938D01*
X1174150Y0475492D01*
X1174519Y0475526D01*
X1174828Y0475613D01*
X1174828Y0475613D01*
X1174938Y0475639D01*
X1175084Y0475673D01*
X1175497Y0475738D01*
X1176948Y0475968D01*
X1177442Y0476046D01*
X1177792Y0476022D01*
X1178078Y0476096D01*
X1178079D01*
X1178190Y0476117D01*
X1178366Y0476150D01*
X1179020Y0476202D01*
X1179353Y0475399D01*
D02*
G37*
G36*
X1065180D02*
X1065813Y0474573D01*
X1066639Y0473940D01*
X1067601Y0473541D01*
X1068632Y0473405D01*
X1069664Y0473541D01*
X1070626Y0473940D01*
X1071451Y0474573D01*
X1072085Y0475399D01*
X1072418Y0476202D01*
X1073072Y0476150D01*
X1073359Y0476096D01*
X1073646Y0476022D01*
X1073646Y0476022D01*
X1074131Y0476025D01*
X1075941Y0475738D01*
X1076354Y0475673D01*
X1076610Y0475613D01*
X1076919Y0475526D01*
X1076919Y0475526D01*
X1077409Y0475463D01*
X1079597Y0474938D01*
X1079685Y0474912D01*
X1080149Y0474765D01*
D01*
X1080633Y0474646D01*
X1081236Y0474450D01*
X1081179Y0474013D01*
X1081314Y0472981D01*
X1081713Y0472019D01*
X1082346Y0471194D01*
X1083172Y0470560D01*
X1084134Y0470162D01*
X1085166Y0470026D01*
X1086197Y0470162D01*
X1087159Y0470560D01*
X1087985Y0471194D01*
X1088253Y0471544D01*
X1088908Y0471210D01*
X1088933Y0471198D01*
X1089249Y0471010D01*
X1089254Y0470993D01*
X1089331Y0470961D01*
X1089740Y0470742D01*
X1091685Y0469550D01*
X1092076Y0469248D01*
X1092156Y0469215D01*
X1092579Y0468952D01*
X1094459Y0467586D01*
X1094744Y0467283D01*
X1094958Y0467156D01*
X1095001Y0467130D01*
X1095238Y0466969D01*
X1095660Y0466608D01*
X1095495Y0466394D01*
X1095096Y0465432D01*
X1094960Y0464400D01*
X1095096Y0463368D01*
X1095495Y0462407D01*
X1096128Y0461581D01*
X1096954Y0460947D01*
X1097915Y0460549D01*
X1098947Y0460413D01*
X1099979Y0460549D01*
X1100941Y0460947D01*
X1101156Y0461112D01*
X1101569Y0460629D01*
X1101621Y0460549D01*
X1101704Y0460410D01*
X1101830Y0460197D01*
X1101830Y0460197D01*
X1102175Y0459855D01*
X1103499Y0458032D01*
X1103762Y0457608D01*
X1103795Y0457529D01*
X1104097Y0457138D01*
X1105289Y0455193D01*
X1105318Y0455139D01*
X1105540Y0454707D01*
X1105540Y0454707D01*
X1105799Y0454280D01*
X1106133Y0453623D01*
X1105653Y0453255D01*
X1105019Y0452429D01*
X1104621Y0451468D01*
X1104485Y0450436D01*
X1104621Y0449404D01*
X1105019Y0448443D01*
X1105653Y0447617D01*
X1106479Y0446983D01*
X1107440Y0446585D01*
X1108472Y0446449D01*
X1109050Y0446525D01*
X1109219Y0446004D01*
X1109222Y0445996D01*
X1109320Y0445616D01*
X1109312Y0445601D01*
X1109344Y0445524D01*
X1109485Y0445050D01*
X1110040Y0442740D01*
X1110074Y0442372D01*
X1110160Y0442063D01*
X1110160Y0442063D01*
X1110186Y0441953D01*
X1110220Y0441807D01*
X1110285Y0441394D01*
X1110515Y0439943D01*
X1110594Y0439449D01*
X1110569Y0439099D01*
X1110643Y0438812D01*
Y0438812D01*
X1110664Y0438700D01*
X1110697Y0438525D01*
X1110753Y0437817D01*
X1109918Y0437471D01*
X1109093Y0436837D01*
X1108459Y0436012D01*
X1108061Y0435050D01*
X1107925Y0434018D01*
X1108061Y0432986D01*
X1108459Y0432025D01*
X1109093Y0431199D01*
X1109918Y0430566D01*
X1110743Y0430224D01*
X1110697Y0429646D01*
X1110643Y0429358D01*
X1110569Y0429072D01*
X1110569Y0429072D01*
X1110572Y0428586D01*
X1110285Y0426776D01*
X1110220Y0426364D01*
X1110160Y0426107D01*
X1110074Y0425799D01*
X1110074Y0425799D01*
X1110011Y0425309D01*
X1109485Y0423121D01*
X1109459Y0423033D01*
X1109312Y0422569D01*
D01*
X1109193Y0422085D01*
X1108474Y0419871D01*
X1108315Y0419468D01*
X1108292Y0419407D01*
X1108291Y0419407D01*
X1108128Y0418943D01*
X1107267Y0416865D01*
X1107057Y0416425D01*
X1107056Y0416425D01*
X1106992Y0416278D01*
X1106977Y0416243D01*
X1106819Y0415892D01*
X1106631Y0415523D01*
X1105757Y0413809D01*
X1105745Y0413785D01*
X1105557Y0413468D01*
X1105540Y0413463D01*
X1105508Y0413386D01*
X1105289Y0412977D01*
X1104097Y0411032D01*
X1103795Y0410641D01*
X1103762Y0410562D01*
X1103499Y0410138D01*
X1102134Y0408258D01*
X1101830Y0407973D01*
X1101703Y0407759D01*
X1101678Y0407716D01*
X1101516Y0407480D01*
X1101058Y0406944D01*
X1100373Y0407228D01*
X1099341Y0407363D01*
X1098309Y0407228D01*
X1097348Y0406829D01*
X1096522Y0406196D01*
X1095888Y0405370D01*
X1095490Y0404408D01*
X1095354Y0403376D01*
X1095490Y0402345D01*
X1095774Y0401659D01*
X1095176Y0401149D01*
X1095096Y0401097D01*
X1094957Y0401014D01*
X1094744Y0400887D01*
X1094744Y0400887D01*
X1094403Y0400543D01*
X1092579Y0399218D01*
X1092156Y0398955D01*
X1092076Y0398922D01*
X1091685Y0398620D01*
X1089740Y0397429D01*
X1089686Y0397400D01*
X1089254Y0397177D01*
X1089254Y0397177D01*
X1088827Y0396919D01*
X1088175Y0396587D01*
X1088030Y0396776D01*
X1087204Y0397410D01*
X1086242Y0397808D01*
X1085211Y0397944D01*
X1084179Y0397808D01*
X1083217Y0397410D01*
X1082391Y0396776D01*
X1081758Y0395951D01*
X1081360Y0394989D01*
X1081224Y0393957D01*
X1081254Y0393726D01*
X1080551Y0393498D01*
X1080543Y0393496D01*
X1080163Y0393397D01*
X1080149Y0393406D01*
X1080071Y0393373D01*
X1079597Y0393232D01*
X1077288Y0392678D01*
X1076919Y0392644D01*
X1076610Y0392557D01*
X1076610Y0392557D01*
X1076500Y0392531D01*
X1076354Y0392497D01*
X1075941Y0392432D01*
X1074490Y0392202D01*
X1073996Y0392124D01*
X1073646Y0392148D01*
X1073359Y0392074D01*
X1073359D01*
X1073248Y0392053D01*
X1073072Y0392020D01*
X1072391Y0391966D01*
X1072058Y0392772D01*
X1071424Y0393597D01*
X1070598Y0394231D01*
X1069637Y0394629D01*
X1068605Y0394765D01*
X1067573Y0394629D01*
X1066611Y0394231D01*
X1065786Y0393597D01*
X1065152Y0392772D01*
X1064820Y0391971D01*
X1064193Y0392020D01*
X1063905Y0392074D01*
X1063619Y0392148D01*
X1063619Y0392148D01*
X1063133Y0392145D01*
X1061324Y0392432D01*
X1060911Y0392497D01*
X1060654Y0392557D01*
X1060346Y0392644D01*
X1060346Y0392644D01*
X1059856Y0392707D01*
X1057668Y0393232D01*
X1057580Y0393258D01*
X1057116Y0393406D01*
D01*
X1056632Y0393525D01*
X1055972Y0393739D01*
X1055998Y0393939D01*
X1055863Y0394971D01*
X1055464Y0395933D01*
X1054831Y0396759D01*
X1054005Y0397392D01*
X1053043Y0397790D01*
X1052012Y0397926D01*
X1050980Y0397790D01*
X1050018Y0397392D01*
X1049192Y0396759D01*
X1049069Y0396597D01*
X1048356Y0396960D01*
X1048332Y0396973D01*
X1048015Y0397161D01*
X1048011Y0397177D01*
X1047933Y0397209D01*
X1047524Y0397429D01*
X1045580Y0398620D01*
X1045188Y0398922D01*
X1045109Y0398955D01*
X1044685Y0399218D01*
X1042805Y0400584D01*
X1042520Y0400887D01*
X1042307Y0401014D01*
X1042263Y0401040D01*
X1042027Y0401201D01*
X1041491Y0401659D01*
X1041775Y0402345D01*
X1041910Y0403376D01*
X1041775Y0404408D01*
X1041376Y0405370D01*
X1040743Y0406196D01*
X1039917Y0406829D01*
X1038956Y0407228D01*
X1037924Y0407363D01*
X1036892Y0407228D01*
X1036207Y0406944D01*
X1035696Y0407541D01*
X1035644Y0407621D01*
X1035561Y0407760D01*
X1035435Y0407973D01*
X1035435Y0407973D01*
X1035090Y0408315D01*
X1033765Y0410138D01*
X1033502Y0410562D01*
X1033470Y0410641D01*
X1033168Y0411032D01*
X1031976Y0412977D01*
X1031947Y0413031D01*
X1031724Y0413463D01*
X1031724Y0413463D01*
X1031466Y0413890D01*
X1030407Y0415968D01*
X1030281Y0416258D01*
X1030209Y0416425D01*
X1030208Y0416425D01*
X1029995Y0416870D01*
X1029137Y0418943D01*
X1028973Y0419407D01*
X1028973Y0419407D01*
X1028953Y0419458D01*
X1028899Y0419597D01*
X1028766Y0419948D01*
X1028045Y0422166D01*
X1028043Y0422174D01*
X1027944Y0422554D01*
X1027953Y0422569D01*
X1027921Y0422646D01*
X1027779Y0423121D01*
X1027225Y0425430D01*
X1027191Y0425799D01*
X1027105Y0426107D01*
X1027105Y0426107D01*
X1027079Y0426218D01*
X1027044Y0426364D01*
X1026979Y0426776D01*
X1026749Y0428228D01*
X1026671Y0428721D01*
X1026695Y0429072D01*
X1026621Y0429358D01*
Y0429358D01*
X1026600Y0429470D01*
X1026567Y0429646D01*
X1026521Y0430235D01*
X1027319Y0430566D01*
X1028144Y0431199D01*
X1028778Y0432025D01*
X1029176Y0432986D01*
X1029312Y0434018D01*
X1029176Y0435050D01*
X1028778Y0436012D01*
X1028144Y0436837D01*
X1027319Y0437471D01*
X1026511Y0437806D01*
X1026567Y0438525D01*
X1026621Y0438812D01*
X1026695Y0439099D01*
X1026695Y0439099D01*
X1026692Y0439584D01*
X1026979Y0441394D01*
X1027044Y0441807D01*
X1027105Y0442063D01*
X1027191Y0442372D01*
X1027191Y0442372D01*
X1027254Y0442862D01*
X1027779Y0445050D01*
X1027806Y0445137D01*
X1027953Y0445601D01*
D01*
X1028072Y0446086D01*
X1028244Y0446615D01*
X1028829Y0446538D01*
X1029861Y0446674D01*
X1030822Y0447072D01*
X1031648Y0447706D01*
X1032282Y0448531D01*
X1032680Y0449493D01*
X1032816Y0450525D01*
X1032680Y0451557D01*
X1032282Y0452518D01*
X1031648Y0453344D01*
X1031174Y0453708D01*
X1031507Y0454361D01*
X1031520Y0454385D01*
X1031708Y0454702D01*
X1031724Y0454707D01*
X1031756Y0454784D01*
X1031976Y0455193D01*
X1033168Y0457138D01*
X1033470Y0457529D01*
X1033502Y0457608D01*
X1033765Y0458032D01*
X1035131Y0459912D01*
X1035435Y0460197D01*
X1035561Y0460411D01*
X1035587Y0460454D01*
X1035749Y0460690D01*
X1036109Y0461112D01*
X1036324Y0460947D01*
X1037286Y0460549D01*
X1038317Y0460413D01*
X1039349Y0460549D01*
X1040311Y0460947D01*
X1041136Y0461581D01*
X1041770Y0462407D01*
X1042168Y0463368D01*
X1042304Y0464400D01*
X1042168Y0465432D01*
X1041770Y0466394D01*
X1041605Y0466608D01*
X1042089Y0467021D01*
X1042168Y0467073D01*
X1042307Y0467157D01*
X1042520Y0467283D01*
X1042520Y0467283D01*
X1042862Y0467628D01*
X1044685Y0468952D01*
X1045109Y0469215D01*
X1045188Y0469248D01*
X1045580Y0469550D01*
X1047524Y0470742D01*
X1047578Y0470771D01*
X1048011Y0470993D01*
X1048011Y0470993D01*
X1048437Y0471251D01*
X1050070Y0472083D01*
X1050516Y0472310D01*
X1050805Y0472437D01*
X1050972Y0472509D01*
X1050972Y0472509D01*
X1051418Y0472722D01*
X1053490Y0473581D01*
X1053954Y0473744D01*
X1053954Y0473744D01*
X1054006Y0473764D01*
X1054144Y0473819D01*
X1054495Y0473951D01*
X1056713Y0474672D01*
X1056721Y0474675D01*
X1057101Y0474773D01*
X1057116Y0474765D01*
X1057193Y0474797D01*
X1057668Y0474938D01*
X1059977Y0475492D01*
X1060346Y0475526D01*
X1060654Y0475613D01*
X1060655Y0475613D01*
X1060765Y0475639D01*
X1060911Y0475673D01*
X1061324Y0475738D01*
X1062775Y0475968D01*
X1063269Y0476046D01*
X1063619Y0476022D01*
X1063905Y0476096D01*
X1063905D01*
X1064017Y0476117D01*
X1064193Y0476150D01*
X1064847Y0476202D01*
X1065180Y0475399D01*
D02*
G37*
G36*
X0951006Y0369100D02*
X0951640Y0368274D01*
X0952466Y0367640D01*
X0953427Y0367242D01*
X0954459Y0367106D01*
X0955491Y0367242D01*
X0956452Y0367640D01*
X0957278Y0368274D01*
X0957912Y0369100D01*
X0958244Y0369902D01*
X0958899Y0369851D01*
X0959186Y0369797D01*
X0959473Y0369723D01*
X0959473Y0369723D01*
X0959958Y0369726D01*
X0961768Y0369439D01*
X0962181Y0369374D01*
X0962437Y0369314D01*
X0962745Y0369227D01*
X0962745Y0369227D01*
X0963236Y0369164D01*
X0965424Y0368639D01*
X0965511Y0368613D01*
X0965975Y0368466D01*
D01*
X0966460Y0368346D01*
X0967063Y0368150D01*
X0967005Y0367714D01*
X0967141Y0366682D01*
X0967540Y0365720D01*
X0968173Y0364895D01*
X0968999Y0364261D01*
X0969960Y0363863D01*
X0970992Y0363727D01*
X0972024Y0363863D01*
X0972986Y0364261D01*
X0973811Y0364895D01*
X0974080Y0365245D01*
X0974735Y0364911D01*
X0974759Y0364898D01*
X0975076Y0364710D01*
X0975081Y0364694D01*
X0975158Y0364662D01*
X0975567Y0364442D01*
X0977512Y0363251D01*
X0977903Y0362949D01*
X0977982Y0362916D01*
X0978406Y0362653D01*
X0980286Y0361287D01*
X0980571Y0360984D01*
X0980785Y0360857D01*
X0980828Y0360831D01*
X0981064Y0360670D01*
X0981486Y0360309D01*
X0981321Y0360094D01*
X0980923Y0359133D01*
X0980787Y0358101D01*
X0980923Y0357069D01*
X0981321Y0356107D01*
X0981955Y0355282D01*
X0982781Y0354648D01*
X0983742Y0354250D01*
X0984774Y0354114D01*
X0985806Y0354250D01*
X0986767Y0354648D01*
X0986983Y0354813D01*
X0987395Y0354330D01*
X0987447Y0354250D01*
X0987531Y0354111D01*
X0987657Y0353898D01*
X0987657Y0353898D01*
X0988002Y0353556D01*
X0989326Y0351733D01*
X0989589Y0351309D01*
X0989622Y0351230D01*
X0989924Y0350839D01*
X0991116Y0348894D01*
X0991145Y0348840D01*
X0991367Y0348408D01*
X0991367Y0348408D01*
X0991625Y0347981D01*
X0991960Y0347324D01*
X0991480Y0346956D01*
X0990846Y0346130D01*
X0990448Y0345169D01*
X0990312Y0344137D01*
X0990448Y0343105D01*
X0990846Y0342143D01*
X0991480Y0341318D01*
X0992305Y0340684D01*
X0993267Y0340286D01*
X0994299Y0340150D01*
X0994877Y0340226D01*
X0995046Y0339705D01*
X0995049Y0339697D01*
X0995147Y0339317D01*
X0995139Y0339302D01*
X0995171Y0339225D01*
X0995312Y0338750D01*
X0995866Y0336441D01*
X0995900Y0336072D01*
X0995987Y0335764D01*
X0995987Y0335764D01*
X0996013Y0335653D01*
X0996047Y0335507D01*
X0996112Y0335095D01*
X0996342Y0333644D01*
X0996420Y0333150D01*
X0996396Y0332799D01*
X0996470Y0332513D01*
Y0332513D01*
X0996491Y0332401D01*
X0996524Y0332225D01*
X0996580Y0331518D01*
X0995745Y0331172D01*
X0994919Y0330538D01*
X0994286Y0329712D01*
X0993888Y0328751D01*
X0993752Y0327719D01*
X0993888Y0326687D01*
X0994286Y0325726D01*
X0994919Y0324900D01*
X0995745Y0324266D01*
X0996570Y0323925D01*
X0996524Y0323346D01*
X0996470Y0323059D01*
X0996396Y0322772D01*
X0996396Y0322772D01*
X0996399Y0322287D01*
X0996112Y0320477D01*
X0996047Y0320064D01*
X0995987Y0319808D01*
X0995900Y0319499D01*
X0995900Y0319499D01*
X0995837Y0319009D01*
X0995312Y0316822D01*
X0995286Y0316734D01*
X0995139Y0316270D01*
D01*
X0995020Y0315785D01*
X0994300Y0313572D01*
X0994142Y0313169D01*
X0994118Y0313108D01*
X0994118Y0313108D01*
X0993954Y0312644D01*
X0993094Y0310566D01*
X0992883Y0310126D01*
X0992883Y0310126D01*
X0992819Y0309979D01*
X0992804Y0309943D01*
X0992645Y0309593D01*
X0992457Y0309224D01*
X0991584Y0307510D01*
X0991572Y0307486D01*
X0991384Y0307169D01*
X0991367Y0307164D01*
X0991335Y0307087D01*
X0991116Y0306678D01*
X0989924Y0304733D01*
X0989622Y0304342D01*
X0989589Y0304263D01*
X0989326Y0303839D01*
X0987960Y0301959D01*
X0987657Y0301674D01*
X0987530Y0301460D01*
X0987504Y0301417D01*
X0987343Y0301181D01*
X0986885Y0300644D01*
X0986200Y0300928D01*
X0985168Y0301064D01*
X0984136Y0300928D01*
X0983174Y0300530D01*
X0982349Y0299896D01*
X0981715Y0299071D01*
X0981317Y0298109D01*
X0981181Y0297077D01*
X0981317Y0296045D01*
X0981601Y0295360D01*
X0981003Y0294850D01*
X0980923Y0294798D01*
X0980784Y0294714D01*
X0980571Y0294588D01*
X0980571Y0294588D01*
X0980229Y0294243D01*
X0978406Y0292919D01*
X0977982Y0292656D01*
X0977903Y0292623D01*
X0977512Y0292321D01*
X0975567Y0291129D01*
X0975513Y0291100D01*
X0975081Y0290878D01*
X0975081Y0290878D01*
X0974654Y0290619D01*
X0974002Y0290287D01*
X0973857Y0290477D01*
X0973031Y0291111D01*
X0972069Y0291509D01*
X0971037Y0291645D01*
X0970006Y0291509D01*
X0969044Y0291111D01*
X0968218Y0290477D01*
X0967585Y0289651D01*
X0967186Y0288690D01*
X0967050Y0287658D01*
X0967081Y0287427D01*
X0966378Y0287199D01*
X0966370Y0287196D01*
X0965990Y0287098D01*
X0965975Y0287106D01*
X0965898Y0287074D01*
X0965424Y0286933D01*
X0963114Y0286379D01*
X0962745Y0286345D01*
X0962437Y0286258D01*
X0962437Y0286258D01*
X0962326Y0286232D01*
X0962181Y0286198D01*
X0961768Y0286133D01*
X0960317Y0285903D01*
X0959823Y0285825D01*
X0959473Y0285849D01*
X0959186Y0285775D01*
X0959186D01*
X0959074Y0285754D01*
X0958899Y0285721D01*
X0958218Y0285667D01*
X0957884Y0286472D01*
X0957251Y0287298D01*
X0956425Y0287931D01*
X0955463Y0288330D01*
X0954432Y0288466D01*
X0953400Y0288330D01*
X0952438Y0287931D01*
X0951612Y0287298D01*
X0950979Y0286472D01*
X0950647Y0285671D01*
X0950020Y0285721D01*
X0949732Y0285775D01*
X0949446Y0285849D01*
X0949446Y0285849D01*
X0948960Y0285846D01*
X0947150Y0286133D01*
X0946738Y0286198D01*
X0946481Y0286258D01*
X0946173Y0286345D01*
X0946173Y0286345D01*
X0945683Y0286408D01*
X0943495Y0286933D01*
X0943407Y0286959D01*
X0942943Y0287106D01*
D01*
X0942459Y0287225D01*
X0941799Y0287440D01*
X0941825Y0287640D01*
X0941689Y0288672D01*
X0941291Y0289634D01*
X0940658Y0290459D01*
X0939832Y0291093D01*
X0938870Y0291491D01*
X0937838Y0291627D01*
X0936806Y0291491D01*
X0935845Y0291093D01*
X0935019Y0290459D01*
X0934895Y0290298D01*
X0934183Y0290661D01*
X0934159Y0290673D01*
X0933842Y0290861D01*
X0933837Y0290878D01*
X0933760Y0290910D01*
X0933351Y0291129D01*
X0931406Y0292321D01*
X0931015Y0292623D01*
X0930936Y0292656D01*
X0930512Y0292919D01*
X0928632Y0294285D01*
X0928347Y0294588D01*
X0928133Y0294715D01*
X0928090Y0294741D01*
X0927854Y0294902D01*
X0927318Y0295360D01*
X0927602Y0296045D01*
X0927737Y0297077D01*
X0927602Y0298109D01*
X0927203Y0299071D01*
X0926570Y0299896D01*
X0925744Y0300530D01*
X0924782Y0300928D01*
X0923750Y0301064D01*
X0922719Y0300928D01*
X0922033Y0300644D01*
X0921523Y0301242D01*
X0921471Y0301322D01*
X0921388Y0301461D01*
X0921261Y0301674D01*
X0921261Y0301674D01*
X0920917Y0302016D01*
X0919592Y0303839D01*
X0919329Y0304263D01*
X0919296Y0304342D01*
X0918994Y0304733D01*
X0917803Y0306678D01*
X0917774Y0306732D01*
X0917551Y0307164D01*
X0917551Y0307164D01*
X0917293Y0307591D01*
X0916234Y0309669D01*
X0916108Y0309959D01*
X0916035Y0310126D01*
X0916035Y0310126D01*
X0915822Y0310571D01*
X0914964Y0312644D01*
X0914800Y0313107D01*
X0914800Y0313108D01*
X0914780Y0313159D01*
X0914725Y0313298D01*
X0914593Y0313649D01*
X0913872Y0315867D01*
X0913869Y0315875D01*
X0913771Y0316255D01*
X0913779Y0316270D01*
X0913747Y0316347D01*
X0913606Y0316822D01*
X0913052Y0319131D01*
X0913018Y0319499D01*
X0912931Y0319808D01*
X0912931Y0319808D01*
X0912905Y0319919D01*
X0912871Y0320064D01*
X0912806Y0320477D01*
X0912576Y0321928D01*
X0912498Y0322422D01*
X0912522Y0322772D01*
X0912448Y0323059D01*
Y0323059D01*
X0912427Y0323171D01*
X0912394Y0323346D01*
X0912348Y0323936D01*
X0913145Y0324266D01*
X0913971Y0324900D01*
X0914605Y0325726D01*
X0915003Y0326687D01*
X0915139Y0327719D01*
X0915003Y0328751D01*
X0914605Y0329712D01*
X0913971Y0330538D01*
X0913145Y0331172D01*
X0912337Y0331506D01*
X0912394Y0332225D01*
X0912448Y0332513D01*
X0912522Y0332799D01*
X0912522Y0332799D01*
X0912519Y0333285D01*
X0912806Y0335095D01*
X0912871Y0335507D01*
X0912931Y0335764D01*
X0913018Y0336072D01*
X0913018Y0336072D01*
X0913081Y0336563D01*
X0913606Y0338750D01*
X0913632Y0338838D01*
X0913779Y0339302D01*
D01*
X0913899Y0339787D01*
X0914071Y0340316D01*
X0914656Y0340239D01*
X0915687Y0340375D01*
X0916649Y0340773D01*
X0917475Y0341407D01*
X0918108Y0342232D01*
X0918507Y0343194D01*
X0918643Y0344226D01*
X0918507Y0345258D01*
X0918108Y0346219D01*
X0917475Y0347045D01*
X0917001Y0347408D01*
X0917334Y0348062D01*
X0917347Y0348086D01*
X0917535Y0348403D01*
X0917551Y0348408D01*
X0917583Y0348485D01*
X0917803Y0348894D01*
X0918994Y0350839D01*
X0919296Y0351230D01*
X0919329Y0351309D01*
X0919592Y0351733D01*
X0920958Y0353613D01*
X0921261Y0353898D01*
X0921388Y0354112D01*
X0921414Y0354155D01*
X0921575Y0354391D01*
X0921936Y0354813D01*
X0922151Y0354648D01*
X0923112Y0354250D01*
X0924144Y0354114D01*
X0925176Y0354250D01*
X0926138Y0354648D01*
X0926963Y0355282D01*
X0927597Y0356107D01*
X0927995Y0357069D01*
X0928131Y0358101D01*
X0927995Y0359133D01*
X0927597Y0360094D01*
X0927432Y0360309D01*
X0927915Y0360722D01*
X0927935Y0360739D01*
X0927940Y0360742D01*
X0928347Y0360984D01*
X0928347D01*
X0928347Y0360987D01*
X0928684Y0361325D01*
X0930512Y0362653D01*
X0930936Y0362916D01*
X0931015Y0362949D01*
X0931406Y0363251D01*
X0933351Y0364442D01*
X0933405Y0364471D01*
X0933837Y0364694D01*
X0933837Y0364694D01*
X0934264Y0364952D01*
X0935897Y0365784D01*
X0936343Y0366011D01*
X0936632Y0366137D01*
X0936799Y0366210D01*
X0936799Y0366210D01*
X0937245Y0366423D01*
X0939317Y0367281D01*
X0939781Y0367445D01*
X0939781Y0367445D01*
X0939832Y0367465D01*
X0939971Y0367519D01*
X0940322Y0367652D01*
X0942540Y0368373D01*
X0942548Y0368375D01*
X0942928Y0368474D01*
X0942943Y0368466D01*
X0943020Y0368498D01*
X0943495Y0368639D01*
X0945804Y0369193D01*
X0946173Y0369227D01*
X0946481Y0369314D01*
X0946481Y0369314D01*
X0946592Y0369340D01*
X0946738Y0369374D01*
X0947150Y0369439D01*
X0949362Y0369789D01*
X0949446Y0369723D01*
X0949534Y0369759D01*
X0950025Y0369851D01*
X0950674Y0369902D01*
X0951006Y0369100D01*
D02*
G37*
G36*
X0836833D02*
X0837467Y0368274D01*
X0838292Y0367640D01*
X0839254Y0367242D01*
X0840286Y0367106D01*
X0841318Y0367242D01*
X0842279Y0367640D01*
X0843105Y0368274D01*
X0843739Y0369100D01*
X0844071Y0369902D01*
X0844725Y0369851D01*
X0845013Y0369797D01*
X0845299Y0369723D01*
X0845299Y0369723D01*
X0845785Y0369726D01*
X0847595Y0369439D01*
X0848007Y0369374D01*
X0848264Y0369314D01*
X0848572Y0369227D01*
X0848572Y0369227D01*
X0849063Y0369164D01*
X0851250Y0368639D01*
X0851338Y0368613D01*
X0851802Y0368466D01*
D01*
X0852287Y0368346D01*
X0852890Y0368150D01*
X0852832Y0367714D01*
X0852968Y0366682D01*
X0853366Y0365720D01*
X0854000Y0364895D01*
X0854826Y0364261D01*
X0855787Y0363863D01*
X0856819Y0363727D01*
X0857851Y0363863D01*
X0858813Y0364261D01*
X0859638Y0364895D01*
X0859907Y0365245D01*
X0860562Y0364911D01*
X0860586Y0364898D01*
X0860903Y0364710D01*
X0860907Y0364694D01*
X0860985Y0364662D01*
X0861394Y0364442D01*
X0863339Y0363251D01*
X0863730Y0362949D01*
X0863809Y0362916D01*
X0864233Y0362653D01*
X0866113Y0361287D01*
X0866398Y0360984D01*
X0866612Y0360857D01*
X0866655Y0360831D01*
X0866891Y0360670D01*
X0867313Y0360309D01*
X0867148Y0360094D01*
X0866750Y0359133D01*
X0866614Y0358101D01*
X0866750Y0357069D01*
X0867148Y0356107D01*
X0867782Y0355282D01*
X0868607Y0354648D01*
X0869569Y0354250D01*
X0870601Y0354114D01*
X0871633Y0354250D01*
X0872594Y0354648D01*
X0872809Y0354813D01*
X0873222Y0354330D01*
X0873274Y0354250D01*
X0873357Y0354111D01*
X0873484Y0353898D01*
X0873484Y0353898D01*
X0873828Y0353556D01*
X0875153Y0351733D01*
X0875416Y0351309D01*
X0875449Y0351230D01*
X0875751Y0350839D01*
X0876942Y0348894D01*
X0876971Y0348840D01*
X0877194Y0348408D01*
X0877194Y0348408D01*
X0877452Y0347981D01*
X0877787Y0347324D01*
X0877306Y0346956D01*
X0876673Y0346130D01*
X0876275Y0345169D01*
X0876139Y0344137D01*
X0876275Y0343105D01*
X0876673Y0342143D01*
X0877306Y0341318D01*
X0878132Y0340684D01*
X0879094Y0340286D01*
X0880126Y0340150D01*
X0880704Y0340226D01*
X0880873Y0339705D01*
X0880875Y0339697D01*
X0880974Y0339317D01*
X0880966Y0339302D01*
X0880998Y0339225D01*
X0881139Y0338750D01*
X0881693Y0336441D01*
X0881727Y0336072D01*
X0881814Y0335764D01*
X0881814Y0335764D01*
X0881840Y0335653D01*
X0881874Y0335507D01*
X0881939Y0335095D01*
X0882169Y0333644D01*
X0882247Y0333150D01*
X0882223Y0332799D01*
X0882297Y0332513D01*
Y0332513D01*
X0882318Y0332401D01*
X0882351Y0332225D01*
X0882407Y0331518D01*
X0881572Y0331172D01*
X0880746Y0330538D01*
X0880113Y0329712D01*
X0879714Y0328751D01*
X0879578Y0327719D01*
X0879714Y0326687D01*
X0880113Y0325726D01*
X0880746Y0324900D01*
X0881572Y0324266D01*
X0882397Y0323925D01*
X0882351Y0323346D01*
X0882297Y0323059D01*
X0882223Y0322772D01*
X0882223Y0322772D01*
X0882226Y0322287D01*
X0881939Y0320477D01*
X0881874Y0320064D01*
X0881814Y0319808D01*
X0881727Y0319499D01*
X0881727Y0319499D01*
X0881664Y0319009D01*
X0881139Y0316822D01*
X0881113Y0316734D01*
X0880966Y0316270D01*
D01*
X0880846Y0315785D01*
X0880127Y0313572D01*
X0879969Y0313169D01*
X0879945Y0313108D01*
X0879945Y0313108D01*
X0879781Y0312644D01*
X0878921Y0310566D01*
X0878710Y0310126D01*
X0878710Y0310126D01*
X0878646Y0309979D01*
X0878630Y0309943D01*
X0878472Y0309593D01*
X0878284Y0309224D01*
X0877411Y0307510D01*
X0877398Y0307486D01*
X0877211Y0307169D01*
X0877194Y0307164D01*
X0877162Y0307087D01*
X0876942Y0306678D01*
X0875751Y0304733D01*
X0875449Y0304342D01*
X0875416Y0304263D01*
X0875153Y0303839D01*
X0873787Y0301959D01*
X0873484Y0301674D01*
X0873357Y0301460D01*
X0873331Y0301417D01*
X0873170Y0301181D01*
X0872712Y0300644D01*
X0872026Y0300928D01*
X0870994Y0301064D01*
X0869963Y0300928D01*
X0869001Y0300530D01*
X0868175Y0299896D01*
X0867542Y0299071D01*
X0867144Y0298109D01*
X0867008Y0297077D01*
X0867144Y0296045D01*
X0867427Y0295360D01*
X0866830Y0294850D01*
X0866750Y0294798D01*
X0866611Y0294714D01*
X0866398Y0294588D01*
X0866398Y0294588D01*
X0866056Y0294243D01*
X0864233Y0292919D01*
X0863809Y0292656D01*
X0863730Y0292623D01*
X0863339Y0292321D01*
X0861394Y0291129D01*
X0861340Y0291100D01*
X0860908Y0290878D01*
X0860907Y0290878D01*
X0860481Y0290619D01*
X0859829Y0290287D01*
X0859683Y0290477D01*
X0858858Y0291111D01*
X0857896Y0291509D01*
X0856864Y0291645D01*
X0855832Y0291509D01*
X0854871Y0291111D01*
X0854045Y0290477D01*
X0853411Y0289651D01*
X0853013Y0288690D01*
X0852877Y0287658D01*
X0852908Y0287427D01*
X0852205Y0287199D01*
X0852197Y0287196D01*
X0851817Y0287098D01*
X0851802Y0287106D01*
X0851725Y0287074D01*
X0851250Y0286933D01*
X0848941Y0286379D01*
X0848572Y0286345D01*
X0848264Y0286258D01*
X0848264Y0286258D01*
X0848153Y0286232D01*
X0848007Y0286198D01*
X0847595Y0286133D01*
X0846144Y0285903D01*
X0845650Y0285825D01*
X0845299Y0285849D01*
X0845013Y0285775D01*
X0845013D01*
X0844901Y0285754D01*
X0844725Y0285721D01*
X0844044Y0285667D01*
X0843711Y0286472D01*
X0843077Y0287298D01*
X0842252Y0287931D01*
X0841290Y0288330D01*
X0840258Y0288466D01*
X0839226Y0288330D01*
X0838265Y0287931D01*
X0837439Y0287298D01*
X0836806Y0286472D01*
X0836474Y0285671D01*
X0835846Y0285721D01*
X0835559Y0285775D01*
X0835272Y0285849D01*
X0835272Y0285849D01*
X0834787Y0285846D01*
X0832977Y0286133D01*
X0832564Y0286198D01*
X0832308Y0286258D01*
X0831999Y0286345D01*
X0831999Y0286345D01*
X0831509Y0286408D01*
X0829321Y0286933D01*
X0829234Y0286959D01*
X0828770Y0287106D01*
D01*
X0828285Y0287225D01*
X0827626Y0287440D01*
X0827652Y0287640D01*
X0827516Y0288672D01*
X0827118Y0289634D01*
X0826484Y0290459D01*
X0825659Y0291093D01*
X0824697Y0291491D01*
X0823665Y0291627D01*
X0822633Y0291491D01*
X0821672Y0291093D01*
X0820846Y0290459D01*
X0820722Y0290298D01*
X0820010Y0290661D01*
X0819986Y0290673D01*
X0819669Y0290861D01*
X0819664Y0290878D01*
X0819587Y0290910D01*
X0819178Y0291129D01*
X0817233Y0292321D01*
X0816842Y0292623D01*
X0816763Y0292656D01*
X0816339Y0292919D01*
X0814459Y0294285D01*
X0814174Y0294588D01*
X0813960Y0294715D01*
X0813917Y0294741D01*
X0813681Y0294902D01*
X0813144Y0295360D01*
X0813428Y0296045D01*
X0813564Y0297077D01*
X0813428Y0298109D01*
X0813030Y0299071D01*
X0812396Y0299896D01*
X0811571Y0300530D01*
X0810609Y0300928D01*
X0809577Y0301064D01*
X0808545Y0300928D01*
X0807860Y0300644D01*
X0807350Y0301242D01*
X0807298Y0301322D01*
X0807214Y0301461D01*
X0807088Y0301674D01*
X0807088Y0301674D01*
X0806743Y0302016D01*
X0805419Y0303839D01*
X0805156Y0304263D01*
X0805123Y0304342D01*
X0804821Y0304733D01*
X0803629Y0306678D01*
X0803600Y0306732D01*
X0803378Y0307164D01*
X0803378Y0307164D01*
X0803119Y0307591D01*
X0802061Y0309669D01*
X0801935Y0309959D01*
X0801862Y0310126D01*
X0801862Y0310126D01*
X0801649Y0310571D01*
X0800790Y0312644D01*
X0800627Y0313107D01*
X0800627Y0313108D01*
X0800607Y0313159D01*
X0800552Y0313298D01*
X0800420Y0313649D01*
X0799699Y0315867D01*
X0799696Y0315875D01*
X0799598Y0316255D01*
X0799606Y0316270D01*
X0799574Y0316347D01*
X0799433Y0316822D01*
X0798879Y0319131D01*
X0798845Y0319499D01*
X0798758Y0319808D01*
X0798758Y0319808D01*
X0798732Y0319919D01*
X0798698Y0320064D01*
X0798633Y0320477D01*
X0798403Y0321928D01*
X0798325Y0322422D01*
X0798349Y0322772D01*
X0798275Y0323059D01*
Y0323059D01*
X0798254Y0323171D01*
X0798221Y0323346D01*
X0798174Y0323936D01*
X0798972Y0324266D01*
X0799798Y0324900D01*
X0800432Y0325726D01*
X0800830Y0326687D01*
X0800966Y0327719D01*
X0800830Y0328751D01*
X0800432Y0329712D01*
X0799798Y0330538D01*
X0798972Y0331172D01*
X0798164Y0331506D01*
X0798221Y0332225D01*
X0798275Y0332513D01*
X0798349Y0332799D01*
X0798349Y0332799D01*
X0798346Y0333285D01*
X0798633Y0335095D01*
X0798698Y0335507D01*
X0798758Y0335764D01*
X0798845Y0336072D01*
X0798845Y0336072D01*
X0798908Y0336563D01*
X0799433Y0338750D01*
X0799459Y0338838D01*
X0799606Y0339302D01*
D01*
X0799725Y0339787D01*
X0799897Y0340316D01*
X0800482Y0340239D01*
X0801514Y0340375D01*
X0802476Y0340773D01*
X0803302Y0341407D01*
X0803935Y0342232D01*
X0804333Y0343194D01*
X0804469Y0344226D01*
X0804333Y0345258D01*
X0803935Y0346219D01*
X0803302Y0347045D01*
X0802828Y0347408D01*
X0803161Y0348062D01*
X0803174Y0348086D01*
X0803361Y0348403D01*
X0803378Y0348408D01*
X0803410Y0348485D01*
X0803629Y0348894D01*
X0804821Y0350839D01*
X0805123Y0351230D01*
X0805156Y0351309D01*
X0805419Y0351733D01*
X0806785Y0353613D01*
X0807088Y0353898D01*
X0807215Y0354112D01*
X0807241Y0354155D01*
X0807402Y0354391D01*
X0807763Y0354813D01*
X0807977Y0354648D01*
X0808939Y0354250D01*
X0809971Y0354114D01*
X0811003Y0354250D01*
X0811964Y0354648D01*
X0812790Y0355282D01*
X0813424Y0356107D01*
X0813822Y0357069D01*
X0813958Y0358101D01*
X0813822Y0359133D01*
X0813424Y0360094D01*
X0813259Y0360309D01*
X0813742Y0360722D01*
X0813762Y0360739D01*
X0813767Y0360742D01*
X0814174Y0360984D01*
X0814174D01*
X0814174Y0360987D01*
X0814511Y0361325D01*
X0816339Y0362653D01*
X0816763Y0362916D01*
X0816842Y0362949D01*
X0817233Y0363251D01*
X0819178Y0364442D01*
X0819232Y0364471D01*
X0819664Y0364694D01*
X0819664Y0364694D01*
X0820091Y0364952D01*
X0821724Y0365784D01*
X0822169Y0366011D01*
X0822459Y0366137D01*
X0822626Y0366210D01*
X0822626Y0366210D01*
X0823071Y0366423D01*
X0825144Y0367281D01*
X0825607Y0367445D01*
X0825608Y0367445D01*
X0825659Y0367465D01*
X0825798Y0367519D01*
X0826149Y0367652D01*
X0828367Y0368373D01*
X0828375Y0368375D01*
X0828755Y0368474D01*
X0828770Y0368466D01*
X0828847Y0368498D01*
X0829321Y0368639D01*
X0831631Y0369193D01*
X0831999Y0369227D01*
X0832308Y0369314D01*
X0832308Y0369314D01*
X0832419Y0369340D01*
X0832564Y0369374D01*
X0832977Y0369439D01*
X0835189Y0369789D01*
X0835272Y0369723D01*
X0835361Y0369759D01*
X0835852Y0369851D01*
X0836501Y0369902D01*
X0836833Y0369100D01*
D02*
G37*
G36*
X1179353D02*
X1179986Y0368274D01*
X1180812Y0367640D01*
X1181774Y0367242D01*
X1182806Y0367106D01*
X1183837Y0367242D01*
X1184799Y0367640D01*
X1185625Y0368274D01*
X1186258Y0369100D01*
X1186591Y0369902D01*
X1187245Y0369851D01*
X1187533Y0369797D01*
X1187819Y0369723D01*
X1187819Y0369723D01*
X1188305Y0369726D01*
X1190114Y0369439D01*
X1190527Y0369374D01*
X1190784Y0369314D01*
X1191092Y0369227D01*
X1191092Y0369227D01*
X1191582Y0369164D01*
X1193770Y0368639D01*
X1193858Y0368613D01*
X1194322Y0368466D01*
D01*
X1194806Y0368346D01*
X1195409Y0368150D01*
X1195352Y0367714D01*
X1195488Y0366682D01*
X1195886Y0365720D01*
X1196520Y0364895D01*
X1197345Y0364261D01*
X1198307Y0363863D01*
X1199339Y0363727D01*
X1200371Y0363863D01*
X1201332Y0364261D01*
X1202158Y0364895D01*
X1202427Y0365245D01*
X1203082Y0364911D01*
X1203106Y0364898D01*
X1203423Y0364710D01*
X1203427Y0364694D01*
X1203505Y0364662D01*
X1203914Y0364442D01*
X1205858Y0363251D01*
X1206250Y0362949D01*
X1206329Y0362916D01*
X1206753Y0362653D01*
X1208632Y0361287D01*
X1208918Y0360984D01*
X1209131Y0360857D01*
X1209175Y0360831D01*
X1209411Y0360670D01*
X1209833Y0360309D01*
X1209668Y0360094D01*
X1209270Y0359133D01*
X1209134Y0358101D01*
X1209270Y0357069D01*
X1209668Y0356107D01*
X1210301Y0355282D01*
X1211127Y0354648D01*
X1212089Y0354250D01*
X1213120Y0354114D01*
X1214152Y0354250D01*
X1215114Y0354648D01*
X1215329Y0354813D01*
X1215742Y0354330D01*
X1215794Y0354250D01*
X1215877Y0354111D01*
X1216003Y0353898D01*
X1216003Y0353898D01*
X1216348Y0353556D01*
X1217673Y0351733D01*
X1217935Y0351309D01*
X1217968Y0351230D01*
X1218270Y0350839D01*
X1219462Y0348894D01*
X1219491Y0348840D01*
X1219714Y0348408D01*
X1219714Y0348408D01*
X1219972Y0347981D01*
X1220306Y0347324D01*
X1219826Y0346956D01*
X1219193Y0346130D01*
X1218794Y0345169D01*
X1218659Y0344137D01*
X1218794Y0343105D01*
X1219193Y0342143D01*
X1219826Y0341318D01*
X1220652Y0340684D01*
X1221614Y0340286D01*
X1222645Y0340150D01*
X1223223Y0340226D01*
X1223393Y0339705D01*
X1223395Y0339697D01*
X1223493Y0339317D01*
X1223485Y0339302D01*
X1223517Y0339225D01*
X1223658Y0338750D01*
X1224213Y0336441D01*
X1224247Y0336072D01*
X1224333Y0335764D01*
X1224333Y0335764D01*
X1224359Y0335653D01*
X1224393Y0335507D01*
X1224459Y0335095D01*
X1224689Y0333644D01*
X1224767Y0333150D01*
X1224743Y0332799D01*
X1224817Y0332513D01*
Y0332513D01*
X1224837Y0332401D01*
X1224871Y0332225D01*
X1224926Y0331518D01*
X1224092Y0331172D01*
X1223266Y0330538D01*
X1222632Y0329712D01*
X1222234Y0328751D01*
X1222098Y0327719D01*
X1222234Y0326687D01*
X1222632Y0325726D01*
X1223266Y0324900D01*
X1224092Y0324266D01*
X1224916Y0323925D01*
X1224871Y0323346D01*
X1224817Y0323059D01*
X1224743Y0322772D01*
X1224743Y0322772D01*
X1224745Y0322287D01*
X1224459Y0320477D01*
X1224393Y0320064D01*
X1224333Y0319808D01*
X1224247Y0319499D01*
X1224247Y0319499D01*
X1224184Y0319009D01*
X1223658Y0316822D01*
X1223632Y0316734D01*
X1223485Y0316270D01*
D01*
X1223366Y0315785D01*
X1222647Y0313572D01*
X1222489Y0313169D01*
X1222465Y0313108D01*
X1222464Y0313108D01*
X1222301Y0312644D01*
X1221440Y0310566D01*
X1221230Y0310126D01*
X1221229Y0310126D01*
X1221166Y0309979D01*
X1221150Y0309943D01*
X1220992Y0309593D01*
X1220804Y0309224D01*
X1219930Y0307510D01*
X1219918Y0307486D01*
X1219730Y0307169D01*
X1219714Y0307164D01*
X1219682Y0307087D01*
X1219462Y0306678D01*
X1218270Y0304733D01*
X1217968Y0304342D01*
X1217935Y0304263D01*
X1217673Y0303839D01*
X1216307Y0301959D01*
X1216003Y0301674D01*
X1215877Y0301460D01*
X1215851Y0301417D01*
X1215689Y0301181D01*
X1215231Y0300644D01*
X1214546Y0300928D01*
X1213514Y0301064D01*
X1212482Y0300928D01*
X1211521Y0300530D01*
X1210695Y0299896D01*
X1210061Y0299071D01*
X1209663Y0298109D01*
X1209527Y0297077D01*
X1209663Y0296045D01*
X1209947Y0295360D01*
X1209349Y0294850D01*
X1209270Y0294798D01*
X1209130Y0294714D01*
X1208918Y0294588D01*
X1208918Y0294588D01*
X1208576Y0294243D01*
X1206753Y0292919D01*
X1206329Y0292656D01*
X1206250Y0292623D01*
X1205858Y0292321D01*
X1203914Y0291129D01*
X1203860Y0291100D01*
X1203427Y0290878D01*
X1203427Y0290878D01*
X1203000Y0290619D01*
X1202349Y0290287D01*
X1202203Y0290477D01*
X1201377Y0291111D01*
X1200416Y0291509D01*
X1199384Y0291645D01*
X1198352Y0291509D01*
X1197390Y0291111D01*
X1196565Y0290477D01*
X1195931Y0289651D01*
X1195533Y0288690D01*
X1195397Y0287658D01*
X1195427Y0287427D01*
X1194724Y0287199D01*
X1194717Y0287196D01*
X1194337Y0287098D01*
X1194322Y0287106D01*
X1194244Y0287074D01*
X1193770Y0286933D01*
X1191461Y0286379D01*
X1191092Y0286345D01*
X1190784Y0286258D01*
X1190783Y0286258D01*
X1190673Y0286232D01*
X1190527Y0286198D01*
X1190114Y0286133D01*
X1188663Y0285903D01*
X1188169Y0285825D01*
X1187819Y0285849D01*
X1187533Y0285775D01*
X1187533D01*
X1187421Y0285754D01*
X1187245Y0285721D01*
X1186564Y0285667D01*
X1186231Y0286472D01*
X1185597Y0287298D01*
X1184771Y0287931D01*
X1183810Y0288330D01*
X1182778Y0288466D01*
X1181746Y0288330D01*
X1180785Y0287931D01*
X1179959Y0287298D01*
X1179325Y0286472D01*
X1178994Y0285671D01*
X1178366Y0285721D01*
X1178078Y0285775D01*
X1177792Y0285849D01*
X1177792Y0285849D01*
X1177306Y0285846D01*
X1175497Y0286133D01*
X1175084Y0286198D01*
X1174828Y0286258D01*
X1174519Y0286345D01*
X1174519Y0286345D01*
X1174029Y0286408D01*
X1171841Y0286933D01*
X1171753Y0286959D01*
X1171289Y0287106D01*
D01*
X1170805Y0287225D01*
X1170145Y0287440D01*
X1170172Y0287640D01*
X1170036Y0288672D01*
X1169637Y0289634D01*
X1169004Y0290459D01*
X1168178Y0291093D01*
X1167217Y0291491D01*
X1166185Y0291627D01*
X1165153Y0291491D01*
X1164191Y0291093D01*
X1163366Y0290459D01*
X1163242Y0290298D01*
X1162529Y0290661D01*
X1162505Y0290673D01*
X1162189Y0290861D01*
X1162184Y0290878D01*
X1162107Y0290910D01*
X1161697Y0291129D01*
X1159753Y0292321D01*
X1159361Y0292623D01*
X1159282Y0292656D01*
X1158858Y0292919D01*
X1156979Y0294285D01*
X1156693Y0294588D01*
X1156480Y0294715D01*
X1156437Y0294741D01*
X1156200Y0294902D01*
X1155664Y0295360D01*
X1155948Y0296045D01*
X1156084Y0297077D01*
X1155948Y0298109D01*
X1155550Y0299071D01*
X1154916Y0299896D01*
X1154090Y0300530D01*
X1153129Y0300928D01*
X1152097Y0301064D01*
X1151065Y0300928D01*
X1150380Y0300644D01*
X1149869Y0301242D01*
X1149817Y0301322D01*
X1149734Y0301461D01*
X1149608Y0301674D01*
X1149608Y0301674D01*
X1149263Y0302016D01*
X1147939Y0303839D01*
X1147676Y0304263D01*
X1147643Y0304342D01*
X1147341Y0304733D01*
X1146149Y0306678D01*
X1146120Y0306732D01*
X1145897Y0307164D01*
X1145897Y0307164D01*
X1145639Y0307591D01*
X1144580Y0309669D01*
X1144454Y0309959D01*
X1144382Y0310126D01*
X1144382Y0310126D01*
X1144168Y0310571D01*
X1143310Y0312644D01*
X1143147Y0313107D01*
X1143147Y0313108D01*
X1143126Y0313159D01*
X1143072Y0313298D01*
X1142939Y0313649D01*
X1142218Y0315867D01*
X1142216Y0315875D01*
X1142118Y0316255D01*
X1142126Y0316270D01*
X1142094Y0316347D01*
X1141953Y0316822D01*
X1141398Y0319131D01*
X1141364Y0319499D01*
X1141278Y0319808D01*
X1141278Y0319808D01*
X1141252Y0319919D01*
X1141218Y0320064D01*
X1141152Y0320477D01*
X1140923Y0321928D01*
X1140844Y0322422D01*
X1140868Y0322772D01*
X1140795Y0323059D01*
Y0323059D01*
X1140774Y0323171D01*
X1140740Y0323346D01*
X1140694Y0323936D01*
X1141492Y0324266D01*
X1142318Y0324900D01*
X1142951Y0325726D01*
X1143349Y0326687D01*
X1143485Y0327719D01*
X1143349Y0328751D01*
X1142951Y0329712D01*
X1142318Y0330538D01*
X1141492Y0331172D01*
X1140684Y0331506D01*
X1140740Y0332225D01*
X1140795Y0332513D01*
X1140868Y0332799D01*
X1140868Y0332799D01*
X1140866Y0333285D01*
X1141152Y0335095D01*
X1141218Y0335507D01*
X1141278Y0335764D01*
X1141364Y0336072D01*
X1141364Y0336072D01*
X1141427Y0336563D01*
X1141953Y0338750D01*
X1141979Y0338838D01*
X1142126Y0339302D01*
D01*
X1142245Y0339787D01*
X1142417Y0340316D01*
X1143002Y0340239D01*
X1144034Y0340375D01*
X1144996Y0340773D01*
X1145821Y0341407D01*
X1146455Y0342232D01*
X1146853Y0343194D01*
X1146989Y0344226D01*
X1146853Y0345258D01*
X1146455Y0346219D01*
X1145821Y0347045D01*
X1145348Y0347408D01*
X1145681Y0348062D01*
X1145693Y0348086D01*
X1145881Y0348403D01*
X1145897Y0348408D01*
X1145930Y0348485D01*
X1146149Y0348894D01*
X1147341Y0350839D01*
X1147643Y0351230D01*
X1147676Y0351309D01*
X1147939Y0351733D01*
X1149304Y0353613D01*
X1149608Y0353898D01*
X1149735Y0354112D01*
X1149760Y0354155D01*
X1149922Y0354391D01*
X1150282Y0354813D01*
X1150497Y0354648D01*
X1151459Y0354250D01*
X1152491Y0354114D01*
X1153522Y0354250D01*
X1154484Y0354648D01*
X1155310Y0355282D01*
X1155943Y0356107D01*
X1156342Y0357069D01*
X1156478Y0358101D01*
X1156342Y0359133D01*
X1155943Y0360094D01*
X1155778Y0360309D01*
X1156262Y0360722D01*
X1156341Y0360774D01*
X1156481Y0360857D01*
X1156693Y0360984D01*
X1156693Y0360984D01*
X1157035Y0361328D01*
X1158858Y0362653D01*
X1159282Y0362916D01*
X1159361Y0362949D01*
X1159753Y0363251D01*
X1161697Y0364442D01*
X1161751Y0364471D01*
X1162184Y0364694D01*
X1162184Y0364694D01*
X1162611Y0364952D01*
X1164243Y0365784D01*
X1164689Y0366011D01*
X1164979Y0366137D01*
X1165145Y0366210D01*
X1165146Y0366210D01*
X1165591Y0366423D01*
X1167663Y0367281D01*
X1168127Y0367445D01*
X1168127Y0367445D01*
X1168179Y0367465D01*
X1168317Y0367519D01*
X1168668Y0367652D01*
X1170887Y0368373D01*
X1170895Y0368375D01*
X1171275Y0368474D01*
X1171289Y0368466D01*
X1171367Y0368498D01*
X1171841Y0368639D01*
X1174150Y0369193D01*
X1174519Y0369227D01*
X1174828Y0369314D01*
X1174828Y0369314D01*
X1174938Y0369340D01*
X1175084Y0369374D01*
X1175497Y0369439D01*
X1176948Y0369669D01*
X1177442Y0369747D01*
X1177792Y0369723D01*
X1178078Y0369797D01*
X1178079D01*
X1178190Y0369818D01*
X1178366Y0369851D01*
X1179020Y0369902D01*
X1179353Y0369100D01*
D02*
G37*
G36*
X1065180D02*
X1065813Y0368274D01*
X1066639Y0367640D01*
X1067601Y0367242D01*
X1068632Y0367106D01*
X1069664Y0367242D01*
X1070626Y0367640D01*
X1071451Y0368274D01*
X1072085Y0369100D01*
X1072418Y0369902D01*
X1073072Y0369851D01*
X1073359Y0369797D01*
X1073646Y0369723D01*
X1073646Y0369723D01*
X1074131Y0369726D01*
X1075941Y0369439D01*
X1076354Y0369374D01*
X1076610Y0369314D01*
X1076919Y0369227D01*
X1076919Y0369227D01*
X1077409Y0369164D01*
X1079597Y0368639D01*
X1079685Y0368613D01*
X1080149Y0368466D01*
D01*
X1080633Y0368346D01*
X1081236Y0368150D01*
X1081179Y0367714D01*
X1081314Y0366682D01*
X1081713Y0365720D01*
X1082346Y0364895D01*
X1083172Y0364261D01*
X1084134Y0363863D01*
X1085166Y0363727D01*
X1086197Y0363863D01*
X1087159Y0364261D01*
X1087985Y0364895D01*
X1088253Y0365245D01*
X1088908Y0364911D01*
X1088933Y0364898D01*
X1089249Y0364710D01*
X1089254Y0364694D01*
X1089331Y0364662D01*
X1089740Y0364442D01*
X1091685Y0363251D01*
X1092076Y0362949D01*
X1092156Y0362916D01*
X1092579Y0362653D01*
X1094459Y0361287D01*
X1094744Y0360984D01*
X1094958Y0360857D01*
X1095001Y0360831D01*
X1095238Y0360670D01*
X1095660Y0360309D01*
X1095495Y0360094D01*
X1095096Y0359133D01*
X1094960Y0358101D01*
X1095096Y0357069D01*
X1095495Y0356107D01*
X1096128Y0355282D01*
X1096954Y0354648D01*
X1097915Y0354250D01*
X1098947Y0354114D01*
X1099979Y0354250D01*
X1100941Y0354648D01*
X1101156Y0354813D01*
X1101569Y0354330D01*
X1101621Y0354250D01*
X1101704Y0354111D01*
X1101830Y0353898D01*
X1101830Y0353898D01*
X1102175Y0353556D01*
X1103499Y0351733D01*
X1103762Y0351309D01*
X1103795Y0351230D01*
X1104097Y0350839D01*
X1105289Y0348894D01*
X1105318Y0348840D01*
X1105540Y0348408D01*
X1105540Y0348408D01*
X1105799Y0347981D01*
X1106133Y0347324D01*
X1105653Y0346956D01*
X1105019Y0346130D01*
X1104621Y0345169D01*
X1104485Y0344137D01*
X1104621Y0343105D01*
X1105019Y0342143D01*
X1105653Y0341318D01*
X1106479Y0340684D01*
X1107440Y0340286D01*
X1108472Y0340150D01*
X1109050Y0340226D01*
X1109219Y0339705D01*
X1109222Y0339697D01*
X1109320Y0339317D01*
X1109312Y0339302D01*
X1109344Y0339225D01*
X1109485Y0338750D01*
X1110040Y0336441D01*
X1110074Y0336072D01*
X1110160Y0335764D01*
X1110160Y0335764D01*
X1110186Y0335653D01*
X1110220Y0335507D01*
X1110285Y0335095D01*
X1110515Y0333644D01*
X1110594Y0333150D01*
X1110569Y0332799D01*
X1110643Y0332513D01*
Y0332513D01*
X1110664Y0332401D01*
X1110697Y0332225D01*
X1110753Y0331518D01*
X1109918Y0331172D01*
X1109093Y0330538D01*
X1108459Y0329712D01*
X1108061Y0328751D01*
X1107925Y0327719D01*
X1108061Y0326687D01*
X1108459Y0325726D01*
X1109093Y0324900D01*
X1109918Y0324266D01*
X1110743Y0323925D01*
X1110697Y0323346D01*
X1110643Y0323059D01*
X1110569Y0322772D01*
X1110569Y0322772D01*
X1110572Y0322287D01*
X1110285Y0320477D01*
X1110220Y0320064D01*
X1110160Y0319808D01*
X1110074Y0319499D01*
X1110074Y0319499D01*
X1110011Y0319009D01*
X1109485Y0316822D01*
X1109459Y0316734D01*
X1109312Y0316270D01*
D01*
X1109193Y0315785D01*
X1108474Y0313572D01*
X1108315Y0313169D01*
X1108292Y0313108D01*
X1108291Y0313108D01*
X1108128Y0312644D01*
X1107267Y0310566D01*
X1107057Y0310126D01*
X1107056Y0310126D01*
X1106992Y0309979D01*
X1106977Y0309943D01*
X1106819Y0309593D01*
X1106631Y0309224D01*
X1105757Y0307510D01*
X1105745Y0307486D01*
X1105557Y0307169D01*
X1105540Y0307164D01*
X1105508Y0307087D01*
X1105289Y0306678D01*
X1104097Y0304733D01*
X1103795Y0304342D01*
X1103762Y0304263D01*
X1103499Y0303839D01*
X1102134Y0301959D01*
X1101830Y0301674D01*
X1101703Y0301460D01*
X1101678Y0301417D01*
X1101516Y0301181D01*
X1101058Y0300644D01*
X1100373Y0300928D01*
X1099341Y0301064D01*
X1098309Y0300928D01*
X1097348Y0300530D01*
X1096522Y0299896D01*
X1095888Y0299071D01*
X1095490Y0298109D01*
X1095354Y0297077D01*
X1095490Y0296045D01*
X1095774Y0295360D01*
X1095176Y0294850D01*
X1095096Y0294798D01*
X1094957Y0294714D01*
X1094744Y0294588D01*
X1094744Y0294588D01*
X1094403Y0294243D01*
X1092579Y0292919D01*
X1092156Y0292656D01*
X1092076Y0292623D01*
X1091685Y0292321D01*
X1089740Y0291129D01*
X1089686Y0291100D01*
X1089254Y0290878D01*
X1089254Y0290878D01*
X1088827Y0290619D01*
X1088175Y0290287D01*
X1088030Y0290477D01*
X1087204Y0291111D01*
X1086242Y0291509D01*
X1085211Y0291645D01*
X1084179Y0291509D01*
X1083217Y0291111D01*
X1082391Y0290477D01*
X1081758Y0289651D01*
X1081360Y0288690D01*
X1081224Y0287658D01*
X1081254Y0287427D01*
X1080551Y0287199D01*
X1080543Y0287196D01*
X1080163Y0287098D01*
X1080149Y0287106D01*
X1080071Y0287074D01*
X1079597Y0286933D01*
X1077288Y0286379D01*
X1076919Y0286345D01*
X1076610Y0286258D01*
X1076610Y0286258D01*
X1076500Y0286232D01*
X1076354Y0286198D01*
X1075941Y0286133D01*
X1074490Y0285903D01*
X1073996Y0285825D01*
X1073646Y0285849D01*
X1073359Y0285775D01*
X1073359D01*
X1073248Y0285754D01*
X1073072Y0285721D01*
X1072391Y0285667D01*
X1072058Y0286472D01*
X1071424Y0287298D01*
X1070598Y0287931D01*
X1069637Y0288330D01*
X1068605Y0288466D01*
X1067573Y0288330D01*
X1066611Y0287931D01*
X1065786Y0287298D01*
X1065152Y0286472D01*
X1064820Y0285671D01*
X1064193Y0285721D01*
X1063905Y0285775D01*
X1063619Y0285849D01*
X1063619Y0285849D01*
X1063133Y0285846D01*
X1061324Y0286133D01*
X1060911Y0286198D01*
X1060654Y0286258D01*
X1060346Y0286345D01*
X1060346Y0286345D01*
X1059856Y0286408D01*
X1057668Y0286933D01*
X1057580Y0286959D01*
X1057116Y0287106D01*
D01*
X1056632Y0287225D01*
X1055972Y0287440D01*
X1055998Y0287640D01*
X1055863Y0288672D01*
X1055464Y0289634D01*
X1054831Y0290459D01*
X1054005Y0291093D01*
X1053043Y0291491D01*
X1052012Y0291627D01*
X1050980Y0291491D01*
X1050018Y0291093D01*
X1049192Y0290459D01*
X1049069Y0290298D01*
X1048356Y0290661D01*
X1048332Y0290673D01*
X1048015Y0290861D01*
X1048011Y0290878D01*
X1047933Y0290910D01*
X1047524Y0291129D01*
X1045580Y0292321D01*
X1045188Y0292623D01*
X1045109Y0292656D01*
X1044685Y0292919D01*
X1042805Y0294285D01*
X1042520Y0294588D01*
X1042307Y0294715D01*
X1042263Y0294741D01*
X1042027Y0294902D01*
X1041491Y0295360D01*
X1041775Y0296045D01*
X1041910Y0297077D01*
X1041775Y0298109D01*
X1041376Y0299071D01*
X1040743Y0299896D01*
X1039917Y0300530D01*
X1038956Y0300928D01*
X1037924Y0301064D01*
X1036892Y0300928D01*
X1036207Y0300644D01*
X1035696Y0301242D01*
X1035644Y0301322D01*
X1035561Y0301461D01*
X1035435Y0301674D01*
X1035435Y0301674D01*
X1035090Y0302016D01*
X1033765Y0303839D01*
X1033502Y0304263D01*
X1033470Y0304342D01*
X1033168Y0304733D01*
X1031976Y0306678D01*
X1031947Y0306732D01*
X1031724Y0307164D01*
X1031724Y0307164D01*
X1031466Y0307591D01*
X1030407Y0309669D01*
X1030281Y0309959D01*
X1030209Y0310126D01*
X1030208Y0310126D01*
X1029995Y0310571D01*
X1029137Y0312644D01*
X1028973Y0313107D01*
X1028973Y0313108D01*
X1028953Y0313159D01*
X1028899Y0313298D01*
X1028766Y0313649D01*
X1028045Y0315867D01*
X1028043Y0315875D01*
X1027944Y0316255D01*
X1027953Y0316270D01*
X1027921Y0316347D01*
X1027779Y0316822D01*
X1027225Y0319131D01*
X1027191Y0319499D01*
X1027105Y0319808D01*
X1027105Y0319808D01*
X1027079Y0319919D01*
X1027044Y0320064D01*
X1026979Y0320477D01*
X1026749Y0321928D01*
X1026671Y0322422D01*
X1026695Y0322772D01*
X1026621Y0323059D01*
Y0323059D01*
X1026600Y0323171D01*
X1026567Y0323346D01*
X1026521Y0323936D01*
X1027319Y0324266D01*
X1028144Y0324900D01*
X1028778Y0325726D01*
X1029176Y0326687D01*
X1029312Y0327719D01*
X1029176Y0328751D01*
X1028778Y0329712D01*
X1028144Y0330538D01*
X1027319Y0331172D01*
X1026511Y0331506D01*
X1026567Y0332225D01*
X1026621Y0332513D01*
X1026695Y0332799D01*
X1026695Y0332799D01*
X1026692Y0333285D01*
X1026979Y0335095D01*
X1027044Y0335507D01*
X1027105Y0335764D01*
X1027191Y0336072D01*
X1027191Y0336072D01*
X1027254Y0336563D01*
X1027779Y0338750D01*
X1027806Y0338838D01*
X1027953Y0339302D01*
D01*
X1028072Y0339787D01*
X1028244Y0340316D01*
X1028829Y0340239D01*
X1029861Y0340375D01*
X1030822Y0340773D01*
X1031648Y0341407D01*
X1032282Y0342232D01*
X1032680Y0343194D01*
X1032816Y0344226D01*
X1032680Y0345258D01*
X1032282Y0346219D01*
X1031648Y0347045D01*
X1031174Y0347408D01*
X1031507Y0348062D01*
X1031520Y0348086D01*
X1031708Y0348403D01*
X1031724Y0348408D01*
X1031756Y0348485D01*
X1031976Y0348894D01*
X1033168Y0350839D01*
X1033470Y0351230D01*
X1033502Y0351309D01*
X1033765Y0351733D01*
X1035131Y0353613D01*
X1035435Y0353898D01*
X1035561Y0354112D01*
X1035587Y0354155D01*
X1035749Y0354391D01*
X1036109Y0354813D01*
X1036324Y0354648D01*
X1037286Y0354250D01*
X1038317Y0354114D01*
X1039349Y0354250D01*
X1040311Y0354648D01*
X1041136Y0355282D01*
X1041770Y0356107D01*
X1042168Y0357069D01*
X1042304Y0358101D01*
X1042168Y0359133D01*
X1041770Y0360094D01*
X1041605Y0360309D01*
X1042089Y0360722D01*
X1042168Y0360774D01*
X1042307Y0360857D01*
X1042520Y0360984D01*
X1042520Y0360984D01*
X1042862Y0361328D01*
X1044685Y0362653D01*
X1045109Y0362916D01*
X1045188Y0362949D01*
X1045580Y0363251D01*
X1047524Y0364442D01*
X1047578Y0364471D01*
X1048011Y0364694D01*
X1048011Y0364694D01*
X1048437Y0364952D01*
X1050070Y0365784D01*
X1050516Y0366011D01*
X1050805Y0366137D01*
X1050972Y0366210D01*
X1050972Y0366210D01*
X1051418Y0366423D01*
X1053490Y0367281D01*
X1053954Y0367445D01*
X1053954Y0367445D01*
X1054006Y0367465D01*
X1054144Y0367519D01*
X1054495Y0367652D01*
X1056713Y0368373D01*
X1056721Y0368375D01*
X1057101Y0368474D01*
X1057116Y0368466D01*
X1057193Y0368498D01*
X1057668Y0368639D01*
X1059977Y0369193D01*
X1060346Y0369227D01*
X1060654Y0369314D01*
X1060655Y0369314D01*
X1060765Y0369340D01*
X1060911Y0369374D01*
X1061324Y0369439D01*
X1062775Y0369669D01*
X1063269Y0369747D01*
X1063619Y0369723D01*
X1063905Y0369797D01*
X1063905D01*
X1064017Y0369818D01*
X1064193Y0369851D01*
X1064847Y0369902D01*
X1065180Y0369100D01*
D02*
G37*
%LPC*%
G36*
X0941023Y0573934D02*
X0940569Y0573821D01*
X0940009Y0573821D01*
X0939930Y0573806D01*
X0939850Y0573811D01*
X0937840Y0573548D01*
X0937764Y0573522D01*
X0937683Y0573517D01*
X0935725Y0572993D01*
X0935653Y0572957D01*
X0935574Y0572941D01*
X0933701Y0572166D01*
X0933634Y0572121D01*
X0933558Y0572096D01*
X0931802Y0571082D01*
X0931742Y0571029D01*
X0931669Y0570994D01*
X0930061Y0569760D01*
X0930008Y0569699D01*
X0929941Y0569655D01*
X0928508Y0568221D01*
X0928463Y0568154D01*
X0928402Y0568101D01*
X0927168Y0566493D01*
X0927133Y0566421D01*
X0927080Y0566360D01*
X0926066Y0564604D01*
X0926041Y0564528D01*
X0925996Y0564461D01*
X0925221Y0562588D01*
X0925205Y0562509D01*
X0925169Y0562437D01*
X0924646Y0560479D01*
X0924640Y0560398D01*
X0924615Y0560322D01*
X0924351Y0558312D01*
X0924356Y0558232D01*
X0924341Y0558153D01*
X0924341Y0557593D01*
X0924228Y0557140D01*
X0924228D01*
X0924331Y0556683D01*
X0924341Y0556639D01*
Y0534593D01*
X0924228Y0534094D01*
X0924228Y0534093D01*
X0924233Y0534082D01*
X0924341Y0533975D01*
X0924341Y0533128D01*
X0924345Y0533109D01*
Y0533109D01*
X0924365Y0533010D01*
Y0532910D01*
X0924365Y0532909D01*
Y0532890D01*
X0924741Y0530996D01*
X0924749Y0530978D01*
X0924749Y0530978D01*
X0924787Y0530885D01*
X0924807Y0530786D01*
X0924807Y0530786D01*
X0924811Y0530767D01*
X0925550Y0528983D01*
X0925560Y0528967D01*
X0925561Y0528966D01*
X0925616Y0528883D01*
X0925655Y0528790D01*
X0925655Y0528790D01*
X0925663Y0528772D01*
X0926735Y0527166D01*
X0926749Y0527153D01*
X0926749Y0527152D01*
X0926820Y0527081D01*
X0926876Y0526998D01*
X0926877Y0526998D01*
X0926887Y0526981D01*
X0927241Y0526627D01*
X0927486Y0526228D01*
X0927490Y0526219D01*
X0927494Y0526223D01*
X0927884Y0525984D01*
X0948623Y0505246D01*
X0948777Y0505014D01*
X0948904Y0504804D01*
X0948914Y0504801D01*
X0949344Y0504525D01*
X0949454Y0504414D01*
X0949470Y0504403D01*
X0949471Y0504403D01*
X0949554Y0504347D01*
X0949625Y0504276D01*
X0949625Y0504276D01*
X0949639Y0504262D01*
X0950744Y0503524D01*
X0950762Y0503516D01*
X0950763Y0503516D01*
X0950855Y0503478D01*
X0950939Y0503422D01*
X0950939Y0503422D01*
X0950955Y0503411D01*
X0952183Y0502903D01*
X0952202Y0502899D01*
X0952203Y0502899D01*
X0952301Y0502879D01*
X0952394Y0502841D01*
X0952395Y0502840D01*
X0952412Y0502833D01*
X0953716Y0502574D01*
X0953735D01*
X0953736Y0502574D01*
X0953836Y0502574D01*
X0953935Y0502554D01*
X0953935D01*
X0953954Y0502550D01*
X0954506Y0502550D01*
X0954619Y0502437D01*
X0954619Y0502437D01*
X0954732Y0502550D01*
X0956396Y0502550D01*
X0956456Y0502562D01*
X0956516Y0502556D01*
X0960053Y0502905D01*
X0960111Y0502922D01*
X0960172D01*
X0963658Y0503616D01*
X0963714Y0503639D01*
X0963774Y0503645D01*
X0967176Y0504676D01*
X0967229Y0504705D01*
X0967289Y0504717D01*
X0970573Y0506077D01*
X0970623Y0506111D01*
X0970681Y0506128D01*
X0973816Y0507804D01*
X0973863Y0507842D01*
X0973919Y0507865D01*
X0976875Y0509840D01*
X0976917Y0509883D01*
X0976971Y0509912D01*
X0979718Y0512167D01*
X0979757Y0512214D01*
X0979807Y0512247D01*
X0982321Y0514761D01*
X0982355Y0514811D01*
X0982401Y0514850D01*
X0984656Y0517597D01*
X0984685Y0517651D01*
X0984728Y0517693D01*
X0986703Y0520649D01*
X0986726Y0520705D01*
X0986764Y0520752D01*
X0988440Y0523887D01*
X0988457Y0523945D01*
X0988491Y0523995D01*
X0989851Y0527279D01*
X0989863Y0527339D01*
X0989892Y0527392D01*
X0990924Y0530794D01*
X0990929Y0530854D01*
X0990953Y0530910D01*
X0991646Y0534396D01*
Y0534457D01*
X0991664Y0534515D01*
X0992012Y0538052D01*
X0992006Y0538112D01*
X0992018Y0538172D01*
X0992018Y0539941D01*
X0992007Y0539994D01*
X0992013Y0540048D01*
X0991504Y0545801D01*
X0991521Y0545985D01*
X0991550Y0546289D01*
X0991567Y0546330D01*
X0991527Y0546427D01*
X0991476Y0546809D01*
X0991460Y0546941D01*
X0991411Y0547683D01*
X0991395Y0547745D01*
X0991397Y0547808D01*
X0991254Y0548641D01*
X0991232Y0548701D01*
X0991227Y0548764D01*
X0991040Y0549434D01*
X0990912Y0549901D01*
X0990901Y0549935D01*
X0990770Y0550343D01*
X0990623Y0550858D01*
X0990593Y0550915D01*
X0990582Y0550978D01*
X0990366Y0551516D01*
X0990331Y0551569D01*
X0990313Y0551630D01*
X0990043Y0552143D01*
X0990003Y0552192D01*
X0989979Y0552251D01*
X0989950Y0552295D01*
X0989935Y0552408D01*
X0989915Y0552465D01*
X0989913Y0552525D01*
X0989753Y0553209D01*
X0989728Y0553264D01*
X0989720Y0553324D01*
X0989493Y0553989D01*
X0989463Y0554041D01*
X0989449Y0554100D01*
X0989158Y0554739D01*
X0989123Y0554788D01*
X0989103Y0554846D01*
X0989062Y0554917D01*
X0988964Y0555154D01*
X0988943Y0555231D01*
X0988917Y0555286D01*
X0988907Y0555345D01*
X0988666Y0555993D01*
X0988635Y0556045D01*
X0988619Y0556103D01*
X0988316Y0556724D01*
X0988279Y0556773D01*
X0988258Y0556830D01*
X0987896Y0557418D01*
X0987854Y0557462D01*
X0987828Y0557517D01*
X0987626Y0557781D01*
X0987564Y0557836D01*
X0987518Y0557905D01*
X0977880Y0567543D01*
X0977573Y0567936D01*
X0977521Y0568062D01*
X0977147Y0568365D01*
X0977072Y0568459D01*
X0977026Y0568498D01*
X0976993Y0568549D01*
X0975991Y0569587D01*
X0975941Y0569621D01*
X0975904Y0569669D01*
X0974805Y0570603D01*
X0974752Y0570632D01*
X0974710Y0570676D01*
X0973524Y0571497D01*
X0973469Y0571522D01*
X0973423Y0571561D01*
X0972163Y0572262D01*
X0972105Y0572281D01*
X0972055Y0572316D01*
X0970732Y0572890D01*
X0970673Y0572903D01*
X0970620Y0572933D01*
X0969248Y0573375D01*
X0969188Y0573382D01*
X0969132Y0573406D01*
X0967722Y0573711D01*
X0967662Y0573713D01*
X0967604Y0573731D01*
X0966899Y0573813D01*
X0966829Y0573807D01*
X0966759Y0573821D01*
X0941523Y0573821D01*
X0941026Y0573933D01*
X0941023Y0573934D01*
D02*
G37*
G36*
X0826849D02*
X0826396Y0573821D01*
X0825836Y0573821D01*
X0825757Y0573806D01*
X0825677Y0573811D01*
X0823667Y0573548D01*
X0823591Y0573522D01*
X0823510Y0573517D01*
X0821552Y0572993D01*
X0821480Y0572957D01*
X0821401Y0572941D01*
X0819528Y0572166D01*
X0819461Y0572121D01*
X0819384Y0572096D01*
X0817629Y0571082D01*
X0817568Y0571029D01*
X0817496Y0570994D01*
X0815888Y0569760D01*
X0815835Y0569699D01*
X0815768Y0569655D01*
X0814334Y0568221D01*
X0814289Y0568154D01*
X0814229Y0568101D01*
X0812995Y0566493D01*
X0812959Y0566421D01*
X0812906Y0566360D01*
X0811893Y0564604D01*
X0811867Y0564528D01*
X0811823Y0564461D01*
X0811047Y0562588D01*
X0811032Y0562509D01*
X0810996Y0562437D01*
X0810472Y0560479D01*
X0810467Y0560398D01*
X0810441Y0560322D01*
X0810178Y0558312D01*
X0810183Y0558232D01*
X0810167Y0558153D01*
X0810168Y0557593D01*
X0810055Y0557140D01*
X0810055D01*
X0810158Y0556683D01*
X0810168Y0556639D01*
Y0534593D01*
X0810055Y0534094D01*
X0810055Y0534093D01*
X0810060Y0534082D01*
X0810168Y0533975D01*
X0810168Y0533128D01*
X0810172Y0533109D01*
Y0533109D01*
X0810191Y0533010D01*
Y0532910D01*
X0810192Y0532909D01*
Y0532890D01*
X0810568Y0530996D01*
X0810576Y0530978D01*
X0810576Y0530978D01*
X0810614Y0530885D01*
X0810634Y0530786D01*
X0810634Y0530786D01*
X0810638Y0530767D01*
X0811377Y0528983D01*
X0811387Y0528967D01*
X0811388Y0528966D01*
X0811443Y0528883D01*
X0811482Y0528790D01*
X0811482Y0528790D01*
X0811489Y0528772D01*
X0812562Y0527166D01*
X0812576Y0527153D01*
X0812576Y0527152D01*
X0812647Y0527081D01*
X0812703Y0526998D01*
X0812703Y0526998D01*
X0812714Y0526981D01*
X0813068Y0526627D01*
X0813313Y0526228D01*
X0813317Y0526219D01*
X0813321Y0526223D01*
X0813711Y0525984D01*
X0834450Y0505246D01*
X0834604Y0505014D01*
X0834731Y0504804D01*
X0834741Y0504801D01*
X0835170Y0504525D01*
X0835281Y0504414D01*
X0835297Y0504403D01*
X0835297Y0504403D01*
X0835381Y0504347D01*
X0835452Y0504276D01*
X0835452Y0504276D01*
X0835466Y0504262D01*
X0836571Y0503524D01*
X0836589Y0503516D01*
X0836589Y0503516D01*
X0836682Y0503478D01*
X0836766Y0503422D01*
X0836766Y0503422D01*
X0836782Y0503411D01*
X0838010Y0502903D01*
X0838029Y0502899D01*
X0838030Y0502899D01*
X0838128Y0502879D01*
X0838221Y0502841D01*
X0838221Y0502840D01*
X0838239Y0502833D01*
X0839543Y0502574D01*
X0839562D01*
X0839563Y0502574D01*
X0839663Y0502574D01*
X0839762Y0502554D01*
X0839762D01*
X0839781Y0502550D01*
X0840332Y0502550D01*
X0840446Y0502437D01*
X0840446Y0502437D01*
X0840559Y0502550D01*
X0842223Y0502550D01*
X0842282Y0502562D01*
X0842342Y0502556D01*
X0845880Y0502905D01*
X0845938Y0502922D01*
X0845998D01*
X0849485Y0503616D01*
X0849541Y0503639D01*
X0849601Y0503645D01*
X0853003Y0504676D01*
X0853056Y0504705D01*
X0853115Y0504717D01*
X0856400Y0506077D01*
X0856450Y0506111D01*
X0856508Y0506128D01*
X0859643Y0507804D01*
X0859690Y0507842D01*
X0859746Y0507865D01*
X0862701Y0509840D01*
X0862744Y0509883D01*
X0862797Y0509912D01*
X0865545Y0512167D01*
X0865584Y0512214D01*
X0865634Y0512247D01*
X0868148Y0514761D01*
X0868181Y0514811D01*
X0868228Y0514850D01*
X0870483Y0517597D01*
X0870512Y0517651D01*
X0870554Y0517693D01*
X0872529Y0520649D01*
X0872552Y0520705D01*
X0872591Y0520752D01*
X0874267Y0523887D01*
X0874284Y0523945D01*
X0874318Y0523995D01*
X0875678Y0527279D01*
X0875690Y0527339D01*
X0875718Y0527392D01*
X0876750Y0530794D01*
X0876756Y0530854D01*
X0876779Y0530910D01*
X0877473Y0534396D01*
Y0534457D01*
X0877490Y0534515D01*
X0877839Y0538052D01*
X0877833Y0538112D01*
X0877845Y0538172D01*
X0877845Y0539941D01*
X0877834Y0539994D01*
X0877840Y0540048D01*
X0877331Y0545801D01*
X0877348Y0545985D01*
X0877376Y0546289D01*
X0877394Y0546330D01*
X0877353Y0546427D01*
X0877303Y0546809D01*
X0877287Y0546941D01*
X0877238Y0547683D01*
X0877221Y0547745D01*
X0877223Y0547808D01*
X0877081Y0548641D01*
X0877058Y0548701D01*
X0877054Y0548764D01*
X0876867Y0549434D01*
X0876739Y0549901D01*
X0876728Y0549935D01*
X0876597Y0550343D01*
X0876449Y0550858D01*
X0876420Y0550915D01*
X0876408Y0550978D01*
X0876193Y0551516D01*
X0876158Y0551569D01*
X0876140Y0551630D01*
X0875870Y0552143D01*
X0875830Y0552192D01*
X0875806Y0552251D01*
X0875776Y0552295D01*
X0875762Y0552408D01*
X0875742Y0552465D01*
X0875740Y0552525D01*
X0875580Y0553209D01*
X0875554Y0553264D01*
X0875546Y0553324D01*
X0875320Y0553989D01*
X0875290Y0554041D01*
X0875276Y0554100D01*
X0874985Y0554739D01*
X0874949Y0554788D01*
X0874930Y0554846D01*
X0874889Y0554917D01*
X0874790Y0555154D01*
X0874770Y0555231D01*
X0874744Y0555286D01*
X0874734Y0555345D01*
X0874493Y0555993D01*
X0874461Y0556045D01*
X0874446Y0556103D01*
X0874143Y0556724D01*
X0874106Y0556773D01*
X0874085Y0556830D01*
X0873722Y0557418D01*
X0873681Y0557462D01*
X0873655Y0557517D01*
X0873453Y0557781D01*
X0873391Y0557836D01*
X0873345Y0557905D01*
X0863707Y0567543D01*
X0863400Y0567936D01*
X0863348Y0568062D01*
X0862973Y0568365D01*
X0862899Y0568459D01*
X0862852Y0568498D01*
X0862820Y0568549D01*
X0861818Y0569587D01*
X0861768Y0569621D01*
X0861730Y0569669D01*
X0860631Y0570603D01*
X0860578Y0570632D01*
X0860536Y0570676D01*
X0859351Y0571497D01*
X0859296Y0571522D01*
X0859250Y0571561D01*
X0857990Y0572262D01*
X0857932Y0572281D01*
X0857882Y0572316D01*
X0856559Y0572890D01*
X0856500Y0572903D01*
X0856447Y0572933D01*
X0855074Y0573375D01*
X0855014Y0573382D01*
X0854959Y0573406D01*
X0853549Y0573711D01*
X0853489Y0573713D01*
X0853431Y0573731D01*
X0852726Y0573813D01*
X0852655Y0573807D01*
X0852586Y0573821D01*
X0827350Y0573821D01*
X0826853Y0573933D01*
X0826849Y0573934D01*
D02*
G37*
G36*
X1182806Y0576600D02*
X1182569Y0576599D01*
X1182553Y0576593D01*
X1182553D01*
X1182489Y0576528D01*
X1182306Y0576486D01*
X1180867Y0576486D01*
X1180808Y0576475D01*
X1180748Y0576480D01*
X1177360Y0576147D01*
X1177302Y0576129D01*
X1177242D01*
X1173903Y0575465D01*
X1173847Y0575442D01*
X1173787Y0575436D01*
X1170529Y0574448D01*
X1170476Y0574419D01*
X1170417Y0574408D01*
X1167272Y0573105D01*
X1167221Y0573071D01*
X1167163Y0573054D01*
X1164161Y0571449D01*
X1164114Y0571411D01*
X1164059Y0571387D01*
X1161228Y0569496D01*
X1161185Y0569453D01*
X1161132Y0569425D01*
X1158501Y0567265D01*
X1158462Y0567219D01*
X1158412Y0567185D01*
X1156005Y0564778D01*
X1155971Y0564728D01*
X1155924Y0564689D01*
X1153765Y0562058D01*
X1153736Y0562005D01*
X1153694Y0561962D01*
X1151802Y0559131D01*
X1151779Y0559075D01*
X1151741Y0559029D01*
X1150136Y0556027D01*
X1150119Y0555969D01*
X1150085Y0555918D01*
X1148782Y0552773D01*
X1148770Y0552714D01*
X1148742Y0552661D01*
X1147754Y0549403D01*
X1147748Y0549343D01*
X1147725Y0549287D01*
X1147061Y0545948D01*
Y0545888D01*
X1147043Y0545830D01*
X1146709Y0542442D01*
X1146715Y0542382D01*
X1146704Y0542322D01*
X1146704Y0540734D01*
X1146591Y0540621D01*
X1146590D01*
X1146590Y0540621D01*
X1146590Y0540620D01*
X1146704Y0540120D01*
X1146704Y0538901D01*
X1146715Y0538842D01*
X1146709Y0538781D01*
X1147046Y0535359D01*
X1147064Y0535301D01*
Y0535241D01*
X1147735Y0531868D01*
X1147758Y0531812D01*
X1147764Y0531752D01*
X1148762Y0528461D01*
X1148791Y0528407D01*
X1148802Y0528348D01*
X1150119Y0525171D01*
X1150152Y0525121D01*
X1150170Y0525063D01*
X1151791Y0522030D01*
X1151829Y0521983D01*
X1151852Y0521927D01*
X1153763Y0519068D01*
X1153806Y0519025D01*
X1153834Y0518972D01*
X1156016Y0516314D01*
X1156063Y0516275D01*
X1156096Y0516225D01*
X1158528Y0513793D01*
X1158578Y0513760D01*
X1158617Y0513713D01*
X1161275Y0511531D01*
X1161328Y0511503D01*
X1161371Y0511460D01*
X1164231Y0509549D01*
X1164286Y0509526D01*
X1164333Y0509488D01*
X1167366Y0507867D01*
X1167424Y0507849D01*
X1167474Y0507815D01*
X1170651Y0506499D01*
X1170711Y0506488D01*
X1170764Y0506459D01*
X1174055Y0505461D01*
X1174115Y0505455D01*
X1174171Y0505432D01*
X1177544Y0504761D01*
X1177604D01*
X1177662Y0504743D01*
X1181085Y0504406D01*
X1181145Y0504412D01*
X1181204Y0504400D01*
X1182424Y0504400D01*
X1182924Y0504287D01*
X1182924Y0504287D01*
X1182924D01*
X1182924Y0504287D01*
X1183424Y0504400D01*
X1184632Y0504400D01*
X1184691Y0504412D01*
X1184751Y0504406D01*
X1188150Y0504741D01*
X1188208Y0504759D01*
X1188269D01*
X1191619Y0505425D01*
X1191675Y0505448D01*
X1191735Y0505454D01*
X1195004Y0506446D01*
X1195057Y0506474D01*
X1195116Y0506486D01*
X1198272Y0507793D01*
X1198322Y0507827D01*
X1198380Y0507844D01*
X1201392Y0509454D01*
X1201439Y0509493D01*
X1201495Y0509516D01*
X1204335Y0511413D01*
X1204378Y0511456D01*
X1204432Y0511485D01*
X1207072Y0513652D01*
X1207110Y0513698D01*
X1207161Y0513732D01*
X1209576Y0516147D01*
X1209610Y0516198D01*
X1209656Y0516236D01*
X1211823Y0518876D01*
X1211852Y0518930D01*
X1211894Y0518972D01*
X1213792Y0521813D01*
X1213815Y0521869D01*
X1213854Y0521915D01*
X1215464Y0524928D01*
X1215481Y0524986D01*
X1215515Y0525036D01*
X1216822Y0528192D01*
X1216834Y0528251D01*
X1216862Y0528304D01*
X1217854Y0531573D01*
X1217860Y0531633D01*
X1217883Y0531689D01*
X1218549Y0535039D01*
Y0535100D01*
X1218567Y0535158D01*
X1218902Y0538557D01*
X1218896Y0538617D01*
X1218908Y0538676D01*
X1218908Y0539884D01*
X1219021Y0540384D01*
X1219008Y0540414D01*
X1218908Y0540512D01*
X1218908Y0542098D01*
X1218896Y0542157D01*
X1218902Y0542217D01*
X1218566Y0545628D01*
X1218548Y0545686D01*
Y0545747D01*
X1217880Y0549108D01*
X1217856Y0549164D01*
X1217850Y0549224D01*
X1216856Y0552504D01*
X1216827Y0552557D01*
X1216815Y0552617D01*
X1215504Y0555783D01*
X1215470Y0555833D01*
X1215452Y0555891D01*
X1213837Y0558914D01*
X1213799Y0558961D01*
X1213775Y0559017D01*
X1211871Y0561866D01*
X1211828Y0561909D01*
X1211800Y0561963D01*
X1209626Y0564612D01*
X1209579Y0564650D01*
X1209545Y0564701D01*
X1207122Y0567124D01*
X1207072Y0567158D01*
X1207033Y0567205D01*
X1204384Y0569379D01*
X1204331Y0569407D01*
X1204288Y0569450D01*
X1201438Y0571354D01*
X1201382Y0571377D01*
X1201335Y0571416D01*
X1198313Y0573031D01*
X1198255Y0573049D01*
X1198205Y0573082D01*
X1195038Y0574394D01*
X1194979Y0574406D01*
X1194925Y0574434D01*
X1191646Y0575429D01*
X1191585Y0575435D01*
X1191529Y0575458D01*
X1188168Y0576127D01*
X1188107D01*
X1188050Y0576145D01*
X1184639Y0576480D01*
X1184579Y0576475D01*
X1184519Y0576486D01*
X1183069Y0576486D01*
X1182875Y0576530D01*
X1182806Y0576600D01*
D02*
G37*
G36*
X1068632D02*
X1068396Y0576599D01*
X1068380Y0576593D01*
X1068380D01*
X1068316Y0576528D01*
X1068132Y0576486D01*
X1066694Y0576486D01*
X1066635Y0576475D01*
X1066574Y0576480D01*
X1063187Y0576147D01*
X1063129Y0576129D01*
X1063068D01*
X1059730Y0575465D01*
X1059674Y0575442D01*
X1059614Y0575436D01*
X1056356Y0574448D01*
X1056303Y0574419D01*
X1056243Y0574408D01*
X1053098Y0573105D01*
X1053048Y0573071D01*
X1052990Y0573054D01*
X1049988Y0571449D01*
X1049941Y0571411D01*
X1049885Y0571387D01*
X1047055Y0569496D01*
X1047012Y0569453D01*
X1046959Y0569425D01*
X1044327Y0567265D01*
X1044289Y0567219D01*
X1044239Y0567185D01*
X1041832Y0564778D01*
X1041798Y0564728D01*
X1041751Y0564689D01*
X1039592Y0562058D01*
X1039563Y0562005D01*
X1039520Y0561962D01*
X1037629Y0559131D01*
X1037606Y0559075D01*
X1037568Y0559029D01*
X1035963Y0556027D01*
X1035945Y0555969D01*
X1035912Y0555918D01*
X1034609Y0552773D01*
X1034597Y0552714D01*
X1034569Y0552661D01*
X1033581Y0549403D01*
X1033575Y0549343D01*
X1033551Y0549287D01*
X1032887Y0545948D01*
Y0545888D01*
X1032870Y0545830D01*
X1032536Y0542442D01*
X1032542Y0542382D01*
X1032530Y0542322D01*
X1032530Y0540734D01*
X1032417Y0540621D01*
X1032417D01*
X1032417Y0540621D01*
X1032417Y0540620D01*
X1032530Y0540120D01*
X1032530Y0538901D01*
X1032542Y0538842D01*
X1032536Y0538781D01*
X1032873Y0535359D01*
X1032891Y0535301D01*
Y0535241D01*
X1033562Y0531868D01*
X1033585Y0531812D01*
X1033591Y0531752D01*
X1034589Y0528461D01*
X1034618Y0528407D01*
X1034629Y0528348D01*
X1035945Y0525171D01*
X1035979Y0525121D01*
X1035997Y0525063D01*
X1037617Y0522030D01*
X1037656Y0521983D01*
X1037679Y0521927D01*
X1039590Y0519068D01*
X1039633Y0519025D01*
X1039661Y0518972D01*
X1041843Y0516314D01*
X1041889Y0516275D01*
X1041923Y0516225D01*
X1044355Y0513793D01*
X1044405Y0513760D01*
X1044443Y0513713D01*
X1047102Y0511531D01*
X1047155Y0511503D01*
X1047198Y0511460D01*
X1050057Y0509549D01*
X1050113Y0509526D01*
X1050160Y0509488D01*
X1053193Y0507867D01*
X1053251Y0507849D01*
X1053301Y0507815D01*
X1056478Y0506499D01*
X1056538Y0506488D01*
X1056591Y0506459D01*
X1059882Y0505461D01*
X1059942Y0505455D01*
X1059998Y0505432D01*
X1063371Y0504761D01*
X1063431D01*
X1063489Y0504743D01*
X1066911Y0504406D01*
X1066972Y0504412D01*
X1067031Y0504400D01*
X1068250Y0504400D01*
X1068750Y0504287D01*
X1068750Y0504287D01*
X1068750D01*
X1068750Y0504287D01*
X1069250Y0504400D01*
X1070458Y0504400D01*
X1070518Y0504412D01*
X1070578Y0504406D01*
X1073977Y0504741D01*
X1074035Y0504759D01*
X1074096D01*
X1077446Y0505425D01*
X1077501Y0505448D01*
X1077562Y0505454D01*
X1080830Y0506446D01*
X1080884Y0506474D01*
X1080943Y0506486D01*
X1084099Y0507793D01*
X1084149Y0507827D01*
X1084207Y0507844D01*
X1087219Y0509454D01*
X1087266Y0509493D01*
X1087322Y0509516D01*
X1090162Y0511413D01*
X1090205Y0511456D01*
X1090258Y0511485D01*
X1092899Y0513652D01*
X1092937Y0513698D01*
X1092987Y0513732D01*
X1095403Y0516147D01*
X1095436Y0516198D01*
X1095483Y0516236D01*
X1097650Y0518876D01*
X1097678Y0518930D01*
X1097721Y0518972D01*
X1099619Y0521813D01*
X1099642Y0521869D01*
X1099681Y0521915D01*
X1101291Y0524928D01*
X1101308Y0524986D01*
X1101342Y0525036D01*
X1102649Y0528192D01*
X1102661Y0528251D01*
X1102689Y0528304D01*
X1103681Y0531573D01*
X1103687Y0531633D01*
X1103710Y0531689D01*
X1104376Y0535039D01*
Y0535100D01*
X1104394Y0535158D01*
X1104729Y0538557D01*
X1104723Y0538617D01*
X1104734Y0538676D01*
X1104734Y0539884D01*
X1104847Y0540384D01*
X1104835Y0540414D01*
X1104734Y0540512D01*
X1104734Y0542098D01*
X1104722Y0542157D01*
X1104729Y0542217D01*
X1104393Y0545628D01*
X1104375Y0545686D01*
Y0545747D01*
X1103706Y0549108D01*
X1103683Y0549164D01*
X1103677Y0549224D01*
X1102682Y0552504D01*
X1102654Y0552557D01*
X1102642Y0552617D01*
X1101330Y0555783D01*
X1101297Y0555833D01*
X1101279Y0555891D01*
X1099664Y0558914D01*
X1099625Y0558961D01*
X1099602Y0559017D01*
X1097698Y0561866D01*
X1097655Y0561909D01*
X1097627Y0561963D01*
X1095452Y0564612D01*
X1095406Y0564650D01*
X1095372Y0564701D01*
X1092949Y0567124D01*
X1092898Y0567158D01*
X1092860Y0567205D01*
X1090211Y0569379D01*
X1090157Y0569407D01*
X1090114Y0569450D01*
X1087265Y0571354D01*
X1087209Y0571377D01*
X1087162Y0571416D01*
X1084140Y0573031D01*
X1084082Y0573049D01*
X1084031Y0573082D01*
X1080865Y0574394D01*
X1080805Y0574406D01*
X1080752Y0574434D01*
X1077472Y0575429D01*
X1077412Y0575435D01*
X1077356Y0575458D01*
X1073995Y0576127D01*
X1073934D01*
X1073876Y0576145D01*
X1070466Y0576480D01*
X1070405Y0576475D01*
X1070346Y0576486D01*
X1068896Y0576486D01*
X1068701Y0576530D01*
X1068632Y0576600D01*
D02*
G37*
G36*
X0941023Y0467635D02*
X0940569Y0467522D01*
X0940009Y0467522D01*
X0939930Y0467507D01*
X0939850Y0467512D01*
X0937840Y0467248D01*
X0937764Y0467222D01*
X0937683Y0467217D01*
X0935725Y0466693D01*
X0935653Y0466658D01*
X0935574Y0466642D01*
X0933701Y0465867D01*
X0933634Y0465822D01*
X0933558Y0465796D01*
X0931802Y0464783D01*
X0931742Y0464730D01*
X0931669Y0464694D01*
X0930061Y0463461D01*
X0930008Y0463400D01*
X0929941Y0463355D01*
X0928508Y0461922D01*
X0928463Y0461855D01*
X0928402Y0461802D01*
X0927168Y0460194D01*
X0927133Y0460121D01*
X0927080Y0460061D01*
X0926066Y0458305D01*
X0926041Y0458229D01*
X0925996Y0458162D01*
X0925221Y0456289D01*
X0925205Y0456210D01*
X0925169Y0456138D01*
X0924646Y0454179D01*
X0924640Y0454099D01*
X0924615Y0454023D01*
X0924351Y0452013D01*
X0924356Y0451932D01*
X0924341Y0451854D01*
X0924341Y0451294D01*
X0924228Y0450841D01*
X0924228D01*
X0924331Y0450383D01*
X0924341Y0450340D01*
Y0428294D01*
X0924228Y0427794D01*
X0924228Y0427794D01*
X0924233Y0427783D01*
X0924341Y0427675D01*
X0924341Y0426829D01*
X0924345Y0426810D01*
Y0426809D01*
X0924365Y0426711D01*
Y0426610D01*
X0924365Y0426610D01*
Y0426591D01*
X0924741Y0424697D01*
X0924749Y0424679D01*
X0924749Y0424678D01*
X0924787Y0424586D01*
X0924807Y0424487D01*
X0924807Y0424487D01*
X0924811Y0424468D01*
X0925550Y0422684D01*
X0925560Y0422668D01*
X0925561Y0422667D01*
X0925616Y0422584D01*
X0925655Y0422491D01*
X0925655Y0422491D01*
X0925663Y0422473D01*
X0926735Y0420867D01*
X0926749Y0420854D01*
X0926749Y0420853D01*
X0926820Y0420782D01*
X0926876Y0420699D01*
X0926877Y0420698D01*
X0926887Y0420682D01*
X0927241Y0420328D01*
X0927486Y0419929D01*
X0927490Y0419920D01*
X0927494Y0419924D01*
X0927884Y0419685D01*
X0948623Y0398946D01*
X0948777Y0398715D01*
X0948904Y0398505D01*
X0948914Y0398501D01*
X0949344Y0398225D01*
X0949454Y0398115D01*
X0949470Y0398104D01*
X0949471Y0398104D01*
X0949554Y0398048D01*
X0949625Y0397977D01*
X0949625Y0397977D01*
X0949639Y0397963D01*
X0950744Y0397225D01*
X0950762Y0397217D01*
X0950763Y0397217D01*
X0950855Y0397179D01*
X0950939Y0397123D01*
X0950939Y0397123D01*
X0950955Y0397112D01*
X0952183Y0396603D01*
X0952202Y0396600D01*
X0952203Y0396599D01*
X0952301Y0396580D01*
X0952394Y0396541D01*
X0952395Y0396541D01*
X0952412Y0396534D01*
X0953716Y0396274D01*
X0953735D01*
X0953736Y0396274D01*
X0953836Y0396274D01*
X0953935Y0396255D01*
X0953935D01*
X0953954Y0396251D01*
X0954506Y0396251D01*
X0954619Y0396138D01*
X0954619Y0396138D01*
X0954732Y0396251D01*
X0956396Y0396251D01*
X0956456Y0396263D01*
X0956516Y0396257D01*
X0960053Y0396605D01*
X0960111Y0396623D01*
X0960172D01*
X0963658Y0397316D01*
X0963714Y0397340D01*
X0963774Y0397345D01*
X0967176Y0398377D01*
X0967229Y0398406D01*
X0967289Y0398418D01*
X0970573Y0399778D01*
X0970623Y0399812D01*
X0970681Y0399829D01*
X0973816Y0401505D01*
X0973863Y0401543D01*
X0973919Y0401566D01*
X0976875Y0403541D01*
X0976917Y0403584D01*
X0976971Y0403613D01*
X0979718Y0405868D01*
X0979757Y0405914D01*
X0979807Y0405948D01*
X0982321Y0408462D01*
X0982355Y0408512D01*
X0982401Y0408550D01*
X0984656Y0411298D01*
X0984685Y0411351D01*
X0984728Y0411394D01*
X0986703Y0414350D01*
X0986726Y0414406D01*
X0986764Y0414453D01*
X0988440Y0417588D01*
X0988457Y0417646D01*
X0988491Y0417696D01*
X0989851Y0420980D01*
X0989863Y0421039D01*
X0989892Y0421093D01*
X0990924Y0424494D01*
X0990929Y0424555D01*
X0990953Y0424611D01*
X0991646Y0428097D01*
Y0428158D01*
X0991664Y0428216D01*
X0992012Y0431753D01*
X0992006Y0431813D01*
X0992018Y0431873D01*
X0992018Y0433641D01*
X0992007Y0433695D01*
X0992013Y0433749D01*
X0991504Y0439502D01*
X0991521Y0439686D01*
X0991550Y0439990D01*
X0991567Y0440031D01*
X0991527Y0440128D01*
X0991476Y0440510D01*
X0991460Y0440642D01*
X0991411Y0441384D01*
X0991395Y0441445D01*
X0991397Y0441509D01*
X0991254Y0442342D01*
X0991232Y0442401D01*
X0991227Y0442465D01*
X0991040Y0443135D01*
X0990912Y0443602D01*
X0990901Y0443636D01*
X0990770Y0444044D01*
X0990623Y0444559D01*
X0990593Y0444616D01*
X0990582Y0444678D01*
X0990366Y0445216D01*
X0990331Y0445270D01*
X0990313Y0445331D01*
X0990043Y0445844D01*
X0990003Y0445893D01*
X0989979Y0445952D01*
X0989950Y0445995D01*
X0989935Y0446108D01*
X0989915Y0446166D01*
X0989913Y0446226D01*
X0989753Y0446910D01*
X0989728Y0446965D01*
X0989720Y0447025D01*
X0989493Y0447689D01*
X0989463Y0447742D01*
X0989449Y0447801D01*
X0989158Y0448440D01*
X0989123Y0448489D01*
X0989103Y0448547D01*
X0989062Y0448618D01*
X0988964Y0448855D01*
X0988943Y0448932D01*
X0988917Y0448986D01*
X0988907Y0449046D01*
X0988666Y0449694D01*
X0988635Y0449746D01*
X0988619Y0449804D01*
X0988316Y0450425D01*
X0988279Y0450473D01*
X0988258Y0450530D01*
X0987896Y0451119D01*
X0987854Y0451163D01*
X0987828Y0451217D01*
X0987626Y0451482D01*
X0987564Y0451537D01*
X0987518Y0451606D01*
X0977880Y0461244D01*
X0977573Y0461637D01*
X0977521Y0461763D01*
X0977147Y0462066D01*
X0977072Y0462160D01*
X0977026Y0462199D01*
X0976993Y0462250D01*
X0975991Y0463287D01*
X0975941Y0463322D01*
X0975904Y0463369D01*
X0974805Y0464303D01*
X0974752Y0464333D01*
X0974710Y0464376D01*
X0973524Y0465198D01*
X0973469Y0465222D01*
X0973423Y0465262D01*
X0972163Y0465963D01*
X0972105Y0465982D01*
X0972055Y0466016D01*
X0970732Y0466591D01*
X0970673Y0466604D01*
X0970620Y0466633D01*
X0969248Y0467076D01*
X0969188Y0467083D01*
X0969132Y0467107D01*
X0967722Y0467412D01*
X0967662Y0467413D01*
X0967604Y0467432D01*
X0966899Y0467514D01*
X0966829Y0467508D01*
X0966759Y0467522D01*
X0941523Y0467522D01*
X0941026Y0467634D01*
X0941023Y0467635D01*
D02*
G37*
G36*
X0826849D02*
X0826396Y0467522D01*
X0825836Y0467522D01*
X0825757Y0467507D01*
X0825677Y0467512D01*
X0823667Y0467248D01*
X0823591Y0467222D01*
X0823510Y0467217D01*
X0821552Y0466693D01*
X0821480Y0466658D01*
X0821401Y0466642D01*
X0819528Y0465867D01*
X0819461Y0465822D01*
X0819384Y0465796D01*
X0817629Y0464783D01*
X0817568Y0464730D01*
X0817496Y0464694D01*
X0815888Y0463461D01*
X0815835Y0463400D01*
X0815768Y0463355D01*
X0814334Y0461922D01*
X0814289Y0461855D01*
X0814229Y0461802D01*
X0812995Y0460194D01*
X0812959Y0460121D01*
X0812906Y0460061D01*
X0811893Y0458305D01*
X0811867Y0458229D01*
X0811823Y0458162D01*
X0811047Y0456289D01*
X0811032Y0456210D01*
X0810996Y0456138D01*
X0810472Y0454179D01*
X0810467Y0454099D01*
X0810441Y0454023D01*
X0810178Y0452013D01*
X0810183Y0451932D01*
X0810167Y0451854D01*
X0810168Y0451294D01*
X0810055Y0450841D01*
X0810055D01*
X0810158Y0450383D01*
X0810168Y0450340D01*
Y0428294D01*
X0810055Y0427794D01*
X0810055Y0427794D01*
X0810060Y0427783D01*
X0810168Y0427675D01*
X0810168Y0426829D01*
X0810172Y0426810D01*
Y0426809D01*
X0810191Y0426711D01*
Y0426610D01*
X0810192Y0426610D01*
Y0426591D01*
X0810568Y0424697D01*
X0810576Y0424679D01*
X0810576Y0424678D01*
X0810614Y0424586D01*
X0810634Y0424487D01*
X0810634Y0424487D01*
X0810638Y0424468D01*
X0811377Y0422684D01*
X0811387Y0422668D01*
X0811388Y0422667D01*
X0811443Y0422584D01*
X0811482Y0422491D01*
X0811482Y0422491D01*
X0811489Y0422473D01*
X0812562Y0420867D01*
X0812576Y0420854D01*
X0812576Y0420853D01*
X0812647Y0420782D01*
X0812703Y0420699D01*
X0812703Y0420698D01*
X0812714Y0420682D01*
X0813068Y0420328D01*
X0813313Y0419929D01*
X0813317Y0419920D01*
X0813321Y0419924D01*
X0813711Y0419685D01*
X0834450Y0398946D01*
X0834604Y0398715D01*
X0834731Y0398505D01*
X0834741Y0398501D01*
X0835170Y0398225D01*
X0835281Y0398115D01*
X0835297Y0398104D01*
X0835297Y0398104D01*
X0835381Y0398048D01*
X0835452Y0397977D01*
X0835452Y0397977D01*
X0835466Y0397963D01*
X0836571Y0397225D01*
X0836589Y0397217D01*
X0836589Y0397217D01*
X0836682Y0397179D01*
X0836766Y0397123D01*
X0836766Y0397123D01*
X0836782Y0397112D01*
X0838010Y0396603D01*
X0838029Y0396600D01*
X0838030Y0396599D01*
X0838128Y0396580D01*
X0838221Y0396541D01*
X0838221Y0396541D01*
X0838239Y0396534D01*
X0839543Y0396274D01*
X0839562D01*
X0839563Y0396274D01*
X0839663Y0396274D01*
X0839762Y0396255D01*
X0839762D01*
X0839781Y0396251D01*
X0840332Y0396251D01*
X0840446Y0396138D01*
X0840446Y0396138D01*
X0840559Y0396251D01*
X0842223Y0396251D01*
X0842282Y0396263D01*
X0842342Y0396257D01*
X0845880Y0396605D01*
X0845938Y0396623D01*
X0845998D01*
X0849485Y0397316D01*
X0849541Y0397340D01*
X0849601Y0397345D01*
X0853003Y0398377D01*
X0853056Y0398406D01*
X0853115Y0398418D01*
X0856400Y0399778D01*
X0856450Y0399812D01*
X0856508Y0399829D01*
X0859643Y0401505D01*
X0859690Y0401543D01*
X0859746Y0401566D01*
X0862701Y0403541D01*
X0862744Y0403584D01*
X0862797Y0403613D01*
X0865545Y0405868D01*
X0865584Y0405914D01*
X0865634Y0405948D01*
X0868148Y0408462D01*
X0868181Y0408512D01*
X0868228Y0408550D01*
X0870483Y0411298D01*
X0870512Y0411351D01*
X0870554Y0411394D01*
X0872529Y0414350D01*
X0872552Y0414406D01*
X0872591Y0414453D01*
X0874267Y0417588D01*
X0874284Y0417646D01*
X0874318Y0417696D01*
X0875678Y0420980D01*
X0875690Y0421039D01*
X0875718Y0421093D01*
X0876750Y0424494D01*
X0876756Y0424555D01*
X0876779Y0424611D01*
X0877473Y0428097D01*
Y0428158D01*
X0877490Y0428216D01*
X0877839Y0431753D01*
X0877833Y0431813D01*
X0877845Y0431873D01*
X0877845Y0433641D01*
X0877834Y0433695D01*
X0877840Y0433749D01*
X0877331Y0439502D01*
X0877348Y0439686D01*
X0877376Y0439990D01*
X0877394Y0440031D01*
X0877353Y0440128D01*
X0877303Y0440510D01*
X0877287Y0440642D01*
X0877238Y0441384D01*
X0877221Y0441445D01*
X0877223Y0441509D01*
X0877081Y0442342D01*
X0877058Y0442401D01*
X0877054Y0442465D01*
X0876867Y0443135D01*
X0876739Y0443602D01*
X0876728Y0443636D01*
X0876597Y0444044D01*
X0876449Y0444559D01*
X0876420Y0444616D01*
X0876408Y0444678D01*
X0876193Y0445216D01*
X0876158Y0445270D01*
X0876140Y0445331D01*
X0875870Y0445844D01*
X0875830Y0445893D01*
X0875806Y0445952D01*
X0875776Y0445995D01*
X0875762Y0446108D01*
X0875742Y0446166D01*
X0875740Y0446226D01*
X0875580Y0446910D01*
X0875554Y0446965D01*
X0875546Y0447025D01*
X0875320Y0447689D01*
X0875290Y0447742D01*
X0875276Y0447801D01*
X0874985Y0448440D01*
X0874949Y0448489D01*
X0874930Y0448547D01*
X0874889Y0448618D01*
X0874790Y0448855D01*
X0874770Y0448932D01*
X0874744Y0448986D01*
X0874734Y0449046D01*
X0874493Y0449694D01*
X0874461Y0449746D01*
X0874446Y0449804D01*
X0874143Y0450425D01*
X0874106Y0450473D01*
X0874085Y0450530D01*
X0873722Y0451119D01*
X0873681Y0451163D01*
X0873655Y0451217D01*
X0873453Y0451482D01*
X0873391Y0451537D01*
X0873345Y0451606D01*
X0863707Y0461244D01*
X0863400Y0461637D01*
X0863348Y0461763D01*
X0862973Y0462066D01*
X0862899Y0462160D01*
X0862852Y0462199D01*
X0862820Y0462250D01*
X0861818Y0463287D01*
X0861768Y0463322D01*
X0861730Y0463369D01*
X0860631Y0464303D01*
X0860578Y0464333D01*
X0860536Y0464376D01*
X0859351Y0465198D01*
X0859296Y0465222D01*
X0859250Y0465262D01*
X0857990Y0465963D01*
X0857932Y0465982D01*
X0857882Y0466016D01*
X0856559Y0466591D01*
X0856500Y0466604D01*
X0856447Y0466633D01*
X0855074Y0467076D01*
X0855014Y0467083D01*
X0854959Y0467107D01*
X0853549Y0467412D01*
X0853489Y0467413D01*
X0853431Y0467432D01*
X0852726Y0467514D01*
X0852655Y0467508D01*
X0852586Y0467522D01*
X0827350Y0467522D01*
X0826853Y0467634D01*
X0826849Y0467635D01*
D02*
G37*
G36*
X1182806Y0470300D02*
X1182569Y0470300D01*
X1182553Y0470294D01*
X1182553D01*
X1182489Y0470229D01*
X1182306Y0470187D01*
X1180867Y0470187D01*
X1180808Y0470175D01*
X1180748Y0470181D01*
X1177360Y0469848D01*
X1177302Y0469830D01*
X1177242D01*
X1173903Y0469166D01*
X1173847Y0469143D01*
X1173787Y0469137D01*
X1170529Y0468149D01*
X1170476Y0468120D01*
X1170417Y0468108D01*
X1167272Y0466806D01*
X1167221Y0466772D01*
X1167163Y0466754D01*
X1164161Y0465150D01*
X1164114Y0465111D01*
X1164059Y0465088D01*
X1161228Y0463197D01*
X1161185Y0463154D01*
X1161132Y0463126D01*
X1158501Y0460966D01*
X1158462Y0460919D01*
X1158412Y0460886D01*
X1156005Y0458479D01*
X1155971Y0458428D01*
X1155924Y0458390D01*
X1153765Y0455759D01*
X1153736Y0455705D01*
X1153694Y0455662D01*
X1151802Y0452832D01*
X1151779Y0452776D01*
X1151741Y0452729D01*
X1150136Y0449727D01*
X1150119Y0449669D01*
X1150085Y0449619D01*
X1148782Y0446474D01*
X1148770Y0446415D01*
X1148742Y0446361D01*
X1147754Y0443104D01*
X1147748Y0443044D01*
X1147725Y0442988D01*
X1147061Y0439649D01*
Y0439588D01*
X1147043Y0439531D01*
X1146709Y0436143D01*
X1146715Y0436083D01*
X1146704Y0436023D01*
X1146704Y0434434D01*
X1146591Y0434321D01*
X1146590D01*
X1146590Y0434321D01*
X1146590Y0434321D01*
X1146704Y0433821D01*
X1146704Y0432602D01*
X1146715Y0432542D01*
X1146709Y0432482D01*
X1147046Y0429060D01*
X1147064Y0429002D01*
Y0428941D01*
X1147735Y0425569D01*
X1147758Y0425513D01*
X1147764Y0425452D01*
X1148762Y0422162D01*
X1148791Y0422108D01*
X1148802Y0422049D01*
X1150119Y0418872D01*
X1150152Y0418821D01*
X1150170Y0418763D01*
X1151791Y0415731D01*
X1151829Y0415684D01*
X1151852Y0415628D01*
X1153763Y0412769D01*
X1153806Y0412726D01*
X1153834Y0412673D01*
X1156016Y0410014D01*
X1156063Y0409976D01*
X1156096Y0409926D01*
X1158528Y0407494D01*
X1158578Y0407460D01*
X1158617Y0407413D01*
X1161275Y0405232D01*
X1161328Y0405203D01*
X1161371Y0405161D01*
X1164231Y0403250D01*
X1164286Y0403227D01*
X1164333Y0403188D01*
X1167366Y0401567D01*
X1167424Y0401550D01*
X1167474Y0401516D01*
X1170651Y0400200D01*
X1170711Y0400188D01*
X1170764Y0400160D01*
X1174055Y0399162D01*
X1174115Y0399156D01*
X1174171Y0399132D01*
X1177544Y0398462D01*
X1177604D01*
X1177662Y0398444D01*
X1181085Y0398107D01*
X1181145Y0398113D01*
X1181204Y0398101D01*
X1182424Y0398101D01*
X1182924Y0397988D01*
X1182924Y0397988D01*
X1182924D01*
X1182924Y0397988D01*
X1183424Y0398101D01*
X1184632Y0398101D01*
X1184691Y0398113D01*
X1184751Y0398107D01*
X1188150Y0398442D01*
X1188208Y0398459D01*
X1188269D01*
X1191619Y0399126D01*
X1191675Y0399149D01*
X1191735Y0399155D01*
X1195004Y0400146D01*
X1195057Y0400175D01*
X1195116Y0400187D01*
X1198272Y0401494D01*
X1198322Y0401527D01*
X1198380Y0401545D01*
X1201392Y0403155D01*
X1201439Y0403193D01*
X1201495Y0403217D01*
X1204335Y0405114D01*
X1204378Y0405157D01*
X1204432Y0405186D01*
X1207072Y0407352D01*
X1207110Y0407399D01*
X1207161Y0407433D01*
X1209576Y0409848D01*
X1209610Y0409898D01*
X1209656Y0409937D01*
X1211823Y0412577D01*
X1211852Y0412631D01*
X1211894Y0412673D01*
X1213792Y0415514D01*
X1213815Y0415569D01*
X1213854Y0415616D01*
X1215464Y0418628D01*
X1215481Y0418686D01*
X1215515Y0418737D01*
X1216822Y0421892D01*
X1216834Y0421952D01*
X1216862Y0422005D01*
X1217854Y0425274D01*
X1217860Y0425334D01*
X1217883Y0425390D01*
X1218549Y0428740D01*
Y0428801D01*
X1218567Y0428859D01*
X1218902Y0432258D01*
X1218896Y0432318D01*
X1218908Y0432377D01*
X1218908Y0433585D01*
X1219021Y0434085D01*
X1219008Y0434115D01*
X1218908Y0434213D01*
X1218908Y0435799D01*
X1218896Y0435858D01*
X1218902Y0435918D01*
X1218566Y0439329D01*
X1218548Y0439387D01*
Y0439447D01*
X1217880Y0442809D01*
X1217856Y0442865D01*
X1217850Y0442925D01*
X1216856Y0446205D01*
X1216827Y0446258D01*
X1216815Y0446317D01*
X1215504Y0449484D01*
X1215470Y0449534D01*
X1215452Y0449592D01*
X1213837Y0452615D01*
X1213799Y0452662D01*
X1213775Y0452717D01*
X1211871Y0455567D01*
X1211828Y0455610D01*
X1211800Y0455663D01*
X1209626Y0458313D01*
X1209579Y0458351D01*
X1209545Y0458401D01*
X1207122Y0460825D01*
X1207072Y0460858D01*
X1207033Y0460905D01*
X1204384Y0463079D01*
X1204331Y0463108D01*
X1204288Y0463151D01*
X1201438Y0465055D01*
X1201382Y0465078D01*
X1201335Y0465117D01*
X1198313Y0466732D01*
X1198255Y0466750D01*
X1198205Y0466783D01*
X1195038Y0468095D01*
X1194979Y0468107D01*
X1194925Y0468135D01*
X1191646Y0469130D01*
X1191585Y0469136D01*
X1191529Y0469159D01*
X1188168Y0469828D01*
X1188107D01*
X1188050Y0469845D01*
X1184639Y0470181D01*
X1184579Y0470175D01*
X1184519Y0470187D01*
X1183069Y0470187D01*
X1182875Y0470231D01*
X1182806Y0470300D01*
D02*
G37*
G36*
X1068632D02*
X1068396Y0470300D01*
X1068380Y0470294D01*
X1068380D01*
X1068316Y0470229D01*
X1068132Y0470187D01*
X1066694Y0470187D01*
X1066635Y0470175D01*
X1066574Y0470181D01*
X1063187Y0469848D01*
X1063129Y0469830D01*
X1063068D01*
X1059730Y0469166D01*
X1059674Y0469143D01*
X1059614Y0469137D01*
X1056356Y0468149D01*
X1056303Y0468120D01*
X1056243Y0468108D01*
X1053098Y0466806D01*
X1053048Y0466772D01*
X1052990Y0466754D01*
X1049988Y0465150D01*
X1049941Y0465111D01*
X1049885Y0465088D01*
X1047055Y0463197D01*
X1047012Y0463154D01*
X1046959Y0463126D01*
X1044327Y0460966D01*
X1044289Y0460919D01*
X1044239Y0460886D01*
X1041832Y0458479D01*
X1041798Y0458428D01*
X1041751Y0458390D01*
X1039592Y0455759D01*
X1039563Y0455705D01*
X1039520Y0455662D01*
X1037629Y0452832D01*
X1037606Y0452776D01*
X1037568Y0452729D01*
X1035963Y0449727D01*
X1035945Y0449669D01*
X1035912Y0449619D01*
X1034609Y0446474D01*
X1034597Y0446415D01*
X1034569Y0446361D01*
X1033581Y0443104D01*
X1033575Y0443044D01*
X1033551Y0442988D01*
X1032887Y0439649D01*
Y0439588D01*
X1032870Y0439531D01*
X1032536Y0436143D01*
X1032542Y0436083D01*
X1032530Y0436023D01*
X1032530Y0434434D01*
X1032417Y0434321D01*
X1032417D01*
X1032417Y0434321D01*
X1032417Y0434321D01*
X1032530Y0433821D01*
X1032530Y0432602D01*
X1032542Y0432542D01*
X1032536Y0432482D01*
X1032873Y0429060D01*
X1032891Y0429002D01*
Y0428941D01*
X1033562Y0425569D01*
X1033585Y0425513D01*
X1033591Y0425452D01*
X1034589Y0422162D01*
X1034618Y0422108D01*
X1034629Y0422049D01*
X1035945Y0418872D01*
X1035979Y0418821D01*
X1035997Y0418763D01*
X1037617Y0415731D01*
X1037656Y0415684D01*
X1037679Y0415628D01*
X1039590Y0412769D01*
X1039633Y0412726D01*
X1039661Y0412673D01*
X1041843Y0410014D01*
X1041889Y0409976D01*
X1041923Y0409926D01*
X1044355Y0407494D01*
X1044405Y0407460D01*
X1044443Y0407413D01*
X1047102Y0405232D01*
X1047155Y0405203D01*
X1047198Y0405161D01*
X1050057Y0403250D01*
X1050113Y0403227D01*
X1050160Y0403188D01*
X1053193Y0401567D01*
X1053251Y0401550D01*
X1053301Y0401516D01*
X1056478Y0400200D01*
X1056538Y0400188D01*
X1056591Y0400160D01*
X1059882Y0399162D01*
X1059942Y0399156D01*
X1059998Y0399132D01*
X1063371Y0398462D01*
X1063431D01*
X1063489Y0398444D01*
X1066911Y0398107D01*
X1066972Y0398113D01*
X1067031Y0398101D01*
X1068250Y0398101D01*
X1068750Y0397988D01*
X1068750Y0397988D01*
X1068750D01*
X1068750Y0397988D01*
X1069250Y0398101D01*
X1070458Y0398101D01*
X1070518Y0398113D01*
X1070578Y0398107D01*
X1073977Y0398442D01*
X1074035Y0398459D01*
X1074096D01*
X1077446Y0399126D01*
X1077501Y0399149D01*
X1077562Y0399155D01*
X1080830Y0400146D01*
X1080884Y0400175D01*
X1080943Y0400187D01*
X1084099Y0401494D01*
X1084149Y0401527D01*
X1084207Y0401545D01*
X1087219Y0403155D01*
X1087266Y0403193D01*
X1087322Y0403217D01*
X1090162Y0405114D01*
X1090205Y0405157D01*
X1090258Y0405186D01*
X1092899Y0407352D01*
X1092937Y0407399D01*
X1092987Y0407433D01*
X1095403Y0409848D01*
X1095436Y0409898D01*
X1095483Y0409937D01*
X1097650Y0412577D01*
X1097678Y0412631D01*
X1097721Y0412673D01*
X1099619Y0415514D01*
X1099642Y0415569D01*
X1099681Y0415616D01*
X1101291Y0418628D01*
X1101308Y0418686D01*
X1101342Y0418737D01*
X1102649Y0421892D01*
X1102661Y0421952D01*
X1102689Y0422005D01*
X1103681Y0425274D01*
X1103687Y0425334D01*
X1103710Y0425390D01*
X1104376Y0428740D01*
Y0428801D01*
X1104394Y0428859D01*
X1104729Y0432258D01*
X1104723Y0432318D01*
X1104734Y0432377D01*
X1104734Y0433585D01*
X1104847Y0434085D01*
X1104835Y0434115D01*
X1104734Y0434213D01*
X1104734Y0435799D01*
X1104722Y0435858D01*
X1104729Y0435918D01*
X1104393Y0439329D01*
X1104375Y0439387D01*
Y0439447D01*
X1103706Y0442809D01*
X1103683Y0442865D01*
X1103677Y0442925D01*
X1102682Y0446205D01*
X1102654Y0446258D01*
X1102642Y0446317D01*
X1101330Y0449484D01*
X1101297Y0449534D01*
X1101279Y0449592D01*
X1099664Y0452615D01*
X1099625Y0452662D01*
X1099602Y0452717D01*
X1097698Y0455567D01*
X1097655Y0455610D01*
X1097627Y0455663D01*
X1095452Y0458313D01*
X1095406Y0458351D01*
X1095372Y0458401D01*
X1092949Y0460825D01*
X1092898Y0460858D01*
X1092860Y0460905D01*
X1090211Y0463079D01*
X1090157Y0463108D01*
X1090114Y0463151D01*
X1087265Y0465055D01*
X1087209Y0465078D01*
X1087162Y0465117D01*
X1084140Y0466732D01*
X1084082Y0466750D01*
X1084031Y0466783D01*
X1080865Y0468095D01*
X1080805Y0468107D01*
X1080752Y0468135D01*
X1077472Y0469130D01*
X1077412Y0469136D01*
X1077356Y0469159D01*
X1073995Y0469828D01*
X1073934D01*
X1073876Y0469845D01*
X1070466Y0470181D01*
X1070405Y0470175D01*
X1070346Y0470187D01*
X1068896Y0470187D01*
X1068701Y0470231D01*
X1068632Y0470300D01*
D02*
G37*
G36*
X0941023Y0361335D02*
X0940569Y0361223D01*
X0940009Y0361223D01*
X0939930Y0361207D01*
X0939850Y0361213D01*
X0937840Y0360949D01*
X0937764Y0360923D01*
X0937683Y0360918D01*
X0935725Y0360394D01*
X0935653Y0360359D01*
X0935574Y0360343D01*
X0933701Y0359568D01*
X0933634Y0359523D01*
X0933558Y0359497D01*
X0931802Y0358484D01*
X0931742Y0358431D01*
X0931669Y0358395D01*
X0930061Y0357161D01*
X0930008Y0357101D01*
X0929941Y0357056D01*
X0928508Y0355623D01*
X0928463Y0355556D01*
X0928402Y0355503D01*
X0927168Y0353894D01*
X0927133Y0353822D01*
X0927080Y0353762D01*
X0926066Y0352006D01*
X0926041Y0351930D01*
X0925996Y0351863D01*
X0925221Y0349990D01*
X0925205Y0349911D01*
X0925169Y0349838D01*
X0924646Y0347880D01*
X0924640Y0347800D01*
X0924615Y0347724D01*
X0924351Y0345714D01*
X0924356Y0345633D01*
X0924341Y0345554D01*
X0924341Y0344995D01*
X0924228Y0344541D01*
X0924228D01*
X0924331Y0344084D01*
X0924341Y0344041D01*
Y0321995D01*
X0924228Y0321495D01*
X0924228Y0321495D01*
X0924233Y0321484D01*
X0924341Y0321376D01*
X0924341Y0320529D01*
X0924345Y0320511D01*
Y0320510D01*
X0924365Y0320411D01*
Y0320311D01*
X0924365Y0320311D01*
Y0320291D01*
X0924741Y0318397D01*
X0924749Y0318380D01*
X0924749Y0318379D01*
X0924787Y0318286D01*
X0924807Y0318188D01*
X0924807Y0318187D01*
X0924811Y0318168D01*
X0925550Y0316385D01*
X0925560Y0316369D01*
X0925561Y0316368D01*
X0925616Y0316284D01*
X0925655Y0316192D01*
X0925655Y0316191D01*
X0925663Y0316174D01*
X0926735Y0314568D01*
X0926749Y0314554D01*
X0926749Y0314554D01*
X0926820Y0314483D01*
X0926876Y0314399D01*
X0926877Y0314399D01*
X0926887Y0314383D01*
X0927241Y0314029D01*
X0927486Y0313630D01*
X0927490Y0313620D01*
X0927494Y0313625D01*
X0927884Y0313386D01*
X0948623Y0292647D01*
X0948777Y0292415D01*
X0948904Y0292206D01*
X0948914Y0292202D01*
X0949344Y0291926D01*
X0949454Y0291816D01*
X0949470Y0291805D01*
X0949471Y0291805D01*
X0949554Y0291749D01*
X0949625Y0291678D01*
X0949625Y0291678D01*
X0949639Y0291664D01*
X0950744Y0290926D01*
X0950762Y0290918D01*
X0950763Y0290918D01*
X0950855Y0290879D01*
X0950939Y0290824D01*
X0950939Y0290823D01*
X0950955Y0290813D01*
X0952183Y0290304D01*
X0952202Y0290300D01*
X0952203Y0290300D01*
X0952301Y0290281D01*
X0952394Y0290242D01*
X0952395Y0290242D01*
X0952412Y0290235D01*
X0953716Y0289975D01*
X0953735D01*
X0953736Y0289975D01*
X0953836Y0289975D01*
X0953935Y0289956D01*
X0953935D01*
X0953954Y0289952D01*
X0954506Y0289952D01*
X0954619Y0289839D01*
X0954619Y0289839D01*
X0954732Y0289952D01*
X0956396Y0289952D01*
X0956456Y0289964D01*
X0956516Y0289958D01*
X0960053Y0290306D01*
X0960111Y0290324D01*
X0960172D01*
X0963658Y0291017D01*
X0963714Y0291040D01*
X0963774Y0291046D01*
X0967176Y0292078D01*
X0967229Y0292107D01*
X0967289Y0292118D01*
X0970573Y0293479D01*
X0970623Y0293512D01*
X0970681Y0293530D01*
X0973816Y0295205D01*
X0973863Y0295244D01*
X0973919Y0295267D01*
X0976875Y0297242D01*
X0976917Y0297285D01*
X0976971Y0297313D01*
X0979718Y0299568D01*
X0979757Y0299615D01*
X0979807Y0299649D01*
X0982321Y0302162D01*
X0982355Y0302213D01*
X0982401Y0302251D01*
X0984656Y0304999D01*
X0984685Y0305052D01*
X0984728Y0305095D01*
X0986703Y0308051D01*
X0986726Y0308107D01*
X0986764Y0308154D01*
X0988440Y0311288D01*
X0988457Y0311346D01*
X0988491Y0311397D01*
X0989851Y0314681D01*
X0989863Y0314740D01*
X0989892Y0314793D01*
X0990924Y0318195D01*
X0990929Y0318255D01*
X0990953Y0318311D01*
X0991646Y0321798D01*
Y0321858D01*
X0991664Y0321916D01*
X0992012Y0325454D01*
X0992006Y0325514D01*
X0992018Y0325573D01*
X0992018Y0327342D01*
X0992007Y0327396D01*
X0992013Y0327449D01*
X0991504Y0333203D01*
X0991521Y0333386D01*
X0991550Y0333690D01*
X0991567Y0333732D01*
X0991527Y0333829D01*
X0991476Y0334210D01*
X0991460Y0334343D01*
X0991411Y0335085D01*
X0991395Y0335146D01*
X0991397Y0335210D01*
X0991254Y0336043D01*
X0991232Y0336102D01*
X0991227Y0336165D01*
X0991040Y0336836D01*
X0990912Y0337302D01*
X0990901Y0337337D01*
X0990770Y0337745D01*
X0990623Y0338260D01*
X0990593Y0338317D01*
X0990582Y0338379D01*
X0990366Y0338917D01*
X0990331Y0338970D01*
X0990313Y0339031D01*
X0990043Y0339544D01*
X0990003Y0339594D01*
X0989979Y0339652D01*
X0989950Y0339696D01*
X0989935Y0339809D01*
X0989915Y0339866D01*
X0989913Y0339927D01*
X0989753Y0340610D01*
X0989728Y0340666D01*
X0989720Y0340726D01*
X0989493Y0341390D01*
X0989463Y0341443D01*
X0989449Y0341502D01*
X0989158Y0342141D01*
X0989123Y0342190D01*
X0989103Y0342247D01*
X0989062Y0342318D01*
X0988964Y0342556D01*
X0988943Y0342633D01*
X0988917Y0342687D01*
X0988907Y0342747D01*
X0988666Y0343395D01*
X0988635Y0343446D01*
X0988619Y0343505D01*
X0988316Y0344126D01*
X0988279Y0344174D01*
X0988258Y0344231D01*
X0987896Y0344819D01*
X0987854Y0344864D01*
X0987828Y0344918D01*
X0987626Y0345183D01*
X0987564Y0345237D01*
X0987518Y0345306D01*
X0977880Y0354945D01*
X0977573Y0355338D01*
X0977521Y0355464D01*
X0977147Y0355767D01*
X0977072Y0355861D01*
X0977026Y0355900D01*
X0976993Y0355951D01*
X0975991Y0356988D01*
X0975941Y0357023D01*
X0975904Y0357070D01*
X0974805Y0358004D01*
X0974752Y0358034D01*
X0974710Y0358077D01*
X0973524Y0358899D01*
X0973469Y0358923D01*
X0973423Y0358962D01*
X0972163Y0359664D01*
X0972105Y0359683D01*
X0972055Y0359717D01*
X0970732Y0360292D01*
X0970673Y0360305D01*
X0970620Y0360334D01*
X0969248Y0360776D01*
X0969188Y0360783D01*
X0969132Y0360807D01*
X0967722Y0361113D01*
X0967662Y0361114D01*
X0967604Y0361133D01*
X0966899Y0361214D01*
X0966829Y0361209D01*
X0966759Y0361222D01*
X0941523Y0361222D01*
X0941026Y0361334D01*
X0941023Y0361335D01*
D02*
G37*
G36*
X0826849D02*
X0826396Y0361223D01*
X0825836Y0361223D01*
X0825757Y0361207D01*
X0825677Y0361213D01*
X0823667Y0360949D01*
X0823591Y0360923D01*
X0823510Y0360918D01*
X0821552Y0360394D01*
X0821480Y0360359D01*
X0821401Y0360343D01*
X0819528Y0359568D01*
X0819461Y0359523D01*
X0819384Y0359497D01*
X0817629Y0358484D01*
X0817568Y0358431D01*
X0817496Y0358395D01*
X0815888Y0357161D01*
X0815835Y0357101D01*
X0815768Y0357056D01*
X0814334Y0355623D01*
X0814289Y0355556D01*
X0814229Y0355503D01*
X0812995Y0353894D01*
X0812959Y0353822D01*
X0812906Y0353762D01*
X0811893Y0352006D01*
X0811867Y0351930D01*
X0811823Y0351863D01*
X0811047Y0349990D01*
X0811032Y0349911D01*
X0810996Y0349838D01*
X0810472Y0347880D01*
X0810467Y0347800D01*
X0810441Y0347724D01*
X0810178Y0345714D01*
X0810183Y0345633D01*
X0810167Y0345554D01*
X0810168Y0344995D01*
X0810055Y0344541D01*
X0810055D01*
X0810158Y0344084D01*
X0810168Y0344041D01*
Y0321995D01*
X0810055Y0321495D01*
X0810055Y0321495D01*
X0810060Y0321484D01*
X0810168Y0321376D01*
X0810168Y0320529D01*
X0810172Y0320511D01*
Y0320510D01*
X0810191Y0320411D01*
Y0320311D01*
X0810192Y0320311D01*
Y0320291D01*
X0810568Y0318397D01*
X0810576Y0318380D01*
X0810576Y0318379D01*
X0810614Y0318286D01*
X0810634Y0318188D01*
X0810634Y0318187D01*
X0810638Y0318168D01*
X0811377Y0316385D01*
X0811387Y0316369D01*
X0811388Y0316368D01*
X0811443Y0316284D01*
X0811482Y0316192D01*
X0811482Y0316191D01*
X0811489Y0316174D01*
X0812562Y0314568D01*
X0812576Y0314554D01*
X0812576Y0314554D01*
X0812647Y0314483D01*
X0812703Y0314399D01*
X0812703Y0314399D01*
X0812714Y0314383D01*
X0813068Y0314029D01*
X0813313Y0313630D01*
X0813317Y0313620D01*
X0813321Y0313625D01*
X0813711Y0313386D01*
X0834450Y0292647D01*
X0834604Y0292415D01*
X0834731Y0292206D01*
X0834741Y0292202D01*
X0835170Y0291926D01*
X0835281Y0291816D01*
X0835297Y0291805D01*
X0835297Y0291805D01*
X0835381Y0291749D01*
X0835452Y0291678D01*
X0835452Y0291678D01*
X0835466Y0291664D01*
X0836571Y0290926D01*
X0836589Y0290918D01*
X0836589Y0290918D01*
X0836682Y0290879D01*
X0836766Y0290824D01*
X0836766Y0290823D01*
X0836782Y0290813D01*
X0838010Y0290304D01*
X0838029Y0290300D01*
X0838030Y0290300D01*
X0838128Y0290281D01*
X0838221Y0290242D01*
X0838221Y0290242D01*
X0838239Y0290235D01*
X0839543Y0289975D01*
X0839562D01*
X0839563Y0289975D01*
X0839663Y0289975D01*
X0839762Y0289956D01*
X0839762D01*
X0839781Y0289952D01*
X0840332Y0289952D01*
X0840446Y0289839D01*
X0840446Y0289839D01*
X0840559Y0289952D01*
X0842223Y0289952D01*
X0842282Y0289964D01*
X0842342Y0289958D01*
X0845880Y0290306D01*
X0845938Y0290324D01*
X0845998D01*
X0849485Y0291017D01*
X0849541Y0291040D01*
X0849601Y0291046D01*
X0853003Y0292078D01*
X0853056Y0292107D01*
X0853115Y0292118D01*
X0856400Y0293479D01*
X0856450Y0293512D01*
X0856508Y0293530D01*
X0859643Y0295205D01*
X0859690Y0295244D01*
X0859746Y0295267D01*
X0862701Y0297242D01*
X0862744Y0297285D01*
X0862797Y0297313D01*
X0865545Y0299568D01*
X0865584Y0299615D01*
X0865634Y0299649D01*
X0868148Y0302162D01*
X0868181Y0302213D01*
X0868228Y0302251D01*
X0870483Y0304999D01*
X0870512Y0305052D01*
X0870554Y0305095D01*
X0872529Y0308051D01*
X0872552Y0308107D01*
X0872591Y0308154D01*
X0874267Y0311288D01*
X0874284Y0311346D01*
X0874318Y0311397D01*
X0875678Y0314681D01*
X0875690Y0314740D01*
X0875718Y0314793D01*
X0876750Y0318195D01*
X0876756Y0318255D01*
X0876779Y0318311D01*
X0877473Y0321798D01*
Y0321858D01*
X0877490Y0321916D01*
X0877839Y0325454D01*
X0877833Y0325514D01*
X0877845Y0325573D01*
X0877845Y0327342D01*
X0877834Y0327396D01*
X0877840Y0327449D01*
X0877331Y0333203D01*
X0877348Y0333386D01*
X0877376Y0333690D01*
X0877394Y0333732D01*
X0877353Y0333829D01*
X0877303Y0334210D01*
X0877287Y0334343D01*
X0877238Y0335085D01*
X0877221Y0335146D01*
X0877223Y0335210D01*
X0877081Y0336043D01*
X0877058Y0336102D01*
X0877054Y0336165D01*
X0876867Y0336836D01*
X0876739Y0337302D01*
X0876728Y0337337D01*
X0876597Y0337745D01*
X0876449Y0338260D01*
X0876420Y0338317D01*
X0876408Y0338379D01*
X0876193Y0338917D01*
X0876158Y0338970D01*
X0876140Y0339031D01*
X0875870Y0339544D01*
X0875830Y0339594D01*
X0875806Y0339652D01*
X0875776Y0339696D01*
X0875762Y0339809D01*
X0875742Y0339866D01*
X0875740Y0339927D01*
X0875580Y0340610D01*
X0875554Y0340666D01*
X0875546Y0340726D01*
X0875320Y0341390D01*
X0875290Y0341443D01*
X0875276Y0341502D01*
X0874985Y0342141D01*
X0874949Y0342190D01*
X0874930Y0342247D01*
X0874889Y0342318D01*
X0874790Y0342556D01*
X0874770Y0342633D01*
X0874744Y0342687D01*
X0874734Y0342747D01*
X0874493Y0343395D01*
X0874461Y0343446D01*
X0874446Y0343505D01*
X0874143Y0344126D01*
X0874106Y0344174D01*
X0874085Y0344231D01*
X0873722Y0344819D01*
X0873681Y0344864D01*
X0873655Y0344918D01*
X0873453Y0345183D01*
X0873391Y0345237D01*
X0873345Y0345306D01*
X0863707Y0354945D01*
X0863400Y0355338D01*
X0863348Y0355464D01*
X0862973Y0355767D01*
X0862899Y0355861D01*
X0862852Y0355900D01*
X0862820Y0355951D01*
X0861818Y0356988D01*
X0861768Y0357023D01*
X0861730Y0357070D01*
X0860631Y0358004D01*
X0860578Y0358034D01*
X0860536Y0358077D01*
X0859351Y0358899D01*
X0859296Y0358923D01*
X0859250Y0358962D01*
X0857990Y0359664D01*
X0857932Y0359683D01*
X0857882Y0359717D01*
X0856559Y0360292D01*
X0856500Y0360305D01*
X0856447Y0360334D01*
X0855074Y0360776D01*
X0855014Y0360783D01*
X0854959Y0360807D01*
X0853549Y0361113D01*
X0853489Y0361114D01*
X0853431Y0361133D01*
X0852726Y0361214D01*
X0852655Y0361209D01*
X0852586Y0361222D01*
X0827350Y0361222D01*
X0826853Y0361334D01*
X0826849Y0361335D01*
D02*
G37*
G36*
X1182806Y0364001D02*
X1182569Y0364001D01*
X1182553Y0363994D01*
X1182553D01*
X1182489Y0363930D01*
X1182306Y0363888D01*
X1180867Y0363888D01*
X1180808Y0363876D01*
X1180748Y0363882D01*
X1177360Y0363548D01*
X1177302Y0363531D01*
X1177242D01*
X1173903Y0362867D01*
X1173847Y0362844D01*
X1173787Y0362838D01*
X1170529Y0361849D01*
X1170476Y0361821D01*
X1170417Y0361809D01*
X1167272Y0360507D01*
X1167221Y0360473D01*
X1167163Y0360455D01*
X1164161Y0358851D01*
X1164114Y0358812D01*
X1164059Y0358789D01*
X1161228Y0356898D01*
X1161185Y0356855D01*
X1161132Y0356826D01*
X1158501Y0354667D01*
X1158462Y0354620D01*
X1158412Y0354587D01*
X1156005Y0352180D01*
X1155971Y0352129D01*
X1155924Y0352091D01*
X1153765Y0349460D01*
X1153736Y0349406D01*
X1153694Y0349363D01*
X1151802Y0346533D01*
X1151779Y0346477D01*
X1151741Y0346430D01*
X1150136Y0343428D01*
X1150119Y0343370D01*
X1150085Y0343320D01*
X1148782Y0340175D01*
X1148770Y0340115D01*
X1148742Y0340062D01*
X1147754Y0336805D01*
X1147748Y0336744D01*
X1147725Y0336688D01*
X1147061Y0333350D01*
Y0333289D01*
X1147043Y0333231D01*
X1146709Y0329844D01*
X1146715Y0329784D01*
X1146704Y0329724D01*
X1146704Y0328135D01*
X1146591Y0328022D01*
X1146590D01*
X1146590Y0328022D01*
X1146590Y0328022D01*
X1146704Y0327522D01*
X1146704Y0326303D01*
X1146715Y0326243D01*
X1146709Y0326183D01*
X1147046Y0322761D01*
X1147064Y0322703D01*
Y0322642D01*
X1147735Y0319269D01*
X1147758Y0319213D01*
X1147764Y0319153D01*
X1148762Y0315862D01*
X1148791Y0315809D01*
X1148802Y0315750D01*
X1150119Y0312573D01*
X1150152Y0312522D01*
X1150170Y0312464D01*
X1151791Y0309432D01*
X1151829Y0309385D01*
X1151852Y0309329D01*
X1153763Y0306469D01*
X1153806Y0306427D01*
X1153834Y0306373D01*
X1156016Y0303715D01*
X1156063Y0303677D01*
X1156096Y0303626D01*
X1158528Y0301195D01*
X1158578Y0301161D01*
X1158617Y0301114D01*
X1161275Y0298933D01*
X1161328Y0298904D01*
X1161371Y0298861D01*
X1164231Y0296951D01*
X1164286Y0296928D01*
X1164333Y0296889D01*
X1167366Y0295268D01*
X1167424Y0295251D01*
X1167474Y0295217D01*
X1170651Y0293901D01*
X1170711Y0293889D01*
X1170764Y0293861D01*
X1174055Y0292862D01*
X1174115Y0292856D01*
X1174171Y0292833D01*
X1177544Y0292162D01*
X1177604D01*
X1177662Y0292145D01*
X1181085Y0291808D01*
X1181145Y0291814D01*
X1181204Y0291802D01*
X1182424Y0291802D01*
X1182924Y0291689D01*
X1182924Y0291689D01*
X1182924D01*
X1182924Y0291689D01*
X1183424Y0291802D01*
X1184632Y0291802D01*
X1184691Y0291814D01*
X1184751Y0291808D01*
X1188150Y0292143D01*
X1188208Y0292160D01*
X1188269D01*
X1191619Y0292827D01*
X1191675Y0292850D01*
X1191735Y0292856D01*
X1195004Y0293847D01*
X1195057Y0293876D01*
X1195116Y0293887D01*
X1198272Y0295195D01*
X1198322Y0295228D01*
X1198380Y0295246D01*
X1201392Y0296856D01*
X1201439Y0296894D01*
X1201495Y0296917D01*
X1204335Y0298815D01*
X1204378Y0298858D01*
X1204432Y0298886D01*
X1207072Y0301053D01*
X1207110Y0301100D01*
X1207161Y0301134D01*
X1209576Y0303549D01*
X1209610Y0303599D01*
X1209656Y0303638D01*
X1211823Y0306278D01*
X1211852Y0306331D01*
X1211894Y0306374D01*
X1213792Y0309214D01*
X1213815Y0309270D01*
X1213854Y0309317D01*
X1215464Y0312329D01*
X1215481Y0312387D01*
X1215515Y0312437D01*
X1216822Y0315593D01*
X1216834Y0315653D01*
X1216862Y0315706D01*
X1217854Y0318974D01*
X1217860Y0319035D01*
X1217883Y0319091D01*
X1218549Y0322441D01*
Y0322501D01*
X1218567Y0322559D01*
X1218902Y0325958D01*
X1218896Y0326019D01*
X1218908Y0326078D01*
X1218908Y0327286D01*
X1219021Y0327786D01*
X1219008Y0327816D01*
X1218908Y0327914D01*
X1218908Y0329500D01*
X1218896Y0329559D01*
X1218902Y0329619D01*
X1218566Y0333030D01*
X1218548Y0333088D01*
Y0333148D01*
X1217880Y0336510D01*
X1217856Y0336566D01*
X1217850Y0336626D01*
X1216856Y0339906D01*
X1216827Y0339959D01*
X1216815Y0340018D01*
X1215504Y0343185D01*
X1215470Y0343235D01*
X1215452Y0343293D01*
X1213837Y0346316D01*
X1213799Y0346362D01*
X1213775Y0346418D01*
X1211871Y0349268D01*
X1211828Y0349311D01*
X1211800Y0349364D01*
X1209626Y0352013D01*
X1209579Y0352052D01*
X1209545Y0352102D01*
X1207122Y0354526D01*
X1207072Y0354559D01*
X1207033Y0354606D01*
X1204384Y0356780D01*
X1204331Y0356809D01*
X1204288Y0356852D01*
X1201438Y0358756D01*
X1201382Y0358779D01*
X1201335Y0358817D01*
X1198313Y0360433D01*
X1198255Y0360450D01*
X1198205Y0360484D01*
X1195038Y0361796D01*
X1194979Y0361807D01*
X1194925Y0361836D01*
X1191646Y0362831D01*
X1191585Y0362837D01*
X1191529Y0362860D01*
X1188168Y0363529D01*
X1188107D01*
X1188050Y0363546D01*
X1184639Y0363882D01*
X1184579Y0363876D01*
X1184519Y0363888D01*
X1183069Y0363888D01*
X1182875Y0363932D01*
X1182806Y0364001D01*
D02*
G37*
G36*
X1068632D02*
X1068396Y0364001D01*
X1068380Y0363994D01*
X1068380D01*
X1068316Y0363930D01*
X1068132Y0363888D01*
X1066694Y0363888D01*
X1066635Y0363876D01*
X1066574Y0363882D01*
X1063187Y0363548D01*
X1063129Y0363531D01*
X1063068D01*
X1059730Y0362867D01*
X1059674Y0362844D01*
X1059614Y0362838D01*
X1056356Y0361849D01*
X1056303Y0361821D01*
X1056243Y0361809D01*
X1053098Y0360507D01*
X1053048Y0360473D01*
X1052990Y0360455D01*
X1049988Y0358851D01*
X1049941Y0358812D01*
X1049885Y0358789D01*
X1047055Y0356898D01*
X1047012Y0356855D01*
X1046959Y0356826D01*
X1044327Y0354667D01*
X1044289Y0354620D01*
X1044239Y0354587D01*
X1041832Y0352180D01*
X1041798Y0352129D01*
X1041751Y0352091D01*
X1039592Y0349460D01*
X1039563Y0349406D01*
X1039520Y0349363D01*
X1037629Y0346533D01*
X1037606Y0346477D01*
X1037568Y0346430D01*
X1035963Y0343428D01*
X1035945Y0343370D01*
X1035912Y0343320D01*
X1034609Y0340175D01*
X1034597Y0340115D01*
X1034569Y0340062D01*
X1033581Y0336805D01*
X1033575Y0336744D01*
X1033551Y0336688D01*
X1032887Y0333350D01*
Y0333289D01*
X1032870Y0333231D01*
X1032536Y0329844D01*
X1032542Y0329784D01*
X1032530Y0329724D01*
X1032530Y0328135D01*
X1032417Y0328022D01*
X1032417D01*
X1032417Y0328022D01*
X1032417Y0328022D01*
X1032530Y0327522D01*
X1032530Y0326303D01*
X1032542Y0326243D01*
X1032536Y0326183D01*
X1032873Y0322761D01*
X1032891Y0322703D01*
Y0322642D01*
X1033562Y0319269D01*
X1033585Y0319213D01*
X1033591Y0319153D01*
X1034589Y0315862D01*
X1034618Y0315809D01*
X1034629Y0315750D01*
X1035945Y0312573D01*
X1035979Y0312522D01*
X1035997Y0312464D01*
X1037617Y0309432D01*
X1037656Y0309385D01*
X1037679Y0309329D01*
X1039590Y0306469D01*
X1039633Y0306427D01*
X1039661Y0306373D01*
X1041843Y0303715D01*
X1041889Y0303677D01*
X1041923Y0303626D01*
X1044355Y0301195D01*
X1044405Y0301161D01*
X1044443Y0301114D01*
X1047102Y0298933D01*
X1047155Y0298904D01*
X1047198Y0298861D01*
X1050057Y0296951D01*
X1050113Y0296928D01*
X1050160Y0296889D01*
X1053193Y0295268D01*
X1053251Y0295251D01*
X1053301Y0295217D01*
X1056478Y0293901D01*
X1056538Y0293889D01*
X1056591Y0293861D01*
X1059882Y0292862D01*
X1059942Y0292856D01*
X1059998Y0292833D01*
X1063371Y0292162D01*
X1063431D01*
X1063489Y0292145D01*
X1066911Y0291808D01*
X1066972Y0291814D01*
X1067031Y0291802D01*
X1068250Y0291802D01*
X1068750Y0291689D01*
X1068750Y0291689D01*
X1068750D01*
X1068750Y0291689D01*
X1069250Y0291802D01*
X1070458Y0291802D01*
X1070518Y0291814D01*
X1070578Y0291808D01*
X1073977Y0292143D01*
X1074035Y0292160D01*
X1074096D01*
X1077446Y0292827D01*
X1077501Y0292850D01*
X1077562Y0292856D01*
X1080830Y0293847D01*
X1080884Y0293876D01*
X1080943Y0293887D01*
X1084099Y0295195D01*
X1084149Y0295228D01*
X1084207Y0295246D01*
X1087219Y0296856D01*
X1087266Y0296894D01*
X1087322Y0296917D01*
X1090162Y0298815D01*
X1090205Y0298858D01*
X1090258Y0298886D01*
X1092899Y0301053D01*
X1092937Y0301100D01*
X1092987Y0301134D01*
X1095403Y0303549D01*
X1095436Y0303599D01*
X1095483Y0303638D01*
X1097650Y0306278D01*
X1097678Y0306331D01*
X1097721Y0306374D01*
X1099619Y0309214D01*
X1099642Y0309270D01*
X1099681Y0309317D01*
X1101291Y0312329D01*
X1101308Y0312387D01*
X1101342Y0312437D01*
X1102649Y0315593D01*
X1102661Y0315653D01*
X1102689Y0315706D01*
X1103681Y0318974D01*
X1103687Y0319035D01*
X1103710Y0319091D01*
X1104376Y0322441D01*
Y0322501D01*
X1104394Y0322559D01*
X1104729Y0325958D01*
X1104723Y0326019D01*
X1104734Y0326078D01*
X1104734Y0327286D01*
X1104847Y0327786D01*
X1104835Y0327816D01*
X1104734Y0327914D01*
X1104734Y0329500D01*
X1104722Y0329559D01*
X1104729Y0329619D01*
X1104393Y0333030D01*
X1104375Y0333088D01*
Y0333148D01*
X1103706Y0336510D01*
X1103683Y0336566D01*
X1103677Y0336626D01*
X1102682Y0339906D01*
X1102654Y0339959D01*
X1102642Y0340018D01*
X1101330Y0343185D01*
X1101297Y0343235D01*
X1101279Y0343293D01*
X1099664Y0346316D01*
X1099625Y0346362D01*
X1099602Y0346418D01*
X1097698Y0349268D01*
X1097655Y0349311D01*
X1097627Y0349364D01*
X1095452Y0352013D01*
X1095406Y0352052D01*
X1095372Y0352102D01*
X1092949Y0354526D01*
X1092898Y0354559D01*
X1092860Y0354606D01*
X1090211Y0356780D01*
X1090157Y0356809D01*
X1090114Y0356852D01*
X1087265Y0358756D01*
X1087209Y0358779D01*
X1087162Y0358817D01*
X1084140Y0360433D01*
X1084082Y0360450D01*
X1084031Y0360484D01*
X1080865Y0361796D01*
X1080805Y0361807D01*
X1080752Y0361836D01*
X1077472Y0362831D01*
X1077412Y0362837D01*
X1077356Y0362860D01*
X1073995Y0363529D01*
X1073934D01*
X1073876Y0363546D01*
X1070466Y0363882D01*
X1070405Y0363876D01*
X1070346Y0363888D01*
X1068896Y0363888D01*
X1068701Y0363932D01*
X1068632Y0364001D01*
D02*
G37*
%LPD*%
D10*
X0769685Y0342520D02*
D03*
X1259842Y0513976D02*
D03*
D11*
X0769685Y0293307D02*
D03*
X1259842Y0563189D02*
D03*
D12*
X1155404Y0290384D02*
D03*
X1159053Y0288022D02*
D03*
X1159369Y0367538D02*
D03*
X1163219Y0369546D02*
D03*
X1167046Y0371199D02*
D03*
X1227569Y0315935D02*
D03*
X1228632Y0320306D02*
D03*
X1155404Y0396684D02*
D03*
X1159053Y0394321D02*
D03*
X1159369Y0473837D02*
D03*
X1163219Y0475845D02*
D03*
X1167046Y0477498D02*
D03*
X1227569Y0422235D02*
D03*
X1228632Y0426605D02*
D03*
X1155404Y0502983D02*
D03*
X1159053Y0500620D02*
D03*
X1159369Y0580136D02*
D03*
X1163219Y0582144D02*
D03*
X1167046Y0583798D02*
D03*
X1227569Y0528534D02*
D03*
X1228632Y0532904D02*
D03*
X1041231Y0290384D02*
D03*
X1044880Y0288022D02*
D03*
X1045195Y0367538D02*
D03*
X1049046Y0369546D02*
D03*
X1052872Y0371199D02*
D03*
X1113396Y0315935D02*
D03*
X1114459Y0320306D02*
D03*
X1041231Y0396684D02*
D03*
X1044880Y0394321D02*
D03*
X1045195Y0473837D02*
D03*
X1049046Y0475845D02*
D03*
X1052872Y0477498D02*
D03*
X1113396Y0422235D02*
D03*
X1114459Y0426605D02*
D03*
X1041231Y0502983D02*
D03*
X1044880Y0500620D02*
D03*
X1045195Y0580136D02*
D03*
X1049046Y0582144D02*
D03*
X1052872Y0583798D02*
D03*
X1113396Y0528534D02*
D03*
X1114459Y0532904D02*
D03*
X1000286Y0320306D02*
D03*
X0999223Y0315935D02*
D03*
X0938699Y0371199D02*
D03*
X0934873Y0369546D02*
D03*
X0931022Y0367538D02*
D03*
X0930707Y0288022D02*
D03*
X0927057Y0290384D02*
D03*
X1000286Y0426605D02*
D03*
X0999223Y0422235D02*
D03*
X0938699Y0477498D02*
D03*
X0934873Y0475845D02*
D03*
X0931022Y0473837D02*
D03*
X0930707Y0394321D02*
D03*
X0927057Y0396684D02*
D03*
X1000286Y0532904D02*
D03*
X0999223Y0528534D02*
D03*
X0938699Y0583798D02*
D03*
X0934873Y0582144D02*
D03*
X0931022Y0580136D02*
D03*
X0930707Y0500620D02*
D03*
X0927057Y0502983D02*
D03*
X0886113Y0320306D02*
D03*
X0885050Y0315935D02*
D03*
X0824526Y0371199D02*
D03*
X0820699Y0369546D02*
D03*
X0816849Y0367538D02*
D03*
X0816533Y0288022D02*
D03*
X0812884Y0290384D02*
D03*
X0886113Y0426605D02*
D03*
X0885050Y0422235D02*
D03*
X0824526Y0477498D02*
D03*
X0820699Y0475845D02*
D03*
X0816849Y0473837D02*
D03*
X0816533Y0394321D02*
D03*
X0812884Y0396684D02*
D03*
X0886113Y0532904D02*
D03*
X0885050Y0528534D02*
D03*
X0824526Y0583798D02*
D03*
X0820699Y0582144D02*
D03*
X0816849Y0580136D02*
D03*
X0816533Y0500620D02*
D03*
X0812884Y0502983D02*
D03*
D13*
X1152491Y0358101D02*
D03*
X1143002Y0344226D02*
D03*
X1139499Y0327719D02*
D03*
X1142871Y0311172D02*
D03*
X1152097Y0297077D02*
D03*
X1166185Y0287640D02*
D03*
X1182778Y0284479D02*
D03*
X1199384Y0287658D02*
D03*
X1213514Y0297077D02*
D03*
X1222658Y0311202D02*
D03*
X1226085Y0327719D02*
D03*
X1222645Y0344137D02*
D03*
X1213120Y0358101D02*
D03*
X1199339Y0367714D02*
D03*
X1182806Y0371093D02*
D03*
X1152491Y0464400D02*
D03*
X1143002Y0450525D02*
D03*
X1139499Y0434018D02*
D03*
X1142871Y0417471D02*
D03*
X1152097Y0403376D02*
D03*
X1166185Y0393939D02*
D03*
X1182778Y0390778D02*
D03*
X1199384Y0393957D02*
D03*
X1213514Y0403376D02*
D03*
X1222658Y0417501D02*
D03*
X1226085Y0434018D02*
D03*
X1222645Y0450436D02*
D03*
X1213120Y0464400D02*
D03*
X1199339Y0474013D02*
D03*
X1182806Y0477392D02*
D03*
X1152491Y0570699D02*
D03*
X1143002Y0556824D02*
D03*
X1139499Y0540317D02*
D03*
X1142871Y0523770D02*
D03*
X1152097Y0509676D02*
D03*
X1166185Y0500239D02*
D03*
X1182778Y0497077D02*
D03*
X1199384Y0500256D02*
D03*
X1213514Y0509676D02*
D03*
X1222658Y0523800D02*
D03*
X1226085Y0540317D02*
D03*
X1222645Y0556735D02*
D03*
X1213120Y0570699D02*
D03*
X1199339Y0580312D02*
D03*
X1182806Y0583691D02*
D03*
X1038317Y0358101D02*
D03*
X1028829Y0344226D02*
D03*
X1025325Y0327719D02*
D03*
X1028698Y0311172D02*
D03*
X1037924Y0297077D02*
D03*
X1052012Y0287640D02*
D03*
X1068605Y0284479D02*
D03*
X1085211Y0287658D02*
D03*
X1099341Y0297077D02*
D03*
X1108484Y0311202D02*
D03*
X1111912Y0327719D02*
D03*
X1108472Y0344137D02*
D03*
X1098947Y0358101D02*
D03*
X1085166Y0367714D02*
D03*
X1068632Y0371093D02*
D03*
X1038317Y0464400D02*
D03*
X1028829Y0450525D02*
D03*
X1025325Y0434018D02*
D03*
X1028698Y0417471D02*
D03*
X1037924Y0403376D02*
D03*
X1052012Y0393939D02*
D03*
X1068605Y0390778D02*
D03*
X1085211Y0393957D02*
D03*
X1099341Y0403376D02*
D03*
X1108484Y0417501D02*
D03*
X1111912Y0434018D02*
D03*
X1108472Y0450436D02*
D03*
X1098947Y0464400D02*
D03*
X1085166Y0474013D02*
D03*
X1068632Y0477392D02*
D03*
X1038317Y0570699D02*
D03*
X1028829Y0556824D02*
D03*
X1025325Y0540317D02*
D03*
X1028698Y0523770D02*
D03*
X1037924Y0509676D02*
D03*
X1052012Y0500239D02*
D03*
X1068605Y0497077D02*
D03*
X1085211Y0500256D02*
D03*
X1099341Y0509676D02*
D03*
X1108484Y0523800D02*
D03*
X1111912Y0540317D02*
D03*
X1108472Y0556735D02*
D03*
X1098947Y0570699D02*
D03*
X1085166Y0580312D02*
D03*
X1068632Y0583691D02*
D03*
X0924144Y0358101D02*
D03*
X0914656Y0344226D02*
D03*
X0911152Y0327719D02*
D03*
X0914524Y0311172D02*
D03*
X0923750Y0297077D02*
D03*
X0937838Y0287640D02*
D03*
X0954432Y0284479D02*
D03*
X0971037Y0287658D02*
D03*
X0985168Y0297077D02*
D03*
X0994311Y0311202D02*
D03*
X0997739Y0327719D02*
D03*
X0994299Y0344137D02*
D03*
X0984774Y0358101D02*
D03*
X0970992Y0367714D02*
D03*
X0954459Y0371093D02*
D03*
X0924144Y0464400D02*
D03*
X0914656Y0450525D02*
D03*
X0911152Y0434018D02*
D03*
X0914524Y0417471D02*
D03*
X0923750Y0403376D02*
D03*
X0937838Y0393939D02*
D03*
X0954432Y0390778D02*
D03*
X0971037Y0393957D02*
D03*
X0985168Y0403376D02*
D03*
X0994311Y0417501D02*
D03*
X0997739Y0434018D02*
D03*
X0994299Y0450436D02*
D03*
X0984774Y0464400D02*
D03*
X0970992Y0474013D02*
D03*
X0954459Y0477392D02*
D03*
X0924144Y0570699D02*
D03*
X0914656Y0556824D02*
D03*
X0911152Y0540317D02*
D03*
X0914524Y0523770D02*
D03*
X0923750Y0509676D02*
D03*
X0937838Y0500239D02*
D03*
X0954432Y0497077D02*
D03*
X0971037Y0500256D02*
D03*
X0985168Y0509676D02*
D03*
X0994311Y0523800D02*
D03*
X0997739Y0540317D02*
D03*
X0994299Y0556735D02*
D03*
X0984774Y0570699D02*
D03*
X0970992Y0580312D02*
D03*
X0954459Y0583691D02*
D03*
X0809971Y0358101D02*
D03*
X0800482Y0344226D02*
D03*
X0796979Y0327719D02*
D03*
X0800351Y0311172D02*
D03*
X0809577Y0297077D02*
D03*
X0823665Y0287640D02*
D03*
X0840258Y0284479D02*
D03*
X0856864Y0287658D02*
D03*
X0870994Y0297077D02*
D03*
X0880138Y0311202D02*
D03*
X0883565Y0327719D02*
D03*
X0880126Y0344137D02*
D03*
X0870601Y0358101D02*
D03*
X0856819Y0367714D02*
D03*
X0840286Y0371093D02*
D03*
X0809971Y0464400D02*
D03*
X0800482Y0450525D02*
D03*
X0796979Y0434018D02*
D03*
X0800351Y0417471D02*
D03*
X0809577Y0403376D02*
D03*
X0823665Y0393939D02*
D03*
X0840258Y0390778D02*
D03*
X0856864Y0393957D02*
D03*
X0870994Y0403376D02*
D03*
X0880138Y0417501D02*
D03*
X0883565Y0434018D02*
D03*
X0880126Y0450436D02*
D03*
X0870601Y0464400D02*
D03*
X0856819Y0474013D02*
D03*
X0840286Y0477392D02*
D03*
X0809971Y0570699D02*
D03*
X0800482Y0556824D02*
D03*
X0796979Y0540317D02*
D03*
X0800351Y0523770D02*
D03*
X0809577Y0509676D02*
D03*
X0823665Y0500239D02*
D03*
X0840258Y0497077D02*
D03*
X0856864Y0500256D02*
D03*
X0870994Y0509676D02*
D03*
X0880138Y0523800D02*
D03*
X0883565Y0540317D02*
D03*
X0880126Y0556735D02*
D03*
X0870601Y0570699D02*
D03*
X0856819Y0580312D02*
D03*
X0840286Y0583691D02*
D03*
M02*
