G04*
G04 #@! TF.GenerationSoftware,Altium Limited,Altium Designer,19.1.7 (138)*
G04*
G04 Layer_Color=8388736*
%FSAX25Y25*%
%MOIN*%
G70*
G01*
G75*
%ADD15R,0.02362X0.01968*%
%ADD30C,0.04724*%
%ADD78R,0.25591X0.08511*%
%ADD79R,0.11575X0.09055*%
%ADD80C,0.07874*%
%ADD81C,0.11811*%
%ADD82R,0.03320X0.03162*%
%ADD83R,0.02690X0.04540*%
%ADD84R,0.10642X0.10642*%
%ADD85R,0.03950X0.03950*%
%ADD86R,0.03162X0.02769*%
%ADD87R,0.01575X0.01968*%
%ADD88R,0.05524X0.10642*%
%ADD89R,0.02769X0.03162*%
%ADD90R,0.01981X0.03556*%
%ADD91R,0.02769X0.02769*%
%ADD92R,0.03162X0.03320*%
%ADD93R,0.05918X0.04343*%
%ADD94C,0.13005*%
%ADD95C,0.02375*%
%ADD96C,0.05524*%
%ADD97C,0.04343*%
%ADD98C,0.06706*%
%ADD99C,0.02769*%
G36*
X0329784Y0344199D02*
X0329784Y0344199D01*
X0329784Y0344199D01*
X0329810Y0344197D01*
X0329836Y0344195D01*
X0329836Y0344195D01*
X0329837Y0344195D01*
X0329860Y0344191D01*
X0329888Y0344185D01*
X0329888Y0344185D01*
X0329888Y0344185D01*
X0329910Y0344178D01*
X0329937Y0344168D01*
X0329938Y0344168D01*
X0329938Y0344168D01*
X0329961Y0344157D01*
X0329984Y0344145D01*
X0329984Y0344145D01*
X0329985Y0344145D01*
X0330009Y0344129D01*
X0330028Y0344116D01*
X0330028Y0344116D01*
X0330028Y0344116D01*
X0330050Y0344097D01*
X0330067Y0344081D01*
X0330067Y0344081D01*
X0330068Y0344081D01*
X0330083Y0344063D01*
X0330102Y0344042D01*
X0330102Y0344042D01*
X0330102Y0344041D01*
X0330115Y0344022D01*
X0330131Y0343998D01*
X0330131Y0343998D01*
X0330131Y0343998D01*
X0330143Y0343974D01*
X0330154Y0343951D01*
X0330154Y0343951D01*
X0330154Y0343951D01*
X0330162Y0343927D01*
X0330171Y0343902D01*
X0330171Y0343901D01*
X0330171Y0343901D01*
X0330176Y0343876D01*
X0330181Y0343850D01*
X0330181Y0343850D01*
X0330181Y0343850D01*
X0330183Y0343823D01*
X0330185Y0343798D01*
X0330185Y0343798D01*
X0330185Y0343797D01*
X0330184Y0343502D01*
X0330184Y0340058D01*
Y0340058D01*
Y0340058D01*
X0330181Y0340006D01*
X0330171Y0339955D01*
X0330154Y0339905D01*
X0330131Y0339858D01*
X0330101Y0339814D01*
X0330072Y0339780D01*
X0330067Y0339775D01*
X0330067D01*
Y0339775D01*
X0330061Y0339770D01*
X0330027Y0339740D01*
X0329984Y0339711D01*
X0329937Y0339688D01*
X0329887Y0339671D01*
X0329836Y0339661D01*
X0329783Y0339658D01*
X0329783D01*
X0323091Y0339658D01*
X0323062Y0339660D01*
X0323039Y0339661D01*
X0323039Y0339661D01*
X0323039Y0339661D01*
X0323005Y0339668D01*
X0322988Y0339671D01*
X0322988Y0339671D01*
X0322987Y0339671D01*
X0322954Y0339683D01*
X0322938Y0339688D01*
X0322938Y0339688D01*
X0322938Y0339688D01*
X0322912Y0339701D01*
X0322891Y0339711D01*
X0322891Y0339711D01*
X0322891Y0339711D01*
X0322867Y0339727D01*
X0322847Y0339740D01*
X0322847Y0339740D01*
X0322847Y0339740D01*
X0322825Y0339760D01*
X0322808Y0339775D01*
X0321823Y0340759D01*
X0321822Y0340759D01*
X0321822Y0340759D01*
X0321806Y0340778D01*
X0321788Y0340798D01*
X0321788Y0340798D01*
X0321788Y0340798D01*
X0321774Y0340819D01*
X0321759Y0340842D01*
X0321759Y0340842D01*
X0321759Y0340842D01*
X0321747Y0340865D01*
X0321736Y0340889D01*
X0321736Y0340889D01*
X0321735Y0340889D01*
X0321725Y0340920D01*
X0321719Y0340938D01*
X0321719Y0340938D01*
X0321719Y0340939D01*
X0321713Y0340966D01*
X0321708Y0340990D01*
X0321708Y0340990D01*
X0321708Y0340990D01*
X0321707Y0341013D01*
X0321705Y0341042D01*
X0321705Y0341042D01*
X0321705Y0341042D01*
X0321706Y0343508D01*
X0321706Y0343508D01*
X0321706Y0343509D01*
X0321706Y0343801D01*
X0321708Y0343827D01*
X0321710Y0343852D01*
X0321710Y0343852D01*
X0321710Y0343853D01*
X0321715Y0343878D01*
X0321720Y0343903D01*
X0321720Y0343904D01*
X0321720Y0343904D01*
X0321729Y0343929D01*
X0321737Y0343953D01*
X0321737Y0343953D01*
X0321737Y0343954D01*
X0321749Y0343977D01*
X0321760Y0344000D01*
X0321760Y0344001D01*
X0321761Y0344001D01*
X0321775Y0344023D01*
X0321789Y0344044D01*
X0321790Y0344044D01*
X0321790Y0344044D01*
X0321807Y0344063D01*
X0321824Y0344083D01*
X0321824Y0344083D01*
X0321825Y0344084D01*
X0321842Y0344099D01*
X0321863Y0344118D01*
X0321864Y0344118D01*
X0321864Y0344118D01*
X0321885Y0344132D01*
X0321907Y0344147D01*
X0321907Y0344147D01*
X0321908Y0344147D01*
X0321932Y0344159D01*
X0321954Y0344170D01*
X0321954Y0344170D01*
X0321955Y0344170D01*
X0321980Y0344179D01*
X0322004Y0344187D01*
X0322004Y0344187D01*
X0322005Y0344187D01*
X0322031Y0344192D01*
X0322055Y0344197D01*
X0322056Y0344197D01*
X0322056Y0344197D01*
X0322082Y0344199D01*
X0322107Y0344200D01*
X0322108D01*
X0329784Y0344199D01*
D02*
G37*
G36*
Y0251285D02*
X0329784Y0251285D01*
X0329784Y0251285D01*
X0329810Y0251284D01*
X0329836Y0251282D01*
X0329836Y0251282D01*
X0329837Y0251282D01*
X0329860Y0251277D01*
X0329888Y0251272D01*
X0329888Y0251272D01*
X0329888Y0251272D01*
X0329910Y0251264D01*
X0329937Y0251255D01*
X0329938Y0251255D01*
X0329938Y0251255D01*
X0329961Y0251243D01*
X0329984Y0251232D01*
X0329984Y0251232D01*
X0329985Y0251231D01*
X0330009Y0251215D01*
X0330028Y0251203D01*
X0330028Y0251202D01*
X0330028Y0251202D01*
X0330050Y0251183D01*
X0330067Y0251168D01*
X0330067Y0251168D01*
X0330068Y0251167D01*
X0330083Y0251149D01*
X0330102Y0251129D01*
X0330102Y0251128D01*
X0330102Y0251128D01*
X0330115Y0251108D01*
X0330131Y0251085D01*
X0330131Y0251085D01*
X0330131Y0251084D01*
X0330143Y0251060D01*
X0330154Y0251038D01*
X0330154Y0251038D01*
X0330154Y0251037D01*
X0330162Y0251013D01*
X0330171Y0250988D01*
X0330171Y0250988D01*
X0330171Y0250988D01*
X0330176Y0250963D01*
X0330181Y0250937D01*
X0330181Y0250937D01*
X0330181Y0250936D01*
X0330183Y0250909D01*
X0330185Y0250885D01*
X0330185Y0250884D01*
X0330185Y0250884D01*
X0330184Y0250588D01*
X0330184Y0247145D01*
Y0247145D01*
Y0247145D01*
X0330181Y0247093D01*
X0330171Y0247041D01*
X0330154Y0246992D01*
X0330131Y0246945D01*
X0330101Y0246901D01*
X0330072Y0246867D01*
X0330067Y0246862D01*
X0330067D01*
Y0246862D01*
X0330061Y0246857D01*
X0330027Y0246827D01*
X0329984Y0246798D01*
X0329937Y0246775D01*
X0329887Y0246758D01*
X0329836Y0246748D01*
X0329783Y0246744D01*
X0329783D01*
X0323091Y0246744D01*
X0323062Y0246746D01*
X0323039Y0246748D01*
X0323039Y0246748D01*
X0323039Y0246748D01*
X0323005Y0246754D01*
X0322988Y0246758D01*
X0322988Y0246758D01*
X0322987Y0246758D01*
X0322954Y0246769D01*
X0322938Y0246775D01*
X0322938Y0246775D01*
X0322938Y0246775D01*
X0322912Y0246787D01*
X0322891Y0246798D01*
X0322891Y0246798D01*
X0322891Y0246798D01*
X0322867Y0246814D01*
X0322847Y0246827D01*
X0322847Y0246827D01*
X0322847Y0246827D01*
X0322825Y0246847D01*
X0322808Y0246862D01*
X0321823Y0247845D01*
X0321822Y0247845D01*
X0321822Y0247846D01*
X0321806Y0247865D01*
X0321788Y0247885D01*
X0321788Y0247885D01*
X0321788Y0247885D01*
X0321774Y0247905D01*
X0321759Y0247928D01*
X0321759Y0247928D01*
X0321759Y0247929D01*
X0321747Y0247952D01*
X0321736Y0247975D01*
X0321736Y0247975D01*
X0321735Y0247975D01*
X0321725Y0248007D01*
X0321719Y0248025D01*
X0321719Y0248025D01*
X0321719Y0248025D01*
X0321713Y0248052D01*
X0321708Y0248076D01*
X0321708Y0248077D01*
X0321708Y0248077D01*
X0321707Y0248099D01*
X0321705Y0248129D01*
X0321705Y0248129D01*
X0321705Y0248129D01*
X0321706Y0250594D01*
X0321706Y0250595D01*
X0321706Y0250595D01*
X0321706Y0250887D01*
X0321708Y0250913D01*
X0321710Y0250939D01*
X0321710Y0250939D01*
X0321710Y0250940D01*
X0321715Y0250965D01*
X0321720Y0250990D01*
X0321720Y0250991D01*
X0321720Y0250991D01*
X0321729Y0251015D01*
X0321737Y0251040D01*
X0321737Y0251040D01*
X0321737Y0251041D01*
X0321749Y0251064D01*
X0321760Y0251087D01*
X0321760Y0251087D01*
X0321761Y0251087D01*
X0321775Y0251109D01*
X0321789Y0251130D01*
X0321790Y0251131D01*
X0321790Y0251131D01*
X0321807Y0251150D01*
X0321824Y0251170D01*
X0321824Y0251170D01*
X0321825Y0251170D01*
X0321842Y0251186D01*
X0321863Y0251204D01*
X0321864Y0251204D01*
X0321864Y0251205D01*
X0321885Y0251219D01*
X0321907Y0251233D01*
X0321907Y0251234D01*
X0321908Y0251234D01*
X0321932Y0251246D01*
X0321954Y0251256D01*
X0321954Y0251257D01*
X0321955Y0251257D01*
X0321980Y0251265D01*
X0322004Y0251273D01*
X0322004Y0251273D01*
X0322005Y0251274D01*
X0322031Y0251279D01*
X0322055Y0251284D01*
X0322056Y0251284D01*
X0322056Y0251284D01*
X0322082Y0251285D01*
X0322107Y0251287D01*
X0322108D01*
X0329784Y0251285D01*
D02*
G37*
G36*
Y0158372D02*
X0329784Y0158372D01*
X0329784Y0158372D01*
X0329810Y0158370D01*
X0329836Y0158369D01*
X0329836Y0158369D01*
X0329837Y0158369D01*
X0329860Y0158364D01*
X0329888Y0158358D01*
X0329888Y0158358D01*
X0329888Y0158358D01*
X0329910Y0158351D01*
X0329937Y0158342D01*
X0329938Y0158341D01*
X0329938Y0158341D01*
X0329961Y0158330D01*
X0329984Y0158318D01*
X0329984Y0158318D01*
X0329985Y0158318D01*
X0330009Y0158302D01*
X0330028Y0158289D01*
X0330028Y0158289D01*
X0330028Y0158289D01*
X0330050Y0158270D01*
X0330067Y0158255D01*
X0330067Y0158254D01*
X0330068Y0158254D01*
X0330083Y0158236D01*
X0330102Y0158215D01*
X0330102Y0158215D01*
X0330102Y0158215D01*
X0330115Y0158195D01*
X0330131Y0158171D01*
X0330131Y0158171D01*
X0330131Y0158171D01*
X0330143Y0158147D01*
X0330154Y0158124D01*
X0330154Y0158124D01*
X0330154Y0158124D01*
X0330162Y0158100D01*
X0330171Y0158075D01*
X0330171Y0158074D01*
X0330171Y0158074D01*
X0330176Y0158049D01*
X0330181Y0158023D01*
X0330181Y0158023D01*
X0330181Y0158023D01*
X0330183Y0157996D01*
X0330185Y0157971D01*
X0330185Y0157971D01*
X0330185Y0157970D01*
X0330184Y0157675D01*
X0330184Y0154232D01*
Y0154232D01*
Y0154232D01*
X0330181Y0154179D01*
X0330171Y0154128D01*
X0330154Y0154078D01*
X0330131Y0154031D01*
X0330101Y0153988D01*
X0330072Y0153954D01*
X0330067Y0153948D01*
X0330067D01*
Y0153948D01*
X0330061Y0153943D01*
X0330027Y0153914D01*
X0329984Y0153884D01*
X0329937Y0153861D01*
X0329887Y0153844D01*
X0329836Y0153834D01*
X0329783Y0153831D01*
X0329783D01*
X0323091Y0153831D01*
X0323062Y0153833D01*
X0323039Y0153834D01*
X0323039Y0153834D01*
X0323039Y0153834D01*
X0323005Y0153841D01*
X0322988Y0153844D01*
X0322988Y0153844D01*
X0322987Y0153844D01*
X0322954Y0153856D01*
X0322938Y0153861D01*
X0322938Y0153861D01*
X0322938Y0153861D01*
X0322912Y0153874D01*
X0322891Y0153884D01*
X0322891Y0153884D01*
X0322891Y0153885D01*
X0322867Y0153900D01*
X0322847Y0153913D01*
X0322847Y0153914D01*
X0322847Y0153914D01*
X0322825Y0153933D01*
X0322808Y0153948D01*
X0321823Y0154932D01*
X0321822Y0154932D01*
X0321822Y0154932D01*
X0321806Y0154951D01*
X0321788Y0154971D01*
X0321788Y0154971D01*
X0321788Y0154972D01*
X0321774Y0154992D01*
X0321759Y0155015D01*
X0321759Y0155015D01*
X0321759Y0155015D01*
X0321747Y0155038D01*
X0321736Y0155062D01*
X0321736Y0155062D01*
X0321735Y0155062D01*
X0321725Y0155094D01*
X0321719Y0155111D01*
X0321719Y0155112D01*
X0321719Y0155112D01*
X0321713Y0155139D01*
X0321708Y0155163D01*
X0321708Y0155163D01*
X0321708Y0155163D01*
X0321707Y0155186D01*
X0321705Y0155215D01*
X0321705Y0155215D01*
X0321705Y0155216D01*
X0321706Y0157681D01*
X0321706Y0157682D01*
X0321706Y0157682D01*
X0321706Y0157974D01*
X0321708Y0158000D01*
X0321710Y0158025D01*
X0321710Y0158026D01*
X0321710Y0158026D01*
X0321715Y0158051D01*
X0321720Y0158077D01*
X0321720Y0158077D01*
X0321720Y0158078D01*
X0321729Y0158102D01*
X0321737Y0158126D01*
X0321737Y0158127D01*
X0321737Y0158127D01*
X0321749Y0158150D01*
X0321760Y0158173D01*
X0321760Y0158174D01*
X0321761Y0158174D01*
X0321775Y0158196D01*
X0321789Y0158217D01*
X0321790Y0158217D01*
X0321790Y0158218D01*
X0321807Y0158237D01*
X0321824Y0158256D01*
X0321824Y0158257D01*
X0321825Y0158257D01*
X0321842Y0158272D01*
X0321863Y0158291D01*
X0321864Y0158291D01*
X0321864Y0158291D01*
X0321885Y0158305D01*
X0321907Y0158320D01*
X0321907Y0158320D01*
X0321908Y0158320D01*
X0321932Y0158332D01*
X0321954Y0158343D01*
X0321954Y0158343D01*
X0321955Y0158344D01*
X0321980Y0158352D01*
X0322004Y0158360D01*
X0322004Y0158360D01*
X0322005Y0158360D01*
X0322031Y0158365D01*
X0322055Y0158370D01*
X0322056Y0158370D01*
X0322056Y0158370D01*
X0322082Y0158372D01*
X0322107Y0158374D01*
X0322108D01*
X0329784Y0158372D01*
D02*
G37*
D15*
X0294291Y0359999D02*
D03*
X0290118D02*
D03*
X0294291Y0363936D02*
D03*
X0290118D02*
D03*
X0294291Y0267086D02*
D03*
X0290118D02*
D03*
X0294291Y0271023D02*
D03*
X0290118D02*
D03*
X0294291Y0174173D02*
D03*
X0290118D02*
D03*
X0294291Y0178110D02*
D03*
X0290118D02*
D03*
D30*
X0246181Y0155276D02*
D03*
X0246142Y0170118D02*
D03*
X0246063Y0177717D02*
D03*
X0246142Y0162677D02*
D03*
X0246181Y0248189D02*
D03*
X0246142Y0263032D02*
D03*
X0246063Y0270630D02*
D03*
X0246142Y0255591D02*
D03*
X0246181Y0341102D02*
D03*
X0246142Y0355945D02*
D03*
X0246063Y0363543D02*
D03*
X0246142Y0348504D02*
D03*
D78*
X0347874Y0378224D02*
D03*
Y0285311D02*
D03*
Y0192397D02*
D03*
D79*
X0271339Y0378740D02*
D03*
Y0285826D02*
D03*
Y0192913D02*
D03*
D80*
X0227874Y0129646D02*
Y0143780D01*
X0160472Y0129646D02*
X0227874D01*
X0160472D02*
Y0137638D01*
X0227677Y0175591D02*
Y0196811D01*
X0160669D02*
X0227677D01*
X0160669Y0153858D02*
Y0196811D01*
X0227874Y0222559D02*
Y0236693D01*
X0160472Y0222559D02*
X0227874D01*
X0160472D02*
Y0230551D01*
X0227677Y0268504D02*
Y0289724D01*
X0160669D02*
X0227677D01*
X0160669Y0246772D02*
Y0289724D01*
X0227874Y0315473D02*
Y0329606D01*
X0160472Y0315473D02*
X0227874D01*
X0160472D02*
Y0323465D01*
X0227677Y0361417D02*
Y0382638D01*
X0160669D02*
X0227677D01*
X0160669Y0339685D02*
Y0382638D01*
D81*
X0126772Y0112992D02*
D03*
X0454528Y0402559D02*
D03*
D82*
X0295787Y0339763D02*
D03*
Y0335984D02*
D03*
X0353465Y0362913D02*
D03*
Y0359133D02*
D03*
X0357992Y0362913D02*
D03*
Y0359133D02*
D03*
X0275787Y0340787D02*
D03*
Y0344566D02*
D03*
X0280276Y0340826D02*
D03*
Y0344606D02*
D03*
X0311575Y0362244D02*
D03*
Y0358464D02*
D03*
X0318583Y0337755D02*
D03*
Y0333976D02*
D03*
X0295787Y0246850D02*
D03*
Y0243070D02*
D03*
X0353465Y0270000D02*
D03*
Y0266220D02*
D03*
X0357992Y0270000D02*
D03*
Y0266220D02*
D03*
X0275787Y0247873D02*
D03*
Y0251653D02*
D03*
X0280276Y0247913D02*
D03*
Y0251692D02*
D03*
X0311575Y0269330D02*
D03*
Y0265551D02*
D03*
X0318583Y0244842D02*
D03*
Y0241062D02*
D03*
X0295787Y0153936D02*
D03*
Y0150157D02*
D03*
X0353465Y0177086D02*
D03*
Y0173307D02*
D03*
X0357992Y0177086D02*
D03*
Y0173307D02*
D03*
X0275787Y0154960D02*
D03*
Y0158740D02*
D03*
X0280276Y0154999D02*
D03*
Y0158779D02*
D03*
X0311575Y0176417D02*
D03*
Y0172637D02*
D03*
X0318583Y0151929D02*
D03*
Y0148149D02*
D03*
D83*
X0283976Y0332598D02*
D03*
X0291614D02*
D03*
X0287795Y0340236D02*
D03*
X0283976Y0239685D02*
D03*
X0291614D02*
D03*
X0287795Y0247322D02*
D03*
X0283976Y0146771D02*
D03*
X0291614D02*
D03*
X0287795Y0154409D02*
D03*
D84*
X0272047Y0379448D02*
D03*
Y0286535D02*
D03*
Y0193622D02*
D03*
D85*
X0279055Y0321614D02*
D03*
Y0327519D02*
D03*
X0371457Y0320669D02*
D03*
Y0326968D02*
D03*
X0317283Y0349291D02*
D03*
Y0343385D02*
D03*
X0279055Y0228700D02*
D03*
Y0234606D02*
D03*
X0371457Y0227755D02*
D03*
Y0234055D02*
D03*
X0317283Y0256377D02*
D03*
Y0250472D02*
D03*
X0279055Y0135787D02*
D03*
Y0141692D02*
D03*
X0371457Y0134842D02*
D03*
Y0141141D02*
D03*
X0317283Y0163464D02*
D03*
Y0157559D02*
D03*
D86*
X0365866Y0323661D02*
D03*
Y0327598D02*
D03*
X0298819Y0356574D02*
D03*
Y0360511D02*
D03*
X0333268Y0345787D02*
D03*
Y0341850D02*
D03*
X0365866Y0230748D02*
D03*
Y0234684D02*
D03*
X0298819Y0263661D02*
D03*
Y0267598D02*
D03*
X0333268Y0252873D02*
D03*
Y0248937D02*
D03*
X0365866Y0137834D02*
D03*
Y0141771D02*
D03*
X0298819Y0170747D02*
D03*
Y0174685D02*
D03*
X0333268Y0159960D02*
D03*
Y0156023D02*
D03*
D87*
X0292205Y0359999D02*
D03*
Y0363936D02*
D03*
Y0267086D02*
D03*
Y0271023D02*
D03*
Y0174173D02*
D03*
Y0178110D02*
D03*
D88*
X0308858Y0379330D02*
D03*
X0299803D02*
D03*
X0290748D02*
D03*
X0281693Y0379330D02*
D03*
X0326968Y0379330D02*
D03*
X0317913D02*
D03*
X0308858Y0286417D02*
D03*
X0299803D02*
D03*
X0290748D02*
D03*
X0281693Y0286417D02*
D03*
X0326968Y0286417D02*
D03*
X0317913D02*
D03*
X0308858Y0193503D02*
D03*
X0299803D02*
D03*
X0290748D02*
D03*
X0281693Y0193503D02*
D03*
X0326968Y0193503D02*
D03*
X0317913D02*
D03*
D89*
X0294567Y0356299D02*
D03*
X0290630D02*
D03*
X0307401Y0362244D02*
D03*
X0303465D02*
D03*
X0294528Y0368818D02*
D03*
X0290591D02*
D03*
X0302638Y0368897D02*
D03*
X0298701D02*
D03*
X0370512Y0336810D02*
D03*
X0366575D02*
D03*
X0372441Y0332362D02*
D03*
X0368504D02*
D03*
X0298307Y0319606D02*
D03*
X0294370D02*
D03*
X0294567Y0263385D02*
D03*
X0290630D02*
D03*
X0307401Y0269330D02*
D03*
X0303465D02*
D03*
X0294528Y0275905D02*
D03*
X0290591D02*
D03*
X0302638Y0275984D02*
D03*
X0298701D02*
D03*
X0370512Y0243897D02*
D03*
X0366575D02*
D03*
X0372441Y0239448D02*
D03*
X0368504D02*
D03*
X0298307Y0226692D02*
D03*
X0294370D02*
D03*
X0294567Y0170472D02*
D03*
X0290630D02*
D03*
X0307401Y0176417D02*
D03*
X0303465D02*
D03*
X0294528Y0182992D02*
D03*
X0290591D02*
D03*
X0302638Y0183070D02*
D03*
X0298701D02*
D03*
X0370512Y0150984D02*
D03*
X0366575D02*
D03*
X0372441Y0146535D02*
D03*
X0368504D02*
D03*
X0298307Y0133779D02*
D03*
X0294370D02*
D03*
D90*
X0322992Y0337795D02*
D03*
X0324961D02*
D03*
X0326929D02*
D03*
X0328898D02*
D03*
Y0346062D02*
D03*
X0326929D02*
D03*
X0324961D02*
D03*
X0322992D02*
D03*
Y0244881D02*
D03*
X0324961D02*
D03*
X0326929D02*
D03*
X0328898D02*
D03*
Y0253149D02*
D03*
X0326929D02*
D03*
X0324961D02*
D03*
X0322992D02*
D03*
Y0151968D02*
D03*
X0324961D02*
D03*
X0326929D02*
D03*
X0328898D02*
D03*
Y0160236D02*
D03*
X0326929D02*
D03*
X0324961D02*
D03*
X0322992D02*
D03*
D91*
X0325945Y0341929D02*
D03*
Y0249015D02*
D03*
Y0156102D02*
D03*
D92*
X0312598Y0371692D02*
D03*
X0308819D02*
D03*
X0312598Y0278779D02*
D03*
X0308819D02*
D03*
X0312598Y0185866D02*
D03*
X0308819D02*
D03*
D93*
X0360236Y0353149D02*
D03*
Y0345669D02*
D03*
X0351693Y0353149D02*
D03*
Y0345669D02*
D03*
X0360236Y0260236D02*
D03*
Y0252755D02*
D03*
X0351693Y0260236D02*
D03*
Y0252755D02*
D03*
X0360236Y0167322D02*
D03*
Y0159842D02*
D03*
X0351693Y0167322D02*
D03*
Y0159842D02*
D03*
D94*
X0424410Y0113189D02*
D03*
X0422244Y0402559D02*
D03*
X0150787Y0112992D02*
D03*
X0153740Y0402362D02*
D03*
D95*
X0356102Y0314566D02*
D03*
X0359449D02*
D03*
X0362795D02*
D03*
X0288189D02*
D03*
X0294882D02*
D03*
X0348583Y0383464D02*
D03*
X0345236D02*
D03*
X0341890D02*
D03*
X0291535Y0314566D02*
D03*
X0356102Y0221653D02*
D03*
X0359449D02*
D03*
X0362795D02*
D03*
X0288189D02*
D03*
X0294882D02*
D03*
X0348583Y0290551D02*
D03*
X0345236D02*
D03*
X0341890D02*
D03*
X0291535Y0221653D02*
D03*
X0356102Y0128740D02*
D03*
X0359449D02*
D03*
X0362795D02*
D03*
X0288189D02*
D03*
X0294882D02*
D03*
X0348583Y0197637D02*
D03*
X0345236D02*
D03*
X0341890D02*
D03*
X0291535Y0128740D02*
D03*
D96*
X0358239Y0382480D02*
D03*
X0367244Y0374330D02*
D03*
X0326991Y0382480D02*
D03*
X0317917D02*
D03*
X0308869D02*
D03*
X0299822D02*
D03*
X0290748D02*
D03*
X0272239D02*
D03*
X0281690D02*
D03*
X0358239Y0289566D02*
D03*
X0367244Y0281417D02*
D03*
X0326991Y0289566D02*
D03*
X0317917D02*
D03*
X0308869D02*
D03*
X0299822D02*
D03*
X0290748D02*
D03*
X0272239D02*
D03*
X0281690D02*
D03*
X0358239Y0196653D02*
D03*
X0367244Y0188503D02*
D03*
X0326991Y0196653D02*
D03*
X0317917D02*
D03*
X0308869D02*
D03*
X0299822D02*
D03*
X0290748D02*
D03*
X0272239D02*
D03*
X0281690D02*
D03*
D97*
X0429587Y0335551D02*
D03*
X0433587Y0355551D02*
D03*
X0425587D02*
D03*
X0429587Y0242637D02*
D03*
X0433587Y0262637D02*
D03*
X0425587D02*
D03*
X0429587Y0149724D02*
D03*
X0433587Y0169724D02*
D03*
X0425587D02*
D03*
D98*
X0368110Y0345866D02*
D03*
X0269701Y0365551D02*
D03*
Y0326181D02*
D03*
X0410827Y0357677D02*
D03*
Y0334055D02*
D03*
X0368110Y0252952D02*
D03*
X0269701Y0272637D02*
D03*
Y0233267D02*
D03*
X0410827Y0264763D02*
D03*
Y0241141D02*
D03*
X0368110Y0160039D02*
D03*
X0269701Y0179724D02*
D03*
Y0140354D02*
D03*
X0410827Y0171850D02*
D03*
Y0148228D02*
D03*
D99*
X0198622Y0158858D02*
D03*
Y0251772D02*
D03*
Y0344685D02*
D03*
M02*
