G04*
G04 #@! TF.GenerationSoftware,Altium Limited,Altium Designer,19.1.5 (86)*
G04*
G04 Layer_Physical_Order=1*
G04 Layer_Color=255*
%FSAX25Y25*%
%MOIN*%
G70*
G01*
G75*
%ADD12C,0.00984*%
%ADD13C,0.05906*%
G36*
X0149036Y0201314D02*
X0149669Y0200488D01*
X0150495Y0199854D01*
X0151456Y0199456D01*
X0152488Y0199320D01*
X0153520Y0199456D01*
X0154482Y0199854D01*
X0155307Y0200488D01*
X0155941Y0201314D01*
X0156273Y0202117D01*
X0156928Y0202065D01*
X0157215Y0202011D01*
X0157502Y0201937D01*
X0157502Y0201937D01*
X0157987Y0201940D01*
X0159797Y0201653D01*
X0160210Y0201588D01*
X0160466Y0201528D01*
X0160775Y0201441D01*
X0160775Y0201441D01*
X0161265Y0201378D01*
X0163453Y0200853D01*
X0163540Y0200827D01*
X0164004Y0200680D01*
D01*
X0164489Y0200560D01*
X0165092Y0200364D01*
X0165034Y0199928D01*
X0165170Y0198896D01*
X0165569Y0197934D01*
X0166202Y0197109D01*
X0167028Y0196475D01*
X0167990Y0196077D01*
X0169021Y0195941D01*
X0170053Y0196077D01*
X0171015Y0196475D01*
X0171841Y0197109D01*
X0172109Y0197459D01*
X0172764Y0197125D01*
X0172789Y0197112D01*
X0173105Y0196925D01*
X0173110Y0196908D01*
X0173187Y0196876D01*
X0173596Y0196657D01*
X0175541Y0195465D01*
X0175932Y0195163D01*
X0176012Y0195130D01*
X0176435Y0194867D01*
X0178315Y0193501D01*
X0178600Y0193198D01*
X0178814Y0193071D01*
X0178857Y0193045D01*
X0179094Y0192884D01*
X0179515Y0192523D01*
X0179350Y0192308D01*
X0178952Y0191347D01*
X0178816Y0190315D01*
X0178952Y0189283D01*
X0179350Y0188321D01*
X0179984Y0187496D01*
X0180810Y0186862D01*
X0181771Y0186464D01*
X0182803Y0186328D01*
X0183835Y0186464D01*
X0184797Y0186862D01*
X0185012Y0187027D01*
X0185424Y0186544D01*
X0185477Y0186464D01*
X0185560Y0186325D01*
X0185686Y0186112D01*
X0185686Y0186112D01*
X0186031Y0185770D01*
X0187355Y0183947D01*
X0187618Y0183523D01*
X0187651Y0183444D01*
X0187953Y0183053D01*
X0189145Y0181108D01*
X0189174Y0181054D01*
X0189396Y0180622D01*
X0189396Y0180622D01*
X0189655Y0180195D01*
X0189989Y0179538D01*
X0189509Y0179170D01*
X0188875Y0178344D01*
X0188477Y0177383D01*
X0188341Y0176351D01*
X0188477Y0175319D01*
X0188875Y0174357D01*
X0189509Y0173532D01*
X0190334Y0172898D01*
X0191296Y0172500D01*
X0192328Y0172364D01*
X0192906Y0172440D01*
X0193075Y0171919D01*
X0193078Y0171911D01*
X0193176Y0171531D01*
X0193168Y0171516D01*
X0193200Y0171439D01*
X0193341Y0170964D01*
X0193895Y0168655D01*
X0193929Y0168286D01*
X0194016Y0167978D01*
X0194016Y0167978D01*
X0194042Y0167867D01*
X0194076Y0167721D01*
X0194141Y0167309D01*
X0194371Y0165858D01*
X0194449Y0165364D01*
X0194425Y0165014D01*
X0194499Y0164727D01*
Y0164727D01*
X0194520Y0164615D01*
X0194553Y0164439D01*
X0194609Y0163732D01*
X0193774Y0163386D01*
X0192949Y0162752D01*
X0192315Y0161926D01*
X0191917Y0160965D01*
X0191781Y0159933D01*
X0191917Y0158901D01*
X0192315Y0157940D01*
X0192949Y0157114D01*
X0193774Y0156480D01*
X0194599Y0156139D01*
X0194553Y0155561D01*
X0194499Y0155273D01*
X0194425Y0154987D01*
X0194425Y0154987D01*
X0194428Y0154501D01*
X0194141Y0152691D01*
X0194076Y0152278D01*
X0194016Y0152022D01*
X0193930Y0151714D01*
X0193930Y0151714D01*
X0193866Y0151223D01*
X0193341Y0149036D01*
X0193315Y0148948D01*
X0193168Y0148484D01*
D01*
X0193049Y0147999D01*
X0192330Y0145786D01*
X0192171Y0145383D01*
X0192147Y0145322D01*
X0192147Y0145322D01*
X0191984Y0144858D01*
X0191123Y0142780D01*
X0190913Y0142340D01*
X0190912Y0142340D01*
X0190848Y0142193D01*
X0190833Y0142157D01*
X0190674Y0141807D01*
X0190486Y0141438D01*
X0189613Y0139724D01*
X0189601Y0139700D01*
X0189413Y0139383D01*
X0189396Y0139378D01*
X0189364Y0139301D01*
X0189145Y0138892D01*
X0187953Y0136947D01*
X0187651Y0136556D01*
X0187618Y0136477D01*
X0187355Y0136053D01*
X0185989Y0134173D01*
X0185686Y0133888D01*
X0185559Y0133674D01*
X0185533Y0133631D01*
X0185372Y0133395D01*
X0184914Y0132859D01*
X0184229Y0133142D01*
X0183197Y0133278D01*
X0182165Y0133142D01*
X0181203Y0132744D01*
X0180378Y0132111D01*
X0179744Y0131285D01*
X0179346Y0130323D01*
X0179210Y0129291D01*
X0179346Y0128260D01*
X0179630Y0127574D01*
X0179032Y0127064D01*
X0178952Y0127012D01*
X0178813Y0126928D01*
X0178600Y0126802D01*
X0178600Y0126802D01*
X0178258Y0126458D01*
X0176435Y0125133D01*
X0176012Y0124870D01*
X0175932Y0124837D01*
X0175541Y0124535D01*
X0173596Y0123344D01*
X0173542Y0123314D01*
X0173110Y0123092D01*
X0173110Y0123092D01*
X0172683Y0122834D01*
X0172031Y0122502D01*
X0171886Y0122691D01*
X0171060Y0123325D01*
X0170098Y0123723D01*
X0169067Y0123859D01*
X0168035Y0123723D01*
X0167073Y0123325D01*
X0166247Y0122691D01*
X0165614Y0121865D01*
X0165216Y0120904D01*
X0165080Y0119872D01*
X0165110Y0119641D01*
X0164407Y0119413D01*
X0164399Y0119410D01*
X0164019Y0119312D01*
X0164004Y0119320D01*
X0163927Y0119288D01*
X0163453Y0119147D01*
X0161143Y0118593D01*
X0160775Y0118559D01*
X0160466Y0118472D01*
X0160466Y0118472D01*
X0160355Y0118446D01*
X0160210Y0118412D01*
X0159797Y0118347D01*
X0158346Y0118117D01*
X0157852Y0118039D01*
X0157502Y0118063D01*
X0157215Y0117989D01*
X0157215D01*
X0157104Y0117968D01*
X0156928Y0117935D01*
X0156247Y0117881D01*
X0155913Y0118686D01*
X0155280Y0119512D01*
X0154454Y0120146D01*
X0153492Y0120544D01*
X0152461Y0120680D01*
X0151429Y0120544D01*
X0150467Y0120146D01*
X0149642Y0119512D01*
X0149008Y0118686D01*
X0148676Y0117885D01*
X0148049Y0117935D01*
X0147761Y0117989D01*
X0147475Y0118063D01*
X0147475Y0118063D01*
X0146989Y0118060D01*
X0145179Y0118347D01*
X0144767Y0118412D01*
X0144510Y0118472D01*
X0144202Y0118559D01*
X0144202Y0118559D01*
X0143711Y0118622D01*
X0141524Y0119147D01*
X0141436Y0119173D01*
X0140972Y0119320D01*
D01*
X0140488Y0119439D01*
X0139828Y0119654D01*
X0139854Y0119854D01*
X0139718Y0120886D01*
X0139320Y0121848D01*
X0138687Y0122673D01*
X0137861Y0123307D01*
X0136899Y0123705D01*
X0135867Y0123841D01*
X0134836Y0123705D01*
X0133874Y0123307D01*
X0133048Y0122673D01*
X0132924Y0122512D01*
X0132212Y0122875D01*
X0132188Y0122888D01*
X0131871Y0123075D01*
X0131867Y0123092D01*
X0131789Y0123124D01*
X0131380Y0123344D01*
X0129435Y0124535D01*
X0129044Y0124837D01*
X0128965Y0124870D01*
X0128541Y0125133D01*
X0126661Y0126499D01*
X0126376Y0126802D01*
X0126162Y0126929D01*
X0126119Y0126955D01*
X0125883Y0127116D01*
X0125347Y0127574D01*
X0125630Y0128260D01*
X0125766Y0129291D01*
X0125630Y0130323D01*
X0125232Y0131285D01*
X0124599Y0132111D01*
X0123773Y0132744D01*
X0122811Y0133142D01*
X0121780Y0133278D01*
X0120748Y0133142D01*
X0120062Y0132859D01*
X0119552Y0133456D01*
X0119500Y0133536D01*
X0119417Y0133675D01*
X0119290Y0133888D01*
X0119290Y0133888D01*
X0118946Y0134230D01*
X0117621Y0136053D01*
X0117358Y0136477D01*
X0117325Y0136556D01*
X0117023Y0136947D01*
X0115832Y0138892D01*
X0115803Y0138946D01*
X0115580Y0139378D01*
X0115580Y0139378D01*
X0115322Y0139805D01*
X0114263Y0141883D01*
X0114137Y0142173D01*
X0114065Y0142340D01*
X0114064Y0142340D01*
X0113851Y0142785D01*
X0112993Y0144858D01*
X0112829Y0145322D01*
X0112829Y0145322D01*
X0112809Y0145373D01*
X0112755Y0145512D01*
X0112622Y0145863D01*
X0111901Y0148081D01*
X0111899Y0148089D01*
X0111800Y0148469D01*
X0111809Y0148484D01*
X0111776Y0148561D01*
X0111635Y0149036D01*
X0111081Y0151345D01*
X0111047Y0151714D01*
X0110960Y0152022D01*
X0110960Y0152022D01*
X0110934Y0152133D01*
X0110900Y0152278D01*
X0110835Y0152691D01*
X0110605Y0154142D01*
X0110527Y0154636D01*
X0110551Y0154987D01*
X0110477Y0155273D01*
Y0155273D01*
X0110456Y0155385D01*
X0110423Y0155561D01*
X0110377Y0156150D01*
X0111174Y0156480D01*
X0112000Y0157114D01*
X0112634Y0157940D01*
X0113032Y0158901D01*
X0113168Y0159933D01*
X0113032Y0160965D01*
X0112634Y0161926D01*
X0112000Y0162752D01*
X0111174Y0163386D01*
X0110366Y0163721D01*
X0110423Y0164439D01*
X0110477Y0164727D01*
X0110551Y0165014D01*
X0110551Y0165014D01*
X0110548Y0165499D01*
X0110835Y0167309D01*
X0110900Y0167721D01*
X0110960Y0167978D01*
X0111047Y0168286D01*
X0111047Y0168286D01*
X0111110Y0168777D01*
X0111635Y0170964D01*
X0111661Y0171052D01*
X0111809Y0171516D01*
D01*
X0111928Y0172001D01*
X0112100Y0172530D01*
X0112685Y0172453D01*
X0113717Y0172589D01*
X0114678Y0172987D01*
X0115504Y0173621D01*
X0116138Y0174446D01*
X0116536Y0175408D01*
X0116672Y0176440D01*
X0116536Y0177472D01*
X0116138Y0178433D01*
X0115504Y0179259D01*
X0115030Y0179622D01*
X0115363Y0180276D01*
X0115376Y0180300D01*
X0115563Y0180617D01*
X0115580Y0180622D01*
X0115612Y0180699D01*
X0115832Y0181108D01*
X0117023Y0183053D01*
X0117325Y0183444D01*
X0117358Y0183523D01*
X0117621Y0183947D01*
X0118987Y0185827D01*
X0119290Y0186112D01*
X0119417Y0186326D01*
X0119443Y0186369D01*
X0119605Y0186605D01*
X0119965Y0187027D01*
X0120180Y0186862D01*
X0121141Y0186464D01*
X0122173Y0186328D01*
X0123205Y0186464D01*
X0124167Y0186862D01*
X0124992Y0187496D01*
X0125626Y0188321D01*
X0126024Y0189283D01*
X0126160Y0190315D01*
X0126024Y0191347D01*
X0125626Y0192308D01*
X0125461Y0192523D01*
X0125944Y0192936D01*
X0125964Y0192953D01*
X0125969Y0192956D01*
X0126376Y0193198D01*
X0126376D01*
X0126377Y0193202D01*
X0126713Y0193539D01*
X0128541Y0194867D01*
X0128965Y0195130D01*
X0129044Y0195163D01*
X0129435Y0195465D01*
X0131380Y0196657D01*
X0131434Y0196686D01*
X0131866Y0196908D01*
X0131867Y0196908D01*
X0132293Y0197166D01*
X0133926Y0197998D01*
X0134372Y0198225D01*
X0134661Y0198351D01*
X0134828Y0198424D01*
X0134828Y0198424D01*
X0135274Y0198637D01*
X0137346Y0199495D01*
X0137810Y0199659D01*
X0137810Y0199659D01*
X0137862Y0199679D01*
X0138000Y0199734D01*
X0138351Y0199866D01*
X0140569Y0200587D01*
X0140577Y0200590D01*
X0140957Y0200688D01*
X0140972Y0200680D01*
X0141049Y0200712D01*
X0141524Y0200853D01*
X0143833Y0201407D01*
X0144202Y0201441D01*
X0144510Y0201528D01*
X0144510Y0201528D01*
X0144621Y0201554D01*
X0144767Y0201588D01*
X0145179Y0201653D01*
X0147391Y0202004D01*
X0147475Y0201937D01*
X0147563Y0201974D01*
X0148055Y0202066D01*
X0148703Y0202117D01*
X0149036Y0201314D01*
D02*
G37*
%LPC*%
G36*
X0139052Y0193550D02*
X0138598Y0193437D01*
X0138039Y0193437D01*
X0137959Y0193421D01*
X0137879Y0193427D01*
X0135869Y0193163D01*
X0135793Y0193137D01*
X0135713Y0193132D01*
X0133754Y0192608D01*
X0133682Y0192573D01*
X0133603Y0192557D01*
X0131730Y0191782D01*
X0131663Y0191737D01*
X0131587Y0191711D01*
X0129831Y0190698D01*
X0129771Y0190645D01*
X0129698Y0190609D01*
X0128090Y0189376D01*
X0128037Y0189315D01*
X0127970Y0189270D01*
X0126537Y0187837D01*
X0126492Y0187770D01*
X0126431Y0187717D01*
X0125198Y0186109D01*
X0125162Y0186036D01*
X0125109Y0185976D01*
X0124096Y0184220D01*
X0124070Y0184144D01*
X0124025Y0184077D01*
X0123250Y0182204D01*
X0123234Y0182125D01*
X0123198Y0182053D01*
X0122675Y0180094D01*
X0122669Y0180014D01*
X0122644Y0179938D01*
X0122380Y0177928D01*
X0122385Y0177847D01*
X0122370Y0177768D01*
X0122370Y0177209D01*
X0122257Y0176755D01*
X0122257D01*
X0122361Y0176298D01*
X0122370Y0176255D01*
Y0154209D01*
X0122257Y0153709D01*
X0122257Y0153709D01*
X0122262Y0153698D01*
X0122370Y0153590D01*
X0122370Y0152744D01*
X0122374Y0152725D01*
Y0152724D01*
X0122394Y0152626D01*
Y0152525D01*
X0122394Y0152525D01*
Y0152506D01*
X0122771Y0150611D01*
X0122778Y0150594D01*
X0122778Y0150593D01*
X0122816Y0150501D01*
X0122836Y0150402D01*
X0122836Y0150401D01*
X0122840Y0150383D01*
X0123579Y0148599D01*
X0123590Y0148583D01*
X0123590Y0148582D01*
X0123646Y0148499D01*
X0123684Y0148406D01*
X0123684Y0148405D01*
X0123692Y0148388D01*
X0124765Y0146782D01*
X0124778Y0146768D01*
X0124778Y0146768D01*
X0124849Y0146697D01*
X0124905Y0146614D01*
X0124906Y0146613D01*
X0124916Y0146597D01*
X0125270Y0146243D01*
X0125515Y0145844D01*
X0125519Y0145834D01*
X0125523Y0145839D01*
X0125914Y0145600D01*
X0146652Y0124861D01*
X0146806Y0124629D01*
X0146933Y0124420D01*
X0146943Y0124416D01*
X0147373Y0124140D01*
X0147483Y0124030D01*
X0147499Y0124019D01*
X0147500Y0124019D01*
X0147583Y0123963D01*
X0147654Y0123892D01*
X0147655Y0123892D01*
X0147668Y0123878D01*
X0148774Y0123140D01*
X0148791Y0123132D01*
X0148792Y0123132D01*
X0148884Y0123093D01*
X0148968Y0123038D01*
X0148968Y0123038D01*
X0148984Y0123027D01*
X0150213Y0122518D01*
X0150231Y0122514D01*
X0150232Y0122514D01*
X0150330Y0122495D01*
X0150423Y0122456D01*
X0150424Y0122456D01*
X0150442Y0122449D01*
X0151745Y0122189D01*
X0151764D01*
X0151765Y0122189D01*
X0151865Y0122189D01*
X0151964Y0122170D01*
X0151964D01*
X0151983Y0122166D01*
X0152535Y0122166D01*
X0152648Y0122053D01*
X0152648Y0122053D01*
X0152761Y0122166D01*
X0154425Y0122166D01*
X0154484Y0122178D01*
X0154545Y0122172D01*
X0158082Y0122520D01*
X0158140Y0122538D01*
X0158201D01*
X0161687Y0123231D01*
X0161743Y0123254D01*
X0161803Y0123260D01*
X0165205Y0124292D01*
X0165258Y0124321D01*
X0165318Y0124332D01*
X0168602Y0125693D01*
X0168652Y0125726D01*
X0168710Y0125744D01*
X0171845Y0127420D01*
X0171892Y0127458D01*
X0171948Y0127481D01*
X0174904Y0129456D01*
X0174946Y0129499D01*
X0175000Y0129527D01*
X0177748Y0131782D01*
X0177786Y0131829D01*
X0177836Y0131863D01*
X0180350Y0134376D01*
X0180384Y0134427D01*
X0180430Y0134465D01*
X0182685Y0137213D01*
X0182714Y0137266D01*
X0182757Y0137309D01*
X0184732Y0140265D01*
X0184755Y0140321D01*
X0184793Y0140368D01*
X0186469Y0143502D01*
X0186486Y0143560D01*
X0186520Y0143611D01*
X0187880Y0146895D01*
X0187892Y0146954D01*
X0187921Y0147008D01*
X0188953Y0150409D01*
X0188959Y0150470D01*
X0188982Y0150525D01*
X0189675Y0154012D01*
Y0154072D01*
X0189693Y0154130D01*
X0190041Y0157668D01*
X0190035Y0157728D01*
X0190047Y0157788D01*
X0190047Y0159556D01*
X0190036Y0159610D01*
X0190042Y0159664D01*
X0189534Y0165417D01*
X0189551Y0165601D01*
X0189579Y0165904D01*
X0189596Y0165946D01*
X0189556Y0166043D01*
X0189505Y0166425D01*
X0189489Y0166557D01*
X0189440Y0167299D01*
X0189424Y0167360D01*
X0189426Y0167424D01*
X0189283Y0168257D01*
X0189261Y0168316D01*
X0189256Y0168379D01*
X0189069Y0169050D01*
X0188941Y0169516D01*
X0188930Y0169551D01*
X0188799Y0169959D01*
X0188652Y0170474D01*
X0188622Y0170531D01*
X0188611Y0170593D01*
X0188395Y0171131D01*
X0188360Y0171185D01*
X0188342Y0171246D01*
X0188072Y0171758D01*
X0188032Y0171808D01*
X0188008Y0171867D01*
X0187979Y0171910D01*
X0187964Y0172023D01*
X0187944Y0172081D01*
X0187942Y0172141D01*
X0187782Y0172825D01*
X0187757Y0172880D01*
X0187749Y0172940D01*
X0187522Y0173604D01*
X0187492Y0173657D01*
X0187478Y0173716D01*
X0187187Y0174355D01*
X0187152Y0174404D01*
X0187132Y0174461D01*
X0187091Y0174532D01*
X0186993Y0174770D01*
X0186972Y0174847D01*
X0186946Y0174901D01*
X0186936Y0174961D01*
X0186696Y0175609D01*
X0186664Y0175661D01*
X0186648Y0175719D01*
X0186345Y0176340D01*
X0186309Y0176388D01*
X0186287Y0176445D01*
X0185925Y0177033D01*
X0185883Y0177078D01*
X0185857Y0177132D01*
X0185656Y0177397D01*
X0185593Y0177452D01*
X0185547Y0177521D01*
X0175909Y0187159D01*
X0175602Y0187552D01*
X0175550Y0187678D01*
X0175176Y0187981D01*
X0175101Y0188075D01*
X0175055Y0188114D01*
X0175022Y0188165D01*
X0174020Y0189202D01*
X0173970Y0189237D01*
X0173933Y0189284D01*
X0172834Y0190218D01*
X0172781Y0190248D01*
X0172739Y0190291D01*
X0171554Y0191113D01*
X0171498Y0191137D01*
X0171452Y0191176D01*
X0170192Y0191878D01*
X0170134Y0191897D01*
X0170084Y0191931D01*
X0168762Y0192506D01*
X0168702Y0192519D01*
X0168649Y0192548D01*
X0167277Y0192991D01*
X0167217Y0192998D01*
X0167161Y0193022D01*
X0165752Y0193327D01*
X0165691Y0193328D01*
X0165633Y0193347D01*
X0164928Y0193428D01*
X0164858Y0193423D01*
X0164788Y0193437D01*
X0139552Y0193437D01*
X0139056Y0193549D01*
X0139052Y0193550D01*
D02*
G37*
%LPD*%
D12*
X0198315Y0152520D02*
D03*
X0197252Y0148150D02*
D03*
X0136728Y0203413D02*
D03*
X0132902Y0201760D02*
D03*
X0129051Y0199752D02*
D03*
X0128736Y0120236D02*
D03*
X0125087Y0122598D02*
D03*
D13*
X0122173Y0190315D02*
D03*
X0112685Y0176440D02*
D03*
X0109181Y0159933D02*
D03*
X0112554Y0143386D02*
D03*
X0121780Y0129291D02*
D03*
X0135867Y0119854D02*
D03*
X0152461Y0116693D02*
D03*
X0169067Y0119872D02*
D03*
X0183197Y0129291D02*
D03*
X0192340Y0143416D02*
D03*
X0195768Y0159933D02*
D03*
X0192328Y0176351D02*
D03*
X0182803Y0190315D02*
D03*
X0169021Y0199928D02*
D03*
X0152488Y0203307D02*
D03*
M02*
