G04*
G04 #@! TF.GenerationSoftware,Altium Limited,Altium Designer,19.1.6 (110)*
G04*
G04 Layer_Color=16711935*
%FSAX25Y25*%
%MOIN*%
G70*
G01*
G75*
%ADD27C,0.00787*%
%ADD28C,0.00600*%
%ADD30C,0.01000*%
%ADD33C,0.00591*%
%ADD77C,0.00394*%
%ADD142C,0.00472*%
D27*
X0301446Y0340393D02*
G03*
X0301446Y0340393I0000326J0000000D01*
G01*
Y0247480D02*
G03*
X0301446Y0247480I0000326J0000000D01*
G01*
Y0154567D02*
G03*
X0301446Y0154567I0000326J0000000D01*
G01*
D28*
X0460433Y0354921D02*
Y0353609D01*
Y0354265D01*
X0464369D01*
X0463713Y0354921D01*
X0464369Y0351641D02*
Y0349017D01*
X0463713D01*
X0461089Y0351641D01*
X0460433D01*
X0459777Y0347049D02*
X0460433Y0346393D01*
X0461089D01*
Y0347049D01*
X0460433D01*
Y0346393D01*
X0459777Y0347049D01*
X0459121Y0347705D01*
X0463713Y0343770D02*
X0464369Y0343113D01*
Y0341802D01*
X0463713Y0341146D01*
X0461089D01*
X0460433Y0341802D01*
Y0343113D01*
X0461089Y0343770D01*
X0463713D01*
Y0339834D02*
X0464369Y0339178D01*
Y0337866D01*
X0463713Y0337210D01*
X0461089D01*
X0460433Y0337866D01*
Y0339178D01*
X0461089Y0339834D01*
X0463713D01*
X0389528Y0297204D02*
Y0293268D01*
X0391496Y0295236D01*
X0388872D01*
X0386904Y0297860D02*
X0386248Y0297204D01*
Y0296548D01*
X0386904D01*
Y0297204D01*
X0386248D01*
X0386904Y0297860D01*
X0387560Y0298516D01*
X0383625Y0293924D02*
X0382968Y0293268D01*
X0381657D01*
X0381001Y0293924D01*
Y0296548D01*
X0381657Y0297204D01*
X0382968D01*
X0383625Y0296548D01*
Y0293924D01*
X0379689D02*
X0379033Y0293268D01*
X0377721D01*
X0377065Y0293924D01*
Y0296548D01*
X0377721Y0297204D01*
X0379033D01*
X0379689Y0296548D01*
Y0293924D01*
X0452086Y0335014D02*
Y0337637D01*
X0454710Y0335014D01*
X0455366D01*
X0456022Y0335669D01*
Y0336981D01*
X0455366Y0337637D01*
X0451431Y0333046D02*
X0452086Y0332390D01*
X0452742D01*
Y0333046D01*
X0452086D01*
Y0332390D01*
X0451431Y0333046D01*
X0450775Y0333701D01*
X0455366Y0329766D02*
X0456022Y0329110D01*
Y0327798D01*
X0455366Y0327142D01*
X0454710D01*
X0454054Y0327798D01*
Y0328454D01*
Y0327798D01*
X0453398Y0327142D01*
X0452742D01*
X0452086Y0327798D01*
Y0329110D01*
X0452742Y0329766D01*
X0455366Y0325830D02*
X0456022Y0325174D01*
Y0323862D01*
X0455366Y0323206D01*
X0452742D01*
X0452086Y0323862D01*
Y0325174D01*
X0452742Y0325830D01*
X0455366D01*
X0328675Y0301771D02*
X0331299D01*
X0328675Y0299147D01*
Y0298491D01*
X0329331Y0297835D01*
X0330643D01*
X0331299Y0298491D01*
X0327363D02*
X0326707Y0297835D01*
X0325395D01*
X0324740Y0298491D01*
Y0299147D01*
X0325395Y0299803D01*
X0324740Y0300459D01*
Y0301115D01*
X0325395Y0301771D01*
X0326707D01*
X0327363Y0301115D01*
Y0300459D01*
X0326707Y0299803D01*
X0327363Y0299147D01*
Y0298491D01*
X0326707Y0299803D02*
X0325395D01*
X0322772Y0302427D02*
X0322116Y0301771D01*
Y0301115D01*
X0322772D01*
Y0301771D01*
X0322116D01*
X0322772Y0302427D01*
X0323428Y0303083D01*
X0319492Y0298491D02*
X0318836Y0297835D01*
X0317524D01*
X0316868Y0298491D01*
Y0301115D01*
X0317524Y0301771D01*
X0318836D01*
X0319492Y0301115D01*
Y0298491D01*
X0315556D02*
X0314900Y0297835D01*
X0313588D01*
X0312932Y0298491D01*
Y0301115D01*
X0313588Y0301771D01*
X0314900D01*
X0315556Y0301115D01*
Y0298491D01*
X0460433Y0262007D02*
Y0260695D01*
Y0261351D01*
X0464369D01*
X0463713Y0262007D01*
X0464369Y0258728D02*
Y0256104D01*
X0463713D01*
X0461089Y0258728D01*
X0460433D01*
X0459777Y0254136D02*
X0460433Y0253480D01*
X0461089D01*
Y0254136D01*
X0460433D01*
Y0253480D01*
X0459777Y0254136D01*
X0459121Y0254792D01*
X0463713Y0250856D02*
X0464369Y0250200D01*
Y0248888D01*
X0463713Y0248232D01*
X0461089D01*
X0460433Y0248888D01*
Y0250200D01*
X0461089Y0250856D01*
X0463713D01*
Y0246920D02*
X0464369Y0246264D01*
Y0244953D01*
X0463713Y0244297D01*
X0461089D01*
X0460433Y0244953D01*
Y0246264D01*
X0461089Y0246920D01*
X0463713D01*
X0389528Y0204291D02*
Y0200355D01*
X0391496Y0202323D01*
X0388872D01*
X0386904Y0204947D02*
X0386248Y0204291D01*
Y0203635D01*
X0386904D01*
Y0204291D01*
X0386248D01*
X0386904Y0204947D01*
X0387560Y0205603D01*
X0383625Y0201011D02*
X0382968Y0200355D01*
X0381657D01*
X0381001Y0201011D01*
Y0203635D01*
X0381657Y0204291D01*
X0382968D01*
X0383625Y0203635D01*
Y0201011D01*
X0379689D02*
X0379033Y0200355D01*
X0377721D01*
X0377065Y0201011D01*
Y0203635D01*
X0377721Y0204291D01*
X0379033D01*
X0379689Y0203635D01*
Y0201011D01*
X0452086Y0242100D02*
Y0244724D01*
X0454710Y0242100D01*
X0455366D01*
X0456022Y0242756D01*
Y0244068D01*
X0455366Y0244724D01*
X0451431Y0240132D02*
X0452086Y0239476D01*
X0452742D01*
Y0240132D01*
X0452086D01*
Y0239476D01*
X0451431Y0240132D01*
X0450775Y0240788D01*
X0455366Y0236852D02*
X0456022Y0236196D01*
Y0234885D01*
X0455366Y0234229D01*
X0454710D01*
X0454054Y0234885D01*
Y0235541D01*
Y0234885D01*
X0453398Y0234229D01*
X0452742D01*
X0452086Y0234885D01*
Y0236196D01*
X0452742Y0236852D01*
X0455366Y0232917D02*
X0456022Y0232261D01*
Y0230949D01*
X0455366Y0230293D01*
X0452742D01*
X0452086Y0230949D01*
Y0232261D01*
X0452742Y0232917D01*
X0455366D01*
X0328675Y0208858D02*
X0331299D01*
X0328675Y0206234D01*
Y0205578D01*
X0329331Y0204922D01*
X0330643D01*
X0331299Y0205578D01*
X0327363D02*
X0326707Y0204922D01*
X0325395D01*
X0324740Y0205578D01*
Y0206234D01*
X0325395Y0206890D01*
X0324740Y0207546D01*
Y0208202D01*
X0325395Y0208858D01*
X0326707D01*
X0327363Y0208202D01*
Y0207546D01*
X0326707Y0206890D01*
X0327363Y0206234D01*
Y0205578D01*
X0326707Y0206890D02*
X0325395D01*
X0322772Y0209514D02*
X0322116Y0208858D01*
Y0208202D01*
X0322772D01*
Y0208858D01*
X0322116D01*
X0322772Y0209514D01*
X0323428Y0210170D01*
X0319492Y0205578D02*
X0318836Y0204922D01*
X0317524D01*
X0316868Y0205578D01*
Y0208202D01*
X0317524Y0208858D01*
X0318836D01*
X0319492Y0208202D01*
Y0205578D01*
X0315556D02*
X0314900Y0204922D01*
X0313588D01*
X0312932Y0205578D01*
Y0208202D01*
X0313588Y0208858D01*
X0314900D01*
X0315556Y0208202D01*
Y0205578D01*
X0460433Y0169094D02*
Y0167782D01*
Y0168438D01*
X0464369D01*
X0463713Y0169094D01*
X0464369Y0165814D02*
Y0163190D01*
X0463713D01*
X0461089Y0165814D01*
X0460433D01*
X0459777Y0161222D02*
X0460433Y0160566D01*
X0461089D01*
Y0161222D01*
X0460433D01*
Y0160566D01*
X0459777Y0161222D01*
X0459121Y0161878D01*
X0463713Y0157943D02*
X0464369Y0157287D01*
Y0155975D01*
X0463713Y0155319D01*
X0461089D01*
X0460433Y0155975D01*
Y0157287D01*
X0461089Y0157943D01*
X0463713D01*
Y0154007D02*
X0464369Y0153351D01*
Y0152039D01*
X0463713Y0151383D01*
X0461089D01*
X0460433Y0152039D01*
Y0153351D01*
X0461089Y0154007D01*
X0463713D01*
X0389528Y0111377D02*
Y0107442D01*
X0391496Y0109409D01*
X0388872D01*
X0386904Y0112033D02*
X0386248Y0111377D01*
Y0110721D01*
X0386904D01*
Y0111377D01*
X0386248D01*
X0386904Y0112033D01*
X0387560Y0112689D01*
X0383625Y0108098D02*
X0382968Y0107442D01*
X0381657D01*
X0381001Y0108098D01*
Y0110721D01*
X0381657Y0111377D01*
X0382968D01*
X0383625Y0110721D01*
Y0108098D01*
X0379689D02*
X0379033Y0107442D01*
X0377721D01*
X0377065Y0108098D01*
Y0110721D01*
X0377721Y0111377D01*
X0379033D01*
X0379689Y0110721D01*
Y0108098D01*
X0452086Y0149187D02*
Y0151811D01*
X0454710Y0149187D01*
X0455366D01*
X0456022Y0149843D01*
Y0151154D01*
X0455366Y0151811D01*
X0451431Y0147219D02*
X0452086Y0146563D01*
X0452742D01*
Y0147219D01*
X0452086D01*
Y0146563D01*
X0451431Y0147219D01*
X0450775Y0147875D01*
X0455366Y0143939D02*
X0456022Y0143283D01*
Y0141971D01*
X0455366Y0141315D01*
X0454710D01*
X0454054Y0141971D01*
Y0142627D01*
Y0141971D01*
X0453398Y0141315D01*
X0452742D01*
X0452086Y0141971D01*
Y0143283D01*
X0452742Y0143939D01*
X0455366Y0140003D02*
X0456022Y0139347D01*
Y0138035D01*
X0455366Y0137379D01*
X0452742D01*
X0452086Y0138035D01*
Y0139347D01*
X0452742Y0140003D01*
X0455366D01*
X0328675Y0115944D02*
X0331299D01*
X0328675Y0113321D01*
Y0112664D01*
X0329331Y0112009D01*
X0330643D01*
X0331299Y0112664D01*
X0327363D02*
X0326707Y0112009D01*
X0325395D01*
X0324740Y0112664D01*
Y0113321D01*
X0325395Y0113976D01*
X0324740Y0114632D01*
Y0115288D01*
X0325395Y0115944D01*
X0326707D01*
X0327363Y0115288D01*
Y0114632D01*
X0326707Y0113976D01*
X0327363Y0113321D01*
Y0112664D01*
X0326707Y0113976D02*
X0325395D01*
X0322772Y0116600D02*
X0322116Y0115944D01*
Y0115288D01*
X0322772D01*
Y0115944D01*
X0322116D01*
X0322772Y0116600D01*
X0323428Y0117256D01*
X0319492Y0112664D02*
X0318836Y0112009D01*
X0317524D01*
X0316868Y0112664D01*
Y0115288D01*
X0317524Y0115944D01*
X0318836D01*
X0319492Y0115288D01*
Y0112664D01*
X0315556D02*
X0314900Y0112009D01*
X0313588D01*
X0312932Y0112664D01*
Y0115288D01*
X0313588Y0115944D01*
X0314900D01*
X0315556Y0115288D01*
Y0112664D01*
X0182695Y0210559D02*
X0178696D01*
X0182695Y0214558D01*
Y0215557D01*
X0181695Y0216557D01*
X0179695D01*
X0178696Y0215557D01*
X0184694D02*
X0185694Y0216557D01*
X0187693D01*
X0188693Y0215557D01*
Y0214558D01*
X0187693Y0213558D01*
X0188693Y0212558D01*
Y0211559D01*
X0187693Y0210559D01*
X0185694D01*
X0184694Y0211559D01*
Y0212558D01*
X0185694Y0213558D01*
X0184694Y0214558D01*
Y0215557D01*
X0185694Y0213558D02*
X0187693D01*
X0191692Y0209559D02*
X0192691Y0210559D01*
Y0211559D01*
X0191692D01*
Y0210559D01*
X0192691D01*
X0191692Y0209559D01*
X0190692Y0208559D01*
X0196690Y0215557D02*
X0197690Y0216557D01*
X0199689D01*
X0200689Y0215557D01*
Y0211559D01*
X0199689Y0210559D01*
X0197690D01*
X0196690Y0211559D01*
Y0215557D01*
X0202688D02*
X0203688Y0216557D01*
X0205687D01*
X0206687Y0215557D01*
Y0211559D01*
X0205687Y0210559D01*
X0203688D01*
X0202688Y0211559D01*
Y0215557D01*
X0266607Y0151592D02*
Y0147593D01*
X0262608Y0151592D01*
X0261608D01*
X0260609Y0150593D01*
Y0148593D01*
X0261608Y0147593D01*
Y0153592D02*
X0260609Y0154591D01*
Y0156591D01*
X0261608Y0157590D01*
X0265607D01*
X0266607Y0156591D01*
Y0154591D01*
X0265607Y0153592D01*
X0261608D01*
X0267606Y0160589D02*
X0266607Y0161589D01*
X0265607D01*
Y0160589D01*
X0266607D01*
Y0161589D01*
X0267606Y0160589D01*
X0268606Y0159590D01*
X0261608Y0165588D02*
X0260609Y0166587D01*
Y0168587D01*
X0261608Y0169586D01*
X0265607D01*
X0266607Y0168587D01*
Y0166587D01*
X0265607Y0165588D01*
X0261608D01*
Y0171586D02*
X0260609Y0172585D01*
Y0174585D01*
X0261608Y0175584D01*
X0265607D01*
X0266607Y0174585D01*
Y0172585D01*
X0265607Y0171586D01*
X0261608D01*
X0182695Y0303472D02*
X0178696D01*
X0182695Y0307471D01*
Y0308471D01*
X0181695Y0309470D01*
X0179695D01*
X0178696Y0308471D01*
X0184694D02*
X0185694Y0309470D01*
X0187693D01*
X0188693Y0308471D01*
Y0307471D01*
X0187693Y0306471D01*
X0188693Y0305472D01*
Y0304472D01*
X0187693Y0303472D01*
X0185694D01*
X0184694Y0304472D01*
Y0305472D01*
X0185694Y0306471D01*
X0184694Y0307471D01*
Y0308471D01*
X0185694Y0306471D02*
X0187693D01*
X0191692Y0302473D02*
X0192691Y0303472D01*
Y0304472D01*
X0191692D01*
Y0303472D01*
X0192691D01*
X0191692Y0302473D01*
X0190692Y0301473D01*
X0196690Y0308471D02*
X0197690Y0309470D01*
X0199689D01*
X0200689Y0308471D01*
Y0304472D01*
X0199689Y0303472D01*
X0197690D01*
X0196690Y0304472D01*
Y0308471D01*
X0202688D02*
X0203688Y0309470D01*
X0205687D01*
X0206687Y0308471D01*
Y0304472D01*
X0205687Y0303472D01*
X0203688D01*
X0202688Y0304472D01*
Y0308471D01*
X0266607Y0244506D02*
Y0240507D01*
X0262608Y0244506D01*
X0261608D01*
X0260609Y0243506D01*
Y0241507D01*
X0261608Y0240507D01*
Y0246505D02*
X0260609Y0247505D01*
Y0249504D01*
X0261608Y0250504D01*
X0265607D01*
X0266607Y0249504D01*
Y0247505D01*
X0265607Y0246505D01*
X0261608D01*
X0267606Y0253503D02*
X0266607Y0254502D01*
X0265607D01*
Y0253503D01*
X0266607D01*
Y0254502D01*
X0267606Y0253503D01*
X0268606Y0252503D01*
X0261608Y0258501D02*
X0260609Y0259501D01*
Y0261500D01*
X0261608Y0262500D01*
X0265607D01*
X0266607Y0261500D01*
Y0259501D01*
X0265607Y0258501D01*
X0261608D01*
Y0264499D02*
X0260609Y0265499D01*
Y0267498D01*
X0261608Y0268498D01*
X0265607D01*
X0266607Y0267498D01*
Y0265499D01*
X0265607Y0264499D01*
X0261608D01*
X0182695Y0396386D02*
X0178696D01*
X0182695Y0400384D01*
Y0401384D01*
X0181695Y0402384D01*
X0179695D01*
X0178696Y0401384D01*
X0184694D02*
X0185694Y0402384D01*
X0187693D01*
X0188693Y0401384D01*
Y0400384D01*
X0187693Y0399385D01*
X0188693Y0398385D01*
Y0397385D01*
X0187693Y0396386D01*
X0185694D01*
X0184694Y0397385D01*
Y0398385D01*
X0185694Y0399385D01*
X0184694Y0400384D01*
Y0401384D01*
X0185694Y0399385D02*
X0187693D01*
X0191692Y0395386D02*
X0192691Y0396386D01*
Y0397385D01*
X0191692D01*
Y0396386D01*
X0192691D01*
X0191692Y0395386D01*
X0190692Y0394386D01*
X0196690Y0401384D02*
X0197690Y0402384D01*
X0199689D01*
X0200689Y0401384D01*
Y0397385D01*
X0199689Y0396386D01*
X0197690D01*
X0196690Y0397385D01*
Y0401384D01*
X0202688D02*
X0203688Y0402384D01*
X0205687D01*
X0206687Y0401384D01*
Y0397385D01*
X0205687Y0396386D01*
X0203688D01*
X0202688Y0397385D01*
Y0401384D01*
X0266607Y0337419D02*
Y0333420D01*
X0262608Y0337419D01*
X0261608D01*
X0260609Y0336419D01*
Y0334420D01*
X0261608Y0333420D01*
Y0339418D02*
X0260609Y0340418D01*
Y0342417D01*
X0261608Y0343417D01*
X0265607D01*
X0266607Y0342417D01*
Y0340418D01*
X0265607Y0339418D01*
X0261608D01*
X0267606Y0346416D02*
X0266607Y0347416D01*
X0265607D01*
Y0346416D01*
X0266607D01*
Y0347416D01*
X0267606Y0346416D01*
X0268606Y0345416D01*
X0261608Y0351414D02*
X0260609Y0352414D01*
Y0354414D01*
X0261608Y0355413D01*
X0265607D01*
X0266607Y0354414D01*
Y0352414D01*
X0265607Y0351414D01*
X0261608D01*
Y0357413D02*
X0260609Y0358412D01*
Y0360412D01*
X0261608Y0361411D01*
X0265607D01*
X0266607Y0360412D01*
Y0358412D01*
X0265607Y0357413D01*
X0261608D01*
D30*
X0296000Y0363936D02*
G03*
X0296000Y0363936I0000142J0000000D01*
G01*
X0462433Y0376480D02*
X0460433Y0382480D01*
X0458433Y0376480D01*
X0460433Y0315551D02*
X0458433Y0321551D01*
X0462433D02*
X0460433Y0315551D01*
Y0382480D02*
Y0356521D01*
Y0335610D02*
Y0315551D01*
X0461433Y0382480D02*
X0376787D01*
X0461433Y0315551D02*
X0376787D01*
X0397535Y0301803D02*
X0391535Y0299803D01*
X0397535Y0297803D02*
X0391535Y0299803D01*
X0375787D02*
X0369787Y0297803D01*
X0375787Y0299803D02*
X0369787Y0301803D01*
X0401535Y0299803D02*
X0391535D01*
X0375787D02*
X0365787D01*
X0375787Y0314551D02*
Y0298803D01*
X0391535Y0325181D02*
Y0298803D01*
X0450622Y0320181D02*
X0448622Y0326181D01*
X0446622Y0320181D01*
X0448622Y0335236D02*
X0446622Y0341236D01*
X0450622D02*
X0448622Y0335236D01*
Y0326181D02*
Y0316181D01*
Y0345236D02*
Y0335236D01*
X0449622D02*
X0392535D01*
X0449622Y0326181D02*
X0392535D01*
X0271551Y0301803D02*
X0265551Y0299803D01*
X0271551Y0297803D02*
X0265551Y0299803D01*
X0375787D02*
X0369787Y0297803D01*
X0375787Y0299803D02*
X0369787Y0301803D01*
X0311332Y0299803D02*
X0265551D01*
X0375787D02*
X0332899D01*
X0265551Y0314551D02*
Y0298803D01*
X0375787Y0314551D02*
Y0298803D01*
X0296000Y0271023D02*
G03*
X0296000Y0271023I0000142J0000000D01*
G01*
X0462433Y0283566D02*
X0460433Y0289566D01*
X0458433Y0283566D01*
X0460433Y0222637D02*
X0458433Y0228637D01*
X0462433D02*
X0460433Y0222637D01*
Y0289566D02*
Y0263607D01*
Y0242696D02*
Y0222637D01*
X0461433Y0289566D02*
X0376787D01*
X0461433Y0222637D02*
X0376787D01*
X0397535Y0208889D02*
X0391535Y0206889D01*
X0397535Y0204889D02*
X0391535Y0206889D01*
X0375787D02*
X0369787Y0204889D01*
X0375787Y0206889D02*
X0369787Y0208889D01*
X0401535Y0206889D02*
X0391535D01*
X0375787D02*
X0365787D01*
X0375787Y0221637D02*
Y0205889D01*
X0391535Y0232267D02*
Y0205889D01*
X0450622Y0227267D02*
X0448622Y0233267D01*
X0446622Y0227267D01*
X0448622Y0242322D02*
X0446622Y0248322D01*
X0450622D02*
X0448622Y0242322D01*
Y0233267D02*
Y0223267D01*
Y0252322D02*
Y0242322D01*
X0449622D02*
X0392535D01*
X0449622Y0233267D02*
X0392535D01*
X0271551Y0208889D02*
X0265551Y0206889D01*
X0271551Y0204889D02*
X0265551Y0206889D01*
X0375787D02*
X0369787Y0204889D01*
X0375787Y0206889D02*
X0369787Y0208889D01*
X0311332Y0206889D02*
X0265551D01*
X0375787D02*
X0332899D01*
X0265551Y0221637D02*
Y0205889D01*
X0375787Y0221637D02*
Y0205889D01*
X0296000Y0178110D02*
G03*
X0296000Y0178110I0000142J0000000D01*
G01*
X0462433Y0190653D02*
X0460433Y0196653D01*
X0458433Y0190653D01*
X0460433Y0129724D02*
X0458433Y0135724D01*
X0462433D02*
X0460433Y0129724D01*
Y0196653D02*
Y0170694D01*
Y0149783D02*
Y0129724D01*
X0461433Y0196653D02*
X0376787D01*
X0461433Y0129724D02*
X0376787D01*
X0397535Y0115976D02*
X0391535Y0113976D01*
X0397535Y0111976D02*
X0391535Y0113976D01*
X0375787D02*
X0369787Y0111976D01*
X0375787Y0113976D02*
X0369787Y0115976D01*
X0401535Y0113976D02*
X0391535D01*
X0375787D02*
X0365787D01*
X0375787Y0128724D02*
Y0112976D01*
X0391535Y0139354D02*
Y0112976D01*
X0450622Y0134354D02*
X0448622Y0140354D01*
X0446622Y0134354D01*
X0448622Y0149409D02*
X0446622Y0155409D01*
X0450622D02*
X0448622Y0149409D01*
Y0140354D02*
Y0130354D01*
Y0159409D02*
Y0149409D01*
X0449622D02*
X0392535D01*
X0449622Y0140354D02*
X0392535D01*
X0271551Y0115976D02*
X0265551Y0113976D01*
X0271551Y0111976D02*
X0265551Y0113976D01*
X0375787D02*
X0369787Y0111976D01*
X0375787Y0113976D02*
X0369787Y0115976D01*
X0311332Y0113976D02*
X0265551D01*
X0375787D02*
X0332899D01*
X0265551Y0128724D02*
Y0112976D01*
X0375787Y0128724D02*
Y0112976D01*
X0243409Y0213158D02*
X0249409Y0215158D01*
X0243409Y0217158D02*
X0249409Y0215158D01*
X0139173D02*
X0145173Y0217158D01*
X0139173Y0215158D02*
X0145173Y0213158D01*
X0208287Y0215158D02*
X0249409D01*
X0139173D02*
X0177096D01*
X0249409Y0203559D02*
Y0216158D01*
X0139173Y0203559D02*
Y0216158D01*
X0260008Y0129819D02*
X0262008Y0123819D01*
X0264008Y0129819D01*
X0262008Y0202559D02*
X0264008Y0196559D01*
X0260008D02*
X0262008Y0202559D01*
Y0123819D02*
Y0145993D01*
Y0177184D02*
Y0202559D01*
X0250409Y0123819D02*
X0263008D01*
X0250409Y0202559D02*
X0263008D01*
X0243409Y0306071D02*
X0249409Y0308071D01*
X0243409Y0310071D02*
X0249409Y0308071D01*
X0139173D02*
X0145173Y0310071D01*
X0139173Y0308071D02*
X0145173Y0306071D01*
X0208287Y0308071D02*
X0249409D01*
X0139173D02*
X0177096D01*
X0249409Y0296473D02*
Y0309071D01*
X0139173Y0296473D02*
Y0309071D01*
X0260008Y0222732D02*
X0262008Y0216732D01*
X0264008Y0222732D01*
X0262008Y0295473D02*
X0264008Y0289473D01*
X0260008D02*
X0262008Y0295473D01*
Y0216732D02*
Y0238907D01*
Y0270098D02*
Y0295473D01*
X0250409Y0216732D02*
X0263008D01*
X0250409Y0295473D02*
X0263008D01*
X0243409Y0398984D02*
X0249409Y0400984D01*
X0243409Y0402984D02*
X0249409Y0400984D01*
X0139173D02*
X0145173Y0402984D01*
X0139173Y0400984D02*
X0145173Y0398984D01*
X0208287Y0400984D02*
X0249409D01*
X0139173D02*
X0177096D01*
X0249409Y0389386D02*
Y0401984D01*
X0139173Y0389386D02*
Y0401984D01*
X0260008Y0315646D02*
X0262008Y0309646D01*
X0264008Y0315646D01*
X0262008Y0388386D02*
X0264008Y0382386D01*
X0260008D02*
X0262008Y0388386D01*
Y0309646D02*
Y0331820D01*
Y0363011D02*
Y0388386D01*
X0250409Y0309646D02*
X0263008D01*
X0250409Y0388386D02*
X0263008D01*
D33*
X0301417Y0341733D02*
Y0344357D01*
X0300892Y0344881D01*
X0299843D01*
X0299318Y0344357D01*
Y0341733D01*
X0296694Y0344881D02*
Y0341733D01*
X0298269Y0343307D01*
X0296170D01*
X0301417Y0248819D02*
Y0251443D01*
X0300892Y0251968D01*
X0299843D01*
X0299318Y0251443D01*
Y0248819D01*
X0296694Y0251968D02*
Y0248819D01*
X0298269Y0250394D01*
X0296170D01*
X0301417Y0155906D02*
Y0158530D01*
X0300892Y0159055D01*
X0299843D01*
X0299318Y0158530D01*
Y0155906D01*
X0296694Y0159055D02*
Y0155906D01*
X0298269Y0157480D01*
X0296170D01*
D77*
X0289449Y0364724D02*
Y0359212D01*
X0294961Y0364724D02*
X0289449D01*
X0294961D02*
Y0359212D01*
X0289449D01*
X0296339Y0358267D02*
Y0354330D01*
X0288858Y0358267D02*
Y0354330D01*
X0296339D02*
X0288858D01*
X0296339Y0358267D02*
X0288858D01*
X0309173Y0364212D02*
Y0360275D01*
X0301693Y0364212D02*
Y0360275D01*
X0309173D02*
X0301693D01*
X0309173Y0364212D02*
X0301693D01*
X0300709Y0356574D02*
X0296772D01*
X0300709Y0364055D02*
X0296772D01*
Y0356574D01*
X0300709Y0364055D02*
Y0356574D01*
X0296299Y0370787D02*
Y0366850D01*
X0288819Y0370787D02*
Y0366850D01*
X0296299D02*
X0288819D01*
X0296299Y0370787D02*
X0288819D01*
X0304409Y0370866D02*
Y0366929D01*
X0296929Y0370866D02*
Y0366929D01*
X0304409D02*
X0296929D01*
X0304409Y0370866D02*
X0296929D01*
X0302953Y0339409D02*
X0295079Y0339409D01*
X0302953Y0347283D02*
X0302953Y0339409D01*
X0302953Y0347283D02*
X0295079Y0347283D01*
X0295079Y0339409D01*
X0365118Y0357007D02*
Y0353070D01*
X0357638Y0357007D02*
Y0353070D01*
X0365118D02*
X0357638D01*
X0365118Y0357007D02*
X0357638D01*
X0358701Y0328622D02*
X0354764D01*
X0358701Y0321141D02*
X0354764D01*
X0358701Y0328622D02*
Y0321141D01*
X0354764Y0328622D02*
Y0321141D01*
X0344291Y0340157D02*
Y0336220D01*
X0351772Y0340157D02*
Y0336220D01*
Y0340157D02*
X0344291D01*
X0351772Y0336220D02*
X0344291D01*
X0353937Y0335629D02*
Y0331692D01*
X0361417Y0335629D02*
Y0331692D01*
Y0335629D02*
X0353937D01*
X0361417Y0331692D02*
X0353937D01*
X0362992Y0328622D02*
X0359055D01*
X0362992Y0321141D02*
X0359055D01*
X0362992Y0328622D02*
Y0321141D01*
X0359055Y0328622D02*
Y0321141D01*
X0291142Y0343110D02*
X0287205D01*
X0291142Y0350590D02*
X0287205D01*
Y0343110D01*
X0291142Y0350590D02*
Y0343110D01*
X0335236Y0336810D02*
X0331299D01*
X0335236Y0329330D02*
X0331299D01*
X0335236Y0336810D02*
Y0329330D01*
X0331299Y0336810D02*
Y0329330D01*
X0315236Y0336889D02*
Y0332952D01*
X0322716Y0336889D02*
Y0332952D01*
Y0336889D02*
X0315236D01*
X0322716Y0332952D02*
X0315236D01*
X0374606Y0317913D02*
X0368307D01*
X0374606Y0316732D02*
X0368307D01*
X0374606Y0329724D02*
Y0316732D01*
Y0329724D02*
X0368307D01*
Y0316732D01*
X0301201Y0339074D02*
Y0334940D01*
X0308878Y0339074D02*
Y0334940D01*
Y0339074D02*
X0301201D01*
X0308878Y0334940D02*
X0301201D01*
X0276022Y0343616D02*
Y0338116D01*
X0287522D02*
X0276022D01*
X0287522Y0343616D02*
Y0338116D01*
Y0343616D02*
X0276022D01*
X0342972Y0333641D02*
Y0329507D01*
X0335295Y0333641D02*
Y0329507D01*
X0342972D02*
X0335295D01*
X0342972Y0333641D02*
X0335295D01*
X0319311Y0373956D02*
Y0369822D01*
X0311634Y0373956D02*
Y0369822D01*
X0319311D02*
X0311634D01*
X0319311Y0373956D02*
X0311634D01*
X0332028Y0337460D02*
X0327894D01*
X0332028Y0345137D02*
X0327894D01*
Y0337460D01*
X0332028Y0345137D02*
Y0337460D01*
X0323130Y0337106D02*
Y0332972D01*
X0330807Y0337106D02*
Y0332972D01*
Y0337106D02*
X0323130D01*
X0330807Y0332972D02*
X0323130D01*
X0288189Y0362204D02*
X0274016D01*
X0288189D02*
Y0354330D01*
X0274016D01*
Y0362204D02*
Y0354330D01*
X0288189Y0370905D02*
X0274016D01*
X0288189D02*
Y0363031D01*
X0274016D01*
Y0370905D02*
Y0363031D01*
X0294803Y0360788D02*
X0293229D01*
X0294016D01*
Y0363149D01*
X0290867D02*
X0292442D01*
X0290867Y0361575D01*
Y0361181D01*
X0291261Y0360788D01*
X0292048D01*
X0292442Y0361181D01*
X0369961Y0322244D02*
X0372323D01*
Y0323424D01*
X0371929Y0323818D01*
X0370355D01*
X0369961Y0323424D01*
Y0322244D01*
X0372323Y0324605D02*
Y0325392D01*
Y0324999D01*
X0369961D01*
X0370355Y0324605D01*
X0283386Y0340118D02*
X0283780Y0339725D01*
X0284567D01*
X0284961Y0340118D01*
Y0341692D01*
X0284567Y0342086D01*
X0283780D01*
X0283386Y0341692D01*
X0282599Y0342086D02*
X0281812D01*
X0282206D01*
Y0339725D01*
X0282599Y0340118D01*
X0279057Y0339725D02*
X0280631D01*
Y0340905D01*
X0279844Y0340512D01*
X0279450D01*
X0279057Y0340905D01*
Y0341692D01*
X0279450Y0342086D01*
X0280238D01*
X0280631Y0341692D01*
X0281090Y0357691D02*
X0281615Y0357166D01*
X0282664D01*
X0283189Y0357691D01*
Y0359790D01*
X0282664Y0360314D01*
X0281615D01*
X0281090Y0359790D01*
X0277941Y0360314D02*
X0280040D01*
X0277941Y0358215D01*
Y0357691D01*
X0278466Y0357166D01*
X0279516D01*
X0280040Y0357691D01*
X0280814Y0366234D02*
X0281339Y0365709D01*
X0282388D01*
X0282913Y0366234D01*
Y0368333D01*
X0282388Y0368858D01*
X0281339D01*
X0280814Y0368333D01*
X0279765Y0368858D02*
X0278715D01*
X0279240D01*
Y0365709D01*
X0279765Y0366234D01*
X0289449Y0271811D02*
Y0266299D01*
X0294961Y0271811D02*
X0289449D01*
X0294961D02*
Y0266299D01*
X0289449D01*
X0296339Y0265354D02*
Y0261417D01*
X0288858Y0265354D02*
Y0261417D01*
X0296339D02*
X0288858D01*
X0296339Y0265354D02*
X0288858D01*
X0309173Y0271299D02*
Y0267362D01*
X0301693Y0271299D02*
Y0267362D01*
X0309173D02*
X0301693D01*
X0309173Y0271299D02*
X0301693D01*
X0300709Y0263661D02*
X0296772D01*
X0300709Y0271141D02*
X0296772D01*
Y0263661D01*
X0300709Y0271141D02*
Y0263661D01*
X0296299Y0277873D02*
Y0273937D01*
X0288819Y0277873D02*
Y0273937D01*
X0296299D02*
X0288819D01*
X0296299Y0277873D02*
X0288819D01*
X0304409Y0277952D02*
Y0274015D01*
X0296929Y0277952D02*
Y0274015D01*
X0304409D02*
X0296929D01*
X0304409Y0277952D02*
X0296929D01*
X0302953Y0246496D02*
X0295079Y0246496D01*
X0302953Y0254369D02*
X0302953Y0246496D01*
X0302953Y0254369D02*
X0295079Y0254369D01*
X0295079Y0246496D01*
X0365118Y0264094D02*
Y0260157D01*
X0357638Y0264094D02*
Y0260157D01*
X0365118D02*
X0357638D01*
X0365118Y0264094D02*
X0357638D01*
X0358701Y0235708D02*
X0354764D01*
X0358701Y0228228D02*
X0354764D01*
X0358701Y0235708D02*
Y0228228D01*
X0354764Y0235708D02*
Y0228228D01*
X0344291Y0247244D02*
Y0243307D01*
X0351772Y0247244D02*
Y0243307D01*
Y0247244D02*
X0344291D01*
X0351772Y0243307D02*
X0344291D01*
X0353937Y0242716D02*
Y0238779D01*
X0361417Y0242716D02*
Y0238779D01*
Y0242716D02*
X0353937D01*
X0361417Y0238779D02*
X0353937D01*
X0362992Y0235708D02*
X0359055D01*
X0362992Y0228228D02*
X0359055D01*
X0362992Y0235708D02*
Y0228228D01*
X0359055Y0235708D02*
Y0228228D01*
X0291142Y0250196D02*
X0287205D01*
X0291142Y0257677D02*
X0287205D01*
Y0250196D01*
X0291142Y0257677D02*
Y0250196D01*
X0335236Y0243897D02*
X0331299D01*
X0335236Y0236417D02*
X0331299D01*
X0335236Y0243897D02*
Y0236417D01*
X0331299Y0243897D02*
Y0236417D01*
X0315236Y0243976D02*
Y0240039D01*
X0322716Y0243976D02*
Y0240039D01*
Y0243976D02*
X0315236D01*
X0322716Y0240039D02*
X0315236D01*
X0374606Y0224999D02*
X0368307D01*
X0374606Y0223818D02*
X0368307D01*
X0374606Y0236810D02*
Y0223818D01*
Y0236810D02*
X0368307D01*
Y0223818D01*
X0301201Y0246161D02*
Y0242027D01*
X0308878Y0246161D02*
Y0242027D01*
Y0246161D02*
X0301201D01*
X0308878Y0242027D02*
X0301201D01*
X0276022Y0250702D02*
Y0245202D01*
X0287522D02*
X0276022D01*
X0287522Y0250702D02*
Y0245202D01*
Y0250702D02*
X0276022D01*
X0342972Y0240728D02*
Y0236594D01*
X0335295Y0240728D02*
Y0236594D01*
X0342972D02*
X0335295D01*
X0342972Y0240728D02*
X0335295D01*
X0319311Y0281043D02*
Y0276909D01*
X0311634Y0281043D02*
Y0276909D01*
X0319311D02*
X0311634D01*
X0319311Y0281043D02*
X0311634D01*
X0332028Y0244547D02*
X0327894D01*
X0332028Y0252224D02*
X0327894D01*
Y0244547D01*
X0332028Y0252224D02*
Y0244547D01*
X0323130Y0244192D02*
Y0240058D01*
X0330807Y0244192D02*
Y0240058D01*
Y0244192D02*
X0323130D01*
X0330807Y0240058D02*
X0323130D01*
X0288189Y0269291D02*
X0274016D01*
X0288189D02*
Y0261417D01*
X0274016D01*
Y0269291D02*
Y0261417D01*
X0288189Y0277992D02*
X0274016D01*
X0288189D02*
Y0270118D01*
X0274016D01*
Y0277992D02*
Y0270118D01*
X0294803Y0267874D02*
X0293229D01*
X0294016D01*
Y0270236D01*
X0290867D02*
X0292442D01*
X0290867Y0268661D01*
Y0268268D01*
X0291261Y0267874D01*
X0292048D01*
X0292442Y0268268D01*
X0369961Y0229330D02*
X0372323D01*
Y0230511D01*
X0371929Y0230905D01*
X0370355D01*
X0369961Y0230511D01*
Y0229330D01*
X0372323Y0231692D02*
Y0232479D01*
Y0232085D01*
X0369961D01*
X0370355Y0231692D01*
X0283386Y0247205D02*
X0283780Y0246811D01*
X0284567D01*
X0284961Y0247205D01*
Y0248779D01*
X0284567Y0249173D01*
X0283780D01*
X0283386Y0248779D01*
X0282599Y0249173D02*
X0281812D01*
X0282206D01*
Y0246811D01*
X0282599Y0247205D01*
X0279057Y0246811D02*
X0280631D01*
Y0247992D01*
X0279844Y0247598D01*
X0279450D01*
X0279057Y0247992D01*
Y0248779D01*
X0279450Y0249173D01*
X0280238D01*
X0280631Y0248779D01*
X0281090Y0264777D02*
X0281615Y0264252D01*
X0282664D01*
X0283189Y0264777D01*
Y0266876D01*
X0282664Y0267401D01*
X0281615D01*
X0281090Y0266876D01*
X0277941Y0267401D02*
X0280040D01*
X0277941Y0265302D01*
Y0264777D01*
X0278466Y0264252D01*
X0279516D01*
X0280040Y0264777D01*
X0280814Y0273321D02*
X0281339Y0272796D01*
X0282388D01*
X0282913Y0273321D01*
Y0275420D01*
X0282388Y0275944D01*
X0281339D01*
X0280814Y0275420D01*
X0279765Y0275944D02*
X0278715D01*
X0279240D01*
Y0272796D01*
X0279765Y0273321D01*
X0289449Y0178897D02*
Y0173385D01*
X0294961Y0178897D02*
X0289449D01*
X0294961D02*
Y0173385D01*
X0289449D01*
X0296339Y0172440D02*
Y0168503D01*
X0288858Y0172440D02*
Y0168503D01*
X0296339D02*
X0288858D01*
X0296339Y0172440D02*
X0288858D01*
X0309173Y0178385D02*
Y0174448D01*
X0301693Y0178385D02*
Y0174448D01*
X0309173D02*
X0301693D01*
X0309173Y0178385D02*
X0301693D01*
X0300709Y0170747D02*
X0296772D01*
X0300709Y0178228D02*
X0296772D01*
Y0170747D01*
X0300709Y0178228D02*
Y0170747D01*
X0296299Y0184960D02*
Y0181023D01*
X0288819Y0184960D02*
Y0181023D01*
X0296299D02*
X0288819D01*
X0296299Y0184960D02*
X0288819D01*
X0304409Y0185039D02*
Y0181102D01*
X0296929Y0185039D02*
Y0181102D01*
X0304409D02*
X0296929D01*
X0304409Y0185039D02*
X0296929D01*
X0302953Y0153582D02*
X0295079Y0153582D01*
X0302953Y0161456D02*
X0302953Y0153582D01*
X0302953Y0161456D02*
X0295079Y0161456D01*
X0295079Y0153582D01*
X0365118Y0171180D02*
Y0167244D01*
X0357638Y0171180D02*
Y0167244D01*
X0365118D02*
X0357638D01*
X0365118Y0171180D02*
X0357638D01*
X0358701Y0142795D02*
X0354764D01*
X0358701Y0135314D02*
X0354764D01*
X0358701Y0142795D02*
Y0135314D01*
X0354764Y0142795D02*
Y0135314D01*
X0344291Y0154330D02*
Y0150393D01*
X0351772Y0154330D02*
Y0150393D01*
Y0154330D02*
X0344291D01*
X0351772Y0150393D02*
X0344291D01*
X0353937Y0149803D02*
Y0145866D01*
X0361417Y0149803D02*
Y0145866D01*
Y0149803D02*
X0353937D01*
X0361417Y0145866D02*
X0353937D01*
X0362992Y0142795D02*
X0359055D01*
X0362992Y0135314D02*
X0359055D01*
X0362992Y0142795D02*
Y0135314D01*
X0359055Y0142795D02*
Y0135314D01*
X0291142Y0157283D02*
X0287205D01*
X0291142Y0164763D02*
X0287205D01*
Y0157283D01*
X0291142Y0164763D02*
Y0157283D01*
X0335236Y0150984D02*
X0331299D01*
X0335236Y0143503D02*
X0331299D01*
X0335236Y0150984D02*
Y0143503D01*
X0331299Y0150984D02*
Y0143503D01*
X0315236Y0151062D02*
Y0147125D01*
X0322716Y0151062D02*
Y0147125D01*
Y0151062D02*
X0315236D01*
X0322716Y0147125D02*
X0315236D01*
X0374606Y0132086D02*
X0368307D01*
X0374606Y0130905D02*
X0368307D01*
X0374606Y0143897D02*
Y0130905D01*
Y0143897D02*
X0368307D01*
Y0130905D01*
X0301201Y0153247D02*
Y0149114D01*
X0308878Y0153247D02*
Y0149114D01*
Y0153247D02*
X0301201D01*
X0308878Y0149114D02*
X0301201D01*
X0276022Y0157789D02*
Y0152289D01*
X0287522D02*
X0276022D01*
X0287522Y0157789D02*
Y0152289D01*
Y0157789D02*
X0276022D01*
X0342972Y0147814D02*
Y0143681D01*
X0335295Y0147814D02*
Y0143681D01*
X0342972D02*
X0335295D01*
X0342972Y0147814D02*
X0335295D01*
X0319311Y0188129D02*
Y0183995D01*
X0311634Y0188129D02*
Y0183995D01*
X0319311D02*
X0311634D01*
X0319311Y0188129D02*
X0311634D01*
X0332028Y0151633D02*
X0327894D01*
X0332028Y0159310D02*
X0327894D01*
Y0151633D01*
X0332028Y0159310D02*
Y0151633D01*
X0323130Y0151279D02*
Y0147145D01*
X0330807Y0151279D02*
Y0147145D01*
Y0151279D02*
X0323130D01*
X0330807Y0147145D02*
X0323130D01*
X0288189Y0176377D02*
X0274016D01*
X0288189D02*
Y0168503D01*
X0274016D01*
Y0176377D02*
Y0168503D01*
X0288189Y0185078D02*
X0274016D01*
X0288189D02*
Y0177204D01*
X0274016D01*
Y0185078D02*
Y0177204D01*
X0294803Y0174961D02*
X0293229D01*
X0294016D01*
Y0177322D01*
X0290867D02*
X0292442D01*
X0290867Y0175748D01*
Y0175354D01*
X0291261Y0174961D01*
X0292048D01*
X0292442Y0175354D01*
X0369961Y0136417D02*
X0372323D01*
Y0137598D01*
X0371929Y0137991D01*
X0370355D01*
X0369961Y0137598D01*
Y0136417D01*
X0372323Y0138778D02*
Y0139565D01*
Y0139172D01*
X0369961D01*
X0370355Y0138778D01*
X0283386Y0154291D02*
X0283780Y0153898D01*
X0284567D01*
X0284961Y0154291D01*
Y0155866D01*
X0284567Y0156259D01*
X0283780D01*
X0283386Y0155866D01*
X0282599Y0156259D02*
X0281812D01*
X0282206D01*
Y0153898D01*
X0282599Y0154291D01*
X0279057Y0153898D02*
X0280631D01*
Y0155079D01*
X0279844Y0154685D01*
X0279450D01*
X0279057Y0155079D01*
Y0155866D01*
X0279450Y0156259D01*
X0280238D01*
X0280631Y0155866D01*
X0281090Y0171864D02*
X0281615Y0171339D01*
X0282664D01*
X0283189Y0171864D01*
Y0173963D01*
X0282664Y0174488D01*
X0281615D01*
X0281090Y0173963D01*
X0277941Y0174488D02*
X0280040D01*
X0277941Y0172389D01*
Y0171864D01*
X0278466Y0171339D01*
X0279516D01*
X0280040Y0171864D01*
X0280814Y0180407D02*
X0281339Y0179882D01*
X0282388D01*
X0282913Y0180407D01*
Y0182506D01*
X0282388Y0183031D01*
X0281339D01*
X0280814Y0182506D01*
X0279765Y0183031D02*
X0278715D01*
X0279240D01*
Y0179882D01*
X0279765Y0180407D01*
D142*
X0295551Y0357677D02*
Y0355315D01*
X0294370D01*
X0293977Y0355709D01*
Y0356496D01*
X0294370Y0356890D01*
X0295551D01*
X0294764D02*
X0293977Y0357677D01*
X0293190D02*
X0292403D01*
X0292796D01*
Y0355315D01*
X0293190Y0355709D01*
X0289648Y0355315D02*
X0290435Y0355709D01*
X0291222Y0356496D01*
Y0357283D01*
X0290828Y0357677D01*
X0290041D01*
X0289648Y0357283D01*
Y0356890D01*
X0290041Y0356496D01*
X0291222D01*
X0308386Y0363621D02*
Y0361260D01*
X0307205D01*
X0306811Y0361654D01*
Y0362441D01*
X0307205Y0362834D01*
X0308386D01*
X0307599D02*
X0306811Y0363621D01*
X0306024D02*
X0305237D01*
X0305631D01*
Y0361260D01*
X0306024Y0361654D01*
X0304056Y0361260D02*
X0302482D01*
Y0361654D01*
X0304056Y0363228D01*
Y0363621D01*
X0300118Y0357362D02*
X0297757D01*
Y0358542D01*
X0298150Y0358936D01*
X0298937D01*
X0299331Y0358542D01*
Y0357362D01*
Y0358149D02*
X0300118Y0358936D01*
Y0359723D02*
Y0360510D01*
Y0360117D01*
X0297757D01*
X0298150Y0359723D01*
X0299724Y0361691D02*
X0300118Y0362085D01*
Y0362872D01*
X0299724Y0363265D01*
X0298150D01*
X0297757Y0362872D01*
Y0362085D01*
X0298150Y0361691D01*
X0298544D01*
X0298937Y0362085D01*
Y0363265D01*
X0295512Y0370196D02*
Y0367835D01*
X0294331D01*
X0293937Y0368229D01*
Y0369016D01*
X0294331Y0369409D01*
X0295512D01*
X0294725D02*
X0293937Y0370196D01*
X0293150D02*
X0292363D01*
X0292757D01*
Y0367835D01*
X0293150Y0368229D01*
X0289608Y0370196D02*
X0291182D01*
X0289608Y0368622D01*
Y0368229D01*
X0290002Y0367835D01*
X0290789D01*
X0291182Y0368229D01*
X0303622Y0370275D02*
Y0367914D01*
X0302441D01*
X0302048Y0368307D01*
Y0369094D01*
X0302441Y0369488D01*
X0303622D01*
X0302835D02*
X0302048Y0370275D01*
X0301260D02*
X0300473D01*
X0300867D01*
Y0367914D01*
X0301260Y0368307D01*
X0299293D02*
X0298899Y0367914D01*
X0298112D01*
X0297718Y0368307D01*
Y0368701D01*
X0298112Y0369094D01*
X0297718Y0369488D01*
Y0369882D01*
X0298112Y0370275D01*
X0298899D01*
X0299293Y0369882D01*
Y0369488D01*
X0298899Y0369094D01*
X0299293Y0368701D01*
Y0368307D01*
X0298899Y0369094D02*
X0298112D01*
X0364331Y0356417D02*
Y0354055D01*
X0363150D01*
X0362756Y0354449D01*
Y0355236D01*
X0363150Y0355630D01*
X0364331D01*
X0363544D02*
X0362756Y0356417D01*
X0361969D02*
X0361182D01*
X0361576D01*
Y0354055D01*
X0361969Y0354449D01*
X0358427Y0354055D02*
X0360001D01*
Y0355236D01*
X0359214Y0354842D01*
X0358821D01*
X0358427Y0355236D01*
Y0356023D01*
X0358821Y0356417D01*
X0359608D01*
X0360001Y0356023D01*
X0357756Y0322086D02*
X0355394D01*
Y0323267D01*
X0355788Y0323660D01*
X0356575D01*
X0356969Y0323267D01*
Y0322086D01*
Y0322873D02*
X0357756Y0323660D01*
Y0324447D02*
Y0325235D01*
Y0324841D01*
X0355394D01*
X0355788Y0324447D01*
X0357756Y0327596D02*
X0355394D01*
X0356575Y0326415D01*
Y0327990D01*
X0350945Y0339330D02*
Y0336969D01*
X0349764D01*
X0349371Y0337362D01*
Y0338149D01*
X0349764Y0338543D01*
X0350945D01*
X0350158D02*
X0349371Y0339330D01*
X0348583D02*
X0347796D01*
X0348190D01*
Y0336969D01*
X0348583Y0337362D01*
X0346616D02*
X0346222Y0336969D01*
X0345435D01*
X0345041Y0337362D01*
Y0337756D01*
X0345435Y0338149D01*
X0345828D01*
X0345435D01*
X0345041Y0338543D01*
Y0338937D01*
X0345435Y0339330D01*
X0346222D01*
X0346616Y0338937D01*
X0360197Y0334881D02*
Y0332520D01*
X0359016D01*
X0358623Y0332913D01*
Y0333701D01*
X0359016Y0334094D01*
X0360197D01*
X0359410D02*
X0358623Y0334881D01*
X0357835D02*
X0357048D01*
X0357442D01*
Y0332520D01*
X0357835Y0332913D01*
X0355868Y0334881D02*
X0355080D01*
X0355474D01*
Y0332520D01*
X0355868Y0332913D01*
X0362165Y0322007D02*
X0359804D01*
Y0323188D01*
X0360197Y0323582D01*
X0360984D01*
X0361378Y0323188D01*
Y0322007D01*
Y0322795D02*
X0362165Y0323582D01*
Y0324369D02*
Y0325156D01*
Y0324762D01*
X0359804D01*
X0360197Y0324369D01*
Y0326337D02*
X0359804Y0326730D01*
Y0327517D01*
X0360197Y0327911D01*
X0361772D01*
X0362165Y0327517D01*
Y0326730D01*
X0361772Y0326337D01*
X0360197D01*
X0290315Y0344960D02*
X0287953D01*
Y0346141D01*
X0288347Y0346534D01*
X0289134D01*
X0289528Y0346141D01*
Y0344960D01*
Y0345747D02*
X0290315Y0346534D01*
X0287953Y0348896D02*
X0288347Y0348109D01*
X0289134Y0347322D01*
X0289921D01*
X0290315Y0347715D01*
Y0348502D01*
X0289921Y0348896D01*
X0289528D01*
X0289134Y0348502D01*
Y0347322D01*
X0334409Y0331259D02*
X0332048D01*
Y0332440D01*
X0332441Y0332834D01*
X0333229D01*
X0333622Y0332440D01*
Y0331259D01*
Y0332047D02*
X0334409Y0332834D01*
Y0334802D02*
X0332048D01*
X0333229Y0333621D01*
Y0335195D01*
X0320984Y0336141D02*
Y0333780D01*
X0319804D01*
X0319410Y0334173D01*
Y0334961D01*
X0319804Y0335354D01*
X0320984D01*
X0320197D02*
X0319410Y0336141D01*
X0318623Y0334173D02*
X0318229Y0333780D01*
X0317442D01*
X0317048Y0334173D01*
Y0334567D01*
X0317442Y0334961D01*
X0317836D01*
X0317442D01*
X0317048Y0335354D01*
Y0335748D01*
X0317442Y0336141D01*
X0318229D01*
X0318623Y0335748D01*
X0306575Y0336181D02*
X0306969Y0335788D01*
X0307756D01*
X0308150Y0336181D01*
Y0337755D01*
X0307756Y0338149D01*
X0306969D01*
X0306575Y0337755D01*
X0305788Y0338149D02*
X0305001D01*
X0305395D01*
Y0335788D01*
X0305788Y0336181D01*
X0302246Y0335788D02*
X0303033Y0336181D01*
X0303820Y0336968D01*
Y0337755D01*
X0303427Y0338149D01*
X0302640D01*
X0302246Y0337755D01*
Y0337362D01*
X0302640Y0336968D01*
X0303820D01*
X0340315Y0330886D02*
X0340709Y0330492D01*
X0341496D01*
X0341890Y0330886D01*
Y0332460D01*
X0341496Y0332854D01*
X0340709D01*
X0340315Y0332460D01*
X0339528Y0332854D02*
X0338741D01*
X0339135D01*
Y0330492D01*
X0339528Y0330886D01*
X0336380Y0332854D02*
Y0330492D01*
X0337560Y0331673D01*
X0335986D01*
X0316654Y0371201D02*
X0317048Y0370807D01*
X0317835D01*
X0318228Y0371201D01*
Y0372775D01*
X0317835Y0373169D01*
X0317048D01*
X0316654Y0372775D01*
X0315867Y0373169D02*
X0315080D01*
X0315473D01*
Y0370807D01*
X0315867Y0371201D01*
X0313899D02*
X0313505Y0370807D01*
X0312718D01*
X0312325Y0371201D01*
Y0372775D01*
X0312718Y0373169D01*
X0313505D01*
X0313899Y0372775D01*
Y0371201D01*
X0329272Y0340117D02*
X0328879Y0339723D01*
Y0338936D01*
X0329272Y0338543D01*
X0330847D01*
X0331240Y0338936D01*
Y0339723D01*
X0330847Y0340117D01*
X0328879Y0340904D02*
Y0342478D01*
X0329272D01*
X0330847Y0340904D01*
X0331240D01*
X0327481Y0334134D02*
X0327874Y0333740D01*
X0328661D01*
X0329055Y0334134D01*
Y0335708D01*
X0328661Y0336102D01*
X0327874D01*
X0327481Y0335708D01*
X0326694Y0334134D02*
X0326300Y0333740D01*
X0325513D01*
X0325119Y0334134D01*
Y0334528D01*
X0325513Y0334921D01*
X0325906D01*
X0325513D01*
X0325119Y0335315D01*
Y0335708D01*
X0325513Y0336102D01*
X0326300D01*
X0326694Y0335708D01*
X0295551Y0264763D02*
Y0262402D01*
X0294370D01*
X0293977Y0262795D01*
Y0263582D01*
X0294370Y0263976D01*
X0295551D01*
X0294764D02*
X0293977Y0264763D01*
X0293190D02*
X0292403D01*
X0292796D01*
Y0262402D01*
X0293190Y0262795D01*
X0289648Y0262402D02*
X0290435Y0262795D01*
X0291222Y0263582D01*
Y0264370D01*
X0290828Y0264763D01*
X0290041D01*
X0289648Y0264370D01*
Y0263976D01*
X0290041Y0263582D01*
X0291222D01*
X0308386Y0270708D02*
Y0268347D01*
X0307205D01*
X0306811Y0268740D01*
Y0269527D01*
X0307205Y0269921D01*
X0308386D01*
X0307599D02*
X0306811Y0270708D01*
X0306024D02*
X0305237D01*
X0305631D01*
Y0268347D01*
X0306024Y0268740D01*
X0304056Y0268347D02*
X0302482D01*
Y0268740D01*
X0304056Y0270315D01*
Y0270708D01*
X0300118Y0264448D02*
X0297757D01*
Y0265629D01*
X0298150Y0266023D01*
X0298937D01*
X0299331Y0265629D01*
Y0264448D01*
Y0265235D02*
X0300118Y0266023D01*
Y0266810D02*
Y0267597D01*
Y0267203D01*
X0297757D01*
X0298150Y0266810D01*
X0299724Y0268778D02*
X0300118Y0269171D01*
Y0269958D01*
X0299724Y0270352D01*
X0298150D01*
X0297757Y0269958D01*
Y0269171D01*
X0298150Y0268778D01*
X0298544D01*
X0298937Y0269171D01*
Y0270352D01*
X0295512Y0277283D02*
Y0274921D01*
X0294331D01*
X0293937Y0275315D01*
Y0276102D01*
X0294331Y0276496D01*
X0295512D01*
X0294725D02*
X0293937Y0277283D01*
X0293150D02*
X0292363D01*
X0292757D01*
Y0274921D01*
X0293150Y0275315D01*
X0289608Y0277283D02*
X0291182D01*
X0289608Y0275709D01*
Y0275315D01*
X0290002Y0274921D01*
X0290789D01*
X0291182Y0275315D01*
X0303622Y0277362D02*
Y0275000D01*
X0302441D01*
X0302048Y0275394D01*
Y0276181D01*
X0302441Y0276574D01*
X0303622D01*
X0302835D02*
X0302048Y0277362D01*
X0301260D02*
X0300473D01*
X0300867D01*
Y0275000D01*
X0301260Y0275394D01*
X0299293D02*
X0298899Y0275000D01*
X0298112D01*
X0297718Y0275394D01*
Y0275787D01*
X0298112Y0276181D01*
X0297718Y0276574D01*
Y0276968D01*
X0298112Y0277362D01*
X0298899D01*
X0299293Y0276968D01*
Y0276574D01*
X0298899Y0276181D01*
X0299293Y0275787D01*
Y0275394D01*
X0298899Y0276181D02*
X0298112D01*
X0364331Y0263503D02*
Y0261142D01*
X0363150D01*
X0362756Y0261536D01*
Y0262323D01*
X0363150Y0262716D01*
X0364331D01*
X0363544D02*
X0362756Y0263503D01*
X0361969D02*
X0361182D01*
X0361576D01*
Y0261142D01*
X0361969Y0261536D01*
X0358427Y0261142D02*
X0360001D01*
Y0262323D01*
X0359214Y0261929D01*
X0358821D01*
X0358427Y0262323D01*
Y0263110D01*
X0358821Y0263503D01*
X0359608D01*
X0360001Y0263110D01*
X0357756Y0229173D02*
X0355394D01*
Y0230353D01*
X0355788Y0230747D01*
X0356575D01*
X0356969Y0230353D01*
Y0229173D01*
Y0229960D02*
X0357756Y0230747D01*
Y0231534D02*
Y0232321D01*
Y0231928D01*
X0355394D01*
X0355788Y0231534D01*
X0357756Y0234683D02*
X0355394D01*
X0356575Y0233502D01*
Y0235076D01*
X0350945Y0246417D02*
Y0244055D01*
X0349764D01*
X0349371Y0244449D01*
Y0245236D01*
X0349764Y0245630D01*
X0350945D01*
X0350158D02*
X0349371Y0246417D01*
X0348583D02*
X0347796D01*
X0348190D01*
Y0244055D01*
X0348583Y0244449D01*
X0346616D02*
X0346222Y0244055D01*
X0345435D01*
X0345041Y0244449D01*
Y0244843D01*
X0345435Y0245236D01*
X0345828D01*
X0345435D01*
X0345041Y0245630D01*
Y0246023D01*
X0345435Y0246417D01*
X0346222D01*
X0346616Y0246023D01*
X0360197Y0241968D02*
Y0239606D01*
X0359016D01*
X0358623Y0240000D01*
Y0240787D01*
X0359016Y0241181D01*
X0360197D01*
X0359410D02*
X0358623Y0241968D01*
X0357835D02*
X0357048D01*
X0357442D01*
Y0239606D01*
X0357835Y0240000D01*
X0355868Y0241968D02*
X0355080D01*
X0355474D01*
Y0239606D01*
X0355868Y0240000D01*
X0362165Y0229094D02*
X0359804D01*
Y0230275D01*
X0360197Y0230668D01*
X0360984D01*
X0361378Y0230275D01*
Y0229094D01*
Y0229881D02*
X0362165Y0230668D01*
Y0231455D02*
Y0232242D01*
Y0231849D01*
X0359804D01*
X0360197Y0231455D01*
Y0233423D02*
X0359804Y0233817D01*
Y0234604D01*
X0360197Y0234998D01*
X0361772D01*
X0362165Y0234604D01*
Y0233817D01*
X0361772Y0233423D01*
X0360197D01*
X0290315Y0252047D02*
X0287953D01*
Y0253227D01*
X0288347Y0253621D01*
X0289134D01*
X0289528Y0253227D01*
Y0252047D01*
Y0252834D02*
X0290315Y0253621D01*
X0287953Y0255982D02*
X0288347Y0255195D01*
X0289134Y0254408D01*
X0289921D01*
X0290315Y0254802D01*
Y0255589D01*
X0289921Y0255982D01*
X0289528D01*
X0289134Y0255589D01*
Y0254408D01*
X0334409Y0238346D02*
X0332048D01*
Y0239527D01*
X0332441Y0239920D01*
X0333229D01*
X0333622Y0239527D01*
Y0238346D01*
Y0239133D02*
X0334409Y0239920D01*
Y0241888D02*
X0332048D01*
X0333229Y0240707D01*
Y0242282D01*
X0320984Y0243228D02*
Y0240866D01*
X0319804D01*
X0319410Y0241260D01*
Y0242047D01*
X0319804Y0242441D01*
X0320984D01*
X0320197D02*
X0319410Y0243228D01*
X0318623Y0241260D02*
X0318229Y0240866D01*
X0317442D01*
X0317048Y0241260D01*
Y0241653D01*
X0317442Y0242047D01*
X0317836D01*
X0317442D01*
X0317048Y0242441D01*
Y0242834D01*
X0317442Y0243228D01*
X0318229D01*
X0318623Y0242834D01*
X0306575Y0243268D02*
X0306969Y0242874D01*
X0307756D01*
X0308150Y0243268D01*
Y0244842D01*
X0307756Y0245236D01*
X0306969D01*
X0306575Y0244842D01*
X0305788Y0245236D02*
X0305001D01*
X0305395D01*
Y0242874D01*
X0305788Y0243268D01*
X0302246Y0242874D02*
X0303033Y0243268D01*
X0303820Y0244055D01*
Y0244842D01*
X0303427Y0245236D01*
X0302640D01*
X0302246Y0244842D01*
Y0244448D01*
X0302640Y0244055D01*
X0303820D01*
X0340315Y0237973D02*
X0340709Y0237579D01*
X0341496D01*
X0341890Y0237973D01*
Y0239547D01*
X0341496Y0239940D01*
X0340709D01*
X0340315Y0239547D01*
X0339528Y0239940D02*
X0338741D01*
X0339135D01*
Y0237579D01*
X0339528Y0237973D01*
X0336380Y0239940D02*
Y0237579D01*
X0337560Y0238760D01*
X0335986D01*
X0316654Y0278288D02*
X0317048Y0277894D01*
X0317835D01*
X0318228Y0278288D01*
Y0279862D01*
X0317835Y0280255D01*
X0317048D01*
X0316654Y0279862D01*
X0315867Y0280255D02*
X0315080D01*
X0315473D01*
Y0277894D01*
X0315867Y0278288D01*
X0313899D02*
X0313505Y0277894D01*
X0312718D01*
X0312325Y0278288D01*
Y0279862D01*
X0312718Y0280255D01*
X0313505D01*
X0313899Y0279862D01*
Y0278288D01*
X0329272Y0247204D02*
X0328879Y0246810D01*
Y0246023D01*
X0329272Y0245629D01*
X0330847D01*
X0331240Y0246023D01*
Y0246810D01*
X0330847Y0247204D01*
X0328879Y0247991D02*
Y0249565D01*
X0329272D01*
X0330847Y0247991D01*
X0331240D01*
X0327481Y0241221D02*
X0327874Y0240827D01*
X0328661D01*
X0329055Y0241221D01*
Y0242795D01*
X0328661Y0243188D01*
X0327874D01*
X0327481Y0242795D01*
X0326694Y0241221D02*
X0326300Y0240827D01*
X0325513D01*
X0325119Y0241221D01*
Y0241614D01*
X0325513Y0242008D01*
X0325906D01*
X0325513D01*
X0325119Y0242401D01*
Y0242795D01*
X0325513Y0243188D01*
X0326300D01*
X0326694Y0242795D01*
X0295551Y0171850D02*
Y0169488D01*
X0294370D01*
X0293977Y0169882D01*
Y0170669D01*
X0294370Y0171063D01*
X0295551D01*
X0294764D02*
X0293977Y0171850D01*
X0293190D02*
X0292403D01*
X0292796D01*
Y0169488D01*
X0293190Y0169882D01*
X0289648Y0169488D02*
X0290435Y0169882D01*
X0291222Y0170669D01*
Y0171456D01*
X0290828Y0171850D01*
X0290041D01*
X0289648Y0171456D01*
Y0171063D01*
X0290041Y0170669D01*
X0291222D01*
X0308386Y0177795D02*
Y0175433D01*
X0307205D01*
X0306811Y0175827D01*
Y0176614D01*
X0307205Y0177008D01*
X0308386D01*
X0307599D02*
X0306811Y0177795D01*
X0306024D02*
X0305237D01*
X0305631D01*
Y0175433D01*
X0306024Y0175827D01*
X0304056Y0175433D02*
X0302482D01*
Y0175827D01*
X0304056Y0177401D01*
Y0177795D01*
X0300118Y0171535D02*
X0297757D01*
Y0172716D01*
X0298150Y0173109D01*
X0298937D01*
X0299331Y0172716D01*
Y0171535D01*
Y0172322D02*
X0300118Y0173109D01*
Y0173896D02*
Y0174683D01*
Y0174290D01*
X0297757D01*
X0298150Y0173896D01*
X0299724Y0175864D02*
X0300118Y0176258D01*
Y0177045D01*
X0299724Y0177438D01*
X0298150D01*
X0297757Y0177045D01*
Y0176258D01*
X0298150Y0175864D01*
X0298544D01*
X0298937Y0176258D01*
Y0177438D01*
X0295512Y0184370D02*
Y0182008D01*
X0294331D01*
X0293937Y0182402D01*
Y0183189D01*
X0294331Y0183582D01*
X0295512D01*
X0294725D02*
X0293937Y0184370D01*
X0293150D02*
X0292363D01*
X0292757D01*
Y0182008D01*
X0293150Y0182402D01*
X0289608Y0184370D02*
X0291182D01*
X0289608Y0182795D01*
Y0182402D01*
X0290002Y0182008D01*
X0290789D01*
X0291182Y0182402D01*
X0303622Y0184448D02*
Y0182087D01*
X0302441D01*
X0302048Y0182480D01*
Y0183267D01*
X0302441Y0183661D01*
X0303622D01*
X0302835D02*
X0302048Y0184448D01*
X0301260D02*
X0300473D01*
X0300867D01*
Y0182087D01*
X0301260Y0182480D01*
X0299293D02*
X0298899Y0182087D01*
X0298112D01*
X0297718Y0182480D01*
Y0182874D01*
X0298112Y0183267D01*
X0297718Y0183661D01*
Y0184055D01*
X0298112Y0184448D01*
X0298899D01*
X0299293Y0184055D01*
Y0183661D01*
X0298899Y0183267D01*
X0299293Y0182874D01*
Y0182480D01*
X0298899Y0183267D02*
X0298112D01*
X0364331Y0170590D02*
Y0168228D01*
X0363150D01*
X0362756Y0168622D01*
Y0169409D01*
X0363150Y0169803D01*
X0364331D01*
X0363544D02*
X0362756Y0170590D01*
X0361969D02*
X0361182D01*
X0361576D01*
Y0168228D01*
X0361969Y0168622D01*
X0358427Y0168228D02*
X0360001D01*
Y0169409D01*
X0359214Y0169016D01*
X0358821D01*
X0358427Y0169409D01*
Y0170196D01*
X0358821Y0170590D01*
X0359608D01*
X0360001Y0170196D01*
X0357756Y0136259D02*
X0355394D01*
Y0137440D01*
X0355788Y0137834D01*
X0356575D01*
X0356969Y0137440D01*
Y0136259D01*
Y0137046D02*
X0357756Y0137834D01*
Y0138621D02*
Y0139408D01*
Y0139014D01*
X0355394D01*
X0355788Y0138621D01*
X0357756Y0141769D02*
X0355394D01*
X0356575Y0140589D01*
Y0142163D01*
X0350945Y0153503D02*
Y0151142D01*
X0349764D01*
X0349371Y0151535D01*
Y0152323D01*
X0349764Y0152716D01*
X0350945D01*
X0350158D02*
X0349371Y0153503D01*
X0348583D02*
X0347796D01*
X0348190D01*
Y0151142D01*
X0348583Y0151535D01*
X0346616D02*
X0346222Y0151142D01*
X0345435D01*
X0345041Y0151535D01*
Y0151929D01*
X0345435Y0152323D01*
X0345828D01*
X0345435D01*
X0345041Y0152716D01*
Y0153110D01*
X0345435Y0153503D01*
X0346222D01*
X0346616Y0153110D01*
X0360197Y0149055D02*
Y0146693D01*
X0359016D01*
X0358623Y0147087D01*
Y0147874D01*
X0359016Y0148267D01*
X0360197D01*
X0359410D02*
X0358623Y0149055D01*
X0357835D02*
X0357048D01*
X0357442D01*
Y0146693D01*
X0357835Y0147087D01*
X0355868Y0149055D02*
X0355080D01*
X0355474D01*
Y0146693D01*
X0355868Y0147087D01*
X0362165Y0136180D02*
X0359804D01*
Y0137361D01*
X0360197Y0137755D01*
X0360984D01*
X0361378Y0137361D01*
Y0136180D01*
Y0136968D02*
X0362165Y0137755D01*
Y0138542D02*
Y0139329D01*
Y0138935D01*
X0359804D01*
X0360197Y0138542D01*
Y0140510D02*
X0359804Y0140903D01*
Y0141691D01*
X0360197Y0142084D01*
X0361772D01*
X0362165Y0141691D01*
Y0140903D01*
X0361772Y0140510D01*
X0360197D01*
X0290315Y0159133D02*
X0287953D01*
Y0160314D01*
X0288347Y0160708D01*
X0289134D01*
X0289528Y0160314D01*
Y0159133D01*
Y0159921D02*
X0290315Y0160708D01*
X0287953Y0163069D02*
X0288347Y0162282D01*
X0289134Y0161495D01*
X0289921D01*
X0290315Y0161888D01*
Y0162675D01*
X0289921Y0163069D01*
X0289528D01*
X0289134Y0162675D01*
Y0161495D01*
X0334409Y0145432D02*
X0332048D01*
Y0146613D01*
X0332441Y0147007D01*
X0333229D01*
X0333622Y0146613D01*
Y0145432D01*
Y0146220D02*
X0334409Y0147007D01*
Y0148975D02*
X0332048D01*
X0333229Y0147794D01*
Y0149368D01*
X0320984Y0150314D02*
Y0147953D01*
X0319804D01*
X0319410Y0148346D01*
Y0149134D01*
X0319804Y0149527D01*
X0320984D01*
X0320197D02*
X0319410Y0150314D01*
X0318623Y0148346D02*
X0318229Y0147953D01*
X0317442D01*
X0317048Y0148346D01*
Y0148740D01*
X0317442Y0149134D01*
X0317836D01*
X0317442D01*
X0317048Y0149527D01*
Y0149921D01*
X0317442Y0150314D01*
X0318229D01*
X0318623Y0149921D01*
X0306575Y0150354D02*
X0306969Y0149961D01*
X0307756D01*
X0308150Y0150354D01*
Y0151929D01*
X0307756Y0152322D01*
X0306969D01*
X0306575Y0151929D01*
X0305788Y0152322D02*
X0305001D01*
X0305395D01*
Y0149961D01*
X0305788Y0150354D01*
X0302246Y0149961D02*
X0303033Y0150354D01*
X0303820Y0151142D01*
Y0151929D01*
X0303427Y0152322D01*
X0302640D01*
X0302246Y0151929D01*
Y0151535D01*
X0302640Y0151142D01*
X0303820D01*
X0340315Y0145059D02*
X0340709Y0144666D01*
X0341496D01*
X0341890Y0145059D01*
Y0146633D01*
X0341496Y0147027D01*
X0340709D01*
X0340315Y0146633D01*
X0339528Y0147027D02*
X0338741D01*
X0339135D01*
Y0144666D01*
X0339528Y0145059D01*
X0336380Y0147027D02*
Y0144666D01*
X0337560Y0145846D01*
X0335986D01*
X0316654Y0185374D02*
X0317048Y0184980D01*
X0317835D01*
X0318228Y0185374D01*
Y0186948D01*
X0317835Y0187342D01*
X0317048D01*
X0316654Y0186948D01*
X0315867Y0187342D02*
X0315080D01*
X0315473D01*
Y0184980D01*
X0315867Y0185374D01*
X0313899D02*
X0313505Y0184980D01*
X0312718D01*
X0312325Y0185374D01*
Y0186948D01*
X0312718Y0187342D01*
X0313505D01*
X0313899Y0186948D01*
Y0185374D01*
X0329272Y0154290D02*
X0328879Y0153897D01*
Y0153110D01*
X0329272Y0152716D01*
X0330847D01*
X0331240Y0153110D01*
Y0153897D01*
X0330847Y0154290D01*
X0328879Y0155077D02*
Y0156652D01*
X0329272D01*
X0330847Y0155077D01*
X0331240D01*
X0327481Y0148307D02*
X0327874Y0147914D01*
X0328661D01*
X0329055Y0148307D01*
Y0149881D01*
X0328661Y0150275D01*
X0327874D01*
X0327481Y0149881D01*
X0326694Y0148307D02*
X0326300Y0147914D01*
X0325513D01*
X0325119Y0148307D01*
Y0148701D01*
X0325513Y0149094D01*
X0325906D01*
X0325513D01*
X0325119Y0149488D01*
Y0149881D01*
X0325513Y0150275D01*
X0326300D01*
X0326694Y0149881D01*
M02*
