G04*
G04 #@! TF.GenerationSoftware,Altium Limited,Altium Designer,19.1.6 (110)*
G04*
G04 Layer_Color=16711935*
%FSAX25Y25*%
%MOIN*%
G70*
G01*
G75*
%ADD40C,0.01575*%
%ADD80C,0.11811*%
%ADD83R,0.02769X0.03162*%
%ADD84R,0.03162X0.02769*%
%ADD86R,0.05524X0.08674*%
%ADD89R,0.03950X0.03950*%
%ADD90R,0.03162X0.03320*%
%ADD91R,0.03950X0.03950*%
%ADD92R,0.03320X0.03162*%
%ADD94C,0.13005*%
%ADD95O,0.07099X0.06312*%
%ADD96C,0.04343*%
%ADD97C,0.06706*%
%ADD98C,0.03950*%
%ADD99C,0.02375*%
%ADD101R,0.10224X0.02877*%
%ADD102R,0.11575X0.08228*%
%ADD103R,0.50268X0.12362*%
%ADD104C,0.03910*%
%ADD105C,0.01417*%
%ADD106R,0.01981X0.02769*%
%ADD107R,0.02769X0.03603*%
%ADD108R,0.06706X0.06706*%
%ADD109R,0.01968X0.01575*%
%ADD110R,0.02375X0.04343*%
%ADD111R,0.06706X0.06706*%
G04:AMPARAMS|DCode=112|XSize=67.06mil|YSize=67.06mil|CornerRadius=9.91mil|HoleSize=0mil|Usage=FLASHONLY|Rotation=360.000|XOffset=0mil|YOffset=0mil|HoleType=Round|Shape=RoundedRectangle|*
%AMROUNDEDRECTD112*
21,1,0.06706,0.04724,0,0,360.0*
21,1,0.04724,0.06706,0,0,360.0*
1,1,0.01981,0.02362,-0.02362*
1,1,0.01981,-0.02362,-0.02362*
1,1,0.01981,-0.02362,0.02362*
1,1,0.01981,0.02362,0.02362*
%
%ADD112ROUNDEDRECTD112*%
%ADD113R,0.02769X0.07493*%
%ADD114R,0.07493X0.02769*%
%ADD115R,0.01194X0.01194*%
%ADD116R,0.01784X0.01883*%
%ADD117R,0.01883X0.01784*%
%ADD118R,0.03241X0.03044*%
%ADD119R,0.04737X0.04737*%
%ADD120R,0.09461X0.04934*%
%ADD121R,0.03162X0.03603*%
%ADD122R,0.42926X0.08674*%
%ADD123R,0.03162X0.05131*%
%ADD124R,0.01981X0.01587*%
%ADD125R,0.01981X0.02572*%
%ADD126R,0.03556X0.07493*%
%ADD127R,0.03603X0.03044*%
%ADD128R,0.03044X0.03603*%
%ADD129R,0.02217X0.01784*%
%ADD130R,0.04737X0.03603*%
%ADD131R,0.05918X0.04343*%
%ADD132R,0.03603X0.03320*%
%ADD133C,0.10642*%
G36*
X0356937Y0329690D02*
X0356962Y0329688D01*
X0356962Y0329688D01*
X0356962D01*
X0356987Y0329683D01*
X0357013Y0329678D01*
X0357013Y0329678D01*
X0357013Y0329678D01*
X0357032Y0329672D01*
X0357063Y0329661D01*
X0357063Y0329661D01*
X0357063Y0329661D01*
X0357084Y0329651D01*
X0357110Y0329638D01*
X0357110Y0329638D01*
X0357110Y0329638D01*
X0357127Y0329626D01*
X0357153Y0329609D01*
X0357153Y0329609D01*
X0357153Y0329609D01*
X0357165Y0329599D01*
X0357193Y0329574D01*
X0357193Y0329574D01*
X0357193Y0329574D01*
X0357217Y0329547D01*
X0357227Y0329535D01*
X0357227Y0329535D01*
X0357227Y0329535D01*
X0357245Y0329509D01*
X0357257Y0329491D01*
X0357257Y0329491D01*
X0357257Y0329491D01*
X0357269Y0329466D01*
X0357280Y0329444D01*
X0357280Y0329444D01*
X0357280Y0329444D01*
X0357290Y0329413D01*
X0357296Y0329395D01*
X0357296Y0329395D01*
X0357297Y0329395D01*
X0357302Y0329369D01*
X0357307Y0329343D01*
Y0329343D01*
X0357307Y0329343D01*
X0357308Y0329318D01*
X0357310Y0329291D01*
X0357310Y0328553D01*
Y0328553D01*
Y0328553D01*
X0357309Y0328525D01*
X0357307Y0328501D01*
X0357307Y0328501D01*
Y0328501D01*
X0357302Y0328475D01*
X0357297Y0328449D01*
X0357297Y0328449D01*
X0357297Y0328449D01*
X0357287Y0328421D01*
X0357280Y0328399D01*
X0357280Y0328399D01*
X0357280Y0328399D01*
X0357265Y0328370D01*
X0357257Y0328352D01*
X0357257Y0328352D01*
X0357257Y0328352D01*
X0357245Y0328335D01*
X0357228Y0328309D01*
X0357227Y0328309D01*
X0357227Y0328309D01*
X0357217Y0328297D01*
X0357193Y0328269D01*
X0357193Y0328269D01*
X0357193Y0328269D01*
X0356848Y0327925D01*
X0356848Y0327925D01*
X0356848Y0327925D01*
X0356809Y0327890D01*
X0356780Y0327871D01*
X0356765Y0327861D01*
X0356765Y0327861D01*
X0356764Y0327860D01*
X0356718Y0327838D01*
X0356716Y0327837D01*
X0356669Y0327821D01*
X0356638Y0327815D01*
X0356617Y0327811D01*
X0356565Y0327807D01*
X0356565D01*
X0355925Y0327807D01*
X0355873Y0327811D01*
X0355852Y0327815D01*
X0355821Y0327821D01*
X0355772Y0327838D01*
X0355725Y0327861D01*
X0355725Y0327861D01*
X0355710Y0327871D01*
X0355681Y0327890D01*
X0355642Y0327925D01*
X0355642Y0327925D01*
X0355642Y0327925D01*
X0355607Y0327964D01*
X0355588Y0327993D01*
X0355578Y0328008D01*
X0355578Y0328008D01*
X0355555Y0328055D01*
X0355538Y0328104D01*
X0355532Y0328135D01*
X0355528Y0328156D01*
X0355524Y0328208D01*
Y0329291D01*
X0355528Y0329343D01*
X0355538Y0329395D01*
X0355555Y0329444D01*
X0355578Y0329491D01*
X0355607Y0329535D01*
X0355642Y0329574D01*
X0355681Y0329609D01*
X0355725Y0329638D01*
X0355772Y0329661D01*
X0355821Y0329678D01*
X0355873Y0329688D01*
X0355925Y0329692D01*
X0356909D01*
X0356937Y0329690D01*
D02*
G37*
G36*
Y0236776D02*
X0356962Y0236775D01*
X0356962Y0236775D01*
X0356962D01*
X0356987Y0236770D01*
X0357013Y0236765D01*
X0357013Y0236765D01*
X0357013Y0236765D01*
X0357032Y0236758D01*
X0357063Y0236748D01*
X0357063Y0236748D01*
X0357063Y0236748D01*
X0357084Y0236737D01*
X0357110Y0236725D01*
X0357110Y0236725D01*
X0357110Y0236725D01*
X0357127Y0236713D01*
X0357153Y0236696D01*
X0357153Y0236695D01*
X0357153Y0236695D01*
X0357165Y0236685D01*
X0357193Y0236661D01*
X0357193Y0236661D01*
X0357193Y0236661D01*
X0357217Y0236633D01*
X0357227Y0236621D01*
X0357227Y0236621D01*
X0357227Y0236621D01*
X0357245Y0236596D01*
X0357257Y0236578D01*
X0357257Y0236578D01*
X0357257Y0236578D01*
X0357269Y0236552D01*
X0357280Y0236531D01*
X0357280Y0236531D01*
X0357280Y0236531D01*
X0357290Y0236500D01*
X0357296Y0236481D01*
X0357296Y0236481D01*
X0357297Y0236481D01*
X0357302Y0236455D01*
X0357307Y0236430D01*
Y0236430D01*
X0357307Y0236430D01*
X0357308Y0236405D01*
X0357310Y0236378D01*
X0357310Y0235640D01*
Y0235639D01*
Y0235639D01*
X0357309Y0235612D01*
X0357307Y0235587D01*
X0357307Y0235587D01*
Y0235587D01*
X0357302Y0235562D01*
X0357297Y0235536D01*
X0357297Y0235536D01*
X0357297Y0235536D01*
X0357287Y0235507D01*
X0357280Y0235486D01*
X0357280Y0235486D01*
X0357280Y0235486D01*
X0357265Y0235456D01*
X0357257Y0235439D01*
X0357257Y0235439D01*
X0357257Y0235439D01*
X0357245Y0235421D01*
X0357228Y0235395D01*
X0357227Y0235395D01*
X0357227Y0235395D01*
X0357217Y0235384D01*
X0357193Y0235356D01*
X0357193Y0235356D01*
X0357193Y0235356D01*
X0356848Y0235011D01*
X0356848Y0235011D01*
X0356848Y0235011D01*
X0356809Y0234977D01*
X0356780Y0234957D01*
X0356765Y0234948D01*
X0356765Y0234947D01*
X0356764Y0234947D01*
X0356718Y0234924D01*
X0356716Y0234924D01*
X0356669Y0234908D01*
X0356638Y0234901D01*
X0356617Y0234897D01*
X0356565Y0234894D01*
X0356565D01*
X0355925Y0234894D01*
X0355873Y0234897D01*
X0355852Y0234901D01*
X0355821Y0234908D01*
X0355772Y0234924D01*
X0355725Y0234948D01*
X0355725Y0234948D01*
X0355710Y0234957D01*
X0355681Y0234977D01*
X0355642Y0235011D01*
X0355642Y0235011D01*
X0355642Y0235011D01*
X0355607Y0235051D01*
X0355588Y0235080D01*
X0355578Y0235094D01*
X0355578Y0235094D01*
X0355555Y0235141D01*
X0355538Y0235191D01*
X0355532Y0235222D01*
X0355528Y0235242D01*
X0355524Y0235295D01*
Y0236377D01*
X0355528Y0236430D01*
X0355538Y0236481D01*
X0355555Y0236531D01*
X0355578Y0236578D01*
X0355607Y0236621D01*
X0355642Y0236661D01*
X0355681Y0236695D01*
X0355725Y0236725D01*
X0355772Y0236748D01*
X0355821Y0236765D01*
X0355873Y0236775D01*
X0355925Y0236778D01*
X0356909D01*
X0356937Y0236776D01*
D02*
G37*
G36*
Y0143863D02*
X0356962Y0143861D01*
X0356962Y0143861D01*
X0356962D01*
X0356987Y0143856D01*
X0357013Y0143851D01*
X0357013Y0143851D01*
X0357013Y0143851D01*
X0357032Y0143845D01*
X0357063Y0143834D01*
X0357063Y0143834D01*
X0357063Y0143834D01*
X0357084Y0143824D01*
X0357110Y0143811D01*
X0357110Y0143811D01*
X0357110Y0143811D01*
X0357127Y0143799D01*
X0357153Y0143782D01*
X0357153Y0143782D01*
X0357153Y0143782D01*
X0357165Y0143772D01*
X0357193Y0143747D01*
X0357193Y0143747D01*
X0357193Y0143747D01*
X0357217Y0143720D01*
X0357227Y0143708D01*
X0357227Y0143708D01*
X0357227Y0143708D01*
X0357245Y0143682D01*
X0357257Y0143665D01*
X0357257Y0143665D01*
X0357257Y0143664D01*
X0357269Y0143639D01*
X0357280Y0143617D01*
X0357280Y0143617D01*
X0357280Y0143617D01*
X0357290Y0143587D01*
X0357296Y0143568D01*
X0357296Y0143568D01*
X0357297Y0143568D01*
X0357302Y0143542D01*
X0357307Y0143516D01*
Y0143516D01*
X0357307Y0143516D01*
X0357308Y0143491D01*
X0357310Y0143464D01*
X0357310Y0142726D01*
Y0142726D01*
Y0142726D01*
X0357309Y0142699D01*
X0357307Y0142674D01*
X0357307Y0142674D01*
Y0142674D01*
X0357302Y0142648D01*
X0357297Y0142622D01*
X0357297Y0142622D01*
X0357297Y0142622D01*
X0357287Y0142594D01*
X0357280Y0142573D01*
X0357280Y0142573D01*
X0357280Y0142573D01*
X0357265Y0142543D01*
X0357257Y0142526D01*
X0357257Y0142526D01*
X0357257Y0142525D01*
X0357245Y0142508D01*
X0357228Y0142482D01*
X0357227Y0142482D01*
X0357227Y0142482D01*
X0357217Y0142470D01*
X0357193Y0142443D01*
X0357193Y0142443D01*
X0357193Y0142443D01*
X0356848Y0142098D01*
X0356848Y0142098D01*
X0356848Y0142098D01*
X0356809Y0142063D01*
X0356780Y0142044D01*
X0356765Y0142034D01*
X0356765Y0142034D01*
X0356764Y0142034D01*
X0356718Y0142011D01*
X0356716Y0142010D01*
X0356669Y0141994D01*
X0356638Y0141988D01*
X0356617Y0141984D01*
X0356565Y0141980D01*
X0356565D01*
X0355925Y0141981D01*
X0355873Y0141984D01*
X0355852Y0141988D01*
X0355821Y0141994D01*
X0355772Y0142011D01*
X0355725Y0142034D01*
X0355725Y0142034D01*
X0355710Y0142044D01*
X0355681Y0142063D01*
X0355642Y0142098D01*
X0355642Y0142098D01*
X0355642Y0142098D01*
X0355607Y0142137D01*
X0355588Y0142166D01*
X0355578Y0142181D01*
X0355578Y0142181D01*
X0355555Y0142228D01*
X0355538Y0142278D01*
X0355532Y0142309D01*
X0355528Y0142329D01*
X0355524Y0142381D01*
Y0143464D01*
X0355528Y0143516D01*
X0355538Y0143568D01*
X0355555Y0143617D01*
X0355578Y0143664D01*
X0355607Y0143708D01*
X0355642Y0143747D01*
X0355681Y0143782D01*
X0355725Y0143811D01*
X0355772Y0143834D01*
X0355821Y0143851D01*
X0355873Y0143861D01*
X0355925Y0143865D01*
X0356909D01*
X0356937Y0143863D01*
D02*
G37*
D40*
X0231299Y0148622D02*
D03*
X0232874D02*
D03*
X0234449D02*
D03*
X0231299Y0147047D02*
D03*
X0232874D02*
D03*
X0234449D02*
D03*
X0233937Y0156417D02*
D03*
Y0158386D02*
D03*
Y0160354D02*
D03*
Y0162323D02*
D03*
Y0164291D02*
D03*
Y0166260D02*
D03*
Y0168228D02*
D03*
Y0170197D02*
D03*
Y0172165D02*
D03*
X0218189Y0156417D02*
D03*
X0220158D02*
D03*
X0222126D02*
D03*
X0224095D02*
D03*
X0226063D02*
D03*
X0228031D02*
D03*
X0230000D02*
D03*
X0231968D02*
D03*
X0218189Y0158386D02*
D03*
Y0160354D02*
D03*
X0222126D02*
D03*
X0224095D02*
D03*
X0226063D02*
D03*
X0228031D02*
D03*
X0230000D02*
D03*
X0218189Y0162323D02*
D03*
X0222126D02*
D03*
X0224095D02*
D03*
X0228031D02*
D03*
X0230000D02*
D03*
X0218189Y0164291D02*
D03*
X0222126D02*
D03*
X0230000D02*
D03*
X0218189Y0166260D02*
D03*
X0224095D02*
D03*
X0228031D02*
D03*
X0230000D02*
D03*
X0218189Y0168228D02*
D03*
X0222126D02*
D03*
X0224095D02*
D03*
X0226063D02*
D03*
X0228031D02*
D03*
X0230000D02*
D03*
X0218189Y0170197D02*
D03*
Y0172165D02*
D03*
X0220158D02*
D03*
X0222126D02*
D03*
X0224095D02*
D03*
X0226063D02*
D03*
X0228031D02*
D03*
X0230000D02*
D03*
X0231968D02*
D03*
X0231299Y0241535D02*
D03*
X0232874D02*
D03*
X0234449D02*
D03*
X0231299Y0239961D02*
D03*
X0232874D02*
D03*
X0234449D02*
D03*
X0233937Y0249331D02*
D03*
Y0251299D02*
D03*
Y0253268D02*
D03*
Y0255236D02*
D03*
Y0257205D02*
D03*
Y0259173D02*
D03*
Y0261142D02*
D03*
Y0263110D02*
D03*
Y0265079D02*
D03*
X0218189Y0249331D02*
D03*
X0220158D02*
D03*
X0222126D02*
D03*
X0224095D02*
D03*
X0226063D02*
D03*
X0228031D02*
D03*
X0230000D02*
D03*
X0231968D02*
D03*
X0218189Y0251299D02*
D03*
Y0253268D02*
D03*
X0222126D02*
D03*
X0224095D02*
D03*
X0226063D02*
D03*
X0228031D02*
D03*
X0230000D02*
D03*
X0218189Y0255236D02*
D03*
X0222126D02*
D03*
X0224095D02*
D03*
X0228031D02*
D03*
X0230000D02*
D03*
X0218189Y0257205D02*
D03*
X0222126D02*
D03*
X0230000D02*
D03*
X0218189Y0259173D02*
D03*
X0224095D02*
D03*
X0228031D02*
D03*
X0230000D02*
D03*
X0218189Y0261142D02*
D03*
X0222126D02*
D03*
X0224095D02*
D03*
X0226063D02*
D03*
X0228031D02*
D03*
X0230000D02*
D03*
X0218189Y0263110D02*
D03*
Y0265079D02*
D03*
X0220158D02*
D03*
X0222126D02*
D03*
X0224095D02*
D03*
X0226063D02*
D03*
X0228031D02*
D03*
X0230000D02*
D03*
X0231968D02*
D03*
X0231299Y0334449D02*
D03*
X0232874D02*
D03*
X0234449D02*
D03*
X0231299Y0332874D02*
D03*
X0232874D02*
D03*
X0234449D02*
D03*
X0233937Y0342244D02*
D03*
Y0344213D02*
D03*
Y0346181D02*
D03*
Y0348150D02*
D03*
Y0350118D02*
D03*
Y0352087D02*
D03*
Y0354055D02*
D03*
Y0356024D02*
D03*
Y0357992D02*
D03*
X0218189Y0342244D02*
D03*
X0220158D02*
D03*
X0222126D02*
D03*
X0224095D02*
D03*
X0226063D02*
D03*
X0228031D02*
D03*
X0230000D02*
D03*
X0231968D02*
D03*
X0218189Y0344213D02*
D03*
Y0346181D02*
D03*
X0222126D02*
D03*
X0224095D02*
D03*
X0226063D02*
D03*
X0228031D02*
D03*
X0230000D02*
D03*
X0218189Y0348150D02*
D03*
X0222126D02*
D03*
X0224095D02*
D03*
X0228031D02*
D03*
X0230000D02*
D03*
X0218189Y0350118D02*
D03*
X0222126D02*
D03*
X0230000D02*
D03*
X0218189Y0352087D02*
D03*
X0224095D02*
D03*
X0228031D02*
D03*
X0230000D02*
D03*
X0218189Y0354055D02*
D03*
X0222126D02*
D03*
X0224095D02*
D03*
X0226063D02*
D03*
X0228031D02*
D03*
X0230000D02*
D03*
X0218189Y0356024D02*
D03*
Y0357992D02*
D03*
X0220158D02*
D03*
X0222126D02*
D03*
X0224095D02*
D03*
X0226063D02*
D03*
X0228031D02*
D03*
X0230000D02*
D03*
X0231968D02*
D03*
D80*
X0454725Y0113189D02*
D03*
X0126181Y0402362D02*
D03*
D83*
X0337598Y0371181D02*
D03*
X0341535D02*
D03*
X0331063Y0378228D02*
D03*
X0327126D02*
D03*
X0346654Y0341141D02*
D03*
X0350590D02*
D03*
X0359842Y0332677D02*
D03*
X0355905D02*
D03*
X0348819Y0329370D02*
D03*
X0344882D02*
D03*
X0337598Y0278267D02*
D03*
X0341535D02*
D03*
X0331063Y0285314D02*
D03*
X0327126D02*
D03*
X0346654Y0248228D02*
D03*
X0350590D02*
D03*
X0359842Y0239763D02*
D03*
X0355905D02*
D03*
X0348819Y0236456D02*
D03*
X0344882D02*
D03*
X0337598Y0185354D02*
D03*
X0341535D02*
D03*
X0331063Y0192401D02*
D03*
X0327126D02*
D03*
X0346654Y0155314D02*
D03*
X0350590D02*
D03*
X0359842Y0146850D02*
D03*
X0355905D02*
D03*
X0348819Y0143543D02*
D03*
X0344882D02*
D03*
X0238172Y0184919D02*
D03*
X0234235D02*
D03*
X0233937Y0152559D02*
D03*
X0230000D02*
D03*
X0234245Y0193669D02*
D03*
X0238182D02*
D03*
X0166732Y0147441D02*
D03*
X0162795D02*
D03*
X0244291Y0173425D02*
D03*
X0240354D02*
D03*
X0189803Y0134488D02*
D03*
X0193740D02*
D03*
X0238172Y0277832D02*
D03*
X0234235D02*
D03*
X0233937Y0245473D02*
D03*
X0230000D02*
D03*
X0234245Y0286582D02*
D03*
X0238182D02*
D03*
X0166732Y0240354D02*
D03*
X0162795D02*
D03*
X0244291Y0266339D02*
D03*
X0240354D02*
D03*
X0189803Y0227402D02*
D03*
X0193740D02*
D03*
X0238172Y0370746D02*
D03*
X0234235D02*
D03*
X0233937Y0338386D02*
D03*
X0230000D02*
D03*
X0234245Y0379496D02*
D03*
X0238182D02*
D03*
X0166732Y0333268D02*
D03*
X0162795D02*
D03*
X0244291Y0359252D02*
D03*
X0240354D02*
D03*
X0189803Y0320315D02*
D03*
X0193740D02*
D03*
D84*
X0347046Y0379071D02*
D03*
Y0375134D02*
D03*
X0335433Y0375787D02*
D03*
Y0379724D02*
D03*
X0347046Y0286158D02*
D03*
Y0282221D02*
D03*
X0335433Y0282874D02*
D03*
Y0286810D02*
D03*
X0347046Y0193244D02*
D03*
Y0189307D02*
D03*
X0335433Y0189960D02*
D03*
Y0193897D02*
D03*
X0172638Y0143504D02*
D03*
Y0147441D02*
D03*
Y0135630D02*
D03*
Y0139567D02*
D03*
X0161221Y0139173D02*
D03*
Y0143110D02*
D03*
X0225494Y0151513D02*
D03*
Y0147575D02*
D03*
X0211221Y0154134D02*
D03*
Y0158071D02*
D03*
X0172638Y0236417D02*
D03*
Y0240354D02*
D03*
Y0228543D02*
D03*
Y0232480D02*
D03*
X0161221Y0232087D02*
D03*
Y0236024D02*
D03*
X0225494Y0244426D02*
D03*
Y0240489D02*
D03*
X0211221Y0247047D02*
D03*
Y0250984D02*
D03*
X0172638Y0329331D02*
D03*
Y0333268D02*
D03*
Y0321457D02*
D03*
Y0325394D02*
D03*
X0161221Y0325000D02*
D03*
Y0328937D02*
D03*
X0225494Y0337339D02*
D03*
Y0333402D02*
D03*
X0211221Y0339961D02*
D03*
Y0343898D02*
D03*
D86*
X0155315Y0127756D02*
D03*
X0164370D02*
D03*
X0173425D02*
D03*
X0182480D02*
D03*
X0191535D02*
D03*
X0200591D02*
D03*
X0155315Y0220669D02*
D03*
X0164370D02*
D03*
X0173425D02*
D03*
X0182480D02*
D03*
X0191535D02*
D03*
X0200591D02*
D03*
X0155315Y0313583D02*
D03*
X0164370D02*
D03*
X0173425D02*
D03*
X0182480D02*
D03*
X0191535D02*
D03*
X0200591D02*
D03*
D89*
X0277008Y0342204D02*
D03*
Y0348110D02*
D03*
Y0249291D02*
D03*
Y0255196D02*
D03*
Y0156377D02*
D03*
Y0162283D02*
D03*
X0217677Y0141417D02*
D03*
Y0135512D02*
D03*
X0223780Y0141457D02*
D03*
Y0135551D02*
D03*
X0217677Y0234331D02*
D03*
Y0228425D02*
D03*
X0223780Y0234370D02*
D03*
Y0228465D02*
D03*
X0217677Y0327244D02*
D03*
Y0321339D02*
D03*
X0223780Y0327284D02*
D03*
Y0321378D02*
D03*
D90*
X0242165Y0164764D02*
D03*
X0238386D02*
D03*
X0242165Y0169095D02*
D03*
X0238386D02*
D03*
X0242165Y0160354D02*
D03*
X0238386D02*
D03*
X0198087Y0172402D02*
D03*
Y0183819D02*
D03*
X0238233Y0189339D02*
D03*
X0234454D02*
D03*
X0242165Y0257677D02*
D03*
X0238386D02*
D03*
X0242165Y0262008D02*
D03*
X0238386D02*
D03*
X0242165Y0253268D02*
D03*
X0238386D02*
D03*
X0198087Y0265315D02*
D03*
Y0276732D02*
D03*
X0238233Y0282252D02*
D03*
X0234454D02*
D03*
X0242165Y0350591D02*
D03*
X0238386D02*
D03*
X0242165Y0354921D02*
D03*
X0238386D02*
D03*
X0242165Y0346181D02*
D03*
X0238386D02*
D03*
X0198087Y0358228D02*
D03*
Y0369646D02*
D03*
X0238233Y0375166D02*
D03*
X0234454D02*
D03*
D91*
X0343149Y0320944D02*
D03*
X0349055D02*
D03*
X0343149Y0228031D02*
D03*
X0349055D02*
D03*
X0343149Y0135118D02*
D03*
X0349055D02*
D03*
X0239252Y0155000D02*
D03*
X0245158D02*
D03*
X0239213Y0148819D02*
D03*
X0245118D02*
D03*
X0239252Y0247914D02*
D03*
X0245158D02*
D03*
X0239213Y0241732D02*
D03*
X0245118D02*
D03*
X0239252Y0340827D02*
D03*
X0245158D02*
D03*
X0239213Y0334646D02*
D03*
X0245118D02*
D03*
D92*
X0355472Y0368464D02*
D03*
Y0372244D02*
D03*
X0322913Y0380196D02*
D03*
Y0376417D02*
D03*
X0284606Y0375905D02*
D03*
Y0372126D02*
D03*
X0282677Y0351692D02*
D03*
Y0347913D02*
D03*
Y0336889D02*
D03*
Y0340669D02*
D03*
X0355472Y0275551D02*
D03*
Y0279330D02*
D03*
X0322913Y0287283D02*
D03*
Y0283503D02*
D03*
X0284606Y0282992D02*
D03*
Y0279212D02*
D03*
X0282677Y0258779D02*
D03*
Y0254999D02*
D03*
Y0243976D02*
D03*
Y0247755D02*
D03*
X0355472Y0182637D02*
D03*
Y0186417D02*
D03*
X0322913Y0194369D02*
D03*
Y0190590D02*
D03*
X0284606Y0190078D02*
D03*
Y0186299D02*
D03*
X0282677Y0165866D02*
D03*
Y0162086D02*
D03*
Y0151062D02*
D03*
Y0154842D02*
D03*
X0229173Y0137717D02*
D03*
Y0141496D02*
D03*
Y0230630D02*
D03*
Y0234409D02*
D03*
Y0323543D02*
D03*
Y0327323D02*
D03*
D94*
X0424410Y0113189D02*
D03*
X0422244Y0402559D02*
D03*
X0150787Y0112992D02*
D03*
X0153740Y0402362D02*
D03*
D95*
X0364445Y0363275D02*
D03*
Y0270361D02*
D03*
Y0177448D02*
D03*
D96*
X0429587Y0335551D02*
D03*
X0433587Y0355551D02*
D03*
X0425587D02*
D03*
X0429587Y0242637D02*
D03*
X0433587Y0262637D02*
D03*
X0425587D02*
D03*
X0429587Y0149724D02*
D03*
X0433587Y0169724D02*
D03*
X0425587D02*
D03*
D97*
X0368110Y0345866D02*
D03*
X0269701Y0365551D02*
D03*
Y0326181D02*
D03*
X0410827Y0357677D02*
D03*
Y0334055D02*
D03*
X0368110Y0252952D02*
D03*
X0269701Y0272637D02*
D03*
Y0233267D02*
D03*
X0410827Y0264763D02*
D03*
Y0241141D02*
D03*
X0368110Y0160039D02*
D03*
X0269701Y0179724D02*
D03*
Y0140354D02*
D03*
X0410827Y0171850D02*
D03*
Y0148228D02*
D03*
D98*
X0338346Y0320708D02*
D03*
X0298976D02*
D03*
X0338346Y0227795D02*
D03*
X0298976D02*
D03*
X0338346Y0134881D02*
D03*
X0298976D02*
D03*
D99*
X0362402Y0383464D02*
D03*
X0359449D02*
D03*
X0356496D02*
D03*
X0356496Y0314566D02*
D03*
X0359449D02*
D03*
X0362402D02*
D03*
X0294488D02*
D03*
X0291535D02*
D03*
X0288583D02*
D03*
X0288583Y0383464D02*
D03*
X0291535D02*
D03*
X0294488D02*
D03*
X0362402Y0290551D02*
D03*
X0359449D02*
D03*
X0356496D02*
D03*
X0356496Y0221653D02*
D03*
X0359449D02*
D03*
X0362402D02*
D03*
X0294488D02*
D03*
X0291535D02*
D03*
X0288583D02*
D03*
X0288583Y0290551D02*
D03*
X0291535D02*
D03*
X0294488D02*
D03*
X0362402Y0197637D02*
D03*
X0359449D02*
D03*
X0356496D02*
D03*
X0356496Y0128740D02*
D03*
X0359449D02*
D03*
X0362402D02*
D03*
X0294488D02*
D03*
X0291535D02*
D03*
X0288583D02*
D03*
X0288583Y0197637D02*
D03*
X0291535D02*
D03*
X0294488D02*
D03*
D101*
X0367801Y0363328D02*
D03*
Y0270414D02*
D03*
Y0177501D02*
D03*
D102*
X0144961Y0127925D02*
D03*
Y0220838D02*
D03*
Y0313752D02*
D03*
D103*
X0164307Y0196378D02*
D03*
Y0289291D02*
D03*
Y0382205D02*
D03*
D104*
X0427086Y0340551D02*
D03*
X0432087D02*
D03*
X0427086Y0345551D02*
D03*
X0432087D02*
D03*
X0427086Y0350866D02*
D03*
X0432087Y0350551D02*
D03*
X0427086Y0247637D02*
D03*
X0432087D02*
D03*
X0427086Y0252637D02*
D03*
X0432087D02*
D03*
X0427086Y0257952D02*
D03*
X0432087Y0257637D02*
D03*
X0427086Y0154724D02*
D03*
X0432087D02*
D03*
X0427086Y0159724D02*
D03*
X0432087D02*
D03*
X0427086Y0165039D02*
D03*
X0432087Y0164724D02*
D03*
D105*
X0352086Y0370747D02*
D03*
Y0372322D02*
D03*
X0350512Y0370747D02*
D03*
Y0372322D02*
D03*
X0348937Y0370747D02*
D03*
Y0372322D02*
D03*
X0352086Y0277834D02*
D03*
Y0279409D02*
D03*
X0350512Y0277834D02*
D03*
Y0279409D02*
D03*
X0348937Y0277834D02*
D03*
Y0279409D02*
D03*
X0352086Y0184921D02*
D03*
Y0186495D02*
D03*
X0350512Y0184921D02*
D03*
Y0186495D02*
D03*
X0348937Y0184921D02*
D03*
Y0186495D02*
D03*
D106*
X0346102Y0367244D02*
D03*
X0343937D02*
D03*
X0341772D02*
D03*
X0343937Y0363307D02*
D03*
X0346102Y0274330D02*
D03*
X0343937D02*
D03*
X0341772D02*
D03*
X0343937Y0270393D02*
D03*
X0346102Y0181417D02*
D03*
X0343937D02*
D03*
X0341772D02*
D03*
X0343937Y0177480D02*
D03*
D107*
X0346496Y0363307D02*
D03*
X0341378D02*
D03*
X0346496Y0270393D02*
D03*
X0341378D02*
D03*
X0346496Y0177480D02*
D03*
X0341378D02*
D03*
D108*
X0269331Y0357677D02*
D03*
Y0349803D02*
D03*
Y0341929D02*
D03*
Y0334055D02*
D03*
Y0264763D02*
D03*
Y0256889D02*
D03*
Y0249015D02*
D03*
Y0241141D02*
D03*
Y0171850D02*
D03*
Y0163976D02*
D03*
Y0156102D02*
D03*
Y0148228D02*
D03*
D109*
X0339959Y0378874D02*
D03*
Y0377299D02*
D03*
Y0375725D02*
D03*
X0343503Y0378874D02*
D03*
Y0377299D02*
D03*
Y0375725D02*
D03*
X0339959Y0285961D02*
D03*
Y0284386D02*
D03*
Y0282811D02*
D03*
X0343503Y0285961D02*
D03*
Y0284386D02*
D03*
Y0282811D02*
D03*
X0339959Y0193047D02*
D03*
Y0191473D02*
D03*
Y0189898D02*
D03*
X0343503Y0193047D02*
D03*
Y0191473D02*
D03*
Y0189898D02*
D03*
D110*
X0280394Y0375826D02*
D03*
X0277835D02*
D03*
X0275275D02*
D03*
Y0370708D02*
D03*
X0277835D02*
D03*
X0280394D02*
D03*
Y0282913D02*
D03*
X0277835D02*
D03*
X0275275D02*
D03*
Y0277795D02*
D03*
X0277835D02*
D03*
X0280394D02*
D03*
Y0189999D02*
D03*
X0277835D02*
D03*
X0275275D02*
D03*
Y0184881D02*
D03*
X0277835D02*
D03*
X0280394D02*
D03*
D111*
X0321701Y0358976D02*
D03*
X0311858D02*
D03*
X0301917D02*
D03*
X0321701Y0349133D02*
D03*
X0311858D02*
D03*
X0302016D02*
D03*
X0321701Y0339291D02*
D03*
X0311858Y0339291D02*
D03*
X0321701Y0266062D02*
D03*
X0311858D02*
D03*
X0301917D02*
D03*
X0321701Y0256220D02*
D03*
X0311858D02*
D03*
X0302016D02*
D03*
X0321701Y0246377D02*
D03*
X0311858Y0246377D02*
D03*
X0321701Y0173149D02*
D03*
X0311858D02*
D03*
X0301917D02*
D03*
X0321701Y0163306D02*
D03*
X0311858D02*
D03*
X0302016D02*
D03*
X0321701Y0153464D02*
D03*
X0311858Y0153464D02*
D03*
D112*
X0302016Y0339291D02*
D03*
Y0246377D02*
D03*
Y0153464D02*
D03*
D113*
X0294528Y0327657D02*
D03*
X0297716D02*
D03*
X0300866D02*
D03*
X0304016D02*
D03*
X0307165D02*
D03*
X0310315D02*
D03*
X0313464D02*
D03*
X0316614D02*
D03*
X0319764D02*
D03*
X0322913D02*
D03*
X0326024D02*
D03*
X0329212D02*
D03*
X0329370Y0370590D02*
D03*
X0326059Y0370590D02*
D03*
X0322882D02*
D03*
X0319732Y0370586D02*
D03*
X0316583Y0370586D02*
D03*
X0313433Y0370590D02*
D03*
X0310283D02*
D03*
X0307134Y0370590D02*
D03*
X0303984Y0370590D02*
D03*
X0300835Y0370590D02*
D03*
X0297685D02*
D03*
X0294528D02*
D03*
Y0234744D02*
D03*
X0297716D02*
D03*
X0300866D02*
D03*
X0304016D02*
D03*
X0307165D02*
D03*
X0310315D02*
D03*
X0313464D02*
D03*
X0316614D02*
D03*
X0319764D02*
D03*
X0322913D02*
D03*
X0326024D02*
D03*
X0329212D02*
D03*
X0329370Y0277677D02*
D03*
X0326059Y0277677D02*
D03*
X0322882D02*
D03*
X0319732Y0277673D02*
D03*
X0316583Y0277673D02*
D03*
X0313433Y0277677D02*
D03*
X0310283D02*
D03*
X0307134Y0277677D02*
D03*
X0303984Y0277677D02*
D03*
X0300835Y0277677D02*
D03*
X0297685D02*
D03*
X0294528D02*
D03*
Y0141830D02*
D03*
X0297716D02*
D03*
X0300866D02*
D03*
X0304016D02*
D03*
X0307165D02*
D03*
X0310315D02*
D03*
X0313464D02*
D03*
X0316614D02*
D03*
X0319764D02*
D03*
X0322913D02*
D03*
X0326024D02*
D03*
X0329212D02*
D03*
X0329370Y0184763D02*
D03*
X0326059Y0184763D02*
D03*
X0322882D02*
D03*
X0319732Y0184759D02*
D03*
X0316583Y0184759D02*
D03*
X0313433Y0184763D02*
D03*
X0310283D02*
D03*
X0307134Y0184763D02*
D03*
X0303984Y0184763D02*
D03*
X0300835Y0184763D02*
D03*
X0297685D02*
D03*
X0294528D02*
D03*
D114*
X0335079Y0331791D02*
D03*
Y0334940D02*
D03*
Y0338129D02*
D03*
Y0341240D02*
D03*
Y0344389D02*
D03*
Y0347578D02*
D03*
X0335086Y0350708D02*
D03*
X0335086Y0353858D02*
D03*
X0335086Y0357007D02*
D03*
X0335086Y0360145D02*
D03*
X0335086Y0363303D02*
D03*
Y0366456D02*
D03*
X0288622Y0366437D02*
D03*
Y0363326D02*
D03*
Y0360137D02*
D03*
Y0357027D02*
D03*
Y0353877D02*
D03*
Y0350689D02*
D03*
Y0347578D02*
D03*
Y0344429D02*
D03*
Y0341279D02*
D03*
Y0338129D02*
D03*
Y0334940D02*
D03*
Y0331791D02*
D03*
X0335079Y0238877D02*
D03*
Y0242027D02*
D03*
Y0245216D02*
D03*
Y0248326D02*
D03*
Y0251476D02*
D03*
Y0254665D02*
D03*
X0335086Y0257795D02*
D03*
X0335086Y0260944D02*
D03*
X0335086Y0264094D02*
D03*
X0335086Y0267232D02*
D03*
X0335086Y0270389D02*
D03*
Y0273543D02*
D03*
X0288622Y0273523D02*
D03*
Y0270413D02*
D03*
Y0267224D02*
D03*
Y0264114D02*
D03*
Y0260964D02*
D03*
Y0257775D02*
D03*
Y0254665D02*
D03*
Y0251515D02*
D03*
Y0248366D02*
D03*
Y0245216D02*
D03*
Y0242027D02*
D03*
Y0238877D02*
D03*
X0335079Y0145964D02*
D03*
Y0149114D02*
D03*
Y0152303D02*
D03*
Y0155413D02*
D03*
Y0158562D02*
D03*
Y0161751D02*
D03*
X0335086Y0164881D02*
D03*
X0335086Y0168031D02*
D03*
X0335086Y0171180D02*
D03*
X0335086Y0174318D02*
D03*
X0335086Y0177476D02*
D03*
Y0180629D02*
D03*
X0288622Y0180610D02*
D03*
Y0177499D02*
D03*
Y0174311D02*
D03*
Y0171200D02*
D03*
Y0168051D02*
D03*
Y0164862D02*
D03*
Y0161751D02*
D03*
Y0158602D02*
D03*
Y0155452D02*
D03*
Y0152303D02*
D03*
Y0149114D02*
D03*
Y0145964D02*
D03*
D115*
X0356417Y0328740D02*
D03*
Y0235826D02*
D03*
Y0142913D02*
D03*
D116*
X0358386Y0328740D02*
D03*
X0360354D02*
D03*
X0362323D02*
D03*
Y0322834D02*
D03*
X0360354D02*
D03*
X0358386D02*
D03*
X0356417D02*
D03*
X0358386Y0235826D02*
D03*
X0360354D02*
D03*
X0362323D02*
D03*
Y0229921D02*
D03*
X0360354D02*
D03*
X0358386D02*
D03*
X0356417D02*
D03*
X0358386Y0142913D02*
D03*
X0360354D02*
D03*
X0362323D02*
D03*
Y0137007D02*
D03*
X0360354D02*
D03*
X0358386D02*
D03*
X0356417D02*
D03*
D117*
X0362323Y0326771D02*
D03*
X0362323Y0324803D02*
D03*
X0356417D02*
D03*
Y0326771D02*
D03*
X0362323Y0233858D02*
D03*
X0362323Y0231889D02*
D03*
X0356417D02*
D03*
Y0233858D02*
D03*
X0362323Y0140944D02*
D03*
X0362323Y0138976D02*
D03*
X0356417D02*
D03*
Y0140944D02*
D03*
D118*
X0359567Y0359330D02*
D03*
Y0363031D02*
D03*
X0348622Y0359330D02*
D03*
Y0363031D02*
D03*
X0359567Y0266417D02*
D03*
Y0270118D02*
D03*
X0348622Y0266417D02*
D03*
Y0270118D02*
D03*
X0359567Y0173503D02*
D03*
Y0177204D02*
D03*
X0348622Y0173503D02*
D03*
Y0177204D02*
D03*
D119*
X0372551Y0363307D02*
D03*
Y0270393D02*
D03*
Y0177480D02*
D03*
D120*
X0366646Y0357500D02*
D03*
Y0369114D02*
D03*
Y0264586D02*
D03*
Y0276200D02*
D03*
Y0171673D02*
D03*
Y0183287D02*
D03*
X0216041Y0182518D02*
D03*
Y0194132D02*
D03*
Y0275432D02*
D03*
Y0287046D02*
D03*
Y0368345D02*
D03*
Y0379959D02*
D03*
D121*
X0356102Y0363307D02*
D03*
X0352323D02*
D03*
X0356102Y0270393D02*
D03*
X0352323D02*
D03*
X0356102Y0177480D02*
D03*
X0352323D02*
D03*
X0200178Y0188336D02*
D03*
X0196399D02*
D03*
X0200178Y0281250D02*
D03*
X0196399D02*
D03*
X0200178Y0374163D02*
D03*
X0196399D02*
D03*
D122*
X0227957Y0127756D02*
D03*
Y0220669D02*
D03*
Y0313583D02*
D03*
D123*
X0221378Y0151850D02*
D03*
X0215866D02*
D03*
X0221378Y0244764D02*
D03*
X0215866D02*
D03*
X0221378Y0337677D02*
D03*
X0215866D02*
D03*
D124*
X0228764Y0183550D02*
D03*
Y0185519D02*
D03*
Y0187487D02*
D03*
X0226402D02*
D03*
Y0185519D02*
D03*
Y0183550D02*
D03*
X0228764Y0276464D02*
D03*
Y0278432D02*
D03*
Y0280401D02*
D03*
X0226402D02*
D03*
Y0278432D02*
D03*
Y0276464D02*
D03*
X0228764Y0369377D02*
D03*
Y0371346D02*
D03*
Y0373314D02*
D03*
X0226402D02*
D03*
Y0371346D02*
D03*
Y0369377D02*
D03*
D125*
X0164803Y0138366D02*
D03*
X0166772D02*
D03*
X0168740D02*
D03*
X0164803Y0143681D02*
D03*
X0166772D02*
D03*
X0168740D02*
D03*
X0164803Y0231280D02*
D03*
X0166772D02*
D03*
X0168740D02*
D03*
X0164803Y0236595D02*
D03*
X0166772D02*
D03*
X0168740D02*
D03*
X0164803Y0324193D02*
D03*
X0166772D02*
D03*
X0168740D02*
D03*
X0164803Y0329508D02*
D03*
X0166772D02*
D03*
X0168740D02*
D03*
D126*
X0234606Y0140852D02*
D03*
X0240905D02*
D03*
X0234606Y0233766D02*
D03*
X0240905D02*
D03*
X0234606Y0326679D02*
D03*
X0240905D02*
D03*
D127*
X0194311Y0179961D02*
D03*
Y0176260D02*
D03*
Y0272874D02*
D03*
Y0269173D02*
D03*
Y0365788D02*
D03*
Y0362087D02*
D03*
D128*
X0208051Y0188335D02*
D03*
X0204350D02*
D03*
X0208051Y0281248D02*
D03*
X0204350D02*
D03*
X0208051Y0374162D02*
D03*
X0204350D02*
D03*
D129*
X0188185Y0172402D02*
D03*
X0183461D02*
D03*
X0188185Y0265315D02*
D03*
X0183461D02*
D03*
X0188185Y0358228D02*
D03*
X0183461D02*
D03*
D130*
X0221947Y0188325D02*
D03*
Y0281239D02*
D03*
Y0374152D02*
D03*
D131*
X0210197Y0133976D02*
D03*
Y0141457D02*
D03*
Y0226890D02*
D03*
Y0234370D02*
D03*
Y0319803D02*
D03*
Y0327284D02*
D03*
D132*
X0194307Y0172402D02*
D03*
Y0183819D02*
D03*
Y0265315D02*
D03*
Y0276732D02*
D03*
Y0358228D02*
D03*
Y0369646D02*
D03*
D133*
X0194311Y0156102D02*
D03*
Y0249015D02*
D03*
Y0341929D02*
D03*
M02*
