G04*
G04 #@! TF.GenerationSoftware,Altium Limited,Altium Designer,19.1.6 (110)*
G04*
G04 Layer_Color=8421504*
%FSAX25Y25*%
%MOIN*%
G70*
G01*
G75*
%ADD10C,0.03937*%
%ADD11R,0.13780X0.05906*%
%ADD12R,0.01181X0.01575*%
%ADD13R,0.01968X0.02362*%
%ADD14R,0.02362X0.01968*%
%ADD15R,0.19685X0.05906*%
%ADD16R,0.04724X0.07874*%
%ADD17R,0.02756X0.01181*%
%ADD18R,0.01968X0.01968*%
%ADD19R,0.03150X0.03150*%
%ADD20R,0.02362X0.02520*%
%ADD21R,0.03150X0.03150*%
%ADD22R,0.02520X0.02362*%
%ADD23R,0.03543X0.05118*%
G36*
X0297442Y0347184D02*
X0300886Y0347184D01*
X0300886Y0340492D01*
X0299902Y0339507D01*
X0297436Y0339508D01*
X0297145Y0339508D01*
X0297146Y0347185D01*
X0297442Y0347184D01*
D02*
G37*
G36*
Y0254271D02*
X0300886Y0254271D01*
X0300886Y0247579D01*
X0299902Y0246593D01*
X0297436Y0246594D01*
X0297145Y0246595D01*
X0297146Y0254272D01*
X0297442Y0254271D01*
D02*
G37*
G36*
Y0161357D02*
X0300886Y0161358D01*
X0300886Y0154665D01*
X0299902Y0153680D01*
X0297436Y0153681D01*
X0297145Y0153682D01*
X0297146Y0161358D01*
X0297442Y0161357D01*
D02*
G37*
D10*
X0126772Y0112992D02*
D03*
X0454528Y0402559D02*
D03*
D11*
X0340335Y0379566D02*
D03*
Y0286653D02*
D03*
Y0193740D02*
D03*
D12*
X0290630Y0363740D02*
D03*
X0292205D02*
D03*
X0293779D02*
D03*
X0290630Y0360196D02*
D03*
X0292205D02*
D03*
X0293779D02*
D03*
X0290630Y0270826D02*
D03*
X0292205D02*
D03*
X0293779D02*
D03*
X0290630Y0267283D02*
D03*
X0292205D02*
D03*
X0293779D02*
D03*
X0290630Y0177913D02*
D03*
X0292205D02*
D03*
X0293779D02*
D03*
X0290630Y0174370D02*
D03*
X0292205D02*
D03*
X0293779D02*
D03*
D13*
X0294567Y0356299D02*
D03*
X0290630D02*
D03*
X0307401Y0362244D02*
D03*
X0303465D02*
D03*
X0294528Y0368818D02*
D03*
X0290591D02*
D03*
X0302638Y0368897D02*
D03*
X0298701D02*
D03*
X0363346Y0355039D02*
D03*
X0359409D02*
D03*
X0346063Y0338189D02*
D03*
X0350000D02*
D03*
X0355709Y0333661D02*
D03*
X0359646D02*
D03*
X0317008Y0334921D02*
D03*
X0320945D02*
D03*
X0294567Y0263385D02*
D03*
X0290630D02*
D03*
X0307401Y0269330D02*
D03*
X0303465D02*
D03*
X0294528Y0275905D02*
D03*
X0290591D02*
D03*
X0302638Y0275984D02*
D03*
X0298701D02*
D03*
X0363346Y0262125D02*
D03*
X0359409D02*
D03*
X0346063Y0245275D02*
D03*
X0350000D02*
D03*
X0355709Y0240747D02*
D03*
X0359646D02*
D03*
X0317008Y0242007D02*
D03*
X0320945D02*
D03*
X0294567Y0170472D02*
D03*
X0290630D02*
D03*
X0307401Y0176417D02*
D03*
X0303465D02*
D03*
X0294528Y0182992D02*
D03*
X0290591D02*
D03*
X0302638Y0183070D02*
D03*
X0298701D02*
D03*
X0363346Y0169212D02*
D03*
X0359409D02*
D03*
X0346063Y0152362D02*
D03*
X0350000D02*
D03*
X0355709Y0147834D02*
D03*
X0359646D02*
D03*
X0317008Y0149094D02*
D03*
X0320945D02*
D03*
D14*
X0298740Y0358346D02*
D03*
Y0362283D02*
D03*
X0356732Y0326850D02*
D03*
Y0322913D02*
D03*
X0361023Y0326850D02*
D03*
Y0322913D02*
D03*
X0289173Y0344881D02*
D03*
Y0348818D02*
D03*
X0333268Y0335039D02*
D03*
Y0331102D02*
D03*
X0298740Y0265433D02*
D03*
Y0269370D02*
D03*
X0356732Y0233937D02*
D03*
Y0229999D02*
D03*
X0361023Y0233937D02*
D03*
Y0229999D02*
D03*
X0289173Y0251968D02*
D03*
Y0255905D02*
D03*
X0333268Y0242125D02*
D03*
Y0238188D02*
D03*
X0298740Y0172519D02*
D03*
Y0176456D02*
D03*
X0356732Y0141023D02*
D03*
Y0137086D02*
D03*
X0361023Y0141023D02*
D03*
Y0137086D02*
D03*
X0289173Y0159055D02*
D03*
Y0162992D02*
D03*
X0333268Y0149212D02*
D03*
Y0145275D02*
D03*
D15*
X0365571Y0379527D02*
D03*
Y0286614D02*
D03*
Y0193700D02*
D03*
D16*
X0326968Y0378543D02*
D03*
X0317913D02*
D03*
X0308858D02*
D03*
X0299803D02*
D03*
X0290748D02*
D03*
X0281693D02*
D03*
X0326968Y0285629D02*
D03*
X0317913D02*
D03*
X0308858D02*
D03*
X0299803D02*
D03*
X0290748D02*
D03*
X0281693D02*
D03*
X0326968Y0192716D02*
D03*
X0317913D02*
D03*
X0308858D02*
D03*
X0299803D02*
D03*
X0290748D02*
D03*
X0281693D02*
D03*
D17*
X0303150Y0340393D02*
D03*
Y0342362D02*
D03*
Y0344330D02*
D03*
Y0346299D02*
D03*
X0294882D02*
D03*
Y0344330D02*
D03*
Y0342362D02*
D03*
Y0340393D02*
D03*
X0303150Y0247480D02*
D03*
Y0249448D02*
D03*
Y0251417D02*
D03*
Y0253385D02*
D03*
X0294882D02*
D03*
Y0251417D02*
D03*
Y0249448D02*
D03*
Y0247480D02*
D03*
X0303150Y0154566D02*
D03*
Y0156535D02*
D03*
Y0158503D02*
D03*
Y0160472D02*
D03*
X0294882D02*
D03*
Y0158503D02*
D03*
Y0156535D02*
D03*
Y0154566D02*
D03*
D18*
X0299016Y0343346D02*
D03*
Y0250432D02*
D03*
Y0157519D02*
D03*
D19*
X0371457Y0320669D02*
D03*
Y0326968D02*
D03*
Y0227755D02*
D03*
Y0234055D02*
D03*
Y0134842D02*
D03*
Y0141141D02*
D03*
D20*
X0303150Y0337007D02*
D03*
X0306929D02*
D03*
X0341023Y0331574D02*
D03*
X0337244D02*
D03*
X0317362Y0371889D02*
D03*
X0313583D02*
D03*
X0325079Y0335039D02*
D03*
X0328858D02*
D03*
X0303150Y0244094D02*
D03*
X0306929D02*
D03*
X0341023Y0238661D02*
D03*
X0337244D02*
D03*
X0317362Y0278976D02*
D03*
X0313583D02*
D03*
X0325079Y0242126D02*
D03*
X0328858D02*
D03*
X0303150Y0151181D02*
D03*
X0306929D02*
D03*
X0341023Y0145747D02*
D03*
X0337244D02*
D03*
X0317362Y0186062D02*
D03*
X0313583D02*
D03*
X0325079Y0149212D02*
D03*
X0328858D02*
D03*
D21*
X0284724Y0340866D02*
D03*
X0278819D02*
D03*
X0284724Y0247952D02*
D03*
X0278819D02*
D03*
X0284724Y0155039D02*
D03*
X0278819D02*
D03*
D22*
X0329960Y0339409D02*
D03*
Y0343189D02*
D03*
Y0246496D02*
D03*
Y0250275D02*
D03*
Y0153582D02*
D03*
Y0157362D02*
D03*
D23*
X0277362Y0358267D02*
D03*
X0284842D02*
D03*
X0277362Y0366968D02*
D03*
X0284842D02*
D03*
X0277362Y0265354D02*
D03*
X0284842D02*
D03*
X0277362Y0274055D02*
D03*
X0284842D02*
D03*
X0277362Y0172440D02*
D03*
X0284842D02*
D03*
X0277362Y0181141D02*
D03*
X0284842D02*
D03*
M02*
