M48
;Layer_Color=9474304
;FILE_FORMAT=2:5
INCH
;TYPE=PLATED
T1F00S00C0.01181
T2F00S00C0.04724
%
T01
X0111150Y0118661
X0114693
X0118110Y0122047
X0128472Y0121024
X0131032
X0133787
X0136543
X0139299
X0142055
Y0123583
X0144811
Y0121024
X0145992Y0127717
X0149535Y0127126
X0151898
X0154260
Y0129488
X0151898
X0149535
X0148945Y0135591
X0146268Y0140354
X0145559Y0142953
X0146661Y0146850
X0143669Y0146968
X0145992Y0155591
X0148709Y0155315
X0151189Y0155827
X0155795Y0147244
X0131386Y0145197
X0131535Y0142624
X0131543Y0139961
X0126661Y0137047
X0127291Y0132047
X0124742Y0132704
X0115638Y0132638
X0112724Y0133622
X0115480Y0136614
X0119929Y0137244
X0115520Y0142874
X0112843Y0143898
X0111228Y0146299
X0115717Y0147323
X0118110Y0153543
X0122047
X0124727Y0154481
X0124732Y0148858
X0125165Y0143032
X0130564Y0152904
Y0155372
X0116189Y0155669
X0127953Y0125984
X0128472Y0123779
X0141465Y0131024
X0150913Y0123779
X0157606
X0161937
X0161346Y0127126
X0163709
X0166071
X0168433
X0170795
X0173158
Y0129488
X0170795
X0168433
X0166071
X0163709
X0161346
X0158984Y0129488
Y0127126
X0156622
Y0129488
X0156504Y0140354
X0157764Y0142677
X0159339Y0147205
X0165087Y0137559
X0181103Y0137795
X0185039
X0183071Y0141732
X0181103Y0145669
X0185039
X0188977
X0190945Y0149606
X0187008
X0183071
X0181103Y0153543
X0185039
X0188977
X0192913
X0200402Y0151969
X0204378Y0147362
X0207646Y0147008
X0206693Y0149606
X0210559Y0149331
X0217843Y0150551
Y0154095
Y0147008
Y0143465
Y0139921
Y0136378
Y0132835
Y0129291
Y0125354
Y0121417
X0214181Y0121378
X0210205Y0121457
Y0125433
X0213984Y0125472
X0202882Y0121417
X0194220
X0185559
X0177685
X0168433
X0189102Y0134803
X0191465Y0132835
X0198945Y0132047
X0190945Y0157480
X0187008
X0183071
X0181103Y0161417
X0185039
X0188977
X0189890Y0168661
X0189693Y0172716
X0183905Y0170433
X0177165Y0169291
X0173228
X0169291
X0165354
X0161417
X0158197Y0170905
X0159732Y0172598
X0159850Y0175079
X0158945Y0177441
X0161417Y0177165
X0165354
X0169291
X0173228
X0175197Y0181103
X0171260
X0167323
X0163386
X0159449
X0157480Y0185039
X0161417
X0165354
X0169291
X0173228
X0175197Y0188977
X0171260
X0167323
X0163386
X0159449
X0157480Y0192913
X0161417
X0165354
X0169291
X0173228
X0180441Y0193858
X0183984Y0193465
X0179654Y0187953
X0191858Y0184016
Y0181260
X0194882Y0181103
X0195008Y0184016
X0202756Y0173228
X0203039Y0166654
X0205756
X0208512Y0166693
X0211347Y0166614
Y0163622
X0208512
Y0160472
X0211347Y0160551
X0210630Y0157480
X0217843Y0157638
Y0161181
Y0164724
Y0168268
Y0171811
Y0175354
Y0178898
Y0182441
Y0185984
Y0189528
X0216536Y0192913
X0212724Y0193465
X0211150Y0187087
X0175197Y0173228
X0171260
X0167323
X0163386
X0156740Y0169055
X0157528Y0166457
Y0163976
X0156937Y0161063
X0156543Y0178032
X0175197Y0165354
X0179134
X0155520Y0158740
X0153551Y0156968
X0143787Y0156457
X0141858Y0157913
X0140362Y0159843
X0139378Y0162008
X0139181Y0164370
Y0166654
X0139811Y0168898
X0141032Y0170787
X0142685Y0172480
X0136937Y0174409
X0133039Y0177480
X0133197Y0182323
X0132597Y0184995
X0130129
X0127661
X0125192
X0123923Y0182878
X0117001Y0184494
X0117806Y0186827
X0119026Y0188973
X0116142Y0188977
X0111189Y0189252
X0111071Y0192992
X0114173Y0192913
X0118110
X0122449Y0193386
X0123239Y0190832
X0125707
X0128176
X0130644
X0133113
X0132961Y0193661
X0135559Y0193504
X0137764Y0193268
X0140205Y0193150
X0142803Y0193268
X0145244Y0193150
X0147685
X0150087Y0193110
X0151150Y0190945
X0151543Y0188386
Y0185866
Y0183346
X0151740Y0180669
Y0178110
X0154220Y0178032
X0155512Y0181103
Y0188977
X0153543Y0192913
X0144890Y0187126
X0141937Y0187087
X0136740Y0185827
X0129142Y0193622
X0125992Y0193543
X0114173Y0185039
X0111071Y0184685
X0110953Y0169409
X0114173Y0169291
X0117835Y0169735
X0118586Y0167383
X0121318Y0163297
X0122882Y0161378
X0124063Y0159173
X0124653Y0156968
X0120079Y0157480
X0130520Y0157835
X0130283Y0160275
X0129260Y0162756
X0131740Y0163228
X0128079Y0164724
X0126322Y0166553
X0124655Y0168373
X0123621Y0170615
X0127567Y0169409
X0129457Y0167244
X0133630Y0166969
X0137094Y0159567
X0154417Y0170905
T02
X0148295Y0164725
M30
