M48
;Layer_Color=9474304
;FILE_FORMAT=2:5
INCH
;TYPE=PLATED
T1F00S00C0.01181
T2F00S00C0.01575
T3F00S00C0.01968
T4F00S00C0.03150
;TYPE=NON_PLATED
T5F00S00C0.03150
%
T01
X0121063Y0135827
X0126969
X0124016Y0141732
X0118110
X0121063Y0147638
X0126969
X0124016Y0153543
X0118110
X0112205
X0115157Y0147638
X0156496Y0171260
X0162401
X0168307
X0174213
X0180118
X0186024
X0191929
X0183071Y0177165
X0177165
X0171260
X0165354
X0159449
X0157213Y0179921
X0168307Y0183071
X0174213
X0180118
X0186024
X0177165Y0188976
X0171260
X0168307Y0194882
X0160087Y0200079
X0156661Y0200787
X0147173
X0145835Y0197756
X0145913Y0194646
X0143236Y0194606
X0141071Y0193150
X0139339Y0191378
X0138433Y0189016
X0138354Y0186614
X0135323Y0186653
X0133000Y0184843
Y0181058
X0135323Y0179449
X0138197Y0179567
X0138236Y0176850
X0138197Y0174094
X0135087Y0174055
X0133158Y0172244
X0133118Y0169409
X0126969Y0171260
X0129921Y0177165
X0121063Y0183071
X0115157Y0171260
X0112205Y0165354
X0115157Y0159449
X0121063
X0126969
X0145677Y0170945
X0145638Y0174055
Y0177126
X0145598Y0180079
Y0183150
Y0186260
X0149457Y0180039
X0153354Y0179961
X0153543Y0177165
X0150591Y0171260
T02
X0141898Y0186535
T03
X0120205Y0170118
X0136818Y0195945
T04
X0112554Y0143386
X0109181Y0160000
X0112685Y0176440
X0122173Y0190315
T05
X0125087Y0122598
X0128736Y0120236
X0197252Y0148150
X0198315Y0152520
X0136728Y0203413
X0132902Y0201760
X0129051Y0199752
M30
