M48
;Layer_Color=9474304
;FILE_FORMAT=2:5
INCH
;TYPE=PLATED
T1F00S00C0.03150
;TYPE=NON_PLATED
T2F00S00C0.03150
%
T01
X0121780Y0129291
X0112554Y0143386
X0135867Y0119854
X0152461Y0116693
X0169067Y0119872
X0183197Y0129291
X0192340Y0143416
X0195768Y0159933
X0192328Y0176351
X0182803Y0190315
X0169021Y0199928
X0152488Y0203307
X0122173Y0190315
X0112685Y0176440
X0109181Y0159933
T02
X0125087Y0122598
X0128736Y0120236
X0197252Y0148150
X0198315Y0152520
X0136728Y0203413
X0132902Y0201760
X0129051Y0199752
M30
