M48
;Layer_Color=9474304
;FILE_FORMAT=2:5
INCH
;TYPE=PLATED
T1F00S00C0.01181
T2F00S00C0.03150
;TYPE=NON_PLATED
T3F00S00C0.03150
T4F00S00C0.03917
%
T01
X0124016Y0135827
X0131819Y0134921
X0134614Y0133150
X0141976Y0127323
X0141268Y0144449
X0147638Y0144055
X0135827Y0147638
X0124016
X0121063Y0153543
X0115157
X0162528Y0144134
X0164575Y0128740
X0168307Y0129921
X0177165Y0135827
X0179260Y0139449
X0181150Y0142441
X0184339Y0142598
X0183728Y0145748
X0186543Y0144528
X0186819Y0147165
X0185598Y0149685
X0183630Y0151260
X0180598Y0152657
X0180647Y0155512
X0186024Y0153543
X0191929
X0183071Y0135827
X0188976Y0159449
X0184732Y0174134
X0169142Y0173189
X0169102Y0175764
X0164980Y0174685
X0169535Y0166233
X0172724Y0185630
X0172055Y0191063
X0174850
X0174811Y0194016
X0172173Y0194095
X0169021
X0169024Y0190905
X0177528Y0188976
X0150008Y0192677
X0148630Y0198543
X0145953Y0197835
X0152173Y0198346
X0137921Y0197047
X0133984Y0196069
X0129693Y0192559
X0131740Y0189291
X0129496Y0186378
X0127724Y0183780
X0121063Y0177165
X0121150Y0168661
X0121063Y0165354
X0120992Y0162165
X0124221Y0161457
Y0164528
Y0167677
X0115157Y0165354
X0121189Y0156772
X0136114Y0158937
X0140827Y0175079
X0150756Y0175462
X0155480Y0175472
X0147488Y0186575
X0138906
X0138315Y0190807
T02
X0121780Y0129291
X0112554Y0143386
X0135867Y0119854
X0152488Y0116693
X0169067Y0119872
X0183092Y0129369
X0192340Y0143416
X0195768Y0160000
X0192328Y0176351
X0182803Y0190315
X0169021Y0199928
X0152488Y0203307
X0122173Y0190315
X0112685Y0176440
X0109181Y0160000
T03
X0125087Y0122598
X0128736Y0120236
X0197252Y0148150
X0198315Y0152520
X0136728Y0203413
X0132902Y0201760
X0129051Y0199752
T04
X0162488Y0192461
X0142488Y0188461
Y0196461
M30
