M48
;Layer_Color=9474304
;FILE_FORMAT=2:5
INCH
;TYPE=PLATED
T1F00S00C0.00787
T2F00S00C0.01181
T3F00S00C0.01575
T4F00S00C0.01968
T5F00S00C0.03150
;TYPE=NON_PLATED
T6F00S00C0.03150
T7F00S00C0.03917
T8F00S00C0.12598
%
T01
X0846191Y0325680
Y0431979
Y0538278
T02
X1095404Y0307235
X1097294Y0310227
X1100483Y0310384
X1102687Y0312314
X1099215Y0303613
X1151380
X1157286
X1154333Y0309518
X1148428
X1093309Y0303613
X1084451Y0297707
X1080719Y0296526
X1078672Y0311920
X1063782Y0311841
X1057412Y0312235
X1058121Y0295109
X1050758Y0300936
X1047963Y0302707
X1040160Y0303613
X0985042
X0987994Y0309518
X0982089
X0974656Y0309006
X0974695Y0305908
X0969026Y0303219
X0966191Y0307471
X0952561Y0309518
X0950089Y0310502
X0949853Y0306644
Y0302195
Y0293928
X0954223Y0293849
X0961420Y0291802
X0967325
X0976184Y0297707
X0940750
X0941861Y0302825
X0938987Y0302865
X0945286Y0306526
X0943703Y0291802
X0934845Y0297707
X0928939
X0925987Y0303613
X0932766Y0302825
X0935719
X0932687Y0306408
X0923034Y0309518
X0872294Y0310896
X0866270Y0310817
X0865994Y0306920
X0863120Y0303258
X0871015Y0302628
X0862727Y0294243
X0859058Y0291802
X0854183Y0296526
X0850876Y0295975
X0845542Y0297727
X0844144Y0300148
X0841349Y0302943
X0842058Y0306427
X0836900Y0302640
X0836073Y0298534
X0832483Y0297707
X0831506Y0294479
X0835522Y0294557
X0839105Y0295975
X0845214Y0288888
X0849302Y0289124
X0856152Y0307510
X0859577Y0310502
X0832483Y0309518
X0826577
X0820672
X0814766
X0808861
X0811813Y0303613
X0817719
X0823624
X0829530
X0825640Y0294479
X0820601Y0294282
X0817719Y0315424
X0823624
X0825207Y0318691
X0829971Y0318624
X0829530Y0315424
X0835435
X0837963Y0316880
X0838026Y0313888
X0841341Y0315424
X0846451Y0317628
X0849932Y0317471
X0853002Y0317117
X0850247Y0323219
X0846152Y0321880
X0840365Y0321920
X0837963Y0319991
X0833947Y0318534
X0834223Y0327195
X0830089Y0326369
X0830168Y0330148
X0831388Y0332668
Y0335720
X0832176Y0346329
X0836073Y0346290
X0838388Y0344951
X0837648Y0348534
X0837592Y0351369
X0837546Y0354557
X0837491Y0357274
X0835837Y0360109
X0835435Y0362668
X0832569Y0360109
X0829577Y0359991
X0829530Y0362668
X0826624Y0360059
X0823475Y0360030
X0822687Y0345975
X0819656Y0346054
X0816152Y0346093
X0816034Y0349361
Y0352471
X0808861Y0344951
X0811813Y0339046
X0817719
X0814766Y0333140
X0808861
X0805908Y0327235
X0811813
X0817719
X0822294Y0327353
X0822254Y0322540
X0814766Y0321329
X0808861
X0802955
X0805908Y0315424
X0811813
X0847058Y0329085
X0849302Y0335188
X0849262Y0339676
Y0344321
X0849223Y0348770
X0847246Y0350857
X0845128Y0353337
X0844577Y0348849
Y0344991
X0842648Y0338416
X0843869Y0334518
X0858947Y0333416
X0862010Y0333140
X0862132Y0330109
X0863514Y0327432
X0867097Y0330424
X0867916Y0333140
X0873821
X0871585Y0330266
X0874883Y0328298
X0875207Y0320502
Y0316684
Y0312865
X0863317Y0313225
X0864026Y0321329
X0858121Y0323061
X0857963Y0328967
X0860758Y0335699
X0861861Y0338447
X0858908Y0338690
X0864963Y0339046
X0864892Y0342274
X0870868Y0339046
X0876774
X0879727Y0333140
Y0321329
X0917128
X0920081Y0327235
X0924459Y0328140
X0924341Y0331557
X0924223Y0334951
X0924459Y0338022
Y0342006
X0929380Y0341935
X0929459Y0346487
X0932530Y0344321
X0932136Y0359479
X0936073Y0359951
X0928939Y0356762
X0920081Y0339046
X0917128Y0333140
X0928396Y0328018
X0932136Y0327983
X0936625Y0326408
X0925202Y0322865
X0920081Y0315424
X0928939Y0404006
X0934845
X0935719Y0409125
X0932766
X0932687Y0412707
X0925987Y0409912
X0923034Y0415817
X0920081Y0421723
X0917128Y0427628
X0920081Y0433534
X0924459Y0434440
X0924341Y0437857
X0924223Y0441251
X0924459Y0444321
Y0448306
X0929380Y0448234
X0929459Y0452786
X0932530Y0450621
X0932136Y0465778
X0936073Y0466251
X0928939Y0463061
X0920081Y0445345
X0917128Y0439439
X0928396Y0434317
X0932136Y0434282
X0936625Y0432707
X0925202Y0429164
X0879727Y0427628
X0875207Y0426802
Y0422983
Y0419164
X0872294Y0417195
X0866270Y0417117
X0865994Y0413219
X0863120Y0409558
X0871015Y0408928
X0862727Y0400542
X0859058Y0398101
X0854183Y0402825
X0850876Y0402274
X0845542Y0404026
X0844144Y0406447
X0841349Y0409243
X0842058Y0412726
X0836900Y0408939
X0836073Y0404833
X0832483Y0404006
X0831506Y0400778
X0835522Y0400857
X0839105Y0402274
X0845214Y0395187
X0849302Y0395424
X0856152Y0413809
X0859577Y0416802
X0863317Y0419524
X0864026Y0427628
X0863514Y0433731
X0862132Y0436408
X0862010Y0439439
X0858947Y0439715
X0860758Y0441998
X0861861Y0444747
X0858908Y0444989
X0864963Y0445345
X0864892Y0448573
X0870868Y0445345
X0876774
X0879727Y0439439
X0873821
X0871585Y0436565
X0867097Y0436723
X0867916Y0439439
X0874883Y0434597
X0857963Y0435266
X0858121Y0429361
X0850247Y0429518
X0846152Y0428180
X0846451Y0423928
X0849932Y0423770
X0853002Y0423416
X0841341Y0421723
X0837963Y0423180
X0838026Y0420188
X0835435Y0421723
X0833947Y0424833
X0829971Y0424924
X0829530Y0421723
X0823624
X0825207Y0424991
X0822254Y0428839
X0822294Y0433652
X0817719Y0433534
X0811813
X0805908
X0808861Y0439439
X0814766
X0811813Y0445345
X0817719
X0816152Y0452392
X0816034Y0455660
Y0458770
X0819656Y0452353
X0822687Y0452274
X0832176Y0452628
X0836073Y0452589
X0838388Y0451250
X0837648Y0454833
X0837592Y0457668
X0837546Y0460857
X0837491Y0463573
X0835837Y0466408
X0832569
X0829577Y0466290
X0826624Y0466359
X0823475Y0466329
X0849090Y0463809
X0845128Y0459636
X0847246Y0457156
X0849223Y0455069
X0849262Y0450621
Y0445975
X0849302Y0441487
X0843869Y0440817
X0842648Y0444715
X0844577Y0451290
Y0455148
X0860640Y0459833
X0862010Y0463061
X0865207Y0465936
X0847058Y0435384
X0840365Y0428219
X0837963Y0426290
X0834223Y0433495
X0830089Y0432668
X0830168Y0436447
X0831388Y0438967
Y0442020
X0832483Y0415817
X0826577
X0820672
X0814766
X0808861
X0805908Y0421723
X0811813
X0817719
X0814766Y0427628
X0808861
X0802955
X0811813Y0409912
X0817719
X0823624
X0829530
X0825640Y0400778
X0820601Y0400581
X0841341Y0362668
X0853152
X0860719Y0362707
X0862010Y0356762
X0860640Y0353534
X0865207Y0359636
X0849090Y0357510
X0808861Y0451250
X0944420Y0452353
X0944459Y0449636
X0948199Y0456920
X0956939Y0456959
X0960246Y0457392
X0960680Y0454046
Y0451093
X0964372Y0451250
X0964184Y0454243
X0966034Y0459164
X0963002Y0462550
X0966428Y0465621
X0969341
X0972254Y0465581
X0975247Y0465542
X0978278Y0465463
X0975719Y0461733
X0982766Y0457993
X0987530Y0453731
X0984892Y0447707
X0978160Y0446290
Y0442443
X0975522Y0447983
X0962884Y0448270
X0961420Y0445345
X0965010Y0442943
X0964026Y0433810
X0956821Y0432315
X0954026Y0428573
X0953554Y0420345
X0950443
X0947136
X0943947Y0420306
X0940404Y0419558
X0940246Y0425857
X0945404Y0424357
X0947294Y0434046
X0940246Y0433062
X0953475Y0437077
X0952561Y0415817
X0950089Y0416802
X0949853Y0412943
Y0408495
Y0400227
X0954223Y0400148
X0961420Y0398101
X0967325
X0969026Y0409518
X0966191Y0413770
X0974656Y0415306
X0974695Y0412207
X0976184Y0404006
X0985042Y0409912
X0987994Y0415817
X0982089
X0985042Y0421723
X0990947
X0993900Y0427628
X0988317Y0428613
Y0431565
X0990947Y0433534
X0985837Y0434176
X0982845Y0435171
X0982727Y0438416
X0979971Y0427904
X0976900Y0427825
X0973475Y0427904
X0973435Y0424558
X0975404Y0422207
X0973554Y0431920
X0960680Y0419203
X0945286Y0412825
X0941861Y0409125
X0938987Y0409164
X0940750Y0404006
X0943703Y0398101
Y0362668
X0942620Y0359951
X0939223Y0360069
X0937798Y0362668
X0946038Y0359609
X0949609Y0362668
X0955514
X0953396Y0358180
X0955741Y0355833
X0958160Y0353967
X0956939Y0350660
X0960246Y0351093
X0960680Y0347746
Y0344794
X0964372Y0344951
X0964184Y0347943
X0966034Y0352865
X0963002Y0356251
X0966428Y0359321
X0969341
X0972254Y0359282
X0975247Y0359243
X0978278Y0359164
X0975719Y0355433
X0973231Y0362668
X0982766Y0351694
X0987530Y0347432
X0984892Y0341408
X0978160Y0339991
Y0336144
X0975522Y0341684
X0962884Y0341971
X0961420Y0339046
X0965010Y0336644
X0964026Y0327510
X0956821Y0326016
X0954026Y0322274
X0953554Y0314046
X0950443
X0947136
X0943947Y0314006
X0940404Y0313258
X0940246Y0319557
X0945404Y0318058
X0947294Y0327747
X0940246Y0326762
X0953475Y0330778
X0944459Y0343337
X0944420Y0346054
X0948199Y0350621
X0960680Y0312904
X0975404Y0315908
X0973435Y0318258
X0973475Y0321605
X0976900Y0321526
X0979971Y0321605
X0988317Y0322313
Y0325266
X0990947Y0327235
X0985837Y0327876
X0982845Y0328871
X0982727Y0332117
X0973554Y0325621
X0985042Y0315424
X0990947
X0993900Y0321329
X1031302
X1037207
X1037333Y0324557
X1037136Y0329951
X1037207Y0333140
X1037294Y0336447
X1040365Y0335463
Y0332313
Y0329243
X1031302Y0333140
X1037207Y0344951
X1043869Y0351565
X1045640Y0354164
X1047884Y0357077
X1045837Y0360345
X1050128Y0363854
X1054065Y0364833
X1054459Y0358593
X1055050Y0354361
X1063632
X1066152Y0360463
X1064774Y0366329
X1062097Y0365620
X1068317Y0366132
X1085166Y0361880
X1088317
X1090955Y0361802
X1090994Y0358849
X1088199
X1085168Y0358691
X1088869Y0353416
X1093672Y0356762
X1085246Y0343550
X1085286Y0340975
X1081124Y0342471
X1071624Y0343258
X1066900Y0343248
X1056971Y0342865
X1052258Y0326723
X1051971Y0315424
X1040160
X1085680Y0334019
X1084451Y0404006
X1080719Y0402825
X1078672Y0418219
X1063782Y0418140
X1057412Y0418534
X1051971Y0421723
X1052258Y0433022
X1040365Y0435542
Y0438613
Y0441762
X1037294Y0442746
X1037207Y0439439
X1037136Y0436250
X1037333Y0430857
X1037207Y0427628
X1031302
Y0439439
X1037207Y0451250
X1043869Y0457865
X1045640Y0460463
X1047884Y0463377
X1045837Y0466644
X1054459Y0464892
X1055050Y0460660
X1063632
X1066152Y0466762
X1066900Y0449547
X1071624Y0449558
X1081124Y0448770
X1085246Y0449849
X1085286Y0447274
X1085680Y0440318
X1088869Y0459715
X1088199Y0465148
X1090994
X1090955Y0468101
X1088317Y0468180
X1085166
X1085168Y0464991
X1093672Y0463062
X1056971Y0449164
X1040160Y0421723
Y0409912
X1047963Y0409006
X1050758Y0407235
X1058121Y0401408
X1093309Y0409912
X0958160Y0460266
X0955741Y0462132
X0953396Y0464479
X0946038Y0465908
X0942620Y0466251
X0939223Y0466369
X1100876Y0448219
X1105120Y0433534
X1108073Y0427628
X1102168
X1101743Y0423770
X1099774Y0425345
X1096743Y0426743
X1096791Y0429597
X1099872Y0419833
X1100483Y0416683
X1097294Y0416526
X1095404Y0413534
X1099215Y0409912
X1102687Y0418613
X1102963Y0421250
X1145475Y0421723
X1151380
X1157286
X1154333Y0427628
X1148428
X1142522
X1145475Y0433534
X1151380
X1157286
Y0445345
X1163475Y0446329
X1163435Y0443495
X1165404Y0448140
X1168514Y0448180
X1168554Y0450936
X1168514Y0453652
X1165640Y0453534
X1163317Y0455143
Y0458928
X1165640Y0460739
X1168672Y0460699
X1168750Y0463101
X1169656Y0465463
X1171388Y0467235
X1173554Y0468691
X1176231Y0468731
X1175916Y0460345
Y0457235
Y0454164
X1175955Y0451211
Y0448140
X1175994Y0445030
X1180908Y0445345
X1186813
X1192719
X1198624
X1204530
X1210435
X1216341
X1222246
X1213388Y0451250
X1207483
X1201577
X1195672
X1189766
X1187530Y0454006
X1183672Y0454046
X1183861Y0451250
X1179774Y0454124
X1198624Y0457156
X1204530
X1210435
X1216341
X1207483Y0463061
X1201577
X1160239Y0451250
X1151380Y0457156
X1145475Y0445345
X1142522Y0439439
X1148428Y0415817
X1154333
X1157286Y0409912
X1151380
Y0350857
X1163317Y0352628
Y0348844
X1165640Y0347235
X1168514Y0347353
X1168554Y0344636
X1168514Y0341880
X1165404Y0341841
X1163475Y0340030
X1163435Y0337195
X1157286Y0339046
X1160239Y0344951
X1165640Y0354439
X1168672Y0354400
X1168750Y0356802
X1169656Y0359164
X1171388Y0360935
X1173554Y0362392
X1176231Y0362432
X1176152Y0365542
X1177491Y0368573
X1186979
X1190404Y0367865
X1198624Y0362668
X1201577Y0356762
X1207483
X1210435Y0350857
X1216341
X1213388Y0344951
X1207483
X1201577
X1195672
X1189766
X1187530Y0347707
X1183672Y0347746
X1183861Y0344951
X1179774Y0347825
X1175916Y0347865
X1175955Y0344912
Y0341841
X1175994Y0338731
X1180908Y0339046
X1186813
X1192719
X1198624
X1204530
X1210435
X1216341
X1222246
X1204530Y0350857
X1198624
X1175916Y0350936
Y0354046
X1157286Y0327235
X1151380
X1145475
X1142522Y0333140
X1145475Y0339046
X1142522Y0321329
X1148428
X1154333
X1157286Y0315424
X1151380
X1145475
X1102963Y0314951
X1101743Y0317471
X1099774Y0319046
X1096743Y0320443
X1096791Y0323298
X1102168Y0321329
X1108073
X1105120Y0327235
X1100876Y0341920
X1099872Y0313534
X1099215Y0516211
X1095404Y0519833
X1097294Y0522825
X1100483Y0522983
X1099872Y0526132
X1102687Y0524912
X1102963Y0527550
X1101743Y0530069
X1099774Y0531644
X1096743Y0533042
X1096791Y0535896
X1102168Y0533928
X1108073
X1105120Y0539833
X1100876Y0554518
X1145475Y0551644
X1142522Y0545739
X1145475Y0539833
X1151380
X1157286
X1154333Y0533928
X1148428
X1142522
X1145475Y0528022
X1151380
X1157286
X1154333Y0522117
X1148428
X1151380Y0516211
X1157286
Y0551644
X1163475Y0552628
X1163435Y0549794
X1165404Y0554439
X1168514Y0554479
X1168554Y0557235
X1168514Y0559951
X1165640Y0559833
X1163317Y0561442
Y0565227
X1165640Y0567038
X1168672Y0566998
X1168750Y0569400
X1169656Y0571762
X1171388Y0573534
X1173554Y0574991
X1176231Y0575030
X1176152Y0578140
X1177491Y0581172
X1186979
X1190404Y0580463
X1198624Y0575266
X1201577Y0569361
X1207483
X1210435Y0563455
X1216341
X1213388Y0557550
X1207483
X1201577
X1195672
X1189766
X1187530Y0560306
X1183672Y0560345
X1183861Y0557550
X1179774Y0560424
X1175916Y0560463
X1175955Y0557510
Y0554439
X1175994Y0551329
X1180908Y0551644
X1186813
X1192719
X1198624
X1204530
X1210435
X1216341
X1222246
X1204530Y0563455
X1198624
X1175916Y0563534
Y0566644
X1160239Y0557550
X1151380Y0563455
X1177491Y0474872
X1176152Y0471841
X1186979Y0474872
X1190404Y0474164
X1198624Y0468967
X1068317Y0472432
X1064774Y0472628
X1062097Y0471920
X1054065Y0471132
X1050128Y0470154
X1050758Y0513534
X1047963Y0515306
X1040160Y0516211
Y0528022
X1037207Y0533928
X1037333Y0537156
X1037136Y0542550
X1037207Y0545739
X1037294Y0549046
X1040365Y0548062
Y0544912
Y0541841
X1031302Y0545739
Y0533928
X1052258Y0539321
X1051971Y0528022
X1057412Y0524833
X1063782Y0524439
X1078672Y0524518
X1080719Y0509125
X1084451Y0510306
X1093309Y0516211
X1085680Y0546617
X1085286Y0553573
X1085246Y0556148
X1081124Y0555069
X1071624Y0555857
X1066900Y0555847
X1056971Y0555463
X1055050Y0566959
X1054459Y0571192
X1054065Y0577432
X1050128Y0576453
X1045837Y0572943
X1047884Y0569676
X1045640Y0566762
X1043869Y0564164
X1037207Y0557550
X1063632Y0566959
X1066152Y0573062
X1064774Y0578928
X1062097Y0578219
X1068317Y0578731
X1085166Y0574479
X1088317
X1090955Y0574400
X1090994Y0571447
X1088199
X1085168Y0571290
X1088869Y0566014
X1093672Y0569361
X1058121Y0507707
X0985042Y0516211
X0987994Y0522117
X0982089
X0974656Y0521605
X0974695Y0518506
X0969026Y0515817
X0966191Y0520069
X0960680Y0525502
X0953554Y0526644
X0950443
X0947136
X0943947Y0526605
X0940404Y0525857
X0940246Y0532156
X0945404Y0530657
X0947294Y0540345
X0940246Y0539361
X0953475Y0543376
X0956821Y0538614
X0954026Y0534872
X0952561Y0522117
X0950089Y0523101
X0949853Y0519243
Y0514794
Y0506526
X0954223Y0506447
X0961420Y0504400
X0967325
X0976184Y0510306
X0975404Y0528506
X0973435Y0530857
X0973475Y0534203
X0976900Y0534125
X0979971Y0534203
X0988317Y0534912
Y0537865
X0990947Y0539833
X0985837Y0540475
X0982845Y0541470
X0982727Y0544715
X0978160Y0548743
Y0552589
X0975522Y0554282
X0984892Y0554006
X0987530Y0560030
X0982766Y0564292
X0975719Y0568032
X0975247Y0571841
X0972254Y0571880
X0969341Y0571920
X0966428
X0963002Y0568849
X0966034Y0565463
X0964184Y0560542
X0964372Y0557550
X0960680Y0557392
Y0560345
X0960246Y0563691
X0956939Y0563258
X0958160Y0566565
X0955741Y0568431
X0953396Y0570778
X0955514Y0575266
X0949609
X0943703
X0942620Y0572550
X0939223Y0572668
X0937798Y0575266
X0946038Y0572207
X0948199Y0563219
X0944420Y0558652
X0944459Y0555935
X0962884Y0554569
X0961420Y0551644
X0965010Y0549243
X0964026Y0540109
X0973554Y0538219
X0985042Y0528022
X0990947
X0993900Y0533928
X0978278Y0571762
X0973231Y0575266
X0945286Y0519125
X0941861Y0515424
X0938987Y0515463
X0940750Y0510306
X0943703Y0504400
Y0468967
X0949609
X0955514
X0973231
X0937798
X0934845Y0510306
X0928939
X0925987Y0516211
X0932766Y0515424
X0935719
X0932687Y0519006
X0923034Y0522117
X0920081Y0528022
X0917128Y0533928
X0920081Y0539833
X0924459Y0540739
X0924341Y0544156
X0924223Y0547550
X0924459Y0550621
Y0554605
X0929380Y0554533
X0929459Y0559085
X0932530Y0556920
X0932136Y0572077
X0936073Y0572550
X0928939Y0569361
X0920081Y0551644
X0917128Y0545739
X0928396Y0540617
X0932136Y0540581
X0936625Y0539006
X0925202Y0535463
X0879727Y0533928
X0875207Y0533101
Y0529282
Y0525463
X0872294Y0523495
X0866270Y0523416
X0865994Y0519518
X0863120Y0515857
X0871015Y0515227
X0862727Y0506841
X0859058Y0504400
X0854183Y0509125
X0850876Y0508573
X0845542Y0510325
X0844144Y0512746
X0841349Y0515542
X0842058Y0519026
X0836900Y0515239
X0836073Y0511132
X0832483Y0510306
X0831506Y0507077
X0835522Y0507156
X0839105Y0508573
X0845214Y0501487
X0849302Y0501723
X0856152Y0520109
X0859577Y0523101
X0863317Y0525823
X0864026Y0533928
X0863514Y0540030
X0862132Y0542707
X0862010Y0545739
X0858947Y0546014
X0860758Y0548298
X0861861Y0551046
X0858908Y0551289
X0864963Y0551644
X0864892Y0554873
X0870868Y0551644
X0876774
X0879727Y0545739
X0873821
X0871585Y0542865
X0867097Y0543022
X0867916Y0545739
X0874883Y0540896
X0857963Y0541565
X0858121Y0535660
X0850247Y0535817
X0846152Y0534479
X0846451Y0530227
X0849932Y0530069
X0853002Y0529715
X0841341Y0528022
X0837963Y0529479
X0838026Y0526487
X0835435Y0528022
X0833947Y0531132
X0829971Y0531223
X0829530Y0528022
X0823624
X0825207Y0531290
X0822254Y0535139
X0822294Y0539951
X0817719Y0539833
X0811813
X0805908
X0808861Y0545739
X0814766
X0811813Y0551644
X0817719
X0816152Y0558691
X0816034Y0561959
Y0565069
X0819656Y0558652
X0822687Y0558573
X0832176Y0558928
X0836073Y0558888
X0838388Y0557550
X0837648Y0561132
X0837592Y0563967
X0837546Y0567156
X0837491Y0569873
X0835837Y0572707
X0835435Y0575266
X0832569Y0572707
X0829577Y0572589
X0829530Y0575266
X0826624Y0572658
X0823475Y0572628
X0841341Y0575266
X0853152
X0860719Y0575306
X0862010Y0569361
X0860640Y0566132
X0865207Y0572235
X0849090Y0570109
X0845128Y0565936
X0847246Y0563455
X0849223Y0561369
X0849262Y0556920
Y0552274
X0849302Y0547786
X0843869Y0547117
X0842648Y0551014
X0844577Y0557589
Y0561447
X0847058Y0541684
X0840365Y0534518
X0837963Y0532589
X0834223Y0539794
X0830089Y0538967
X0830168Y0542746
X0831388Y0545266
Y0548319
X0832483Y0522117
X0826577
X0820672
X0814766
X0808861
X0805908Y0528022
X0811813
X0817719
X0814766Y0533928
X0808861
X0802955
X0811813Y0516211
X0817719
X0823624
X0829530
X0825640Y0507077
X0820601Y0506880
X0829530Y0468967
X0835435
X0841341
X0853152
X0860719Y0469006
X0808861Y0557550
T03
X1172215Y0354321
Y0460620
Y0566919
T04
X1150523Y0337904
X1167136Y0363731
X1150523Y0444203
X1167136Y0470030
X1150523Y0550502
X1167136Y0576329
T05
X1099236Y0297155
X1108484Y0311202
X1142871Y0311172
X1085211Y0287658
X1068632Y0284479
X1052012Y0287640
X1037924Y0297077
X1028698Y0311172
X0994311Y0311202
X0985168Y0297077
X0971037Y0287658
X0954432Y0284479
X0937838Y0287640
X0923750Y0297077
X0914524Y0311172
X0880138Y0311202
X0870994Y0297077
X0856864Y0287658
X0840286Y0284479
X0823665Y0287640
X0809577Y0297077
X0800351Y0311172
X0796979Y0327719
X0800482Y0344226
X0809971Y0358101
X0840286Y0371093
Y0390778
X0856864Y0393957
X0870994Y0403376
X0880138Y0417501
X0883565Y0434018
X0880126Y0450436
X0870601Y0464400
X0924144
X0914656Y0450525
X0911152Y0434018
X0914524Y0417471
X0923750Y0403376
X0924144Y0358101
X0914656Y0344226
X0911152Y0327719
X0883565
X0880126Y0344137
X0870601Y0358101
X0856819Y0367714
X0823665Y0393939
X0809577Y0403376
X0800351Y0417471
X0796979Y0434018
X0800482Y0450525
X0809971Y0464400
X0984774
X0994299Y0450436
X0997739Y0434018
X0994311Y0417501
X0985168Y0403376
X0971037Y0393957
X0954432Y0390778
X0954459Y0371093
X0970992Y0367714
X0984774Y0358101
X0994299Y0344137
X0997739Y0327719
X1025325Y0327786
X1028829Y0344226
X1038317Y0358101
X1068632Y0371093
Y0390778
X1085211Y0393957
X1085166Y0367714
X1052012Y0393939
X1037924Y0403376
X1028698Y0417471
X1025325Y0434085
X1028829Y0450525
X1038317Y0464400
X0937838Y0393939
X1099236Y0403454
X1108484Y0417501
X1111912Y0434085
X1108472Y0450436
X1098947Y0464400
X1152491
X1143002Y0450525
X1139499Y0434085
X1142871Y0417471
X1152491Y0358101
X1143002Y0344226
X1139499Y0327786
X1111912Y0327786
X1108472Y0344137
X1098947Y0358101
X1099236Y0509753
X1108484Y0523800
X1111912Y0540384
X1108472Y0556735
X1098947Y0570699
X1152491
X1143002Y0556824
X1139499Y0540384
X1142871Y0523770
X1085211Y0500256
X1068632Y0497077
Y0477392
X1085166Y0474013
X1052012Y0500239
X1037924Y0509676
X1028698Y0523770
X1025325Y0540384
X1028829Y0556824
X1038317Y0570699
X1068632Y0583691
X1085166Y0580312
X0984774Y0570699
X0970992Y0580312
X0954459Y0583691
X0994299Y0556735
X0997739Y0540317
X0994311Y0523800
X0985168Y0509676
X0971037Y0500256
X0954432Y0497077
X0954459Y0477392
X0970992Y0474013
X0937838Y0500239
X0923750Y0509676
X0914524Y0523770
X0911152Y0540317
X0914656Y0556824
X0924144Y0570699
X0870601
X0856819Y0580312
X0840286Y0583691
X0809971Y0570699
X0800482Y0556824
X0796979Y0540317
X0800351Y0523770
X0809577Y0509676
X0823665Y0500239
X0840286Y0497077
Y0477392
X0856819Y0474013
X0856864Y0500256
X0870994Y0509676
X0880138Y0523800
X0883565Y0540317
X0880126Y0556735
T06
X1155404Y0290384
X1159053Y0288022
X1044880
X1041231Y0290384
X0930707Y0288022
X0927057Y0290384
X0817321Y0287786
X0813672Y0290148
X0817636Y0367302
X0821487Y0369309
X0825313Y0370963
X0817321Y0394085
X0813672Y0396447
X0885837Y0421999
X0886900Y0426369
X0927057Y0396684
X0930707Y0394321
X0931022Y0367538
X0934873Y0369546
X0886900Y0320069
X0885837Y0315699
X0938699Y0371199
X1045195Y0367538
X1049046Y0369546
X1052872Y0371199
X1044880Y0394321
X1041231Y0396684
X0999223Y0422235
X1000286Y0426605
Y0320306
X0999223Y0315935
X1113396
X1114459Y0320306
X1159369Y0367538
X1163219Y0369546
X1167046Y0371199
X1159053Y0394321
X1155404Y0396684
X1113396Y0422235
X1114459Y0426605
X1228632
X1227569Y0422235
X1228632Y0320306
X1227569Y0315935
Y0528534
X1228632Y0532904
X1159053Y0500620
X1155404Y0502983
X1159369Y0473837
X1163219Y0475845
X1167046Y0477498
X1113396Y0528534
X1114459Y0532904
X1159369Y0580136
X1163219Y0582144
X1167046Y0583798
X1052872
X1049046Y0582144
X1045195Y0580136
X1044880Y0500620
X1041231Y0502983
X1045195Y0473837
X1049046Y0475845
X1052872Y0477498
X0999223Y0528534
X1000286Y0532904
X0938699Y0583798
Y0477498
X0934873Y0475845
X0931022Y0473837
X0930707Y0500620
X0927057Y0502983
X0885837Y0528298
X0886900Y0532668
X0931022Y0580136
X0934873Y0582144
X0825313Y0583562
X0821487Y0581908
X0817636Y0579900
X0817321Y0500384
X0813672Y0502746
X0817636Y0473601
X0821487Y0475609
X0825313Y0477262
T07
X1058632Y0356246
Y0364247
X1078632Y0360246
Y0466546
X1058632Y0462546
Y0470546
Y0568845
Y0576845
X1078632Y0572845
T08
X0769685Y0293307
X1259842Y0563189
M30
