M48
;Layer_Color=9474304
;FILE_FORMAT=2:5
INCH
;TYPE=PLATED
T1F00S00C0.01181
T2F00S00C0.01575
T3F00S00C0.01968
T4F00S00C0.02362
T5F00S00C0.03937
T6F00S00C0.04331
T7F00S00C0.04724
T8F00S00C0.08268
T9F00S00C0.12205
;TYPE=NON_PLATED
T10F00S00C0.03917
%
T01
X0143181Y0130157
X0148102
X0150563Y0135079
X0145642
X0148102Y0140000
X0153024
X0150563Y0144921
X0145642
X0148102Y0149843
X0153024
X0155484Y0154764
X0150563
X0145642
X0143181Y0149843
Y0140000
X0159252Y0146654
X0160406Y0154764
X0165327
X0170248
X0175169
X0175630Y0150551
X0180433Y0150984
X0179685Y0153701
X0181732Y0148268
X0183425Y0145984
X0185669Y0144055
X0188228Y0142559
X0191142Y0141614
X0197441
X0200591Y0142717
X0207283Y0149016
X0208465Y0151772
X0212993Y0149574
X0218655Y0151589
X0215984Y0156181
X0225251Y0154639
X0227730Y0154553
X0228425Y0149764
X0236181Y0146142
X0239173Y0151969
X0247638Y0151339
Y0148661
X0247598Y0145827
Y0142953
Y0140079
X0244419Y0141678
X0244067Y0144921
X0244279Y0138050
X0244067Y0135079
X0247489Y0135224
X0246890Y0128780
X0244016
X0241142
X0238307
X0235433
X0232559
X0229685
X0226791Y0128760
X0224567Y0128740
X0221693
X0218819
X0215984
X0213110
X0210236
X0207362Y0128701
X0214539Y0135079
X0232874Y0133268
X0239146Y0135079
X0267480Y0135826
X0270275Y0135866
X0273110
X0275945
X0278819
X0281653
X0284488
X0287362
X0287283Y0132322
X0284409
X0281535
X0279016Y0132283
X0276102
X0273228
X0270354
X0267480
X0274055Y0144685
X0290157Y0132322
X0293031
X0302598Y0132401
X0305472
X0308346
X0311220
X0310433Y0137322
X0308307Y0135472
X0305433Y0135511
X0302559Y0135551
X0309764Y0148543
X0311732Y0146771
X0296850Y0151023
X0178189Y0146654
X0181299Y0142913
X0175394Y0139567
Y0135630
X0179449Y0133504
X0314094Y0132401
X0317638Y0131614
X0320512
X0323386
X0326260
X0329173
X0332086
X0334961
X0340748Y0131535
X0343622Y0131495
X0346535
X0349449
X0353228Y0136692
X0352362Y0146810
X0352401Y0149803
X0353819Y0152086
X0356772
X0359646Y0150984
X0366496Y0151850
X0366890Y0154330
X0370197Y0155629
X0378386Y0154999
X0373740Y0148661
X0371457Y0145866
X0368189Y0144999
X0366772Y0139960
X0366732Y0137086
X0366693Y0134212
Y0131495
X0363819
X0360945
X0369606
X0346063Y0147558
X0343464Y0152243
X0333268Y0152362
X0326929Y0153543
X0316693Y0153346
X0316378Y0135157
X0319016Y0135236
X0337205Y0143188
X0421299Y0154724
X0429488Y0162322
X0435472Y0159645
X0374646Y0159960
X0374685Y0163110
X0371772Y0163031
X0371693Y0166259
X0368740Y0166299
X0365866
X0374724Y0166220
X0372598Y0157755
X0361221Y0156299
X0356535Y0158425
X0353386
X0350236
X0347047
X0343898
X0343701Y0166141
X0346614Y0166102
X0349724Y0166062
X0352795Y0165984
X0355591
X0354685Y0171535
X0352165
X0357244Y0171456
X0358425Y0181220
Y0183976
X0358386Y0187243
X0357913Y0190944
X0357795Y0194999
X0361023Y0195039
X0364488Y0194999
X0367835
X0371102Y0195039
X0374134Y0194999
X0374213Y0189960
X0374173Y0186771
X0374213Y0184173
X0373701Y0177401
X0371260
X0368740
X0352716Y0182783
X0352677Y0188779
X0348709Y0193008
X0346189Y0186547
X0343898Y0179448
X0339606Y0180629
X0338976Y0182913
X0335590Y0183098
X0330827Y0189606
X0333937Y0195078
X0338189Y0195118
X0339685Y0174370
X0342236Y0174318
X0344724Y0174330
X0346378Y0171692
X0340610Y0166161
X0328976Y0168622
Y0171495
X0328898Y0174606
X0327795Y0179015
X0324882Y0179369
X0325315Y0168149
X0321693Y0168267
X0316732Y0160393
X0327756Y0157362
X0316221Y0193267
X0317638Y0224527
X0320512
X0323386
X0326260
X0329173
X0332086
X0334961
X0340748Y0224448
X0343622Y0224409
X0346535
X0349449
X0353228Y0229606
X0352362Y0239724
X0352401Y0242716
X0353819Y0245000
X0356772
X0359646Y0243897
X0361221Y0249212
X0356535Y0251338
X0353386
X0350236
X0347047
X0343898
X0343464Y0245157
X0346063Y0240472
X0337205Y0236102
X0333268Y0245275
X0326929Y0246456
X0327756Y0250275
X0328976Y0261535
Y0264409
X0328898Y0267519
X0327795Y0271929
X0324882Y0272283
X0325315Y0261062
X0321693Y0261181
X0316732Y0253307
X0316693Y0246259
X0316378Y0228070
X0319016Y0228149
X0314094Y0225314
X0360945Y0224409
X0363819
X0366693
Y0227125
X0366732Y0229999
X0366772Y0232874
X0368189Y0237913
X0371457Y0238779
X0373740Y0241574
X0372598Y0250669
X0374646Y0252873
X0374685Y0256023
X0371772Y0255944
X0371693Y0259173
X0368740Y0259212
X0365866
X0374724Y0259133
X0373701Y0270314
X0371260
X0368740
X0374213Y0277086
X0374173Y0279684
X0374213Y0282874
X0374134Y0287913
X0371102Y0287952
X0367835Y0287913
X0364488
X0361023Y0287952
X0357795Y0287913
X0357913Y0283858
X0358386Y0280157
X0358425Y0276889
Y0274133
X0352716Y0275696
X0352677Y0281692
X0348709Y0285922
X0346189Y0279460
X0343898Y0272362
X0339606Y0273543
X0338976Y0275826
X0335590Y0276011
X0330827Y0282519
X0333937Y0287992
X0338189Y0288031
X0339685Y0267283
X0342236Y0267232
X0344724Y0267244
X0346378Y0264606
X0346614Y0259015
X0343701Y0259055
X0340610Y0259074
X0349724Y0258976
X0352795Y0258897
X0355591
X0354685Y0264448
X0352165
X0357244Y0264370
X0366890Y0247244
X0366496Y0244763
X0370197Y0248543
X0378386Y0247913
X0369606Y0224409
X0421299Y0247637
X0429488Y0255236
X0435472Y0252558
X0316221Y0286181
X0310945Y0284369
X0304134Y0286181
X0301378
X0300827Y0280078
X0303976Y0273307
X0307126Y0274094
X0310994Y0271387
X0311850Y0262283
X0306693Y0265433
X0302283Y0262440
X0307401Y0256299
X0308819Y0251259
X0309764Y0241456
X0311732Y0239685
X0310433Y0230236
X0308307Y0228385
X0305433Y0228425
X0302559Y0228464
X0302598Y0225314
X0305472
X0308346
X0311220
X0293031Y0225236
X0290157
X0287283
X0284409
X0281535
X0279016Y0225196
X0276102
X0273228
X0270354
X0267480
Y0228740
X0270275Y0228779
X0273110
X0275945
X0278819
X0281653
X0284488
X0287362
X0274055Y0237598
X0281083Y0252381
X0278386Y0260669
X0267323Y0256732
X0267992Y0277362
Y0280393
X0268031Y0283346
Y0286377
X0247479Y0287373
X0247548Y0284548
X0247584Y0281896
X0247479Y0279070
X0247513Y0276280
X0241583Y0277462
X0241553Y0275052
X0238843Y0274412
X0236433Y0274102
X0234163Y0275202
X0232233Y0273562
Y0271152
X0231983Y0268742
X0235983Y0270182
X0237205Y0265551
X0242753Y0268492
X0241613Y0279892
X0241643Y0282332
X0241163Y0289782
X0243825Y0289815
X0246372Y0289815
X0238453Y0289782
X0235823
X0233333
X0230773Y0289672
X0229553Y0287422
Y0284982
X0227113
X0224703
X0222293
X0222323Y0287422
X0223031Y0289961
X0220463Y0290162
X0218033
X0215623
X0213193
X0210783
X0208383Y0290102
Y0287672
X0208353Y0285022
X0205923
X0203513
X0201113
X0198713
X0196260Y0285236
X0193898Y0284449
X0191929Y0282874
X0191142Y0280512
Y0278150
Y0275787
Y0273425
Y0271063
Y0268701
X0187992
Y0271063
X0184843Y0268701
X0182551Y0272284
X0177630
X0172709
X0167787
X0162866
X0157945
X0160406Y0277205
X0165327
X0170248
X0175169
X0180091
X0185012
X0187472Y0282126
X0182551
X0177630
X0172709
X0167787
X0162866
X0157945
X0160406Y0287047
X0165327
X0170248
X0175169
X0180091
X0185012
X0189933
X0192394Y0291969
X0197315
X0202236
X0187472
X0182551
X0177630
X0172709
X0167787
X0162866
X0157945
X0160406Y0267362
X0165327
X0170248
X0175169
X0180091
X0177630Y0262441
X0172709
X0167787
X0162866
X0157945
X0160406Y0257520
X0165327
X0170248
X0175169
X0182008Y0257283
X0183543Y0259173
X0185315Y0260748
X0187598Y0262165
X0180748Y0254921
X0179842Y0252165
X0179528Y0249331
X0179685Y0246614
X0180433Y0243898
X0181732Y0241181
X0183425Y0238898
X0185669Y0236969
X0188228Y0235472
X0191142Y0234528
X0197441
X0200591Y0235630
X0207283Y0241929
X0208465Y0244685
X0212993Y0242488
X0218655Y0244502
X0215984Y0249095
X0215545Y0253678
X0215500Y0256968
X0215320Y0260212
X0215410Y0263167
X0215522Y0266053
X0215701Y0268784
X0216673Y0271752
X0219313Y0271672
X0221703Y0272592
X0221803Y0275612
X0224394Y0275292
X0224043Y0278122
X0226223Y0273432
X0225833Y0270912
X0224663Y0268622
X0222244Y0268701
X0219882
X0221260Y0261260
X0225571Y0262697
X0229842Y0263701
X0226575Y0257677
X0227008Y0251299
X0227730Y0247467
X0225251Y0247553
X0228425Y0242677
X0236181Y0239055
X0239173Y0244882
X0247638Y0244252
Y0241575
X0247598Y0238740
Y0235866
Y0232992
X0244419Y0234591
X0244067Y0237835
X0244279Y0230963
X0244067Y0227992
X0247489Y0228138
X0246890Y0221693
X0244016
X0241142
X0238307
X0235433
X0232559
X0229685
X0226791Y0221673
X0224567Y0221654
X0221693
X0218819
X0215984
X0213110
X0210236
X0207362Y0221614
X0214539Y0227992
X0232874Y0226181
X0239146Y0227992
X0231811Y0251496
X0231929Y0254331
X0212121Y0253835
X0208386Y0253701
X0207283Y0256102
X0205709Y0258465
X0203740Y0260433
X0201654Y0261851
X0201243Y0265332
X0198003Y0267922
X0198033Y0270702
Y0273482
X0201031Y0274487
X0201803Y0277372
X0204763Y0277422
X0207423Y0277442
X0209883Y0277252
X0209773Y0274332
X0210903Y0271792
X0213923Y0271722
X0247638Y0259331
X0293858Y0256023
X0296024Y0268228
X0298728Y0271850
X0291457Y0278897
X0287677Y0278976
X0290591Y0285472
X0296850Y0243936
X0301378Y0193267
X0304134
X0310945Y0191456
X0310994Y0178474
X0307126Y0181181
X0303976Y0180393
X0298728Y0178937
X0296024Y0175314
X0302283Y0169527
X0306693Y0172519
X0311850Y0169369
X0307401Y0163385
X0308819Y0158346
X0293858Y0163110
X0281083Y0159468
X0278386Y0167755
X0267323Y0163818
X0267992Y0184448
Y0187480
X0268031Y0190433
Y0193464
X0247479Y0194460
X0247548Y0191634
X0247584Y0188983
X0247479Y0186157
X0247513Y0183366
X0241583Y0184549
X0241553Y0182139
X0238843Y0181499
X0236433Y0181189
X0234163Y0182289
X0232233Y0180649
Y0178239
X0231983Y0175829
X0235983Y0177269
X0237205Y0172638
X0242753Y0175579
X0241613Y0186979
X0241643Y0189419
X0241163Y0196869
X0243825Y0196901
X0246372Y0196902
X0238453Y0196869
X0235823
X0233333
X0230773Y0196759
X0229553Y0194509
Y0192069
X0227113
X0224703
X0222293
X0222323Y0194509
X0223031Y0197047
X0220463Y0197249
X0218033
X0215623
X0213193
X0210783
X0208383Y0197189
Y0194759
X0208353Y0192109
X0205923
X0203513
X0201113
X0198713
X0196260Y0192323
X0193898Y0191535
X0191929Y0189961
X0191142Y0187599
Y0185236
Y0182874
Y0180512
Y0178150
Y0175787
X0187992
Y0178150
X0184843Y0175787
X0182551Y0179370
X0177630
X0172709
X0167787
X0162866
X0157945
X0160406Y0184291
X0165327
X0170248
X0175169
X0180091
X0185012
X0187472Y0189213
X0182551
X0177630
X0172709
X0167787
X0162866
X0157945
X0160406Y0194134
X0165327
X0170248
X0175169
X0180091
X0185012
X0189933
X0192394Y0199055
X0197315
X0202236
X0187472
X0182551
X0177630
X0172709
X0167787
X0162866
X0157945
X0160406Y0174449
X0165327
X0170248
X0175169
X0180091
X0177630Y0169528
X0172709
X0167787
X0162866
X0157945
X0160406Y0164606
X0165327
X0170248
X0175169
X0182008Y0164370
X0183543Y0166260
X0185315Y0167835
X0187598Y0169252
X0180748Y0162008
X0179842Y0159252
X0179528Y0156417
X0172709Y0159685
X0167787
X0162866
X0157945
X0208386Y0160787
X0207283Y0163189
X0205709Y0165551
X0203740Y0167520
X0201654Y0168937
X0201243Y0172419
X0198003Y0175009
X0198033Y0177789
Y0180569
X0201031Y0181574
X0201803Y0184459
X0204763Y0184509
X0207423Y0184529
X0209883Y0184339
X0209773Y0181419
X0210903Y0178879
X0213923Y0178809
X0216673Y0178839
X0219313Y0178759
X0221703Y0179679
X0221803Y0182699
X0224394Y0182379
X0224043Y0185209
X0226223Y0180519
X0225833Y0177999
X0224663Y0175709
X0222244Y0175787
X0219882
X0215701Y0175871
X0215522Y0173140
X0215410Y0170254
X0215320Y0167299
X0215500Y0164054
X0215545Y0160765
X0212121Y0160921
X0221260Y0168347
X0225571Y0169783
X0229842Y0170787
X0226575Y0164764
X0227008Y0158386
X0231811Y0158583
X0231929Y0161417
X0247638Y0166417
X0287677Y0186062
X0291457Y0185984
X0290591Y0192559
X0300827Y0187165
X0179449Y0226417
X0175394Y0228543
Y0232480
X0181299Y0235827
X0178189Y0239567
X0175630Y0243465
X0175169Y0247677
X0170248
X0165327
X0160406
X0162866Y0252599
X0167787
X0172709
X0157945
X0159252Y0239567
X0153024Y0242756
X0148102
X0143181
X0145642Y0247677
X0150563
X0155484
X0153024Y0252599
X0148102
X0143181
X0145642Y0257520
X0150563
X0155484
X0153024Y0262441
X0148102
X0143181
X0145642Y0267362
X0150563
X0155484
X0153024Y0272284
X0148102
X0143181
X0145642Y0277205
X0150563
X0155484
X0153024Y0282126
X0148102
X0143181
X0145642Y0287047
X0150563
X0155484
X0153024Y0291969
X0148102
X0143181
X0145642Y0237835
X0150563
X0153024Y0232913
X0148102
X0143181
X0145642Y0227992
X0150563
X0148102Y0223071
X0143181
Y0199055
X0148102
X0153024
X0155484Y0194134
X0150563
X0145642
X0148102Y0189213
X0153024
X0155484Y0184291
X0150563
X0145642
X0148102Y0179370
X0153024
X0155484Y0174449
X0150563
X0145642
X0148102Y0169528
X0153024
X0155484Y0164606
X0150563
X0145642
X0148102Y0159685
X0153024
X0143181
Y0169528
Y0179370
Y0189213
Y0315984
X0148102
X0150563Y0320906
X0145642
X0148102Y0325827
X0153024
X0150563Y0330748
X0145642
X0148102Y0335669
X0153024
X0155484Y0340591
X0150563
X0145642
X0148102Y0345512
X0153024
X0155484Y0350433
X0150563
X0145642
X0148102Y0355354
X0153024
X0155484Y0360276
X0150563
X0145642
X0148102Y0365197
X0153024
X0155484Y0370118
X0150563
X0145642
X0148102Y0375040
X0153024
X0155484Y0379961
X0150563
X0145642
X0148102Y0384882
X0153024
X0143181
Y0375040
Y0365197
Y0355354
Y0345512
Y0335669
Y0325827
X0159252Y0332480
X0160406Y0340591
X0165327
X0170248
X0175169
X0175630Y0336378
X0180433Y0336811
X0179685Y0339528
X0179528Y0342244
X0179842Y0345079
X0180748Y0347835
X0182008Y0350197
X0183543Y0352087
X0185315Y0353661
X0187598Y0355079
X0187992Y0361614
Y0363977
X0191142
Y0366339
Y0368701
Y0371063
Y0373425
X0191929Y0375787
X0193898Y0377362
X0196260Y0378150
X0198713Y0377936
X0201113
X0203513
X0205923
X0208353
X0208383Y0380586
Y0383016
X0210783Y0383076
X0213193
X0215623
X0218033
X0220463
X0223031Y0382874
X0222323Y0380336
X0222293Y0377896
X0224703
X0227113
X0229553
Y0380336
X0230773Y0382586
X0233333Y0382696
X0235823
X0238453
X0241163
X0243825Y0382728
X0246372Y0382729
X0247479Y0380287
X0247548Y0377461
X0247584Y0374810
X0247479Y0371984
X0247513Y0369193
X0241583Y0370376
X0241553Y0367966
X0238843Y0367326
X0236433Y0367016
X0234163Y0368116
X0232233Y0366476
Y0364066
X0231983Y0361656
X0235983Y0363096
X0237205Y0358465
X0242753Y0361406
X0241613Y0372806
X0241643Y0375246
X0224043Y0371036
X0224394Y0368206
X0221803Y0368526
X0221703Y0365506
X0219313Y0364586
X0216673Y0364666
X0213923Y0364636
X0210903Y0364706
X0209773Y0367246
X0209883Y0370166
X0207423Y0370356
X0204763Y0370336
X0201803Y0370286
X0201031Y0367401
X0198033Y0366396
Y0363616
X0198003Y0360836
X0201243Y0358246
X0201654Y0354764
X0203740Y0353346
X0205709Y0351378
X0207283Y0349016
X0208386Y0346614
X0212121Y0346748
X0215545Y0346591
X0215500Y0349881
X0215320Y0353126
X0215410Y0356080
X0215522Y0358967
X0215701Y0361698
X0219882Y0361614
X0222244
X0224663Y0361536
X0225833Y0363826
X0226223Y0366346
X0225571Y0355610
X0229842Y0356614
X0226575Y0350591
X0227008Y0344213
X0227730Y0340380
X0225251Y0340466
X0228425Y0335591
X0236181Y0331969
X0239173Y0337795
X0247638Y0337165
Y0334488
X0247598Y0331654
Y0328780
Y0325906
X0244419Y0327505
X0244067Y0330748
X0244279Y0323877
X0244067Y0320906
X0247489Y0321051
X0246890Y0314606
X0244016
X0241142
X0238307
X0235433
X0232559
X0229685
X0226791Y0314587
X0224567Y0314567
X0221693
X0218819
X0215984
X0213110
X0210236
X0207362Y0314528
X0214539Y0320906
X0212993Y0335401
X0207283Y0334843
X0208465Y0337598
X0218655Y0337416
X0215984Y0342008
X0221260Y0354173
X0231929Y0347244
X0231811Y0344409
X0247638Y0352244
X0267323Y0349645
X0278386Y0353582
X0281083Y0345295
X0293858Y0348937
X0307401Y0349212
X0308819Y0344173
X0309764Y0334370
X0311732Y0332598
X0310433Y0323149
X0308307Y0321299
X0305433Y0321338
X0302559Y0321377
X0302598Y0318228
X0305472
X0308346
X0311220
X0293031Y0318149
X0290157
X0287283
X0284409
X0281535
X0279016Y0318110
X0276102
X0273228
X0270354
X0267480
Y0321653
X0270275Y0321692
X0273110
X0275945
X0278819
X0281653
X0284488
X0287362
X0274055Y0330511
X0296850Y0336850
X0302283Y0355354
X0306693Y0358346
X0311850Y0355196
X0310994Y0364301
X0307126Y0367007
X0303976Y0366220
X0298728Y0364763
X0296024Y0361141
X0291457Y0371811
X0287677Y0371889
X0290591Y0378385
X0301378Y0379094
X0304134
X0310945Y0377283
X0300827Y0372992
X0267992Y0373307
X0268031Y0376259
Y0379291
X0267992Y0370275
X0239146Y0320906
X0232874Y0319095
X0200591Y0328543
X0197441Y0327441
X0191142
X0188228Y0328386
X0185669Y0329882
X0183425Y0331811
X0181732Y0334095
X0178189Y0332480
X0181299Y0328740
X0175394Y0325394
Y0321457
X0179449Y0319331
X0172709Y0345512
X0167787
X0162866
X0157945
X0160406Y0350433
X0165327
X0170248
X0175169
X0177630Y0355354
X0172709
X0167787
X0162866
X0157945
X0160406Y0360276
X0165327
X0170248
X0175169
X0180091
X0184843Y0361614
X0182551Y0365197
X0177630
X0172709
X0167787
X0162866
X0157945
X0160406Y0370118
X0165327
X0170248
X0175169
X0180091
X0185012
X0187472Y0375040
X0182551
X0177630
X0172709
X0167787
X0162866
X0157945
X0160406Y0379961
X0165327
X0170248
X0175169
X0180091
X0185012
X0189933
X0192394Y0384882
X0197315
X0202236
X0187472
X0182551
X0177630
X0172709
X0167787
X0162866
X0157945
X0191142Y0361614
X0324882Y0365196
X0327795Y0364842
X0328898Y0360433
X0328976Y0357322
Y0354448
X0325315Y0353976
X0321693Y0354094
X0316732Y0346220
X0316693Y0339173
X0326929Y0339370
X0327756Y0343189
X0333268Y0338189
X0343464Y0338070
X0343898Y0344251
X0347047
X0350236
X0353386
X0356535
X0356772Y0337913
X0353819
X0352401Y0335630
X0352362Y0332637
X0346063Y0333385
X0337205Y0329015
X0334961Y0317440
X0332086
X0329173
X0326260
X0323386
X0320512
X0317638
X0314094Y0318228
X0316378Y0320984
X0319016Y0321062
X0340748Y0317362
X0343622Y0317322
X0346535
X0349449
X0353228Y0322519
X0360945Y0317322
X0363819
X0366693
Y0320039
X0366732Y0322913
X0366772Y0325787
X0368189Y0330826
X0371457Y0331692
X0373740Y0334488
X0372598Y0343582
X0374646Y0345787
X0374685Y0348937
X0371772Y0348858
X0371693Y0352086
X0368740Y0352126
X0365866
X0374724Y0352047
X0373701Y0363228
X0371260
X0368740
X0374213Y0370000
X0374173Y0372598
X0374213Y0375787
X0374134Y0380826
X0371102Y0380866
X0367835Y0380826
X0364488
X0361023Y0380866
X0357795Y0380826
X0357913Y0376771
X0358386Y0373070
X0358425Y0369803
Y0367047
X0352716Y0368609
X0352677Y0374606
X0348709Y0378835
X0346189Y0372374
X0343898Y0365275
X0339606Y0366456
X0338976Y0368740
X0335590Y0368925
X0330827Y0375433
X0333937Y0380905
X0338189Y0380944
X0339685Y0360196
X0342236Y0360145
X0344724Y0360157
X0346378Y0357519
X0346614Y0351929
X0343701Y0351968
X0340610Y0351988
X0349724Y0351889
X0352795Y0351811
X0355591
X0354685Y0357362
X0352165
X0357244Y0357283
X0361221Y0342126
X0359646Y0336810
X0366496Y0337677
X0366890Y0340157
X0370197Y0341456
X0378386Y0340826
X0369606Y0317322
X0421299Y0340551
X0429488Y0348149
X0435472Y0345472
X0316221Y0379094
T02
X0382283Y0150984
Y0154921
Y0158070
Y0162007
Y0165157
Y0169094
Y0243897
Y0247834
Y0250984
Y0254921
Y0258070
Y0262007
Y0336810
Y0340747
Y0343897
Y0347834
Y0350984
Y0354921
T03
X0288583Y0128740
X0291535
X0294488
X0298976Y0134881
X0338346
X0356496Y0128740
X0359449
X0362402
X0366220Y0171692
X0369409Y0171771
X0372598Y0171692
X0369842Y0183267
X0366457Y0183188
X0363110
X0362402Y0197637
X0359449
X0356496
X0356496Y0221653
X0359449
X0362402
X0338346Y0227795
X0366220Y0264606
X0369409Y0264685
X0372598Y0264606
X0369842Y0276181
X0366457Y0276102
X0363110
X0362402Y0290551
X0359449
X0356496
X0294488
X0291535
X0288583
X0288583Y0221653
X0291535
X0294488
X0298976Y0227795
X0294488Y0197637
X0291535
X0288583
X0288583Y0314566
X0291535
X0294488
X0298976Y0320708
X0294488Y0383464
X0291535
X0288583
X0356496
X0359449
X0362402
X0363110Y0369015
X0366457
X0369842Y0369094
X0369409Y0357598
X0366220Y0357519
X0372598
X0362402Y0314566
X0359449
X0356496
X0338346Y0320708
T04
X0279685Y0147598
Y0240511
Y0333425
T05
X0269701Y0140354
X0368110Y0160039
Y0252952
X0269701Y0272637
Y0233267
Y0179724
Y0326181
Y0365551
X0368110Y0345866
T06
X0364445Y0177448
Y0270361
Y0363275
T07
X0194311Y0156102
Y0249015
Y0341929
T08
X0410827Y0148228
Y0171850
Y0241141
Y0264763
Y0334055
Y0357677
T09
X0150787Y0112992
X0424410Y0113189
X0153740Y0402362
X0422244Y0402559
T10
X0429587Y0149724
X0433587Y0169724
X0425587
X0429587Y0242637
X0433587Y0262637
X0425587
X0429587Y0335551
X0433587Y0355551
X0425587
M30
