M48
;Layer_Color=9474304
;FILE_FORMAT=2:5
INCH
;TYPE=PLATED
T1F00S00C0.01181
T2F00S00C0.01968
T3F00S00C0.02362
T4F00S00C0.03937
T5F00S00C0.08268
;TYPE=NON_PLATED
T6F00S00C0.03917
%
T01
X0111150Y0118661
X0113709
X0116268
X0118827
X0121386
X0123945
X0124142Y0120984
X0124260Y0123386
X0124221Y0125906
X0126110Y0127559
X0128669Y0128347
X0131228
X0133787
X0136346
X0138906
X0141465
X0143630Y0129882
X0146386
X0148945
X0143827Y0126929
Y0124567
X0137724Y0141417
X0134181Y0141969
X0131585Y0144055
X0126701Y0141102
Y0138543
Y0135984
X0124142
Y0138347
Y0141102
X0121386
X0118827
X0116268
X0113709
X0111150
Y0136575
Y0134016
Y0131457
Y0128898
Y0126339
Y0123779
Y0121221
X0110244Y0147126
X0113276Y0147087
X0116228Y0147047
X0119102
X0113197Y0150315
X0110284Y0150236
X0110323Y0153386
X0101701Y0154882
Y0151732
Y0150157
X0101701Y0147008
Y0145433
Y0143858
X0085559Y0148583
Y0153307
X0128433Y0154882
X0131583
X0134732
X0137921
X0141071
X0140677Y0146693
X0152803Y0142283
X0152842Y0139685
X0153827Y0150276
X0153905Y0153110
X0159614Y0151457
X0164693Y0150315
X0169535Y0151299
X0174496Y0150157
X0174535Y0154134
X0184457Y0150197
X0187685Y0136378
X0174299Y0133976
X0171260Y0133858
X0167323
X0165087Y0136181
X0164646Y0140197
X0169567
X0174537Y0140197
X0159724
X0158591Y0132835
X0159378Y0123622
X0159417Y0121181
X0156780
Y0123661
X0156819Y0118543
X0159457
X0170441Y0123937
X0173984Y0120512
X0183118Y0123386
X0216937Y0122913
X0216976Y0125866
Y0128898
X0216937Y0119882
X0217645Y0149528
X0208827Y0155394
X0208866Y0158189
X0208827Y0161063
X0208787Y0163937
X0211071Y0165630
X0217646Y0166299
X0217488Y0177520
X0214693Y0177480
X0211858
X0209024
X0206150
X0203315
X0200480
X0197606
X0197685Y0181024
X0200559
X0203433
X0205953Y0181063
X0208866
X0211740
X0214614
X0217488
X0210630Y0173228
X0202213Y0164134
X0187685Y0161417
X0185039Y0161417
X0185126Y0163976
X0174594Y0164232
X0172095Y0166575
X0169567Y0159882
X0159890Y0159764
X0162764Y0178622
X0166307Y0178661
X0167331Y0181732
X0164457
X0161583
X0158709
X0170874Y0180945
X0173748
X0176622
X0179496
X0182370
X0182409Y0177795
X0179535Y0177835
X0176661Y0177874
X0173787Y0177913
X0171110Y0175748
X0191937Y0181024
X0194811
X0155795Y0181732
X0152882
X0150008
X0144220Y0181968
X0141347Y0182008
X0138433
X0135520
X0131740Y0176654
X0132606Y0166535
X0132567Y0163543
X0131150Y0161339
X0128197
X0125323Y0162362
X0122252Y0162402
X0123787Y0157087
X0118039Y0159134
X0113236Y0156378
X0110362Y0156417
X0101701Y0156457
X0101701Y0159606
Y0162756
X0113512Y0167480
X0119417Y0168268
X0118197Y0173543
X0118236Y0176417
X0118276Y0179291
Y0182008
X0121150
X0124024
X0115362
X0138905Y0165787
X0141504Y0161102
X0151701Y0160984
X0152252Y0158228
X0149260Y0170748
T02
X0139693Y0138622
X0186386Y0179528
X0147016
T03
X0205362Y0166969
T04
X0116858Y0153307
X0215268Y0133622
Y0172992
T05
X0079654Y0141496
Y0165118
T06
X0088390Y0143583
X0096390
X0092390Y0163583
M30
