M48
;Layer_Color=9474304
;FILE_FORMAT=2:5
INCH
;TYPE=PLATED
T1F00S00C0.01181
T2F00S00C0.01575
T3F00S00C0.01968
T4F00S00C0.03150
T5F00S00C0.03543
T6F00S00C0.03937
T7F00S00C0.04331
T8F00S00C0.08268
T9F00S00C0.12205
;TYPE=NON_PLATED
T10F00S00C0.03917
%
T01
X0143181Y0130157
X0148102
X0150563Y0135079
X0145642
X0148102Y0140000
X0153024
X0150563Y0144921
X0145642
X0148102Y0149843
X0153024
X0155484Y0154764
X0150563
X0145642
X0143181Y0149843
Y0140000
X0159252Y0146654
X0160406Y0154764
X0165327
X0170248
X0175169
X0175630Y0150551
X0178189Y0146654
X0181299Y0142913
X0185012Y0144921
X0189933
X0194854
X0199776
X0197953Y0150591
X0201614Y0151102
X0204213Y0152795
X0206024Y0155236
X0209618Y0154764
X0215984Y0156181
X0218655Y0151589
X0212993Y0149574
X0228425Y0149764
X0227730Y0154553
X0225251Y0154639
X0239173Y0151969
X0236181Y0146142
X0244067Y0144921
X0244419Y0141678
X0244279Y0138050
X0244067Y0135079
X0247489Y0135224
X0247598Y0140079
Y0145827
X0247638Y0151339
X0267992Y0149921
Y0154606
X0272283Y0156141
X0267992Y0145236
Y0135826
Y0133503
X0270354Y0131181
X0275039
X0279724
X0284449
X0289134
X0293819
X0298504
X0303189
X0307874
X0307362Y0141102
X0304212Y0141417
X0300945Y0135314
X0291575Y0135944
X0301772Y0155905
X0303976
X0306535Y0155787
X0309409
X0311850
X0307520Y0152992
Y0150511
X0246890Y0128780
X0241142
X0235433
X0229685
X0224567Y0128740
X0218819
X0213110
X0207362Y0128701
X0229303Y0135079
X0232874Y0133268
X0239146Y0135079
X0194606Y0151535
X0192394Y0149843
X0192008Y0153583
X0185012Y0154764
X0180091
X0182551Y0149843
X0187472
X0175394Y0139567
Y0135630
X0179449Y0133504
X0312559Y0131181
X0317244
X0321929
X0326614
X0331299
X0335984
X0340669
X0345394
X0350079
X0354724
X0357992Y0131259
X0362205Y0131495
X0365984Y0132677
Y0135236
X0367835Y0131417
X0372441Y0131456
X0374173Y0143897
X0370512Y0144133
X0368464Y0142047
X0365551Y0144409
X0362323Y0145344
X0364055Y0149094
X0366417Y0155747
X0369803Y0155708
X0373661Y0150984
X0353150Y0153110
X0351299Y0155118
X0344370Y0155905
X0344646Y0153464
X0340984Y0154369
X0339212Y0156023
X0338661Y0153070
X0333110Y0151929
X0339134Y0145432
X0341417
X0343543
X0345630Y0145393
X0351102Y0142992
X0353937Y0144803
X0354291Y0140826
X0353937Y0137952
X0337795Y0140629
X0340039Y0143070
X0331929Y0139606
X0329488
X0327008
X0324606
X0322205
X0319961Y0137913
X0323543Y0136023
X0320433Y0154684
X0314252Y0155787
X0432087Y0154724
X0432047Y0159685
X0427165Y0165078
X0374370Y0164015
Y0161614
Y0159251
X0372165Y0157322
X0371850Y0162637
X0364291Y0162598
X0361299Y0162952
X0358031Y0162913
X0353701Y0162992
X0350669Y0163070
X0347480
X0344961Y0162952
X0341929
X0341890Y0156653
X0349606Y0156732
X0364212Y0156968
X0336772Y0160866
X0337953Y0167834
X0337480Y0171495
X0335276Y0171614
X0332835Y0171456
X0330591Y0171495
X0318622Y0171220
X0317992Y0168740
X0320709Y0169015
Y0162795
X0320472Y0159842
X0320512Y0157165
X0330827Y0158188
X0329882Y0183346
X0330079Y0185669
X0327913Y0184566
X0326142Y0183149
X0322205Y0187125
X0319842Y0187165
X0313425Y0189173
X0313622Y0179251
X0317874Y0175944
X0335433Y0183110
X0338228Y0183070
X0338858Y0187047
X0335591Y0186968
X0333661Y0189330
X0342953Y0186972
X0345354Y0186456
X0347482Y0181850
X0346613Y0179369
X0353346Y0186259
X0356535Y0187362
X0356063Y0193858
X0362244Y0194330
X0365354Y0194251
X0368149
X0371024
X0345551Y0195157
X0345394Y0224094
X0350079
X0354724
X0357992Y0224173
X0362205Y0224409
X0365984Y0225590
Y0228149
X0367835Y0224330
X0372441Y0224370
X0374173Y0236810
X0370512Y0237047
X0368464Y0234960
X0365551Y0237322
X0362323Y0238257
X0364055Y0242007
X0364212Y0249881
X0366417Y0248661
X0369803Y0248622
X0372165Y0250236
X0374370Y0252165
Y0254527
Y0256929
X0371850Y0255551
X0364291Y0255511
X0361299Y0255866
X0358031Y0255826
X0353701Y0255905
X0350669Y0255984
X0347480
X0344961Y0255866
X0341929
X0341890Y0249566
X0340984Y0247283
X0339212Y0248937
X0338661Y0245984
X0344646Y0246377
X0344370Y0248818
X0349606Y0249645
X0351299Y0248031
X0353150Y0246023
X0353937Y0237716
X0354291Y0233740
X0353937Y0230866
X0351102Y0235905
X0345630Y0238307
X0343543Y0238346
X0341417
X0339134
X0340039Y0235984
X0337795Y0233543
X0331929Y0232519
X0329488
X0327008
X0324606
X0322205
X0319961Y0230826
X0323543Y0228937
X0321929Y0224094
X0317244
X0312559
X0326614
X0331299
X0335984
X0340669
X0333110Y0244842
X0330827Y0251102
X0336772Y0253779
X0337953Y0260748
X0337480Y0264409
X0335276Y0264527
X0332835Y0264370
X0330591Y0264409
X0318622Y0264133
X0317992Y0261653
X0320709Y0261929
Y0255708
X0320472Y0252755
X0320512Y0250078
X0320433Y0247598
X0314252Y0248700
X0317874Y0268858
X0313622Y0272165
X0313425Y0282086
X0319842Y0280078
X0322205Y0280039
X0326142Y0276062
X0327913Y0277480
X0329882Y0276259
X0330079Y0278582
X0335591Y0279881
X0338858Y0279960
X0342953Y0279885
X0345354Y0279370
X0347482Y0274763
X0346613Y0272283
X0338228Y0275984
X0335433Y0276023
X0333661Y0282244
X0345551Y0288070
X0356063Y0286771
X0362244Y0287244
X0365354Y0287165
X0368149
X0371024
X0356535Y0280275
X0353346Y0279173
X0373661Y0243897
X0432087Y0247637
X0432047Y0252598
X0427165Y0257992
X0312126
X0309961
X0307756
X0305591
X0307441Y0253543
X0307401Y0251062
X0306535Y0248700
X0303976Y0248818
X0301772
X0297512Y0251582
X0293583Y0253267
X0292205Y0254566
X0290945Y0255866
X0287126Y0254409
X0287205Y0259606
X0285906Y0261220
X0285787Y0263346
Y0265393
Y0267401
Y0269566
X0282244Y0274881
X0279409Y0274921
X0276693Y0275039
X0280945Y0277283
X0281063Y0280078
X0283307
X0285630
X0287953Y0280196
X0290827Y0283526
X0299764Y0282637
X0306260Y0280039
X0308779Y0282716
X0311535Y0261968
X0302567Y0263562
X0296850Y0263425
X0296654Y0259763
X0298680Y0257838
X0309409Y0248700
X0311850
X0307520Y0245905
Y0243425
X0307362Y0234015
X0304212Y0234330
X0300945Y0228228
X0303189Y0224094
X0298504
X0293819
X0289134
X0284449
X0279724
X0275039
X0270354
X0267992Y0226417
Y0228740
Y0238149
Y0242834
Y0247519
Y0252204
X0268110Y0256889
Y0261574
Y0266259
X0274370Y0267047
Y0264724
Y0262440
Y0260118
Y0257795
Y0255511
X0272283Y0249055
X0285709Y0250196
X0291575Y0228858
X0307874Y0224094
X0308779Y0189803
X0306260Y0187125
X0299764Y0189724
X0290827Y0190613
X0287953Y0187283
X0285630Y0187165
X0283307
X0281063
X0280945Y0184370
X0282244Y0181968
X0279409Y0182007
X0276693Y0182125
X0274370Y0174133
Y0171810
Y0169527
Y0167204
Y0164881
Y0162598
X0268110Y0163976
Y0168661
Y0173346
Y0185078
X0267165Y0187401
X0266929Y0190275
Y0192755
X0267047Y0194960
X0247479Y0194460
X0244067Y0194134
X0243825Y0196901
X0241606Y0199055
X0236685
X0238453Y0196869
X0233333
X0231764Y0199055
X0226842
X0221921
X0217000
X0212079
X0207157
X0202236
X0197315
X0192394
X0187472
X0182551
X0177630
X0172709
X0167787
X0162866
X0157945
X0160406Y0194134
X0165327
X0170248
X0175169
X0180091
X0185012
X0189933
X0194854
X0199776
X0201350Y0191219
X0204556Y0191789
X0207525
X0210493Y0191761
X0209618Y0194134
X0213979Y0191764
X0216948Y0191787
X0220303Y0191726
X0219461Y0194134
X0224382
X0229553Y0194509
X0228439Y0190232
X0226223Y0180519
X0221921Y0179370
X0217000
X0215701Y0175871
X0219882Y0175787
X0224663Y0175709
X0225571Y0169783
X0229842Y0170787
X0231983Y0175829
X0232233Y0180649
X0234163Y0182289
X0238843Y0181499
X0241583Y0184549
X0241643Y0189419
X0247584Y0188983
X0247513Y0183366
X0242753Y0175579
X0235983Y0177269
X0237205Y0172638
X0231929Y0161417
X0231811Y0158583
X0227008Y0158386
X0226575Y0164764
X0221260Y0168347
X0215410Y0170254
X0212079Y0169528
X0207157
X0209618Y0174449
X0204697
X0202010Y0175015
X0195217Y0175996
X0195186Y0178964
Y0181933
X0195530Y0184881
X0196744Y0187590
X0198760Y0189769
X0192394Y0189213
X0187472
X0182551
X0177630
X0172709
X0167787
X0162866
X0157945
X0160406Y0184291
X0165327
X0170248
X0175169
X0180091
X0185012
X0189933
X0192394Y0179370
X0187472
X0182551
X0177630
X0172709
X0167787
X0162866
X0157945
X0160406Y0174449
X0165327
X0170248
X0175169
X0180091
X0185012
X0189933
X0192394Y0169528
X0195186Y0169376
X0195217Y0172345
X0187472Y0169528
X0182551
X0177630
X0172709
X0167787
X0162866
X0157945
X0160406Y0164606
X0165327
X0170248
X0175169
X0180091
X0185012
X0187472Y0159685
X0190394Y0159685
X0190630Y0156378
X0191220Y0162677
X0182551Y0159685
X0177630
X0172709
X0167787
X0162866
X0157945
X0206772Y0158465
X0206299Y0161732
X0204567Y0164725
X0201772Y0166535
X0209618Y0164606
X0215500Y0164054
X0215545Y0160765
X0212079Y0159685
Y0179370
X0207157
X0208339Y0184884
X0205371
X0202577Y0183879
X0211333Y0185355
X0214264Y0184882
X0217232
X0221091Y0184910
X0218819Y0221654
X0213110
X0207362Y0221614
X0224567Y0221654
X0229685Y0221693
X0235433
X0241142
X0246890
X0247489Y0228138
X0244067Y0227992
X0244279Y0230963
X0244419Y0234591
X0244067Y0237835
X0247598Y0238740
X0247638Y0244252
X0239173Y0244882
X0236181Y0239055
X0228425Y0242677
X0227730Y0247467
X0225251Y0247553
X0227008Y0251299
X0231811Y0251496
X0231929Y0254331
X0226575Y0257677
X0225571Y0262697
X0229842Y0263701
X0231983Y0268742
X0232233Y0273562
X0234163Y0275202
X0238843Y0274412
X0241583Y0277462
X0241643Y0282332
X0247584Y0281896
X0247479Y0287373
X0244067Y0287047
X0243825Y0289815
X0241606Y0291969
X0236685
X0238453Y0289782
X0233333
X0231764Y0291969
X0226842
X0221921
X0217000
X0212079
X0207157
X0202236
X0197315
X0192394
X0187472
X0182551
X0177630
X0172709
X0167787
X0162866
X0157945
X0160406Y0287047
X0165327
X0170248
X0175169
X0180091
X0185012
X0189933
X0194854
X0199776
X0201350Y0284133
X0204556Y0284702
X0207525
X0210493Y0284675
X0209618Y0287047
X0213979Y0284677
X0216948Y0284700
X0220303Y0284639
X0219461Y0287047
X0224382
X0229553Y0287422
X0228439Y0283145
X0226223Y0273432
X0221921Y0272284
X0217000
X0215701Y0268784
X0219882Y0268701
X0224663Y0268622
X0221260Y0261260
X0215410Y0263167
X0212079Y0262441
X0207157
X0209618Y0267362
X0204697
X0202010Y0267928
X0195217Y0268909
X0195186Y0271878
Y0274846
X0195530Y0277795
X0196744Y0280503
X0198760Y0282682
X0192394Y0282126
X0187472
X0182551
X0177630
X0172709
X0167787
X0162866
X0157945
X0160406Y0277205
X0165327
X0170248
X0175169
X0180091
X0185012
X0189933
X0192394Y0272284
X0187472
X0182551
X0177630
X0172709
X0167787
X0162866
X0157945
X0160406Y0267362
X0165327
X0170248
X0175169
X0180091
X0185012
X0189933
X0192394Y0262441
X0195186Y0262290
X0195217Y0265258
X0187472Y0262441
X0182551
X0177630
X0172709
X0167787
X0162866
X0157945
X0160406Y0257520
X0165327
X0170248
X0175169
X0180091
X0185012
X0187472Y0252599
X0190394Y0252599
X0190630Y0249291
X0192008Y0246496
X0192394Y0242756
X0194606Y0244449
X0197953Y0243504
X0201614Y0244016
X0204213Y0245709
X0206024Y0248150
X0206772Y0251378
X0206299Y0254646
X0204567Y0257638
X0201772Y0259449
X0209618Y0257520
X0215500Y0256968
X0215545Y0253678
X0212079Y0252599
X0209618Y0247677
X0215984Y0249095
X0218655Y0244502
X0212993Y0242488
X0199776Y0237835
X0194854
X0189933
X0185012
X0181299Y0235827
X0178189Y0239567
X0175630Y0243465
X0175169Y0247677
X0180091
X0185012
X0187472Y0242756
X0182551
Y0252599
X0177630
X0172709
X0167787
X0162866
X0157945
X0160406Y0247677
X0165327
X0170248
X0159252Y0239567
X0175394Y0232480
Y0228543
X0179449Y0226417
X0191220Y0255591
X0202577Y0276793
X0205371Y0277798
X0208339
X0211333Y0278269
X0214264Y0277796
X0217232
X0221091Y0277823
X0212079Y0272284
X0207157
X0235983Y0270182
X0237205Y0265551
X0242753Y0268492
X0247513Y0276280
X0247638Y0259331
X0247598Y0232992
X0239146Y0227992
X0232874Y0226181
X0229303Y0227992
X0247638Y0166417
X0267992Y0159291
X0285709Y0157283
X0287126Y0161495
X0292205Y0161653
X0290945Y0162952
X0293583Y0160354
X0297512Y0158669
X0298680Y0164925
X0296654Y0166850
X0296850Y0170511
X0302567Y0170649
X0305591Y0165078
X0307756
X0309961
X0312126
X0311535Y0169054
X0307441Y0160629
X0307401Y0158149
X0287205Y0166692
X0285906Y0168307
X0285787Y0170432
Y0172480
Y0174488
Y0176653
X0268110Y0277992
X0267165Y0280314
X0266929Y0283188
Y0285669
X0267047Y0287874
X0155484Y0287047
X0150563
X0145642
X0148102Y0291969
X0153024
Y0282126
X0148102
X0143181
X0145642Y0277205
X0150563
X0155484
X0153024Y0272284
X0148102
X0143181
X0145642Y0267362
X0150563
X0155484
X0153024Y0262441
X0148102
X0143181
X0145642Y0257520
X0150563
X0155484
X0153024Y0252599
X0148102
X0143181
X0145642Y0247677
X0150563
X0155484
X0153024Y0242756
X0148102
X0143181
X0145642Y0237835
X0150563
X0153024Y0232913
X0148102
X0143181
X0145642Y0227992
X0150563
X0148102Y0223071
X0143181
Y0199055
X0148102
X0153024
X0155484Y0194134
X0150563
X0145642
X0148102Y0189213
X0153024
X0155484Y0184291
X0150563
X0145642
X0148102Y0179370
X0153024
X0155484Y0174449
X0150563
X0145642
X0148102Y0169528
X0153024
X0155484Y0164606
X0150563
X0145642
X0148102Y0159685
X0153024
X0143181
Y0169528
Y0179370
Y0189213
Y0291969
Y0315984
X0148102
X0150563Y0320906
X0145642
X0148102Y0325827
X0153024
X0150563Y0330748
X0145642
X0148102Y0335669
X0153024
X0155484Y0340591
X0150563
X0145642
X0148102Y0345512
X0153024
X0155484Y0350433
X0150563
X0145642
X0148102Y0355354
X0153024
X0155484Y0360276
X0150563
X0145642
X0148102Y0365197
X0153024
X0155484Y0370118
X0150563
X0145642
X0148102Y0375040
X0153024
X0155484Y0379961
X0150563
X0145642
X0148102Y0384882
X0153024
X0143181
Y0375040
Y0365197
Y0355354
Y0345512
Y0335669
Y0325827
X0159252Y0332480
X0160406Y0340591
X0165327
X0170248
X0175169
X0175630Y0336378
X0178189Y0332480
X0181299Y0328740
X0185012Y0330748
X0189933
X0194854
X0199776
X0197953Y0336417
X0201614Y0336929
X0204213Y0338622
X0206024Y0341063
X0206772Y0344291
X0206299Y0347559
X0204567Y0350551
X0201772Y0352362
X0207157Y0355354
X0212079
X0215410Y0356080
X0215701Y0361698
X0219882Y0361614
X0224663Y0361536
X0226223Y0366346
X0221921Y0365197
X0217000
X0212079
X0207157
X0208339Y0370711
X0205371
X0202577Y0369706
X0195530Y0370708
X0195186Y0367759
Y0364791
X0195217Y0361823
Y0358171
X0195186Y0355203
X0192394Y0355354
X0187472
X0182551
X0177630
X0172709
X0167787
X0162866
X0157945
X0160406Y0360276
X0165327
X0170248
X0175169
X0180091
X0185012
X0189933
X0192394Y0365197
X0187472
X0182551
X0177630
X0172709
X0167787
X0162866
X0157945
X0160406Y0370118
X0165327
X0170248
X0175169
X0180091
X0185012
X0189933
X0192394Y0375040
X0187472
X0182551
X0177630
X0172709
X0167787
X0162866
X0157945
X0160406Y0379961
X0165327
X0170248
X0175169
X0180091
X0185012
X0189933
X0194854
X0199776
X0201350Y0377046
X0204556Y0377615
X0207525
X0210493Y0377588
X0209618Y0379961
X0213979Y0377591
X0216948Y0377614
X0220303Y0377552
X0219461Y0379961
X0224382
X0229553Y0380336
X0228439Y0376059
X0226842Y0384882
X0231764
X0233333Y0382696
X0238453
X0236685Y0384882
X0241606
X0243825Y0382728
X0244067Y0379961
X0247479Y0380287
X0247584Y0374810
X0247513Y0369193
X0241583Y0370376
X0241643Y0375246
X0238843Y0367326
X0234163Y0368116
X0232233Y0366476
X0231983Y0361656
X0235983Y0363096
X0237205Y0358465
X0242753Y0361406
X0247638Y0352244
Y0337165
X0247598Y0331654
X0244067Y0330748
X0244419Y0327505
X0244279Y0323877
X0244067Y0320906
X0247489Y0321051
X0247598Y0325906
X0246890Y0314606
X0241142
X0235433
X0229685
X0224567Y0314567
X0218819
X0213110
X0207362Y0314528
X0212993Y0335401
X0218655Y0337416
X0215984Y0342008
X0215545Y0346591
X0215500Y0349881
X0209618Y0350433
X0212079Y0345512
X0209618Y0340591
X0225251Y0340466
X0227730Y0340380
X0227008Y0344213
X0231811Y0344409
X0231929Y0347244
X0226575Y0350591
X0225571Y0355610
X0229842Y0356614
X0221260Y0354173
X0221091Y0370737
X0217232Y0370709
X0214264
X0211333Y0371182
X0209618Y0360276
X0204697
X0202010Y0360842
X0196744Y0373417
X0198760Y0375595
X0197315Y0384882
X0202236
X0207157
X0212079
X0217000
X0221921
X0192394
X0187472
X0182551
X0177630
X0172709
X0167787
X0162866
X0157945
X0160406Y0350433
X0165327
X0170248
X0175169
X0180091
X0185012
X0187472Y0345512
X0190394Y0345512
X0190630Y0342205
X0192008Y0339409
X0192394Y0335669
X0194606Y0337362
X0187472Y0335669
X0182551
X0185012Y0340591
X0180091
X0182551Y0345512
X0177630
X0172709
X0167787
X0162866
X0157945
X0191220Y0348504
X0175394Y0325394
Y0321457
X0179449Y0319331
X0229303Y0320906
X0232874Y0319095
X0239146Y0320906
X0236181Y0331969
X0239173Y0337795
X0228425Y0335591
X0267992Y0335748
Y0340433
Y0345118
X0268110Y0349803
Y0354488
Y0359173
X0274370Y0359960
Y0357637
Y0355354
Y0353031
Y0350708
Y0348425
X0272283Y0341968
X0285709Y0343110
X0287126Y0347322
X0292205Y0347480
X0290945Y0348779
X0293583Y0346181
X0297512Y0344496
X0301772Y0341732
X0303976
X0306535Y0341614
X0309409
X0311850
X0307401Y0343976
X0307441Y0346456
X0307756Y0350905
X0305591
X0309961
X0312126
X0311535Y0354881
X0302567Y0356476
X0296850Y0356338
X0296654Y0352677
X0298680Y0350751
X0287205Y0352519
X0285906Y0354133
X0285787Y0356259
Y0358307
Y0360314
Y0362480
X0282244Y0367795
X0279409Y0367834
X0276693Y0367952
X0280945Y0370196
X0281063Y0372992
X0283307
X0285630
X0287953Y0373110
X0290827Y0376440
X0299764Y0375551
X0306260Y0372952
X0308779Y0375629
X0307520Y0338818
Y0336338
X0307362Y0326929
X0304212Y0327244
X0300945Y0321141
X0303189Y0317007
X0298504
X0293819
X0289134
X0284449
X0279724
X0275039
X0270354
X0267992Y0319330
Y0321653
Y0331063
X0291575Y0321771
X0307874Y0317007
X0268110Y0370905
X0267165Y0373228
X0266929Y0376102
Y0378582
X0267047Y0380787
X0313425Y0374999
X0319842Y0372992
X0322205Y0372952
X0326142Y0368976
X0327913Y0370393
X0329882Y0369173
X0330079Y0371496
X0335591Y0372795
X0338858Y0372873
X0342953Y0372799
X0345354Y0372283
X0347482Y0367677
X0346613Y0365196
X0338228Y0368897
X0335433Y0368936
X0333661Y0375157
X0345551Y0380984
X0356063Y0379684
X0362244Y0380157
X0365354Y0380078
X0368149
X0371024
X0356535Y0373188
X0353346Y0372086
X0353701Y0348818
X0350669Y0348897
X0347480
X0344961Y0348779
X0341929
X0341890Y0342480
X0340984Y0340196
X0339212Y0341850
X0338661Y0338897
X0344646Y0339291
X0344370Y0341732
X0349606Y0342559
X0351299Y0340944
X0353150Y0338936
X0353937Y0330629
X0354291Y0326653
X0353937Y0323779
X0354724Y0317007
X0357992Y0317086
X0362205Y0317322
X0365984Y0318503
Y0321062
X0367835Y0317244
X0372441Y0317283
X0374173Y0329724
X0370512Y0329960
X0368464Y0327873
X0365551Y0330236
X0362323Y0331171
X0364055Y0334921
X0364212Y0342795
X0366417Y0341574
X0369803Y0341535
X0372165Y0343149
X0374370Y0345078
Y0347440
Y0349842
X0371850Y0348464
X0364291Y0348425
X0361299Y0348779
X0358031Y0348740
X0336772Y0346692
X0337953Y0353661
X0337480Y0357322
X0335276Y0357440
X0332835Y0357283
X0330591Y0357322
X0318622Y0357047
X0317992Y0354566
X0320709Y0354842
Y0348622
X0320472Y0345669
X0320512Y0342992
X0320433Y0340511
X0314252Y0341614
X0330827Y0344015
X0333110Y0337755
X0339134Y0331259
X0341417
X0343543
X0345630Y0331220
X0351102Y0328818
X0340039Y0328897
X0337795Y0326456
X0331929Y0325433
X0329488
X0327008
X0324606
X0322205
X0319961Y0323740
X0323543Y0321850
X0321929Y0317007
X0317244
X0312559
X0326614
X0331299
X0335984
X0340669
X0345394
X0350079
X0373661Y0336810
X0432087Y0340551
X0432047Y0345511
X0427165Y0350905
X0317874Y0361771
X0313622Y0365078
T02
X0382283Y0150984
Y0154921
Y0158070
Y0162007
Y0165157
Y0169094
Y0243897
Y0247834
Y0250984
Y0254921
Y0258070
Y0262007
Y0336810
Y0340747
Y0343897
Y0347834
Y0350984
Y0354921
T03
X0288189Y0128740
X0291535
X0294882
X0356102
X0359449
X0362795
X0348583Y0197637
X0345236
X0341890
X0356102Y0221653
X0359449
X0362795
X0348583Y0290551
X0345236
X0341890
X0294882Y0221653
X0291535
X0288189
Y0314566
X0291535
X0294882
X0356102
X0359449
X0362795
X0348583Y0383464
X0345236
X0341890
T04
X0317917Y0196653
X0326991
X0358239
Y0289566
X0326991
X0317917
X0308869
X0299822
X0290748
X0281690
X0272239
Y0196653
X0281690
X0290748
X0299822
X0308869
Y0382480
X0299822
X0290748
X0281690
X0272239
X0317917
X0326991
X0358239
T05
X0367244Y0188503
Y0281417
Y0374330
T06
X0269701Y0140354
X0368110Y0160039
Y0252952
X0269701Y0272637
Y0233267
Y0179724
Y0326181
Y0365551
X0368110Y0345866
T07
X0198622Y0158858
Y0251772
Y0344685
T08
X0410827Y0148228
Y0171850
Y0241141
Y0264763
Y0334055
Y0357677
T09
X0150787Y0112992
X0424410Y0113189
X0153740Y0402362
X0422244Y0402559
T10
X0429587Y0149724
X0433587Y0169724
X0425587
X0429587Y0242637
X0433587Y0262637
X0425587
X0429587Y0335551
X0433587Y0355551
X0425587
M30
