G04*
G04 #@! TF.GenerationSoftware,Altium Limited,Altium Designer,19.1.5 (86)*
G04*
G04 Layer_Physical_Order=2*
G04 Layer_Color=16711680*
%FSAX25Y25*%
%MOIN*%
G70*
G01*
G75*
%ADD12C,0.01575*%
%ADD13C,0.01968*%
%ADD14R,0.02244X0.02441*%
%ADD15R,0.02520X0.02362*%
%ADD16R,0.07087X0.05118*%
%ADD17C,0.02953*%
%ADD18C,0.02756*%
%ADD19C,0.01575*%
%ADD20C,0.01968*%
G36*
X0446516Y0338006D02*
X0446575Y0337995D01*
X0446633Y0338006D01*
X0449469D01*
X0449528Y0337995D01*
X0449586Y0338006D01*
X0452422D01*
X0452480Y0337995D01*
X0452539Y0338006D01*
X0461142D01*
Y0305893D01*
X0457980D01*
Y0306933D01*
X0458480D01*
Y0308614D01*
X0456220D01*
X0453961D01*
Y0306933D01*
X0454461D01*
Y0305893D01*
X0453268D01*
X0453268Y0305893D01*
X0452497Y0305740D01*
X0452285Y0305598D01*
X0450193D01*
X0450150Y0305598D01*
X0449693D01*
X0449650Y0305598D01*
X0447754D01*
X0447543Y0305740D01*
X0446772Y0305893D01*
X0445382D01*
Y0306933D01*
X0445882D01*
Y0308614D01*
X0443622D01*
X0441362D01*
Y0306933D01*
X0441862D01*
Y0305893D01*
X0431614D01*
X0430843Y0305740D01*
X0430189Y0305303D01*
X0429752Y0304649D01*
X0429599Y0303878D01*
X0429752Y0303107D01*
X0430189Y0302453D01*
X0430843Y0302016D01*
X0431614Y0301863D01*
X0446772D01*
X0447543Y0302016D01*
X0447754Y0302157D01*
X0449650D01*
X0449693Y0302157D01*
X0450150D01*
X0450193Y0302157D01*
X0452285D01*
X0452497Y0302016D01*
X0453268Y0301863D01*
X0461142D01*
Y0296012D01*
X0461011Y0295990D01*
X0460712Y0295964D01*
X0460352Y0295954D01*
X0460325Y0295942D01*
X0459416D01*
X0459389Y0295954D01*
X0458400Y0295974D01*
X0457959Y0296008D01*
X0457921Y0296013D01*
Y0296150D01*
X0457480D01*
X0457409Y0296179D01*
X0457339Y0296150D01*
X0454720D01*
Y0296650D01*
X0453098D01*
Y0294429D01*
Y0292209D01*
X0454720D01*
Y0292709D01*
X0457339D01*
X0457409Y0292680D01*
X0457480Y0292709D01*
X0457921D01*
Y0292834D01*
X0459022Y0292901D01*
X0459381Y0292904D01*
X0459410Y0292916D01*
X0460325D01*
X0460352Y0292904D01*
X0460712Y0292895D01*
X0461011Y0292868D01*
X0461142Y0292847D01*
Y0290689D01*
X0504719Y0290689D01*
X0504719Y0278017D01*
X0452539Y0278017D01*
X0452480Y0278029D01*
X0452422Y0278017D01*
X0449586D01*
X0449528Y0278029D01*
X0449469Y0278017D01*
X0446634D01*
X0446575Y0278029D01*
X0446516Y0278017D01*
X0395517Y0278017D01*
X0395517Y0292756D01*
Y0299620D01*
X0406417D01*
X0406766Y0299690D01*
X0407062Y0299887D01*
X0407259Y0300183D01*
X0407329Y0300532D01*
Y0307618D01*
X0407259Y0307967D01*
X0407062Y0308262D01*
X0406766Y0308460D01*
X0406417Y0308529D01*
X0395517D01*
Y0323268D01*
X0395517Y0323268D01*
X0395517Y0338006D01*
X0446516Y0338006D01*
D02*
G37*
G36*
X0457429Y0295595D02*
X0457488Y0295557D01*
X0457586Y0295523D01*
X0457724Y0295494D01*
X0457901Y0295469D01*
X0458374Y0295434D01*
X0459378Y0295413D01*
Y0293445D01*
X0459004Y0293443D01*
X0457724Y0293364D01*
X0457586Y0293335D01*
X0457488Y0293301D01*
X0457429Y0293263D01*
X0457409Y0293221D01*
Y0295638D01*
X0457429Y0295595D01*
D02*
G37*
G36*
X0462347Y0292461D02*
X0462327Y0292648D01*
X0462268Y0292815D01*
X0462169Y0292963D01*
X0462030Y0293091D01*
X0461852Y0293199D01*
X0461634Y0293287D01*
X0461376Y0293356D01*
X0461079Y0293406D01*
X0460743Y0293435D01*
X0460366Y0293445D01*
Y0295413D01*
X0460743Y0295423D01*
X0461079Y0295453D01*
X0461376Y0295502D01*
X0461634Y0295571D01*
X0461852Y0295659D01*
X0462030Y0295768D01*
X0462169Y0295896D01*
X0462268Y0296043D01*
X0462327Y0296211D01*
X0462347Y0296398D01*
Y0292461D01*
D02*
G37*
%LPC*%
G36*
X0458480Y0311295D02*
X0456720D01*
Y0309614D01*
X0458480D01*
Y0311295D01*
D02*
G37*
G36*
X0445882D02*
X0444122D01*
Y0309614D01*
X0445882D01*
Y0311295D01*
D02*
G37*
G36*
X0443122D02*
X0441362D01*
Y0309614D01*
X0443122D01*
Y0311295D01*
D02*
G37*
G36*
X0455720D02*
X0453961D01*
Y0309614D01*
X0455720D01*
Y0311295D01*
D02*
G37*
G36*
X0452098Y0296650D02*
X0450476D01*
Y0294929D01*
X0452098D01*
Y0296650D01*
D02*
G37*
G36*
Y0293929D02*
X0450476D01*
Y0292209D01*
X0452098D01*
Y0293929D01*
D02*
G37*
%LPD*%
D12*
X0446575Y0339508D02*
D03*
X0449528D02*
D03*
X0452480D02*
D03*
X0452480Y0276516D02*
D03*
X0449528D02*
D03*
X0446575D02*
D03*
D13*
X0499016Y0289370D02*
D03*
X0496063Y0283465D02*
D03*
X0493110Y0289370D02*
D03*
X0490157Y0283465D02*
D03*
X0487205Y0289370D02*
D03*
X0484252Y0283465D02*
D03*
X0481299Y0289370D02*
D03*
X0478346Y0283465D02*
D03*
X0475393Y0289370D02*
D03*
X0472441Y0283465D02*
D03*
X0469488Y0289370D02*
D03*
X0466535Y0283465D02*
D03*
X0463583Y0289370D02*
D03*
X0460630Y0283465D02*
D03*
X0454724Y0330709D02*
D03*
X0457677Y0324803D02*
D03*
X0454724Y0318898D02*
D03*
X0457677Y0312992D02*
D03*
Y0289370D02*
D03*
X0454724Y0283465D02*
D03*
X0448819Y0330709D02*
D03*
X0451771Y0324803D02*
D03*
X0448819Y0318898D02*
D03*
X0451771Y0312992D02*
D03*
X0448819Y0295275D02*
D03*
X0451771Y0289370D02*
D03*
X0448819Y0283465D02*
D03*
X0442913Y0330709D02*
D03*
X0445866Y0324803D02*
D03*
X0442913Y0318898D02*
D03*
X0445866Y0312992D02*
D03*
X0442913Y0295275D02*
D03*
X0437008Y0330709D02*
D03*
X0439960Y0324803D02*
D03*
X0437008Y0318898D02*
D03*
X0439960Y0312992D02*
D03*
X0437008Y0295275D02*
D03*
Y0283465D02*
D03*
X0431102Y0330709D02*
D03*
X0434055Y0324803D02*
D03*
X0431102Y0318898D02*
D03*
X0434055Y0312992D02*
D03*
X0431102Y0295275D02*
D03*
X0434055Y0289370D02*
D03*
X0431102Y0283465D02*
D03*
X0425197Y0330709D02*
D03*
X0428150Y0324803D02*
D03*
X0425197Y0318898D02*
D03*
X0428150Y0312992D02*
D03*
X0425197Y0307086D02*
D03*
Y0295275D02*
D03*
X0428150Y0289370D02*
D03*
X0425197Y0283465D02*
D03*
X0419291Y0330709D02*
D03*
X0422244Y0324803D02*
D03*
X0419291Y0318898D02*
D03*
X0422244Y0312992D02*
D03*
X0419291Y0307086D02*
D03*
X0422244Y0301181D02*
D03*
X0419291Y0295275D02*
D03*
X0422244Y0289370D02*
D03*
X0419291Y0283465D02*
D03*
X0413386Y0330709D02*
D03*
X0416338Y0324803D02*
D03*
X0413386Y0318898D02*
D03*
X0416338Y0312992D02*
D03*
X0413386Y0307086D02*
D03*
X0416338Y0301181D02*
D03*
X0413386Y0295275D02*
D03*
X0416338Y0289370D02*
D03*
X0413386Y0283465D02*
D03*
X0407480Y0330709D02*
D03*
X0410433Y0324803D02*
D03*
X0407480Y0318898D02*
D03*
X0410433Y0312992D02*
D03*
Y0301181D02*
D03*
X0407480Y0295275D02*
D03*
X0410433Y0289370D02*
D03*
X0407480Y0283465D02*
D03*
X0401575Y0330709D02*
D03*
X0404527Y0324803D02*
D03*
X0401575Y0318898D02*
D03*
X0404527Y0312992D02*
D03*
X0401575Y0295275D02*
D03*
X0404527Y0289370D02*
D03*
X0401575Y0283465D02*
D03*
X0439291Y0307224D02*
D03*
X0436535D02*
D03*
X0433779D02*
D03*
X0430827Y0307028D02*
D03*
X0428268Y0305847D02*
D03*
X0428071Y0303091D02*
D03*
X0429646Y0300925D02*
D03*
X0432598Y0300728D02*
D03*
X0435354D02*
D03*
X0437913D02*
D03*
X0440669D02*
D03*
X0443425D02*
D03*
X0446181D02*
D03*
X0448740D02*
D03*
X0447756Y0307028D02*
D03*
X0453050Y0306993D02*
D03*
X0450512Y0306831D02*
D03*
X0451347Y0300818D02*
D03*
X0453815Y0300763D02*
D03*
X0456284D02*
D03*
X0458752D02*
D03*
D14*
X0452598Y0294429D02*
D03*
X0456299D02*
D03*
X0448071Y0303878D02*
D03*
X0451772D02*
D03*
D15*
X0456220Y0309114D02*
D03*
Y0305335D02*
D03*
X0443622Y0309114D02*
D03*
Y0305335D02*
D03*
D16*
X0465866Y0294429D02*
D03*
Y0303878D02*
D03*
Y0321201D02*
D03*
Y0334193D02*
D03*
X0499724Y0294429D02*
D03*
Y0334193D02*
D03*
Y0321201D02*
D03*
D17*
X0453268Y0303878D02*
X0465866D01*
X0453268Y0303878D02*
X0453268Y0303878D01*
X0431614Y0303878D02*
X0446772D01*
D18*
X0431614Y0303878D02*
X0431614Y0303878D01*
D19*
X0485354Y0279272D02*
X0489488Y0283405D01*
X0475709Y0279272D02*
X0485354D01*
X0471772Y0283209D02*
X0475709Y0279272D01*
D20*
X0456299Y0294429D02*
X0465866D01*
M02*
