G04*
G04 #@! TF.GenerationSoftware,Altium Limited,Altium Designer,19.1.5 (86)*
G04*
G04 Layer_Physical_Order=1*
G04 Layer_Color=255*
%FSAX25Y25*%
%MOIN*%
G70*
G01*
G75*
%ADD12C,0.01575*%
%ADD13C,0.01968*%
G36*
X0446516Y0338006D02*
X0446575Y0337995D01*
X0446633Y0338006D01*
X0449469D01*
X0449528Y0337995D01*
X0449586Y0338006D01*
X0452422D01*
X0452480Y0337995D01*
X0452539Y0338006D01*
X0461142D01*
Y0290689D01*
X0504719D01*
X0504719Y0278017D01*
X0452539Y0278017D01*
X0452480Y0278029D01*
X0452422Y0278017D01*
X0449586D01*
X0449528Y0278029D01*
X0449469Y0278017D01*
X0446634D01*
X0446575Y0278029D01*
X0446516Y0278017D01*
X0395517Y0278017D01*
X0395517Y0292756D01*
Y0299620D01*
X0406417D01*
X0406766Y0299690D01*
X0407062Y0299887D01*
X0407259Y0300183D01*
X0407329Y0300532D01*
Y0307618D01*
X0407259Y0307967D01*
X0407062Y0308262D01*
X0406766Y0308460D01*
X0406417Y0308529D01*
X0395517D01*
Y0323268D01*
X0395517Y0323268D01*
X0395517Y0338006D01*
X0446516Y0338006D01*
D02*
G37*
D12*
X0446575Y0339508D02*
D03*
X0449528D02*
D03*
X0452480D02*
D03*
X0452480Y0276516D02*
D03*
X0449528D02*
D03*
X0446575D02*
D03*
D13*
X0499016Y0289370D02*
D03*
X0496063Y0283465D02*
D03*
X0493110Y0289370D02*
D03*
X0490157Y0283465D02*
D03*
X0487205Y0289370D02*
D03*
X0484252Y0283465D02*
D03*
X0481299Y0289370D02*
D03*
X0478346Y0283465D02*
D03*
X0475393Y0289370D02*
D03*
X0472441Y0283465D02*
D03*
X0469488Y0289370D02*
D03*
X0466535Y0283465D02*
D03*
X0463583Y0289370D02*
D03*
X0460630Y0283465D02*
D03*
X0454724Y0330709D02*
D03*
X0457677Y0324803D02*
D03*
X0454724Y0318898D02*
D03*
X0457677Y0312992D02*
D03*
Y0289370D02*
D03*
X0454724Y0283465D02*
D03*
X0448819Y0330709D02*
D03*
X0451771Y0324803D02*
D03*
X0448819Y0318898D02*
D03*
X0451771Y0312992D02*
D03*
X0448819Y0295275D02*
D03*
X0451771Y0289370D02*
D03*
X0448819Y0283465D02*
D03*
X0442913Y0330709D02*
D03*
X0445866Y0324803D02*
D03*
X0442913Y0318898D02*
D03*
X0445866Y0312992D02*
D03*
X0442913Y0295275D02*
D03*
X0437008Y0330709D02*
D03*
X0439960Y0324803D02*
D03*
X0437008Y0318898D02*
D03*
X0439960Y0312992D02*
D03*
X0437008Y0295275D02*
D03*
Y0283465D02*
D03*
X0431102Y0330709D02*
D03*
X0434055Y0324803D02*
D03*
X0431102Y0318898D02*
D03*
X0434055Y0312992D02*
D03*
X0431102Y0295275D02*
D03*
X0434055Y0289370D02*
D03*
X0431102Y0283465D02*
D03*
X0425197Y0330709D02*
D03*
X0428150Y0324803D02*
D03*
X0425197Y0318898D02*
D03*
X0428150Y0312992D02*
D03*
X0425197Y0307086D02*
D03*
Y0295275D02*
D03*
X0428150Y0289370D02*
D03*
X0425197Y0283465D02*
D03*
X0419291Y0330709D02*
D03*
X0422244Y0324803D02*
D03*
X0419291Y0318898D02*
D03*
X0422244Y0312992D02*
D03*
X0419291Y0307086D02*
D03*
X0422244Y0301181D02*
D03*
X0419291Y0295275D02*
D03*
X0422244Y0289370D02*
D03*
X0419291Y0283465D02*
D03*
X0413386Y0330709D02*
D03*
X0416338Y0324803D02*
D03*
X0413386Y0318898D02*
D03*
X0416338Y0312992D02*
D03*
X0413386Y0307086D02*
D03*
X0416338Y0301181D02*
D03*
X0413386Y0295275D02*
D03*
X0416338Y0289370D02*
D03*
X0413386Y0283465D02*
D03*
X0407480Y0330709D02*
D03*
X0410433Y0324803D02*
D03*
X0407480Y0318898D02*
D03*
X0410433Y0312992D02*
D03*
Y0301181D02*
D03*
X0407480Y0295275D02*
D03*
X0410433Y0289370D02*
D03*
X0407480Y0283465D02*
D03*
X0401575Y0330709D02*
D03*
X0404527Y0324803D02*
D03*
X0401575Y0318898D02*
D03*
X0404527Y0312992D02*
D03*
X0401575Y0295275D02*
D03*
X0404527Y0289370D02*
D03*
X0401575Y0283465D02*
D03*
X0439291Y0307224D02*
D03*
X0436535D02*
D03*
X0433779D02*
D03*
X0430827Y0307028D02*
D03*
X0428268Y0305847D02*
D03*
X0428071Y0303091D02*
D03*
X0429646Y0300925D02*
D03*
X0432598Y0300728D02*
D03*
X0435354D02*
D03*
X0437913D02*
D03*
X0440669D02*
D03*
X0443425D02*
D03*
X0446181D02*
D03*
X0448740D02*
D03*
X0447756Y0307028D02*
D03*
X0453050Y0306993D02*
D03*
X0450512Y0306831D02*
D03*
X0451347Y0300818D02*
D03*
X0453815Y0300763D02*
D03*
X0456284D02*
D03*
X0458752D02*
D03*
M02*
