M48
;Layer_Color=9474304
;FILE_FORMAT=2:5
INCH
;TYPE=PLATED
T1F00S00C0.03150
;TYPE=NON_PLATED
T2F00S00C0.03150
T3F00S00C0.12598
%
T01
X1099341Y0297077
X1108484Y0311202
X1142871Y0311172
X1152097Y0297077
X1166185Y0287640
X1182778Y0284479
X1199384Y0287658
X1213514Y0297077
X1222658Y0311202
X1085211Y0287658
X1068605Y0284479
X1052012Y0287640
X1037924Y0297077
X1028698Y0311172
X0994311Y0311202
X0985168Y0297077
X0971037Y0287658
X0954432Y0284479
X0937838Y0287640
X0923750Y0297077
X0914524Y0311172
X0880138Y0311202
X0870994Y0297077
X0856864Y0287658
X0840258Y0284479
X0823665Y0287640
X0809577Y0297077
X0800351Y0311172
X0796979Y0327719
X0800482Y0344226
X0809971Y0358101
X0840286Y0371093
X0840258Y0390778
X0823665Y0393939
X0809577Y0403376
X0800351Y0417471
X0796979Y0434018
X0800482Y0450525
X0809971Y0464400
X0870601
X0880126Y0450436
X0883565Y0434018
X0880138Y0417501
X0870994Y0403376
X0856864Y0393957
X0856819Y0367714
X0870601Y0358101
X0880126Y0344137
X0883565Y0327719
X0911152
X0914656Y0344226
X0924144Y0358101
X0923750Y0403376
X0914524Y0417471
X0911152Y0434018
X0914656Y0450525
X0924144Y0464400
X0984774
X0994299Y0450436
X0997739Y0434018
X0994311Y0417501
X0985168Y0403376
X0971037Y0393957
X0954432Y0390778
X0954459Y0371093
X0970992Y0367714
X0984774Y0358101
X0994299Y0344137
X0997739Y0327719
X1025325
X1028829Y0344226
X1038317Y0358101
X1068632Y0371093
X1068605Y0390778
X1052012Y0393939
X1037924Y0403376
X1028698Y0417471
X1025325Y0434018
X1028829Y0450525
X1038317Y0464400
X1085211Y0393957
X1085166Y0367714
X0937838Y0393939
X1099341Y0403376
X1108484Y0417501
X1111912Y0434018
X1108472Y0450436
X1098947Y0464400
X1152491
X1143002Y0450525
X1139499Y0434018
X1142871Y0417471
X1152097Y0403376
X1166185Y0393939
X1182778Y0390778
X1182806Y0371093
X1199339Y0367714
X1213120Y0358101
X1222645Y0344137
X1226085Y0327719
X1139499
X1143002Y0344226
X1152491Y0358101
X1098947
X1108472Y0344137
X1111912Y0327719
X1199384Y0393957
X1213514Y0403376
X1222658Y0417501
X1226085Y0434018
X1222645Y0450436
X1213120Y0464400
X1199339Y0474013
X1182806Y0477392
X1182778Y0497077
X1166185Y0500239
X1152097Y0509676
X1142871Y0523770
X1139499Y0540317
X1143002Y0556824
X1152491Y0570699
X1182806Y0583691
X1199339Y0580312
X1213120Y0570699
X1222645Y0556735
X1226085Y0540317
X1222658Y0523800
X1213514Y0509676
X1199384Y0500256
X1099341Y0509676
X1108484Y0523800
X1111912Y0540317
X1108472Y0556735
X1098947Y0570699
X1085166Y0580312
X1068632Y0583691
X1038317Y0570699
X1028829Y0556824
X1025325Y0540317
X1028698Y0523770
X1037924Y0509676
X1052012Y0500239
X1068605Y0497077
X1068632Y0477392
X1085166Y0474013
X1085211Y0500256
X0985168Y0509676
X0994311Y0523800
X0997739Y0540317
X0994299Y0556735
X0984774Y0570699
X0970992Y0580312
X0954459Y0583691
X0954432Y0497077
X0954459Y0477392
X0970992Y0474013
X0971037Y0500256
X0937838Y0500239
X0923750Y0509676
X0914524Y0523770
X0911152Y0540317
X0914656Y0556824
X0924144Y0570699
X0870601
X0856819Y0580312
X0840286Y0583691
X0809971Y0570699
X0800482Y0556824
X0796979Y0540317
X0800351Y0523770
X0809577Y0509676
X0823665Y0500239
X0840258Y0497077
X0840286Y0477392
X0856819Y0474013
X0856864Y0500256
X0870994Y0509676
X0880138Y0523800
X0883565Y0540317
X0880126Y0556735
T02
X1155404Y0290384
X1159053Y0288022
X1044880
X1041231Y0290384
X0930707Y0288022
X0927057Y0290384
X0816533Y0288022
X0812884Y0290384
X0816849Y0367538
X0820699Y0369546
X0824526Y0371199
X0816533Y0394321
X0812884Y0396684
X0885050Y0422235
X0886113Y0426605
X0927057Y0396684
X0930707Y0394321
X0931022Y0367538
X0934873Y0369546
X0886113Y0320306
X0885050Y0315935
X0938699Y0371199
X1045195Y0367538
X1049046Y0369546
X1052872Y0371199
X1044880Y0394321
X1041231Y0396684
X0999223Y0422235
X1000286Y0426605
Y0320306
X0999223Y0315935
X1113396
X1114459Y0320306
X1159369Y0367538
X1163219Y0369546
X1167046Y0371199
X1159053Y0394321
X1155404Y0396684
X1113396Y0422235
X1114459Y0426605
X1228632
X1227569Y0422235
X1228632Y0320306
X1227569Y0315935
Y0528534
X1228632Y0532904
X1159053Y0500620
X1155404Y0502983
X1159369Y0473837
X1163219Y0475845
X1167046Y0477498
X1113396Y0528534
X1114459Y0532904
X1159369Y0580136
X1163219Y0582144
X1167046Y0583798
X1052872
X1049046Y0582144
X1045195Y0580136
X1044880Y0500620
X1041231Y0502983
X1045195Y0473837
X1049046Y0475845
X1052872Y0477498
X0999223Y0528534
X1000286Y0532904
X0938699Y0583798
Y0477498
X0934873Y0475845
X0931022Y0473837
X0930707Y0500620
X0927057Y0502983
X0885050Y0528534
X0886113Y0532904
X0931022Y0580136
X0934873Y0582144
X0824526Y0583798
X0820699Y0582144
X0816849Y0580136
X0816533Y0500620
X0812884Y0502983
X0816849Y0473837
X0820699Y0475845
X0824526Y0477498
T03
X0769685Y0293307
X1259842Y0563189
M30
