G04*
G04 #@! TF.GenerationSoftware,Altium Limited,Altium Designer,19.1.5 (86)*
G04*
G04 Layer_Color=16711935*
%FSAX25Y25*%
%MOIN*%
G70*
G01*
G75*
%ADD34R,0.03320X0.03162*%
%ADD36R,0.02769X0.03162*%
%ADD44R,0.03950X0.03950*%
%ADD47R,0.03950X0.03950*%
%ADD48C,0.06706*%
%ADD49C,0.03950*%
%ADD50C,0.00800*%
%ADD51C,0.04343*%
%ADD70C,0.04724*%
%ADD75R,0.06706X0.06706*%
%ADD76R,0.05918X0.04343*%
%ADD77R,0.01883X0.01784*%
%ADD78R,0.01784X0.01883*%
%ADD79R,0.01194X0.01194*%
%ADD80R,0.02375X0.04343*%
%ADD81R,0.06706X0.06706*%
G04:AMPARAMS|DCode=82|XSize=67.06mil|YSize=67.06mil|CornerRadius=9.91mil|HoleSize=0mil|Usage=FLASHONLY|Rotation=180.000|XOffset=0mil|YOffset=0mil|HoleType=Round|Shape=RoundedRectangle|*
%AMROUNDEDRECTD82*
21,1,0.06706,0.04724,0,0,180.0*
21,1,0.04724,0.06706,0,0,180.0*
1,1,0.01981,-0.02362,0.02362*
1,1,0.01981,0.02362,0.02362*
1,1,0.01981,0.02362,-0.02362*
1,1,0.01981,-0.02362,-0.02362*
%
%ADD82ROUNDEDRECTD82*%
%ADD83R,0.02769X0.07493*%
%ADD84R,0.07493X0.02769*%
G36*
X0129043Y0171365D02*
X0129096Y0171362D01*
X0129116Y0171358D01*
X0129147Y0171352D01*
X0129197Y0171335D01*
X0129244Y0171312D01*
D01*
X0129244Y0171312D01*
X0129258Y0171302D01*
X0129287Y0171283D01*
X0129327Y0171248D01*
X0129327Y0171248D01*
X0129327Y0171248D01*
X0129361Y0171209D01*
X0129381Y0171180D01*
X0129391Y0171165D01*
X0129391Y0171165D01*
D01*
X0129414Y0171118D01*
X0129430Y0171068D01*
X0129437Y0171037D01*
X0129441Y0171017D01*
X0129444Y0170965D01*
Y0169882D01*
X0129441Y0169830D01*
X0129430Y0169778D01*
X0129414Y0169729D01*
X0129391Y0169681D01*
X0129361Y0169638D01*
X0129327Y0169598D01*
X0129287Y0169564D01*
X0129244Y0169535D01*
X0129197Y0169511D01*
X0129147Y0169495D01*
X0129096Y0169484D01*
X0129043Y0169481D01*
X0128059D01*
X0128032Y0169483D01*
X0128007Y0169484D01*
X0128007Y0169484D01*
X0128007D01*
X0127981Y0169490D01*
X0127955Y0169495D01*
X0127955Y0169495D01*
X0127955Y0169495D01*
X0127937Y0169501D01*
X0127906Y0169511D01*
X0127906Y0169511D01*
X0127906Y0169511D01*
X0127884Y0169522D01*
X0127859Y0169535D01*
X0127859Y0169535D01*
X0127859Y0169535D01*
X0127841Y0169546D01*
X0127815Y0169564D01*
X0127815Y0169564D01*
X0127815Y0169564D01*
X0127803Y0169574D01*
X0127776Y0169598D01*
X0127776Y0169598D01*
X0127776Y0169598D01*
X0127751Y0169626D01*
X0127741Y0169638D01*
X0127741Y0169638D01*
X0127741Y0169638D01*
X0127724Y0169664D01*
X0127712Y0169681D01*
X0127712Y0169681D01*
X0127712Y0169681D01*
X0127699Y0169707D01*
X0127689Y0169728D01*
X0127689Y0169728D01*
X0127689Y0169729D01*
X0127678Y0169759D01*
X0127672Y0169778D01*
X0127672Y0169778D01*
X0127672Y0169778D01*
X0127667Y0169804D01*
X0127662Y0169829D01*
Y0169829D01*
X0127662Y0169830D01*
X0127660Y0169854D01*
X0127658Y0169882D01*
X0127658Y0170620D01*
Y0170620D01*
Y0170620D01*
X0127660Y0170647D01*
X0127662Y0170672D01*
X0127662Y0170672D01*
Y0170672D01*
X0127666Y0170697D01*
X0127672Y0170724D01*
X0127672Y0170724D01*
X0127672Y0170724D01*
X0127681Y0170752D01*
X0127689Y0170773D01*
X0127689Y0170773D01*
X0127689Y0170773D01*
X0127703Y0170803D01*
X0127712Y0170820D01*
X0127712Y0170820D01*
X0127712Y0170820D01*
X0127724Y0170838D01*
X0127741Y0170864D01*
X0127741Y0170864D01*
X0127741Y0170864D01*
X0127751Y0170876D01*
X0127775Y0170903D01*
X0127776Y0170903D01*
X0127776Y0170903D01*
X0128120Y0171248D01*
X0128120Y0171248D01*
X0128120Y0171248D01*
X0128160Y0171283D01*
X0128189Y0171302D01*
X0128203Y0171312D01*
X0128203Y0171312D01*
D01*
X0128204Y0171312D01*
X0128250Y0171335D01*
X0128253Y0171336D01*
X0128300Y0171352D01*
X0128331Y0171358D01*
X0128351Y0171362D01*
X0128404Y0171365D01*
X0128404D01*
X0128404D01*
X0129043Y0171365D01*
D02*
G37*
D34*
X0195598Y0125748D02*
D03*
Y0121968D02*
D03*
X0200441Y0121890D02*
D03*
Y0125669D02*
D03*
X0199535Y0158504D02*
D03*
Y0162284D02*
D03*
Y0151260D02*
D03*
Y0147480D02*
D03*
D36*
X0138315Y0158031D02*
D03*
X0134378D02*
D03*
X0136150Y0169803D02*
D03*
X0140087D02*
D03*
X0129063Y0166496D02*
D03*
X0125126D02*
D03*
D44*
X0141819Y0178228D02*
D03*
X0135913D02*
D03*
D47*
X0205244Y0151181D02*
D03*
Y0145276D02*
D03*
D48*
X0116858Y0153307D02*
D03*
X0215268Y0172992D02*
D03*
Y0133622D02*
D03*
X0079654Y0141496D02*
D03*
Y0165118D02*
D03*
D49*
X0186386Y0179528D02*
D03*
X0147016D02*
D03*
D50*
X0101701Y0145433D02*
D03*
X0101701Y0150157D02*
D03*
X0101701Y0143858D02*
D03*
Y0147008D02*
D03*
Y0162756D02*
D03*
Y0159606D02*
D03*
X0101701Y0151732D02*
D03*
Y0156457D02*
D03*
Y0154882D02*
D03*
D51*
X0092390Y0163583D02*
D03*
X0096390Y0143583D02*
D03*
X0088390D02*
D03*
D70*
X0138006Y0150197D02*
D03*
X0131071Y0149449D02*
D03*
D75*
X0215638Y0141496D02*
D03*
Y0149370D02*
D03*
Y0157244D02*
D03*
Y0165118D02*
D03*
D76*
X0124221Y0145709D02*
D03*
Y0153189D02*
D03*
D77*
X0128551Y0172402D02*
D03*
Y0174370D02*
D03*
X0122646D02*
D03*
X0122646Y0172402D02*
D03*
D78*
X0128551Y0176339D02*
D03*
X0126583D02*
D03*
X0124614D02*
D03*
X0122646D02*
D03*
Y0170433D02*
D03*
X0124614D02*
D03*
X0126583D02*
D03*
D79*
X0128551D02*
D03*
D80*
X0204575Y0123346D02*
D03*
X0207134D02*
D03*
X0209693D02*
D03*
Y0128465D02*
D03*
X0207134D02*
D03*
X0204575D02*
D03*
D81*
X0159724Y0140197D02*
D03*
X0169567Y0140197D02*
D03*
X0179508Y0140197D02*
D03*
X0159724Y0150039D02*
D03*
X0169567D02*
D03*
X0179409Y0150039D02*
D03*
X0159724Y0159882D02*
D03*
X0169567Y0159882D02*
D03*
D82*
X0179409Y0159882D02*
D03*
D83*
X0186898Y0171516D02*
D03*
X0183709D02*
D03*
X0180559D02*
D03*
X0177409D02*
D03*
X0174260D02*
D03*
X0171110D02*
D03*
X0167961D02*
D03*
X0164811D02*
D03*
X0161661D02*
D03*
X0158512D02*
D03*
X0155402D02*
D03*
X0152213D02*
D03*
X0152055Y0128583D02*
D03*
X0155366Y0128583D02*
D03*
X0158543Y0128583D02*
D03*
X0161693Y0128587D02*
D03*
X0164842Y0128587D02*
D03*
X0167992Y0128583D02*
D03*
X0171142D02*
D03*
X0174291Y0128583D02*
D03*
X0177441Y0128583D02*
D03*
X0180591D02*
D03*
X0183740Y0128583D02*
D03*
X0186898Y0128583D02*
D03*
D84*
X0146346Y0167382D02*
D03*
Y0164232D02*
D03*
Y0161043D02*
D03*
Y0157933D02*
D03*
Y0154783D02*
D03*
Y0151594D02*
D03*
X0146339Y0148465D02*
D03*
Y0145315D02*
D03*
X0146339Y0142165D02*
D03*
X0146339Y0139028D02*
D03*
X0146339Y0135870D02*
D03*
Y0132717D02*
D03*
X0192803Y0132736D02*
D03*
Y0135846D02*
D03*
Y0139035D02*
D03*
Y0142146D02*
D03*
Y0145295D02*
D03*
Y0148484D02*
D03*
Y0151594D02*
D03*
Y0154744D02*
D03*
Y0157894D02*
D03*
Y0161043D02*
D03*
Y0164232D02*
D03*
Y0167382D02*
D03*
M02*
