G04*
G04 #@! TF.GenerationSoftware,Altium Limited,Altium Designer,19.1.5 (86)*
G04*
G04 Layer_Color=16711935*
%FSAX25Y25*%
%MOIN*%
G70*
G01*
G75*
%ADD10C,0.00984*%
%ADD11C,0.00394*%
%ADD12C,0.00787*%
%ADD13C,0.01000*%
%ADD14C,0.01575*%
%ADD15C,0.00591*%
%ADD55C,0.00600*%
%ADD90C,0.00472*%
D10*
X0190760Y0141024D02*
G03*
X0190760Y0141024I-0000492J0000000D01*
G01*
D11*
X0128157Y0142362D02*
Y0156535D01*
X0120283D02*
X0128157D01*
X0120283Y0142362D02*
Y0156535D01*
Y0142362D02*
X0128157D01*
X0128177Y0129587D02*
Y0133721D01*
X0135854Y0129587D02*
Y0133721D01*
X0128177D02*
X0135854D01*
X0128177Y0129587D02*
X0135854D01*
X0137626Y0129705D02*
X0141760D01*
X0137626Y0137382D02*
X0141760D01*
X0137626Y0129705D02*
Y0137382D01*
X0141760Y0129705D02*
Y0137382D01*
X0132213Y0141614D02*
X0136150D01*
X0132213Y0134134D02*
X0136150D01*
Y0141614D01*
X0132213Y0134134D02*
Y0141614D01*
X0127882D02*
X0131819D01*
X0127882Y0134134D02*
X0131819D01*
Y0141614D01*
X0127882Y0134134D02*
Y0141614D01*
X0119850Y0142165D02*
Y0146102D01*
X0127331Y0142165D02*
Y0146102D01*
X0119850D02*
X0127331D01*
X0119850Y0142165D02*
X0127331D01*
X0124004Y0124646D02*
Y0137874D01*
X0123925Y0124567D02*
X0124004Y0124646D01*
X0112035Y0124567D02*
X0123925D01*
X0112035D02*
Y0137913D01*
X0112075Y0137874D01*
X0124004D01*
X0140677Y0159016D02*
Y0162953D01*
X0133197Y0159016D02*
Y0162953D01*
Y0159016D02*
X0140677D01*
X0133197Y0162953D02*
X0140677D01*
X0131032Y0163543D02*
Y0167480D01*
X0123551Y0163543D02*
Y0167480D01*
Y0163543D02*
X0131032D01*
X0123551Y0167480D02*
X0131032D01*
X0126268Y0170551D02*
X0130205D01*
X0126268Y0178032D02*
X0130205D01*
X0126268Y0170551D02*
Y0178032D01*
X0130205Y0170551D02*
Y0178032D01*
X0121976Y0170551D02*
X0125913D01*
X0121976Y0178032D02*
X0125913D01*
X0121976Y0170551D02*
Y0178032D01*
X0125913Y0170551D02*
Y0178032D01*
X0140087Y0156063D02*
Y0160000D01*
X0132606Y0156063D02*
Y0160000D01*
X0140087D01*
X0132606Y0156063D02*
X0140087D01*
X0133116Y0175478D02*
Y0180978D01*
X0144616D01*
Y0175478D02*
Y0180978D01*
X0133116Y0175478D02*
X0144616D01*
X0137862Y0119350D02*
Y0123484D01*
X0145539Y0119350D02*
Y0123484D01*
X0137862D02*
X0145539D01*
X0137862Y0119350D02*
X0145539D01*
X0134378Y0167835D02*
Y0171772D01*
X0141858Y0167835D02*
Y0171772D01*
X0134378Y0167835D02*
X0141858D01*
X0134378Y0171772D02*
X0141858D01*
X0202494Y0142478D02*
X0207994D01*
X0202494D02*
Y0153978D01*
X0207994D01*
Y0142478D02*
Y0153978D01*
X0129536Y0169449D02*
Y0177323D01*
X0121662D02*
X0129536D01*
X0121662Y0169449D02*
Y0177323D01*
Y0169449D02*
X0129536D01*
X0180717Y0135236D02*
X0184653D01*
X0180717Y0127756D02*
X0184653D01*
Y0135236D01*
X0180717Y0127756D02*
Y0135236D01*
X0123354Y0168465D02*
X0130835D01*
X0123354Y0164528D02*
X0130835D01*
Y0168465D01*
X0123354Y0164528D02*
Y0168465D01*
X0193532Y0120020D02*
Y0127697D01*
X0197665Y0120020D02*
Y0127697D01*
X0193532D02*
X0197665D01*
X0193532Y0120020D02*
X0197665D01*
X0202508Y0119941D02*
Y0127618D01*
X0198374Y0119941D02*
Y0127618D01*
Y0119941D02*
X0202508D01*
X0198374Y0127618D02*
X0202508D01*
X0203197Y0121968D02*
Y0129842D01*
X0211071D01*
Y0121968D02*
Y0129842D01*
X0203197Y0121968D02*
X0211071D01*
X0194417Y0126862D02*
Y0172862D01*
X0144917Y0126862D02*
X0194417D01*
X0144917D02*
Y0172862D01*
X0194417D01*
X0201602Y0156555D02*
Y0164232D01*
X0197468Y0156555D02*
Y0164232D01*
Y0156555D02*
X0201602D01*
X0197468Y0164232D02*
X0201602D01*
X0197468Y0145531D02*
Y0153209D01*
X0201602Y0145531D02*
Y0153209D01*
X0197468D02*
X0201602D01*
X0197468Y0145531D02*
X0201602D01*
X0162252Y0166220D02*
X0169732D01*
X0162252Y0162284D02*
X0169732D01*
X0162252D02*
Y0166220D01*
X0169732Y0162284D02*
Y0166220D01*
X0189890Y0151890D02*
X0189890Y0159764D01*
X0182016Y0151890D02*
X0189890Y0151890D01*
X0182016Y0151890D02*
X0182016Y0159764D01*
X0189890Y0159764D01*
X0176091Y0164232D02*
X0183768D01*
X0176091Y0160098D02*
X0183768D01*
X0176091D02*
Y0164232D01*
X0183768Y0160098D02*
Y0164232D01*
X0197447Y0155557D02*
X0208947D01*
X0197447D02*
Y0161057D01*
X0208947D01*
Y0155557D02*
Y0161057D01*
X0210953Y0136969D02*
Y0144843D01*
X0196780D02*
X0210953D01*
X0196780Y0136969D02*
Y0144843D01*
Y0136969D02*
X0210953D01*
Y0128268D02*
Y0136142D01*
X0196780D02*
X0210953D01*
X0196780Y0128268D02*
Y0136142D01*
Y0128268D02*
X0210953D01*
X0189299Y0141575D02*
X0196780D01*
X0189299Y0145512D02*
X0196780D01*
Y0141575D02*
Y0145512D01*
X0189299Y0141575D02*
Y0145512D01*
X0196095Y0129528D02*
Y0133465D01*
Y0137087D02*
Y0141024D01*
X0186346Y0133996D02*
Y0136555D01*
X0188807Y0129528D02*
X0196095D01*
X0188807Y0141024D02*
X0196095D01*
X0180323Y0135630D02*
Y0143110D01*
X0176386Y0135630D02*
Y0143110D01*
X0180323D01*
X0176386Y0135630D02*
X0180323D01*
X0184653Y0135669D02*
Y0143150D01*
X0180717Y0135669D02*
Y0143150D01*
X0184653D01*
X0180717Y0135669D02*
X0184653D01*
X0176209Y0127500D02*
Y0135177D01*
X0180342Y0127500D02*
Y0135177D01*
X0176209Y0127500D02*
X0180342D01*
X0176209Y0135177D02*
X0180342D01*
X0154161Y0154035D02*
Y0161713D01*
X0158295Y0154035D02*
Y0161713D01*
X0154161Y0154035D02*
X0158295D01*
X0154161Y0161713D02*
X0158295D01*
X0141996Y0165532D02*
X0149673D01*
X0141996Y0169665D02*
X0149673D01*
Y0165532D02*
Y0169665D01*
X0141996Y0165532D02*
Y0169665D01*
X0153669Y0162362D02*
Y0169843D01*
X0149732Y0162362D02*
Y0169843D01*
X0153669D01*
X0149732Y0162362D02*
X0153669D01*
X0154161Y0166201D02*
X0161839D01*
X0154161Y0162067D02*
X0161839D01*
X0154161D02*
Y0166201D01*
X0161839Y0162067D02*
Y0166201D01*
X0116661Y0169449D02*
Y0182441D01*
X0110362Y0169449D02*
X0116661D01*
X0110362D02*
Y0182441D01*
X0116661D01*
X0110362Y0181260D02*
X0116661D01*
X0125344Y0147048D02*
X0125869Y0146523D01*
Y0145474D01*
X0125344Y0144949D01*
X0123245D01*
X0122721Y0145474D01*
Y0146523D01*
X0123245Y0147048D01*
X0122721Y0148097D02*
Y0149147D01*
Y0148622D01*
X0125869D01*
X0125344Y0148097D01*
X0122721Y0152820D02*
Y0150721D01*
X0124820Y0152820D01*
X0125344D01*
X0125869Y0152295D01*
Y0151246D01*
X0125344Y0150721D01*
X0120433Y0132967D02*
X0121089Y0133623D01*
Y0134935D01*
X0120433Y0135591D01*
X0117809D01*
X0117154Y0134935D01*
Y0133623D01*
X0117809Y0132967D01*
X0121089Y0129687D02*
Y0130999D01*
X0120433Y0131655D01*
X0117809D01*
X0117154Y0130999D01*
Y0129687D01*
X0117809Y0129031D01*
X0120433D01*
X0121089Y0129687D01*
X0117154Y0127719D02*
X0121089D01*
X0117154Y0125095D01*
X0121089D01*
X0117154Y0121160D02*
Y0123783D01*
X0119777Y0121160D01*
X0120433D01*
X0121089Y0121816D01*
Y0123127D01*
X0120433Y0123783D01*
X0136690Y0177260D02*
X0136297Y0176867D01*
X0135510D01*
X0135116Y0177260D01*
Y0178835D01*
X0135510Y0179228D01*
X0136297D01*
X0136690Y0178835D01*
X0137478Y0179228D02*
X0138265D01*
X0137871D01*
Y0176867D01*
X0137478Y0177260D01*
X0139445D02*
X0139839Y0176867D01*
X0140626D01*
X0141020Y0177260D01*
Y0177654D01*
X0140626Y0178048D01*
X0140233D01*
X0140626D01*
X0141020Y0178441D01*
Y0178835D01*
X0140626Y0179228D01*
X0139839D01*
X0139445Y0178835D01*
X0206212Y0146053D02*
X0206606Y0145659D01*
Y0144872D01*
X0206212Y0144478D01*
X0204638D01*
X0204244Y0144872D01*
Y0145659D01*
X0204638Y0146053D01*
X0204244Y0148021D02*
X0206606D01*
X0205425Y0146840D01*
Y0148414D01*
X0126976Y0170433D02*
X0125008D01*
X0124614Y0170827D01*
Y0171614D01*
X0125008Y0172007D01*
X0126976D01*
X0124614Y0172794D02*
Y0173582D01*
Y0173188D01*
X0126976D01*
X0126582Y0172794D01*
X0204102Y0123465D02*
Y0125433D01*
X0204496Y0125827D01*
X0205283D01*
X0205677Y0125433D01*
Y0123465D01*
X0206464Y0123859D02*
X0206857Y0123465D01*
X0207645D01*
X0208038Y0123859D01*
Y0124252D01*
X0207645Y0124646D01*
X0207251D01*
X0207645D01*
X0208038Y0125040D01*
Y0125433D01*
X0207645Y0125827D01*
X0206857D01*
X0206464Y0125433D01*
X0185417Y0154798D02*
Y0151518D01*
X0184761Y0150862D01*
X0183449D01*
X0182793Y0151518D01*
Y0154798D01*
X0178858Y0150862D02*
X0181482D01*
X0178858Y0153486D01*
Y0154142D01*
X0179514Y0154798D01*
X0180826D01*
X0181482Y0154142D01*
X0204382Y0157414D02*
X0204775Y0157021D01*
X0205562D01*
X0205956Y0157414D01*
Y0158989D01*
X0205562Y0159382D01*
X0204775D01*
X0204382Y0158989D01*
X0203594Y0159382D02*
X0202807D01*
X0203201D01*
Y0157021D01*
X0203594Y0157414D01*
X0200052Y0157021D02*
X0201627D01*
Y0158201D01*
X0200839Y0157808D01*
X0200446D01*
X0200052Y0158201D01*
Y0158989D01*
X0200446Y0159382D01*
X0201233D01*
X0201627Y0158989D01*
X0206267Y0139782D02*
X0206792Y0139257D01*
X0207841D01*
X0208366Y0139782D01*
Y0141881D01*
X0207841Y0142405D01*
X0206792D01*
X0206267Y0141881D01*
X0203118Y0142405D02*
X0205218D01*
X0203118Y0140306D01*
Y0139782D01*
X0203643Y0139257D01*
X0204693D01*
X0205218Y0139782D01*
X0206267Y0131081D02*
X0206792Y0130556D01*
X0207841D01*
X0208366Y0131081D01*
Y0133180D01*
X0207841Y0133705D01*
X0206792D01*
X0206267Y0133180D01*
X0205218Y0133705D02*
X0204168D01*
X0204693D01*
Y0130556D01*
X0205218Y0131081D01*
X0192251Y0138622D02*
Y0136785D01*
Y0137704D01*
X0189496D01*
Y0135867D02*
Y0134949D01*
Y0135408D01*
X0192251D01*
X0191792Y0135867D01*
X0114692Y0179685D02*
X0112331D01*
Y0178504D01*
X0112724Y0178111D01*
X0114299D01*
X0114692Y0178504D01*
Y0179685D01*
X0112331Y0177324D02*
Y0176536D01*
Y0176930D01*
X0114692D01*
X0114299Y0177324D01*
D12*
X0183523Y0158779D02*
G03*
X0183523Y0158779I-0000326J0000000D01*
G01*
X0215756Y0124724D02*
Y0181811D01*
X0116347D02*
X0215756D01*
X0116347Y0124724D02*
Y0181811D01*
Y0124724D02*
X0215756D01*
X0085890Y0166083D02*
X0098890D01*
X0085890Y0141083D02*
Y0166083D01*
Y0141083D02*
X0098890D01*
Y0166083D01*
X0195008Y0150553D02*
Y0156457D01*
X0192056D01*
X0191072Y0155473D01*
Y0154489D01*
X0192056Y0153505D01*
X0195008D01*
X0192056D01*
X0191072Y0152521D01*
Y0151537D01*
X0192056Y0150553D01*
X0195008D01*
X0189104Y0156457D02*
Y0152521D01*
X0187136Y0150553D01*
X0185169Y0152521D01*
Y0156457D01*
Y0153505D01*
X0189104D01*
X0183201Y0150553D02*
X0179265D01*
X0181233D01*
Y0156457D01*
X0177297D02*
X0175329D01*
X0176313D01*
Y0150553D01*
X0177297Y0151537D01*
X0093514Y0157984D02*
X0094038Y0158508D01*
Y0159558D01*
X0093514Y0160083D01*
X0091414D01*
X0090890Y0159558D01*
Y0158508D01*
X0091414Y0157984D01*
X0094038Y0155360D02*
Y0156409D01*
X0093514Y0156934D01*
X0091414D01*
X0090890Y0156409D01*
Y0155360D01*
X0091414Y0154835D01*
X0093514D01*
X0094038Y0155360D01*
X0090890Y0153786D02*
X0094038D01*
X0090890Y0151686D01*
X0094038D01*
X0090890Y0150637D02*
Y0149587D01*
Y0150112D01*
X0094038D01*
X0093514Y0150637D01*
D13*
X0129210Y0167913D02*
G03*
X0129210Y0167913I-0000487J0000000D01*
G01*
X0205068Y0128465D02*
G03*
X0205068Y0128465I-0000493J0000000D01*
G01*
X0193433Y0171122D02*
G03*
X0193433Y0171122I-0000394J0000000D01*
G01*
X0057575Y0169937D02*
X0059575Y0163937D01*
X0061575Y0169937D01*
X0059575Y0133228D02*
X0061575Y0127228D01*
X0057575D02*
X0059575Y0133228D01*
Y0163937D02*
Y0173937D01*
Y0123228D02*
Y0133228D01*
X0058575D02*
X0071386D01*
X0058575Y0163937D02*
X0100307D01*
X0095307Y0192252D02*
X0101307Y0194252D01*
X0095307Y0196252D02*
X0101307Y0194252D01*
X0109181D02*
X0115181Y0196252D01*
X0109181Y0194252D02*
X0115181Y0192252D01*
X0091307Y0194252D02*
X0101307D01*
X0109181D02*
X0119181D01*
X0109181Y0183622D02*
Y0195252D01*
X0101307Y0173992D02*
Y0195252D01*
X0071780Y0181260D02*
X0077780Y0183260D01*
X0071780Y0181260D02*
X0077780Y0179260D01*
X0095307D02*
X0101307Y0181260D01*
X0095307Y0183260D02*
X0101307Y0181260D01*
X0071780D02*
X0086543D01*
X0101307D01*
X0071780Y0173992D02*
Y0182260D01*
X0101307Y0173992D02*
Y0182260D01*
X0047370Y0172992D02*
X0049370Y0166992D01*
X0045370D02*
X0047370Y0172992D01*
X0045370Y0139622D02*
X0047370Y0133622D01*
X0049370Y0139622D01*
X0047370Y0165531D02*
Y0172992D01*
Y0133622D02*
Y0144621D01*
X0046370Y0172992D02*
X0070780D01*
X0046370Y0133622D02*
X0070780D01*
X0228472Y0183622D02*
X0230472Y0177622D01*
X0226472D02*
X0228472Y0183622D01*
X0226472Y0122693D02*
X0228472Y0116693D01*
X0230472Y0122693D01*
X0228472Y0150157D02*
Y0183622D01*
Y0116693D02*
Y0150157D01*
X0220417Y0183622D02*
X0229472D01*
X0220417Y0116693D02*
X0229472D01*
X0109181Y0194252D02*
X0115181Y0196252D01*
X0109181Y0194252D02*
X0115181Y0192252D01*
X0213417D02*
X0219417Y0194252D01*
X0213417Y0196252D02*
X0219417Y0194252D01*
X0109181D02*
X0164299D01*
X0219417D01*
X0109181Y0184622D02*
Y0195252D01*
X0219417Y0184622D02*
Y0195252D01*
D14*
X0210361Y0155669D02*
Y0150422D01*
X0127685Y0153439D02*
X0122437D01*
X0125061Y0150815D02*
Y0156063D01*
D15*
X0188508Y0158189D02*
X0185884D01*
X0185359Y0157664D01*
Y0156615D01*
X0185884Y0156090D01*
X0188508D01*
X0185359Y0153466D02*
X0188508D01*
X0186934Y0155040D01*
Y0152941D01*
D55*
X0057608Y0137953D02*
Y0140577D01*
X0058263D01*
X0060887Y0137953D01*
X0061543D01*
X0062199Y0142544D02*
X0061543Y0143200D01*
X0060887D01*
Y0142544D01*
X0061543D01*
Y0143200D01*
X0062199Y0142544D01*
X0062855Y0141888D01*
X0058263Y0145824D02*
X0057608Y0146480D01*
Y0147792D01*
X0058263Y0148448D01*
X0058920D01*
X0059575Y0147792D01*
X0060231Y0148448D01*
X0060887D01*
X0061543Y0147792D01*
Y0146480D01*
X0060887Y0145824D01*
X0060231D01*
X0059575Y0146480D01*
X0058920Y0145824D01*
X0058263D01*
X0059575Y0146480D02*
Y0147792D01*
X0058263Y0149760D02*
X0057608Y0150416D01*
Y0151728D01*
X0058263Y0152384D01*
X0060887D01*
X0061543Y0151728D01*
Y0150416D01*
X0060887Y0149760D01*
X0058263D01*
X0100781Y0198583D02*
X0098158D01*
X0100781Y0201206D01*
Y0201862D01*
X0100125Y0202518D01*
X0098813D01*
X0098158Y0201862D01*
X0102749Y0197927D02*
X0103405Y0198583D01*
Y0199239D01*
X0102749D01*
Y0198583D01*
X0103405D01*
X0102749Y0197927D01*
X0102093Y0197271D01*
X0106029Y0201862D02*
X0106685Y0202518D01*
X0107997D01*
X0108653Y0201862D01*
Y0199239D01*
X0107997Y0198583D01*
X0106685D01*
X0106029Y0199239D01*
Y0201862D01*
X0109965D02*
X0110621Y0202518D01*
X0111933D01*
X0112589Y0201862D01*
Y0199239D01*
X0111933Y0198583D01*
X0110621D01*
X0109965Y0199239D01*
Y0201862D01*
X0080835Y0188739D02*
X0083459D01*
Y0188083D01*
X0080835Y0185459D01*
Y0184803D01*
X0085426Y0184147D02*
X0086082Y0184803D01*
Y0185459D01*
X0085426D01*
Y0184803D01*
X0086082D01*
X0085426Y0184147D01*
X0084770Y0183491D01*
X0091330Y0188739D02*
X0088706D01*
Y0186771D01*
X0090018Y0187427D01*
X0090674D01*
X0091330Y0186771D01*
Y0185459D01*
X0090674Y0184803D01*
X0089362D01*
X0088706Y0185459D01*
X0092642Y0188083D02*
X0093298Y0188739D01*
X0094610D01*
X0095266Y0188083D01*
Y0185459D01*
X0094610Y0184803D01*
X0093298D01*
X0092642Y0185459D01*
Y0188083D01*
X0045008Y0146221D02*
Y0147532D01*
Y0146876D01*
X0041072D01*
X0041728Y0146221D01*
Y0149500D02*
X0041072Y0150156D01*
Y0151468D01*
X0041728Y0152124D01*
X0044352D01*
X0045008Y0151468D01*
Y0150156D01*
X0044352Y0149500D01*
X0041728D01*
X0045664Y0154092D02*
X0045008Y0154748D01*
X0044352D01*
Y0154092D01*
X0045008D01*
Y0154748D01*
X0045664Y0154092D01*
X0046320Y0153436D01*
X0041728Y0157372D02*
X0041072Y0158028D01*
Y0159340D01*
X0041728Y0159996D01*
X0044352D01*
X0045008Y0159340D01*
Y0158028D01*
X0044352Y0157372D01*
X0041728D01*
Y0161308D02*
X0041072Y0161963D01*
Y0163275D01*
X0041728Y0163931D01*
X0044352D01*
X0045008Y0163275D01*
Y0161963D01*
X0044352Y0161308D01*
X0041728D01*
X0234772Y0141496D02*
Y0142808D01*
Y0142152D01*
X0230836D01*
X0231492Y0141496D01*
X0230836Y0144776D02*
Y0147400D01*
X0231492D01*
X0234116Y0144776D01*
X0234772D01*
X0235428Y0149367D02*
X0234772Y0150023D01*
X0234116D01*
Y0149367D01*
X0234772D01*
Y0150023D01*
X0235428Y0149367D01*
X0236084Y0148712D01*
X0231492Y0152647D02*
X0230836Y0153303D01*
Y0154615D01*
X0231492Y0155271D01*
X0234116D01*
X0234772Y0154615D01*
Y0153303D01*
X0234116Y0152647D01*
X0231492D01*
Y0156583D02*
X0230836Y0157239D01*
Y0158551D01*
X0231492Y0159207D01*
X0234116D01*
X0234772Y0158551D01*
Y0157239D01*
X0234116Y0156583D01*
X0231492D01*
X0156293Y0197402D02*
X0153669D01*
X0156293Y0200025D01*
Y0200681D01*
X0155637Y0201337D01*
X0154325D01*
X0153669Y0200681D01*
X0157605D02*
X0158261Y0201337D01*
X0159573D01*
X0160229Y0200681D01*
Y0200025D01*
X0159573Y0199369D01*
X0160229Y0198714D01*
Y0198057D01*
X0159573Y0197402D01*
X0158261D01*
X0157605Y0198057D01*
Y0198714D01*
X0158261Y0199369D01*
X0157605Y0200025D01*
Y0200681D01*
X0158261Y0199369D02*
X0159573D01*
X0162197Y0196746D02*
X0162853Y0197402D01*
Y0198057D01*
X0162197D01*
Y0197402D01*
X0162853D01*
X0162197Y0196746D01*
X0161541Y0196090D01*
X0165477Y0200681D02*
X0166132Y0201337D01*
X0167444D01*
X0168100Y0200681D01*
Y0198057D01*
X0167444Y0197402D01*
X0166132D01*
X0165477Y0198057D01*
Y0200681D01*
X0169412D02*
X0170068Y0201337D01*
X0171380D01*
X0172036Y0200681D01*
Y0198057D01*
X0171380Y0197402D01*
X0170068D01*
X0169412Y0198057D01*
Y0200681D01*
D90*
X0130834Y0132342D02*
X0130441Y0132735D01*
X0129653D01*
X0129260Y0132342D01*
Y0130768D01*
X0129653Y0130374D01*
X0130441D01*
X0130834Y0130768D01*
X0131621Y0130374D02*
X0132408D01*
X0132015D01*
Y0132735D01*
X0131621Y0132342D01*
X0133589D02*
X0133983Y0132735D01*
X0134770D01*
X0135163Y0132342D01*
Y0131948D01*
X0134770Y0131555D01*
X0135163Y0131161D01*
Y0130768D01*
X0134770Y0130374D01*
X0133983D01*
X0133589Y0130768D01*
Y0131161D01*
X0133983Y0131555D01*
X0133589Y0131948D01*
Y0132342D01*
X0133983Y0131555D02*
X0134770D01*
X0139005Y0132362D02*
X0138611Y0131968D01*
Y0131181D01*
X0139005Y0130787D01*
X0140579D01*
X0140972Y0131181D01*
Y0131968D01*
X0140579Y0132362D01*
X0140972Y0133149D02*
Y0133936D01*
Y0133542D01*
X0138611D01*
X0139005Y0133149D01*
X0138611Y0135117D02*
Y0136691D01*
X0139005D01*
X0140579Y0135117D01*
X0140972D01*
X0135361Y0140630D02*
X0133000D01*
Y0139056D01*
Y0138268D02*
Y0137481D01*
Y0137875D01*
X0135361D01*
X0134968Y0138268D01*
X0131031Y0140630D02*
X0128669D01*
Y0139056D01*
Y0136694D02*
Y0138268D01*
X0130244Y0136694D01*
X0130637D01*
X0131031Y0137088D01*
Y0137875D01*
X0130637Y0138268D01*
X0120638Y0142756D02*
Y0145117D01*
X0121818D01*
X0122212Y0144724D01*
Y0143937D01*
X0121818Y0143543D01*
X0120638D01*
X0121425D02*
X0122212Y0142756D01*
X0122999D02*
X0123786D01*
X0123393D01*
Y0145117D01*
X0122999Y0144724D01*
X0126541Y0145117D02*
X0124967D01*
Y0143937D01*
X0125754Y0144330D01*
X0126148D01*
X0126541Y0143937D01*
Y0143149D01*
X0126148Y0142756D01*
X0125361D01*
X0124967Y0143149D01*
X0139890Y0162362D02*
Y0160001D01*
X0138709D01*
X0138315Y0160394D01*
Y0161181D01*
X0138709Y0161575D01*
X0139890D01*
X0139103D02*
X0138315Y0162362D01*
X0137528D02*
X0136741D01*
X0137135D01*
Y0160001D01*
X0137528Y0160394D01*
X0135561D02*
X0135167Y0160001D01*
X0134380D01*
X0133986Y0160394D01*
Y0160788D01*
X0134380Y0161181D01*
X0134773D01*
X0134380D01*
X0133986Y0161575D01*
Y0161969D01*
X0134380Y0162362D01*
X0135167D01*
X0135561Y0161969D01*
X0130244Y0166890D02*
Y0164528D01*
X0129063D01*
X0128670Y0164922D01*
Y0165709D01*
X0129063Y0166103D01*
X0130244D01*
X0129457D02*
X0128670Y0166890D01*
X0127883D02*
X0127095D01*
X0127489D01*
Y0164528D01*
X0127883Y0164922D01*
X0125915Y0166890D02*
X0125128D01*
X0125521D01*
Y0164528D01*
X0125915Y0164922D01*
X0129614Y0171339D02*
X0127253D01*
Y0172519D01*
X0127646Y0172913D01*
X0128433D01*
X0128827Y0172519D01*
Y0171339D01*
Y0172126D02*
X0129614Y0172913D01*
Y0173700D02*
Y0174487D01*
Y0174094D01*
X0127253D01*
X0127646Y0173700D01*
X0129614Y0176849D02*
X0127253D01*
X0128433Y0175668D01*
Y0177242D01*
X0125323Y0171339D02*
X0122961D01*
Y0172519D01*
X0123355Y0172913D01*
X0124142D01*
X0124536Y0172519D01*
Y0171339D01*
Y0172126D02*
X0125323Y0172913D01*
Y0173700D02*
Y0174487D01*
Y0174094D01*
X0122961D01*
X0123355Y0173700D01*
Y0175668D02*
X0122961Y0176061D01*
Y0176849D01*
X0123355Y0177242D01*
X0124929D01*
X0125323Y0176849D01*
Y0176061D01*
X0124929Y0175668D01*
X0123355D01*
X0139299Y0156653D02*
Y0159015D01*
X0138119D01*
X0137725Y0158621D01*
Y0157834D01*
X0138119Y0157441D01*
X0139299D01*
X0138512D02*
X0137725Y0156653D01*
X0135363Y0159015D02*
X0136938D01*
Y0157834D01*
X0136151Y0158228D01*
X0135757D01*
X0135363Y0157834D01*
Y0157047D01*
X0135757Y0156653D01*
X0136544D01*
X0136938Y0157047D01*
X0140519Y0122106D02*
X0140126Y0122499D01*
X0139338D01*
X0138945Y0122106D01*
Y0120531D01*
X0139338Y0120138D01*
X0140126D01*
X0140519Y0120531D01*
X0141306Y0120138D02*
X0142094D01*
X0141700D01*
Y0122499D01*
X0141306Y0122106D01*
X0143274D02*
X0143668Y0122499D01*
X0144455D01*
X0144849Y0122106D01*
Y0120531D01*
X0144455Y0120138D01*
X0143668D01*
X0143274Y0120531D01*
Y0122106D01*
X0135165Y0171181D02*
Y0168820D01*
X0136346D01*
X0136740Y0169213D01*
Y0170000D01*
X0136346Y0170394D01*
X0135165D01*
X0135952D02*
X0136740Y0171181D01*
X0137527D02*
X0138314D01*
X0137920D01*
Y0168820D01*
X0137527Y0169213D01*
X0181307Y0134449D02*
X0183668D01*
Y0133268D01*
X0183275Y0132875D01*
X0182488D01*
X0182094Y0133268D01*
Y0134449D01*
Y0133662D02*
X0181307Y0132875D01*
X0181701Y0132087D02*
X0181307Y0131694D01*
Y0130907D01*
X0181701Y0130513D01*
X0183275D01*
X0183668Y0130907D01*
Y0131694D01*
X0183275Y0132087D01*
X0182881D01*
X0182488Y0131694D01*
Y0130513D01*
X0124142Y0167874D02*
Y0165513D01*
X0125322D01*
X0125716Y0165906D01*
Y0166693D01*
X0125322Y0167087D01*
X0124142D01*
X0124929D02*
X0125716Y0167874D01*
X0128077D02*
X0126503D01*
X0128077Y0166300D01*
Y0165906D01*
X0127684Y0165513D01*
X0126897D01*
X0126503Y0165906D01*
X0196287Y0122677D02*
X0196680Y0122283D01*
Y0121496D01*
X0196287Y0121102D01*
X0194712D01*
X0194319Y0121496D01*
Y0122283D01*
X0194712Y0122677D01*
X0196287Y0123464D02*
X0196680Y0123857D01*
Y0124644D01*
X0196287Y0125038D01*
X0195893D01*
X0195500Y0124644D01*
X0195106Y0125038D01*
X0194712D01*
X0194319Y0124644D01*
Y0123857D01*
X0194712Y0123464D01*
X0195106D01*
X0195500Y0123857D01*
X0195893Y0123464D01*
X0196287D01*
X0195500Y0123857D02*
Y0124644D01*
X0199753Y0124961D02*
X0199359Y0125355D01*
Y0126142D01*
X0199753Y0126535D01*
X0201327D01*
X0201720Y0126142D01*
Y0125355D01*
X0201327Y0124961D01*
Y0124174D02*
X0201720Y0123780D01*
Y0122993D01*
X0201327Y0122600D01*
X0199753D01*
X0199359Y0122993D01*
Y0123780D01*
X0199753Y0124174D01*
X0200146D01*
X0200540Y0123780D01*
Y0122600D01*
X0198847Y0161575D02*
X0198453Y0161969D01*
Y0162756D01*
X0198847Y0163150D01*
X0200421D01*
X0200815Y0162756D01*
Y0161969D01*
X0200421Y0161575D01*
X0198453Y0159214D02*
Y0160788D01*
X0199634D01*
X0199241Y0160001D01*
Y0159607D01*
X0199634Y0159214D01*
X0200421D01*
X0200815Y0159607D01*
Y0160395D01*
X0200421Y0160788D01*
X0200224Y0148188D02*
X0200617Y0147795D01*
Y0147008D01*
X0200224Y0146614D01*
X0198650D01*
X0198256Y0147008D01*
Y0147795D01*
X0198650Y0148188D01*
X0200617Y0150550D02*
X0200224Y0149763D01*
X0199437Y0148976D01*
X0198650D01*
X0198256Y0149369D01*
Y0150156D01*
X0198650Y0150550D01*
X0199043D01*
X0199437Y0150156D01*
Y0148976D01*
X0168945Y0165630D02*
Y0163268D01*
X0167764D01*
X0167371Y0163662D01*
Y0164449D01*
X0167764Y0164843D01*
X0168945D01*
X0168158D02*
X0167371Y0165630D01*
X0166583Y0163662D02*
X0166190Y0163268D01*
X0165403D01*
X0165009Y0163662D01*
Y0164056D01*
X0165403Y0164449D01*
X0165796D01*
X0165403D01*
X0165009Y0164843D01*
Y0165236D01*
X0165403Y0165630D01*
X0166190D01*
X0166583Y0165236D01*
X0181111Y0161477D02*
X0181504Y0161083D01*
X0182291D01*
X0182685Y0161477D01*
Y0163051D01*
X0182291Y0163445D01*
X0181504D01*
X0181111Y0163051D01*
X0180324Y0163445D02*
X0179536D01*
X0179930D01*
Y0161083D01*
X0180324Y0161477D01*
X0176781Y0161083D02*
X0177569Y0161477D01*
X0178356Y0162264D01*
Y0163051D01*
X0177962Y0163445D01*
X0177175D01*
X0176781Y0163051D01*
Y0162658D01*
X0177175Y0162264D01*
X0178356D01*
X0190087Y0142165D02*
Y0144527D01*
X0191267D01*
X0191661Y0144133D01*
Y0143346D01*
X0191267Y0142953D01*
X0190087D01*
X0190874D02*
X0191661Y0142165D01*
X0194022Y0144527D02*
X0193235Y0144133D01*
X0192448Y0143346D01*
Y0142559D01*
X0192842Y0142165D01*
X0193629D01*
X0194022Y0142559D01*
Y0142953D01*
X0193629Y0143346D01*
X0192448D01*
X0179732Y0136417D02*
X0177371D01*
Y0137598D01*
X0177764Y0137992D01*
X0178551D01*
X0178945Y0137598D01*
Y0136417D01*
Y0137205D02*
X0179732Y0137992D01*
X0177371Y0138779D02*
Y0140353D01*
X0177764D01*
X0179339Y0138779D01*
X0179732D01*
X0184063Y0136457D02*
X0181702D01*
Y0137637D01*
X0182095Y0138031D01*
X0182882D01*
X0183276Y0137637D01*
Y0136457D01*
Y0137244D02*
X0184063Y0138031D01*
X0182095Y0138818D02*
X0181702Y0139212D01*
Y0139999D01*
X0182095Y0140392D01*
X0182489D01*
X0182882Y0139999D01*
X0183276Y0140392D01*
X0183669D01*
X0184063Y0139999D01*
Y0139212D01*
X0183669Y0138818D01*
X0183276D01*
X0182882Y0139212D01*
X0182489Y0138818D01*
X0182095D01*
X0182882Y0139212D02*
Y0139999D01*
X0178964Y0132520D02*
X0179358Y0132914D01*
Y0133701D01*
X0178964Y0134095D01*
X0177390D01*
X0176996Y0133701D01*
Y0132914D01*
X0177390Y0132520D01*
X0176996Y0131733D02*
Y0130946D01*
Y0131340D01*
X0179358D01*
X0178964Y0131733D01*
X0176996Y0129765D02*
Y0128978D01*
Y0129372D01*
X0179358D01*
X0178964Y0129765D01*
X0156917Y0159056D02*
X0157310Y0159449D01*
Y0160236D01*
X0156917Y0160630D01*
X0155342D01*
X0154949Y0160236D01*
Y0159449D01*
X0155342Y0159056D01*
X0157310Y0158268D02*
Y0156694D01*
X0156917D01*
X0155342Y0158268D01*
X0154949D01*
X0144653Y0168287D02*
X0144259Y0168680D01*
X0143472D01*
X0143079Y0168287D01*
Y0166712D01*
X0143472Y0166319D01*
X0144259D01*
X0144653Y0166712D01*
X0145440Y0166319D02*
X0146227D01*
X0145834D01*
Y0168680D01*
X0145440Y0168287D01*
X0148589Y0166319D02*
Y0168680D01*
X0147408Y0167500D01*
X0148982D01*
X0153079Y0163150D02*
X0150717D01*
Y0164330D01*
X0151111Y0164724D01*
X0151898D01*
X0152292Y0164330D01*
Y0163150D01*
Y0163937D02*
X0153079Y0164724D01*
Y0166692D02*
X0150717D01*
X0151898Y0165511D01*
Y0167085D01*
X0159182Y0163445D02*
X0159575Y0163052D01*
X0160362D01*
X0160756Y0163445D01*
Y0165020D01*
X0160362Y0165413D01*
X0159575D01*
X0159182Y0165020D01*
X0158395Y0163445D02*
X0158001Y0163052D01*
X0157214D01*
X0156820Y0163445D01*
Y0163839D01*
X0157214Y0164233D01*
X0157607D01*
X0157214D01*
X0156820Y0164626D01*
Y0165020D01*
X0157214Y0165413D01*
X0158001D01*
X0158395Y0165020D01*
M02*
