G04*
G04 #@! TF.GenerationSoftware,Altium Limited,Altium Designer,19.1.5 (86)*
G04*
G04 Layer_Physical_Order=1*
G04 Layer_Color=255*
%FSAX25Y25*%
%MOIN*%
G70*
G01*
G75*
%ADD10C,0.00984*%
%ADD12C,0.00787*%
%ADD13C,0.01000*%
%ADD17R,0.02362X0.02520*%
%ADD18R,0.02520X0.02362*%
%ADD19R,0.02441X0.02244*%
%ADD20R,0.01968X0.02362*%
%ADD21R,0.03937X0.03937*%
%ADD22R,0.08661X0.04134*%
%ADD23R,0.02362X0.01968*%
%ADD24R,0.07087X0.07874*%
%ADD26R,0.01968X0.01968*%
%ADD27R,0.02756X0.01181*%
%ADD28R,0.03150X0.03150*%
%ADD29R,0.03543X0.05118*%
%ADD30R,0.03740X0.01890*%
%ADD31R,0.03150X0.03150*%
%ADD52C,0.03110*%
%ADD53C,0.02953*%
%ADD54C,0.02756*%
%ADD55C,0.00600*%
%ADD56C,0.01181*%
%ADD57C,0.01968*%
%ADD58C,0.02362*%
%ADD59C,0.05906*%
%ADD60C,0.03150*%
%ADD61C,0.03543*%
%ADD62C,0.01968*%
%ADD63C,0.02756*%
G36*
X0166297Y0177677D02*
X0166215Y0177674D01*
X0166134Y0177665D01*
X0166054Y0177647D01*
X0165976Y0177623D01*
X0165899Y0177592D01*
X0165823Y0177553D01*
X0165748Y0177508D01*
X0165674Y0177455D01*
X0165601Y0177395D01*
X0165530Y0177328D01*
X0164973Y0177884D01*
X0165040Y0177956D01*
X0165101Y0178028D01*
X0165153Y0178102D01*
X0165199Y0178177D01*
X0165238Y0178253D01*
X0165269Y0178330D01*
X0165293Y0178409D01*
X0165310Y0178489D01*
X0165320Y0178569D01*
X0165323Y0178652D01*
X0166297Y0177677D01*
D02*
G37*
G36*
X0162754Y0177638D02*
X0162672Y0177635D01*
X0162591Y0177625D01*
X0162511Y0177608D01*
X0162433Y0177584D01*
X0162355Y0177552D01*
X0162279Y0177514D01*
X0162204Y0177468D01*
X0162131Y0177415D01*
X0162058Y0177355D01*
X0161987Y0177288D01*
X0161430Y0177845D01*
X0161497Y0177916D01*
X0161557Y0177989D01*
X0161610Y0178063D01*
X0161656Y0178138D01*
X0161694Y0178214D01*
X0161726Y0178291D01*
X0161750Y0178369D01*
X0161767Y0178449D01*
X0161777Y0178530D01*
X0161780Y0178612D01*
X0162754Y0177638D01*
D02*
G37*
G36*
X0128632Y0177752D02*
X0128652Y0177547D01*
X0128670Y0177463D01*
X0128692Y0177393D01*
X0128719Y0177335D01*
X0128752Y0177290D01*
X0128789Y0177258D01*
X0128831Y0177239D01*
X0128878Y0177232D01*
X0127594D01*
X0127641Y0177239D01*
X0127684Y0177258D01*
X0127721Y0177290D01*
X0127753Y0177335D01*
X0127780Y0177393D01*
X0127803Y0177463D01*
X0127820Y0177547D01*
X0127833Y0177643D01*
X0127840Y0177752D01*
X0127842Y0177874D01*
X0128630D01*
X0128632Y0177752D01*
D02*
G37*
G36*
X0124341Y0177752D02*
X0124361Y0177547D01*
X0124378Y0177463D01*
X0124401Y0177393D01*
X0124428Y0177335D01*
X0124460Y0177290D01*
X0124497Y0177258D01*
X0124540Y0177239D01*
X0124587Y0177232D01*
X0123303D01*
X0123350Y0177239D01*
X0123392Y0177258D01*
X0123430Y0177290D01*
X0123462Y0177335D01*
X0123489Y0177393D01*
X0123512Y0177463D01*
X0123529Y0177547D01*
X0123541Y0177643D01*
X0123549Y0177752D01*
X0123551Y0177874D01*
X0124339D01*
X0124341Y0177752D01*
D02*
G37*
G36*
X0128112Y0171363D02*
X0128058Y0171387D01*
X0127997Y0171396D01*
X0127929Y0171389D01*
X0127855Y0171369D01*
X0127773Y0171332D01*
X0127685Y0171281D01*
X0127590Y0171215D01*
X0127488Y0171134D01*
X0127264Y0170926D01*
X0126643Y0171154D01*
X0126772Y0171287D01*
X0126972Y0171520D01*
X0127044Y0171621D01*
X0127097Y0171711D01*
X0127131Y0171791D01*
X0127147Y0171860D01*
X0127143Y0171918D01*
X0127121Y0171965D01*
X0127079Y0172002D01*
X0128112Y0171363D01*
D02*
G37*
G36*
X0124488Y0171356D02*
X0124437Y0171338D01*
X0124392Y0171308D01*
X0124353Y0171265D01*
X0124320Y0171210D01*
X0124293Y0171142D01*
X0124272Y0171063D01*
X0124257Y0170971D01*
X0124248Y0170867D01*
X0124245Y0170751D01*
X0123645D01*
X0123642Y0170867D01*
X0123633Y0170971D01*
X0123618Y0171063D01*
X0123597Y0171142D01*
X0123570Y0171210D01*
X0123537Y0171265D01*
X0123498Y0171308D01*
X0123453Y0171338D01*
X0123402Y0171356D01*
X0123345Y0171363D01*
X0124545D01*
X0124488Y0171356D01*
D02*
G37*
G36*
X0149848Y0171446D02*
X0149926Y0171415D01*
X0149989Y0171398D01*
X0149989Y0171408D01*
X0150008Y0171393D01*
X0150024Y0171388D01*
X0150144Y0171364D01*
X0150285Y0171345D01*
X0150631Y0171316D01*
X0151307Y0171299D01*
Y0170224D01*
X0152291D01*
X0152297Y0170000D01*
X0152314Y0169799D01*
X0152343Y0169622D01*
X0152384Y0169468D01*
X0152436Y0169338D01*
X0152500Y0169232D01*
X0152575Y0169149D01*
X0152662Y0169090D01*
X0152760Y0169055D01*
X0152870Y0169043D01*
X0150532D01*
X0150642Y0169055D01*
X0150740Y0169090D01*
X0150827Y0169149D01*
X0150902Y0169232D01*
X0150966Y0169338D01*
X0151018Y0169468D01*
X0151058Y0169622D01*
X0151087Y0169799D01*
X0151104Y0170000D01*
X0151108Y0170117D01*
X0151060Y0170116D01*
X0150144Y0170053D01*
X0150024Y0170029D01*
X0149926Y0170002D01*
X0149848Y0169971D01*
X0149792Y0169937D01*
Y0171481D01*
X0149848Y0171446D01*
D02*
G37*
G36*
X0148749Y0170355D02*
X0148841Y0168921D01*
X0148866Y0168865D01*
X0148893Y0168846D01*
X0146555D01*
X0146598Y0168865D01*
X0146636Y0168921D01*
X0146670Y0169014D01*
X0146699Y0169144D01*
X0146723Y0169312D01*
X0146759Y0169759D01*
X0146780Y0170709D01*
X0148748D01*
X0148749Y0170355D01*
D02*
G37*
G36*
X0119407Y0167283D02*
X0119301Y0167281D01*
X0119199Y0167273D01*
X0119102Y0167258D01*
X0119009Y0167237D01*
X0118921Y0167209D01*
X0118837Y0167175D01*
X0118758Y0167135D01*
X0118684Y0167088D01*
X0118614Y0167035D01*
X0118549Y0166975D01*
X0118125Y0167399D01*
X0118184Y0167464D01*
X0118237Y0167534D01*
X0118284Y0167608D01*
X0118325Y0167687D01*
X0118359Y0167771D01*
X0118386Y0167859D01*
X0118408Y0167952D01*
X0118422Y0168049D01*
X0118431Y0168151D01*
X0118433Y0168258D01*
X0119407Y0167283D01*
D02*
G37*
G36*
X0173473Y0167207D02*
X0173399Y0167130D01*
X0173274Y0166984D01*
X0173223Y0166916D01*
X0173179Y0166849D01*
X0173144Y0166786D01*
X0173116Y0166725D01*
X0173096Y0166666D01*
X0173083Y0166610D01*
X0173079Y0166557D01*
X0172132Y0167558D01*
X0172187Y0167560D01*
X0172244Y0167570D01*
X0172304Y0167588D01*
X0172366Y0167614D01*
X0172430Y0167648D01*
X0172497Y0167690D01*
X0172566Y0167739D01*
X0172638Y0167797D01*
X0172789Y0167937D01*
X0173473Y0167207D01*
D02*
G37*
G36*
X0133998Y0167092D02*
X0133921Y0167013D01*
X0133692Y0166751D01*
X0133655Y0166699D01*
X0133627Y0166652D01*
X0133606Y0166611D01*
X0133594Y0166576D01*
X0133590Y0166545D01*
X0132616Y0167520D01*
X0132646Y0167524D01*
X0132682Y0167535D01*
X0132723Y0167556D01*
X0132770Y0167584D01*
X0132822Y0167621D01*
X0132942Y0167719D01*
X0133084Y0167850D01*
X0133163Y0167927D01*
X0133998Y0167092D01*
D02*
G37*
G36*
X0131903Y0165847D02*
X0131879Y0165865D01*
X0131845Y0165882D01*
X0131802Y0165897D01*
X0131749Y0165909D01*
X0131686Y0165920D01*
X0131532Y0165936D01*
X0131339Y0165944D01*
X0131228Y0165945D01*
Y0167126D01*
X0131339Y0167127D01*
X0131686Y0167151D01*
X0131749Y0167161D01*
X0131802Y0167174D01*
X0131845Y0167189D01*
X0131879Y0167206D01*
X0131903Y0167224D01*
Y0165847D01*
D02*
G37*
G36*
X0204097Y0165728D02*
X0204075Y0165740D01*
X0204034Y0165750D01*
X0203972Y0165759D01*
X0203788Y0165773D01*
X0203181Y0165787D01*
X0202979Y0165787D01*
Y0168150D01*
X0204097Y0168209D01*
Y0165728D01*
D02*
G37*
G36*
X0138203Y0165098D02*
X0138162Y0165134D01*
X0138114Y0165166D01*
X0138058Y0165195D01*
X0137996Y0165219D01*
X0137926Y0165240D01*
X0137849Y0165257D01*
X0137764Y0165270D01*
X0137672Y0165280D01*
X0137467Y0165287D01*
Y0166287D01*
X0137573Y0166289D01*
X0137764Y0166304D01*
X0137849Y0166318D01*
X0137926Y0166335D01*
X0137996Y0166355D01*
X0138058Y0166380D01*
X0138114Y0166408D01*
X0138162Y0166440D01*
X0138203Y0166476D01*
Y0165098D01*
D02*
G37*
G36*
X0154941Y0162953D02*
X0154929Y0163065D01*
X0154894Y0163165D01*
X0154835Y0163254D01*
X0154752Y0163331D01*
X0154646Y0163396D01*
X0154516Y0163449D01*
X0154362Y0163490D01*
X0154185Y0163520D01*
X0153984Y0163537D01*
X0153874Y0163540D01*
X0153827Y0163540D01*
X0153449Y0163509D01*
X0153295Y0163482D01*
X0153165Y0163448D01*
X0153059Y0163406D01*
X0152976Y0163356D01*
X0152917Y0163299D01*
X0152882Y0163234D01*
X0152870Y0163162D01*
X0152760Y0163150D01*
X0152662Y0163114D01*
X0152575Y0163055D01*
X0152500Y0162973D01*
X0152436Y0162866D01*
X0152384Y0162736D01*
X0152343Y0162583D01*
X0152314Y0162406D01*
X0152297Y0162205D01*
X0152297Y0162187D01*
X0152316Y0161904D01*
X0152327Y0161841D01*
X0152340Y0161788D01*
X0152354Y0161745D01*
X0152371Y0161711D01*
X0152390Y0161687D01*
X0151012D01*
X0151031Y0161711D01*
X0151047Y0161745D01*
X0151062Y0161788D01*
X0151075Y0161841D01*
X0151086Y0161904D01*
X0151101Y0162058D01*
X0151106Y0162161D01*
X0151104Y0162205D01*
X0151087Y0162406D01*
X0151058Y0162583D01*
X0151018Y0162736D01*
X0150966Y0162866D01*
X0150902Y0162973D01*
X0150827Y0163055D01*
X0150740Y0163114D01*
X0150642Y0163150D01*
X0150532Y0163162D01*
X0152870D01*
Y0165106D01*
X0152882Y0165034D01*
X0152917Y0164969D01*
X0152976Y0164911D01*
X0153059Y0164862D01*
X0153165Y0164820D01*
X0153295Y0164786D01*
X0153449Y0164759D01*
X0153626Y0164740D01*
X0153928Y0164729D01*
X0153984Y0164730D01*
X0154185Y0164748D01*
X0154362Y0164778D01*
X0154516Y0164819D01*
X0154646Y0164872D01*
X0154752Y0164937D01*
X0154835Y0165014D01*
X0154894Y0165102D01*
X0154929Y0165203D01*
X0154941Y0165315D01*
Y0162953D01*
D02*
G37*
G36*
X0209460Y0165654D02*
X0209455Y0165630D01*
X0209578Y0165012D01*
X0209928Y0164488D01*
X0210452Y0164137D01*
X0211071Y0164014D01*
X0211689Y0164137D01*
X0212213Y0164488D01*
X0212493Y0164907D01*
X0213044Y0165063D01*
X0216524Y0161583D01*
Y0150683D01*
X0216503Y0150670D01*
X0216153Y0150146D01*
X0216030Y0149528D01*
X0216153Y0148909D01*
X0216503Y0148385D01*
X0217027Y0148035D01*
X0217645Y0147912D01*
X0218264Y0148035D01*
X0218298Y0148058D01*
X0218798Y0147791D01*
X0218798Y0117312D01*
X0207407D01*
X0207053Y0117666D01*
X0207056Y0126096D01*
X0207075Y0126142D01*
Y0126459D01*
X0207075Y0126575D01*
X0207056Y0126712D01*
X0207056Y0126849D01*
X0207025Y0126939D01*
X0206924D01*
X0206884Y0127034D01*
X0205735Y0128184D01*
X0205926Y0128646D01*
X0206819D01*
Y0131417D01*
X0204835D01*
Y0129737D01*
X0204373Y0129546D01*
X0202498Y0131421D01*
Y0135364D01*
X0202498D01*
X0202490Y0135864D01*
X0202535Y0135972D01*
X0202534Y0135975D01*
X0202499Y0136060D01*
X0202509Y0136154D01*
X0202507Y0136156D01*
X0202407Y0136281D01*
X0202405Y0136286D01*
X0202402Y0136312D01*
X0202388Y0136338D01*
X0202385Y0136350D01*
X0202308Y0137545D01*
X0202498Y0137747D01*
X0202498D01*
Y0139383D01*
X0202509Y0139397D01*
X0202499Y0139491D01*
X0202535Y0139579D01*
X0202498Y0139669D01*
Y0144065D01*
X0202498D01*
X0202503Y0144471D01*
X0202495Y0144576D01*
X0202534Y0144670D01*
X0202535Y0144673D01*
X0202477Y0144814D01*
X0202465Y0144966D01*
X0202385Y0145035D01*
X0202345Y0145132D01*
X0202343Y0145133D01*
X0202330Y0145138D01*
X0202318Y0145199D01*
X0202254Y0146127D01*
X0202252Y0146442D01*
X0202243Y0146463D01*
Y0150589D01*
X0202282Y0150787D01*
X0202282Y0150787D01*
Y0153765D01*
X0202291Y0153785D01*
X0202306Y0155279D01*
X0202334Y0155896D01*
X0202468Y0156220D01*
Y0160669D01*
X0202278Y0161128D01*
X0201819Y0161319D01*
X0190008D01*
X0189549Y0161128D01*
X0188390Y0159970D01*
X0188109D01*
Y0159490D01*
X0188059Y0159370D01*
Y0158260D01*
X0187937Y0157811D01*
X0187823D01*
X0187822Y0151988D01*
X0187527Y0151988D01*
X0184083Y0151988D01*
X0184083Y0158034D01*
X0184010Y0158189D01*
X0181819D01*
Y0158780D01*
X0181228D01*
Y0160158D01*
X0180224D01*
X0179870Y0160511D01*
X0179870Y0160945D01*
X0179821Y0161064D01*
Y0161203D01*
X0179855Y0161378D01*
Y0163854D01*
X0181154Y0165153D01*
X0202942D01*
X0202977Y0165138D01*
X0203172Y0165137D01*
X0203756Y0165124D01*
X0203867Y0165115D01*
X0204437Y0164734D01*
X0205362Y0164550D01*
X0206288Y0164734D01*
X0207072Y0165259D01*
X0207596Y0166043D01*
X0207724Y0166683D01*
X0208266Y0166848D01*
X0209460Y0165654D01*
D02*
G37*
G36*
X0175862Y0165147D02*
X0175788Y0165070D01*
X0175669Y0164924D01*
X0175624Y0164855D01*
X0175587Y0164788D01*
X0175560Y0164724D01*
X0175542Y0164662D01*
X0175533Y0164603D01*
X0175534Y0164546D01*
X0175544Y0164492D01*
X0174354Y0165187D01*
X0174391Y0165199D01*
X0174434Y0165219D01*
X0174481Y0165246D01*
X0174532Y0165279D01*
X0174648Y0165368D01*
X0174781Y0165485D01*
X0174932Y0165631D01*
X0175862Y0165147D01*
D02*
G37*
G36*
X0148866Y0166331D02*
X0148841Y0166272D01*
X0148819Y0166173D01*
X0148800Y0166036D01*
X0148771Y0165642D01*
X0148748Y0164382D01*
X0146780D01*
X0146777Y0164756D01*
X0146699Y0166036D01*
X0146670Y0166173D01*
X0146636Y0166272D01*
X0146598Y0166331D01*
X0146555Y0166351D01*
X0148893D01*
X0148866Y0166331D01*
D02*
G37*
G36*
X0141764Y0169858D02*
Y0168386D01*
X0143945D01*
Y0167598D01*
X0144732D01*
Y0165339D01*
X0146091D01*
X0146128Y0164734D01*
X0146130Y0164378D01*
X0146149Y0164334D01*
Y0160354D01*
X0146272Y0159736D01*
X0146622Y0159212D01*
X0148748Y0157086D01*
X0149272Y0156736D01*
X0149890Y0156613D01*
X0151583D01*
X0153354Y0154842D01*
X0153878Y0154492D01*
X0154368Y0154394D01*
Y0154203D01*
X0157386D01*
X0157476Y0154166D01*
X0157561Y0154201D01*
X0157652Y0154190D01*
X0158088Y0154203D01*
Y0154286D01*
X0159093Y0154349D01*
X0159448Y0154351D01*
X0159492Y0154369D01*
X0172528D01*
X0173146Y0154492D01*
X0173670Y0154842D01*
X0174771Y0155944D01*
X0177634D01*
X0177652Y0155925D01*
Y0151614D01*
X0177652Y0151614D01*
X0177745Y0151150D01*
X0178008Y0150756D01*
X0179198Y0149566D01*
X0178991Y0149066D01*
X0150078D01*
X0145993Y0153150D01*
X0145306Y0153609D01*
X0144496Y0153771D01*
X0121611D01*
X0121592Y0153779D01*
X0121287Y0153786D01*
X0121033Y0153805D01*
X0120820Y0153834D01*
X0120648Y0153871D01*
X0120520Y0153912D01*
X0120439Y0153951D01*
X0120400Y0153977D01*
X0120399Y0153978D01*
X0120383Y0154030D01*
X0120340Y0154083D01*
X0120320Y0154235D01*
X0119962Y0155099D01*
X0119392Y0155841D01*
X0118650Y0156410D01*
X0117786Y0156768D01*
X0116858Y0156890D01*
X0115931Y0156768D01*
X0115067Y0156410D01*
X0114324Y0155841D01*
X0113755Y0155099D01*
X0113397Y0154235D01*
X0113275Y0153307D01*
X0113397Y0152380D01*
X0113755Y0151515D01*
X0114324Y0150773D01*
X0115067Y0150204D01*
X0115931Y0149846D01*
X0116858Y0149724D01*
X0117530Y0149812D01*
X0117702Y0149698D01*
X0118512Y0149537D01*
X0120944D01*
X0121022Y0149530D01*
X0121043Y0149537D01*
X0143619D01*
X0147704Y0145452D01*
X0148391Y0144993D01*
X0149201Y0144832D01*
X0149201Y0144832D01*
X0187692D01*
X0187789Y0144851D01*
X0189129D01*
X0189487Y0144487D01*
Y0143699D01*
X0189456Y0143543D01*
Y0141142D01*
X0189479Y0141026D01*
X0189161Y0140639D01*
X0187513D01*
X0187497Y0140650D01*
X0187445Y0140641D01*
X0187398Y0140664D01*
X0187328Y0140639D01*
X0186973D01*
X0186898Y0140683D01*
X0186755Y0140783D01*
X0186364Y0141114D01*
X0186140Y0141330D01*
X0186080Y0141354D01*
X0185197Y0142236D01*
X0184803Y0142499D01*
X0184466Y0142567D01*
Y0142962D01*
X0181667D01*
X0181620Y0142991D01*
X0181567Y0142979D01*
X0181516Y0143000D01*
X0181425Y0142962D01*
X0180904D01*
Y0142962D01*
X0180600Y0142754D01*
X0180135Y0142923D01*
Y0142923D01*
X0179614D01*
X0179523Y0142960D01*
X0179467Y0142937D01*
X0179407Y0142950D01*
X0179366Y0142923D01*
X0176573D01*
Y0139754D01*
X0179378D01*
X0179429Y0139724D01*
X0179477Y0139736D01*
X0179523Y0139717D01*
X0179614Y0139754D01*
X0180135D01*
X0180135Y0139754D01*
X0180220Y0139741D01*
X0180484Y0139599D01*
X0180502Y0139444D01*
X0180484Y0139286D01*
X0180135Y0138986D01*
X0180004Y0138986D01*
X0176573D01*
Y0138651D01*
X0176479Y0138644D01*
X0176337Y0138642D01*
X0176216Y0138590D01*
X0175882Y0138523D01*
X0175488Y0138260D01*
X0175488Y0138260D01*
X0173441Y0136213D01*
X0173178Y0135819D01*
X0173085Y0135354D01*
X0173085Y0135354D01*
Y0135011D01*
X0172807Y0134595D01*
X0172684Y0133976D01*
X0172807Y0133358D01*
X0173157Y0132834D01*
X0173681Y0132484D01*
X0174299Y0132361D01*
X0174917Y0132484D01*
X0175441Y0132834D01*
X0175792Y0133358D01*
X0175915Y0133976D01*
X0175792Y0134595D01*
X0175577Y0134915D01*
X0176202Y0135541D01*
X0176573Y0135817D01*
Y0135817D01*
X0176573Y0135817D01*
X0180004D01*
X0180135Y0135817D01*
X0180504Y0135500D01*
X0180504Y0134957D01*
Y0134252D01*
X0182685D01*
Y0132677D01*
X0180504D01*
Y0131671D01*
X0180230Y0131312D01*
X0180212Y0131296D01*
X0180108Y0131230D01*
X0179618D01*
X0179531Y0131267D01*
X0179527Y0131266D01*
X0179523Y0131267D01*
X0179433Y0131230D01*
X0177159D01*
X0177097Y0131264D01*
X0177062Y0131253D01*
X0177028Y0131267D01*
X0176937Y0131230D01*
X0176416D01*
Y0130757D01*
X0176398Y0130750D01*
X0176328Y0130731D01*
X0175486Y0130688D01*
X0175433Y0130663D01*
X0162479D01*
X0160471Y0132671D01*
X0160446Y0132733D01*
X0160375Y0132805D01*
X0160265Y0132924D01*
X0160194Y0133012D01*
X0160182Y0133028D01*
X0160180Y0133031D01*
X0160173Y0133046D01*
X0160169Y0133049D01*
X0160165Y0133056D01*
X0160161Y0133059D01*
X0160083Y0133453D01*
X0159733Y0133977D01*
X0159209Y0134327D01*
X0158591Y0134450D01*
X0157972Y0134327D01*
X0157448Y0133977D01*
X0157098Y0133453D01*
X0156975Y0132835D01*
X0157098Y0132217D01*
X0157448Y0131693D01*
X0157972Y0131342D01*
X0158366Y0131264D01*
X0158369Y0131260D01*
X0158376Y0131256D01*
X0158379Y0131252D01*
X0158394Y0131245D01*
X0158397Y0131243D01*
X0158404Y0131238D01*
X0158627Y0131044D01*
X0158692Y0130979D01*
X0158754Y0130954D01*
X0161118Y0128591D01*
X0161118Y0128591D01*
X0161512Y0128327D01*
X0161976Y0128235D01*
X0161976Y0128235D01*
X0175448D01*
X0175508Y0128209D01*
X0176095Y0128199D01*
X0176191Y0128190D01*
X0176314Y0128170D01*
X0176398Y0128148D01*
X0176416Y0128141D01*
Y0127668D01*
X0176937D01*
X0177028Y0127630D01*
X0177062Y0127644D01*
X0177097Y0127634D01*
X0177159Y0127668D01*
X0179433D01*
X0179523Y0127630D01*
X0179614Y0127668D01*
X0180135D01*
Y0127819D01*
X0181144Y0127891D01*
X0181497Y0127894D01*
X0181540Y0127912D01*
X0185520D01*
X0186138Y0128035D01*
X0186578Y0128330D01*
X0186667Y0128364D01*
X0187343Y0129017D01*
X0187890Y0129497D01*
X0188106Y0129666D01*
X0188286Y0129792D01*
X0188418Y0129869D01*
X0188483Y0129898D01*
X0188543Y0129912D01*
X0189919D01*
Y0133002D01*
X0184979Y0133002D01*
X0184866Y0133455D01*
X0184866Y0135449D01*
X0184866Y0135949D01*
Y0137096D01*
X0184979Y0137550D01*
X0185961D01*
X0186228Y0137050D01*
X0186193Y0136996D01*
X0186070Y0136378D01*
X0186193Y0135760D01*
X0186543Y0135236D01*
X0187067Y0134886D01*
X0187685Y0134763D01*
X0188303Y0134886D01*
X0188674Y0135134D01*
X0188708Y0135134D01*
X0193007Y0130836D01*
Y0127583D01*
X0192981Y0127525D01*
X0192975Y0127321D01*
X0192962Y0127164D01*
X0192941Y0127043D01*
X0192919Y0126960D01*
X0192911Y0126939D01*
X0192909Y0126939D01*
X0190202D01*
X0190077Y0126939D01*
X0190077Y0126939D01*
X0189702D01*
Y0126939D01*
X0189577Y0126939D01*
X0181541D01*
X0181416Y0126939D01*
X0181416Y0126939D01*
X0181041D01*
Y0126939D01*
X0180916Y0126939D01*
X0172754D01*
Y0126929D01*
X0171592D01*
Y0126939D01*
X0163305D01*
Y0117865D01*
X0163315D01*
Y0117312D01*
X0109801Y0117312D01*
X0109801Y0139528D01*
Y0142283D01*
X0109723Y0142671D01*
X0109693Y0142716D01*
X0109896Y0143162D01*
X0109960Y0143216D01*
X0119962D01*
X0120033Y0143185D01*
X0120038Y0143184D01*
Y0142353D01*
X0123206D01*
Y0145915D01*
X0120038D01*
Y0145083D01*
X0120033Y0145083D01*
X0119962Y0145052D01*
X0109286D01*
X0109181Y0145156D01*
Y0157547D01*
X0114378D01*
X0114729Y0157617D01*
X0115027Y0157816D01*
X0115986Y0158775D01*
X0116528Y0158610D01*
X0116547Y0158516D01*
X0116897Y0157992D01*
X0117421Y0157641D01*
X0118039Y0157519D01*
X0118658Y0157641D01*
X0119112Y0157945D01*
X0119192Y0157977D01*
X0119255Y0158036D01*
X0119300Y0158075D01*
X0119342Y0158106D01*
X0119381Y0158130D01*
X0119416Y0158149D01*
X0119448Y0158162D01*
X0119479Y0158172D01*
X0119508Y0158178D01*
X0119537Y0158182D01*
X0119596Y0158185D01*
X0119663Y0158216D01*
X0133118D01*
X0133469Y0158286D01*
X0133767Y0158485D01*
X0134171Y0158889D01*
X0134242Y0158916D01*
X0134479Y0159137D01*
X0134545Y0159190D01*
X0134557Y0159192D01*
X0134608Y0159167D01*
X0134713Y0159203D01*
X0136553D01*
Y0162765D01*
X0135091D01*
X0134900Y0163227D01*
X0136339Y0164666D01*
X0137383D01*
X0137443Y0164638D01*
X0137627Y0164632D01*
X0137681Y0164626D01*
X0137729Y0164619D01*
X0137763Y0164611D01*
X0137784Y0164605D01*
X0137787Y0164604D01*
X0137801Y0164595D01*
X0137809Y0164593D01*
X0137818Y0164588D01*
X0137840Y0164587D01*
X0137852Y0164584D01*
X0137857Y0164583D01*
X0138287Y0164295D01*
X0138905Y0164172D01*
X0139523Y0164295D01*
X0140048Y0164645D01*
X0140398Y0165169D01*
X0140521Y0165787D01*
X0140398Y0166405D01*
X0140048Y0166930D01*
X0139523Y0167280D01*
X0138905Y0167403D01*
X0138287Y0167280D01*
X0137857Y0166992D01*
X0137852Y0166990D01*
X0137840Y0166988D01*
X0137818Y0166986D01*
X0137809Y0166982D01*
X0137801Y0166980D01*
X0137787Y0166971D01*
X0137784Y0166970D01*
X0137763Y0166964D01*
X0137729Y0166956D01*
X0137688Y0166950D01*
X0137542Y0166938D01*
X0137455Y0166937D01*
X0137392Y0166909D01*
X0135874D01*
X0135445Y0166824D01*
X0135313Y0166735D01*
X0134862Y0166957D01*
X0134845Y0167058D01*
X0137599Y0169811D01*
X0137750Y0170038D01*
X0141338D01*
X0141764Y0169858D01*
D02*
G37*
G36*
X0126035Y0164347D02*
X0125969Y0164323D01*
X0125909Y0164283D01*
X0125858Y0164227D01*
X0125815Y0164155D01*
X0125779Y0164067D01*
X0125752Y0163963D01*
X0125732Y0163843D01*
X0125722Y0163728D01*
X0125728Y0163663D01*
X0125743Y0163574D01*
X0125764Y0163488D01*
X0125790Y0163407D01*
X0125823Y0163330D01*
X0125861Y0163258D01*
X0125906Y0163189D01*
X0125956Y0163125D01*
X0126012Y0163065D01*
X0124634D01*
X0124690Y0163125D01*
X0124740Y0163189D01*
X0124784Y0163258D01*
X0124823Y0163330D01*
X0124855Y0163407D01*
X0124882Y0163488D01*
X0124903Y0163574D01*
X0124917Y0163663D01*
X0124923Y0163728D01*
X0124913Y0163843D01*
X0124894Y0163963D01*
X0124866Y0164067D01*
X0124831Y0164155D01*
X0124787Y0164227D01*
X0124736Y0164283D01*
X0124677Y0164323D01*
X0124610Y0164347D01*
X0124535Y0164355D01*
X0126110D01*
X0126035Y0164347D01*
D02*
G37*
G36*
X0218798Y0183003D02*
X0218798Y0163180D01*
X0218298Y0162981D01*
X0207651Y0173628D01*
X0207288Y0173871D01*
X0206858Y0173956D01*
X0206858Y0173956D01*
X0178394D01*
X0178394Y0173956D01*
X0177964Y0173871D01*
X0177601Y0173628D01*
X0177601Y0173628D01*
X0172409Y0168436D01*
X0172348Y0168413D01*
X0172213Y0168289D01*
X0172173Y0168256D01*
X0172135Y0168229D01*
X0172107Y0168211D01*
X0172090Y0168202D01*
X0172076Y0168200D01*
X0172069Y0168196D01*
X0172057Y0168192D01*
X0172042Y0168180D01*
X0171476Y0168067D01*
X0170952Y0167717D01*
X0170602Y0167193D01*
X0170479Y0166575D01*
X0170494Y0166502D01*
X0170461Y0166339D01*
X0170546Y0165909D01*
X0170790Y0165545D01*
X0170947Y0165388D01*
X0171311Y0165145D01*
X0171413Y0165124D01*
X0171476Y0165083D01*
X0172095Y0164960D01*
X0172676Y0165075D01*
X0172769Y0165026D01*
X0172774Y0165022D01*
X0173077Y0164725D01*
X0172979Y0164232D01*
X0173102Y0163614D01*
X0173452Y0163090D01*
X0173976Y0162740D01*
X0174594Y0162617D01*
X0175213Y0162740D01*
X0175723Y0163081D01*
X0175806Y0163066D01*
X0176223Y0162919D01*
Y0161378D01*
X0176258Y0161203D01*
Y0161064D01*
X0176209Y0160945D01*
X0176209Y0159174D01*
X0174102D01*
X0173484Y0159051D01*
X0172960Y0158701D01*
X0171859Y0157599D01*
X0159494D01*
X0159451Y0157618D01*
X0158756Y0157625D01*
X0158488Y0157639D01*
Y0158976D01*
X0156228D01*
Y0160551D01*
X0158488D01*
Y0161874D01*
X0159102D01*
Y0162898D01*
D01*
D01*
Y0164134D01*
Y0166394D01*
X0157709D01*
Y0165994D01*
X0154329D01*
Y0165714D01*
X0153902Y0165457D01*
X0153482Y0165636D01*
Y0165718D01*
X0152960D01*
X0152870Y0165755D01*
X0152819Y0165735D01*
X0152766Y0165747D01*
X0152719Y0165718D01*
X0150046D01*
X0149847Y0165940D01*
X0149713Y0166140D01*
X0149744Y0166365D01*
X0149902Y0166456D01*
X0150005Y0166487D01*
X0153482D01*
Y0168912D01*
X0153516Y0168974D01*
X0153505Y0169009D01*
X0153519Y0169043D01*
X0153482Y0169133D01*
Y0169655D01*
X0153009D01*
X0153002Y0169673D01*
X0152979Y0169757D01*
X0152959Y0169879D01*
X0152946Y0170036D01*
X0152941Y0170241D01*
X0152915Y0170299D01*
Y0170315D01*
X0152915Y0170315D01*
X0152822Y0170780D01*
X0152559Y0171173D01*
X0152559Y0171173D01*
X0152165Y0171567D01*
X0151772Y0171830D01*
X0151442Y0171896D01*
X0151323Y0171949D01*
X0150666Y0171964D01*
X0150358Y0171990D01*
X0150252Y0172005D01*
X0150220Y0172011D01*
X0149878Y0172240D01*
X0149747Y0172266D01*
X0149796Y0172766D01*
X0161425D01*
X0161813Y0172844D01*
X0162142Y0173063D01*
X0165908Y0176829D01*
X0165975Y0176855D01*
X0166031Y0176908D01*
X0166071Y0176940D01*
X0166106Y0176966D01*
X0166139Y0176986D01*
X0166168Y0177000D01*
X0166194Y0177011D01*
X0166219Y0177018D01*
X0166242Y0177023D01*
X0166266Y0177026D01*
X0166319Y0177028D01*
X0166399Y0177064D01*
X0166925Y0177169D01*
X0167449Y0177519D01*
X0167799Y0178043D01*
X0167922Y0178661D01*
X0167799Y0179279D01*
X0167449Y0179804D01*
X0166925Y0180154D01*
X0166307Y0180277D01*
X0165689Y0180154D01*
X0165165Y0179804D01*
X0164815Y0179279D01*
X0164786Y0179137D01*
X0164277D01*
X0164256Y0179240D01*
X0163906Y0179764D01*
X0163382Y0180114D01*
X0162764Y0180237D01*
X0162146Y0180114D01*
X0161622Y0179764D01*
X0161272Y0179240D01*
X0161167Y0178714D01*
X0161130Y0178634D01*
X0161129Y0178580D01*
X0161126Y0178557D01*
X0161121Y0178534D01*
X0161113Y0178509D01*
X0161103Y0178483D01*
X0161088Y0178454D01*
X0161068Y0178421D01*
X0161042Y0178385D01*
X0161010Y0178346D01*
X0160957Y0178290D01*
X0160931Y0178223D01*
X0159076Y0176367D01*
X0138735D01*
X0133913Y0181189D01*
X0133585Y0181409D01*
X0133197Y0181486D01*
X0126543D01*
X0126156Y0181409D01*
X0125827Y0181189D01*
X0123229Y0178590D01*
X0123009Y0178262D01*
X0122961Y0178023D01*
X0122902Y0177887D01*
X0122901Y0177844D01*
X0122164D01*
Y0174676D01*
X0125726D01*
Y0177844D01*
X0125726D01*
X0125615Y0178112D01*
X0126963Y0179459D01*
X0127735D01*
X0127927Y0178997D01*
X0127520Y0178590D01*
X0127300Y0178262D01*
X0127253Y0178023D01*
X0127193Y0177887D01*
X0127192Y0177844D01*
X0126455D01*
Y0174676D01*
X0130017D01*
Y0175480D01*
X0130517Y0175632D01*
X0130598Y0175511D01*
X0135232Y0170878D01*
X0132770Y0168416D01*
X0132708Y0168391D01*
X0132636Y0168320D01*
X0132517Y0168210D01*
X0132429Y0168139D01*
X0132413Y0168127D01*
X0132410Y0168125D01*
X0132395Y0168118D01*
X0132392Y0168114D01*
X0132385Y0168110D01*
X0132382Y0168106D01*
X0131988Y0168028D01*
X0131655Y0167805D01*
X0131650Y0167806D01*
X0131641Y0167804D01*
X0131636Y0167804D01*
X0131621Y0167799D01*
X0131617Y0167798D01*
X0131609Y0167796D01*
X0131314Y0167776D01*
X0131223Y0167775D01*
X0131161Y0167749D01*
X0130283D01*
X0130283Y0167749D01*
X0129819Y0167657D01*
X0129425Y0167394D01*
X0129425Y0167394D01*
X0129324Y0167293D01*
X0127676D01*
Y0163731D01*
X0130479D01*
X0130905Y0163562D01*
X0131001Y0163296D01*
X0131075Y0162925D01*
X0131425Y0162401D01*
X0131949Y0162051D01*
X0132567Y0161928D01*
X0132884Y0161991D01*
X0133384Y0161628D01*
Y0161036D01*
X0133364Y0161007D01*
X0133384Y0160883D01*
Y0160798D01*
X0133370Y0160774D01*
X0133339Y0160728D01*
X0133199Y0160561D01*
X0133104Y0160462D01*
X0133075Y0160389D01*
X0132738Y0160052D01*
X0119663D01*
X0119596Y0160083D01*
X0119537Y0160085D01*
X0119508Y0160089D01*
X0119479Y0160096D01*
X0119448Y0160106D01*
X0119416Y0160119D01*
X0119381Y0160138D01*
X0119342Y0160162D01*
X0119300Y0160193D01*
X0119254Y0160231D01*
X0119192Y0160291D01*
X0119112Y0160322D01*
X0118658Y0160626D01*
X0118563Y0160645D01*
X0118399Y0161188D01*
X0123277Y0166066D01*
X0123739Y0165874D01*
Y0163731D01*
X0123739Y0163731D01*
X0123739Y0163731D01*
X0123959Y0163309D01*
X0123998Y0163231D01*
X0123830Y0162980D01*
X0123707Y0162362D01*
X0123830Y0161744D01*
X0124181Y0161220D01*
X0124705Y0160870D01*
X0125323Y0160747D01*
X0125941Y0160870D01*
X0126465Y0161220D01*
X0126815Y0161744D01*
X0126938Y0162362D01*
X0126815Y0162980D01*
X0126648Y0163231D01*
X0126687Y0163309D01*
X0126907Y0163731D01*
X0126907Y0163731D01*
X0126907Y0163731D01*
Y0167293D01*
X0125157D01*
X0124966Y0167755D01*
X0127635Y0170424D01*
X0127705Y0170450D01*
X0127912Y0170641D01*
X0127978Y0170694D01*
X0128034Y0170733D01*
X0128044Y0170739D01*
X0128211D01*
X0128261Y0170730D01*
X0128273Y0170739D01*
X0130017D01*
Y0173907D01*
X0126455D01*
Y0172058D01*
X0126303Y0171877D01*
X0126226Y0171825D01*
X0125726Y0172080D01*
Y0173907D01*
X0122164D01*
Y0170739D01*
X0122639D01*
X0122846Y0170239D01*
X0121399Y0168792D01*
X0120860Y0168960D01*
X0120560Y0169410D01*
X0120036Y0169760D01*
X0119417Y0169883D01*
X0118799Y0169760D01*
X0118275Y0169410D01*
X0117925Y0168886D01*
X0117818Y0168350D01*
X0117784Y0168271D01*
X0117782Y0168185D01*
X0117777Y0168125D01*
X0117769Y0168074D01*
X0117759Y0168029D01*
X0117747Y0167991D01*
X0117734Y0167958D01*
X0117719Y0167930D01*
X0117703Y0167905D01*
X0117686Y0167882D01*
X0117646Y0167838D01*
X0117621Y0167769D01*
X0111951Y0162099D01*
X0109181D01*
Y0163399D01*
X0109504Y0163614D01*
X0109723Y0163943D01*
X0109801Y0164331D01*
X0109801Y0166693D01*
X0109800Y0183003D01*
X0218798Y0183003D01*
D02*
G37*
G36*
X0134648Y0159815D02*
X0134610Y0159858D01*
X0134562Y0159882D01*
X0134503Y0159887D01*
X0134434Y0159873D01*
X0134354Y0159840D01*
X0134264Y0159788D01*
X0134164Y0159717D01*
X0134053Y0159627D01*
X0133799Y0159391D01*
X0133572Y0160012D01*
X0133682Y0160126D01*
X0133857Y0160335D01*
X0133922Y0160430D01*
X0133972Y0160518D01*
X0134007Y0160599D01*
X0134027Y0160674D01*
X0134031Y0160743D01*
X0134021Y0160805D01*
X0133996Y0160861D01*
X0134648Y0159815D01*
D02*
G37*
G36*
X0089553Y0160592D02*
X0089562Y0160495D01*
X0089577Y0160410D01*
X0089597Y0160336D01*
X0089624Y0160274D01*
X0089657Y0160223D01*
X0089695Y0160184D01*
X0089740Y0160157D01*
X0089790Y0160141D01*
X0089846Y0160137D01*
X0088753Y0159643D01*
X0088790Y0159689D01*
X0088824Y0159742D01*
X0088853Y0159802D01*
X0088879Y0159870D01*
X0088901Y0159944D01*
X0088918Y0160025D01*
X0088932Y0160114D01*
X0088948Y0160312D01*
X0088950Y0160422D01*
X0089550Y0160700D01*
X0089553Y0160592D01*
D02*
G37*
G36*
X0118819Y0159749D02*
X0118897Y0159683D01*
X0118977Y0159625D01*
X0119057Y0159574D01*
X0119139Y0159531D01*
X0119222Y0159496D01*
X0119307Y0159469D01*
X0119392Y0159449D01*
X0119479Y0159438D01*
X0119567Y0159434D01*
Y0158834D01*
X0119479Y0158830D01*
X0119392Y0158818D01*
X0119307Y0158799D01*
X0119222Y0158772D01*
X0119139Y0158737D01*
X0119057Y0158694D01*
X0118977Y0158643D01*
X0118897Y0158585D01*
X0118819Y0158519D01*
X0118742Y0158445D01*
Y0159823D01*
X0118819Y0159749D01*
D02*
G37*
G36*
X0096452Y0158578D02*
X0096470Y0158526D01*
X0096500Y0158480D01*
X0096542Y0158441D01*
X0096594Y0158407D01*
X0096658Y0158380D01*
X0096733Y0158359D01*
X0096819Y0158344D01*
X0096916Y0158335D01*
X0097025Y0158332D01*
X0096791Y0157731D01*
X0096682Y0157729D01*
X0096484Y0157712D01*
X0096396Y0157697D01*
X0096315Y0157677D01*
X0096242Y0157653D01*
X0096175Y0157624D01*
X0096116Y0157592D01*
X0096064Y0157555D01*
X0096019Y0157513D01*
X0096444Y0158635D01*
X0096452Y0158578D01*
D02*
G37*
G36*
X0179220Y0158268D02*
X0180087Y0157402D01*
X0180638Y0157402D01*
X0180638Y0156850D01*
X0180638Y0156220D01*
X0178276Y0156220D01*
X0176858Y0157638D01*
X0176858Y0160945D01*
X0179220D01*
X0179220Y0158268D01*
D02*
G37*
G36*
X0157496Y0157118D02*
X0157555Y0157087D01*
X0157653Y0157059D01*
X0157791Y0157035D01*
X0157968Y0157015D01*
X0158736Y0156976D01*
X0159445Y0156968D01*
Y0155000D01*
X0159071Y0154998D01*
X0157653Y0154909D01*
X0157555Y0154882D01*
X0157496Y0154850D01*
X0157476Y0154815D01*
Y0157153D01*
X0157496Y0157118D01*
D02*
G37*
G36*
X0201819Y0156220D02*
X0201699D01*
X0201657Y0155297D01*
X0201642Y0153791D01*
X0198689D01*
X0198683Y0156220D01*
X0188709D01*
Y0159370D01*
X0190008Y0160669D01*
X0201819D01*
Y0156220D01*
D02*
G37*
G36*
X0096427Y0153860D02*
X0096456Y0153807D01*
X0096494Y0153760D01*
X0096543Y0153719D01*
X0096602Y0153685D01*
X0096670Y0153657D01*
X0096749Y0153635D01*
X0096838Y0153620D01*
X0096936Y0153610D01*
X0097045Y0153607D01*
X0096934Y0153007D01*
X0096825Y0153004D01*
X0096724Y0152996D01*
X0096631Y0152983D01*
X0096545Y0152964D01*
X0096467Y0152940D01*
X0096397Y0152910D01*
X0096335Y0152875D01*
X0096281Y0152835D01*
X0096234Y0152789D01*
X0096195Y0152738D01*
X0096408Y0153919D01*
X0096427Y0153860D01*
D02*
G37*
G36*
X0088584Y0152738D02*
X0088545Y0152789D01*
X0088499Y0152835D01*
X0088444Y0152875D01*
X0088382Y0152910D01*
X0088312Y0152940D01*
X0088235Y0152964D01*
X0088149Y0152983D01*
X0088055Y0152996D01*
X0087954Y0153004D01*
X0087845Y0153007D01*
X0087735Y0153607D01*
X0087843Y0153610D01*
X0087942Y0153620D01*
X0088030Y0153635D01*
X0088109Y0153657D01*
X0088178Y0153685D01*
X0088236Y0153719D01*
X0088285Y0153760D01*
X0088324Y0153807D01*
X0088353Y0153860D01*
X0088371Y0153919D01*
X0088584Y0152738D01*
D02*
G37*
G36*
X0086339Y0153922D02*
X0086417Y0153856D01*
X0086496Y0153798D01*
X0086577Y0153747D01*
X0086659Y0153704D01*
X0086742Y0153669D01*
X0086826Y0153642D01*
X0086912Y0153623D01*
X0086999Y0153611D01*
X0087087Y0153607D01*
Y0153007D01*
X0086999Y0153003D01*
X0086912Y0152991D01*
X0086826Y0152972D01*
X0086742Y0152945D01*
X0086659Y0152910D01*
X0086577Y0152867D01*
X0086496Y0152816D01*
X0086417Y0152758D01*
X0086339Y0152692D01*
X0086262Y0152618D01*
Y0153996D01*
X0086339Y0153922D01*
D02*
G37*
G36*
X0119804Y0153704D02*
X0119877Y0153584D01*
X0119981Y0153477D01*
X0120115Y0153385D01*
X0120281Y0153307D01*
X0120478Y0153243D01*
X0120706Y0153194D01*
X0120966Y0153158D01*
X0121256Y0153137D01*
X0121577Y0153130D01*
X0121076Y0150177D01*
X0117653Y0150463D01*
X0119763Y0153839D01*
X0119804Y0153704D01*
D02*
G37*
G36*
X0185184Y0150867D02*
X0185217Y0150850D01*
X0185261Y0150836D01*
X0185314Y0150823D01*
X0185376Y0150812D01*
X0185531Y0150796D01*
X0185723Y0150788D01*
X0185834Y0150787D01*
Y0149606D01*
X0185723Y0149605D01*
X0185376Y0149582D01*
X0185314Y0149571D01*
X0185261Y0149558D01*
X0185217Y0149543D01*
X0185184Y0149527D01*
X0185159Y0149508D01*
Y0150886D01*
X0185184Y0150867D01*
D02*
G37*
G36*
X0183754Y0149508D02*
X0183730Y0149527D01*
X0183696Y0149543D01*
X0183652Y0149558D01*
X0183599Y0149571D01*
X0183537Y0149582D01*
X0183382Y0149597D01*
X0183189Y0149605D01*
X0183079Y0149606D01*
Y0150787D01*
X0183189Y0150788D01*
X0183537Y0150812D01*
X0183599Y0150823D01*
X0183652Y0150836D01*
X0183696Y0150850D01*
X0183730Y0150867D01*
X0183754Y0150886D01*
Y0149508D01*
D02*
G37*
G36*
X0096354Y0149126D02*
X0096392Y0149075D01*
X0096439Y0149030D01*
X0096495Y0148991D01*
X0096560Y0148958D01*
X0096633Y0148931D01*
X0096716Y0148910D01*
X0096807Y0148895D01*
X0096907Y0148886D01*
X0097016Y0148883D01*
Y0148283D01*
X0096907Y0148280D01*
X0096807Y0148271D01*
X0096716Y0148256D01*
X0096633Y0148235D01*
X0096560Y0148208D01*
X0096495Y0148175D01*
X0096439Y0148136D01*
X0096392Y0148091D01*
X0096354Y0148040D01*
X0096324Y0147983D01*
Y0149183D01*
X0096354Y0149126D01*
D02*
G37*
G36*
X0088363Y0147971D02*
X0088346Y0148030D01*
X0088319Y0148083D01*
X0088281Y0148130D01*
X0088234Y0148170D01*
X0088176Y0148205D01*
X0088108Y0148233D01*
X0088030Y0148255D01*
X0087942Y0148270D01*
X0087843Y0148280D01*
X0087735Y0148283D01*
X0087861Y0148883D01*
X0087971Y0148885D01*
X0088072Y0148893D01*
X0088166Y0148906D01*
X0088252Y0148925D01*
X0088330Y0148949D01*
X0088401Y0148977D01*
X0088464Y0149012D01*
X0088519Y0149051D01*
X0088566Y0149096D01*
X0088606Y0149146D01*
X0088363Y0147971D01*
D02*
G37*
G36*
X0086339Y0149198D02*
X0086417Y0149132D01*
X0086496Y0149073D01*
X0086577Y0149023D01*
X0086659Y0148980D01*
X0086742Y0148945D01*
X0086826Y0148918D01*
X0086912Y0148898D01*
X0086999Y0148887D01*
X0087087Y0148883D01*
Y0148283D01*
X0086999Y0148279D01*
X0086912Y0148267D01*
X0086826Y0148248D01*
X0086742Y0148220D01*
X0086659Y0148185D01*
X0086577Y0148143D01*
X0086496Y0148092D01*
X0086417Y0148034D01*
X0086339Y0147968D01*
X0086262Y0147894D01*
Y0149272D01*
X0086339Y0149198D01*
D02*
G37*
G36*
X0201605Y0146102D02*
X0201673Y0145114D01*
X0201704Y0144955D01*
X0201741Y0144832D01*
X0201784Y0144744D01*
X0201832Y0144691D01*
X0201886Y0144673D01*
X0198366D01*
X0198420Y0144691D01*
X0198468Y0144744D01*
X0198511Y0144832D01*
X0198548Y0144955D01*
X0198579Y0145114D01*
X0198604Y0145308D01*
X0198638Y0145802D01*
X0198650Y0146437D01*
X0201602D01*
X0201605Y0146102D01*
D02*
G37*
G36*
X0120662Y0143534D02*
X0120656Y0143591D01*
X0120637Y0143642D01*
X0120607Y0143687D01*
X0120564Y0143726D01*
X0120509Y0143759D01*
X0120441Y0143786D01*
X0120362Y0143807D01*
X0120270Y0143822D01*
X0120166Y0143831D01*
X0120050Y0143834D01*
Y0144434D01*
X0120166Y0144437D01*
X0120270Y0144446D01*
X0120362Y0144461D01*
X0120441Y0144482D01*
X0120509Y0144509D01*
X0120564Y0144542D01*
X0120607Y0144581D01*
X0120637Y0144626D01*
X0120656Y0144677D01*
X0120662Y0144734D01*
Y0143534D01*
D02*
G37*
G36*
X0181516Y0140406D02*
X0181504Y0140478D01*
X0181469Y0140543D01*
X0181410Y0140600D01*
X0181327Y0140650D01*
X0181221Y0140692D01*
X0181091Y0140726D01*
X0180937Y0140753D01*
X0180760Y0140772D01*
X0180472Y0140782D01*
X0180102Y0140750D01*
X0179949Y0140720D01*
X0179819Y0140682D01*
X0179712Y0140636D01*
X0179630Y0140581D01*
X0179571Y0140518D01*
X0179535Y0140446D01*
X0179523Y0140366D01*
Y0142311D01*
X0179535Y0142246D01*
X0179571Y0142188D01*
X0179630Y0142136D01*
X0179712Y0142092D01*
X0179819Y0142054D01*
X0179949Y0142023D01*
X0180102Y0141999D01*
X0180279Y0141982D01*
X0180567Y0141973D01*
X0180937Y0142003D01*
X0181091Y0142030D01*
X0181221Y0142064D01*
X0181327Y0142106D01*
X0181410Y0142156D01*
X0181469Y0142213D01*
X0181504Y0142278D01*
X0181516Y0142350D01*
Y0140406D01*
D02*
G37*
G36*
X0196000Y0144677D02*
X0196059Y0144646D01*
X0196157Y0144618D01*
X0196295Y0144594D01*
X0196472Y0144574D01*
X0197038Y0144545D01*
X0198288Y0144621D01*
X0198347Y0144645D01*
X0198366Y0144673D01*
X0198372Y0143207D01*
X0199405Y0144239D01*
X0199524Y0144123D01*
X0199843Y0143842D01*
X0199937Y0143772D01*
X0200106Y0143665D01*
X0200181Y0143629D01*
X0200249Y0143604D01*
X0200311Y0143591D01*
X0198661Y0141940D01*
X0198648Y0142003D01*
X0198623Y0142071D01*
X0198587Y0142146D01*
X0198539Y0142227D01*
X0198480Y0142315D01*
X0198375Y0142449D01*
X0198378Y0141575D01*
X0198358Y0141762D01*
X0198298Y0141929D01*
X0198198Y0142077D01*
X0198060Y0142205D01*
X0197881Y0142313D01*
X0197663Y0142402D01*
X0197406Y0142471D01*
X0197110Y0142520D01*
X0197054Y0142525D01*
X0196157Y0142469D01*
X0196059Y0142441D01*
X0196000Y0142409D01*
X0195980Y0142374D01*
Y0144712D01*
X0196000Y0144677D01*
D02*
G37*
G36*
X0185928Y0140632D02*
X0186358Y0140268D01*
X0186549Y0140135D01*
X0186724Y0140034D01*
X0186883Y0139965D01*
X0187026Y0139929D01*
X0187153Y0139925D01*
X0187264Y0139954D01*
X0187359Y0140015D01*
X0185603Y0138455D01*
X0185673Y0138542D01*
X0185708Y0138646D01*
X0185710Y0138768D01*
X0185677Y0138909D01*
X0185609Y0139067D01*
X0185507Y0139243D01*
X0185371Y0139436D01*
X0185200Y0139648D01*
X0184756Y0140126D01*
X0185689Y0140863D01*
X0185928Y0140632D01*
D02*
G37*
G36*
X0177197Y0136563D02*
X0177189Y0136610D01*
X0177163Y0136652D01*
X0177121Y0136689D01*
X0177061Y0136722D01*
X0176985Y0136749D01*
X0176891Y0136771D01*
X0176780Y0136789D01*
X0176653Y0136801D01*
X0176347Y0136811D01*
Y0137992D01*
X0176508Y0137995D01*
X0176780Y0138014D01*
X0176891Y0138032D01*
X0176985Y0138054D01*
X0177061Y0138082D01*
X0177121Y0138114D01*
X0177163Y0138151D01*
X0177189Y0138193D01*
X0177197Y0138240D01*
Y0136563D01*
D02*
G37*
G36*
X0201832Y0139549D02*
X0201784Y0139461D01*
X0201741Y0139313D01*
X0201704Y0139107D01*
X0201673Y0138841D01*
X0201628Y0138132D01*
X0201626Y0138035D01*
X0201741Y0136238D01*
X0201784Y0136090D01*
X0201832Y0136002D01*
X0201886Y0135972D01*
X0198366D01*
X0198420Y0136002D01*
X0198468Y0136090D01*
X0198511Y0136238D01*
X0198548Y0136445D01*
X0198579Y0136710D01*
X0198624Y0137419D01*
X0198626Y0137516D01*
X0198511Y0139313D01*
X0198468Y0139461D01*
X0198420Y0139549D01*
X0198366Y0139579D01*
X0201886D01*
X0201832Y0139549D01*
D02*
G37*
G36*
X0188474Y0136974D02*
X0188493Y0136973D01*
X0189063Y0136969D01*
Y0135787D01*
X0188467Y0135781D01*
Y0136975D01*
X0188474Y0136974D01*
D02*
G37*
G36*
X0183398Y0136473D02*
X0183331Y0136449D01*
X0183272Y0136409D01*
X0183221Y0136353D01*
X0183177Y0136281D01*
X0183142Y0136193D01*
X0183114Y0136089D01*
X0183095Y0135969D01*
X0183083Y0135833D01*
X0183079Y0135681D01*
X0182291D01*
X0182287Y0135833D01*
X0182276Y0135969D01*
X0182256Y0136089D01*
X0182228Y0136193D01*
X0182193Y0136281D01*
X0182150Y0136353D01*
X0182098Y0136409D01*
X0182039Y0136449D01*
X0181972Y0136473D01*
X0181898Y0136481D01*
X0183472D01*
X0183398Y0136473D01*
D02*
G37*
G36*
X0183083Y0135072D02*
X0183095Y0134936D01*
X0183114Y0134817D01*
X0183142Y0134713D01*
X0183177Y0134625D01*
X0183221Y0134553D01*
X0183272Y0134497D01*
X0183331Y0134457D01*
X0183398Y0134433D01*
X0183472Y0134425D01*
X0181898D01*
X0181972Y0134433D01*
X0182039Y0134457D01*
X0182098Y0134497D01*
X0182150Y0134553D01*
X0182193Y0134625D01*
X0182228Y0134713D01*
X0182256Y0134817D01*
X0182276Y0134936D01*
X0182287Y0135072D01*
X0182291Y0135224D01*
X0183079D01*
X0183083Y0135072D01*
D02*
G37*
G36*
X0159579Y0132794D02*
X0159591Y0132759D01*
X0159611Y0132718D01*
X0159639Y0132671D01*
X0159676Y0132619D01*
X0159774Y0132499D01*
X0159905Y0132357D01*
X0159983Y0132278D01*
X0159147Y0131443D01*
X0159068Y0131520D01*
X0158806Y0131749D01*
X0158754Y0131786D01*
X0158707Y0131814D01*
X0158666Y0131835D01*
X0158631Y0131847D01*
X0158600Y0131850D01*
X0159575Y0132825D01*
X0159579Y0132794D01*
D02*
G37*
G36*
X0188508Y0130536D02*
X0188408Y0130547D01*
X0188279Y0130518D01*
X0188121Y0130448D01*
X0187934Y0130338D01*
X0187719Y0130188D01*
X0187476Y0129998D01*
X0186903Y0129495D01*
X0186216Y0128832D01*
X0184824Y0130224D01*
X0185049Y0130455D01*
X0185529Y0131024D01*
X0185624Y0131171D01*
X0185685Y0131297D01*
X0185714Y0131402D01*
X0185710Y0131486D01*
X0185673Y0131549D01*
X0185603Y0131591D01*
X0188508Y0130536D01*
D02*
G37*
G36*
X0177028Y0130117D02*
X0177580Y0130145D01*
Y0128752D01*
X0177540Y0128772D01*
X0177464Y0128790D01*
X0177350Y0128806D01*
X0177028Y0128831D01*
Y0128280D01*
X0177016Y0128390D01*
X0176980Y0128488D01*
X0176921Y0128575D01*
X0176839Y0128650D01*
X0176733Y0128714D01*
X0176602Y0128766D01*
X0176449Y0128806D01*
X0176272Y0128835D01*
X0176129Y0128848D01*
X0175520Y0128858D01*
Y0130039D01*
X0176410Y0130085D01*
X0176449Y0130091D01*
X0176602Y0130132D01*
X0176733Y0130184D01*
X0176839Y0130248D01*
X0176921Y0130323D01*
X0176980Y0130410D01*
X0177016Y0130508D01*
X0177028Y0130618D01*
Y0130117D01*
D02*
G37*
G36*
X0179543Y0130598D02*
X0179602Y0130580D01*
X0179701Y0130564D01*
X0179838Y0130550D01*
X0180488Y0130521D01*
X0181492Y0130512D01*
Y0128543D01*
X0181118Y0128541D01*
X0179838Y0128448D01*
X0179701Y0128414D01*
X0179602Y0128375D01*
X0179543Y0128330D01*
X0179523Y0128280D01*
Y0130618D01*
X0179543Y0130598D01*
D02*
G37*
G36*
X0194817Y0127283D02*
X0194835Y0127083D01*
X0194864Y0126905D01*
X0194905Y0126752D01*
X0194959Y0126622D01*
X0195024Y0126516D01*
X0195100Y0126433D01*
X0195189Y0126374D01*
X0195289Y0126338D01*
X0195402Y0126327D01*
X0193039D01*
X0193152Y0126338D01*
X0193252Y0126374D01*
X0193341Y0126433D01*
X0193417Y0126516D01*
X0193482Y0126622D01*
X0193535Y0126752D01*
X0193577Y0126905D01*
X0193606Y0127083D01*
X0193624Y0127283D01*
X0193630Y0127508D01*
X0194811D01*
X0194817Y0127283D01*
D02*
G37*
G36*
X0206425Y0126575D02*
X0206425Y0126142D01*
X0199339D01*
Y0127874D01*
X0198354Y0128858D01*
Y0131102D01*
X0201898D01*
X0206425Y0126575D01*
D02*
G37*
%LPC*%
G36*
X0183984Y0160158D02*
X0182409D01*
Y0159370D01*
X0183984D01*
Y0160158D01*
D02*
G37*
G36*
X0210378Y0144465D02*
X0208394D01*
Y0141693D01*
X0210378D01*
Y0144465D01*
D02*
G37*
G36*
X0206819D02*
X0204835D01*
Y0141693D01*
X0206819D01*
Y0144465D01*
D02*
G37*
G36*
X0210378Y0140118D02*
X0208394D01*
Y0137346D01*
X0210378D01*
Y0140118D01*
D02*
G37*
G36*
X0206819D02*
X0204835D01*
Y0137346D01*
X0206819D01*
Y0140118D01*
D02*
G37*
G36*
X0210378Y0135764D02*
X0208394D01*
Y0132992D01*
X0210378D01*
Y0135764D01*
D02*
G37*
G36*
X0206819D02*
X0204835D01*
Y0132992D01*
X0206819D01*
Y0135764D01*
D02*
G37*
G36*
X0210378Y0131417D02*
X0208394D01*
Y0128646D01*
X0210378D01*
Y0131417D01*
D02*
G37*
G36*
X0143157Y0166811D02*
X0141764D01*
Y0165339D01*
X0143157D01*
Y0166811D01*
D02*
G37*
G36*
X0139881Y0162803D02*
X0139837Y0162785D01*
X0139791Y0162797D01*
X0139737Y0162765D01*
X0137321D01*
Y0159203D01*
X0140490D01*
Y0159273D01*
X0140638Y0159399D01*
X0140990Y0159589D01*
X0141504Y0159487D01*
X0142122Y0159610D01*
X0142646Y0159960D01*
X0142996Y0160484D01*
X0143119Y0161102D01*
X0142996Y0161721D01*
X0142646Y0162244D01*
X0142122Y0162595D01*
X0141504Y0162718D01*
X0140990Y0162615D01*
X0140490Y0162765D01*
Y0162765D01*
X0139970D01*
X0139881Y0162803D01*
D02*
G37*
G36*
X0140677Y0148308D02*
X0140059Y0148185D01*
X0139535Y0147835D01*
X0139185Y0147311D01*
X0139062Y0146693D01*
X0139185Y0146075D01*
X0139456Y0145669D01*
X0139310Y0145264D01*
X0139235Y0145169D01*
X0133113D01*
X0133053Y0145196D01*
X0132871Y0145203D01*
X0132819Y0145209D01*
X0132772Y0145216D01*
X0132738Y0145224D01*
X0132717Y0145231D01*
X0132712Y0145233D01*
X0132696Y0145244D01*
X0132687Y0145246D01*
X0132681Y0145248D01*
X0132667Y0145250D01*
X0132655Y0145252D01*
X0132635Y0145259D01*
X0132204Y0145547D01*
X0131585Y0145670D01*
X0130967Y0145547D01*
X0130667Y0145347D01*
X0130609Y0145332D01*
X0130582Y0145328D01*
X0130579Y0145328D01*
X0130578Y0145327D01*
X0130570Y0145326D01*
X0130554Y0145317D01*
X0130547Y0145316D01*
X0130543Y0145312D01*
X0130535Y0145309D01*
X0130508Y0145302D01*
X0130467Y0145294D01*
X0130422Y0145288D01*
X0130271Y0145277D01*
X0130183Y0145275D01*
X0130118Y0145247D01*
X0127595D01*
X0127533Y0145275D01*
X0127366Y0145280D01*
X0127243Y0145290D01*
X0127152Y0145306D01*
X0127143Y0145308D01*
Y0145915D01*
X0123975D01*
Y0142353D01*
X0127143D01*
Y0142960D01*
X0127152Y0142962D01*
X0127243Y0142977D01*
X0127366Y0142988D01*
X0127533Y0142992D01*
X0127595Y0143020D01*
X0129994D01*
X0130042Y0142995D01*
X0130066Y0143002D01*
X0130088Y0142992D01*
X0130179Y0142991D01*
X0130246Y0142986D01*
X0130300Y0142980D01*
X0130342Y0142972D01*
X0130370Y0142965D01*
X0130381Y0142961D01*
X0130390Y0142954D01*
X0130398Y0142952D01*
X0130410Y0142945D01*
X0130423Y0142943D01*
X0130443Y0142913D01*
X0130967Y0142563D01*
X0131585Y0142440D01*
X0132204Y0142563D01*
X0132635Y0142851D01*
X0132655Y0142858D01*
X0132667Y0142861D01*
X0132681Y0142862D01*
X0132687Y0142865D01*
X0132696Y0142867D01*
X0132712Y0142878D01*
X0132717Y0142879D01*
X0132738Y0142886D01*
X0132772Y0142894D01*
X0132811Y0142900D01*
X0132955Y0142912D01*
X0133040Y0142914D01*
X0133105Y0142942D01*
X0140491D01*
X0144536Y0138898D01*
X0144897Y0138656D01*
X0145323Y0138572D01*
X0151314D01*
X0151374Y0138544D01*
X0151557Y0138537D01*
X0151609Y0138531D01*
X0151656Y0138524D01*
X0151690Y0138516D01*
X0151711Y0138509D01*
X0151716Y0138507D01*
X0151732Y0138496D01*
X0151741Y0138495D01*
X0151746Y0138492D01*
X0151761Y0138490D01*
X0151773Y0138488D01*
X0151792Y0138481D01*
X0152224Y0138193D01*
X0152842Y0138070D01*
X0153461Y0138193D01*
X0153984Y0138543D01*
X0154335Y0139067D01*
X0154458Y0139685D01*
X0154335Y0140303D01*
X0154105Y0140647D01*
X0153945Y0141141D01*
X0154296Y0141665D01*
X0154418Y0142283D01*
X0154296Y0142902D01*
X0153945Y0143426D01*
X0153421Y0143776D01*
X0152803Y0143899D01*
X0152185Y0143776D01*
X0151753Y0143487D01*
X0151734Y0143481D01*
X0151722Y0143478D01*
X0151707Y0143477D01*
X0151702Y0143474D01*
X0151693Y0143472D01*
X0151677Y0143461D01*
X0151672Y0143459D01*
X0151651Y0143453D01*
X0151617Y0143445D01*
X0151577Y0143438D01*
X0151433Y0143427D01*
X0151348Y0143425D01*
X0151284Y0143397D01*
X0145548D01*
X0142545Y0146400D01*
X0142522Y0146462D01*
X0142398Y0146596D01*
X0142365Y0146637D01*
X0142337Y0146675D01*
X0142319Y0146705D01*
X0142309Y0146724D01*
X0142308Y0146725D01*
X0142306Y0146729D01*
X0142303Y0146748D01*
X0142298Y0146756D01*
X0142296Y0146762D01*
X0142287Y0146773D01*
X0142280Y0146783D01*
X0142271Y0146802D01*
X0142169Y0147311D01*
X0141819Y0147835D01*
X0141295Y0148185D01*
X0140677Y0148308D01*
D02*
G37*
G36*
X0136402Y0141846D02*
X0134968D01*
Y0140512D01*
X0136402D01*
Y0141846D01*
D02*
G37*
G36*
X0129063D02*
X0127630D01*
Y0140512D01*
X0129063D01*
Y0141846D01*
D02*
G37*
G36*
X0123165Y0140134D02*
X0118622D01*
Y0137854D01*
X0123165D01*
Y0140134D01*
D02*
G37*
G36*
X0117047D02*
X0112504D01*
Y0137854D01*
X0117047D01*
Y0140134D01*
D02*
G37*
G36*
X0156504Y0138751D02*
X0156078Y0138667D01*
X0155717Y0138425D01*
X0155717Y0138425D01*
X0150756Y0133465D01*
X0150515Y0133103D01*
X0150430Y0132677D01*
Y0129201D01*
X0149339Y0128110D01*
X0149097Y0127749D01*
X0149037Y0127445D01*
X0148985Y0127328D01*
X0148980Y0127161D01*
X0148969Y0127039D01*
X0148954Y0126947D01*
X0148952Y0126939D01*
X0145983D01*
Y0123235D01*
X0145640Y0123023D01*
X0145372Y0123184D01*
Y0123277D01*
X0141992D01*
Y0123677D01*
X0140598D01*
Y0121417D01*
Y0119158D01*
X0141992D01*
Y0119557D01*
X0145372D01*
Y0119650D01*
X0145639Y0119811D01*
X0145983Y0119599D01*
Y0117865D01*
X0154269D01*
Y0126939D01*
X0151970D01*
X0151778Y0127401D01*
X0152331Y0127953D01*
X0152572Y0128314D01*
X0152657Y0128740D01*
X0152657Y0128740D01*
Y0132216D01*
X0156965Y0136524D01*
X0163169D01*
X0163219Y0136474D01*
X0163242Y0136412D01*
X0163366Y0136278D01*
X0163399Y0136237D01*
X0163426Y0136199D01*
X0163445Y0136169D01*
X0163455Y0136150D01*
X0163456Y0136149D01*
X0163457Y0136145D01*
X0163461Y0136126D01*
X0163466Y0136118D01*
X0163468Y0136112D01*
X0163477Y0136101D01*
X0163484Y0136091D01*
X0163493Y0136072D01*
X0163594Y0135563D01*
X0163944Y0135039D01*
X0164469Y0134689D01*
X0165087Y0134566D01*
X0165705Y0134689D01*
X0166229Y0135039D01*
X0166579Y0135563D01*
X0166702Y0136181D01*
X0166579Y0136799D01*
X0166229Y0137323D01*
X0165705Y0137673D01*
X0165195Y0137775D01*
X0165177Y0137784D01*
X0165166Y0137791D01*
X0165155Y0137800D01*
X0165150Y0137802D01*
X0165142Y0137807D01*
X0165123Y0137810D01*
X0165118Y0137812D01*
X0165117Y0137813D01*
X0165099Y0137823D01*
X0165069Y0137841D01*
X0165037Y0137864D01*
X0164926Y0137958D01*
X0164865Y0138017D01*
X0164800Y0138043D01*
X0164417Y0138425D01*
X0164056Y0138667D01*
X0163630Y0138751D01*
X0156504D01*
X0156504Y0138751D01*
D02*
G37*
G36*
X0133394Y0141846D02*
X0130638D01*
Y0139724D01*
X0129850D01*
Y0138937D01*
X0127630D01*
Y0137602D01*
X0128030D01*
Y0136544D01*
X0127987Y0136480D01*
X0127834Y0135709D01*
Y0133969D01*
X0127477Y0133619D01*
X0127073Y0133626D01*
X0126444Y0133666D01*
X0126309Y0133681D01*
Y0133828D01*
X0125878Y0133840D01*
X0125784Y0133830D01*
X0125697Y0133866D01*
X0125606Y0133828D01*
X0123594D01*
X0123165Y0134000D01*
Y0136279D01*
X0117835D01*
X0112504D01*
Y0135000D01*
X0112488D01*
Y0127520D01*
X0112504D01*
Y0126240D01*
X0117835D01*
X0123165D01*
Y0128520D01*
X0123594Y0128691D01*
X0125546D01*
X0125593Y0128662D01*
X0125646Y0128675D01*
X0125697Y0128654D01*
X0125787Y0128691D01*
X0126309D01*
Y0129152D01*
X0126338Y0129199D01*
X0126345Y0129242D01*
X0126427Y0129291D01*
X0126589Y0129356D01*
X0126828Y0129419D01*
X0127129Y0129472D01*
X0127961Y0129539D01*
X0128464Y0129548D01*
X0128488Y0129558D01*
X0129575D01*
X0130347Y0129712D01*
X0130469Y0129794D01*
X0131907D01*
X0131907Y0129794D01*
X0132124D01*
Y0129794D01*
X0132407Y0129794D01*
X0133129D01*
X0133134Y0129790D01*
X0133274Y0129762D01*
X0133409Y0129672D01*
X0134181Y0129519D01*
X0134775Y0129637D01*
X0139693D01*
X0140465Y0129790D01*
X0140587Y0129872D01*
X0141553D01*
Y0130877D01*
X0141556Y0130882D01*
X0141710Y0131653D01*
X0141556Y0132425D01*
X0141553Y0132430D01*
Y0133152D01*
X0141553Y0133435D01*
X0141553D01*
Y0133652D01*
X0141553D01*
Y0134991D01*
X0141595Y0135055D01*
X0141749Y0135827D01*
X0141710Y0136025D01*
Y0138622D01*
X0141556Y0139394D01*
X0141119Y0140048D01*
X0140465Y0140485D01*
X0139693Y0140639D01*
X0138921Y0140485D01*
X0138267Y0140048D01*
X0137830Y0139394D01*
X0137676Y0138622D01*
Y0135827D01*
X0137830Y0135055D01*
X0137833Y0135050D01*
Y0133670D01*
X0136198D01*
Y0136024D01*
X0136044Y0136795D01*
X0136002Y0136859D01*
Y0137602D01*
X0136402D01*
Y0138937D01*
X0134181D01*
Y0139724D01*
X0133394D01*
Y0141846D01*
D02*
G37*
G36*
X0123165Y0124665D02*
X0118622D01*
Y0122386D01*
X0123165D01*
Y0124665D01*
D02*
G37*
G36*
X0117047D02*
X0112504D01*
Y0122386D01*
X0117047D01*
Y0124665D01*
D02*
G37*
G36*
X0139024Y0123677D02*
X0137630D01*
Y0122205D01*
X0139024D01*
Y0123677D01*
D02*
G37*
G36*
Y0120630D02*
X0137630D01*
Y0119158D01*
X0139024D01*
Y0120630D01*
D02*
G37*
%LPD*%
G36*
X0139890Y0162066D02*
X0139925Y0161988D01*
X0139984Y0161918D01*
X0140067Y0161859D01*
X0140173Y0161808D01*
X0140303Y0161767D01*
X0140456Y0161734D01*
X0140585Y0161718D01*
X0140647Y0161728D01*
X0140700Y0161741D01*
X0140743Y0161756D01*
X0140777Y0161773D01*
X0140801Y0161791D01*
Y0161700D01*
X0140834Y0161697D01*
X0141059Y0161693D01*
Y0160512D01*
X0140833Y0160506D01*
X0140801Y0160503D01*
Y0160413D01*
X0140777Y0160432D01*
X0140743Y0160449D01*
X0140700Y0160464D01*
X0140647Y0160476D01*
X0140604Y0160484D01*
X0140452Y0160459D01*
X0140297Y0160417D01*
X0140166Y0160364D01*
X0140058Y0160299D01*
X0139974Y0160222D01*
X0139915Y0160134D01*
X0139878Y0160034D01*
X0139866Y0159921D01*
X0139878Y0162153D01*
X0139890Y0162066D01*
D02*
G37*
G36*
X0141665Y0146627D02*
X0141676Y0146568D01*
X0141695Y0146508D01*
X0141721Y0146445D01*
X0141756Y0146380D01*
X0141798Y0146312D01*
X0141848Y0146243D01*
X0141906Y0146171D01*
X0142045Y0146021D01*
X0141349Y0145325D01*
X0141273Y0145398D01*
X0141127Y0145522D01*
X0141058Y0145572D01*
X0140990Y0145614D01*
X0140925Y0145649D01*
X0140862Y0145675D01*
X0140802Y0145694D01*
X0140743Y0145705D01*
X0140687Y0145709D01*
X0141661Y0146683D01*
X0141665Y0146627D01*
D02*
G37*
G36*
X0130830Y0143425D02*
X0130790Y0143466D01*
X0130743Y0143503D01*
X0130688Y0143535D01*
X0130626Y0143564D01*
X0130557Y0143587D01*
X0130481Y0143607D01*
X0130397Y0143622D01*
X0130306Y0143633D01*
X0130207Y0143640D01*
X0130102Y0143642D01*
X0130193Y0144626D01*
X0130299Y0144628D01*
X0130491Y0144641D01*
X0130576Y0144653D01*
X0130654Y0144669D01*
X0130725Y0144688D01*
X0130789Y0144710D01*
X0130847Y0144736D01*
X0130897Y0144765D01*
X0130940Y0144798D01*
X0130830Y0143425D01*
D02*
G37*
G36*
X0132331Y0144707D02*
X0132380Y0144673D01*
X0132436Y0144644D01*
X0132499Y0144618D01*
X0132570Y0144597D01*
X0132647Y0144579D01*
X0132732Y0144565D01*
X0132824Y0144555D01*
X0133028Y0144547D01*
Y0143563D01*
X0132922Y0143561D01*
X0132732Y0143545D01*
X0132647Y0143532D01*
X0132570Y0143514D01*
X0132499Y0143492D01*
X0132436Y0143466D01*
X0132380Y0143437D01*
X0132331Y0143403D01*
X0132288Y0143366D01*
Y0144744D01*
X0132331Y0144707D01*
D02*
G37*
G36*
X0126541Y0145025D02*
X0126571Y0144941D01*
X0126620Y0144867D01*
X0126689Y0144803D01*
X0126777Y0144749D01*
X0126886Y0144705D01*
X0127014Y0144670D01*
X0127161Y0144646D01*
X0127329Y0144631D01*
X0127516Y0144626D01*
Y0143642D01*
X0127329Y0143637D01*
X0127161Y0143622D01*
X0127014Y0143597D01*
X0126886Y0143563D01*
X0126777Y0143519D01*
X0126689Y0143465D01*
X0126620Y0143401D01*
X0126571Y0143327D01*
X0126541Y0143243D01*
X0126531Y0143150D01*
Y0145118D01*
X0126541Y0145025D01*
D02*
G37*
G36*
X0152100Y0141595D02*
X0152058Y0141632D01*
X0152009Y0141665D01*
X0151953Y0141695D01*
X0151889Y0141720D01*
X0151819Y0141742D01*
X0151741Y0141760D01*
X0151657Y0141774D01*
X0151565Y0141783D01*
X0151360Y0141791D01*
Y0142776D01*
X0151466Y0142778D01*
X0151657Y0142793D01*
X0151741Y0142807D01*
X0151819Y0142825D01*
X0151889Y0142847D01*
X0151953Y0142872D01*
X0152009Y0142902D01*
X0152058Y0142935D01*
X0152100Y0142972D01*
Y0141595D01*
D02*
G37*
G36*
X0152139Y0138996D02*
X0152097Y0139033D01*
X0152048Y0139067D01*
X0151992Y0139096D01*
X0151928Y0139122D01*
X0151858Y0139144D01*
X0151780Y0139161D01*
X0151696Y0139175D01*
X0151604Y0139185D01*
X0151399Y0139193D01*
Y0140177D01*
X0151505Y0140179D01*
X0151696Y0140195D01*
X0151780Y0140209D01*
X0151858Y0140226D01*
X0151928Y0140248D01*
X0151992Y0140274D01*
X0152048Y0140303D01*
X0152097Y0140337D01*
X0152139Y0140374D01*
Y0138996D01*
D02*
G37*
G36*
X0164490Y0137476D02*
X0164636Y0137352D01*
X0164706Y0137302D01*
X0164773Y0137260D01*
X0164839Y0137225D01*
X0164901Y0137199D01*
X0164962Y0137180D01*
X0165021Y0137169D01*
X0165077Y0137165D01*
X0164102Y0136191D01*
X0164099Y0136247D01*
X0164088Y0136306D01*
X0164069Y0136366D01*
X0164042Y0136429D01*
X0164008Y0136494D01*
X0163965Y0136562D01*
X0163915Y0136631D01*
X0163857Y0136703D01*
X0163718Y0136853D01*
X0164414Y0137549D01*
X0164490Y0137476D01*
D02*
G37*
G36*
X0150623Y0127124D02*
X0150638Y0126956D01*
X0150662Y0126809D01*
X0150697Y0126681D01*
X0150741Y0126573D01*
X0150795Y0126484D01*
X0150859Y0126415D01*
X0150933Y0126366D01*
X0151017Y0126336D01*
X0151110Y0126327D01*
X0149142D01*
X0149235Y0126336D01*
X0149319Y0126366D01*
X0149393Y0126415D01*
X0149457Y0126484D01*
X0149511Y0126573D01*
X0149555Y0126681D01*
X0149590Y0126809D01*
X0149614Y0126956D01*
X0149629Y0127124D01*
X0149634Y0127311D01*
X0150618D01*
X0150623Y0127124D01*
D02*
G37*
G36*
X0146607Y0120433D02*
X0146597Y0120527D01*
X0146567Y0120610D01*
X0146517Y0120684D01*
X0146447Y0120748D01*
X0146358Y0120802D01*
X0146248Y0120846D01*
X0146118Y0120881D01*
X0145969Y0120905D01*
X0145800Y0120920D01*
X0145678Y0120923D01*
X0145557Y0120920D01*
X0145390Y0120905D01*
X0145242Y0120881D01*
X0145114Y0120846D01*
X0145006Y0120802D01*
X0144917Y0120748D01*
X0144848Y0120684D01*
X0144799Y0120610D01*
X0144770Y0120527D01*
X0144760Y0120433D01*
Y0122402D01*
X0144770Y0122308D01*
X0144799Y0122224D01*
X0144848Y0122151D01*
X0144917Y0122087D01*
X0145006Y0122032D01*
X0145114Y0121988D01*
X0145242Y0121954D01*
X0145390Y0121929D01*
X0145557Y0121914D01*
X0145678Y0121911D01*
X0145800Y0121914D01*
X0145969Y0121929D01*
X0146118Y0121954D01*
X0146248Y0121988D01*
X0146358Y0122032D01*
X0146447Y0122087D01*
X0146517Y0122151D01*
X0146567Y0122224D01*
X0146597Y0122308D01*
X0146607Y0122402D01*
Y0120433D01*
D02*
G37*
G36*
X0125724Y0133166D02*
X0125807Y0133121D01*
X0125945Y0133082D01*
X0126138Y0133048D01*
X0126386Y0133019D01*
X0127047Y0132976D01*
X0128453Y0132953D01*
Y0130197D01*
X0127929Y0130188D01*
X0127047Y0130116D01*
X0126689Y0130054D01*
X0126386Y0129973D01*
X0126138Y0129875D01*
X0125945Y0129759D01*
X0125807Y0129625D01*
X0125724Y0129473D01*
X0125697Y0129303D01*
Y0133216D01*
X0125724Y0133166D01*
D02*
G37*
%LPC*%
G36*
X0116087Y0181079D02*
X0114299D01*
Y0179291D01*
X0116087D01*
Y0181079D01*
D02*
G37*
G36*
X0112724D02*
X0110937D01*
Y0179291D01*
X0112724D01*
Y0181079D01*
D02*
G37*
G36*
X0186386Y0181745D02*
X0185537Y0181576D01*
X0184818Y0181096D01*
X0184337Y0180376D01*
X0184168Y0179528D01*
X0184337Y0178679D01*
X0184818Y0177960D01*
X0185537Y0177479D01*
X0186386Y0177310D01*
X0187234Y0177479D01*
X0187954Y0177960D01*
X0188434Y0178679D01*
X0188603Y0179528D01*
X0188434Y0180376D01*
X0187954Y0181096D01*
X0187234Y0181576D01*
X0186386Y0181745D01*
D02*
G37*
G36*
X0116087Y0177717D02*
X0114299D01*
Y0175929D01*
X0116087D01*
Y0177717D01*
D02*
G37*
G36*
X0112724D02*
X0110937D01*
Y0175929D01*
X0112724D01*
Y0177717D01*
D02*
G37*
G36*
X0171110Y0177363D02*
X0170492Y0177240D01*
X0169968Y0176890D01*
X0169618Y0176366D01*
X0169540Y0175973D01*
X0169536Y0175970D01*
X0169531Y0175962D01*
X0169527Y0175959D01*
X0169520Y0175945D01*
X0169518Y0175942D01*
X0169513Y0175934D01*
X0169319Y0175712D01*
X0169255Y0175646D01*
X0169230Y0175584D01*
X0167102Y0173457D01*
X0166839Y0173063D01*
X0166747Y0172598D01*
X0166747Y0172598D01*
Y0166682D01*
X0166721Y0166625D01*
X0166713Y0166392D01*
X0166474Y0166270D01*
X0166008Y0166433D01*
Y0166433D01*
X0164811D01*
Y0164252D01*
Y0162071D01*
X0166008D01*
Y0162153D01*
X0166376Y0162471D01*
X0166508Y0162471D01*
X0169545D01*
Y0165270D01*
X0169574Y0165317D01*
X0169561Y0165370D01*
X0169582Y0165421D01*
X0169545Y0165512D01*
Y0166033D01*
X0169239D01*
X0169230Y0166082D01*
X0169204Y0166409D01*
X0169201Y0166613D01*
X0169175Y0166673D01*
Y0172096D01*
X0170947Y0173868D01*
X0171009Y0173893D01*
X0171081Y0173963D01*
X0171200Y0174074D01*
X0171288Y0174145D01*
X0171304Y0174156D01*
X0171307Y0174158D01*
X0171321Y0174165D01*
X0171325Y0174169D01*
X0171332Y0174174D01*
X0171335Y0174177D01*
X0171728Y0174256D01*
X0172252Y0174606D01*
X0172603Y0175130D01*
X0172725Y0175748D01*
X0172603Y0176366D01*
X0172252Y0176890D01*
X0171728Y0177240D01*
X0171110Y0177363D01*
D02*
G37*
G36*
X0115687Y0174380D02*
X0111337D01*
Y0170030D01*
X0112205D01*
X0112210Y0170018D01*
X0112232Y0169932D01*
X0112253Y0169809D01*
X0112267Y0169651D01*
X0112272Y0169444D01*
X0112298Y0169386D01*
Y0168925D01*
X0112272Y0168864D01*
X0112271Y0168764D01*
X0112264Y0168601D01*
X0112253Y0168489D01*
X0112250Y0168469D01*
X0112249Y0168466D01*
X0112243Y0168450D01*
X0112244Y0168445D01*
X0112242Y0168437D01*
X0112242Y0168432D01*
X0112020Y0168098D01*
X0111897Y0167480D01*
X0112020Y0166862D01*
X0112370Y0166338D01*
X0112894Y0165988D01*
X0113512Y0165865D01*
X0114130Y0165988D01*
X0114654Y0166338D01*
X0115004Y0166862D01*
X0115127Y0167480D01*
X0115004Y0168098D01*
X0114781Y0168432D01*
X0114782Y0168437D01*
X0114780Y0168445D01*
X0114780Y0168450D01*
X0114775Y0168465D01*
X0114774Y0168469D01*
X0114773Y0168478D01*
X0114753Y0168772D01*
X0114752Y0168864D01*
X0114726Y0168925D01*
Y0169386D01*
X0114752Y0169444D01*
X0114757Y0169651D01*
X0114771Y0169809D01*
X0114791Y0169932D01*
X0114814Y0170018D01*
X0114819Y0170030D01*
X0115687D01*
Y0174380D01*
D02*
G37*
G36*
X0163236Y0166433D02*
X0162039D01*
Y0166394D01*
X0160677D01*
Y0164134D01*
Y0161874D01*
X0162071D01*
Y0162071D01*
X0163236D01*
Y0164252D01*
Y0166433D01*
D02*
G37*
%LPD*%
G36*
X0171100Y0174764D02*
X0171070Y0174760D01*
X0171034Y0174748D01*
X0170993Y0174728D01*
X0170947Y0174699D01*
X0170895Y0174663D01*
X0170774Y0174565D01*
X0170633Y0174434D01*
X0170553Y0174356D01*
X0169718Y0175191D01*
X0169796Y0175270D01*
X0170025Y0175532D01*
X0170061Y0175584D01*
X0170090Y0175631D01*
X0170110Y0175672D01*
X0170122Y0175708D01*
X0170126Y0175738D01*
X0171100Y0174764D01*
D02*
G37*
G36*
X0168555Y0166378D02*
X0168586Y0166000D01*
X0168612Y0165846D01*
X0168647Y0165716D01*
X0168689Y0165610D01*
X0168738Y0165527D01*
X0168796Y0165468D01*
X0168860Y0165433D01*
X0168933Y0165421D01*
X0166988D01*
X0167061Y0165433D01*
X0167126Y0165468D01*
X0167183Y0165527D01*
X0167233Y0165610D01*
X0167275Y0165716D01*
X0167309Y0165846D01*
X0167336Y0166000D01*
X0167355Y0166177D01*
X0167370Y0166602D01*
X0168551D01*
X0168555Y0166378D01*
D02*
G37*
G36*
X0114581Y0170642D02*
X0114480Y0170606D01*
X0114392Y0170546D01*
X0114315Y0170463D01*
X0114250Y0170356D01*
X0114197Y0170224D01*
X0114155Y0170069D01*
X0114126Y0169890D01*
X0114108Y0169687D01*
X0114102Y0169461D01*
X0112921D01*
X0112915Y0169687D01*
X0112898Y0169890D01*
X0112868Y0170069D01*
X0112827Y0170224D01*
X0112774Y0170356D01*
X0112709Y0170463D01*
X0112632Y0170546D01*
X0112543Y0170606D01*
X0112443Y0170642D01*
X0112331Y0170654D01*
X0114693D01*
X0114581Y0170642D01*
D02*
G37*
G36*
X0114103Y0168747D02*
X0114127Y0168400D01*
X0114138Y0168338D01*
X0114151Y0168284D01*
X0114165Y0168241D01*
X0114182Y0168207D01*
X0114201Y0168183D01*
X0112823D01*
X0112841Y0168207D01*
X0112858Y0168241D01*
X0112873Y0168284D01*
X0112886Y0168338D01*
X0112897Y0168400D01*
X0112912Y0168554D01*
X0112920Y0168747D01*
X0112921Y0168858D01*
X0114102D01*
X0114103Y0168747D01*
D02*
G37*
G36*
X0163051Y0163465D02*
X0163043Y0163539D01*
X0163020Y0163606D01*
X0162980Y0163665D01*
X0162925Y0163716D01*
X0162855Y0163760D01*
X0162768Y0163795D01*
X0162665Y0163823D01*
X0162547Y0163842D01*
X0162414Y0163854D01*
X0162264Y0163858D01*
Y0164646D01*
X0162414Y0164650D01*
X0162547Y0164661D01*
X0162665Y0164681D01*
X0162768Y0164709D01*
X0162855Y0164744D01*
X0162925Y0164787D01*
X0162980Y0164839D01*
X0163020Y0164898D01*
X0163043Y0164965D01*
X0163051Y0165039D01*
Y0163465D01*
D02*
G37*
G36*
X0161055Y0164965D02*
X0161079Y0164898D01*
X0161119Y0164839D01*
X0161175Y0164787D01*
X0161247Y0164744D01*
X0161335Y0164709D01*
X0161439Y0164681D01*
X0161558Y0164661D01*
X0161694Y0164650D01*
X0161846Y0164646D01*
Y0163858D01*
X0161694Y0163854D01*
X0161558Y0163842D01*
X0161439Y0163823D01*
X0161335Y0163795D01*
X0161247Y0163760D01*
X0161175Y0163716D01*
X0161119Y0163665D01*
X0161079Y0163606D01*
X0161055Y0163539D01*
X0161047Y0163465D01*
Y0165039D01*
X0161055Y0164965D01*
D02*
G37*
D10*
X0145323Y0139685D02*
X0152842D01*
X0140953Y0144055D02*
X0145323Y0139685D01*
X0131585Y0144055D02*
X0140953D01*
X0145087Y0142283D02*
X0152803D01*
X0140677Y0146693D02*
X0145087Y0142283D01*
X0156504Y0137638D02*
X0163630D01*
X0151543Y0132677D02*
X0156504Y0137638D01*
X0151543Y0128740D02*
Y0132677D01*
X0131507Y0144134D02*
X0131585Y0144055D01*
X0125559Y0144134D02*
X0131507D01*
X0150126Y0127323D02*
X0151543Y0128740D01*
X0163630Y0137638D02*
X0165087Y0136181D01*
X0150126Y0122402D02*
Y0127323D01*
X0149142Y0121417D02*
X0150126Y0122402D01*
X0143591Y0121417D02*
X0149142D01*
X0167449Y0120630D02*
Y0124173D01*
X0185559Y0120630D02*
Y0124252D01*
Y0124835D02*
Y0125039D01*
D12*
X0159496Y0175354D02*
X0162764Y0178622D01*
X0138315Y0175354D02*
X0159496D01*
X0133197Y0180472D02*
X0138315Y0175354D01*
X0161425Y0173779D02*
X0166307Y0178661D01*
X0137921Y0173779D02*
X0161425D01*
X0132803Y0178898D02*
X0137921Y0173779D01*
X0126543Y0180472D02*
X0133197D01*
X0123945Y0177874D02*
X0126543Y0180472D01*
X0129260Y0178898D02*
X0132803D01*
X0128236Y0177874D02*
X0129260Y0178898D01*
X0128236Y0176260D02*
Y0177874D01*
X0089614Y0153307D02*
X0089890Y0153583D01*
X0089250Y0159222D02*
X0089890Y0158583D01*
X0094890D02*
X0095441Y0158031D01*
X0094890Y0153307D02*
Y0153583D01*
X0125323Y0162362D02*
Y0165512D01*
X0123945Y0176260D02*
Y0177874D01*
X0159890Y0159764D02*
Y0164134D01*
X0156228Y0159764D02*
X0159890D01*
Y0164134D02*
X0160008Y0164252D01*
X0164024D01*
X0178276Y0133228D02*
X0178512Y0133465D01*
X0182685D01*
Y0137441D01*
D13*
X0171740Y0166181D02*
X0178394Y0172835D01*
X0171583Y0166339D02*
X0171740Y0166181D01*
X0217645Y0149528D02*
Y0162048D01*
X0206858Y0172835D02*
X0217645Y0162048D01*
X0178394Y0172835D02*
X0206858D01*
X0206149Y0170551D02*
X0211071Y0165630D01*
X0180559Y0170551D02*
X0206149D01*
X0171819Y0166575D02*
X0172095D01*
X0171583Y0166339D02*
X0171819Y0166575D01*
X0132567Y0163543D02*
X0133630D01*
X0135874Y0165787D02*
X0138905D01*
X0133630Y0163543D02*
X0135874Y0165787D01*
X0179445Y0169437D02*
X0180559Y0170551D01*
X0179379Y0169437D02*
X0179445D01*
X0175571Y0165629D02*
X0179379Y0169437D01*
X0175571Y0165563D02*
Y0165629D01*
X0174594Y0164587D02*
X0175571Y0165563D01*
X0174594Y0164232D02*
Y0164587D01*
D17*
X0130126Y0131653D02*
D03*
X0133905D02*
D03*
X0139811Y0121417D02*
D03*
X0143591D02*
D03*
X0178039Y0162165D02*
D03*
X0181819D02*
D03*
X0147724Y0167598D02*
D03*
X0143945D02*
D03*
X0156110Y0164134D02*
D03*
X0159890D02*
D03*
D18*
X0139693Y0131653D02*
D03*
Y0135433D02*
D03*
X0178276Y0129449D02*
D03*
Y0133228D02*
D03*
X0156228Y0155984D02*
D03*
Y0159764D02*
D03*
D19*
X0134181Y0139724D02*
D03*
Y0136024D02*
D03*
X0129850Y0139724D02*
D03*
Y0136024D02*
D03*
D20*
X0121622Y0144134D02*
D03*
X0125559D02*
D03*
X0138906Y0160984D02*
D03*
X0134968D02*
D03*
X0129260Y0165512D02*
D03*
X0125323D02*
D03*
X0164024Y0164252D02*
D03*
X0167961D02*
D03*
X0195008Y0143543D02*
D03*
X0191071D02*
D03*
D21*
X0123740Y0131260D02*
D03*
D22*
X0117835Y0137067D02*
D03*
Y0125453D02*
D03*
D23*
X0128236Y0172323D02*
D03*
Y0176260D02*
D03*
X0123945Y0172323D02*
D03*
Y0176260D02*
D03*
X0182685Y0133465D02*
D03*
Y0129527D02*
D03*
X0178354Y0141339D02*
D03*
Y0137402D02*
D03*
X0182685Y0141378D02*
D03*
Y0137441D02*
D03*
X0151701Y0168071D02*
D03*
Y0164134D02*
D03*
D24*
X0150126Y0122402D02*
D03*
X0176898D02*
D03*
X0167449D02*
D03*
X0194220D02*
D03*
X0202882D02*
D03*
X0185559D02*
D03*
X0211543Y0122598D02*
D03*
X0158787Y0122402D02*
D03*
D26*
X0185953Y0155827D02*
D03*
D27*
X0190087Y0158780D02*
D03*
Y0156811D02*
D03*
Y0154842D02*
D03*
Y0152874D02*
D03*
X0181819D02*
D03*
Y0154842D02*
D03*
Y0156811D02*
D03*
Y0158780D02*
D03*
D28*
X0206150Y0158307D02*
D03*
X0200244D02*
D03*
D29*
X0200126Y0140905D02*
D03*
X0207606D02*
D03*
X0200126Y0132205D02*
D03*
X0207606D02*
D03*
D30*
X0195087Y0135276D02*
D03*
X0187449Y0131457D02*
D03*
Y0139094D02*
D03*
D31*
X0113512Y0172205D02*
D03*
Y0178504D02*
D03*
D52*
X0089890Y0158583D02*
D03*
X0094890D02*
D03*
X0089890Y0153583D02*
D03*
X0094890D02*
D03*
X0089890Y0148268D02*
D03*
X0094890Y0148583D02*
D03*
D53*
X0200126Y0148592D02*
Y0150748D01*
Y0146437D02*
Y0148592D01*
X0195293D02*
X0200126D01*
X0193709Y0147008D02*
X0195293Y0148592D01*
X0200126Y0142126D02*
Y0146437D01*
X0144496Y0151654D02*
X0149201Y0146949D01*
X0118512Y0151654D02*
X0144496D01*
X0116858Y0153307D02*
X0118512Y0151654D01*
X0149201Y0146949D02*
X0187692D01*
X0187711Y0146968D02*
X0189129D01*
X0187692Y0146949D02*
X0187711Y0146968D01*
X0189609Y0146988D02*
X0189629Y0147008D01*
X0189149Y0146988D02*
X0189609D01*
X0189129Y0146968D02*
X0189149Y0146988D01*
X0189629Y0147008D02*
X0193709D01*
X0200165Y0158228D02*
X0200244Y0158307D01*
X0200165Y0150787D02*
Y0158228D01*
X0200126Y0150748D02*
X0200165Y0150787D01*
X0200126Y0133425D02*
Y0142126D01*
D54*
X0134181Y0131653D02*
X0139693D01*
X0133905D02*
X0134181D01*
Y0136024D01*
Y0131535D02*
Y0131653D01*
X0139693Y0135827D02*
X0139732D01*
X0139693D02*
Y0138622D01*
X0129850Y0131850D02*
Y0135709D01*
X0123740Y0131575D02*
X0129575D01*
D55*
X0094890Y0153307D02*
X0104299D01*
X0114378Y0158465D02*
X0128236Y0172323D01*
X0118039Y0159134D02*
X0133118D01*
X0133197Y0159213D01*
X0105835Y0154842D02*
Y0157362D01*
X0104299Y0153307D02*
X0105835Y0154842D01*
X0106937Y0158465D02*
X0114378D01*
X0105835Y0157362D02*
X0106937Y0158465D01*
X0113787Y0159882D02*
X0123945Y0170039D01*
X0106268Y0159882D02*
X0113787D01*
X0104417Y0158031D02*
X0106268Y0159882D01*
X0100770Y0158031D02*
X0104417D01*
X0133197Y0159213D02*
X0134968Y0160984D01*
X0108905Y0144134D02*
X0121622D01*
X0104457Y0148583D02*
X0108905Y0144134D01*
X0100770Y0148583D02*
X0104457D01*
X0112331Y0161181D02*
X0119417Y0168268D01*
X0098158Y0161181D02*
X0112331D01*
X0123945Y0170039D02*
Y0172323D01*
X0085559Y0148583D02*
X0089575D01*
X0089890Y0148268D01*
Y0167480D02*
X0095795D01*
X0089250Y0166841D02*
X0089890Y0167480D01*
X0089250Y0159222D02*
Y0166841D01*
X0096976Y0162362D02*
X0098158Y0161181D01*
X0096976Y0162362D02*
Y0166299D01*
X0095795Y0167480D02*
X0096976Y0166299D01*
X0100770Y0148583D02*
X0100770Y0148583D01*
X0100770Y0158031D02*
X0100770Y0158031D01*
X0085559Y0153307D02*
X0089614D01*
X0095441Y0158031D02*
X0100770D01*
X0094890Y0148583D02*
X0100770D01*
D56*
X0136740Y0170669D02*
Y0171653D01*
X0132606Y0166535D02*
X0136740Y0170669D01*
X0130283Y0166535D02*
X0132606D01*
X0129260Y0165512D02*
X0130283Y0166535D01*
X0149181Y0170709D02*
X0151307D01*
X0113512Y0167480D02*
Y0172205D01*
X0138906Y0160984D02*
X0139024Y0161102D01*
X0141504D01*
X0151701Y0160984D02*
Y0164134D01*
X0151307Y0170709D02*
X0151701Y0170315D01*
Y0168071D02*
Y0170315D01*
X0167961Y0172598D02*
X0171110Y0175748D01*
X0167961Y0164252D02*
Y0172598D01*
X0184457Y0150197D02*
X0191327D01*
X0180283D02*
X0184457D01*
X0194220Y0122402D02*
Y0131339D01*
X0189181Y0136378D02*
X0194220Y0131339D01*
X0187685Y0136378D02*
X0189181D01*
X0174299Y0133976D02*
Y0135354D01*
X0176347Y0137402D01*
X0161976Y0129449D02*
X0178276D01*
X0158591Y0132835D02*
X0161976Y0129449D01*
X0191327Y0150197D02*
X0192842Y0151713D01*
Y0151751D01*
X0192961Y0151870D01*
Y0154095D01*
X0178866Y0151614D02*
X0180283Y0150197D01*
X0178866Y0156378D02*
Y0157165D01*
Y0151614D02*
Y0156378D01*
X0184339Y0141378D02*
X0186622Y0139094D01*
X0187449D01*
X0182685Y0141378D02*
X0184339D01*
X0176347Y0137402D02*
X0178354D01*
Y0141339D02*
X0178394Y0141378D01*
X0182685D01*
X0178866Y0156378D02*
X0178905Y0156417D01*
X0192213Y0154842D02*
X0192961Y0154095D01*
X0190087Y0154842D02*
X0192213D01*
X0151701Y0164134D02*
X0151701Y0164134D01*
X0156110D01*
D57*
X0147764Y0160354D02*
Y0170709D01*
X0149890Y0158228D02*
X0152252D01*
X0147764Y0160354D02*
X0149890Y0158228D01*
X0154496Y0155984D02*
X0156228D01*
X0152252Y0158228D02*
X0154496Y0155984D01*
X0136740Y0171653D02*
X0146819D01*
X0131740Y0176654D02*
X0136740Y0171653D01*
X0146819D02*
X0147764Y0170709D01*
X0149181D01*
X0195087Y0135709D02*
Y0137126D01*
X0191071Y0141142D02*
X0195087Y0137126D01*
X0191071Y0141142D02*
Y0143543D01*
X0198709D02*
X0200126Y0142126D01*
X0195008Y0143543D02*
X0198709D01*
X0178276Y0129449D02*
X0178354Y0129527D01*
X0182685D01*
X0174102Y0157559D02*
X0177961D01*
X0172528Y0155984D02*
X0174102Y0157559D01*
X0156228Y0155984D02*
X0172528D01*
X0182685Y0129527D02*
X0185520D01*
X0187134Y0131142D01*
X0199988Y0146299D02*
X0200126Y0146437D01*
D58*
X0180402Y0166969D02*
X0205362D01*
X0178039Y0162165D02*
Y0164606D01*
Y0161378D02*
Y0162165D01*
Y0164606D02*
X0180402Y0166969D01*
D59*
X0116858Y0153307D02*
D03*
X0215268Y0172992D02*
D03*
Y0133622D02*
D03*
X0079654Y0141496D02*
D03*
Y0165118D02*
D03*
D60*
X0186386Y0179528D02*
D03*
X0147016D02*
D03*
D61*
X0092390Y0163583D02*
D03*
X0096390Y0143583D02*
D03*
X0088390D02*
D03*
X0205362Y0166969D02*
D03*
D62*
X0165087Y0136181D02*
D03*
X0152803Y0142283D02*
D03*
X0152842Y0139685D02*
D03*
X0138905Y0165787D02*
D03*
X0174594Y0164232D02*
D03*
X0187685Y0161417D02*
D03*
X0170441Y0123937D02*
D03*
X0151701Y0160984D02*
D03*
X0169535Y0151299D02*
D03*
X0166307Y0178661D02*
D03*
X0159724Y0140197D02*
D03*
X0174537D02*
D03*
X0159890Y0159764D02*
D03*
X0164693Y0150315D02*
D03*
X0171110Y0175748D02*
D03*
X0169567Y0140197D02*
D03*
X0162764Y0178622D02*
D03*
X0159614Y0151457D02*
D03*
X0164646Y0140197D02*
D03*
X0173984Y0120512D02*
D03*
X0152252Y0158228D02*
D03*
X0174299Y0133976D02*
D03*
X0172095Y0166575D02*
D03*
X0183118Y0123386D02*
D03*
X0141504Y0161102D02*
D03*
X0169567Y0159882D02*
D03*
X0158591Y0132835D02*
D03*
X0140677Y0146693D02*
D03*
X0131585Y0144055D02*
D03*
X0124221Y0125906D02*
D03*
X0134181Y0141969D02*
D03*
X0137724Y0141417D02*
D03*
X0111150Y0141102D02*
D03*
X0118039Y0159134D02*
D03*
X0122252Y0162402D02*
D03*
X0153827Y0150276D02*
D03*
X0153905Y0153110D02*
D03*
X0174535Y0154134D02*
D03*
X0174496Y0150157D02*
D03*
X0202213Y0164134D02*
D03*
X0185126Y0163976D02*
D03*
X0210630Y0173228D02*
D03*
X0185039Y0161417D02*
D03*
X0171260Y0133858D02*
D03*
X0167323D02*
D03*
X0119102Y0147047D02*
D03*
X0116228D02*
D03*
X0113197Y0150315D02*
D03*
X0113276Y0147087D02*
D03*
X0110244Y0147126D02*
D03*
X0110284Y0150236D02*
D03*
X0110323Y0153386D02*
D03*
X0110362Y0156417D02*
D03*
X0113236Y0156378D02*
D03*
X0123787Y0157087D02*
D03*
X0128433Y0154882D02*
D03*
X0131583D02*
D03*
X0134732D02*
D03*
X0137921D02*
D03*
X0141071D02*
D03*
X0128197Y0161339D02*
D03*
X0131150D02*
D03*
X0118197Y0173543D02*
D03*
X0118236Y0176417D02*
D03*
X0118276Y0179291D02*
D03*
X0115362Y0182008D02*
D03*
X0118276D02*
D03*
X0121150D02*
D03*
X0124024D02*
D03*
X0135520D02*
D03*
X0138433D02*
D03*
X0141347D02*
D03*
X0144220Y0181968D02*
D03*
X0150008Y0181732D02*
D03*
X0152882D02*
D03*
X0155795D02*
D03*
X0158709D02*
D03*
X0161583D02*
D03*
X0164457D02*
D03*
X0167331D02*
D03*
X0173787Y0177913D02*
D03*
X0176661Y0177874D02*
D03*
X0179535Y0177835D02*
D03*
X0182409Y0177795D02*
D03*
X0170874Y0180945D02*
D03*
X0173748D02*
D03*
X0176622D02*
D03*
X0179496D02*
D03*
X0182370D02*
D03*
X0214693Y0177480D02*
D03*
X0211858D02*
D03*
X0209024D02*
D03*
X0206150D02*
D03*
X0203315D02*
D03*
X0200480D02*
D03*
X0197606D02*
D03*
X0191937Y0181024D02*
D03*
X0194811D02*
D03*
X0197685D02*
D03*
X0200559D02*
D03*
X0203433D02*
D03*
X0205953Y0181063D02*
D03*
X0208866D02*
D03*
X0211740D02*
D03*
X0214614D02*
D03*
X0217488D02*
D03*
Y0177520D02*
D03*
X0217646Y0166299D02*
D03*
X0208787Y0163937D02*
D03*
X0208827Y0161063D02*
D03*
X0208866Y0158189D02*
D03*
X0208827Y0155394D02*
D03*
X0216937Y0119882D02*
D03*
Y0122913D02*
D03*
X0216976Y0125866D02*
D03*
Y0128898D02*
D03*
X0156780Y0121181D02*
D03*
Y0123661D02*
D03*
X0156819Y0118543D02*
D03*
X0159457D02*
D03*
X0159417Y0121181D02*
D03*
X0159378Y0123622D02*
D03*
X0211071Y0165630D02*
D03*
X0113512Y0167480D02*
D03*
X0119417Y0168268D02*
D03*
X0085559Y0148583D02*
D03*
Y0153307D02*
D03*
X0125323Y0162362D02*
D03*
X0132567Y0163543D02*
D03*
X0132606Y0166535D02*
D03*
X0131740Y0176654D02*
D03*
X0149260Y0170748D02*
D03*
X0217645Y0149528D02*
D03*
X0184457Y0150197D02*
D03*
X0187685Y0136378D02*
D03*
X0143827Y0126929D02*
D03*
Y0124567D02*
D03*
X0141465Y0128347D02*
D03*
X0138906D02*
D03*
X0136346D02*
D03*
X0133787D02*
D03*
X0131228D02*
D03*
X0128669D02*
D03*
X0126110Y0127559D02*
D03*
X0124260Y0123386D02*
D03*
X0124142Y0120984D02*
D03*
X0123945Y0118661D02*
D03*
X0121386D02*
D03*
X0118827D02*
D03*
X0116268D02*
D03*
X0113709D02*
D03*
X0111150D02*
D03*
Y0121221D02*
D03*
Y0123779D02*
D03*
Y0126339D02*
D03*
Y0128898D02*
D03*
Y0131457D02*
D03*
Y0134016D02*
D03*
Y0136575D02*
D03*
X0113709Y0141102D02*
D03*
X0116268D02*
D03*
X0118827D02*
D03*
X0121386D02*
D03*
X0124142D02*
D03*
Y0138347D02*
D03*
Y0135984D02*
D03*
X0126701D02*
D03*
Y0138543D02*
D03*
Y0141102D02*
D03*
X0143630Y0129882D02*
D03*
X0146386D02*
D03*
X0148945D02*
D03*
D63*
X0139693Y0138622D02*
D03*
M02*
