G04*
G04 #@! TF.GenerationSoftware,Altium Limited,Altium Designer,19.1.5 (86)*
G04*
G04 Layer_Color=65535*
%FSAX25Y25*%
%MOIN*%
G70*
G01*
G75*
%ADD10C,0.00984*%
%ADD11C,0.00394*%
%ADD12C,0.00787*%
%ADD13C,0.01000*%
%ADD14C,0.01575*%
%ADD15C,0.00591*%
%ADD16R,0.27559X0.07087*%
D10*
X0190760Y0141024D02*
G03*
X0190760Y0141024I-0000492J0000000D01*
G01*
D11*
X0128177Y0133721D02*
X0135854D01*
Y0129587D02*
Y0133721D01*
X0128177Y0129587D02*
X0135854D01*
X0128177D02*
Y0133721D01*
X0137626Y0129705D02*
Y0137382D01*
X0141760D01*
Y0129705D02*
Y0137382D01*
X0137626Y0129705D02*
X0141760D01*
X0132213Y0141614D02*
X0136150D01*
X0132213Y0134134D02*
Y0141614D01*
Y0134134D02*
X0136150D01*
Y0141614D01*
X0127882D02*
X0131819D01*
X0127882Y0134134D02*
Y0141614D01*
Y0134134D02*
X0131819D01*
Y0141614D01*
X0119850Y0142165D02*
Y0146102D01*
Y0142165D02*
X0127331D01*
Y0146102D01*
X0119850D02*
X0127331D01*
X0140677Y0159016D02*
Y0162953D01*
X0133197D02*
X0140677D01*
X0133197Y0159016D02*
Y0162953D01*
Y0159016D02*
X0140677D01*
X0131032Y0163543D02*
Y0167480D01*
X0123551D02*
X0131032D01*
X0123551Y0163543D02*
Y0167480D01*
Y0163543D02*
X0131032D01*
X0126268Y0170551D02*
X0130205D01*
Y0178032D01*
X0126268D02*
X0130205D01*
X0126268Y0170551D02*
Y0178032D01*
X0121976Y0170551D02*
X0125913D01*
Y0178032D01*
X0121976D02*
X0125913D01*
X0121976Y0170551D02*
Y0178032D01*
X0137862Y0123484D02*
X0145539D01*
Y0119350D02*
Y0123484D01*
X0137862Y0119350D02*
X0145539D01*
X0137862D02*
Y0123484D01*
X0180717Y0135236D02*
X0184653D01*
X0180717Y0127756D02*
Y0135236D01*
Y0127756D02*
X0184653D01*
Y0135236D01*
X0162252Y0162284D02*
X0169732D01*
X0162252D02*
Y0166220D01*
X0169732D01*
Y0162284D02*
Y0166220D01*
X0182016Y0160059D02*
X0189890D01*
X0182016Y0151575D02*
X0189890Y0151594D01*
X0183768Y0160098D02*
Y0164232D01*
X0176091D02*
X0183768D01*
X0176091Y0160098D02*
Y0164232D01*
Y0160098D02*
X0183768D01*
X0189299Y0145512D02*
X0196780D01*
Y0141575D02*
Y0145512D01*
X0189299Y0141575D02*
X0196780D01*
X0189299D02*
Y0145512D01*
X0188807Y0129528D02*
X0196095D01*
X0188807Y0141024D02*
X0196095D01*
X0186346Y0133996D02*
Y0136555D01*
X0196095Y0137087D02*
Y0141024D01*
Y0129528D02*
Y0133465D01*
X0176386Y0135630D02*
Y0143110D01*
X0180323D01*
Y0135630D02*
Y0143110D01*
X0176386Y0135630D02*
X0180323D01*
X0180717Y0135669D02*
Y0143150D01*
X0184653D01*
Y0135669D02*
Y0143150D01*
X0180717Y0135669D02*
X0184653D01*
X0176209Y0135177D02*
X0180342D01*
X0176209Y0127500D02*
Y0135177D01*
Y0127500D02*
X0180342D01*
Y0135177D01*
X0154161Y0161713D02*
X0158295D01*
X0154161Y0154035D02*
Y0161713D01*
Y0154035D02*
X0158295D01*
Y0161713D01*
X0141996Y0165532D02*
Y0169665D01*
Y0165532D02*
X0149673D01*
Y0169665D01*
X0141996D02*
X0149673D01*
X0149732Y0162362D02*
Y0169843D01*
X0153669D01*
Y0162362D02*
Y0169843D01*
X0149732Y0162362D02*
X0153669D01*
X0161839Y0162067D02*
Y0166201D01*
X0154161D02*
X0161839D01*
X0154161Y0162067D02*
Y0166201D01*
Y0162067D02*
X0161839D01*
D12*
X0111929Y0124567D02*
X0112716D01*
X0111929D02*
Y0137953D01*
X0112716D01*
X0124134Y0124567D02*
Y0128504D01*
X0122953Y0124567D02*
X0124134D01*
X0122953Y0137953D02*
X0124134Y0137953D01*
Y0134016D02*
Y0137953D01*
X0197447Y0155557D02*
Y0161057D01*
Y0155557D02*
X0208947D01*
Y0161057D01*
X0197447D02*
X0208947D01*
X0210866Y0136906D02*
Y0144905D01*
X0196866Y0136906D02*
X0210866D01*
X0196866D02*
Y0144905D01*
X0210866D01*
Y0128205D02*
Y0136205D01*
X0196866Y0128205D02*
X0210866D01*
X0196866D02*
Y0136205D01*
X0210866D01*
X0110512Y0182354D02*
X0116512D01*
X0110512Y0181354D02*
X0116512D01*
Y0169354D02*
Y0182354D01*
X0110512Y0169354D02*
X0116512D01*
X0110512D02*
Y0182354D01*
D13*
X0085890Y0166083D02*
X0098890D01*
Y0141083D02*
Y0166083D01*
X0085890Y0141083D02*
X0098890D01*
X0085890D02*
Y0166083D01*
D14*
X0210361Y0155669D02*
Y0150422D01*
X0125191Y0156063D02*
Y0150815D01*
X0127815Y0153439D02*
X0122567D01*
D15*
X0184895Y0178402D02*
X0184436Y0178861D01*
X0183517D01*
X0183058Y0178402D01*
Y0177943D01*
X0183517Y0177484D01*
X0184436D01*
X0184895Y0177024D01*
Y0176565D01*
X0184436Y0176106D01*
X0183517D01*
X0183058Y0176565D01*
X0185813Y0176106D02*
Y0177943D01*
X0186272D01*
X0186732Y0177484D01*
Y0176106D01*
Y0177484D01*
X0187191Y0177943D01*
X0187650Y0177484D01*
Y0176106D01*
X0189027Y0177943D02*
X0189946D01*
X0190405Y0177484D01*
Y0176106D01*
X0189027D01*
X0188568Y0176565D01*
X0189027Y0177024D01*
X0190405D01*
X0191323Y0177943D02*
Y0176106D01*
Y0177024D01*
X0191782Y0177484D01*
X0192242Y0177943D01*
X0192701D01*
X0194537Y0178402D02*
Y0177943D01*
X0194078D01*
X0194997D01*
X0194537D01*
Y0176565D01*
X0194997Y0176106D01*
X0196374Y0175188D02*
Y0177943D01*
X0197752D01*
X0198211Y0177484D01*
Y0176565D01*
X0197752Y0176106D01*
X0196374D01*
X0199588Y0177943D02*
X0200507D01*
X0200966Y0177484D01*
Y0176106D01*
X0199588D01*
X0199129Y0176565D01*
X0199588Y0177024D01*
X0200966D01*
X0201884Y0177943D02*
Y0176106D01*
Y0177024D01*
X0202343Y0177484D01*
X0202802Y0177943D01*
X0203262D01*
X0204639Y0176106D02*
Y0178861D01*
Y0177024D02*
X0206017Y0177943D01*
X0204639Y0177024D02*
X0206017Y0176106D01*
X0207394D02*
X0208772D01*
X0209231Y0176565D01*
X0208772Y0177024D01*
X0207853D01*
X0207394Y0177484D01*
X0207853Y0177943D01*
X0209231D01*
X0183517Y0170465D02*
X0184436D01*
X0184895Y0170924D01*
Y0171842D01*
X0184436Y0172301D01*
X0183517D01*
X0183058Y0171842D01*
Y0170924D01*
X0183517Y0170465D01*
X0185813Y0169546D02*
Y0172301D01*
X0187191D01*
X0187650Y0171842D01*
Y0170924D01*
X0187191Y0170465D01*
X0185813D01*
X0189946D02*
X0189027D01*
X0188568Y0170924D01*
Y0171842D01*
X0189027Y0172301D01*
X0189946D01*
X0190405Y0171842D01*
Y0171383D01*
X0188568D01*
X0191323Y0170465D02*
Y0172301D01*
X0192701D01*
X0193160Y0171842D01*
Y0170465D01*
X0195915Y0172301D02*
X0194537D01*
X0194078Y0171842D01*
Y0170924D01*
X0194537Y0170465D01*
X0195915D01*
X0197292D02*
X0198211D01*
X0198670Y0170924D01*
Y0171842D01*
X0198211Y0172301D01*
X0197292D01*
X0196833Y0171842D01*
Y0170924D01*
X0197292Y0170465D01*
X0199588D02*
X0200507D01*
X0200047D01*
Y0173220D01*
X0199588D01*
X0201884Y0170465D02*
X0202802D01*
X0202343D01*
Y0173220D01*
X0201884D01*
X0204639Y0172301D02*
X0205557D01*
X0206017Y0171842D01*
Y0170465D01*
X0204639D01*
X0204180Y0170924D01*
X0204639Y0171383D01*
X0206017D01*
X0206935Y0172301D02*
Y0170465D01*
Y0171383D01*
X0207394Y0171842D01*
X0207853Y0172301D01*
X0208313D01*
X0209690Y0170465D02*
Y0170924D01*
X0210149D01*
Y0170465D01*
X0209690D01*
X0211986D02*
X0212904D01*
X0212445D01*
Y0172301D01*
X0211986D01*
X0214741Y0170465D02*
X0215659D01*
X0216118Y0170924D01*
Y0171842D01*
X0215659Y0172301D01*
X0214741D01*
X0214282Y0171842D01*
Y0170924D01*
X0214741Y0170465D01*
X0183058Y0164823D02*
Y0167578D01*
X0184436D01*
X0184895Y0167119D01*
Y0166200D01*
X0184436Y0165741D01*
X0183058D01*
X0183976D02*
X0184895Y0164823D01*
X0185813Y0167578D02*
Y0164823D01*
Y0166200D01*
X0186272Y0166659D01*
X0187191D01*
X0187650Y0166200D01*
Y0164823D01*
X0188568D02*
X0189487D01*
X0189027D01*
Y0166659D01*
X0188568D01*
X0190864Y0164823D02*
Y0166659D01*
X0192242D01*
X0192701Y0166200D01*
Y0164823D01*
X0194078D02*
X0194997D01*
X0195456Y0165282D01*
Y0166200D01*
X0194997Y0166659D01*
X0194078D01*
X0193619Y0166200D01*
Y0165282D01*
X0194078Y0164823D01*
X0199588Y0167119D02*
Y0166659D01*
X0199129D01*
X0200047D01*
X0199588D01*
Y0165282D01*
X0200047Y0164823D01*
X0201425Y0166659D02*
Y0164823D01*
Y0165741D01*
X0201884Y0166200D01*
X0202343Y0166659D01*
X0202802D01*
X0204639D02*
X0205557D01*
X0206017Y0166200D01*
Y0164823D01*
X0204639D01*
X0204180Y0165282D01*
X0204639Y0165741D01*
X0206017D01*
X0208772Y0166659D02*
X0207394D01*
X0206935Y0166200D01*
Y0165282D01*
X0207394Y0164823D01*
X0208772D01*
X0209690D02*
Y0167578D01*
Y0165741D02*
X0211068Y0166659D01*
X0209690Y0165741D02*
X0211068Y0164823D01*
X0213823D02*
X0212904D01*
X0212445Y0165282D01*
Y0166200D01*
X0212904Y0166659D01*
X0213823D01*
X0214282Y0166200D01*
Y0165741D01*
X0212445D01*
X0215200Y0166659D02*
Y0164823D01*
Y0165741D01*
X0215659Y0166200D01*
X0216118Y0166659D01*
X0216578D01*
X0080993Y0147874D02*
Y0148924D01*
Y0148399D01*
X0084142D01*
Y0147874D01*
Y0148924D01*
X0081518Y0152597D02*
X0080993Y0152072D01*
Y0151023D01*
X0081518Y0150498D01*
X0083617D01*
X0084142Y0151023D01*
Y0152072D01*
X0083617Y0152597D01*
X0081518Y0155745D02*
X0080993Y0155221D01*
Y0154171D01*
X0081518Y0153646D01*
X0082043D01*
X0082567Y0154171D01*
Y0155221D01*
X0083092Y0155745D01*
X0083617D01*
X0084142Y0155221D01*
Y0154171D01*
X0083617Y0153646D01*
X0084142Y0156795D02*
X0080993D01*
Y0158369D01*
X0081518Y0158894D01*
X0082567D01*
X0083092Y0158369D01*
Y0156795D01*
X0171713Y0174317D02*
X0171188Y0174841D01*
X0170139D01*
X0169614Y0174317D01*
Y0173792D01*
X0170139Y0173267D01*
X0171188D01*
X0171713Y0172742D01*
Y0172218D01*
X0171188Y0171693D01*
X0170139D01*
X0169614Y0172218D01*
X0172763Y0171693D02*
X0173812D01*
X0173287D01*
Y0174841D01*
X0172763Y0174317D01*
X0122173Y0162362D02*
X0119025D01*
Y0163936D01*
X0119549Y0164461D01*
X0120599D01*
X0121124Y0163936D01*
Y0162362D01*
Y0163412D02*
X0122173Y0164461D01*
Y0165511D02*
Y0166560D01*
Y0166036D01*
X0119025D01*
X0119549Y0165511D01*
X0122173Y0168135D02*
Y0169184D01*
Y0168659D01*
X0119025D01*
X0119549Y0168135D01*
X0119693Y0147047D02*
Y0150196D01*
X0121267D01*
X0121792Y0149671D01*
Y0148621D01*
X0121267Y0148097D01*
X0119693D01*
X0120742D02*
X0121792Y0147047D01*
X0122842D02*
X0123891D01*
X0123366D01*
Y0150196D01*
X0122842Y0149671D01*
X0127564Y0150196D02*
X0125465D01*
Y0148621D01*
X0126515Y0149146D01*
X0127040D01*
X0127564Y0148621D01*
Y0147572D01*
X0127040Y0147047D01*
X0125990D01*
X0125465Y0147572D01*
X0134772Y0170630D02*
X0131623D01*
Y0172204D01*
X0132148Y0172729D01*
X0133197D01*
X0133722Y0172204D01*
Y0170630D01*
Y0171679D02*
X0134772Y0172729D01*
Y0173778D02*
Y0174828D01*
Y0174303D01*
X0131623D01*
X0132148Y0173778D01*
X0134772Y0177977D02*
X0131623D01*
X0133197Y0176402D01*
Y0178501D01*
X0132803Y0164331D02*
Y0167479D01*
X0134377D01*
X0134902Y0166955D01*
Y0165905D01*
X0134377Y0165380D01*
X0132803D01*
X0133853D02*
X0134902Y0164331D01*
X0135952D02*
X0137001D01*
X0136477D01*
Y0167479D01*
X0135952Y0166955D01*
X0138576D02*
X0139100Y0167479D01*
X0140150D01*
X0140675Y0166955D01*
Y0166430D01*
X0140150Y0165905D01*
X0139625D01*
X0140150D01*
X0140675Y0165380D01*
Y0164856D01*
X0140150Y0164331D01*
X0139100D01*
X0138576Y0164856D01*
X0120992Y0170236D02*
X0117843D01*
Y0171810D01*
X0118368Y0172335D01*
X0119418D01*
X0119943Y0171810D01*
Y0170236D01*
Y0171286D02*
X0120992Y0172335D01*
Y0173385D02*
Y0174434D01*
Y0173910D01*
X0117843D01*
X0118368Y0173385D01*
Y0176009D02*
X0117843Y0176533D01*
Y0177583D01*
X0118368Y0178108D01*
X0120467D01*
X0120992Y0177583D01*
Y0176533D01*
X0120467Y0176009D01*
X0118368D01*
X0128355Y0142638D02*
X0131504D01*
Y0144737D01*
Y0147885D02*
Y0145786D01*
X0129405Y0147885D01*
X0128880D01*
X0128355Y0147361D01*
Y0146311D01*
X0128880Y0145786D01*
X0132411Y0142835D02*
X0135559D01*
Y0144934D01*
Y0145983D02*
Y0147033D01*
Y0146508D01*
X0132411D01*
X0132935Y0145983D01*
X0111439Y0142926D02*
X0110914Y0142401D01*
Y0141351D01*
X0111439Y0140827D01*
X0113538D01*
X0114063Y0141351D01*
Y0142401D01*
X0113538Y0142926D01*
X0110914Y0145550D02*
Y0144500D01*
X0111439Y0143975D01*
X0113538D01*
X0114063Y0144500D01*
Y0145550D01*
X0113538Y0146074D01*
X0111439D01*
X0110914Y0145550D01*
X0114063Y0147124D02*
X0110914D01*
X0114063Y0149223D01*
X0110914D01*
X0114063Y0152372D02*
Y0150273D01*
X0111964Y0152372D01*
X0111439D01*
X0110914Y0151847D01*
Y0150797D01*
X0111439Y0150273D01*
X0130335Y0128057D02*
X0129811Y0128582D01*
X0128761D01*
X0128236Y0128057D01*
Y0125958D01*
X0128761Y0125433D01*
X0129811D01*
X0130335Y0125958D01*
X0131385Y0125433D02*
X0132434D01*
X0131910D01*
Y0128582D01*
X0131385Y0128057D01*
X0134009D02*
X0134533Y0128582D01*
X0135583D01*
X0136108Y0128057D01*
Y0127532D01*
X0135583Y0127007D01*
X0136108Y0126483D01*
Y0125958D01*
X0135583Y0125433D01*
X0134533D01*
X0134009Y0125958D01*
Y0126483D01*
X0134533Y0127007D01*
X0134009Y0127532D01*
Y0128057D01*
X0134533Y0127007D02*
X0135583D01*
X0143565Y0131390D02*
X0143040Y0130866D01*
Y0129816D01*
X0143565Y0129291D01*
X0145664D01*
X0146189Y0129816D01*
Y0130866D01*
X0145664Y0131390D01*
X0146189Y0132440D02*
Y0133490D01*
Y0132965D01*
X0143040D01*
X0143565Y0132440D01*
X0143040Y0135064D02*
Y0137163D01*
X0143565D01*
X0145664Y0135064D01*
X0146189D01*
X0180270Y0124724D02*
Y0127873D01*
X0181844D01*
X0182369Y0127348D01*
Y0126299D01*
X0181844Y0125774D01*
X0180270D01*
X0181319D02*
X0182369Y0124724D01*
X0183419Y0125249D02*
X0183943Y0124724D01*
X0184993D01*
X0185518Y0125249D01*
Y0127348D01*
X0184993Y0127873D01*
X0183943D01*
X0183419Y0127348D01*
Y0126823D01*
X0183943Y0126299D01*
X0185518D01*
X0157737Y0169710D02*
X0157212Y0170235D01*
X0156163D01*
X0155638Y0169710D01*
Y0167611D01*
X0156163Y0167087D01*
X0157212D01*
X0157737Y0167611D01*
X0158786Y0169710D02*
X0159311Y0170235D01*
X0160361D01*
X0160885Y0169710D01*
Y0169186D01*
X0160361Y0168661D01*
X0159836D01*
X0160361D01*
X0160885Y0168136D01*
Y0167611D01*
X0160361Y0167087D01*
X0159311D01*
X0158786Y0167611D01*
X0111346Y0160944D02*
Y0157795D01*
X0112921D01*
X0113445Y0158320D01*
Y0158845D01*
X0112921Y0159370D01*
X0111346D01*
X0112921D01*
X0113445Y0159894D01*
Y0160419D01*
X0112921Y0160944D01*
X0111346D01*
X0114495Y0157795D02*
Y0159894D01*
X0115545Y0160944D01*
X0116594Y0159894D01*
Y0157795D01*
Y0159370D01*
X0114495D01*
X0117644Y0160944D02*
X0119743D01*
X0118693D01*
Y0157795D01*
X0120792D02*
X0121842D01*
X0121317D01*
Y0160944D01*
X0120792Y0160419D01*
X0183591Y0150156D02*
Y0147533D01*
X0184115Y0147008D01*
X0185165D01*
X0185690Y0147533D01*
Y0150156D01*
X0188313Y0147008D02*
Y0150156D01*
X0186739Y0148582D01*
X0188838D01*
X0191071Y0128503D02*
X0193170D01*
X0192120D01*
Y0125354D01*
X0194220D02*
X0195269D01*
X0194744D01*
Y0128503D01*
X0194220Y0127978D01*
X0179417Y0143976D02*
Y0147125D01*
X0180992D01*
X0181516Y0146600D01*
Y0145551D01*
X0180992Y0145026D01*
X0179417D01*
X0180467D02*
X0181516Y0143976D01*
X0182566Y0146600D02*
X0183091Y0147125D01*
X0184140D01*
X0184665Y0146600D01*
Y0146075D01*
X0184140Y0145551D01*
X0184665Y0145026D01*
Y0144501D01*
X0184140Y0143976D01*
X0183091D01*
X0182566Y0144501D01*
Y0145026D01*
X0183091Y0145551D01*
X0182566Y0146075D01*
Y0146600D01*
X0183091Y0145551D02*
X0184140D01*
X0174929Y0137165D02*
X0171781D01*
Y0138740D01*
X0172305Y0139264D01*
X0173355D01*
X0173880Y0138740D01*
Y0137165D01*
Y0138215D02*
X0174929Y0139264D01*
X0171781Y0140314D02*
Y0142413D01*
X0172305D01*
X0174404Y0140314D01*
X0174929D01*
X0190284Y0146614D02*
Y0149763D01*
X0191858D01*
X0192383Y0149238D01*
Y0148188D01*
X0191858Y0147664D01*
X0190284D01*
X0191333D02*
X0192383Y0146614D01*
X0195531Y0149763D02*
X0194482Y0149238D01*
X0193432Y0148188D01*
Y0147139D01*
X0193957Y0146614D01*
X0195006D01*
X0195531Y0147139D01*
Y0147664D01*
X0195006Y0148188D01*
X0193432D01*
X0148551Y0159213D02*
X0145403D01*
Y0160787D01*
X0145927Y0161312D01*
X0146977D01*
X0147502Y0160787D01*
Y0159213D01*
Y0160262D02*
X0148551Y0161312D01*
Y0163935D02*
X0145403D01*
X0146977Y0162361D01*
Y0164460D01*
X0163512Y0167087D02*
Y0170235D01*
X0165086D01*
X0165611Y0169710D01*
Y0168661D01*
X0165086Y0168136D01*
X0163512D01*
X0164561D02*
X0165611Y0167087D01*
X0166660Y0169710D02*
X0167185Y0170235D01*
X0168235D01*
X0168760Y0169710D01*
Y0169186D01*
X0168235Y0168661D01*
X0167710D01*
X0168235D01*
X0168760Y0168136D01*
Y0167611D01*
X0168235Y0167087D01*
X0167185D01*
X0166660Y0167611D01*
X0111544Y0162362D02*
X0114693D01*
Y0163936D01*
X0114168Y0164461D01*
X0112069D01*
X0111544Y0163936D01*
Y0162362D01*
X0114693Y0165511D02*
Y0166560D01*
Y0166036D01*
X0111544D01*
X0112069Y0165511D01*
X0172305Y0158162D02*
X0171781Y0157637D01*
Y0156588D01*
X0172305Y0156063D01*
X0174404D01*
X0174929Y0156588D01*
Y0157637D01*
X0174404Y0158162D01*
X0174929Y0159212D02*
Y0160261D01*
Y0159736D01*
X0171781D01*
X0172305Y0159212D01*
X0171781Y0163935D02*
X0172305Y0162885D01*
X0173355Y0161835D01*
X0174404D01*
X0174929Y0162360D01*
Y0163410D01*
X0174404Y0163935D01*
X0173880D01*
X0173355Y0163410D01*
Y0161835D01*
X0212422Y0159396D02*
X0211897Y0159920D01*
X0210848D01*
X0210323Y0159396D01*
Y0157296D01*
X0210848Y0156772D01*
X0211897D01*
X0212422Y0157296D01*
X0213471Y0156772D02*
X0214521D01*
X0213996D01*
Y0159920D01*
X0213471Y0159396D01*
X0218194Y0159920D02*
X0216095D01*
Y0158346D01*
X0217145Y0158871D01*
X0217670D01*
X0218194Y0158346D01*
Y0157296D01*
X0217670Y0156772D01*
X0216620D01*
X0216095Y0157296D01*
X0143564Y0173254D02*
X0143039Y0173778D01*
X0141989D01*
X0141465Y0173254D01*
Y0171155D01*
X0141989Y0170630D01*
X0143039D01*
X0143564Y0171155D01*
X0144613Y0170630D02*
X0145663D01*
X0145138D01*
Y0173778D01*
X0144613Y0173254D01*
X0148811Y0170630D02*
Y0173778D01*
X0147237Y0172204D01*
X0149336D01*
X0172305Y0129816D02*
X0171781Y0129291D01*
Y0128241D01*
X0172305Y0127717D01*
X0174404D01*
X0174929Y0128241D01*
Y0129291D01*
X0174404Y0129816D01*
X0174929Y0130865D02*
Y0131915D01*
Y0131390D01*
X0171781D01*
X0172305Y0130865D01*
X0174929Y0133489D02*
Y0134538D01*
Y0134014D01*
X0171781D01*
X0172305Y0133489D01*
X0148603Y0122584D02*
X0148078Y0123109D01*
X0147029D01*
X0146504Y0122584D01*
Y0120485D01*
X0147029Y0119961D01*
X0148078D01*
X0148603Y0120485D01*
X0149653Y0119961D02*
X0150702D01*
X0150177D01*
Y0123109D01*
X0149653Y0122584D01*
X0152276D02*
X0152801Y0123109D01*
X0153851D01*
X0154375Y0122584D01*
Y0120485D01*
X0153851Y0119961D01*
X0152801D01*
X0152276Y0120485D01*
Y0122584D01*
X0159707Y0157375D02*
X0159182Y0156850D01*
Y0155800D01*
X0159707Y0155276D01*
X0161806D01*
X0162331Y0155800D01*
Y0156850D01*
X0161806Y0157375D01*
X0159182Y0158424D02*
Y0160523D01*
X0159707D01*
X0161806Y0158424D01*
X0162331D01*
X0212502Y0140485D02*
X0211977Y0139960D01*
Y0138911D01*
X0212502Y0138386D01*
X0214601D01*
X0215126Y0138911D01*
Y0139960D01*
X0214601Y0140485D01*
X0215126Y0143633D02*
Y0141534D01*
X0213027Y0143633D01*
X0212502D01*
X0211977Y0143109D01*
Y0142059D01*
X0212502Y0141534D01*
X0203800Y0127151D02*
X0203275Y0127676D01*
X0202226D01*
X0201701Y0127151D01*
Y0125052D01*
X0202226Y0124528D01*
X0203275D01*
X0203800Y0125052D01*
X0204849Y0124528D02*
X0205899D01*
X0205374D01*
Y0127676D01*
X0204849Y0127151D01*
D16*
X0166701Y0179527D02*
D03*
M02*
