G04*
G04 #@! TF.GenerationSoftware,Altium Limited,Altium Designer,19.1.5 (86)*
G04*
G04 Layer_Color=128*
%FSAX25Y25*%
%MOIN*%
G70*
G01*
G75*
%ADD18R,0.02520X0.02362*%
%ADD20R,0.01968X0.02362*%
%ADD28R,0.03150X0.03150*%
%ADD31R,0.03150X0.03150*%
%ADD64R,0.05906X0.05906*%
%ADD65R,0.05118X0.03543*%
%ADD66R,0.01083X0.00984*%
%ADD67R,0.00984X0.01083*%
%ADD68R,0.00394X0.00394*%
%ADD69R,0.01575X0.03543*%
%ADD71R,0.05906X0.05906*%
G04:AMPARAMS|DCode=72|XSize=59.06mil|YSize=59.06mil|CornerRadius=5.91mil|HoleSize=0mil|Usage=FLASHONLY|Rotation=180.000|XOffset=0mil|YOffset=0mil|HoleType=Round|Shape=RoundedRectangle|*
%AMROUNDEDRECTD72*
21,1,0.05906,0.04724,0,0,180.0*
21,1,0.04724,0.05906,0,0,180.0*
1,1,0.01181,-0.02362,0.02362*
1,1,0.01181,0.02362,0.02362*
1,1,0.01181,0.02362,-0.02362*
1,1,0.01181,-0.02362,-0.02362*
%
%ADD72ROUNDEDRECTD72*%
%ADD85R,0.03780X0.01968*%
%ADD86R,0.03740X0.01929*%
%ADD87R,0.03740X0.01929*%
%ADD88R,0.01929X0.03740*%
G36*
X0129043Y0170965D02*
Y0169882D01*
X0128059D01*
X0128059Y0170620D01*
X0128404Y0170965D01*
X0129043Y0170965D01*
D02*
G37*
D18*
X0195598Y0125748D02*
D03*
Y0121968D02*
D03*
X0200441Y0121890D02*
D03*
Y0125669D02*
D03*
X0199535Y0158504D02*
D03*
Y0162284D02*
D03*
Y0151260D02*
D03*
Y0147480D02*
D03*
D20*
X0138315Y0158031D02*
D03*
X0134378D02*
D03*
X0136150Y0169803D02*
D03*
X0140087D02*
D03*
X0129063Y0166496D02*
D03*
X0125126D02*
D03*
D28*
X0141819Y0178228D02*
D03*
X0135913D02*
D03*
D31*
X0205244Y0151181D02*
D03*
Y0145276D02*
D03*
D64*
X0215638Y0141496D02*
D03*
Y0149370D02*
D03*
Y0157244D02*
D03*
Y0165118D02*
D03*
D65*
X0124221Y0145709D02*
D03*
Y0153189D02*
D03*
D66*
X0128551Y0172402D02*
D03*
Y0174370D02*
D03*
X0122646D02*
D03*
X0122646Y0172402D02*
D03*
D67*
X0128551Y0176339D02*
D03*
X0126583D02*
D03*
X0124614D02*
D03*
X0122646D02*
D03*
Y0170433D02*
D03*
X0124614D02*
D03*
X0126583D02*
D03*
D68*
X0128551D02*
D03*
D69*
X0204575Y0123346D02*
D03*
X0207134D02*
D03*
X0209693D02*
D03*
Y0128465D02*
D03*
X0207134D02*
D03*
X0204575D02*
D03*
D71*
X0159724Y0140197D02*
D03*
X0169567Y0140197D02*
D03*
X0179508Y0140197D02*
D03*
X0159724Y0150039D02*
D03*
X0169567D02*
D03*
X0179409Y0150039D02*
D03*
X0159724Y0159882D02*
D03*
X0169567Y0159882D02*
D03*
D72*
X0179409Y0159882D02*
D03*
D85*
X0191347Y0167382D02*
D03*
X0147803Y0167342D02*
D03*
Y0164193D02*
D03*
Y0161043D02*
D03*
Y0157894D02*
D03*
Y0154744D02*
D03*
Y0151594D02*
D03*
Y0148445D02*
D03*
Y0145295D02*
D03*
Y0142146D02*
D03*
Y0138996D02*
D03*
Y0135846D02*
D03*
Y0132697D02*
D03*
D86*
X0191366Y0164252D02*
D03*
Y0161063D02*
D03*
X0191366Y0154764D02*
D03*
X0191366Y0151614D02*
D03*
X0191366Y0148465D02*
D03*
Y0145315D02*
D03*
X0191366Y0142165D02*
D03*
X0191366Y0139016D02*
D03*
X0191366Y0135866D02*
D03*
Y0132717D02*
D03*
D87*
X0191366Y0157913D02*
D03*
D88*
X0186917Y0130039D02*
D03*
X0183768D02*
D03*
X0180579D02*
D03*
X0177429Y0130039D02*
D03*
X0174319Y0130039D02*
D03*
X0171169Y0130039D02*
D03*
X0168020Y0130039D02*
D03*
X0164870Y0130039D02*
D03*
X0161720Y0130039D02*
D03*
X0158571Y0130039D02*
D03*
X0155382D02*
D03*
X0152075Y0130039D02*
D03*
X0186917Y0170039D02*
D03*
X0183728Y0170079D02*
D03*
X0180579D02*
D03*
X0177429Y0170079D02*
D03*
X0174279Y0170079D02*
D03*
X0171169Y0170079D02*
D03*
X0168020Y0170079D02*
D03*
X0164870D02*
D03*
X0161720Y0170079D02*
D03*
X0158571Y0170079D02*
D03*
X0155421D02*
D03*
X0152232D02*
D03*
M02*
