G04*
G04 #@! TF.GenerationSoftware,Altium Limited,Altium Designer,19.1.6 (110)*
G04*
G04 Layer_Color=8421504*
%FSAX25Y25*%
%MOIN*%
G70*
G01*
G75*
%ADD15R,0.13780X0.05906*%
%ADD16R,0.01181X0.01575*%
%ADD17R,0.01968X0.02362*%
%ADD18R,0.02362X0.01968*%
%ADD19R,0.19685X0.05906*%
%ADD20R,0.04724X0.07874*%
%ADD21R,0.02756X0.01181*%
%ADD22R,0.01968X0.01968*%
%ADD23R,0.03150X0.03150*%
%ADD24R,0.02362X0.02520*%
%ADD25R,0.03150X0.03150*%
%ADD26R,0.02520X0.02362*%
%ADD27R,0.03543X0.05118*%
G36*
X0187532Y0159665D02*
X0187824Y0159664D01*
X0187822Y0151988D01*
X0187527Y0151988D01*
X0184083Y0151988D01*
X0184083Y0158680D01*
X0185066Y0159666D01*
X0187532Y0159665D01*
D02*
G37*
D15*
X0144634Y0119606D02*
D03*
D16*
X0194339Y0135433D02*
D03*
X0192764D02*
D03*
X0191189D02*
D03*
X0194339Y0138976D02*
D03*
X0192764D02*
D03*
X0191189D02*
D03*
D17*
X0190402Y0142874D02*
D03*
X0194339D02*
D03*
X0177567Y0136929D02*
D03*
X0181504D02*
D03*
X0190441Y0130354D02*
D03*
X0194378D02*
D03*
X0182331Y0130276D02*
D03*
X0186268D02*
D03*
X0121622Y0144134D02*
D03*
X0125559D02*
D03*
X0138906Y0160984D02*
D03*
X0134968D02*
D03*
X0129260Y0165512D02*
D03*
X0125323D02*
D03*
X0167961Y0164252D02*
D03*
X0164024D02*
D03*
D18*
X0186228Y0140827D02*
D03*
Y0136890D02*
D03*
X0128236Y0172323D02*
D03*
Y0176260D02*
D03*
X0123945Y0172323D02*
D03*
Y0176260D02*
D03*
X0195795Y0154291D02*
D03*
Y0150354D02*
D03*
X0151701Y0164134D02*
D03*
Y0168071D02*
D03*
D19*
X0119398Y0119646D02*
D03*
D20*
X0158000Y0120630D02*
D03*
X0167055D02*
D03*
X0176110D02*
D03*
X0185165D02*
D03*
X0194220D02*
D03*
X0203276D02*
D03*
D21*
X0181819Y0158780D02*
D03*
Y0156811D02*
D03*
Y0154842D02*
D03*
Y0152874D02*
D03*
X0190087D02*
D03*
Y0154842D02*
D03*
Y0156811D02*
D03*
Y0158780D02*
D03*
D22*
X0185953Y0155827D02*
D03*
D23*
X0113512Y0178504D02*
D03*
Y0172205D02*
D03*
D24*
X0181819Y0162165D02*
D03*
X0178039D02*
D03*
X0143945Y0167598D02*
D03*
X0147724D02*
D03*
X0167606Y0127284D02*
D03*
X0171386D02*
D03*
X0159890Y0164134D02*
D03*
X0156110D02*
D03*
D25*
X0200244Y0158307D02*
D03*
X0206150D02*
D03*
D26*
X0155008Y0159764D02*
D03*
Y0155984D02*
D03*
D27*
X0207606Y0140905D02*
D03*
X0200126D02*
D03*
X0207606Y0132205D02*
D03*
X0200126D02*
D03*
M02*
