G04*
G04 #@! TF.GenerationSoftware,Altium Limited,Altium Designer,19.1.6 (110)*
G04*
G04 Layer_Color=65535*
%FSAX25Y25*%
%MOIN*%
G70*
G01*
G75*
%ADD10C,0.01000*%
%ADD11C,0.00787*%
%ADD12C,0.00394*%
%ADD13C,0.00591*%
%ADD14C,0.00598*%
D10*
X0188906Y0135236D02*
G03*
X0188906Y0135236I-0000473J0000000D01*
G01*
D11*
X0179380Y0158701D02*
G03*
X0179380Y0158701I-0000435J0000000D01*
G01*
X0110512Y0169354D02*
Y0182354D01*
Y0169354D02*
X0116512D01*
Y0182354D01*
X0110512Y0181354D02*
X0116512D01*
X0110512Y0182354D02*
X0116512D01*
X0197447Y0161057D02*
X0208947D01*
Y0155557D02*
Y0161057D01*
X0197447Y0155557D02*
X0208947D01*
X0197447D02*
Y0161057D01*
X0196866Y0144905D02*
X0210866D01*
X0196866Y0136906D02*
Y0144905D01*
Y0136906D02*
X0210866D01*
Y0144905D01*
X0196866Y0136205D02*
X0210866D01*
X0196866Y0128205D02*
Y0136205D01*
Y0128205D02*
X0210866D01*
Y0136205D01*
D12*
X0190008Y0134449D02*
Y0139961D01*
X0195520Y0134449D02*
Y0139961D01*
X0188630Y0140905D02*
Y0144843D01*
Y0140905D02*
X0196110D01*
Y0144843D01*
X0188630D02*
X0196110D01*
X0175795Y0134961D02*
Y0138898D01*
Y0134961D02*
X0183276D01*
Y0138898D01*
X0175795D02*
X0183276D01*
X0184260Y0142598D02*
X0188197D01*
X0184260Y0135118D02*
Y0142598D01*
Y0135118D02*
X0188197D01*
Y0142598D01*
X0188669Y0128386D02*
Y0132323D01*
Y0128386D02*
X0196150D01*
Y0132323D01*
X0188669D02*
X0196150D01*
X0180559Y0128307D02*
Y0132244D01*
Y0128307D02*
X0188039D01*
Y0132244D01*
X0180559D02*
X0188039D01*
X0182016Y0151575D02*
X0189890Y0151594D01*
X0182016Y0160059D02*
X0189890D01*
X0119850Y0142165D02*
Y0146102D01*
Y0142165D02*
X0127331D01*
Y0146102D01*
X0119850D02*
X0127331D01*
X0126268Y0170551D02*
X0130205D01*
Y0178032D01*
X0126268D02*
X0130205D01*
X0126268Y0170551D02*
Y0178032D01*
X0140677Y0159016D02*
Y0162953D01*
X0133197D02*
X0140677D01*
X0133197Y0159016D02*
Y0162953D01*
Y0159016D02*
X0140677D01*
X0131032Y0163543D02*
Y0167480D01*
X0123551D02*
X0131032D01*
X0123551Y0163543D02*
Y0167480D01*
Y0163543D02*
X0131032D01*
X0121976Y0170551D02*
X0125913D01*
Y0178032D01*
X0121976D02*
X0125913D01*
X0121976Y0170551D02*
Y0178032D01*
X0193827Y0156063D02*
X0197764D01*
X0193827Y0148583D02*
Y0156063D01*
Y0148583D02*
X0197764D01*
Y0156063D01*
X0149732Y0162362D02*
X0153669D01*
Y0169843D01*
X0149732D02*
X0153669D01*
X0149732Y0162362D02*
Y0169843D01*
X0169732Y0162284D02*
Y0166220D01*
X0162252D02*
X0169732D01*
X0162252Y0162284D02*
Y0166220D01*
Y0162284D02*
X0169732D01*
X0176091Y0160098D02*
X0183768D01*
X0176091D02*
Y0164232D01*
X0183768D01*
Y0160098D02*
Y0164232D01*
X0141996Y0169665D02*
X0149673D01*
Y0165532D02*
Y0169665D01*
X0141996Y0165532D02*
X0149673D01*
X0141996D02*
Y0169665D01*
X0165657Y0129350D02*
X0173335D01*
Y0125216D02*
Y0129350D01*
X0165657Y0125216D02*
X0173335D01*
X0165657D02*
Y0129350D01*
X0157075Y0154035D02*
Y0161713D01*
X0152941Y0154035D02*
X0157075D01*
X0152941D02*
Y0161713D01*
X0157075D01*
X0154161Y0162067D02*
X0161839D01*
X0154161D02*
Y0166201D01*
X0161839D01*
Y0162067D02*
Y0166201D01*
D13*
X0186726Y0175075D02*
X0186267Y0175534D01*
X0185349D01*
X0184890Y0175075D01*
Y0174616D01*
X0185349Y0174157D01*
X0186267D01*
X0186726Y0173698D01*
Y0173239D01*
X0186267Y0172779D01*
X0185349D01*
X0184890Y0173239D01*
X0187645Y0172779D02*
Y0174616D01*
X0188104D01*
X0188563Y0174157D01*
Y0172779D01*
Y0174157D01*
X0189022Y0174616D01*
X0189481Y0174157D01*
Y0172779D01*
X0190859Y0174616D02*
X0191777D01*
X0192236Y0174157D01*
Y0172779D01*
X0190859D01*
X0190400Y0173239D01*
X0190859Y0173698D01*
X0192236D01*
X0193155Y0174616D02*
Y0172779D01*
Y0173698D01*
X0193614Y0174157D01*
X0194073Y0174616D01*
X0194532D01*
X0196369Y0175075D02*
Y0174616D01*
X0195910D01*
X0196828D01*
X0196369D01*
Y0173239D01*
X0196828Y0172779D01*
X0198206Y0171861D02*
Y0174616D01*
X0199583D01*
X0200042Y0174157D01*
Y0173239D01*
X0199583Y0172779D01*
X0198206D01*
X0201420Y0174616D02*
X0202338D01*
X0202797Y0174157D01*
Y0172779D01*
X0201420D01*
X0200961Y0173239D01*
X0201420Y0173698D01*
X0202797D01*
X0203716Y0174616D02*
Y0172779D01*
Y0173698D01*
X0204175Y0174157D01*
X0204634Y0174616D01*
X0205093D01*
X0206471Y0172779D02*
Y0175534D01*
Y0173698D02*
X0207848Y0174616D01*
X0206471Y0173698D02*
X0207848Y0172779D01*
X0209226D02*
X0210603D01*
X0211062Y0173239D01*
X0210603Y0173698D01*
X0209685D01*
X0209226Y0174157D01*
X0209685Y0174616D01*
X0211062D01*
X0185349Y0167138D02*
X0186267D01*
X0186726Y0167597D01*
Y0168515D01*
X0186267Y0168974D01*
X0185349D01*
X0184890Y0168515D01*
Y0167597D01*
X0185349Y0167138D01*
X0187645Y0166219D02*
Y0168974D01*
X0189022D01*
X0189481Y0168515D01*
Y0167597D01*
X0189022Y0167138D01*
X0187645D01*
X0191777D02*
X0190859D01*
X0190400Y0167597D01*
Y0168515D01*
X0190859Y0168974D01*
X0191777D01*
X0192236Y0168515D01*
Y0168056D01*
X0190400D01*
X0193155Y0167138D02*
Y0168974D01*
X0194532D01*
X0194992Y0168515D01*
Y0167138D01*
X0197747Y0168974D02*
X0196369D01*
X0195910Y0168515D01*
Y0167597D01*
X0196369Y0167138D01*
X0197747D01*
X0199124D02*
X0200042D01*
X0200501Y0167597D01*
Y0168515D01*
X0200042Y0168974D01*
X0199124D01*
X0198665Y0168515D01*
Y0167597D01*
X0199124Y0167138D01*
X0201420D02*
X0202338D01*
X0201879D01*
Y0169893D01*
X0201420D01*
X0203716Y0167138D02*
X0204634D01*
X0204175D01*
Y0169893D01*
X0203716D01*
X0206471Y0168974D02*
X0207389D01*
X0207848Y0168515D01*
Y0167138D01*
X0206471D01*
X0206012Y0167597D01*
X0206471Y0168056D01*
X0207848D01*
X0208767Y0168974D02*
Y0167138D01*
Y0168056D01*
X0209226Y0168515D01*
X0209685Y0168974D01*
X0210144D01*
X0211522Y0167138D02*
Y0167597D01*
X0211981D01*
Y0167138D01*
X0211522D01*
X0213818D02*
X0214736D01*
X0214277D01*
Y0168974D01*
X0213818D01*
X0216572Y0167138D02*
X0217491D01*
X0217950Y0167597D01*
Y0168515D01*
X0217491Y0168974D01*
X0216572D01*
X0216113Y0168515D01*
Y0167597D01*
X0216572Y0167138D01*
X0184890Y0161496D02*
Y0164251D01*
X0186267D01*
X0186726Y0163792D01*
Y0162874D01*
X0186267Y0162414D01*
X0184890D01*
X0185808D02*
X0186726Y0161496D01*
X0187645Y0164251D02*
Y0161496D01*
Y0162874D01*
X0188104Y0163333D01*
X0189022D01*
X0189481Y0162874D01*
Y0161496D01*
X0190400D02*
X0191318D01*
X0190859D01*
Y0163333D01*
X0190400D01*
X0192696Y0161496D02*
Y0163333D01*
X0194073D01*
X0194532Y0162874D01*
Y0161496D01*
X0195910D02*
X0196828D01*
X0197287Y0161955D01*
Y0162874D01*
X0196828Y0163333D01*
X0195910D01*
X0195451Y0162874D01*
Y0161955D01*
X0195910Y0161496D01*
X0201420Y0163792D02*
Y0163333D01*
X0200961D01*
X0201879D01*
X0201420D01*
Y0161955D01*
X0201879Y0161496D01*
X0203257Y0163333D02*
Y0161496D01*
Y0162414D01*
X0203716Y0162874D01*
X0204175Y0163333D01*
X0204634D01*
X0206471D02*
X0207389D01*
X0207848Y0162874D01*
Y0161496D01*
X0206471D01*
X0206012Y0161955D01*
X0206471Y0162414D01*
X0207848D01*
X0210603Y0163333D02*
X0209226D01*
X0208767Y0162874D01*
Y0161955D01*
X0209226Y0161496D01*
X0210603D01*
X0211522D02*
Y0164251D01*
Y0162414D02*
X0212899Y0163333D01*
X0211522Y0162414D02*
X0212899Y0161496D01*
X0215654D02*
X0214736D01*
X0214277Y0161955D01*
Y0162874D01*
X0214736Y0163333D01*
X0215654D01*
X0216113Y0162874D01*
Y0162414D01*
X0214277D01*
X0217032Y0163333D02*
Y0161496D01*
Y0162414D01*
X0217491Y0162874D01*
X0217950Y0163333D01*
X0218409D01*
X0122173Y0162362D02*
X0119025D01*
Y0163936D01*
X0119549Y0164461D01*
X0120599D01*
X0121124Y0163936D01*
Y0162362D01*
Y0163412D02*
X0122173Y0164461D01*
Y0165511D02*
Y0166560D01*
Y0166036D01*
X0119025D01*
X0119549Y0165511D01*
X0122173Y0168135D02*
Y0169184D01*
Y0168659D01*
X0119025D01*
X0119549Y0168135D01*
X0119693Y0147047D02*
Y0150196D01*
X0121267D01*
X0121792Y0149671D01*
Y0148621D01*
X0121267Y0148097D01*
X0119693D01*
X0120742D02*
X0121792Y0147047D01*
X0122842D02*
X0123891D01*
X0123366D01*
Y0150196D01*
X0122842Y0149671D01*
X0127564Y0150196D02*
X0125465D01*
Y0148621D01*
X0126515Y0149146D01*
X0127040D01*
X0127564Y0148621D01*
Y0147572D01*
X0127040Y0147047D01*
X0125990D01*
X0125465Y0147572D01*
X0134772Y0170630D02*
X0131623D01*
Y0172204D01*
X0132148Y0172729D01*
X0133197D01*
X0133722Y0172204D01*
Y0170630D01*
Y0171679D02*
X0134772Y0172729D01*
Y0173778D02*
Y0174828D01*
Y0174303D01*
X0131623D01*
X0132148Y0173778D01*
X0134772Y0177977D02*
X0131623D01*
X0133197Y0176402D01*
Y0178501D01*
X0132803Y0164331D02*
Y0167479D01*
X0134377D01*
X0134902Y0166955D01*
Y0165905D01*
X0134377Y0165380D01*
X0132803D01*
X0133853D02*
X0134902Y0164331D01*
X0135952D02*
X0137001D01*
X0136477D01*
Y0167479D01*
X0135952Y0166955D01*
X0138576D02*
X0139100Y0167479D01*
X0140150D01*
X0140675Y0166955D01*
Y0166430D01*
X0140150Y0165905D01*
X0139625D01*
X0140150D01*
X0140675Y0165380D01*
Y0164856D01*
X0140150Y0164331D01*
X0139100D01*
X0138576Y0164856D01*
X0120992Y0170236D02*
X0117843D01*
Y0171810D01*
X0118368Y0172335D01*
X0119418D01*
X0119943Y0171810D01*
Y0170236D01*
Y0171286D02*
X0120992Y0172335D01*
Y0173385D02*
Y0174434D01*
Y0173910D01*
X0117843D01*
X0118368Y0173385D01*
Y0176009D02*
X0117843Y0176533D01*
Y0177583D01*
X0118368Y0178108D01*
X0120467D01*
X0120992Y0177583D01*
Y0176533D01*
X0120467Y0176009D01*
X0118368D01*
X0157737Y0169710D02*
X0157212Y0170235D01*
X0156163D01*
X0155638Y0169710D01*
Y0167611D01*
X0156163Y0167087D01*
X0157212D01*
X0157737Y0167611D01*
X0158786Y0169710D02*
X0159311Y0170235D01*
X0160361D01*
X0160885Y0169710D01*
Y0169186D01*
X0160361Y0168661D01*
X0159836D01*
X0160361D01*
X0160885Y0168136D01*
Y0167611D01*
X0160361Y0167087D01*
X0159311D01*
X0158786Y0167611D01*
X0111740Y0161062D02*
Y0157913D01*
X0113314D01*
X0113839Y0158438D01*
Y0158963D01*
X0113314Y0159488D01*
X0111740D01*
X0113314D01*
X0113839Y0160012D01*
Y0160537D01*
X0113314Y0161062D01*
X0111740D01*
X0114889Y0157913D02*
Y0160012D01*
X0115938Y0161062D01*
X0116988Y0160012D01*
Y0157913D01*
Y0159488D01*
X0114889D01*
X0118037Y0161062D02*
X0120136D01*
X0119087D01*
Y0157913D01*
X0121186D02*
X0122236D01*
X0121711D01*
Y0161062D01*
X0121186Y0160537D01*
X0176111Y0151732D02*
X0178735D01*
X0179260Y0152257D01*
Y0153307D01*
X0178735Y0153831D01*
X0176111D01*
X0179260Y0156455D02*
X0176111D01*
X0177685Y0154881D01*
Y0156980D01*
X0200244Y0146850D02*
Y0149999D01*
X0201818D01*
X0202343Y0149474D01*
Y0148425D01*
X0201818Y0147900D01*
X0200244D01*
X0201294D02*
X0202343Y0146850D01*
X0205492Y0149999D02*
X0204442Y0149474D01*
X0203393Y0148425D01*
Y0147375D01*
X0203918Y0146850D01*
X0204967D01*
X0205492Y0147375D01*
Y0147900D01*
X0204967Y0148425D01*
X0203393D01*
X0148551Y0159213D02*
X0145403D01*
Y0160787D01*
X0145927Y0161312D01*
X0146977D01*
X0147502Y0160787D01*
Y0159213D01*
Y0160262D02*
X0148551Y0161312D01*
Y0163935D02*
X0145403D01*
X0146977Y0162361D01*
Y0164460D01*
X0163512Y0167087D02*
Y0170235D01*
X0165086D01*
X0165611Y0169710D01*
Y0168661D01*
X0165086Y0168136D01*
X0163512D01*
X0164561D02*
X0165611Y0167087D01*
X0166660Y0169710D02*
X0167185Y0170235D01*
X0168235D01*
X0168760Y0169710D01*
Y0169186D01*
X0168235Y0168661D01*
X0167710D01*
X0168235D01*
X0168760Y0168136D01*
Y0167611D01*
X0168235Y0167087D01*
X0167185D01*
X0166660Y0167611D01*
X0111544Y0162362D02*
X0114693D01*
Y0163936D01*
X0114168Y0164461D01*
X0112069D01*
X0111544Y0163936D01*
Y0162362D01*
X0114693Y0165511D02*
Y0166560D01*
Y0166036D01*
X0111544D01*
X0112069Y0165511D01*
X0172305Y0158162D02*
X0171781Y0157637D01*
Y0156588D01*
X0172305Y0156063D01*
X0174404D01*
X0174929Y0156588D01*
Y0157637D01*
X0174404Y0158162D01*
X0174929Y0159212D02*
Y0160261D01*
Y0159736D01*
X0171781D01*
X0172305Y0159212D01*
X0171781Y0163935D02*
X0172305Y0162885D01*
X0173355Y0161835D01*
X0174404D01*
X0174929Y0162360D01*
Y0163410D01*
X0174404Y0163935D01*
X0173880D01*
X0173355Y0163410D01*
Y0161835D01*
X0202068Y0153726D02*
X0201543Y0154251D01*
X0200493D01*
X0199969Y0153726D01*
Y0151627D01*
X0200493Y0151102D01*
X0201543D01*
X0202068Y0151627D01*
X0203117Y0151102D02*
X0204167D01*
X0203642D01*
Y0154251D01*
X0203117Y0153726D01*
X0207840Y0154251D02*
X0205741D01*
Y0152677D01*
X0206790Y0153201D01*
X0207315D01*
X0207840Y0152677D01*
Y0151627D01*
X0207315Y0151102D01*
X0206266D01*
X0205741Y0151627D01*
X0143564Y0173254D02*
X0143039Y0173778D01*
X0141989D01*
X0141465Y0173254D01*
Y0171155D01*
X0141989Y0170630D01*
X0143039D01*
X0143564Y0171155D01*
X0144613Y0170630D02*
X0145663D01*
X0145138D01*
Y0173778D01*
X0144613Y0173254D01*
X0148811Y0170630D02*
Y0173778D01*
X0147237Y0172204D01*
X0149336D01*
X0167540Y0133018D02*
X0167015Y0133542D01*
X0165966D01*
X0165441Y0133018D01*
Y0130919D01*
X0165966Y0130394D01*
X0167015D01*
X0167540Y0130919D01*
X0168589Y0130394D02*
X0169639D01*
X0169114D01*
Y0133542D01*
X0168589Y0133018D01*
X0171213D02*
X0171738Y0133542D01*
X0172788D01*
X0173312Y0133018D01*
Y0130919D01*
X0172788Y0130394D01*
X0171738D01*
X0171213Y0130919D01*
Y0133018D01*
X0158486Y0157375D02*
X0157962Y0156850D01*
Y0155800D01*
X0158486Y0155276D01*
X0160585D01*
X0161110Y0155800D01*
Y0156850D01*
X0160585Y0157375D01*
X0157962Y0158424D02*
Y0160523D01*
X0158486D01*
X0160585Y0158424D01*
X0161110D01*
X0214115Y0143569D02*
X0213590Y0144094D01*
X0212541D01*
X0212016Y0143569D01*
Y0141470D01*
X0212541Y0140945D01*
X0213590D01*
X0214115Y0141470D01*
X0217263Y0140945D02*
X0215164D01*
X0217263Y0143044D01*
Y0143569D01*
X0216739Y0144094D01*
X0215689D01*
X0215164Y0143569D01*
X0214115Y0139671D02*
X0213590Y0140196D01*
X0212541D01*
X0212016Y0139671D01*
Y0137572D01*
X0212541Y0137047D01*
X0213590D01*
X0214115Y0137572D01*
X0215164Y0137047D02*
X0216214D01*
X0215689D01*
Y0140196D01*
X0215164Y0139671D01*
D14*
X0167173Y0142676D02*
X0169272D01*
X0168223D01*
Y0139528D01*
X0172421D02*
X0170322D01*
X0172421Y0141627D01*
Y0142151D01*
X0171896Y0142676D01*
X0170847D01*
X0170322Y0142151D01*
X0175165Y0143583D02*
Y0146731D01*
X0176740D01*
X0177264Y0146206D01*
Y0145157D01*
X0176740Y0144632D01*
X0175165D01*
X0176215D02*
X0177264Y0143583D01*
X0178314D02*
X0179364D01*
X0178839D01*
Y0146731D01*
X0178314Y0146206D01*
X0180938Y0144107D02*
X0181463Y0143583D01*
X0182512D01*
X0183037Y0144107D01*
Y0146206D01*
X0182512Y0146731D01*
X0181463D01*
X0180938Y0146206D01*
Y0145682D01*
X0181463Y0145157D01*
X0183037D01*
X0179654Y0126221D02*
X0176505D01*
Y0127795D01*
X0177030Y0128320D01*
X0178079D01*
X0178604Y0127795D01*
Y0126221D01*
Y0127270D02*
X0179654Y0128320D01*
Y0129369D02*
Y0130419D01*
Y0129894D01*
X0176505D01*
X0177030Y0129369D01*
Y0131993D02*
X0176505Y0132518D01*
Y0133567D01*
X0177030Y0134092D01*
X0177555D01*
X0178079Y0133567D01*
X0178604Y0134092D01*
X0179129D01*
X0179654Y0133567D01*
Y0132518D01*
X0179129Y0131993D01*
X0178604D01*
X0178079Y0132518D01*
X0177555Y0131993D01*
X0177030D01*
X0178079Y0132518D02*
Y0133567D01*
X0175284Y0139528D02*
Y0142676D01*
X0176858D01*
X0177383Y0142151D01*
Y0141102D01*
X0176858Y0140577D01*
X0175284D01*
X0176333D02*
X0177383Y0139528D01*
X0178432D02*
X0179482D01*
X0178957D01*
Y0142676D01*
X0178432Y0142151D01*
X0181056Y0142676D02*
X0183155D01*
Y0142151D01*
X0181056Y0140052D01*
Y0139528D01*
X0185087Y0145709D02*
Y0148857D01*
X0186661D01*
X0187186Y0148333D01*
Y0147283D01*
X0186661Y0146758D01*
X0185087D01*
X0186136D02*
X0187186Y0145709D01*
X0188235D02*
X0189285D01*
X0188760D01*
Y0148857D01*
X0188235Y0148333D01*
X0192958Y0148857D02*
X0191909Y0148333D01*
X0190859Y0147283D01*
Y0146233D01*
X0191384Y0145709D01*
X0192433D01*
X0192958Y0146233D01*
Y0146758D01*
X0192433Y0147283D01*
X0190859D01*
X0165953Y0135118D02*
Y0138267D01*
X0167527D01*
X0168052Y0137742D01*
Y0136692D01*
X0167527Y0136168D01*
X0165953D01*
X0167002D02*
X0168052Y0135118D01*
X0169101D02*
X0170151D01*
X0169626D01*
Y0138267D01*
X0169101Y0137742D01*
X0173824Y0135118D02*
X0171725D01*
X0173824Y0137217D01*
Y0137742D01*
X0173300Y0138267D01*
X0172250D01*
X0171725Y0137742D01*
M02*
