G04*
G04 #@! TF.GenerationSoftware,Altium Limited,Altium Designer,19.1.6 (110)*
G04*
G04 Layer_Physical_Order=1*
G04 Layer_Color=255*
%FSAX25Y25*%
%MOIN*%
G70*
G01*
G75*
%ADD10C,0.01000*%
%ADD11C,0.00787*%
%ADD15R,0.13780X0.05906*%
%ADD16R,0.01181X0.01575*%
%ADD17R,0.01968X0.02362*%
%ADD18R,0.02362X0.01968*%
%ADD19R,0.19685X0.05906*%
%ADD20R,0.04724X0.07874*%
%ADD21R,0.02756X0.01181*%
%ADD22R,0.01968X0.01968*%
%ADD23R,0.03150X0.03150*%
%ADD24R,0.02362X0.02520*%
%ADD25R,0.03150X0.03150*%
%ADD26R,0.02520X0.02362*%
%ADD27R,0.03543X0.05118*%
%ADD47C,0.02953*%
%ADD48C,0.01181*%
%ADD49C,0.01968*%
%ADD50C,0.00600*%
%ADD51C,0.00984*%
%ADD52C,0.02362*%
%ADD53O,0.06299X0.05512*%
%ADD54C,0.03543*%
%ADD55C,0.05906*%
%ADD56C,0.03150*%
%ADD57C,0.01575*%
%ADD58C,0.01968*%
%ADD59C,0.02756*%
G36*
X0128632Y0177752D02*
X0128652Y0177547D01*
X0128670Y0177463D01*
X0128692Y0177393D01*
X0128719Y0177335D01*
X0128752Y0177290D01*
X0128789Y0177258D01*
X0128831Y0177239D01*
X0128878Y0177232D01*
X0127594D01*
X0127641Y0177239D01*
X0127684Y0177258D01*
X0127721Y0177290D01*
X0127753Y0177335D01*
X0127780Y0177393D01*
X0127803Y0177463D01*
X0127820Y0177547D01*
X0127833Y0177643D01*
X0127840Y0177752D01*
X0127842Y0177874D01*
X0128630D01*
X0128632Y0177752D01*
D02*
G37*
G36*
X0124341Y0177752D02*
X0124361Y0177547D01*
X0124378Y0177463D01*
X0124401Y0177393D01*
X0124428Y0177335D01*
X0124460Y0177290D01*
X0124497Y0177258D01*
X0124540Y0177239D01*
X0124587Y0177232D01*
X0123303D01*
X0123350Y0177239D01*
X0123392Y0177258D01*
X0123430Y0177290D01*
X0123462Y0177335D01*
X0123489Y0177393D01*
X0123512Y0177463D01*
X0123529Y0177547D01*
X0123541Y0177643D01*
X0123549Y0177752D01*
X0123551Y0177874D01*
X0124339D01*
X0124341Y0177752D01*
D02*
G37*
G36*
X0128112Y0171363D02*
X0128058Y0171387D01*
X0127997Y0171396D01*
X0127929Y0171389D01*
X0127855Y0171369D01*
X0127773Y0171332D01*
X0127685Y0171281D01*
X0127590Y0171215D01*
X0127488Y0171134D01*
X0127264Y0170926D01*
X0126643Y0171154D01*
X0126772Y0171287D01*
X0126972Y0171520D01*
X0127044Y0171621D01*
X0127097Y0171711D01*
X0127131Y0171791D01*
X0127147Y0171860D01*
X0127143Y0171918D01*
X0127121Y0171965D01*
X0127079Y0172002D01*
X0128112Y0171363D01*
D02*
G37*
G36*
X0123821D02*
X0123767Y0171387D01*
X0123706Y0171396D01*
X0123638Y0171389D01*
X0123563Y0171369D01*
X0123482Y0171332D01*
X0123393Y0171281D01*
X0123298Y0171215D01*
X0123197Y0171134D01*
X0122973Y0170926D01*
X0122352Y0171154D01*
X0122480Y0171287D01*
X0122681Y0171520D01*
X0122753Y0171621D01*
X0122806Y0171711D01*
X0122840Y0171791D01*
X0122855Y0171860D01*
X0122852Y0171918D01*
X0122829Y0171965D01*
X0122788Y0172002D01*
X0123821Y0171363D01*
D02*
G37*
G36*
X0114581Y0170642D02*
X0114480Y0170606D01*
X0114392Y0170546D01*
X0114315Y0170463D01*
X0114250Y0170356D01*
X0114197Y0170224D01*
X0114155Y0170069D01*
X0114126Y0169890D01*
X0114108Y0169687D01*
X0114102Y0169461D01*
X0112921D01*
X0112915Y0169687D01*
X0112898Y0169890D01*
X0112868Y0170069D01*
X0112827Y0170224D01*
X0112774Y0170356D01*
X0112709Y0170463D01*
X0112632Y0170546D01*
X0112543Y0170606D01*
X0112443Y0170642D01*
X0112331Y0170654D01*
X0114693D01*
X0114581Y0170642D01*
D02*
G37*
G36*
X0114103Y0168747D02*
X0114127Y0168400D01*
X0114138Y0168338D01*
X0114151Y0168284D01*
X0114165Y0168241D01*
X0114182Y0168207D01*
X0114201Y0168183D01*
X0112823D01*
X0112841Y0168207D01*
X0112858Y0168241D01*
X0112873Y0168284D01*
X0112886Y0168338D01*
X0112897Y0168400D01*
X0112912Y0168554D01*
X0112920Y0168747D01*
X0112921Y0168858D01*
X0114102D01*
X0114103Y0168747D01*
D02*
G37*
G36*
X0117209Y0167456D02*
X0117182Y0167429D01*
X0117158Y0167395D01*
X0117137Y0167354D01*
X0117119Y0167307D01*
X0117105Y0167253D01*
X0117094Y0167192D01*
X0117086Y0167124D01*
X0117081Y0167050D01*
X0117079Y0166969D01*
X0116480D01*
X0116478Y0167050D01*
X0116465Y0167192D01*
X0116454Y0167253D01*
X0116440Y0167307D01*
X0116422Y0167354D01*
X0116402Y0167395D01*
X0116378Y0167429D01*
X0116350Y0167456D01*
X0116320Y0167476D01*
X0117239D01*
X0117209Y0167456D01*
D02*
G37*
G36*
X0133998Y0167092D02*
X0133921Y0167013D01*
X0133692Y0166751D01*
X0133655Y0166699D01*
X0133627Y0166652D01*
X0133606Y0166611D01*
X0133594Y0166576D01*
X0133590Y0166545D01*
X0132616Y0167520D01*
X0132646Y0167524D01*
X0132682Y0167535D01*
X0132723Y0167556D01*
X0132770Y0167584D01*
X0132822Y0167621D01*
X0132942Y0167719D01*
X0133084Y0167850D01*
X0133163Y0167927D01*
X0133998Y0167092D01*
D02*
G37*
G36*
X0131903Y0165847D02*
X0131879Y0165865D01*
X0131845Y0165882D01*
X0131802Y0165897D01*
X0131749Y0165909D01*
X0131686Y0165920D01*
X0131532Y0165936D01*
X0131339Y0165944D01*
X0131228Y0165945D01*
Y0167126D01*
X0131339Y0167127D01*
X0131686Y0167151D01*
X0131749Y0167161D01*
X0131802Y0167174D01*
X0131845Y0167189D01*
X0131879Y0167206D01*
X0131903Y0167224D01*
Y0165847D01*
D02*
G37*
G36*
X0122508Y0183105D02*
X0122567Y0183093D01*
X0122626Y0183105D01*
X0125461D01*
X0125520Y0183093D01*
X0125578Y0183105D01*
X0128414D01*
X0128472Y0183093D01*
X0128531Y0183105D01*
X0190422Y0183105D01*
X0190480Y0183093D01*
X0190539Y0183105D01*
X0193375Y0183105D01*
X0193433Y0183093D01*
X0193492Y0183105D01*
X0196327D01*
X0196386Y0183093D01*
X0196444Y0183105D01*
X0218900D01*
X0218900Y0165705D01*
X0218400Y0165553D01*
X0218366Y0165603D01*
X0209272Y0174697D01*
X0208941Y0174918D01*
X0208551Y0174996D01*
X0180638D01*
X0180247Y0174918D01*
X0179917Y0174697D01*
X0173295Y0168076D01*
X0173236Y0168088D01*
X0172657Y0167973D01*
X0172166Y0167645D01*
X0171838Y0167154D01*
X0171723Y0166575D01*
X0171838Y0165996D01*
X0172166Y0165505D01*
X0172657Y0165177D01*
X0173200Y0165069D01*
X0173236Y0165061D01*
X0173582Y0164620D01*
X0173575Y0164587D01*
X0173653Y0164196D01*
X0173873Y0163866D01*
X0174204Y0163645D01*
X0174294Y0163627D01*
X0174626Y0163405D01*
X0175205Y0163290D01*
X0175784Y0163405D01*
X0175825Y0163433D01*
X0176325Y0163165D01*
Y0161378D01*
X0176358Y0161212D01*
Y0161044D01*
X0176317Y0160945D01*
X0176317Y0159072D01*
X0174102D01*
X0174102Y0159072D01*
X0173523Y0158957D01*
X0173032Y0158629D01*
X0173032Y0158629D01*
X0171901Y0157498D01*
X0157213D01*
X0156768Y0157631D01*
Y0158083D01*
X0156768Y0158165D01*
Y0159173D01*
X0155008D01*
Y0159764D01*
X0154417D01*
Y0161445D01*
X0153575D01*
X0153159Y0161548D01*
X0152932Y0161814D01*
X0152866Y0161912D01*
X0152867Y0161919D01*
X0152860Y0161939D01*
X0152857Y0161951D01*
X0152854Y0161969D01*
X0152839Y0162189D01*
X0152852Y0162339D01*
X0152873Y0162470D01*
X0152899Y0162566D01*
X0152921Y0162623D01*
X0152928Y0162624D01*
X0152975Y0162650D01*
X0153382D01*
Y0162945D01*
X0153411Y0162953D01*
X0153517Y0162971D01*
X0153853Y0162999D01*
X0153872Y0162999D01*
X0153953Y0162997D01*
X0154117Y0162982D01*
X0154247Y0162961D01*
X0154342Y0162935D01*
X0154401Y0162911D01*
X0154401Y0162911D01*
X0154403Y0162896D01*
X0154429Y0162848D01*
Y0162374D01*
X0157709D01*
X0157791Y0162374D01*
X0158209D01*
X0158291Y0162374D01*
X0159299D01*
Y0162829D01*
X0159244Y0162866D01*
X0159177Y0162890D01*
X0159102Y0162898D01*
X0159299D01*
Y0164134D01*
Y0165894D01*
X0158291D01*
X0158209Y0165894D01*
X0157791D01*
X0157709Y0165894D01*
X0154429D01*
Y0165420D01*
X0154403Y0165372D01*
X0154401Y0165357D01*
X0154401Y0165357D01*
X0154342Y0165333D01*
X0154247Y0165307D01*
X0154117Y0165285D01*
X0153953Y0165271D01*
X0153930Y0165270D01*
X0153665Y0165280D01*
X0153524Y0165295D01*
X0153411Y0165315D01*
X0153382Y0165322D01*
Y0165618D01*
X0152940D01*
X0152870Y0165647D01*
X0152828Y0165630D01*
X0152783Y0165640D01*
X0152747Y0165618D01*
X0150020D01*
Y0163267D01*
X0149994Y0163219D01*
X0150002Y0163190D01*
X0149990Y0163162D01*
X0150020Y0163091D01*
Y0162650D01*
X0150426D01*
X0150474Y0162624D01*
X0150480Y0162623D01*
X0150503Y0162566D01*
X0150528Y0162470D01*
X0150550Y0162339D01*
X0150564Y0162175D01*
X0150564Y0162165D01*
X0150561Y0162097D01*
X0150549Y0161978D01*
X0150545Y0161951D01*
X0150542Y0161939D01*
X0150535Y0161919D01*
X0150535Y0161912D01*
X0150303Y0161563D01*
X0150188Y0160984D01*
X0150239Y0160727D01*
X0149778Y0160480D01*
X0149277Y0160981D01*
Y0165839D01*
X0149406D01*
Y0166959D01*
X0150020D01*
Y0166587D01*
X0153382D01*
Y0169555D01*
X0150020D01*
Y0169183D01*
X0149406D01*
Y0169358D01*
X0149277D01*
Y0170709D01*
X0149162Y0171288D01*
X0148834Y0171779D01*
X0148834Y0171779D01*
X0148244Y0172368D01*
X0148451Y0172868D01*
X0164417D01*
X0164766Y0172938D01*
X0165061Y0173135D01*
X0168573Y0176647D01*
X0168593Y0176676D01*
X0169170Y0176791D01*
X0169661Y0177119D01*
X0169989Y0177610D01*
X0170104Y0178189D01*
X0169989Y0178768D01*
X0169661Y0179259D01*
X0169170Y0179587D01*
X0168591Y0179702D01*
X0168011Y0179587D01*
X0167520Y0179259D01*
X0167505Y0179236D01*
X0166915Y0179253D01*
X0166532Y0179508D01*
X0165953Y0179624D01*
X0165374Y0179508D01*
X0164883Y0179180D01*
X0164555Y0178689D01*
X0164439Y0178110D01*
X0164477Y0177923D01*
X0162819Y0176266D01*
X0138692D01*
X0133841Y0181117D01*
X0133546Y0181314D01*
X0133197Y0181384D01*
X0126543D01*
X0126195Y0181314D01*
X0125899Y0181117D01*
X0123301Y0178518D01*
X0123103Y0178223D01*
X0123057Y0177993D01*
X0123010Y0177885D01*
X0123008Y0177776D01*
X0123006Y0177744D01*
X0122264D01*
Y0174776D01*
X0125626D01*
Y0177744D01*
X0125626D01*
X0125473Y0178113D01*
X0126921Y0179561D01*
X0127928D01*
X0128135Y0179061D01*
X0127592Y0178518D01*
X0127394Y0178223D01*
X0127349Y0177993D01*
X0127301Y0177885D01*
X0127299Y0177776D01*
X0127297Y0177744D01*
X0126555D01*
Y0174776D01*
X0129917D01*
Y0175842D01*
X0130417Y0175962D01*
X0130670Y0175583D01*
X0135376Y0170878D01*
X0132831Y0168332D01*
X0132784Y0168313D01*
X0132711Y0168242D01*
X0132588Y0168128D01*
X0132494Y0168052D01*
X0132472Y0168037D01*
X0132462Y0168030D01*
X0132443Y0168021D01*
X0132438Y0168015D01*
X0132027Y0167934D01*
X0131679Y0167701D01*
X0131671Y0167701D01*
X0131651Y0167694D01*
X0131640Y0167692D01*
X0131622Y0167689D01*
X0131318Y0167668D01*
X0131224Y0167667D01*
X0131177Y0167647D01*
X0130283D01*
X0130283Y0167647D01*
X0129858Y0167563D01*
X0129497Y0167322D01*
X0129497Y0167322D01*
X0129368Y0167193D01*
X0127776D01*
Y0163831D01*
X0130601D01*
X0130930Y0163622D01*
X0131069Y0163465D01*
X0131169Y0162964D01*
X0131497Y0162473D01*
X0131988Y0162145D01*
X0132567Y0162030D01*
X0132984Y0162113D01*
X0133484Y0161816D01*
Y0161004D01*
X0133469Y0160983D01*
X0133484Y0160891D01*
Y0160755D01*
X0133462Y0160717D01*
X0133425Y0160663D01*
X0133279Y0160488D01*
X0133182Y0160387D01*
X0133159Y0160328D01*
X0132780Y0159950D01*
X0119240D01*
X0119149Y0160086D01*
X0118658Y0160414D01*
X0118079Y0160529D01*
X0117499Y0160414D01*
X0117008Y0160086D01*
X0116681Y0159595D01*
X0116565Y0159016D01*
X0116681Y0158437D01*
X0117008Y0157946D01*
X0117499Y0157617D01*
X0118079Y0157502D01*
X0118658Y0157617D01*
X0119149Y0157946D01*
X0119398Y0158318D01*
X0133118D01*
X0133118Y0158318D01*
X0133430Y0158380D01*
X0133695Y0158557D01*
X0134112Y0158974D01*
X0134169Y0158995D01*
X0134408Y0159219D01*
X0134490Y0159285D01*
X0134510Y0159299D01*
X0134526Y0159288D01*
X0134572Y0159296D01*
X0134615Y0159275D01*
X0134696Y0159303D01*
X0136453D01*
Y0162665D01*
X0134901D01*
X0134694Y0163165D01*
X0136296Y0164768D01*
X0137401D01*
X0137447Y0164747D01*
X0137635Y0164740D01*
X0137695Y0164734D01*
X0137749Y0164725D01*
X0137791Y0164716D01*
X0137820Y0164707D01*
X0137835Y0164701D01*
X0137844Y0164693D01*
X0137853Y0164690D01*
X0137861Y0164685D01*
X0137878Y0164681D01*
X0137901Y0164673D01*
X0138326Y0164389D01*
X0138905Y0164274D01*
X0139485Y0164389D01*
X0139976Y0164717D01*
X0140304Y0165208D01*
X0140419Y0165787D01*
X0140304Y0166367D01*
X0139976Y0166858D01*
X0139485Y0167185D01*
X0138905Y0167301D01*
X0138326Y0167185D01*
X0137901Y0166902D01*
X0137878Y0166894D01*
X0137861Y0166890D01*
X0137853Y0166885D01*
X0137844Y0166882D01*
X0137835Y0166874D01*
X0137820Y0166868D01*
X0137791Y0166859D01*
X0137749Y0166850D01*
X0137701Y0166842D01*
X0137547Y0166830D01*
X0137457Y0166829D01*
X0137408Y0166807D01*
X0135874D01*
X0135484Y0166729D01*
X0135153Y0166508D01*
X0134744Y0166099D01*
X0134233Y0166296D01*
X0134221Y0166534D01*
X0134318Y0166645D01*
X0134384Y0166713D01*
X0134403Y0166760D01*
X0137526Y0169883D01*
X0137698Y0170140D01*
X0146192D01*
X0146250Y0170082D01*
Y0169565D01*
X0146043Y0169358D01*
X0145626D01*
X0145543Y0169358D01*
X0144535D01*
Y0167598D01*
Y0165839D01*
X0145543D01*
X0145626Y0165839D01*
X0146043D01*
X0146250Y0165390D01*
Y0160354D01*
X0146250Y0160354D01*
X0146366Y0159775D01*
X0146694Y0159284D01*
X0147519Y0158459D01*
X0147757Y0158103D01*
X0148112Y0157866D01*
X0151064Y0154914D01*
X0151555Y0154586D01*
X0152134Y0154471D01*
X0152134Y0154471D01*
X0153248D01*
Y0154303D01*
X0156768D01*
Y0154471D01*
X0172528D01*
X0172528Y0154471D01*
X0173107Y0154586D01*
X0173598Y0154914D01*
X0174729Y0156046D01*
X0177685D01*
X0177754Y0155976D01*
Y0151614D01*
X0177754Y0151614D01*
X0177839Y0151189D01*
X0178080Y0150828D01*
X0179425Y0149483D01*
X0179365Y0149194D01*
X0179237Y0148983D01*
X0166945D01*
X0165645Y0150283D01*
X0164992Y0150720D01*
X0164220Y0150873D01*
X0152811D01*
X0151000Y0152685D01*
X0150346Y0153122D01*
X0149575Y0153275D01*
X0124307D01*
X0122850Y0154732D01*
X0122196Y0155169D01*
X0121425Y0155322D01*
X0119664D01*
X0119321Y0155770D01*
X0118599Y0156323D01*
X0117760Y0156671D01*
X0116858Y0156790D01*
X0115957Y0156671D01*
X0115117Y0156323D01*
X0114396Y0155770D01*
X0113842Y0155048D01*
X0113494Y0154208D01*
X0113376Y0153307D01*
X0113494Y0152406D01*
X0113842Y0151566D01*
X0114396Y0150845D01*
X0115117Y0150291D01*
X0115957Y0149943D01*
X0116858Y0149825D01*
X0117760Y0149943D01*
X0118599Y0150291D01*
X0119321Y0150845D01*
X0119664Y0151292D01*
X0120590D01*
X0122048Y0149835D01*
X0122701Y0149398D01*
X0123472Y0149245D01*
X0148740D01*
X0150551Y0147433D01*
X0151205Y0146996D01*
X0151976Y0146843D01*
X0163386D01*
X0164686Y0145543D01*
X0165339Y0145106D01*
X0166111Y0144953D01*
X0167284D01*
Y0139181D01*
X0162072Y0133969D01*
X0162060Y0133970D01*
X0161562Y0134166D01*
X0161485Y0134555D01*
X0161157Y0135047D01*
X0160666Y0135374D01*
X0160087Y0135490D01*
X0159508Y0135374D01*
X0159017Y0135047D01*
X0159012Y0135045D01*
X0158448Y0135095D01*
X0158243Y0135401D01*
X0157752Y0135729D01*
X0157173Y0135844D01*
X0156594Y0135729D01*
X0156103Y0135401D01*
X0155775Y0134910D01*
X0155660Y0134331D01*
X0155775Y0133752D01*
X0156103Y0133261D01*
X0156262Y0133154D01*
Y0128174D01*
X0155905Y0127827D01*
X0155397Y0127851D01*
X0155089Y0128246D01*
X0155096Y0128284D01*
Y0139449D01*
X0155096Y0139449D01*
X0155011Y0139874D01*
X0154771Y0140235D01*
X0154771Y0140235D01*
X0147034Y0147971D01*
X0146674Y0148212D01*
X0146248Y0148297D01*
X0146248Y0148297D01*
X0145366D01*
X0144937Y0148583D01*
X0144358Y0148698D01*
X0143779Y0148583D01*
X0143288Y0148255D01*
X0142960Y0147764D01*
X0142845Y0147185D01*
X0142960Y0146606D01*
X0143288Y0146115D01*
X0143779Y0145787D01*
X0144358Y0145672D01*
X0144937Y0145787D01*
X0145366Y0146073D01*
X0145787D01*
X0152872Y0138988D01*
Y0128779D01*
X0152022Y0127928D01*
X0151963Y0127889D01*
X0151963Y0127889D01*
X0151237Y0127163D01*
X0143905D01*
X0136503Y0134566D01*
X0136142Y0134807D01*
X0135717Y0134891D01*
X0135716Y0134891D01*
X0131386D01*
X0130960Y0134807D01*
X0130600Y0134566D01*
X0130600Y0134566D01*
X0128182Y0132148D01*
X0127940Y0131787D01*
X0127856Y0131361D01*
X0127856Y0131361D01*
Y0124413D01*
X0127856Y0124413D01*
X0127940Y0123988D01*
X0128182Y0123627D01*
X0129219Y0122590D01*
Y0122000D01*
X0129219Y0122000D01*
X0129303Y0121574D01*
X0129544Y0121214D01*
X0131220Y0119538D01*
X0131220Y0119538D01*
X0131581Y0119297D01*
X0132006Y0119212D01*
X0132074Y0119226D01*
X0135252D01*
X0135680Y0118940D01*
X0136260Y0118825D01*
X0136839Y0118940D01*
X0137330Y0119268D01*
X0137658Y0119759D01*
X0137773Y0120338D01*
X0137658Y0120917D01*
X0137330Y0121408D01*
X0136839Y0121736D01*
X0136260Y0121851D01*
X0135680Y0121736D01*
X0135252Y0121450D01*
X0132453D01*
X0131537Y0122366D01*
X0131580Y0122803D01*
X0132009Y0123110D01*
X0132292Y0123054D01*
X0132871Y0123169D01*
X0133362Y0123497D01*
X0133468Y0123656D01*
X0152313D01*
X0152488Y0123512D01*
X0152488Y0117210D01*
X0128531Y0117210D01*
X0128472Y0117222D01*
X0128414Y0117210D01*
X0125578D01*
X0125520Y0117222D01*
X0125461Y0117210D01*
X0122626D01*
X0122567Y0117222D01*
X0122508Y0117210D01*
X0110052D01*
X0109698Y0117564D01*
X0109699Y0131928D01*
X0123748D01*
Y0134239D01*
X0123761Y0134256D01*
X0124089Y0135048D01*
X0124201Y0135898D01*
X0124089Y0136748D01*
X0123761Y0137540D01*
X0123748Y0137557D01*
Y0139802D01*
X0109698D01*
Y0142283D01*
X0109629Y0142632D01*
X0109505Y0142818D01*
X0109517Y0142882D01*
X0109633Y0143194D01*
X0109726Y0143318D01*
X0119979D01*
X0120036Y0143293D01*
X0120136Y0143290D01*
X0120138Y0143290D01*
Y0142453D01*
X0123106D01*
Y0145815D01*
X0120138D01*
Y0144978D01*
X0120136Y0144977D01*
X0120036Y0144975D01*
X0119979Y0144949D01*
X0109181D01*
Y0154398D01*
X0124401Y0169617D01*
X0126346D01*
X0126347Y0169617D01*
X0126659Y0169679D01*
X0126923Y0169856D01*
X0127575Y0170508D01*
X0127632Y0170529D01*
X0127841Y0170723D01*
X0127913Y0170781D01*
X0127976Y0170824D01*
X0128000Y0170839D01*
X0128219D01*
X0128236Y0170836D01*
X0128240Y0170839D01*
X0129917D01*
Y0173807D01*
X0126555D01*
Y0172017D01*
X0126539Y0171970D01*
X0126555Y0171937D01*
Y0171896D01*
X0126552Y0171878D01*
X0126555Y0171874D01*
Y0171867D01*
X0126546Y0171854D01*
X0126372Y0171651D01*
X0126254Y0171530D01*
X0126231Y0171471D01*
X0126126Y0171366D01*
X0125626Y0171532D01*
Y0173807D01*
X0122264D01*
Y0172017D01*
X0122248Y0171970D01*
X0122264Y0171937D01*
Y0171896D01*
X0122261Y0171878D01*
X0122264Y0171874D01*
Y0171867D01*
X0122255Y0171854D01*
X0122080Y0171651D01*
X0121963Y0171530D01*
X0121939Y0171471D01*
X0118772Y0168304D01*
X0118687Y0168311D01*
X0118262Y0168501D01*
X0118178Y0168926D01*
X0117850Y0169416D01*
X0117359Y0169745D01*
X0116779Y0169860D01*
X0116200Y0169745D01*
X0115709Y0169416D01*
X0115381Y0168926D01*
X0115348Y0168759D01*
X0114803Y0168581D01*
X0114647Y0168723D01*
X0114644Y0168768D01*
X0114644Y0168863D01*
X0114624Y0168910D01*
Y0169403D01*
X0114643Y0169447D01*
X0114649Y0169657D01*
X0114663Y0169823D01*
X0114685Y0169955D01*
X0114711Y0170052D01*
X0114735Y0170112D01*
X0114736Y0170114D01*
X0114750Y0170116D01*
X0114776Y0170130D01*
X0115587D01*
Y0174279D01*
X0111437D01*
Y0170130D01*
X0112248D01*
X0112274Y0170116D01*
X0112287Y0170114D01*
X0112288Y0170112D01*
X0112312Y0170053D01*
X0112338Y0169955D01*
X0112360Y0169823D01*
X0112375Y0169657D01*
X0112380Y0169447D01*
X0112400Y0169403D01*
Y0168910D01*
X0112380Y0168863D01*
X0112379Y0168761D01*
X0112372Y0168593D01*
X0112360Y0168474D01*
X0112356Y0168447D01*
X0112353Y0168435D01*
X0112346Y0168415D01*
X0112346Y0168408D01*
X0112114Y0168059D01*
X0111998Y0167480D01*
X0112114Y0166901D01*
X0112442Y0166410D01*
X0112933Y0166082D01*
X0113512Y0165967D01*
X0113547Y0165974D01*
X0114084Y0165571D01*
X0114095Y0165438D01*
X0110969Y0162312D01*
X0109181D01*
Y0163519D01*
X0109432Y0163687D01*
X0109629Y0163982D01*
X0109698Y0164331D01*
X0109698Y0166693D01*
X0109698Y0183105D01*
X0122508D01*
D02*
G37*
G36*
X0138203Y0165098D02*
X0138162Y0165134D01*
X0138114Y0165166D01*
X0138058Y0165195D01*
X0137996Y0165219D01*
X0137926Y0165240D01*
X0137849Y0165257D01*
X0137764Y0165270D01*
X0137672Y0165280D01*
X0137467Y0165287D01*
Y0166287D01*
X0137573Y0166289D01*
X0137764Y0166304D01*
X0137849Y0166318D01*
X0137926Y0166335D01*
X0137996Y0166355D01*
X0138058Y0166380D01*
X0138114Y0166408D01*
X0138162Y0166440D01*
X0138203Y0166476D01*
Y0165098D01*
D02*
G37*
G36*
X0154941Y0162953D02*
X0154929Y0163065D01*
X0154894Y0163165D01*
X0154835Y0163254D01*
X0154752Y0163331D01*
X0154646Y0163396D01*
X0154516Y0163449D01*
X0154362Y0163490D01*
X0154185Y0163520D01*
X0153984Y0163537D01*
X0153874Y0163540D01*
X0153827Y0163540D01*
X0153449Y0163509D01*
X0153295Y0163482D01*
X0153165Y0163448D01*
X0153059Y0163406D01*
X0152976Y0163356D01*
X0152917Y0163299D01*
X0152882Y0163234D01*
X0152870Y0163162D01*
X0152760Y0163150D01*
X0152662Y0163114D01*
X0152575Y0163055D01*
X0152500Y0162973D01*
X0152436Y0162866D01*
X0152384Y0162736D01*
X0152343Y0162583D01*
X0152314Y0162406D01*
X0152297Y0162205D01*
X0152297Y0162187D01*
X0152316Y0161904D01*
X0152327Y0161841D01*
X0152340Y0161788D01*
X0152354Y0161745D01*
X0152371Y0161711D01*
X0152390Y0161687D01*
X0151012D01*
X0151031Y0161711D01*
X0151047Y0161745D01*
X0151062Y0161788D01*
X0151075Y0161841D01*
X0151086Y0161904D01*
X0151101Y0162058D01*
X0151106Y0162161D01*
X0151104Y0162205D01*
X0151087Y0162406D01*
X0151058Y0162583D01*
X0151018Y0162736D01*
X0150966Y0162866D01*
X0150902Y0162973D01*
X0150827Y0163055D01*
X0150740Y0163114D01*
X0150642Y0163150D01*
X0150532Y0163162D01*
X0152870D01*
Y0165106D01*
X0152882Y0165034D01*
X0152917Y0164969D01*
X0152976Y0164911D01*
X0153059Y0164862D01*
X0153165Y0164820D01*
X0153295Y0164786D01*
X0153449Y0164759D01*
X0153626Y0164740D01*
X0153928Y0164729D01*
X0153984Y0164730D01*
X0154185Y0164748D01*
X0154362Y0164778D01*
X0154516Y0164819D01*
X0154646Y0164872D01*
X0154752Y0164937D01*
X0154835Y0165014D01*
X0154894Y0165102D01*
X0154929Y0165203D01*
X0154941Y0165315D01*
Y0162953D01*
D02*
G37*
G36*
X0209464Y0168984D02*
X0209400Y0168661D01*
X0209515Y0168082D01*
X0209843Y0167591D01*
X0210334Y0167263D01*
X0210913Y0167148D01*
X0211492Y0167263D01*
X0211983Y0167591D01*
X0212305Y0168073D01*
X0212357Y0168149D01*
X0212848Y0168237D01*
X0216626Y0164460D01*
Y0150631D01*
X0216575Y0150598D01*
X0216247Y0150107D01*
X0216132Y0149528D01*
X0216247Y0148948D01*
X0216575Y0148457D01*
X0217066Y0148129D01*
X0217645Y0148014D01*
X0218225Y0148129D01*
X0218400Y0148247D01*
X0218900Y0147979D01*
X0218900Y0117210D01*
X0206138D01*
Y0125067D01*
X0205729D01*
X0205638Y0125157D01*
Y0125157D01*
X0204387D01*
Y0152464D01*
X0204465Y0152480D01*
X0204956Y0152808D01*
X0205284Y0153299D01*
X0205399Y0153878D01*
X0205284Y0154457D01*
X0204956Y0154948D01*
X0204465Y0155276D01*
X0203886Y0155391D01*
X0203307Y0155276D01*
X0202816Y0154948D01*
X0202680Y0154746D01*
X0202180Y0154897D01*
Y0155829D01*
X0202202Y0155838D01*
X0202360Y0156220D01*
Y0160669D01*
X0202202Y0161052D01*
X0201819Y0161211D01*
X0190008D01*
X0189625Y0161052D01*
X0189625Y0161052D01*
X0188443Y0159870D01*
X0188209D01*
Y0159470D01*
X0188168Y0159370D01*
X0188168Y0159370D01*
Y0156220D01*
X0188209Y0156121D01*
Y0151784D01*
X0188209D01*
X0188148Y0151309D01*
X0183758D01*
X0183697Y0151784D01*
X0183697D01*
Y0155720D01*
Y0158189D01*
X0181819D01*
Y0158780D01*
X0181228D01*
Y0159870D01*
X0180740D01*
X0180391Y0160370D01*
X0180404Y0160406D01*
X0181228D01*
Y0162165D01*
X0181819D01*
Y0162756D01*
X0183500D01*
Y0163925D01*
X0183939Y0164073D01*
X0203701D01*
X0204397Y0163608D01*
X0205283Y0163432D01*
X0206170Y0163608D01*
X0206921Y0164110D01*
X0207423Y0164862D01*
X0207600Y0165748D01*
X0207423Y0166634D01*
X0206921Y0167386D01*
X0206170Y0167888D01*
X0205283Y0168064D01*
X0204397Y0167888D01*
X0203819Y0167501D01*
X0180362D01*
X0179706Y0167371D01*
X0179150Y0166999D01*
X0177561Y0165410D01*
X0177007Y0165563D01*
X0176995Y0165611D01*
X0182742Y0171358D01*
X0207089D01*
X0209464Y0168984D01*
D02*
G37*
G36*
X0134648Y0159815D02*
X0134610Y0159858D01*
X0134562Y0159882D01*
X0134503Y0159887D01*
X0134434Y0159873D01*
X0134354Y0159840D01*
X0134264Y0159788D01*
X0134164Y0159717D01*
X0134053Y0159627D01*
X0133799Y0159391D01*
X0133572Y0160012D01*
X0133682Y0160126D01*
X0133857Y0160335D01*
X0133922Y0160430D01*
X0133972Y0160518D01*
X0134007Y0160599D01*
X0134027Y0160674D01*
X0134031Y0160743D01*
X0134021Y0160805D01*
X0133996Y0160861D01*
X0134648Y0159815D01*
D02*
G37*
G36*
X0107362Y0158961D02*
X0107441Y0158895D01*
X0107520Y0158837D01*
X0107601Y0158786D01*
X0107683Y0158744D01*
X0107766Y0158709D01*
X0107850Y0158681D01*
X0107936Y0158662D01*
X0108022Y0158650D01*
X0108111Y0158647D01*
Y0158046D01*
X0108022Y0158043D01*
X0107936Y0158031D01*
X0107850Y0158011D01*
X0107766Y0157984D01*
X0107683Y0157949D01*
X0107601Y0157906D01*
X0107520Y0157856D01*
X0107441Y0157798D01*
X0107362Y0157731D01*
X0107286Y0157658D01*
Y0159035D01*
X0107362Y0158961D01*
D02*
G37*
G36*
X0201819Y0156220D02*
X0188709D01*
Y0159370D01*
X0190008Y0160669D01*
X0201819D01*
Y0156220D01*
D02*
G37*
G36*
X0179220Y0158268D02*
X0180087Y0157402D01*
X0180638Y0157402D01*
X0180638Y0156850D01*
X0180638Y0156220D01*
X0178276Y0156220D01*
X0176858Y0157638D01*
X0176858Y0160945D01*
X0179220D01*
X0179220Y0158268D01*
D02*
G37*
G36*
X0120662Y0143534D02*
X0120656Y0143591D01*
X0120637Y0143642D01*
X0120607Y0143687D01*
X0120564Y0143726D01*
X0120509Y0143759D01*
X0120441Y0143786D01*
X0120362Y0143807D01*
X0120270Y0143822D01*
X0120166Y0143831D01*
X0120050Y0143834D01*
Y0144434D01*
X0120166Y0144437D01*
X0120270Y0144446D01*
X0120362Y0144461D01*
X0120441Y0144482D01*
X0120509Y0144509D01*
X0120564Y0144542D01*
X0120607Y0144581D01*
X0120637Y0144626D01*
X0120656Y0144677D01*
X0120662Y0144734D01*
Y0143534D01*
D02*
G37*
G36*
X0198111Y0143965D02*
X0197854D01*
Y0138429D01*
X0197825Y0138358D01*
X0197854Y0138288D01*
X0197854Y0138276D01*
X0197847Y0138207D01*
X0197854Y0137846D01*
X0197984D01*
X0198084Y0136283D01*
X0198083Y0136221D01*
X0198040Y0135539D01*
X0198012Y0135303D01*
X0198005Y0135264D01*
X0197854Y0135264D01*
X0197847Y0134903D01*
X0197854Y0134834D01*
X0197854Y0134822D01*
X0197825Y0134752D01*
X0197854Y0134681D01*
Y0129146D01*
X0202164D01*
Y0125157D01*
X0185773Y0125157D01*
X0185589Y0125503D01*
X0185551Y0125657D01*
X0185655Y0126181D01*
X0185540Y0126760D01*
X0185212Y0127251D01*
X0184721Y0127579D01*
X0184142Y0127694D01*
X0183562Y0127579D01*
X0183071Y0127251D01*
X0183032Y0127193D01*
X0182409D01*
X0182022Y0127116D01*
X0181694Y0126896D01*
X0180119Y0125321D01*
X0180010Y0125157D01*
X0173390D01*
X0173067Y0125524D01*
Y0129043D01*
X0169787D01*
X0169705Y0129043D01*
X0169287D01*
X0169205Y0129043D01*
X0168197D01*
Y0127284D01*
X0167606D01*
Y0126693D01*
X0165925D01*
Y0125657D01*
X0165602Y0125157D01*
X0163937D01*
X0163620Y0125544D01*
X0163677Y0125827D01*
Y0129874D01*
X0170724Y0136922D01*
X0171161Y0137575D01*
X0171314Y0138347D01*
Y0144953D01*
X0188671D01*
X0188917Y0144555D01*
Y0141193D01*
X0189290Y0141181D01*
X0189374Y0140756D01*
X0189615Y0140395D01*
X0190077Y0139933D01*
Y0138976D01*
X0190098Y0138869D01*
Y0137689D01*
X0195429D01*
Y0138869D01*
X0195450Y0138976D01*
Y0141193D01*
X0195823D01*
Y0144555D01*
X0196069Y0144953D01*
X0198111D01*
Y0143965D01*
D02*
G37*
G36*
X0201832Y0138329D02*
X0201784Y0138240D01*
X0201741Y0138093D01*
X0201704Y0137886D01*
X0201673Y0137620D01*
X0201628Y0136912D01*
X0201626Y0136815D01*
X0201741Y0135018D01*
X0201784Y0134870D01*
X0201832Y0134781D01*
X0201886Y0134752D01*
X0198366D01*
X0198420Y0134781D01*
X0198468Y0134870D01*
X0198511Y0135018D01*
X0198548Y0135224D01*
X0198579Y0135490D01*
X0198624Y0136199D01*
X0198626Y0136295D01*
X0198511Y0138093D01*
X0198468Y0138240D01*
X0198420Y0138329D01*
X0198366Y0138358D01*
X0201886D01*
X0201832Y0138329D01*
D02*
G37*
%LPC*%
G36*
X0115587Y0180579D02*
X0114102D01*
Y0179095D01*
X0115587D01*
Y0180579D01*
D02*
G37*
G36*
X0112921D02*
X0111437D01*
Y0179095D01*
X0112921D01*
Y0180579D01*
D02*
G37*
G36*
X0115587Y0177913D02*
X0114102D01*
Y0176429D01*
X0115587D01*
Y0177913D01*
D02*
G37*
G36*
X0112921D02*
X0111437D01*
Y0176429D01*
X0112921D01*
Y0177913D01*
D02*
G37*
G36*
X0185992Y0180580D02*
X0185183Y0180419D01*
X0184496Y0179960D01*
X0184038Y0179274D01*
X0183877Y0178465D01*
X0184038Y0177655D01*
X0184496Y0176969D01*
X0185183Y0176510D01*
X0185992Y0176349D01*
X0186802Y0176510D01*
X0187488Y0176969D01*
X0187947Y0177655D01*
X0188108Y0178465D01*
X0187947Y0179274D01*
X0187488Y0179960D01*
X0186802Y0180419D01*
X0185992Y0180580D01*
D02*
G37*
G36*
X0143354Y0169358D02*
X0142264D01*
Y0168189D01*
X0143354D01*
Y0169358D01*
D02*
G37*
G36*
Y0167008D02*
X0142264D01*
Y0165839D01*
X0143354D01*
Y0167008D01*
D02*
G37*
G36*
X0165508Y0165933D02*
X0164614D01*
Y0164842D01*
X0165508D01*
Y0165933D01*
D02*
G37*
G36*
X0163433D02*
X0162539D01*
Y0164842D01*
X0162983D01*
X0163020Y0164898D01*
X0163043Y0164965D01*
X0163051Y0165039D01*
Y0164842D01*
X0163433D01*
Y0165933D01*
D02*
G37*
G36*
X0160480Y0165894D02*
Y0164724D01*
X0161047D01*
Y0165039D01*
X0161055Y0164965D01*
X0161079Y0164898D01*
X0161119Y0164839D01*
X0161175Y0164787D01*
X0161247Y0164744D01*
X0161296Y0164724D01*
X0161571D01*
Y0165894D01*
X0160480D01*
D02*
G37*
G36*
X0163433Y0163661D02*
X0163051D01*
Y0163465D01*
X0163043Y0163539D01*
X0163020Y0163606D01*
X0162983Y0163661D01*
X0162539D01*
Y0162571D01*
X0163433D01*
Y0163661D01*
D02*
G37*
G36*
X0161571Y0163543D02*
X0161056D01*
X0161055Y0163539D01*
X0161047Y0163465D01*
Y0163543D01*
X0160480D01*
Y0162898D01*
X0160677D01*
X0160602Y0162890D01*
X0160535Y0162866D01*
X0160480Y0162829D01*
Y0162374D01*
X0161571D01*
Y0163543D01*
D02*
G37*
G36*
X0139881Y0162695D02*
X0139844Y0162680D01*
X0139805Y0162690D01*
X0139763Y0162665D01*
X0137421D01*
Y0159303D01*
X0140390D01*
Y0159460D01*
X0140890Y0159728D01*
X0140925Y0159704D01*
X0141504Y0159589D01*
X0142083Y0159704D01*
X0142574Y0160032D01*
X0142902Y0160523D01*
X0143017Y0161102D01*
X0142902Y0161681D01*
X0142574Y0162172D01*
X0142083Y0162501D01*
X0141504Y0162616D01*
X0140925Y0162501D01*
X0140890Y0162477D01*
X0140390Y0162665D01*
Y0162665D01*
X0139899Y0162687D01*
X0139881Y0162695D01*
D02*
G37*
G36*
X0174535Y0177537D02*
X0173956Y0177422D01*
X0173465Y0177094D01*
X0173137Y0176603D01*
X0173037Y0176098D01*
X0167174Y0170235D01*
X0166933Y0169874D01*
X0166849Y0169449D01*
X0166849Y0169449D01*
Y0165933D01*
X0166476D01*
Y0162571D01*
X0169445D01*
Y0165933D01*
X0169073D01*
Y0168988D01*
X0174609Y0174525D01*
X0175115Y0174626D01*
X0175605Y0174953D01*
X0175934Y0175444D01*
X0176049Y0176024D01*
X0175934Y0176603D01*
X0175605Y0177094D01*
X0175115Y0177422D01*
X0174535Y0177537D01*
D02*
G37*
G36*
X0165508Y0163661D02*
X0164614D01*
Y0162571D01*
X0165508D01*
Y0163661D01*
D02*
G37*
G36*
X0126807Y0167193D02*
X0123839D01*
Y0163831D01*
X0123898D01*
X0123938Y0163818D01*
X0123954Y0163811D01*
X0124068Y0163661D01*
X0124133Y0163540D01*
X0124185Y0163331D01*
X0123925Y0162941D01*
X0123810Y0162362D01*
X0123925Y0161783D01*
X0124253Y0161292D01*
X0124744Y0160964D01*
X0125323Y0160849D01*
X0125902Y0160964D01*
X0126393Y0161292D01*
X0126721Y0161783D01*
X0126836Y0162362D01*
X0126721Y0162941D01*
X0126461Y0163331D01*
X0126513Y0163540D01*
X0126578Y0163661D01*
X0126691Y0163811D01*
X0126708Y0163818D01*
X0126747Y0163831D01*
X0126807D01*
Y0167193D01*
D02*
G37*
G36*
X0155598Y0161445D02*
Y0160354D01*
X0156768D01*
Y0161445D01*
X0155598D01*
D02*
G37*
G36*
X0127043Y0145815D02*
X0124075D01*
Y0142453D01*
X0127043D01*
Y0143122D01*
X0138487D01*
X0140986Y0140623D01*
X0141314Y0140404D01*
X0141701Y0140327D01*
X0145416D01*
X0148367Y0137376D01*
Y0131357D01*
X0148308Y0131318D01*
X0147980Y0130827D01*
X0147865Y0130248D01*
X0147980Y0129669D01*
X0148308Y0129178D01*
X0148799Y0128850D01*
X0149379Y0128735D01*
X0149958Y0128850D01*
X0150449Y0129178D01*
X0150777Y0129669D01*
X0150892Y0130248D01*
X0150777Y0130827D01*
X0150449Y0131318D01*
X0150390Y0131357D01*
Y0137795D01*
X0150313Y0138182D01*
X0150094Y0138510D01*
X0146550Y0142054D01*
X0146222Y0142273D01*
X0145835Y0142350D01*
X0142120D01*
X0139621Y0144849D01*
X0139293Y0145068D01*
X0138906Y0145145D01*
X0127043D01*
Y0145815D01*
D02*
G37*
%LPD*%
G36*
X0139890Y0162066D02*
X0139925Y0161988D01*
X0139984Y0161918D01*
X0140067Y0161859D01*
X0140173Y0161808D01*
X0140303Y0161767D01*
X0140456Y0161734D01*
X0140585Y0161718D01*
X0140647Y0161728D01*
X0140700Y0161741D01*
X0140743Y0161756D01*
X0140777Y0161773D01*
X0140801Y0161791D01*
Y0161700D01*
X0140834Y0161697D01*
X0141059Y0161693D01*
Y0160512D01*
X0140833Y0160506D01*
X0140801Y0160503D01*
Y0160413D01*
X0140777Y0160432D01*
X0140743Y0160449D01*
X0140700Y0160464D01*
X0140647Y0160476D01*
X0140604Y0160484D01*
X0140452Y0160459D01*
X0140297Y0160417D01*
X0140166Y0160364D01*
X0140058Y0160299D01*
X0139974Y0160222D01*
X0139915Y0160134D01*
X0139878Y0160034D01*
X0139866Y0159921D01*
X0139878Y0162153D01*
X0139890Y0162066D01*
D02*
G37*
G36*
X0126035Y0164347D02*
X0125969Y0164323D01*
X0125909Y0164283D01*
X0125858Y0164227D01*
X0125815Y0164155D01*
X0125779Y0164067D01*
X0125752Y0163963D01*
X0125732Y0163843D01*
X0125722Y0163728D01*
X0125728Y0163663D01*
X0125743Y0163574D01*
X0125764Y0163488D01*
X0125790Y0163407D01*
X0125823Y0163330D01*
X0125861Y0163258D01*
X0125906Y0163189D01*
X0125956Y0163125D01*
X0126012Y0163065D01*
X0124634D01*
X0124690Y0163125D01*
X0124740Y0163189D01*
X0124784Y0163258D01*
X0124823Y0163330D01*
X0124855Y0163407D01*
X0124882Y0163488D01*
X0124903Y0163574D01*
X0124917Y0163663D01*
X0124923Y0163728D01*
X0124913Y0163843D01*
X0124894Y0163963D01*
X0124866Y0164067D01*
X0124831Y0164155D01*
X0124787Y0164227D01*
X0124736Y0164283D01*
X0124677Y0164323D01*
X0124610Y0164347D01*
X0124535Y0164355D01*
X0126110D01*
X0126035Y0164347D01*
D02*
G37*
%LPC*%
G36*
X0183500Y0161575D02*
X0182409D01*
Y0160406D01*
X0183500D01*
Y0161575D01*
D02*
G37*
G36*
X0183697Y0159870D02*
X0182409D01*
Y0159370D01*
X0183697D01*
Y0159870D01*
D02*
G37*
G36*
X0208224Y0160382D02*
X0206740D01*
Y0158898D01*
X0208224D01*
Y0160382D01*
D02*
G37*
G36*
X0205559D02*
X0204075D01*
Y0158898D01*
X0205559D01*
Y0160382D01*
D02*
G37*
G36*
X0208224Y0157717D02*
X0206740D01*
Y0156232D01*
X0208224D01*
Y0157717D01*
D02*
G37*
G36*
X0205559D02*
X0204075D01*
Y0156232D01*
X0205559D01*
Y0157717D01*
D02*
G37*
G36*
X0209878Y0143965D02*
X0208197D01*
Y0141496D01*
X0209878D01*
Y0143965D01*
D02*
G37*
G36*
X0207016D02*
X0205335D01*
Y0141496D01*
X0207016D01*
Y0143965D01*
D02*
G37*
G36*
X0209878Y0140315D02*
X0208197D01*
Y0137847D01*
X0209878D01*
Y0140315D01*
D02*
G37*
G36*
X0207016D02*
X0205335D01*
Y0137847D01*
X0207016D01*
Y0140315D01*
D02*
G37*
G36*
X0209878Y0135264D02*
X0208197D01*
Y0132795D01*
X0209878D01*
Y0135264D01*
D02*
G37*
G36*
X0207016D02*
X0205335D01*
Y0132795D01*
X0207016D01*
Y0135264D01*
D02*
G37*
G36*
X0209878Y0131614D02*
X0208197D01*
Y0129146D01*
X0209878D01*
Y0131614D01*
D02*
G37*
G36*
X0207016D02*
X0205335D01*
Y0129146D01*
X0207016D01*
Y0131614D01*
D02*
G37*
G36*
X0190598Y0136721D02*
X0190098D01*
Y0136024D01*
X0190598D01*
Y0136721D01*
D02*
G37*
G36*
X0179051Y0138610D02*
X0176083D01*
Y0135248D01*
X0176455D01*
Y0132760D01*
X0176444Y0132745D01*
X0176389Y0132465D01*
X0175846Y0132301D01*
X0174916Y0133231D01*
X0174946Y0133736D01*
X0175045Y0133802D01*
X0175373Y0134293D01*
X0175488Y0134872D01*
X0175373Y0135451D01*
X0175045Y0135942D01*
X0174554Y0136270D01*
X0173974Y0136385D01*
X0173395Y0136270D01*
X0172904Y0135942D01*
X0172576Y0135451D01*
X0172461Y0134872D01*
X0172576Y0134293D01*
X0172904Y0133802D01*
X0173063Y0133696D01*
Y0132884D01*
X0173133Y0132535D01*
X0173330Y0132239D01*
X0176017Y0129552D01*
X0176313Y0129355D01*
X0176661Y0129286D01*
X0178866D01*
X0179215Y0129355D01*
X0179510Y0129552D01*
X0180455Y0130497D01*
X0180653Y0130793D01*
X0180693Y0130996D01*
X0180992Y0131439D01*
X0181571Y0131555D01*
X0182062Y0131883D01*
X0182390Y0132374D01*
X0182505Y0132953D01*
X0182390Y0133532D01*
X0182062Y0134023D01*
X0181571Y0134351D01*
X0180992Y0134466D01*
X0180413Y0134351D01*
X0179922Y0134023D01*
X0179594Y0133532D01*
X0179530Y0133211D01*
X0179066Y0133119D01*
X0178679Y0133447D01*
Y0135248D01*
X0179051D01*
Y0138610D01*
D02*
G37*
G36*
X0182988D02*
X0180020D01*
Y0135248D01*
X0182988D01*
Y0135978D01*
X0184547D01*
Y0135406D01*
X0184570D01*
X0184825Y0134906D01*
X0184727Y0134409D01*
X0184842Y0133830D01*
X0185170Y0133339D01*
X0185356Y0133215D01*
Y0131957D01*
X0184783D01*
Y0128595D01*
X0187752D01*
Y0129443D01*
X0188957D01*
Y0128673D01*
X0191925D01*
Y0132035D01*
X0188957D01*
Y0131265D01*
X0187752D01*
Y0131957D01*
X0187179D01*
Y0133252D01*
X0187310Y0133339D01*
X0187499Y0133623D01*
X0188091Y0133739D01*
X0188852Y0132978D01*
X0189147Y0132780D01*
X0189496Y0132711D01*
X0192764D01*
X0192944Y0132747D01*
X0193335Y0132442D01*
X0193182Y0132035D01*
X0192894D01*
Y0128673D01*
X0195862D01*
Y0132035D01*
X0195289D01*
Y0134146D01*
X0195429D01*
Y0136721D01*
X0191673D01*
Y0135433D01*
X0191189D01*
Y0134843D01*
X0189681D01*
X0189598Y0134808D01*
X0188982Y0135425D01*
X0188960Y0135536D01*
X0188762Y0135832D01*
X0187909Y0136684D01*
Y0138374D01*
X0184547D01*
Y0137801D01*
X0182988D01*
Y0138610D01*
D02*
G37*
G36*
X0167016Y0129043D02*
X0165925D01*
Y0127874D01*
X0167016D01*
Y0129043D01*
D02*
G37*
%LPD*%
D10*
X0174811Y0164803D02*
X0175571Y0165563D01*
X0174594Y0164587D02*
X0174811Y0164803D01*
X0175205D01*
X0173236Y0166575D02*
X0180638Y0173976D01*
X0182320Y0172378D02*
X0207512D01*
X0175571Y0165629D02*
X0182320Y0172378D01*
X0207512D02*
X0210913Y0168976D01*
X0208551Y0173976D02*
X0217645Y0164882D01*
X0180638Y0173976D02*
X0208551D01*
X0210913Y0168661D02*
Y0168976D01*
X0217645Y0149528D02*
Y0164882D01*
X0132567Y0163543D02*
X0133630D01*
X0135874Y0165787D02*
X0138905D01*
X0133630Y0163543D02*
X0135874Y0165787D01*
X0175571Y0165563D02*
Y0165629D01*
D11*
X0132292Y0124567D02*
X0152313D01*
X0156228Y0159764D02*
X0159890D01*
X0153669Y0124083D02*
X0155098Y0125512D01*
X0173974Y0132884D02*
Y0134872D01*
Y0132884D02*
X0176661Y0130197D01*
X0179811Y0131772D02*
X0180992Y0132953D01*
X0152313Y0124567D02*
X0153364Y0125618D01*
X0153384D02*
X0154565Y0126799D01*
X0153364Y0125618D02*
X0153384D01*
X0157173Y0127795D02*
Y0134331D01*
X0156177Y0126799D02*
X0157173Y0127795D01*
X0154565Y0126799D02*
X0156177D01*
X0159260Y0133150D02*
X0160087Y0133976D01*
X0159260Y0127087D02*
Y0133150D01*
X0157685Y0125512D02*
X0159260Y0127087D01*
X0155098Y0125512D02*
X0157685D01*
X0176661Y0130197D02*
X0178866D01*
X0179811Y0131142D01*
Y0131772D01*
X0188118Y0135000D02*
X0189496Y0133622D01*
X0188118Y0135000D02*
Y0135187D01*
X0187018Y0136287D02*
X0188118Y0135187D01*
X0186831Y0136287D02*
X0187018D01*
X0186228Y0136890D02*
X0186831Y0136287D01*
X0186240Y0133571D02*
Y0134409D01*
Y0133571D02*
X0186268Y0133543D01*
Y0130276D02*
Y0133543D01*
X0189496Y0133622D02*
X0192764D01*
X0163197Y0175354D02*
X0165953Y0178110D01*
X0138315Y0175354D02*
X0163197D01*
X0167929Y0177292D02*
Y0178189D01*
X0137921Y0173779D02*
X0164417D01*
X0167929Y0178189D02*
X0168591D01*
X0164417Y0173779D02*
X0167929Y0177292D01*
X0181504Y0136929D02*
X0181543Y0136890D01*
X0186228D01*
X0186268Y0130276D02*
X0186346Y0130354D01*
X0190441D01*
X0194346Y0135039D02*
X0194378Y0135008D01*
Y0130354D02*
Y0135008D01*
X0194339Y0135039D02*
Y0135433D01*
X0192764Y0133622D02*
Y0135433D01*
X0133197Y0180472D02*
X0138315Y0175354D01*
X0132803Y0178898D02*
X0137921Y0173779D01*
X0126543Y0180472D02*
X0133197D01*
X0123945Y0177874D02*
X0126543Y0180472D01*
X0129260Y0178898D02*
X0132803D01*
X0128236Y0177874D02*
X0129260Y0178898D01*
X0128236Y0176260D02*
Y0177874D01*
X0125323Y0162362D02*
Y0165512D01*
X0123945Y0176260D02*
Y0177874D01*
X0159890Y0159764D02*
Y0164134D01*
X0160008Y0164252D01*
X0164024D01*
D15*
X0144634Y0119606D02*
D03*
D16*
X0194339Y0135433D02*
D03*
X0192764D02*
D03*
X0191189D02*
D03*
X0194339Y0138976D02*
D03*
X0192764D02*
D03*
X0191189D02*
D03*
D17*
X0190402Y0142874D02*
D03*
X0194339D02*
D03*
X0177567Y0136929D02*
D03*
X0181504D02*
D03*
X0190441Y0130354D02*
D03*
X0194378D02*
D03*
X0182331Y0130276D02*
D03*
X0186268D02*
D03*
X0121622Y0144134D02*
D03*
X0125559D02*
D03*
X0138906Y0160984D02*
D03*
X0134968D02*
D03*
X0129260Y0165512D02*
D03*
X0125323D02*
D03*
X0167961Y0164252D02*
D03*
X0164024D02*
D03*
D18*
X0186228Y0140827D02*
D03*
Y0136890D02*
D03*
X0128236Y0172323D02*
D03*
Y0176260D02*
D03*
X0123945Y0172323D02*
D03*
Y0176260D02*
D03*
X0195795Y0154291D02*
D03*
Y0150354D02*
D03*
X0151701Y0164134D02*
D03*
Y0168071D02*
D03*
D19*
X0119398Y0119646D02*
D03*
D20*
X0158000Y0120630D02*
D03*
X0167055D02*
D03*
X0176110D02*
D03*
X0185165D02*
D03*
X0194220D02*
D03*
X0203276D02*
D03*
D21*
X0181819Y0158780D02*
D03*
Y0156811D02*
D03*
Y0154842D02*
D03*
Y0152874D02*
D03*
X0190087D02*
D03*
Y0154842D02*
D03*
Y0156811D02*
D03*
Y0158780D02*
D03*
D22*
X0185953Y0155827D02*
D03*
D23*
X0113512Y0178504D02*
D03*
Y0172205D02*
D03*
D24*
X0181819Y0162165D02*
D03*
X0178039D02*
D03*
X0143945Y0167598D02*
D03*
X0147724D02*
D03*
X0167606Y0127284D02*
D03*
X0171386D02*
D03*
X0159890Y0164134D02*
D03*
X0156110D02*
D03*
D25*
X0200244Y0158307D02*
D03*
X0206150D02*
D03*
D26*
X0155008Y0159764D02*
D03*
Y0155984D02*
D03*
D27*
X0207606Y0140905D02*
D03*
X0200126D02*
D03*
X0207606Y0132205D02*
D03*
X0200126D02*
D03*
D47*
X0151976Y0148858D02*
X0164220D01*
X0149575Y0151260D02*
X0151976Y0148858D01*
X0123472Y0151260D02*
X0149575D01*
X0164220Y0148858D02*
X0166111Y0146968D01*
X0194627D01*
X0116858Y0153307D02*
X0121425D01*
X0123472Y0151260D01*
X0158539Y0121169D02*
Y0122705D01*
X0161661Y0125827D01*
Y0130709D01*
X0169299Y0138347D01*
Y0146949D01*
X0158000Y0120630D02*
X0158539Y0121169D01*
X0194627Y0146968D02*
X0200126D01*
X0200165D01*
X0200126Y0140905D02*
Y0146968D01*
X0200165Y0158228D02*
X0200244Y0158307D01*
X0200165Y0146968D02*
Y0158228D01*
X0200126Y0133425D02*
Y0140905D01*
D48*
X0128968Y0124413D02*
X0130331Y0123050D01*
X0128968Y0124413D02*
Y0131361D01*
X0130331Y0122000D02*
Y0123050D01*
X0180283Y0150197D02*
X0195638D01*
X0130331Y0122000D02*
X0132006Y0120324D01*
X0128968Y0131361D02*
X0131386Y0133780D01*
X0132020Y0120338D02*
X0136260D01*
X0132006Y0120324D02*
X0132020Y0120338D01*
X0137421Y0126799D02*
X0138779D01*
X0133657Y0130563D02*
X0137421Y0126799D01*
X0132253Y0130563D02*
X0133657D01*
X0143445Y0126051D02*
X0151698D01*
X0152749Y0127102D01*
X0152769D02*
X0153950Y0128284D01*
X0152749Y0127102D02*
X0152769D01*
X0131386Y0133780D02*
X0135717D01*
X0143445Y0126051D01*
X0153984Y0128284D02*
Y0139449D01*
X0153950Y0128284D02*
X0153984D01*
X0146248Y0147185D02*
X0153984Y0139449D01*
X0144358Y0147185D02*
X0146248D01*
X0203276Y0153268D02*
X0203886Y0153878D01*
X0203276Y0120630D02*
Y0153268D01*
X0174693Y0121890D02*
X0174772Y0121968D01*
X0172764Y0121890D02*
X0174024D01*
X0171386Y0123268D02*
X0172764Y0121890D01*
X0171386Y0123268D02*
Y0127284D01*
X0194339Y0146679D02*
X0194627Y0146968D01*
X0174024Y0121890D02*
X0174693D01*
X0193433Y0120787D02*
X0194378D01*
X0174772Y0121968D02*
X0176110Y0120630D01*
X0193276D02*
X0193433Y0120787D01*
X0192724Y0120079D02*
X0193276Y0120630D01*
X0177567Y0132441D02*
X0177842Y0132165D01*
X0177567Y0132441D02*
Y0136929D01*
X0147764Y0167638D02*
X0148197Y0168071D01*
X0147724Y0167598D02*
X0147764Y0167638D01*
X0148197Y0168071D02*
X0151701D01*
X0167961Y0169449D02*
X0174535Y0176024D01*
X0167961Y0164252D02*
Y0169449D01*
X0194339Y0142874D02*
Y0146679D01*
X0190402Y0141181D02*
Y0142874D01*
Y0141181D02*
X0191189Y0140394D01*
Y0138976D02*
Y0140394D01*
Y0138976D02*
X0192764D01*
X0194339Y0142874D02*
X0194339Y0142874D01*
X0194339Y0138976D02*
Y0142874D01*
X0195795Y0154291D02*
X0195795Y0154291D01*
X0193079Y0154291D02*
X0195795D01*
X0192528Y0154842D02*
X0193079Y0154291D01*
X0190087Y0154842D02*
X0192528D01*
X0195638Y0150197D02*
X0195795Y0150354D01*
X0193276Y0120630D02*
X0194220D01*
X0136740Y0170669D02*
Y0171653D01*
X0132606Y0166535D02*
X0136740Y0170669D01*
X0130283Y0166535D02*
X0132606D01*
X0129260Y0165512D02*
X0130283Y0166535D01*
X0113512Y0167480D02*
Y0172205D01*
X0138906Y0160984D02*
X0139024Y0161102D01*
X0141504D01*
X0151701Y0160984D02*
Y0164134D01*
X0178866Y0151614D02*
X0180283Y0150197D01*
X0178866Y0156378D02*
Y0157165D01*
Y0151614D02*
Y0156378D01*
X0178905Y0156417D01*
X0151701Y0164134D02*
X0151701Y0164134D01*
X0156110D01*
D49*
X0155008Y0155984D02*
X0172528D01*
X0147764Y0160354D02*
Y0167638D01*
X0152134Y0155984D02*
X0155008D01*
X0148827Y0159291D02*
X0152134Y0155984D01*
X0147764Y0160354D02*
X0148827Y0159291D01*
Y0159173D02*
Y0159291D01*
X0147764Y0170158D02*
Y0170709D01*
Y0167638D02*
Y0170158D01*
X0136740Y0171653D02*
X0146819D01*
X0131740Y0176654D02*
X0136740Y0171653D01*
X0146819D02*
X0147764Y0170709D01*
X0174102Y0157559D02*
X0177961D01*
X0172528Y0155984D02*
X0174102Y0157559D01*
D50*
X0186740Y0162165D02*
X0205244D01*
X0207606Y0140905D02*
Y0151732D01*
X0188787Y0136811D02*
Y0140433D01*
X0096755Y0160487D02*
X0108015D01*
X0092370Y0156102D02*
X0096755Y0160487D01*
X0066189Y0156102D02*
X0092370D01*
X0106976Y0153347D02*
X0124063Y0170433D01*
X0049850Y0153347D02*
X0106976D01*
X0049496Y0153701D02*
X0049850Y0153347D01*
X0063669Y0158622D02*
X0066189Y0156102D01*
X0055480Y0151024D02*
X0094614D01*
X0118079Y0159016D02*
X0118197Y0159134D01*
X0178276Y0140827D02*
X0186228D01*
X0175441D02*
X0178276D01*
X0171189Y0133425D02*
X0177094Y0127520D01*
X0181228D01*
X0182331Y0128622D01*
Y0130276D01*
X0167606Y0127284D02*
Y0129842D01*
X0171189Y0133425D01*
Y0136575D01*
X0175441Y0140827D01*
X0207606Y0132205D02*
Y0140905D01*
X0207606Y0140905D01*
X0206150Y0153189D02*
X0207606Y0151732D01*
X0206150Y0153189D02*
Y0158307D01*
X0206031Y0158425D02*
X0206150Y0158307D01*
X0206031Y0158425D02*
Y0161378D01*
X0205244Y0162165D02*
X0206031Y0161378D01*
X0186150Y0161575D02*
X0186740Y0162165D01*
X0185953Y0155827D02*
X0186150Y0156024D01*
Y0161575D01*
X0185559Y0162165D02*
X0186150Y0161575D01*
X0181819Y0162165D02*
X0185559D01*
X0181819Y0158780D02*
Y0162165D01*
X0190165Y0135433D02*
X0191189D01*
X0188787Y0136811D02*
X0190165Y0135433D01*
X0186228Y0140827D02*
X0188394D01*
X0188787Y0140433D01*
X0111307Y0161496D02*
X0116779Y0166969D01*
X0109024Y0161496D02*
X0111307D01*
X0108015Y0160487D02*
X0109024Y0161496D01*
X0126347Y0170433D02*
X0128236Y0172323D01*
X0124063Y0170433D02*
X0126347D01*
X0111504Y0159882D02*
X0123945Y0172323D01*
X0109890Y0159882D02*
X0111504D01*
X0116779Y0166969D02*
Y0168347D01*
X0118197Y0159134D02*
X0133118D01*
X0108354Y0158346D02*
X0109890Y0159882D01*
X0106583Y0158346D02*
X0108354D01*
X0099496Y0146142D02*
X0106622D01*
X0094614Y0151024D02*
X0099496Y0146142D01*
X0108630Y0144134D02*
X0121622D01*
X0106622Y0146142D02*
X0108630Y0144134D01*
X0133118Y0159134D02*
X0134968Y0160984D01*
D51*
X0168236Y0120079D02*
X0168612Y0119853D01*
X0149379Y0130248D02*
Y0137795D01*
X0145835Y0141339D02*
X0149379Y0137795D01*
X0141701Y0141339D02*
X0145835D01*
X0138906Y0144134D02*
X0141701Y0141339D01*
X0125559Y0144134D02*
X0138906D01*
X0168612Y0119853D02*
X0168826Y0119724D01*
X0168612Y0119853D02*
X0168612D01*
X0182409Y0126181D02*
X0184142D01*
X0180834Y0124606D02*
X0182409Y0126181D01*
X0180834Y0120079D02*
Y0124606D01*
X0185165Y0120630D02*
Y0122677D01*
X0167685Y0120630D02*
X0168236Y0120079D01*
X0167055Y0120630D02*
X0167685D01*
X0183787D02*
X0185165D01*
D52*
X0180362Y0165787D02*
X0204181D01*
X0178039Y0163465D02*
X0180362Y0165787D01*
X0178039Y0162165D02*
Y0163465D01*
X0204221Y0165748D02*
X0205283D01*
X0204181Y0165787D02*
X0204221Y0165748D01*
X0178039Y0161378D02*
Y0162165D01*
D53*
X0120524Y0135898D02*
D03*
D54*
X0055382Y0163622D02*
D03*
X0051382Y0143622D02*
D03*
X0059382D02*
D03*
X0205283Y0165748D02*
D03*
D55*
X0116858Y0153307D02*
D03*
X0215268Y0133622D02*
D03*
Y0172992D02*
D03*
X0074142Y0141496D02*
D03*
Y0165118D02*
D03*
D56*
X0146622Y0178465D02*
D03*
X0185992D02*
D03*
D57*
X0122567Y0115709D02*
D03*
X0125520D02*
D03*
X0128472D02*
D03*
X0128472Y0184606D02*
D03*
X0125520D02*
D03*
X0122567D02*
D03*
X0190480D02*
D03*
X0193433D02*
D03*
X0196386D02*
D03*
X0196386Y0115709D02*
D03*
X0193433D02*
D03*
X0190480D02*
D03*
X0102685Y0155276D02*
D03*
Y0158425D02*
D03*
Y0151339D02*
D03*
Y0148189D02*
D03*
Y0144252D02*
D03*
Y0162362D02*
D03*
D58*
X0116228Y0135945D02*
D03*
X0113709D02*
D03*
X0111268D02*
D03*
X0163276Y0145079D02*
D03*
X0159653Y0145197D02*
D03*
X0132292Y0124567D02*
D03*
X0136260Y0120338D02*
D03*
X0138779Y0126799D02*
D03*
X0127724Y0141890D02*
D03*
X0130283Y0141811D02*
D03*
X0138591Y0141654D02*
D03*
X0132803Y0141811D02*
D03*
X0049496Y0153701D02*
D03*
X0063669Y0158622D02*
D03*
X0055480Y0151024D02*
D03*
X0145992Y0130433D02*
D03*
X0145362Y0132717D02*
D03*
X0110756Y0129173D02*
D03*
X0126583Y0126102D02*
D03*
X0126543Y0129370D02*
D03*
X0173974Y0134872D02*
D03*
X0180992Y0132953D02*
D03*
X0206583Y0145591D02*
D03*
X0188945Y0138031D02*
D03*
X0193512Y0127362D02*
D03*
X0197291Y0127284D02*
D03*
X0173118Y0143976D02*
D03*
X0176150Y0155000D02*
D03*
X0168236Y0152953D02*
D03*
X0157213Y0155984D02*
D03*
X0158039Y0159803D02*
D03*
X0154141Y0123740D02*
D03*
X0118079Y0159016D02*
D03*
X0149379Y0130248D02*
D03*
X0145283Y0138976D02*
D03*
X0144358Y0147185D02*
D03*
X0174024Y0121890D02*
D03*
X0184142Y0126181D02*
D03*
X0168591Y0178189D02*
D03*
X0138905Y0165787D02*
D03*
X0191110Y0150236D02*
D03*
X0165953Y0178110D02*
D03*
X0141504Y0161102D02*
D03*
X0174535Y0176024D02*
D03*
X0183590Y0120079D02*
D03*
X0157173Y0134331D02*
D03*
X0173236Y0166575D02*
D03*
X0175205Y0164803D02*
D03*
X0194378Y0120787D02*
D03*
X0151701Y0160984D02*
D03*
X0186240Y0134409D02*
D03*
X0160087Y0133976D02*
D03*
X0146780Y0118228D02*
D03*
X0151031Y0118268D02*
D03*
X0110835Y0118347D02*
D03*
X0110756Y0123386D02*
D03*
X0129378Y0147362D02*
D03*
X0132173D02*
D03*
X0135244Y0147283D02*
D03*
X0138354Y0147244D02*
D03*
X0141268Y0147205D02*
D03*
X0188118Y0162323D02*
D03*
X0182685Y0143819D02*
D03*
X0177567Y0149961D02*
D03*
X0168276Y0160000D02*
D03*
X0155992Y0144724D02*
D03*
Y0141850D02*
D03*
X0156071Y0138740D02*
D03*
X0141071Y0133898D02*
D03*
X0126543Y0132126D02*
D03*
X0127055Y0122402D02*
D03*
X0127173Y0118347D02*
D03*
X0123945Y0118307D02*
D03*
X0120480Y0118347D02*
D03*
X0117134D02*
D03*
X0113866Y0118307D02*
D03*
X0110795Y0126575D02*
D03*
X0140244Y0139016D02*
D03*
X0142732Y0139028D02*
D03*
X0178276Y0140827D02*
D03*
X0203886Y0153878D02*
D03*
X0132253Y0130563D02*
D03*
X0180834Y0120079D02*
D03*
X0177842Y0132165D02*
D03*
X0147764Y0170158D02*
D03*
X0210913Y0168661D02*
D03*
X0182370Y0180945D02*
D03*
X0182409Y0177795D02*
D03*
X0168748Y0120079D02*
D03*
X0114772Y0157717D02*
D03*
X0111228Y0164685D02*
D03*
X0118472Y0161496D02*
D03*
X0116779Y0168347D02*
D03*
X0123748Y0157047D02*
D03*
X0106583Y0158346D02*
D03*
X0119102Y0147047D02*
D03*
X0116228D02*
D03*
X0113197Y0150315D02*
D03*
X0113276Y0147087D02*
D03*
X0110244Y0147126D02*
D03*
X0110284Y0150236D02*
D03*
X0110323Y0153386D02*
D03*
X0112370Y0155591D02*
D03*
X0128433Y0154921D02*
D03*
X0131583D02*
D03*
X0134732D02*
D03*
X0137921D02*
D03*
X0141071D02*
D03*
X0128197Y0161260D02*
D03*
X0131150D02*
D03*
X0118197Y0173386D02*
D03*
X0118236Y0176260D02*
D03*
X0118276Y0179134D02*
D03*
X0115362Y0181850D02*
D03*
X0118276D02*
D03*
X0121150D02*
D03*
X0124024D02*
D03*
X0135520D02*
D03*
X0138433D02*
D03*
X0141347D02*
D03*
X0144220Y0181811D02*
D03*
X0150008Y0181732D02*
D03*
X0152882D02*
D03*
X0155795D02*
D03*
X0158709D02*
D03*
X0161583D02*
D03*
X0164457D02*
D03*
X0167331D02*
D03*
X0176661Y0177874D02*
D03*
X0179535Y0177835D02*
D03*
X0170874Y0180945D02*
D03*
X0173748D02*
D03*
X0176622D02*
D03*
X0179496D02*
D03*
X0214693Y0177480D02*
D03*
X0211858D02*
D03*
X0209024D02*
D03*
X0206150D02*
D03*
X0203315D02*
D03*
X0200480D02*
D03*
X0197606D02*
D03*
X0191937Y0181024D02*
D03*
X0194811D02*
D03*
X0197685D02*
D03*
X0200559D02*
D03*
X0203433D02*
D03*
X0205953Y0181063D02*
D03*
X0208866D02*
D03*
X0211740D02*
D03*
X0214614D02*
D03*
X0217488D02*
D03*
Y0177520D02*
D03*
X0216937Y0119882D02*
D03*
Y0122913D02*
D03*
X0216976Y0125866D02*
D03*
Y0128898D02*
D03*
X0113512Y0167480D02*
D03*
X0125323Y0162362D02*
D03*
X0132567Y0163543D02*
D03*
X0132606Y0166535D02*
D03*
X0131740Y0176654D02*
D03*
X0217645Y0149528D02*
D03*
D59*
X0115126Y0130079D02*
D03*
X0118512Y0130157D02*
D03*
X0121858D02*
D03*
X0118748Y0141654D02*
D03*
X0112370D02*
D03*
X0115559Y0141575D02*
D03*
M02*
