G04*
G04 #@! TF.GenerationSoftware,Altium Limited,Altium Designer,19.1.6 (110)*
G04*
G04 Layer_Color=16711935*
%FSAX25Y25*%
%MOIN*%
G70*
G01*
G75*
%ADD11C,0.00787*%
D11*
X0219811Y0183622D02*
G03*
X0219417Y0184016I-0000394J0000000D01*
G01*
X0219811Y0183622D02*
G03*
X0219417Y0184016I-0000394J0000000D01*
G01*
X0219417Y0116299D02*
G03*
X0219811Y0116693I0000000J0000394D01*
G01*
X0219417Y0116299D02*
G03*
X0219811Y0116693I0000000J0000394D01*
G01*
X0108787Y0116693D02*
G03*
X0109181Y0116299I0000394J0000000D01*
G01*
X0108787Y0116693D02*
G03*
X0109181Y0116299I0000394J0000000D01*
G01*
X0109181Y0184016D02*
G03*
X0108787Y0183622I0000000J-0000394D01*
G01*
X0109181Y0184016D02*
G03*
X0108787Y0183622I0000000J-0000394D01*
G01*
X0043827Y0133228D02*
Y0173386D01*
Y0133228D02*
X0093827D01*
X0043827Y0173386D02*
X0093827D01*
X0108787Y0132047D02*
Y0132835D01*
Y0138347D01*
X0108787Y0139134D02*
X0108787Y0138347D01*
X0108787Y0116693D02*
X0108787Y0132047D01*
X0109181Y0184016D02*
X0219417Y0184016D01*
X0108787Y0164331D02*
X0108787Y0166693D01*
X0219811Y0183622D02*
X0219811Y0116693D01*
X0109181Y0116299D02*
X0219417Y0116299D01*
X0108787Y0139134D02*
Y0142283D01*
X0108787Y0183622D02*
X0108787Y0166693D01*
X0093827Y0164331D02*
X0108787Y0164331D01*
X0093827Y0164331D02*
X0093827Y0173386D01*
X0093827Y0133228D02*
Y0142283D01*
X0108787Y0142283D01*
M02*
