G04*
G04 #@! TF.GenerationSoftware,Altium Limited,Altium Designer,19.1.5 (86)*
G04*
G04 Layer_Physical_Order=1*
G04 Layer_Color=255*
%FSAX25Y25*%
%MOIN*%
G70*
G01*
G75*
%ADD12C,0.00984*%
%ADD13C,0.05906*%
G36*
X0149036Y0201314D02*
X0149669Y0200488D01*
X0150495Y0199854D01*
X0151456Y0199456D01*
X0152488Y0199320D01*
X0153520Y0199456D01*
X0154482Y0199854D01*
X0155307Y0200488D01*
X0155941Y0201314D01*
X0156273Y0202117D01*
X0156928Y0202065D01*
X0157215Y0202011D01*
X0157502Y0201937D01*
X0157502Y0201937D01*
X0157987Y0201940D01*
X0159797Y0201653D01*
X0160210Y0201588D01*
X0160466Y0201528D01*
X0160775Y0201441D01*
X0160775Y0201441D01*
X0161265Y0201378D01*
X0163453Y0200853D01*
X0163540Y0200827D01*
X0164004Y0200680D01*
D01*
X0164489Y0200560D01*
X0165092Y0200364D01*
X0165034Y0199928D01*
X0165170Y0198896D01*
X0165569Y0197934D01*
X0166202Y0197109D01*
X0167028Y0196475D01*
X0167990Y0196077D01*
X0169021Y0195941D01*
X0170053Y0196077D01*
X0171015Y0196475D01*
X0171841Y0197109D01*
X0172109Y0197459D01*
X0172764Y0197125D01*
X0172789Y0197112D01*
X0173105Y0196925D01*
X0173110Y0196908D01*
X0173187Y0196876D01*
X0173596Y0196657D01*
X0175541Y0195465D01*
X0175932Y0195163D01*
X0176012Y0195130D01*
X0176435Y0194867D01*
X0178315Y0193501D01*
X0178600Y0193198D01*
X0178814Y0193071D01*
X0178857Y0193045D01*
X0179094Y0192884D01*
X0179515Y0192523D01*
X0179350Y0192308D01*
X0178952Y0191347D01*
X0178816Y0190315D01*
X0178952Y0189283D01*
X0179350Y0188321D01*
X0179984Y0187496D01*
X0180810Y0186862D01*
X0181771Y0186464D01*
X0182803Y0186328D01*
X0183835Y0186464D01*
X0184797Y0186862D01*
X0185012Y0187027D01*
X0185424Y0186544D01*
X0185477Y0186464D01*
X0185560Y0186325D01*
X0185686Y0186112D01*
X0185686Y0186112D01*
X0186031Y0185770D01*
X0187355Y0183947D01*
X0187618Y0183523D01*
X0187651Y0183444D01*
X0187953Y0183053D01*
X0189145Y0181108D01*
X0189174Y0181054D01*
X0189396Y0180622D01*
X0189396Y0180622D01*
X0189655Y0180195D01*
X0189989Y0179538D01*
X0189509Y0179170D01*
X0188875Y0178344D01*
X0188477Y0177383D01*
X0188341Y0176351D01*
X0188477Y0175319D01*
X0188875Y0174357D01*
X0189509Y0173532D01*
X0190334Y0172898D01*
X0191296Y0172500D01*
X0192328Y0172364D01*
X0192906Y0172440D01*
X0193075Y0171919D01*
X0193078Y0171911D01*
X0193176Y0171531D01*
X0193168Y0171516D01*
X0193200Y0171439D01*
X0193341Y0170964D01*
X0193895Y0168655D01*
X0193929Y0168286D01*
X0194016Y0167978D01*
X0194016Y0167978D01*
X0194042Y0167867D01*
X0194076Y0167721D01*
X0194141Y0167309D01*
X0194371Y0165858D01*
X0194449Y0165364D01*
X0194425Y0165014D01*
X0194499Y0164727D01*
Y0164727D01*
X0194520Y0164615D01*
X0194553Y0164439D01*
X0194609Y0163732D01*
X0193774Y0163386D01*
X0192949Y0162752D01*
X0192315Y0161926D01*
X0191917Y0160965D01*
X0191781Y0159933D01*
X0191917Y0158901D01*
X0192315Y0157940D01*
X0192949Y0157114D01*
X0193774Y0156480D01*
X0194599Y0156139D01*
X0194553Y0155561D01*
X0194499Y0155273D01*
X0194425Y0154987D01*
X0194425Y0154987D01*
X0194428Y0154501D01*
X0194141Y0152691D01*
X0194076Y0152278D01*
X0194016Y0152022D01*
X0193930Y0151714D01*
X0193930Y0151714D01*
X0193866Y0151223D01*
X0193341Y0149036D01*
X0193315Y0148948D01*
X0193168Y0148484D01*
D01*
X0193049Y0147999D01*
X0192330Y0145786D01*
X0192171Y0145383D01*
X0192147Y0145322D01*
X0192147Y0145322D01*
X0191984Y0144858D01*
X0191123Y0142780D01*
X0190913Y0142340D01*
X0190912Y0142340D01*
X0190848Y0142193D01*
X0190833Y0142157D01*
X0190674Y0141807D01*
X0190486Y0141438D01*
X0189613Y0139724D01*
X0189601Y0139700D01*
X0189413Y0139383D01*
X0189396Y0139378D01*
X0189364Y0139301D01*
X0189145Y0138892D01*
X0187953Y0136947D01*
X0187651Y0136556D01*
X0187618Y0136477D01*
X0187355Y0136053D01*
X0185989Y0134173D01*
X0185686Y0133888D01*
X0185559Y0133674D01*
X0185533Y0133631D01*
X0185372Y0133395D01*
X0184914Y0132859D01*
X0184229Y0133142D01*
X0183197Y0133278D01*
X0182165Y0133142D01*
X0181203Y0132744D01*
X0180378Y0132111D01*
X0179744Y0131285D01*
X0179346Y0130323D01*
X0179210Y0129291D01*
X0179346Y0128260D01*
X0179630Y0127574D01*
X0179032Y0127064D01*
X0178952Y0127012D01*
X0178813Y0126928D01*
X0178600Y0126802D01*
X0178600Y0126802D01*
X0178258Y0126458D01*
X0176435Y0125133D01*
X0176012Y0124870D01*
X0175932Y0124837D01*
X0175541Y0124535D01*
X0173596Y0123344D01*
X0173542Y0123314D01*
X0173110Y0123092D01*
X0173110Y0123092D01*
X0172683Y0122834D01*
X0172031Y0122502D01*
X0171886Y0122691D01*
X0171060Y0123325D01*
X0170098Y0123723D01*
X0169067Y0123859D01*
X0168035Y0123723D01*
X0167073Y0123325D01*
X0166247Y0122691D01*
X0165614Y0121865D01*
X0165216Y0120904D01*
X0165080Y0119872D01*
X0165110Y0119641D01*
X0164407Y0119413D01*
X0164399Y0119410D01*
X0164019Y0119312D01*
X0164004Y0119320D01*
X0163927Y0119288D01*
X0163453Y0119147D01*
X0161143Y0118593D01*
X0160775Y0118559D01*
X0160466Y0118472D01*
X0160466Y0118472D01*
X0160355Y0118446D01*
X0160210Y0118412D01*
X0159797Y0118347D01*
X0158346Y0118117D01*
X0157852Y0118039D01*
X0157502Y0118063D01*
X0157215Y0117989D01*
X0157215D01*
X0157104Y0117968D01*
X0156928Y0117935D01*
X0156247Y0117881D01*
X0155913Y0118686D01*
X0155280Y0119512D01*
X0154454Y0120146D01*
X0153492Y0120544D01*
X0152461Y0120680D01*
X0151429Y0120544D01*
X0150467Y0120146D01*
X0149642Y0119512D01*
X0149008Y0118686D01*
X0148676Y0117885D01*
X0148049Y0117935D01*
X0147761Y0117989D01*
X0147475Y0118063D01*
X0147475Y0118063D01*
X0146989Y0118060D01*
X0145179Y0118347D01*
X0144767Y0118412D01*
X0144510Y0118472D01*
X0144202Y0118559D01*
X0144202Y0118559D01*
X0143711Y0118622D01*
X0141524Y0119147D01*
X0141436Y0119173D01*
X0140972Y0119320D01*
D01*
X0140488Y0119439D01*
X0139828Y0119654D01*
X0139854Y0119854D01*
X0139718Y0120886D01*
X0139320Y0121848D01*
X0138687Y0122673D01*
X0137861Y0123307D01*
X0136899Y0123705D01*
X0135867Y0123841D01*
X0134836Y0123705D01*
X0133874Y0123307D01*
X0133048Y0122673D01*
X0132924Y0122512D01*
X0132212Y0122875D01*
X0132188Y0122888D01*
X0131871Y0123075D01*
X0131867Y0123092D01*
X0131789Y0123124D01*
X0131380Y0123344D01*
X0129435Y0124535D01*
X0129044Y0124837D01*
X0128965Y0124870D01*
X0128541Y0125133D01*
X0126661Y0126499D01*
X0126376Y0126802D01*
X0126162Y0126929D01*
X0126119Y0126955D01*
X0125883Y0127116D01*
X0125347Y0127574D01*
X0125630Y0128260D01*
X0125766Y0129291D01*
X0125630Y0130323D01*
X0125232Y0131285D01*
X0124599Y0132111D01*
X0123773Y0132744D01*
X0122811Y0133142D01*
X0121780Y0133278D01*
X0120748Y0133142D01*
X0120062Y0132859D01*
X0119552Y0133456D01*
X0119500Y0133536D01*
X0119417Y0133675D01*
X0119290Y0133888D01*
X0119290Y0133888D01*
X0118946Y0134230D01*
X0117621Y0136053D01*
X0117358Y0136477D01*
X0117325Y0136556D01*
X0117023Y0136947D01*
X0115832Y0138892D01*
X0115803Y0138946D01*
X0115580Y0139378D01*
X0115580Y0139378D01*
X0115322Y0139805D01*
X0114263Y0141883D01*
X0114137Y0142173D01*
X0114065Y0142340D01*
X0114064Y0142340D01*
X0113851Y0142785D01*
X0112993Y0144858D01*
X0112829Y0145322D01*
X0112829Y0145322D01*
X0112809Y0145373D01*
X0112755Y0145512D01*
X0112622Y0145863D01*
X0111901Y0148081D01*
X0111899Y0148089D01*
X0111800Y0148469D01*
X0111809Y0148484D01*
X0111776Y0148561D01*
X0111635Y0149036D01*
X0111081Y0151345D01*
X0111047Y0151714D01*
X0110960Y0152022D01*
X0110960Y0152022D01*
X0110934Y0152133D01*
X0110900Y0152278D01*
X0110835Y0152691D01*
X0110605Y0154142D01*
X0110527Y0154636D01*
X0110551Y0154987D01*
X0110477Y0155273D01*
Y0155273D01*
X0110456Y0155385D01*
X0110423Y0155561D01*
X0110377Y0156150D01*
X0111174Y0156480D01*
X0112000Y0157114D01*
X0112634Y0157940D01*
X0113032Y0158901D01*
X0113168Y0159933D01*
X0113032Y0160965D01*
X0112634Y0161926D01*
X0112000Y0162752D01*
X0111174Y0163386D01*
X0110366Y0163721D01*
X0110423Y0164439D01*
X0110477Y0164727D01*
X0110551Y0165014D01*
X0110551Y0165014D01*
X0110548Y0165499D01*
X0110835Y0167309D01*
X0110900Y0167721D01*
X0110960Y0167978D01*
X0111047Y0168286D01*
X0111047Y0168286D01*
X0111110Y0168777D01*
X0111635Y0170964D01*
X0111661Y0171052D01*
X0111809Y0171516D01*
D01*
X0111928Y0172001D01*
X0112100Y0172530D01*
X0112685Y0172453D01*
X0113717Y0172589D01*
X0114678Y0172987D01*
X0115504Y0173621D01*
X0116138Y0174446D01*
X0116536Y0175408D01*
X0116672Y0176440D01*
X0116536Y0177472D01*
X0116138Y0178433D01*
X0115504Y0179259D01*
X0115030Y0179622D01*
X0115363Y0180276D01*
X0115376Y0180300D01*
X0115563Y0180617D01*
X0115580Y0180622D01*
X0115612Y0180699D01*
X0115832Y0181108D01*
X0117023Y0183053D01*
X0117325Y0183444D01*
X0117358Y0183523D01*
X0117621Y0183947D01*
X0118987Y0185827D01*
X0119290Y0186112D01*
X0119417Y0186326D01*
X0119443Y0186369D01*
X0119605Y0186605D01*
X0119965Y0187027D01*
X0120180Y0186862D01*
X0121141Y0186464D01*
X0122173Y0186328D01*
X0123205Y0186464D01*
X0124167Y0186862D01*
X0124992Y0187496D01*
X0125626Y0188321D01*
X0126024Y0189283D01*
X0126160Y0190315D01*
X0126024Y0191347D01*
X0125626Y0192308D01*
X0125461Y0192523D01*
X0125944Y0192936D01*
X0126024Y0192988D01*
X0126163Y0193071D01*
X0126376Y0193198D01*
X0126376Y0193198D01*
X0126718Y0193543D01*
X0128541Y0194867D01*
X0128965Y0195130D01*
X0129044Y0195163D01*
X0129435Y0195465D01*
X0131380Y0196657D01*
X0131434Y0196686D01*
X0131866Y0196908D01*
X0131867Y0196908D01*
X0132293Y0197166D01*
X0133926Y0197998D01*
X0134372Y0198225D01*
X0134661Y0198351D01*
X0134828Y0198424D01*
X0134828Y0198424D01*
X0135274Y0198637D01*
X0137346Y0199495D01*
X0137810Y0199659D01*
X0137810Y0199659D01*
X0137862Y0199679D01*
X0138000Y0199734D01*
X0138351Y0199866D01*
X0140569Y0200587D01*
X0140577Y0200590D01*
X0140957Y0200688D01*
X0140972Y0200680D01*
X0141049Y0200712D01*
X0141524Y0200853D01*
X0143833Y0201407D01*
X0144202Y0201441D01*
X0144510Y0201528D01*
X0144510Y0201528D01*
X0144621Y0201554D01*
X0144767Y0201588D01*
X0145179Y0201653D01*
X0146631Y0201883D01*
X0147125Y0201961D01*
X0147475Y0201937D01*
X0147761Y0202011D01*
X0147761D01*
X0147873Y0202032D01*
X0148049Y0202065D01*
X0148703Y0202117D01*
X0149036Y0201314D01*
D02*
G37*
%LPC*%
G36*
X0152488Y0196215D02*
X0152252Y0196215D01*
X0152236Y0196209D01*
X0152236D01*
X0152172Y0196144D01*
X0151988Y0196102D01*
X0150550Y0196102D01*
X0150491Y0196090D01*
X0150430Y0196096D01*
X0147043Y0195763D01*
X0146985Y0195745D01*
X0146924D01*
X0143586Y0195081D01*
X0143530Y0195058D01*
X0143469Y0195052D01*
X0140212Y0194064D01*
X0140159Y0194035D01*
X0140099Y0194023D01*
X0136954Y0192721D01*
X0136904Y0192687D01*
X0136846Y0192669D01*
X0133844Y0191065D01*
X0133797Y0191026D01*
X0133741Y0191003D01*
X0130911Y0189112D01*
X0130868Y0189069D01*
X0130815Y0189041D01*
X0128183Y0186881D01*
X0128145Y0186834D01*
X0128094Y0186801D01*
X0125688Y0184394D01*
X0125654Y0184343D01*
X0125607Y0184305D01*
X0123448Y0181674D01*
X0123419Y0181620D01*
X0123376Y0181577D01*
X0121485Y0178747D01*
X0121462Y0178691D01*
X0121423Y0178644D01*
X0119819Y0175642D01*
X0119801Y0175584D01*
X0119768Y0175534D01*
X0118465Y0172389D01*
X0118453Y0172330D01*
X0118424Y0172276D01*
X0117436Y0169019D01*
X0117430Y0168958D01*
X0117407Y0168903D01*
X0116743Y0165564D01*
Y0165503D01*
X0116726Y0165445D01*
X0116392Y0162058D01*
X0116398Y0161998D01*
X0116386Y0161938D01*
X0116386Y0160349D01*
X0116273Y0160236D01*
X0116273D01*
X0116273Y0160236D01*
X0116273Y0160236D01*
X0116386Y0159736D01*
X0116386Y0158517D01*
X0116398Y0158457D01*
X0116392Y0158397D01*
X0116729Y0154975D01*
X0116747Y0154917D01*
Y0154856D01*
X0117418Y0151484D01*
X0117441Y0151427D01*
X0117447Y0151367D01*
X0118445Y0148077D01*
X0118473Y0148023D01*
X0118485Y0147964D01*
X0119801Y0144787D01*
X0119835Y0144736D01*
X0119852Y0144678D01*
X0121473Y0141646D01*
X0121512Y0141599D01*
X0121535Y0141543D01*
X0123446Y0138683D01*
X0123488Y0138641D01*
X0123517Y0138587D01*
X0125698Y0135929D01*
X0125745Y0135891D01*
X0125779Y0135840D01*
X0128210Y0133409D01*
X0128261Y0133375D01*
X0128299Y0133328D01*
X0130957Y0131147D01*
X0131011Y0131118D01*
X0131054Y0131076D01*
X0133913Y0129165D01*
X0133969Y0129142D01*
X0134016Y0129103D01*
X0137048Y0127482D01*
X0137107Y0127465D01*
X0137157Y0127431D01*
X0140334Y0126115D01*
X0140393Y0126103D01*
X0140447Y0126075D01*
X0143737Y0125076D01*
X0143798Y0125071D01*
X0143854Y0125047D01*
X0147227Y0124376D01*
X0147287D01*
X0147345Y0124359D01*
X0150767Y0124022D01*
X0150827Y0124028D01*
X0150887Y0124016D01*
X0152106Y0124016D01*
X0152606Y0123903D01*
X0152606Y0123903D01*
X0152606D01*
X0152606Y0123903D01*
X0153106Y0124016D01*
X0154314Y0124016D01*
X0154374Y0124028D01*
X0154434Y0124022D01*
X0157833Y0124357D01*
X0157891Y0124374D01*
X0157951D01*
X0161301Y0125041D01*
X0161357Y0125064D01*
X0161418Y0125070D01*
X0164686Y0126061D01*
X0164740Y0126090D01*
X0164799Y0126102D01*
X0167955Y0127409D01*
X0168005Y0127442D01*
X0168063Y0127460D01*
X0171075Y0129070D01*
X0171122Y0129108D01*
X0171178Y0129131D01*
X0174018Y0131029D01*
X0174061Y0131072D01*
X0174114Y0131100D01*
X0176754Y0133267D01*
X0176793Y0133314D01*
X0176843Y0133348D01*
X0179259Y0135763D01*
X0179292Y0135813D01*
X0179339Y0135852D01*
X0181506Y0138492D01*
X0181534Y0138545D01*
X0181577Y0138588D01*
X0183475Y0141428D01*
X0183498Y0141484D01*
X0183536Y0141531D01*
X0185146Y0144543D01*
X0185164Y0144601D01*
X0185198Y0144651D01*
X0186505Y0147807D01*
X0186517Y0147867D01*
X0186545Y0147920D01*
X0187537Y0151189D01*
X0187542Y0151249D01*
X0187566Y0151305D01*
X0188232Y0154655D01*
Y0154715D01*
X0188250Y0154773D01*
X0188584Y0158173D01*
X0188578Y0158233D01*
X0188590Y0158292D01*
X0188590Y0159500D01*
X0188703Y0160000D01*
X0188691Y0160030D01*
X0188590Y0160128D01*
X0188590Y0161714D01*
X0188578Y0161773D01*
X0188584Y0161833D01*
X0188248Y0165244D01*
X0188231Y0165302D01*
Y0165362D01*
X0187562Y0168724D01*
X0187539Y0168780D01*
X0187533Y0168840D01*
X0186538Y0172120D01*
X0186510Y0172173D01*
X0186498Y0172232D01*
X0185186Y0175399D01*
X0185153Y0175449D01*
X0185135Y0175507D01*
X0183520Y0178530D01*
X0183481Y0178576D01*
X0183458Y0178632D01*
X0181554Y0181482D01*
X0181511Y0181525D01*
X0181483Y0181578D01*
X0179308Y0184228D01*
X0179262Y0184266D01*
X0179228Y0184316D01*
X0176804Y0186740D01*
X0176754Y0186773D01*
X0176716Y0186820D01*
X0174066Y0188994D01*
X0174013Y0189023D01*
X0173970Y0189066D01*
X0171121Y0190970D01*
X0171065Y0190993D01*
X0171018Y0191031D01*
X0167995Y0192647D01*
X0167937Y0192665D01*
X0167887Y0192698D01*
X0164721Y0194010D01*
X0164661Y0194022D01*
X0164608Y0194050D01*
X0161328Y0195045D01*
X0161268Y0195051D01*
X0161212Y0195074D01*
X0157851Y0195743D01*
X0157790D01*
X0157732Y0195760D01*
X0154322Y0196096D01*
X0154261Y0196090D01*
X0154202Y0196102D01*
X0152752Y0196102D01*
X0152557Y0196146D01*
X0152488Y0196215D01*
D02*
G37*
%LPD*%
D12*
X0125087Y0122598D02*
D03*
X0128736Y0120236D02*
D03*
X0129051Y0199752D02*
D03*
X0132902Y0201760D02*
D03*
X0136728Y0203413D02*
D03*
X0197252Y0148150D02*
D03*
X0198315Y0152520D02*
D03*
D13*
X0122173Y0190315D02*
D03*
X0112685Y0176440D02*
D03*
X0109181Y0159933D02*
D03*
X0112554Y0143386D02*
D03*
X0121780Y0129291D02*
D03*
X0135867Y0119854D02*
D03*
X0152461Y0116693D02*
D03*
X0169067Y0119872D02*
D03*
X0183197Y0129291D02*
D03*
X0192340Y0143416D02*
D03*
X0195768Y0159933D02*
D03*
X0192328Y0176351D02*
D03*
X0182803Y0190315D02*
D03*
X0169021Y0199928D02*
D03*
X0152488Y0203307D02*
D03*
M02*
