G04*
G04 #@! TF.GenerationSoftware,Altium Limited,Altium Designer,19.1.5 (86)*
G04*
G04 Layer_Color=16711935*
%FSAX25Y25*%
%MOIN*%
G70*
G01*
G75*
%ADD14C,0.00394*%
%ADD15C,0.00394*%
D14*
X0190478Y0181266D02*
G03*
X0190471Y0181280I-0000175J-0000089D01*
G01*
X0188692Y0184182D02*
G03*
X0188684Y0184195I-0000168J-0000103D01*
G01*
X0190479Y0181265D02*
G03*
X0190471Y0181280I-0000176J-0000088D01*
G01*
X0186684Y0186948D02*
G03*
X0186674Y0186960I-0000159J-0000116D01*
G01*
X0188692Y0184182D02*
G03*
X0188684Y0184195I-0000168J-0000103D01*
G01*
X0193337Y0175062D02*
G03*
X0193332Y0175076I-0000187J-0000061D01*
G01*
X0193337Y0175061D02*
G03*
X0193337Y0175062I-0000187J-0000060D01*
G01*
X0193337Y0175062D02*
G03*
X0193332Y0175076I-0000187J-0000061D01*
G01*
X0194389Y0171825D02*
G03*
X0194389Y0171826I-0000187J-0000060D01*
G01*
X0194393Y0171810D02*
G03*
X0194389Y0171825I-0000192J-0000046D01*
G01*
X0192030Y0178220D02*
G03*
X0192023Y0178234I-0000182J-0000075D01*
G01*
X0192030Y0178220D02*
G03*
X0192022Y0178236I-0000182J-0000075D01*
G01*
X0184464Y0189548D02*
G03*
X0184453Y0189559I-0000149J-0000128D01*
G01*
X0184464Y0189547D02*
G03*
X0184464Y0189548I-0000150J-0000128D01*
G01*
X0184464Y0189548D02*
G03*
X0184452Y0189560I-0000150J-0000128D01*
G01*
X0186674Y0186959D02*
G03*
X0186674Y0186960I-0000150J-0000128D01*
G01*
X0186684Y0186948D02*
G03*
X0186674Y0186959I-0000159J-0000116D01*
G01*
X0182048Y0191964D02*
G03*
X0182036Y0191976I-0000140J-0000138D01*
G01*
X0195190Y0168486D02*
G03*
X0195187Y0168501I-0000195J-0000031D01*
G01*
X0195725Y0165109D02*
G03*
X0195723Y0165125I-0000196J-0000014D01*
G01*
X0195725Y0165110D02*
G03*
X0195723Y0165125I-0000196J-0000015D01*
G01*
X0194393Y0171810D02*
G03*
X0194389Y0171825I-0000192J-0000046D01*
G01*
X0195190Y0168486D02*
G03*
X0195187Y0168501I-0000195J-0000031D01*
G01*
X0195992Y0161702D02*
G03*
X0195992Y0161717I-0000197J0000000D01*
G01*
X0195992Y0161702D02*
G03*
X0195992Y0161718I-0000197J0000000D01*
G01*
X0187370Y0160000D02*
G03*
X0187370Y0159995I0000197J0000000D01*
G01*
X0187370Y0160000D02*
G03*
X0187370Y0159995I0000197J0000000D01*
G01*
X0167564Y0200844D02*
G03*
X0167550Y0200849I-0000075J-0000182D01*
G01*
X0170724Y0199534D02*
G03*
X0170709Y0199541I-0000091J-0000175D01*
G01*
X0170722Y0199535D02*
G03*
X0170709Y0199541I-0000089J-0000175D01*
G01*
X0164313Y0201901D02*
G03*
X0164298Y0201905I-0000060J-0000187D01*
G01*
X0164314Y0201900D02*
G03*
X0164313Y0201901I-0000061J-0000187D01*
G01*
X0164313Y0201901D02*
G03*
X0164298Y0201905I-0000061J-0000187D01*
G01*
X0167551Y0200849D02*
G03*
X0167549Y0200849I-0000061J-0000187D01*
G01*
X0167564Y0200844D02*
G03*
X0167551Y0200849I-0000075J-0000182D01*
G01*
X0176683Y0196196D02*
G03*
X0176670Y0196204I-0000116J-0000159D01*
G01*
X0176683Y0196196D02*
G03*
X0176670Y0196204I-0000116J-0000159D01*
G01*
X0173768Y0197982D02*
G03*
X0173753Y0197991I-0000103J-0000168D01*
G01*
X0173768Y0197982D02*
G03*
X0173755Y0197990I-0000103J-0000168D01*
G01*
X0157613Y0203235D02*
G03*
X0157598Y0203236I-0000031J-0000195D01*
G01*
X0160989Y0202699D02*
G03*
X0160974Y0202702I-0000046J-0000192D01*
G01*
X0160989Y0202699D02*
G03*
X0160974Y0202702I-0000046J-0000192D01*
G01*
X0154206Y0203503D02*
G03*
X0154190Y0203504I-0000017J-0000196D01*
G01*
X0154205Y0203503D02*
G03*
X0154190Y0203504I-0000015J-0000196D01*
G01*
X0157613Y0203235D02*
G03*
X0157597Y0203237I-0000031J-0000195D01*
G01*
X0179447Y0194186D02*
G03*
X0179436Y0194195I-0000128J-0000150D01*
G01*
X0179448Y0194185D02*
G03*
X0179447Y0194186I-0000128J-0000149D01*
G01*
X0179448Y0194186D02*
G03*
X0179436Y0194195I-0000128J-0000150D01*
G01*
X0182036Y0191975D02*
G03*
X0182035Y0191976I-0000128J-0000149D01*
G01*
X0182047Y0191965D02*
G03*
X0182036Y0191975I-0000139J-0000139D01*
G01*
X0195992Y0158283D02*
G03*
X0195992Y0158299I-0000196J0000015D01*
G01*
X0195992Y0158282D02*
G03*
X0195992Y0158299I-0000196J0000017D01*
G01*
X0195723Y0154875D02*
G03*
X0195725Y0154892I-0000195J0000031D01*
G01*
X0195723Y0154875D02*
G03*
X0195725Y0154890I-0000195J0000031D01*
G01*
X0195187Y0151499D02*
G03*
X0195190Y0151514I-0000192J0000046D01*
G01*
X0195187Y0151499D02*
G03*
X0195190Y0151514I-0000192J0000046D01*
G01*
X0194389Y0148175D02*
G03*
X0194393Y0148190I-0000187J0000061D01*
G01*
X0194389Y0148175D02*
G03*
X0194393Y0148190I-0000187J0000060D01*
G01*
X0194389Y0148174D02*
G03*
X0194389Y0148175I-0000187J0000061D01*
G01*
X0193332Y0144924D02*
G03*
X0193337Y0144938I-0000182J0000075D01*
G01*
X0193337Y0144938D02*
G03*
X0193337Y0144939I-0000187J0000061D01*
G01*
X0193332Y0144924D02*
G03*
X0193337Y0144938I-0000182J0000075D01*
G01*
X0192023Y0141766D02*
G03*
X0192030Y0141780I-0000175J0000089D01*
G01*
X0192022Y0141764D02*
G03*
X0192030Y0141780I-0000175J0000091D01*
G01*
X0190471Y0138720D02*
G03*
X0190479Y0138735I-0000168J0000103D01*
G01*
X0190471Y0138720D02*
G03*
X0190478Y0138733I-0000168J0000103D01*
G01*
X0188684Y0135805D02*
G03*
X0188692Y0135818I-0000159J0000116D01*
G01*
X0188684Y0135805D02*
G03*
X0188692Y0135818I-0000159J0000116D01*
G01*
X0186674Y0133040D02*
G03*
X0186684Y0133052I-0000150J0000128D01*
G01*
X0186674Y0133041D02*
G03*
X0186684Y0133052I-0000150J0000128D01*
G01*
X0186674Y0133040D02*
G03*
X0186674Y0133041I-0000149J0000128D01*
G01*
X0184464Y0130452D02*
G03*
X0184464Y0130453I-0000149J0000128D01*
G01*
X0184453Y0130441D02*
G03*
X0184464Y0130452I-0000139J0000139D01*
G01*
X0184452Y0130440D02*
G03*
X0184464Y0130453I-0000138J0000140D01*
G01*
X0182036Y0128024D02*
G03*
X0182048Y0128036I-0000128J0000150D01*
G01*
X0182036Y0128025D02*
G03*
X0182047Y0128035I-0000128J0000149D01*
G01*
X0182035Y0128024D02*
G03*
X0182036Y0128025I-0000128J0000150D01*
G01*
X0179447Y0125814D02*
G03*
X0179448Y0125814I-0000128J0000150D01*
G01*
X0179436Y0125805D02*
G03*
X0179447Y0125814I-0000116J0000159D01*
G01*
X0179436Y0125805D02*
G03*
X0179448Y0125814I-0000116J0000159D01*
G01*
X0176670Y0123796D02*
G03*
X0176683Y0123804I-0000103J0000168D01*
G01*
X0176670Y0123796D02*
G03*
X0176683Y0123804I-0000103J0000168D01*
G01*
X0173755Y0122010D02*
G03*
X0173768Y0122018I-0000089J0000175D01*
G01*
X0173753Y0122010D02*
G03*
X0173768Y0122018I-0000088J0000176D01*
G01*
X0170709Y0120459D02*
G03*
X0170724Y0120466I-0000075J0000182D01*
G01*
X0170709Y0120459D02*
G03*
X0170722Y0120465I-0000075J0000182D01*
G01*
X0167550Y0119151D02*
G03*
X0167564Y0119156I-0000061J0000187D01*
G01*
X0167551Y0119151D02*
G03*
X0167564Y0119156I-0000061J0000187D01*
G01*
X0167549Y0119151D02*
G03*
X0167551Y0119151I-0000060J0000187D01*
G01*
X0164313Y0118099D02*
G03*
X0164314Y0118100I-0000060J0000187D01*
G01*
X0164298Y0118095D02*
G03*
X0164313Y0118099I-0000046J0000192D01*
G01*
X0164298Y0118095D02*
G03*
X0164313Y0118099I-0000046J0000192D01*
G01*
X0160974Y0117298D02*
G03*
X0160989Y0117301I-0000031J0000195D01*
G01*
X0160974Y0117298D02*
G03*
X0160989Y0117301I-0000031J0000195D01*
G01*
X0157598Y0116764D02*
G03*
X0157613Y0116765I-0000015J0000196D01*
G01*
X0157597Y0116763D02*
G03*
X0157613Y0116765I-0000014J0000196D01*
G01*
X0154190Y0116496D02*
G03*
X0154206Y0116497I0000000J0000197D01*
G01*
X0154190Y0116496D02*
G03*
X0154205Y0116497I0000000J0000197D01*
G01*
X0150787Y0203504D02*
G03*
X0150771Y0203503I0000000J-0000197D01*
G01*
X0150787Y0203504D02*
G03*
X0150770Y0203503I0000000J-0000197D01*
G01*
X0147380Y0203237D02*
G03*
X0147363Y0203235I0000014J-0000196D01*
G01*
X0147379Y0203236D02*
G03*
X0147363Y0203235I0000015J-0000196D01*
G01*
X0144002Y0202702D02*
G03*
X0143987Y0202699I0000031J-0000195D01*
G01*
X0144002Y0202702D02*
G03*
X0143987Y0202699I0000031J-0000195D01*
G01*
X0140678Y0201905D02*
G03*
X0140663Y0201901I0000046J-0000192D01*
G01*
X0140664Y0201901D02*
G03*
X0140662Y0201900I0000060J-0000187D01*
G01*
X0140678Y0201905D02*
G03*
X0140664Y0201901I0000046J-0000192D01*
G01*
X0137426Y0200849D02*
G03*
X0137412Y0200844I0000061J-0000187D01*
G01*
X0137427Y0200849D02*
G03*
X0137426Y0200849I0000060J-0000187D01*
G01*
X0137426Y0200849D02*
G03*
X0137412Y0200844I0000061J-0000187D01*
G01*
X0134268Y0199541D02*
G03*
X0134254Y0199535I0000075J-0000182D01*
G01*
X0134268Y0199541D02*
G03*
X0134253Y0199534I0000075J-0000182D01*
G01*
X0131223Y0197991D02*
G03*
X0131208Y0197982I0000088J-0000176D01*
G01*
X0131222Y0197990D02*
G03*
X0131208Y0197982I0000089J-0000175D01*
G01*
X0128307Y0196204D02*
G03*
X0128294Y0196196I0000103J-0000168D01*
G01*
X0128307Y0196204D02*
G03*
X0128294Y0196196I0000103J-0000168D01*
G01*
X0152252Y0194882D02*
G03*
X0152255Y0194882I0000000J0000197D01*
G01*
X0152252Y0194882D02*
G03*
X0152255Y0194882I0000000J0000197D01*
G01*
X0125541Y0194195D02*
G03*
X0125528Y0194186I0000116J-0000159D01*
G01*
X0125529Y0194186D02*
G03*
X0125528Y0194185I0000128J-0000150D01*
G01*
X0125541Y0194195D02*
G03*
X0125529Y0194186I0000116J-0000159D01*
G01*
X0122940Y0191975D02*
G03*
X0122929Y0191965I0000128J-0000149D01*
G01*
X0122941Y0191976D02*
G03*
X0122940Y0191975I0000128J-0000150D01*
G01*
X0122941Y0191976D02*
G03*
X0122928Y0191964I0000128J-0000150D01*
G01*
X0120524Y0189560D02*
G03*
X0120512Y0189548I0000138J-0000140D01*
G01*
X0120513Y0189548D02*
G03*
X0120512Y0189547I0000149J-0000128D01*
G01*
X0120523Y0189559D02*
G03*
X0120513Y0189548I0000139J-0000139D01*
G01*
X0118302Y0186959D02*
G03*
X0118293Y0186948I0000150J-0000128D01*
G01*
X0118303Y0186960D02*
G03*
X0118302Y0186959I0000149J-0000128D01*
G01*
X0118302Y0186960D02*
G03*
X0118293Y0186948I0000150J-0000128D01*
G01*
X0116293Y0184195D02*
G03*
X0116284Y0184182I0000159J-0000116D01*
G01*
X0116293Y0184195D02*
G03*
X0116284Y0184182I0000159J-0000116D01*
G01*
X0114506Y0181280D02*
G03*
X0114498Y0181266I0000168J-0000103D01*
G01*
X0114506Y0181280D02*
G03*
X0114498Y0181265I0000168J-0000103D01*
G01*
X0112954Y0178236D02*
G03*
X0112947Y0178220I0000175J-0000091D01*
G01*
X0112953Y0178234D02*
G03*
X0112947Y0178220I0000175J-0000089D01*
G01*
X0111644Y0175076D02*
G03*
X0111639Y0175062I0000182J-0000075D01*
G01*
X0111639Y0175062D02*
G03*
X0111639Y0175061I0000187J-0000061D01*
G01*
X0111644Y0175076D02*
G03*
X0111639Y0175062I0000182J-0000075D01*
G01*
X0110587Y0171825D02*
G03*
X0110583Y0171810I0000187J-0000060D01*
G01*
X0110588Y0171826D02*
G03*
X0110587Y0171825I0000187J-0000061D01*
G01*
X0110588Y0171825D02*
G03*
X0110583Y0171810I0000187J-0000061D01*
G01*
X0109789Y0168501D02*
G03*
X0109786Y0168486I0000192J-0000046D01*
G01*
X0109789Y0168501D02*
G03*
X0109786Y0168486I0000192J-0000046D01*
G01*
X0109254Y0165125D02*
G03*
X0109252Y0165110I0000195J-0000031D01*
G01*
X0109254Y0165125D02*
G03*
X0109252Y0165109I0000195J-0000031D01*
G01*
X0108985Y0161718D02*
G03*
X0108984Y0161702I0000196J-0000017D01*
G01*
X0108985Y0161717D02*
G03*
X0108984Y0161702I0000196J-0000015D01*
G01*
X0125529Y0125814D02*
G03*
X0125541Y0125805I0000128J0000150D01*
G01*
X0125528Y0125814D02*
G03*
X0125529Y0125814I0000128J0000149D01*
G01*
X0125528Y0125814D02*
G03*
X0125541Y0125805I0000128J0000150D01*
G01*
X0143987Y0117301D02*
G03*
X0144002Y0117298I0000046J0000192D01*
G01*
X0143987Y0117301D02*
G03*
X0144002Y0117298I0000046J0000192D01*
G01*
X0150770Y0116497D02*
G03*
X0150787Y0116496I0000017J0000196D01*
G01*
X0150771Y0116497D02*
G03*
X0150787Y0116496I0000015J0000196D01*
G01*
X0147363Y0116765D02*
G03*
X0147379Y0116764I0000031J0000195D01*
G01*
X0147363Y0116765D02*
G03*
X0147380Y0116763I0000031J0000195D01*
G01*
X0131208Y0122018D02*
G03*
X0131223Y0122010I0000103J0000168D01*
G01*
X0134253Y0120466D02*
G03*
X0134268Y0120459I0000091J0000175D01*
G01*
X0128294Y0123804D02*
G03*
X0128307Y0123796I0000116J0000159D01*
G01*
X0131208Y0122018D02*
G03*
X0131222Y0122010I0000103J0000168D01*
G01*
X0128294Y0123804D02*
G03*
X0128307Y0123796I0000116J0000159D01*
G01*
X0140664Y0118099D02*
G03*
X0140678Y0118095I0000060J0000187D01*
G01*
X0140662Y0118100D02*
G03*
X0140664Y0118099I0000061J0000187D01*
G01*
X0140663Y0118099D02*
G03*
X0140678Y0118095I0000061J0000187D01*
G01*
X0134254Y0120465D02*
G03*
X0134268Y0120459I0000089J0000175D01*
G01*
X0137426Y0119151D02*
G03*
X0137427Y0119151I0000061J0000187D01*
G01*
X0137412Y0119156D02*
G03*
X0137426Y0119151I0000075J0000182D01*
G01*
X0137412Y0119156D02*
G03*
X0137426Y0119151I0000075J0000182D01*
G01*
X0109252Y0154892D02*
G03*
X0109254Y0154875I0000196J0000014D01*
G01*
X0108984Y0158299D02*
G03*
X0108985Y0158282I0000197J0000000D01*
G01*
X0108984Y0158299D02*
G03*
X0108985Y0158283I0000197J0000000D01*
G01*
X0110583Y0148190D02*
G03*
X0110588Y0148175I0000192J0000046D01*
G01*
X0110587Y0148175D02*
G03*
X0110588Y0148174I0000187J0000060D01*
G01*
X0110583Y0148190D02*
G03*
X0110587Y0148175I0000192J0000046D01*
G01*
X0109252Y0154890D02*
G03*
X0109254Y0154875I0000196J0000015D01*
G01*
X0109786Y0151514D02*
G03*
X0109789Y0151499I0000195J0000031D01*
G01*
X0109786Y0151514D02*
G03*
X0109789Y0151499I0000195J0000031D01*
G01*
X0122928Y0128036D02*
G03*
X0122941Y0128024I0000140J0000138D01*
G01*
X0122940Y0128025D02*
G03*
X0122941Y0128024I0000128J0000149D01*
G01*
X0122929Y0128035D02*
G03*
X0122940Y0128025I0000139J0000139D01*
G01*
X0120513Y0130452D02*
G03*
X0120523Y0130441I0000149J0000128D01*
G01*
X0120512Y0130453D02*
G03*
X0120513Y0130452I0000150J0000128D01*
G01*
X0120512Y0130453D02*
G03*
X0120524Y0130440I0000150J0000128D01*
G01*
X0112947Y0141780D02*
G03*
X0112954Y0141764I0000182J0000075D01*
G01*
X0111639Y0144938D02*
G03*
X0111644Y0144924I0000187J0000061D01*
G01*
X0111639Y0144939D02*
G03*
X0111639Y0144938I0000187J0000060D01*
G01*
X0112947Y0141780D02*
G03*
X0112953Y0141766I0000182J0000075D01*
G01*
X0111639Y0144938D02*
G03*
X0111644Y0144924I0000187J0000061D01*
G01*
X0118302Y0133041D02*
G03*
X0118303Y0133040I0000150J0000128D01*
G01*
X0118293Y0133052D02*
G03*
X0118302Y0133041I0000159J0000116D01*
G01*
X0118293Y0133052D02*
G03*
X0118302Y0133040I0000159J0000116D01*
G01*
X0114498Y0138733D02*
G03*
X0114506Y0138720I0000175J0000089D01*
G01*
X0114498Y0138735D02*
G03*
X0114506Y0138720I0000176J0000088D01*
G01*
X0116284Y0135818D02*
G03*
X0116293Y0135805I0000168J0000103D01*
G01*
X0116284Y0135818D02*
G03*
X0116293Y0135805I0000168J0000103D01*
G01*
X0188692Y0184182D02*
X0190471Y0181280D01*
X0190478Y0181266D02*
X0190479Y0181265D01*
X0192022Y0178236D01*
X0192023Y0178234D01*
X0186684Y0186948D02*
X0188684Y0184195D01*
X0193337Y0175062D02*
X0193337Y0175062D01*
X0193337Y0175061D01*
X0194389Y0171826D01*
X0194389Y0171825D01*
X0194389Y0171825D01*
X0192030Y0178220D02*
X0193332Y0175076D01*
X0184464Y0189548D02*
X0184464Y0189548D01*
X0184464Y0189547D01*
X0186674Y0186960D01*
X0186674Y0186960D01*
X0186674Y0186959D01*
X0182047Y0191965D02*
X0182048Y0191964D01*
X0184452Y0189560D01*
X0184453Y0189559D01*
X0184059Y0174932D02*
X0185371Y0171765D01*
X0180539Y0180804D02*
X0182443Y0177954D01*
X0184059Y0174932D01*
X0195190Y0168486D02*
X0195723Y0165125D01*
X0194393Y0171810D02*
X0195187Y0168501D01*
X0195992Y0160000D02*
Y0161702D01*
Y0158299D02*
Y0160000D01*
X0195725Y0165110D02*
X0195725Y0165109D01*
X0195992Y0161718D01*
X0195992Y0161717D01*
X0186365Y0168486D02*
X0187034Y0165124D01*
X0185371Y0171765D02*
X0186365Y0168486D01*
X0187370Y0160000D02*
X0187370Y0161714D01*
X0187034Y0165124D02*
X0187370Y0161714D01*
X0167564Y0200844D02*
X0170709Y0199541D01*
X0167550Y0200849D02*
X0167551Y0200849D01*
X0167549Y0200849D02*
X0167550Y0200849D01*
X0164314Y0201900D02*
X0167549Y0200849D01*
X0164313Y0201901D02*
X0164314Y0201900D01*
X0164313Y0201901D02*
X0164313Y0201901D01*
X0173768Y0197982D02*
X0176670Y0196204D01*
X0176683Y0196196D02*
X0179436Y0194195D01*
X0173753Y0197991D02*
X0173755Y0197990D01*
X0170724Y0199534D02*
X0173753Y0197991D01*
X0170722Y0199535D02*
X0170724Y0199534D01*
X0157613Y0203235D02*
X0160974Y0202702D01*
X0157597Y0203237D02*
X0157598Y0203236D01*
X0154206Y0203503D02*
X0157597Y0203237D01*
X0154205Y0203503D02*
X0154206Y0203503D01*
X0160989Y0202699D02*
X0164298Y0201905D01*
X0182036Y0191976D02*
X0182036Y0191975D01*
X0182035Y0191976D02*
X0182036Y0191976D01*
X0179448Y0194185D02*
X0182035Y0191976D01*
X0179448Y0194186D02*
X0179448Y0194185D01*
X0179447Y0194186D02*
X0179448Y0194186D01*
X0178365Y0183453D02*
X0180539Y0180804D01*
X0173292Y0188051D02*
X0175942Y0185877D01*
X0178365Y0183453D01*
X0160974Y0193877D02*
X0164254Y0192882D01*
X0154202Y0194882D02*
X0157613Y0194546D01*
X0152488Y0194882D02*
X0154202Y0194882D01*
X0157613Y0194546D02*
X0160974Y0193877D01*
X0170443Y0189955D02*
X0173292Y0188051D01*
X0164254Y0192882D02*
X0167420Y0191571D01*
X0170443Y0189955D01*
X0195992Y0158282D02*
X0195992Y0158283D01*
X0195725Y0154892D02*
X0195992Y0158282D01*
X0195725Y0154890D02*
X0195725Y0154892D01*
X0195190Y0151514D02*
X0195723Y0154875D01*
X0194393Y0148190D02*
X0195187Y0151499D01*
X0194389Y0148175D02*
X0194389Y0148175D01*
X0194389Y0148174D02*
X0194389Y0148175D01*
X0193337Y0144939D02*
X0194389Y0148174D01*
X0193337Y0144938D02*
X0193337Y0144939D01*
X0193337Y0144938D02*
X0193337Y0144938D01*
X0187370Y0159995D02*
Y0160000D01*
Y0159995D02*
X0187370Y0158292D01*
X0187035Y0154893D02*
X0187370Y0158292D01*
X0186369Y0151543D02*
X0187035Y0154893D01*
X0185377Y0148274D02*
X0186369Y0151543D01*
X0184070Y0145118D02*
X0185377Y0148274D01*
X0182460Y0142106D02*
X0184070Y0145118D01*
X0192030Y0141780D02*
X0193332Y0144924D01*
X0192022Y0141764D02*
X0192023Y0141766D01*
X0190479Y0138735D02*
X0192022Y0141764D01*
X0190478Y0138733D02*
X0190479Y0138735D01*
X0188692Y0135818D02*
X0190471Y0138720D01*
X0186684Y0133052D02*
X0188684Y0135805D01*
X0186674Y0133040D02*
X0186674Y0133041D01*
X0186674Y0133040D02*
X0186674Y0133040D01*
X0184464Y0130453D02*
X0186674Y0133040D01*
X0184464Y0130453D02*
X0184464Y0130453D01*
X0184464Y0130452D02*
X0184464Y0130453D01*
X0180562Y0139266D02*
X0182460Y0142106D01*
X0178396Y0136626D02*
X0180562Y0139266D01*
X0184452Y0130440D02*
X0184453Y0130441D01*
X0182048Y0128036D02*
X0184452Y0130440D01*
X0182047Y0128035D02*
X0182048Y0128036D01*
X0182036Y0128024D02*
X0182036Y0128025D01*
X0182035Y0128024D02*
X0182036Y0128024D01*
X0179448Y0125814D02*
X0182035Y0128024D01*
X0179448Y0125814D02*
X0179448Y0125814D01*
X0179447Y0125814D02*
X0179448Y0125814D01*
X0176683Y0123804D02*
X0179436Y0125805D01*
X0175980Y0134211D02*
X0178396Y0136626D01*
X0173340Y0132044D02*
X0175980Y0134211D01*
X0170500Y0130146D02*
X0173340Y0132044D01*
X0167488Y0128536D02*
X0170500Y0130146D01*
X0164332Y0127229D02*
X0167488Y0128536D01*
X0161063Y0126237D02*
X0164332Y0127229D01*
X0157713Y0125571D02*
X0161063Y0126237D01*
X0152606Y0125236D02*
X0152606D01*
X0152606D02*
X0152606D01*
X0152606D02*
X0152606D01*
X0154314Y0125236D02*
X0157713Y0125571D01*
X0152606Y0125236D02*
X0152606D01*
X0152606D02*
X0154314Y0125236D01*
X0152606Y0125236D02*
X0152606D01*
X0173768Y0122018D02*
X0176670Y0123796D01*
X0173753Y0122010D02*
X0173755Y0122010D01*
X0170724Y0120466D02*
X0173753Y0122010D01*
X0170722Y0120465D02*
X0170724Y0120466D01*
X0167564Y0119156D02*
X0170709Y0120459D01*
X0167550Y0119151D02*
X0167551Y0119151D01*
X0167549Y0119151D02*
X0167550Y0119151D01*
X0164314Y0118100D02*
X0167549Y0119151D01*
X0164313Y0118099D02*
X0164314Y0118100D01*
X0164313Y0118099D02*
X0164313Y0118099D01*
X0160989Y0117301D02*
X0164298Y0118095D01*
X0157613Y0116765D02*
X0160974Y0117298D01*
X0157597Y0116763D02*
X0157598Y0116764D01*
X0154206Y0116497D02*
X0157597Y0116763D01*
X0154205Y0116497D02*
X0154206Y0116497D01*
X0150787Y0203504D02*
X0154190D01*
X0150770Y0203503D02*
X0150771Y0203503D01*
X0147380Y0203237D02*
X0150770Y0203503D01*
X0147379Y0203236D02*
X0147380Y0203237D01*
X0144002Y0202702D02*
X0147363Y0203235D01*
X0140678Y0201905D02*
X0143987Y0202699D01*
X0140663Y0201901D02*
X0140664Y0201901D01*
X0140662Y0201900D02*
X0140663Y0201901D01*
X0137427Y0200849D02*
X0140662Y0201900D01*
X0137426Y0200849D02*
X0137427Y0200849D01*
X0137426Y0200849D02*
X0137426Y0200849D01*
X0134268Y0199541D02*
X0137412Y0200844D01*
X0134253Y0199534D02*
X0134254Y0199535D01*
X0131223Y0197991D02*
X0134253Y0199534D01*
X0131222Y0197990D02*
X0131223Y0197991D01*
X0128307Y0196204D02*
X0131208Y0197982D01*
X0125541Y0194195D02*
X0128294Y0196196D01*
X0152255Y0194882D02*
X0152488Y0194882D01*
X0152252Y0194882D02*
X0152255D01*
X0150550Y0194882D02*
X0152252Y0194882D01*
X0147162Y0194548D02*
X0150550Y0194882D01*
X0143824Y0193884D02*
X0147162Y0194548D01*
X0140566Y0192896D02*
X0143824Y0193884D01*
X0137421Y0191593D02*
X0140566Y0192896D01*
X0134419Y0189989D02*
X0137421Y0191593D01*
X0131589Y0188097D02*
X0134419Y0189989D01*
X0128957Y0185938D02*
X0131589Y0188097D01*
X0126550Y0183531D02*
X0128957Y0185938D01*
X0125528Y0194186D02*
X0125529Y0194186D01*
X0125528Y0194185D02*
X0125528Y0194186D01*
X0122941Y0191976D02*
X0125528Y0194185D01*
X0122941Y0191976D02*
X0122941Y0191976D01*
X0122940Y0191975D02*
X0122941Y0191976D01*
X0122928Y0191964D02*
X0122929Y0191965D01*
X0120524Y0189560D02*
X0122928Y0191964D01*
X0120523Y0189559D02*
X0120524Y0189560D01*
X0124391Y0180900D02*
X0126550Y0183531D01*
X0122500Y0178069D02*
X0124391Y0180900D01*
X0120895Y0175067D02*
X0122500Y0178069D01*
X0120512Y0189548D02*
X0120513Y0189548D01*
X0120512Y0189547D02*
X0120512Y0189548D01*
X0118303Y0186960D02*
X0120512Y0189547D01*
X0118302Y0186960D02*
X0118303Y0186960D01*
X0118302Y0186959D02*
X0118302Y0186960D01*
X0116293Y0184195D02*
X0118293Y0186948D01*
X0114506Y0181280D02*
X0116284Y0184182D01*
X0114498Y0181265D02*
X0114498Y0181266D01*
X0112954Y0178236D02*
X0114498Y0181265D01*
X0112953Y0178234D02*
X0112954Y0178236D01*
X0111644Y0175076D02*
X0112947Y0178220D01*
X0119592Y0171922D02*
X0120895Y0175067D01*
X0118604Y0168665D02*
X0119592Y0171922D01*
X0117940Y0165326D02*
X0118604Y0168665D01*
X0117606Y0161938D02*
X0117940Y0165326D01*
X0117606Y0160236D02*
Y0161938D01*
Y0160236D02*
Y0160236D01*
X0111639Y0175062D02*
X0111639Y0175062D01*
X0111639Y0175061D02*
X0111639Y0175062D01*
X0110588Y0171826D02*
X0111639Y0175061D01*
X0110588Y0171825D02*
X0110588Y0171826D01*
X0110587Y0171825D02*
X0110588Y0171825D01*
X0109789Y0168501D02*
X0110583Y0171810D01*
X0109254Y0165125D02*
X0109786Y0168486D01*
X0109252Y0165109D02*
X0109252Y0165110D01*
X0108985Y0161718D02*
X0109252Y0165109D01*
X0108985Y0161717D02*
X0108985Y0161718D01*
X0137624Y0128559D02*
X0140801Y0127243D01*
X0144092Y0126244D01*
X0134591Y0130180D02*
X0137624Y0128559D01*
X0147465Y0125573D02*
X0150887Y0125236D01*
X0144092Y0126244D02*
X0147465Y0125573D01*
X0129073Y0134272D02*
X0131732Y0132090D01*
X0126642Y0136703D02*
X0129073Y0134272D01*
X0124460Y0139362D02*
X0126642Y0136703D01*
X0131732Y0132090D02*
X0134591Y0130180D01*
X0125541Y0125805D02*
X0128294Y0123804D01*
X0152606Y0125236D02*
X0152606D01*
X0150887Y0125236D02*
X0152606Y0125236D01*
X0150787Y0116496D02*
X0154190D01*
X0144002Y0117298D02*
X0147363Y0116765D01*
X0150770Y0116497D02*
X0150771Y0116497D01*
X0147380Y0116763D02*
X0150770Y0116497D01*
X0147379Y0116764D02*
X0147380Y0116763D01*
X0134253Y0120466D02*
X0134254Y0120465D01*
X0131223Y0122010D02*
X0134253Y0120466D01*
X0131222Y0122010D02*
X0131223Y0122010D01*
X0128307Y0123796D02*
X0131208Y0122018D01*
X0140663Y0118099D02*
X0140664Y0118099D01*
X0140662Y0118100D02*
X0140663Y0118099D01*
X0137427Y0119151D02*
X0140662Y0118100D01*
X0137426Y0119151D02*
X0137427Y0119151D01*
X0137426Y0119151D02*
X0137426Y0119151D01*
X0140678Y0118095D02*
X0143987Y0117301D01*
X0134268Y0120459D02*
X0137412Y0119156D01*
X0117606Y0158517D02*
X0117606Y0160236D01*
X0117606Y0158517D02*
X0117943Y0155094D01*
X0117606Y0160236D02*
Y0160236D01*
X0119613Y0148431D02*
X0120929Y0145254D01*
X0118614Y0151722D02*
X0119613Y0148431D01*
X0117943Y0155094D02*
X0118614Y0151722D01*
X0108984Y0158299D02*
Y0160000D01*
Y0161702D01*
X0108985Y0158283D02*
X0108985Y0158282D01*
X0109252Y0154892D01*
X0109252Y0154890D01*
X0109789Y0151499D02*
X0110583Y0148190D01*
X0109254Y0154875D02*
X0109786Y0151514D01*
X0122550Y0142221D02*
X0124460Y0139362D01*
X0120929Y0145254D02*
X0122550Y0142221D01*
X0125528Y0125814D02*
X0125529Y0125814D01*
X0125528Y0125814D02*
X0125528Y0125814D01*
X0122941Y0128024D02*
X0125528Y0125814D01*
X0122941Y0128024D02*
X0122941Y0128024D01*
X0122940Y0128025D02*
X0122941Y0128024D01*
X0120523Y0130441D02*
X0120524Y0130440D01*
X0122928Y0128036D01*
X0122929Y0128035D01*
X0112953Y0141766D02*
X0112954Y0141764D01*
X0114498Y0138735D01*
X0114498Y0138733D01*
X0110587Y0148175D02*
X0110588Y0148175D01*
X0110588Y0148174D01*
X0111639Y0144939D01*
X0111639Y0144938D01*
X0111639Y0144938D01*
X0111644Y0144924D02*
X0112947Y0141780D01*
X0116293Y0135805D02*
X0118293Y0133052D01*
X0118302Y0133041D02*
X0118302Y0133040D01*
X0118303Y0133040D01*
X0120512Y0130453D01*
X0120512Y0130453D01*
X0120513Y0130452D01*
X0114506Y0138720D02*
X0116284Y0135818D01*
D15*
X0152606Y0125236D02*
D03*
D03*
X0152488Y0194882D02*
D03*
D03*
X0117606Y0160236D02*
D03*
Y0160236D02*
D03*
X0152606Y0125236D02*
D03*
D03*
X0117606Y0160236D02*
D03*
Y0160236D02*
D03*
M02*
