G04*
G04 #@! TF.GenerationSoftware,Altium Limited,Altium Designer,19.1.7 (138)*
G04*
G04 Layer_Physical_Order=1*
G04 Layer_Color=255*
%FSAX25Y25*%
%MOIN*%
G70*
G01*
G75*
%ADD14R,0.02362X0.02953*%
%ADD15R,0.02362X0.02520*%
%ADD16R,0.02520X0.02362*%
%ADD17R,0.02244X0.03071*%
%ADD18R,0.02244X0.02953*%
%ADD19R,0.02953X0.12205*%
%ADD20R,0.08661X0.04134*%
%ADD21R,0.07874X0.03071*%
%ADD33C,0.02953*%
%ADD34C,0.03071*%
%ADD35C,0.01575*%
%ADD36C,0.05906*%
%ADD37C,0.01968*%
G36*
X0494272Y0318327D02*
X0490571D01*
X0490571Y0332876D01*
X0480256D01*
Y0337106D01*
X0494272D01*
X0494272Y0318327D01*
D02*
G37*
G36*
X0446556Y0338006D02*
X0446614Y0337995D01*
X0446673Y0338006D01*
X0449469D01*
X0449528Y0337995D01*
X0449586Y0338006D01*
X0452422D01*
X0452480Y0337995D01*
X0452539Y0338006D01*
X0455112D01*
D01*
X0463524D01*
Y0335113D01*
X0455984D01*
Y0328570D01*
X0454252D01*
X0454057Y0328532D01*
X0452280D01*
X0452255Y0328532D01*
X0451780Y0328590D01*
X0451761Y0328590D01*
X0449925D01*
X0449724Y0328630D01*
X0445276D01*
X0445242Y0328624D01*
X0443796Y0328481D01*
X0442373Y0328050D01*
X0441062Y0327349D01*
X0439913Y0326406D01*
X0438970Y0325257D01*
X0438269Y0323945D01*
X0437838Y0322523D01*
X0437695Y0321077D01*
X0437688Y0321043D01*
Y0297421D01*
X0437696Y0297384D01*
X0437611Y0296743D01*
X0437350Y0296110D01*
X0436933Y0295567D01*
X0436390Y0295150D01*
X0435757Y0294889D01*
X0435116Y0294804D01*
X0435079Y0294812D01*
X0429874D01*
X0429673Y0294772D01*
X0427012D01*
Y0290701D01*
X0429673D01*
X0429874Y0290661D01*
X0435079D01*
X0435152Y0290675D01*
X0435409Y0290701D01*
X0435886D01*
Y0290748D01*
X0436396Y0290798D01*
X0437663Y0291182D01*
X0438831Y0291806D01*
X0439854Y0292646D01*
X0440694Y0293670D01*
X0441318Y0294837D01*
X0441702Y0296104D01*
X0441824Y0297348D01*
X0441839Y0297421D01*
Y0321043D01*
X0441827Y0321102D01*
X0441937Y0321938D01*
X0442283Y0322771D01*
X0442832Y0323487D01*
X0443067Y0323667D01*
X0443567Y0323421D01*
Y0322921D01*
X0445827D01*
X0448087D01*
Y0324480D01*
X0449724D01*
X0449925Y0324520D01*
X0451761D01*
X0451780Y0324520D01*
X0452255Y0324579D01*
X0452280Y0324579D01*
X0454057D01*
X0454252Y0324540D01*
X0455984D01*
X0455984Y0298130D01*
X0495354D01*
X0495354Y0333272D01*
X0496350D01*
Y0335531D01*
X0496850D01*
Y0336032D01*
X0499031D01*
Y0337506D01*
X0499442Y0338006D01*
X0504719D01*
X0504719Y0272112D01*
X0452539Y0272112D01*
X0452480Y0272124D01*
X0452422Y0272112D01*
X0449586D01*
X0449528Y0272124D01*
X0449469Y0272112D01*
X0446634D01*
X0446575Y0272124D01*
X0446516Y0272112D01*
X0395517Y0272112D01*
X0395517Y0289266D01*
X0414291D01*
X0414640Y0289335D01*
X0414936Y0289533D01*
X0415133Y0289828D01*
X0415203Y0290177D01*
Y0295295D01*
X0415133Y0295644D01*
X0414936Y0295940D01*
X0414640Y0296137D01*
X0414291Y0296206D01*
X0395517D01*
Y0323268D01*
X0395517Y0323268D01*
X0395517Y0338006D01*
X0446556Y0338006D01*
D02*
G37*
%LPC*%
G36*
X0499031Y0335032D02*
X0497350D01*
Y0333272D01*
X0499031D01*
Y0335032D01*
D02*
G37*
G36*
X0448087Y0321921D02*
X0446327D01*
Y0320240D01*
X0448087D01*
Y0321921D01*
D02*
G37*
G36*
X0445327D02*
X0443567D01*
Y0320240D01*
X0445327D01*
Y0321921D01*
D02*
G37*
G36*
X0429299Y0301610D02*
X0424469D01*
Y0299043D01*
X0429299D01*
Y0301610D01*
D02*
G37*
G36*
X0423468D02*
X0418638D01*
Y0299043D01*
X0423468D01*
Y0301610D01*
D02*
G37*
G36*
X0429299Y0298043D02*
X0424469D01*
Y0295476D01*
X0429299D01*
Y0298043D01*
D02*
G37*
G36*
X0423468D02*
X0418638D01*
Y0295476D01*
X0423468D01*
Y0298043D01*
D02*
G37*
G36*
X0429299Y0289996D02*
X0424469D01*
Y0287429D01*
X0429299D01*
Y0289996D01*
D02*
G37*
G36*
X0423468D02*
X0418638D01*
Y0287429D01*
X0423468D01*
Y0289996D01*
D02*
G37*
G36*
X0429299Y0286429D02*
X0424469D01*
Y0283862D01*
X0429299D01*
Y0286429D01*
D02*
G37*
G36*
X0423468D02*
X0418638D01*
Y0283862D01*
X0423468D01*
Y0286429D01*
D02*
G37*
%LPD*%
D14*
X0487992Y0319587D02*
D03*
D15*
X0491772D02*
D03*
X0496850Y0335531D02*
D03*
X0493071D02*
D03*
D16*
X0445827Y0326201D02*
D03*
Y0322421D02*
D03*
D17*
X0450157Y0326555D02*
D03*
D18*
X0453858D02*
D03*
D19*
X0462047Y0331004D02*
D03*
X0471890D02*
D03*
X0481732D02*
D03*
D20*
X0423969Y0286929D02*
D03*
Y0298543D02*
D03*
D21*
X0431449Y0292736D02*
D03*
D33*
X0462047Y0323957D02*
G03*
X0466417Y0319587I0004370J0000000D01*
G01*
X0487559D01*
X0454252Y0326555D02*
X0461882D01*
X0462047Y0323957D02*
Y0331004D01*
D34*
X0445276Y0326555D02*
G03*
X0439764Y0321043I0000000J-0005512D01*
G01*
X0435079Y0292736D02*
G03*
X0439764Y0297421I0000000J0004685D01*
G01*
X0445276Y0326555D02*
X0449724D01*
X0439764Y0297421D02*
Y0321043D01*
X0429874Y0292736D02*
X0435079D01*
D35*
X0446614Y0339508D02*
D03*
X0449528Y0339508D02*
D03*
X0452480D02*
D03*
X0452480Y0270610D02*
D03*
X0449528D02*
D03*
X0446575D02*
D03*
D36*
X0409331Y0271673D02*
D03*
X0421890Y0271634D02*
D03*
X0434449Y0271595D02*
D03*
D37*
X0499016Y0324803D02*
D03*
Y0312992D02*
D03*
Y0301181D02*
D03*
X0496063Y0295275D02*
D03*
X0499016Y0289370D02*
D03*
X0496063Y0283465D02*
D03*
X0490157Y0295275D02*
D03*
X0493110Y0289370D02*
D03*
X0490157Y0283465D02*
D03*
X0484252Y0295275D02*
D03*
X0487205Y0289370D02*
D03*
X0484252Y0283465D02*
D03*
X0478346Y0295275D02*
D03*
X0481299Y0289370D02*
D03*
X0478346Y0283465D02*
D03*
X0472441Y0295275D02*
D03*
X0475393Y0289370D02*
D03*
X0472441Y0283465D02*
D03*
X0466535Y0295275D02*
D03*
X0469488Y0289370D02*
D03*
X0466535Y0283465D02*
D03*
X0460630Y0295275D02*
D03*
X0463583Y0289370D02*
D03*
X0460630Y0283465D02*
D03*
X0454724Y0295275D02*
D03*
X0457677Y0289370D02*
D03*
X0454724Y0283465D02*
D03*
X0448819Y0318898D02*
D03*
X0451771Y0312992D02*
D03*
X0448819Y0307086D02*
D03*
X0451771Y0301181D02*
D03*
X0448819Y0295275D02*
D03*
X0451771Y0289370D02*
D03*
X0448819Y0283465D02*
D03*
X0445866Y0312992D02*
D03*
Y0301181D02*
D03*
Y0289370D02*
D03*
X0442913Y0283465D02*
D03*
X0437008Y0330709D02*
D03*
Y0283465D02*
D03*
X0431102Y0330709D02*
D03*
X0434055Y0324803D02*
D03*
X0431102Y0318898D02*
D03*
Y0307086D02*
D03*
Y0283465D02*
D03*
X0425197Y0330709D02*
D03*
X0428150Y0324803D02*
D03*
X0425197Y0318898D02*
D03*
X0428150Y0312992D02*
D03*
X0425197Y0307086D02*
D03*
X0419291Y0330709D02*
D03*
X0422244Y0324803D02*
D03*
X0419291Y0318898D02*
D03*
X0422244Y0312992D02*
D03*
X0419291Y0307086D02*
D03*
X0413386Y0330709D02*
D03*
X0416338Y0324803D02*
D03*
X0413386Y0318898D02*
D03*
X0416338Y0312992D02*
D03*
X0413386Y0307086D02*
D03*
X0416338Y0301181D02*
D03*
Y0289370D02*
D03*
X0413386Y0283465D02*
D03*
X0407480Y0330709D02*
D03*
X0410433Y0324803D02*
D03*
X0407480Y0318898D02*
D03*
X0410433Y0312992D02*
D03*
X0407480Y0307086D02*
D03*
X0410433Y0301181D02*
D03*
X0407480Y0283465D02*
D03*
X0401575Y0330709D02*
D03*
X0404527Y0324803D02*
D03*
X0401575Y0318898D02*
D03*
X0404527Y0312992D02*
D03*
X0401575Y0307086D02*
D03*
X0404527Y0301181D02*
D03*
X0401575Y0283465D02*
D03*
X0441344Y0329227D02*
D03*
X0438912Y0327525D02*
D03*
X0437171Y0325121D02*
D03*
X0436284Y0322288D02*
D03*
X0436175Y0319322D02*
D03*
Y0316353D02*
D03*
Y0313385D02*
D03*
Y0310416D02*
D03*
Y0307448D02*
D03*
Y0304479D02*
D03*
Y0301511D02*
D03*
Y0298542D02*
D03*
X0434202Y0296325D02*
D03*
X0431233D02*
D03*
X0429773Y0289168D02*
D03*
X0432741Y0289148D02*
D03*
X0435709Y0289200D02*
D03*
X0438582Y0289947D02*
D03*
X0441001Y0291667D02*
D03*
X0442655Y0294132D02*
D03*
X0443323Y0297025D02*
D03*
X0443352Y0299993D02*
D03*
Y0302961D02*
D03*
Y0305930D02*
D03*
Y0308898D02*
D03*
Y0311867D02*
D03*
Y0314836D02*
D03*
Y0317804D02*
D03*
X0451289Y0322998D02*
D03*
X0451233Y0330114D02*
D03*
X0448264Y0330144D02*
D03*
X0445296D02*
D03*
X0502047Y0335492D02*
D03*
M02*
