G04*
G04 #@! TF.GenerationSoftware,Altium Limited,Altium Designer,19.1.7 (138)*
G04*
G04 Layer_Color=8388736*
%FSAX25Y25*%
%MOIN*%
G70*
G01*
G75*
%ADD22R,0.10591X0.15748*%
%ADD23R,0.03162X0.03753*%
%ADD24R,0.03162X0.03320*%
%ADD25R,0.03320X0.03162*%
%ADD26R,0.03044X0.03871*%
%ADD27R,0.03044X0.03753*%
%ADD28R,0.03753X0.13005*%
%ADD29R,0.09461X0.04934*%
%ADD30R,0.08674X0.03871*%
%ADD31C,0.02375*%
%ADD32C,0.06706*%
D22*
X0420492Y0292736D02*
D03*
D23*
X0487992Y0319587D02*
D03*
D24*
X0491772D02*
D03*
X0496850Y0335531D02*
D03*
X0493071D02*
D03*
D25*
X0445827Y0326201D02*
D03*
Y0322421D02*
D03*
D26*
X0450157Y0326555D02*
D03*
D27*
X0453858D02*
D03*
D28*
X0462047Y0331004D02*
D03*
X0471890D02*
D03*
X0481732D02*
D03*
D29*
X0423969Y0286929D02*
D03*
Y0298543D02*
D03*
D30*
X0431449Y0292736D02*
D03*
D31*
X0446614Y0339508D02*
D03*
X0449528Y0339508D02*
D03*
X0452480D02*
D03*
X0452480Y0270610D02*
D03*
X0449528D02*
D03*
X0446575D02*
D03*
D32*
X0409331Y0271673D02*
D03*
X0421890Y0271634D02*
D03*
X0434449Y0271595D02*
D03*
M02*
