G04*
G04 #@! TF.GenerationSoftware,Altium Limited,Altium Designer,19.1.5 (86)*
G04*
G04 Layer_Physical_Order=1*
G04 Layer_Color=255*
%FSAX25Y25*%
%MOIN*%
G70*
G01*
G75*
%ADD12C,0.00787*%
%ADD14R,0.01575X0.03543*%
%ADD15C,0.04724*%
%ADD19C,0.01181*%
%ADD20C,0.00598*%
%ADD21C,0.00984*%
%ADD22C,0.01575*%
%ADD23C,0.00984*%
%ADD24C,0.05906*%
%ADD25C,0.01968*%
%ADD26C,0.01575*%
G36*
X0156175Y0202143D02*
X0159834Y0201661D01*
X0163437Y0200862D01*
X0165476Y0200219D01*
X0165438Y0199928D01*
X0165560Y0199000D01*
X0165918Y0198136D01*
X0166488Y0197394D01*
X0167230Y0196824D01*
X0168094Y0196466D01*
X0169021Y0196344D01*
X0169949Y0196466D01*
X0170813Y0196824D01*
X0171555Y0197394D01*
X0171735Y0197628D01*
X0173640Y0196636D01*
X0176753Y0194653D01*
X0179680Y0192406D01*
X0179827Y0192272D01*
X0179700Y0192107D01*
X0179342Y0191242D01*
X0179220Y0190315D01*
X0179342Y0189388D01*
X0179700Y0188523D01*
X0180269Y0187781D01*
X0181011Y0187212D01*
X0181299Y0187092D01*
X0181438Y0186749D01*
X0181383Y0186470D01*
X0181382Y0186468D01*
X0180709Y0185795D01*
X0180489Y0185467D01*
X0180442Y0185227D01*
X0180382Y0185092D01*
X0180381Y0185049D01*
X0177479D01*
Y0183984D01*
X0177467Y0183979D01*
X0177381Y0183957D01*
X0177258Y0183936D01*
X0177100Y0183922D01*
X0176893Y0183917D01*
X0176834Y0183891D01*
X0176416D01*
X0174723Y0185584D01*
X0174698Y0185646D01*
X0174627Y0185718D01*
X0174517Y0185838D01*
X0174446Y0185925D01*
X0174434Y0185942D01*
X0174432Y0185945D01*
X0174425Y0185959D01*
X0174422Y0185962D01*
X0174417Y0185970D01*
X0174413Y0185973D01*
X0174335Y0186366D01*
X0173985Y0186890D01*
X0173461Y0187240D01*
X0172843Y0187363D01*
X0172224Y0187240D01*
X0171700Y0186890D01*
X0171350Y0186366D01*
X0171227Y0185748D01*
X0171350Y0185130D01*
X0171700Y0184606D01*
X0172224Y0184256D01*
X0172618Y0184177D01*
X0172621Y0184174D01*
X0172628Y0184169D01*
X0172632Y0184165D01*
X0172646Y0184158D01*
X0172649Y0184156D01*
X0172656Y0184151D01*
X0172879Y0183957D01*
X0172944Y0183893D01*
X0173006Y0183868D01*
X0175055Y0181819D01*
X0175449Y0181556D01*
X0175913Y0181463D01*
X0175913Y0181463D01*
X0176834D01*
X0176893Y0181437D01*
X0177100Y0181432D01*
X0177258Y0181418D01*
X0177381Y0181398D01*
X0177467Y0181375D01*
X0177479Y0181370D01*
Y0180306D01*
X0177479D01*
Y0179931D01*
X0177479D01*
Y0175187D01*
X0182197D01*
Y0174787D01*
X0183484D01*
Y0177559D01*
X0183984D01*
Y0178059D01*
X0185772D01*
Y0180331D01*
X0185372D01*
Y0181167D01*
X0185872Y0181374D01*
X0189189Y0178057D01*
X0188867Y0177278D01*
X0188745Y0176351D01*
X0188867Y0175423D01*
X0189225Y0174559D01*
X0189794Y0173817D01*
X0190536Y0173248D01*
X0191401Y0172890D01*
X0192328Y0172767D01*
X0192759Y0172824D01*
X0193350Y0170949D01*
X0194149Y0167346D01*
X0194631Y0163687D01*
X0194647Y0163314D01*
X0193976Y0163036D01*
X0193269Y0162494D01*
X0193214Y0162473D01*
X0192666Y0161958D01*
X0192426Y0161763D01*
X0192192Y0161594D01*
X0191972Y0161456D01*
X0191766Y0161347D01*
X0191576Y0161267D01*
X0191403Y0161214D01*
X0191246Y0161184D01*
X0191060Y0161172D01*
X0191010Y0161147D01*
X0190087D01*
X0190087Y0161147D01*
X0189622Y0161055D01*
X0189228Y0160791D01*
X0189228Y0160791D01*
X0180921Y0152484D01*
X0180658Y0152091D01*
X0180566Y0151626D01*
X0180566Y0151626D01*
Y0138337D01*
X0177385Y0135157D01*
X0176924Y0135403D01*
X0176938Y0135472D01*
X0176815Y0136091D01*
X0176465Y0136615D01*
X0175941Y0136965D01*
X0175323Y0137088D01*
X0174705Y0136965D01*
X0174181Y0136615D01*
X0173830Y0136091D01*
X0173707Y0135472D01*
X0173830Y0134854D01*
X0174032Y0134552D01*
X0168463Y0128982D01*
X0167920Y0129147D01*
X0167878Y0129358D01*
X0167528Y0129882D01*
X0167004Y0130233D01*
X0166495Y0130334D01*
X0166476Y0130343D01*
X0166466Y0130350D01*
X0166455Y0130359D01*
X0166449Y0130361D01*
X0166441Y0130366D01*
X0166422Y0130369D01*
X0166418Y0130371D01*
X0166417Y0130372D01*
X0166398Y0130382D01*
X0166368Y0130400D01*
X0166336Y0130423D01*
X0166225Y0130517D01*
X0166164Y0130576D01*
X0166121Y0130593D01*
Y0143988D01*
X0169693Y0147559D01*
X0169693Y0147559D01*
X0169934Y0147920D01*
X0170019Y0148346D01*
X0170019Y0148346D01*
Y0153397D01*
X0170030Y0153408D01*
X0170092Y0153431D01*
X0170226Y0153555D01*
X0170267Y0153588D01*
X0170305Y0153615D01*
X0170335Y0153634D01*
X0170353Y0153644D01*
X0170355Y0153645D01*
X0170359Y0153646D01*
X0170378Y0153650D01*
X0170386Y0153655D01*
X0170392Y0153657D01*
X0170403Y0153666D01*
X0170413Y0153673D01*
X0170431Y0153682D01*
X0170941Y0153783D01*
X0171465Y0154133D01*
X0171815Y0154657D01*
X0171938Y0155276D01*
X0171815Y0155894D01*
X0171465Y0156418D01*
X0170941Y0156768D01*
X0170323Y0156891D01*
X0170220Y0156870D01*
X0169771Y0157291D01*
X0169807Y0157559D01*
X0169705Y0158332D01*
X0169406Y0159053D01*
X0169204Y0159317D01*
X0169544Y0159685D01*
X0169549Y0159688D01*
X0170165Y0159566D01*
X0170783Y0159689D01*
X0171109Y0159906D01*
X0173207Y0157809D01*
Y0147456D01*
X0172825Y0147073D01*
X0172606Y0146745D01*
X0172529Y0146357D01*
Y0144619D01*
X0172606Y0144232D01*
X0172825Y0143903D01*
X0173207Y0143521D01*
Y0143110D01*
X0173284Y0142722D01*
X0173504Y0142394D01*
X0176365Y0139533D01*
X0176390Y0139466D01*
X0176443Y0139409D01*
X0176476Y0139370D01*
X0176501Y0139334D01*
X0176521Y0139302D01*
X0176536Y0139273D01*
X0176546Y0139247D01*
X0176554Y0139222D01*
X0176559Y0139199D01*
X0176562Y0139175D01*
X0176564Y0139122D01*
X0176600Y0139042D01*
X0176705Y0138516D01*
X0177055Y0137992D01*
X0177579Y0137642D01*
X0178197Y0137519D01*
X0178815Y0137642D01*
X0179339Y0137992D01*
X0179689Y0138516D01*
X0179812Y0139134D01*
X0179689Y0139752D01*
X0179339Y0140276D01*
X0178815Y0140626D01*
X0178289Y0140731D01*
X0178209Y0140767D01*
X0178155Y0140769D01*
X0178132Y0140772D01*
X0178108Y0140777D01*
X0178084Y0140784D01*
X0178058Y0140795D01*
X0178029Y0140810D01*
X0177996Y0140830D01*
X0177960Y0140855D01*
X0177921Y0140888D01*
X0177865Y0140940D01*
X0177797Y0140966D01*
X0175429Y0143334D01*
X0175467Y0143538D01*
X0175626Y0143844D01*
X0176138Y0143946D01*
X0176662Y0144296D01*
X0177012Y0144820D01*
X0177135Y0145439D01*
X0177127Y0145481D01*
X0177139Y0145504D01*
X0177142Y0145530D01*
X0177164Y0145563D01*
X0177242Y0145950D01*
Y0146410D01*
X0177267Y0146640D01*
X0177242Y0146729D01*
Y0151965D01*
X0177271Y0152031D01*
X0177273Y0152108D01*
X0177278Y0152159D01*
X0177286Y0152202D01*
X0177294Y0152239D01*
X0177305Y0152270D01*
X0177316Y0152296D01*
X0177328Y0152319D01*
X0177340Y0152339D01*
X0177355Y0152358D01*
X0177392Y0152397D01*
X0177422Y0152479D01*
X0177721Y0152925D01*
X0177844Y0153543D01*
X0177721Y0154161D01*
X0177371Y0154685D01*
X0176847Y0155036D01*
X0176228Y0155159D01*
X0175734Y0155060D01*
X0175234Y0155340D01*
Y0158228D01*
X0175156Y0158616D01*
X0174937Y0158945D01*
X0171984Y0161898D01*
X0171655Y0162117D01*
X0171413Y0162165D01*
X0171308Y0162323D01*
X0170783Y0162673D01*
X0170165Y0162796D01*
X0169547Y0162673D01*
X0169023Y0162323D01*
X0168673Y0161799D01*
X0168550Y0161181D01*
X0168673Y0160563D01*
X0168759Y0160434D01*
X0168389Y0160088D01*
X0168313Y0160146D01*
X0167592Y0160445D01*
X0166819Y0160547D01*
X0166046Y0160445D01*
X0165325Y0160146D01*
X0164706Y0159672D01*
X0164231Y0159053D01*
X0164144Y0158842D01*
X0164123Y0158830D01*
X0163619Y0158688D01*
X0163407Y0158830D01*
X0163019Y0158907D01*
X0159637D01*
X0159573Y0158937D01*
X0159432Y0158942D01*
X0159398Y0158946D01*
X0159368Y0158951D01*
X0159349Y0158955D01*
X0159345Y0158956D01*
X0159331Y0158964D01*
X0159324Y0158964D01*
X0159317Y0158967D01*
X0159295Y0158967D01*
X0159284Y0158968D01*
X0158935Y0159201D01*
X0158394Y0159309D01*
X0157852Y0159201D01*
X0157488Y0158957D01*
X0157147Y0159067D01*
X0156988Y0159179D01*
Y0165109D01*
X0157019Y0165175D01*
X0157021Y0165234D01*
X0157025Y0165263D01*
X0157032Y0165292D01*
X0157042Y0165322D01*
X0157055Y0165355D01*
X0157074Y0165390D01*
X0157098Y0165429D01*
X0157130Y0165471D01*
X0157168Y0165517D01*
X0157228Y0165579D01*
X0157259Y0165659D01*
X0157563Y0166114D01*
X0157686Y0166732D01*
X0157563Y0167350D01*
X0157213Y0167875D01*
X0156689Y0168225D01*
X0156071Y0168348D01*
X0155453Y0168225D01*
X0155257Y0168094D01*
X0154757Y0168361D01*
Y0168990D01*
X0154758Y0168991D01*
X0154775Y0168994D01*
X0154790Y0168996D01*
X0154836Y0168997D01*
X0154900Y0169025D01*
X0155468Y0169138D01*
X0155993Y0169488D01*
X0156343Y0170012D01*
X0156466Y0170630D01*
X0156343Y0171248D01*
X0155993Y0171772D01*
X0155468Y0172122D01*
X0154850Y0172245D01*
X0154232Y0172122D01*
X0153708Y0171772D01*
X0153358Y0171248D01*
X0153245Y0170679D01*
X0153217Y0170616D01*
X0153216Y0170570D01*
X0153215Y0170554D01*
X0153211Y0170538D01*
X0153205Y0170518D01*
X0153195Y0170495D01*
X0153181Y0170467D01*
X0153161Y0170435D01*
X0153134Y0170398D01*
X0153099Y0170357D01*
X0153044Y0170299D01*
X0153015Y0170220D01*
X0152808Y0169912D01*
X0152731Y0169524D01*
Y0160423D01*
X0148003D01*
X0147937Y0160452D01*
X0147860Y0160455D01*
X0147810Y0160459D01*
X0147766Y0160467D01*
X0147729Y0160476D01*
X0147698Y0160486D01*
X0147672Y0160497D01*
X0147650Y0160509D01*
X0147629Y0160522D01*
X0147611Y0160536D01*
X0147572Y0160573D01*
X0147490Y0160604D01*
X0147043Y0160902D01*
X0146425Y0161025D01*
X0145807Y0160902D01*
X0145283Y0160552D01*
X0144933Y0160028D01*
X0144810Y0159409D01*
X0144933Y0158791D01*
X0145283Y0158267D01*
X0145807Y0157917D01*
X0146425Y0157794D01*
X0147043Y0157917D01*
X0147490Y0158215D01*
X0147572Y0158246D01*
X0147611Y0158283D01*
X0147629Y0158297D01*
X0147650Y0158310D01*
X0147672Y0158322D01*
X0147698Y0158333D01*
X0147729Y0158343D01*
X0147766Y0158352D01*
X0147810Y0158360D01*
X0147860Y0158364D01*
X0147937Y0158367D01*
X0148003Y0158396D01*
X0152774D01*
Y0156991D01*
X0152851Y0156603D01*
X0153071Y0156274D01*
X0155967Y0153378D01*
X0156296Y0153158D01*
X0156683Y0153081D01*
X0156776D01*
X0156842Y0153052D01*
X0156919Y0153049D01*
X0156970Y0153044D01*
X0157013Y0153037D01*
X0157050Y0153028D01*
X0157081Y0153018D01*
X0157107Y0153007D01*
X0157130Y0152995D01*
X0157150Y0152982D01*
X0157169Y0152968D01*
X0157208Y0152931D01*
X0157290Y0152900D01*
X0157736Y0152602D01*
X0158354Y0152479D01*
X0158973Y0152602D01*
X0159496Y0152952D01*
X0159847Y0153476D01*
X0159970Y0154095D01*
X0159868Y0154607D01*
X0160139Y0155107D01*
X0160742D01*
X0160758Y0155095D01*
X0160827Y0155105D01*
X0160890Y0155076D01*
X0160905Y0155075D01*
X0160957Y0154815D01*
X0161307Y0154291D01*
X0161831Y0153941D01*
X0162449Y0153818D01*
X0163067Y0153941D01*
X0163591Y0154291D01*
X0163941Y0154815D01*
X0164064Y0155433D01*
X0164056Y0155472D01*
X0164524Y0155684D01*
X0164706Y0155446D01*
X0165325Y0154972D01*
X0166046Y0154673D01*
X0166819Y0154571D01*
X0167530Y0154665D01*
X0167706Y0154498D01*
X0167869Y0154247D01*
X0167792Y0153858D01*
Y0148808D01*
X0164220Y0145236D01*
X0163979Y0144875D01*
X0163894Y0144449D01*
Y0130118D01*
X0163979Y0129692D01*
X0164220Y0129331D01*
X0164518Y0129033D01*
X0164541Y0128971D01*
X0164665Y0128837D01*
X0164698Y0128796D01*
X0164725Y0128758D01*
X0164744Y0128728D01*
X0164754Y0128709D01*
X0164755Y0128708D01*
X0164757Y0128704D01*
X0164760Y0128685D01*
X0164765Y0128677D01*
X0164767Y0128671D01*
X0164776Y0128660D01*
X0164783Y0128650D01*
X0164792Y0128631D01*
X0164893Y0128122D01*
X0165244Y0127598D01*
X0165512Y0127419D01*
X0165360Y0126919D01*
X0162199D01*
X0159576Y0129542D01*
X0159551Y0129609D01*
X0159498Y0129665D01*
X0159466Y0129704D01*
X0159440Y0129740D01*
X0159420Y0129773D01*
X0159405Y0129802D01*
X0159395Y0129828D01*
X0159387Y0129852D01*
X0159382Y0129876D01*
X0159379Y0129899D01*
X0159377Y0129953D01*
X0159341Y0130033D01*
X0159236Y0130559D01*
X0158886Y0131083D01*
X0158362Y0131433D01*
X0157744Y0131556D01*
X0157126Y0131433D01*
X0156602Y0131083D01*
X0156252Y0130559D01*
X0156186Y0130229D01*
X0155644Y0130065D01*
X0154804Y0130904D01*
Y0133744D01*
X0154831Y0133806D01*
X0154831Y0133908D01*
X0154837Y0134074D01*
X0154848Y0134190D01*
X0154851Y0134214D01*
X0154853Y0134221D01*
X0154858Y0134238D01*
X0154858Y0134242D01*
X0154859Y0134248D01*
X0154856Y0134259D01*
X0155043Y0134539D01*
X0155166Y0135158D01*
X0155043Y0135776D01*
X0154693Y0136300D01*
X0154169Y0136650D01*
X0153551Y0136773D01*
X0152933Y0136650D01*
X0152409Y0136300D01*
X0152059Y0135776D01*
X0151936Y0135158D01*
X0152059Y0134539D01*
X0152322Y0134145D01*
X0152322Y0134141D01*
X0152327Y0134127D01*
X0152328Y0134124D01*
X0152350Y0133835D01*
X0152351Y0133745D01*
X0152356Y0133732D01*
X0152351Y0133719D01*
X0152377Y0133666D01*
Y0130401D01*
X0152377Y0130401D01*
X0152469Y0129937D01*
X0152732Y0129543D01*
X0158999Y0123275D01*
X0158999Y0123275D01*
X0159393Y0123012D01*
X0159858Y0122920D01*
X0166425D01*
X0166586Y0122447D01*
X0166533Y0122406D01*
X0165963Y0121664D01*
X0165605Y0120800D01*
X0165483Y0119872D01*
X0165494Y0119786D01*
X0163437Y0119138D01*
X0159834Y0118339D01*
X0156175Y0117857D01*
X0155857Y0117843D01*
X0155591Y0118485D01*
X0155022Y0119227D01*
X0154280Y0119796D01*
X0153416Y0120154D01*
X0152488Y0120276D01*
X0151561Y0120154D01*
X0150697Y0119796D01*
X0149954Y0119227D01*
X0149385Y0118485D01*
X0149119Y0117843D01*
X0148801Y0117857D01*
X0145142Y0118339D01*
X0141539Y0119138D01*
X0139444Y0119799D01*
X0139451Y0119854D01*
X0139329Y0120782D01*
X0138971Y0121646D01*
X0138401Y0122388D01*
X0137659Y0122958D01*
X0136795Y0123316D01*
X0135867Y0123438D01*
X0134940Y0123316D01*
X0134076Y0122958D01*
X0133334Y0122388D01*
X0133299Y0122343D01*
X0131336Y0123364D01*
X0128224Y0125347D01*
X0125296Y0127594D01*
X0125025Y0127842D01*
X0125241Y0128364D01*
X0125363Y0129291D01*
X0125241Y0130219D01*
X0124883Y0131083D01*
X0124313Y0131825D01*
X0123571Y0132395D01*
X0122707Y0132753D01*
X0121780Y0132875D01*
X0120852Y0132753D01*
X0120330Y0132536D01*
X0120082Y0132808D01*
X0117835Y0135736D01*
X0115852Y0138848D01*
X0114148Y0142122D01*
X0112736Y0145531D01*
X0111626Y0149051D01*
X0110827Y0152654D01*
X0110345Y0156313D01*
X0110335Y0156565D01*
X0110973Y0156830D01*
X0111715Y0157399D01*
X0112284Y0158141D01*
X0112642Y0159006D01*
X0112765Y0159933D01*
X0112642Y0160861D01*
X0112486Y0161238D01*
X0119197Y0167949D01*
X0119504Y0168407D01*
X0119611Y0168949D01*
Y0178627D01*
X0137405Y0196420D01*
X0155682D01*
X0159877Y0192225D01*
Y0190459D01*
X0159800Y0190343D01*
X0159677Y0189724D01*
X0159800Y0189106D01*
X0160150Y0188582D01*
X0160674Y0188232D01*
X0161292Y0188109D01*
X0161910Y0188232D01*
X0162434Y0188582D01*
X0162784Y0189106D01*
X0162907Y0189724D01*
X0162784Y0190343D01*
X0162706Y0190459D01*
Y0192810D01*
X0162599Y0193352D01*
X0162292Y0193811D01*
X0157268Y0198835D01*
X0156809Y0199142D01*
X0156268Y0199249D01*
X0152715D01*
X0152682Y0199749D01*
X0153416Y0199846D01*
X0154280Y0200204D01*
X0155022Y0200773D01*
X0155591Y0201515D01*
X0155857Y0202157D01*
X0156175Y0202143D01*
D02*
G37*
G36*
X0183734Y0187501D02*
X0183621Y0187432D01*
X0183522Y0187352D01*
X0183435Y0187260D01*
X0183362Y0187155D01*
X0183303Y0187039D01*
X0183256Y0186911D01*
X0183223Y0186772D01*
X0183203Y0186620D01*
X0183197Y0186457D01*
X0182409D01*
X0182403Y0186620D01*
X0182383Y0186772D01*
X0182350Y0186911D01*
X0182303Y0187039D01*
X0182244Y0187155D01*
X0182171Y0187260D01*
X0182085Y0187352D01*
X0181985Y0187432D01*
X0181873Y0187501D01*
X0181747Y0187558D01*
X0183860D01*
X0183734Y0187501D01*
D02*
G37*
G36*
X0181821Y0184955D02*
X0181841Y0184745D01*
X0181859Y0184660D01*
X0181881Y0184588D01*
X0181908Y0184529D01*
X0181940Y0184484D01*
X0181978Y0184451D01*
X0182020Y0184431D01*
X0182067Y0184425D01*
X0180783D01*
X0180830Y0184431D01*
X0180873Y0184451D01*
X0180910Y0184484D01*
X0180942Y0184529D01*
X0180969Y0184588D01*
X0180992Y0184660D01*
X0181009Y0184745D01*
X0181022Y0184843D01*
X0181029Y0184955D01*
X0181032Y0185079D01*
X0181819D01*
X0181821Y0184955D01*
D02*
G37*
G36*
X0173830Y0185708D02*
X0173843Y0185672D01*
X0173863Y0185631D01*
X0173891Y0185584D01*
X0173928Y0185532D01*
X0174026Y0185412D01*
X0174157Y0185270D01*
X0174234Y0185191D01*
X0173399Y0184356D01*
X0173320Y0184434D01*
X0173058Y0184663D01*
X0173006Y0184699D01*
X0172959Y0184728D01*
X0172918Y0184748D01*
X0172883Y0184760D01*
X0172852Y0184764D01*
X0173827Y0185738D01*
X0173830Y0185708D01*
D02*
G37*
G36*
X0184767Y0183390D02*
X0184791Y0183323D01*
X0184830Y0183264D01*
X0184886Y0183213D01*
X0184957Y0183169D01*
X0185043Y0183134D01*
X0185145Y0183106D01*
X0185264Y0183087D01*
X0185397Y0183075D01*
X0185547Y0183071D01*
Y0182283D01*
X0185397Y0182280D01*
X0185264Y0182268D01*
X0185145Y0182248D01*
X0185043Y0182220D01*
X0184957Y0182185D01*
X0184886Y0182142D01*
X0184830Y0182090D01*
X0184791Y0182032D01*
X0184767Y0181965D01*
X0184760Y0181890D01*
Y0183465D01*
X0184767Y0183390D01*
D02*
G37*
G36*
X0178103Y0181496D02*
X0178091Y0181608D01*
X0178055Y0181709D01*
X0177995Y0181797D01*
X0177912Y0181874D01*
X0177805Y0181939D01*
X0177673Y0181992D01*
X0177518Y0182033D01*
X0177339Y0182063D01*
X0177136Y0182081D01*
X0176910Y0182087D01*
Y0183268D01*
X0177136Y0183274D01*
X0177339Y0183291D01*
X0177518Y0183321D01*
X0177673Y0183362D01*
X0177805Y0183415D01*
X0177912Y0183480D01*
X0177995Y0183557D01*
X0178055Y0183646D01*
X0178091Y0183746D01*
X0178103Y0183858D01*
Y0181496D01*
D02*
G37*
G36*
X0154823Y0169646D02*
X0154746Y0169644D01*
X0154669Y0169635D01*
X0154592Y0169619D01*
X0154516Y0169595D01*
X0154441Y0169564D01*
X0154367Y0169525D01*
X0154292Y0169479D01*
X0154219Y0169425D01*
X0154146Y0169365D01*
X0154073Y0169296D01*
X0153517Y0169853D01*
X0153585Y0169925D01*
X0153646Y0169998D01*
X0153700Y0170072D01*
X0153746Y0170146D01*
X0153784Y0170221D01*
X0153816Y0170296D01*
X0153840Y0170372D01*
X0153856Y0170448D01*
X0153865Y0170525D01*
X0153867Y0170603D01*
X0154823Y0169646D01*
D02*
G37*
G36*
X0156686Y0165952D02*
X0156620Y0165874D01*
X0156561Y0165795D01*
X0156510Y0165714D01*
X0156467Y0165632D01*
X0156432Y0165549D01*
X0156405Y0165464D01*
X0156386Y0165379D01*
X0156374Y0165292D01*
X0156370Y0165204D01*
X0155772D01*
X0155768Y0165292D01*
X0155756Y0165379D01*
X0155737Y0165464D01*
X0155709Y0165549D01*
X0155674Y0165632D01*
X0155631Y0165714D01*
X0155581Y0165795D01*
X0155522Y0165874D01*
X0155456Y0165952D01*
X0155382Y0166029D01*
X0156760D01*
X0156686Y0165952D01*
D02*
G37*
G36*
X0147188Y0160042D02*
X0147252Y0159992D01*
X0147321Y0159948D01*
X0147393Y0159909D01*
X0147470Y0159877D01*
X0147551Y0159850D01*
X0147637Y0159830D01*
X0147726Y0159815D01*
X0147820Y0159806D01*
X0147918Y0159803D01*
Y0159016D01*
X0147820Y0159013D01*
X0147726Y0159004D01*
X0147637Y0158989D01*
X0147551Y0158968D01*
X0147470Y0158942D01*
X0147393Y0158909D01*
X0147321Y0158871D01*
X0147252Y0158827D01*
X0147188Y0158777D01*
X0147128Y0158721D01*
Y0160098D01*
X0147188Y0160042D01*
D02*
G37*
G36*
X0193659Y0157866D02*
X0193373Y0158147D01*
X0192821Y0158619D01*
X0192555Y0158811D01*
X0192297Y0158973D01*
X0192044Y0159106D01*
X0191799Y0159210D01*
X0191560Y0159283D01*
X0191328Y0159328D01*
X0191103Y0159343D01*
Y0160524D01*
X0191328Y0160538D01*
X0191560Y0160583D01*
X0191799Y0160656D01*
X0192044Y0160760D01*
X0192297Y0160893D01*
X0192555Y0161055D01*
X0192821Y0161247D01*
X0193094Y0161469D01*
X0193659Y0162000D01*
Y0157866D01*
D02*
G37*
G36*
X0158990Y0158415D02*
X0159029Y0158389D01*
X0159074Y0158365D01*
X0159125Y0158344D01*
X0159181Y0158327D01*
X0159243Y0158313D01*
X0159311Y0158302D01*
X0159384Y0158294D01*
X0159548Y0158288D01*
Y0157500D01*
X0159463Y0157499D01*
X0159311Y0157486D01*
X0159243Y0157475D01*
X0159181Y0157461D01*
X0159125Y0157444D01*
X0159074Y0157423D01*
X0159029Y0157400D01*
X0158990Y0157373D01*
X0158956Y0157343D01*
Y0158445D01*
X0158990Y0158415D01*
D02*
G37*
G36*
X0164592Y0156772D02*
X0164558Y0156846D01*
X0164512Y0156913D01*
X0164453Y0156972D01*
X0164383Y0157024D01*
X0164300Y0157067D01*
X0164205Y0157102D01*
X0164097Y0157130D01*
X0163978Y0157150D01*
X0163846Y0157161D01*
X0163702Y0157165D01*
Y0157953D01*
X0163846Y0157957D01*
X0163978Y0157968D01*
X0164097Y0157988D01*
X0164205Y0158016D01*
X0164300Y0158051D01*
X0164383Y0158095D01*
X0164453Y0158146D01*
X0164512Y0158205D01*
X0164558Y0158272D01*
X0164592Y0158346D01*
Y0156772D01*
D02*
G37*
G36*
X0161473Y0155304D02*
X0161458Y0155384D01*
X0161433Y0155455D01*
X0161400Y0155518D01*
X0161357Y0155573D01*
X0161307Y0155619D01*
X0161247Y0155657D01*
X0161178Y0155686D01*
X0161100Y0155708D01*
X0161013Y0155720D01*
X0160918Y0155724D01*
X0161071Y0156323D01*
X0161240Y0156324D01*
X0162154Y0156376D01*
X0162213Y0156389D01*
X0161473Y0155304D01*
D02*
G37*
G36*
X0170313Y0154291D02*
X0170257Y0154288D01*
X0170198Y0154277D01*
X0170138Y0154258D01*
X0170075Y0154231D01*
X0170010Y0154197D01*
X0169942Y0154154D01*
X0169873Y0154104D01*
X0169801Y0154046D01*
X0169650Y0153907D01*
X0168955Y0154603D01*
X0169028Y0154680D01*
X0169152Y0154825D01*
X0169202Y0154895D01*
X0169244Y0154962D01*
X0169279Y0155027D01*
X0169305Y0155090D01*
X0169324Y0155151D01*
X0169335Y0155210D01*
X0169339Y0155266D01*
X0170313Y0154291D01*
D02*
G37*
G36*
X0157651Y0153405D02*
X0157591Y0153462D01*
X0157527Y0153512D01*
X0157459Y0153556D01*
X0157386Y0153595D01*
X0157309Y0153627D01*
X0157228Y0153654D01*
X0157143Y0153674D01*
X0157053Y0153689D01*
X0156960Y0153698D01*
X0156862Y0153701D01*
Y0154488D01*
X0156960Y0154491D01*
X0157053Y0154500D01*
X0157143Y0154515D01*
X0157228Y0154535D01*
X0157309Y0154562D01*
X0157386Y0154595D01*
X0157459Y0154633D01*
X0157527Y0154677D01*
X0157591Y0154727D01*
X0157651Y0154783D01*
Y0153405D01*
D02*
G37*
G36*
X0176861Y0152780D02*
X0176811Y0152716D01*
X0176767Y0152648D01*
X0176728Y0152575D01*
X0176696Y0152498D01*
X0176669Y0152417D01*
X0176649Y0152332D01*
X0176634Y0152242D01*
X0176625Y0152149D01*
X0176622Y0152051D01*
X0175835D01*
X0175832Y0152149D01*
X0175823Y0152242D01*
X0175808Y0152332D01*
X0175787Y0152417D01*
X0175761Y0152498D01*
X0175728Y0152575D01*
X0175690Y0152648D01*
X0175646Y0152716D01*
X0175595Y0152780D01*
X0175539Y0152840D01*
X0176917D01*
X0176861Y0152780D01*
D02*
G37*
G36*
X0176622Y0146712D02*
X0176494Y0145577D01*
X0175548Y0146423D01*
X0175602Y0146426D01*
X0175651Y0146441D01*
X0175694Y0146468D01*
X0175731Y0146505D01*
X0175763Y0146553D01*
X0175789Y0146613D01*
X0175809Y0146683D01*
X0175823Y0146765D01*
X0175832Y0146858D01*
X0175835Y0146962D01*
X0176622Y0146712D01*
D02*
G37*
G36*
X0177491Y0140401D02*
X0177564Y0140340D01*
X0177637Y0140288D01*
X0177712Y0140242D01*
X0177788Y0140203D01*
X0177866Y0140172D01*
X0177944Y0140148D01*
X0178024Y0140131D01*
X0178105Y0140121D01*
X0178187Y0140118D01*
X0177213Y0139144D01*
X0177210Y0139226D01*
X0177200Y0139307D01*
X0177183Y0139386D01*
X0177159Y0139465D01*
X0177127Y0139542D01*
X0177089Y0139618D01*
X0177043Y0139693D01*
X0176990Y0139767D01*
X0176930Y0139840D01*
X0176863Y0139911D01*
X0177420Y0140468D01*
X0177491Y0140401D01*
D02*
G37*
G36*
X0154251Y0134459D02*
X0154236Y0134426D01*
X0154224Y0134384D01*
X0154212Y0134331D01*
X0154203Y0134269D01*
X0154189Y0134115D01*
X0154182Y0133922D01*
X0154181Y0133811D01*
X0153000Y0133751D01*
X0152999Y0133862D01*
X0152973Y0134209D01*
X0152961Y0134272D01*
X0152946Y0134325D01*
X0152930Y0134369D01*
X0152912Y0134403D01*
X0152891Y0134428D01*
X0154268Y0134483D01*
X0154251Y0134459D01*
D02*
G37*
G36*
X0191060Y0158695D02*
X0191246Y0158682D01*
X0191403Y0158652D01*
X0191576Y0158599D01*
X0191766Y0158519D01*
X0191972Y0158410D01*
X0192192Y0158272D01*
X0192419Y0158108D01*
X0192934Y0157668D01*
X0193204Y0157403D01*
X0193258Y0157381D01*
X0193976Y0156830D01*
X0194641Y0156554D01*
X0194631Y0156313D01*
X0194149Y0152654D01*
X0193350Y0149051D01*
X0192241Y0145531D01*
X0190828Y0142122D01*
X0189124Y0138848D01*
X0187141Y0135736D01*
X0184895Y0132808D01*
X0184646Y0132536D01*
X0184124Y0132753D01*
X0183197Y0132875D01*
X0182269Y0132753D01*
X0181405Y0132395D01*
X0180663Y0131825D01*
X0180094Y0131083D01*
X0179736Y0130219D01*
X0179613Y0129291D01*
X0179736Y0128364D01*
X0179952Y0127842D01*
X0179680Y0127594D01*
X0176753Y0125347D01*
X0173640Y0123364D01*
X0171657Y0122332D01*
X0171600Y0122406D01*
X0170858Y0122975D01*
X0169994Y0123333D01*
X0169672Y0123376D01*
X0169511Y0123849D01*
X0182638Y0136976D01*
X0182638Y0136976D01*
X0182901Y0137370D01*
X0182993Y0137835D01*
Y0151123D01*
X0190589Y0158719D01*
X0191010D01*
X0191060Y0158695D01*
D02*
G37*
G36*
X0165790Y0130035D02*
X0165936Y0129911D01*
X0166005Y0129861D01*
X0166072Y0129819D01*
X0166138Y0129785D01*
X0166201Y0129758D01*
X0166261Y0129739D01*
X0166320Y0129728D01*
X0166376Y0129724D01*
X0165402Y0128750D01*
X0165398Y0128806D01*
X0165387Y0128865D01*
X0165368Y0128925D01*
X0165341Y0128988D01*
X0165307Y0129053D01*
X0165265Y0129121D01*
X0165215Y0129190D01*
X0165157Y0129262D01*
X0165017Y0129412D01*
X0165714Y0130108D01*
X0165790Y0130035D01*
D02*
G37*
G36*
X0158731Y0129849D02*
X0158741Y0129768D01*
X0158758Y0129688D01*
X0158782Y0129610D01*
X0158814Y0129533D01*
X0158852Y0129456D01*
X0158898Y0129382D01*
X0158951Y0129308D01*
X0159011Y0129235D01*
X0159078Y0129164D01*
X0158521Y0128607D01*
X0158450Y0128674D01*
X0158377Y0128734D01*
X0158303Y0128787D01*
X0158229Y0128833D01*
X0158152Y0128871D01*
X0158075Y0128903D01*
X0157997Y0128927D01*
X0157917Y0128944D01*
X0157836Y0128954D01*
X0157754Y0128957D01*
X0158728Y0129931D01*
X0158731Y0129849D01*
D02*
G37*
%LPC*%
G36*
X0185772Y0177059D02*
X0184484D01*
Y0174787D01*
X0185772D01*
Y0177059D01*
D02*
G37*
G36*
X0164181Y0167043D02*
X0163408Y0166941D01*
X0162687Y0166643D01*
X0162068Y0166168D01*
X0161594Y0165549D01*
X0161443Y0165187D01*
X0161413Y0165158D01*
X0161412Y0165157D01*
X0161409Y0165154D01*
X0161400Y0165146D01*
X0161388Y0165138D01*
X0161372Y0165132D01*
X0161326Y0165120D01*
X0161258Y0165109D01*
X0161170Y0165101D01*
X0161047Y0165098D01*
X0160980Y0165068D01*
X0160244D01*
X0159856Y0164991D01*
X0159528Y0164771D01*
X0158425Y0163669D01*
X0158206Y0163340D01*
X0158129Y0162953D01*
Y0162814D01*
X0158099Y0162748D01*
X0158097Y0162668D01*
X0158092Y0162611D01*
X0158085Y0162560D01*
X0158075Y0162514D01*
X0158064Y0162474D01*
X0158051Y0162437D01*
X0158037Y0162404D01*
X0158021Y0162374D01*
X0158004Y0162347D01*
X0157969Y0162301D01*
X0157937Y0162171D01*
X0157767Y0161917D01*
X0157645Y0161299D01*
X0157767Y0160681D01*
X0158118Y0160157D01*
X0158642Y0159807D01*
X0159260Y0159684D01*
X0159878Y0159807D01*
X0160402Y0160157D01*
X0160752Y0160681D01*
X0160875Y0161299D01*
X0160752Y0161917D01*
X0160435Y0162391D01*
X0160583Y0162876D01*
X0160988Y0163038D01*
X0161047Y0163012D01*
X0161170Y0163009D01*
X0161258Y0163001D01*
X0161326Y0162990D01*
X0161372Y0162978D01*
X0161388Y0162972D01*
X0161400Y0162964D01*
X0161409Y0162956D01*
X0161412Y0162953D01*
X0161413Y0162953D01*
X0161443Y0162924D01*
X0161594Y0162561D01*
X0162068Y0161942D01*
X0162687Y0161468D01*
X0163408Y0161169D01*
X0164181Y0161067D01*
X0164954Y0161169D01*
X0165675Y0161468D01*
X0166294Y0161942D01*
X0166769Y0162561D01*
X0167067Y0163282D01*
X0167169Y0164055D01*
X0167067Y0164828D01*
X0166769Y0165549D01*
X0166294Y0166168D01*
X0165675Y0166643D01*
X0164954Y0166941D01*
X0164181Y0167043D01*
D02*
G37*
%LPD*%
G36*
X0161954Y0163268D02*
X0161920Y0163342D01*
X0161874Y0163409D01*
X0161816Y0163469D01*
X0161745Y0163520D01*
X0161662Y0163563D01*
X0161567Y0163598D01*
X0161460Y0163626D01*
X0161340Y0163646D01*
X0161208Y0163657D01*
X0161065Y0163661D01*
Y0164449D01*
X0161208Y0164453D01*
X0161340Y0164465D01*
X0161460Y0164484D01*
X0161567Y0164512D01*
X0161662Y0164547D01*
X0161745Y0164591D01*
X0161816Y0164642D01*
X0161874Y0164701D01*
X0161920Y0164768D01*
X0161954Y0164842D01*
Y0163268D01*
D02*
G37*
G36*
X0159539Y0162736D02*
X0159548Y0162643D01*
X0159565Y0162554D01*
X0159587Y0162471D01*
X0159616Y0162393D01*
X0159652Y0162320D01*
X0159694Y0162252D01*
X0159743Y0162190D01*
X0159798Y0162132D01*
X0159860Y0162080D01*
X0158492Y0161914D01*
X0158540Y0161980D01*
X0158584Y0162049D01*
X0158622Y0162122D01*
X0158656Y0162199D01*
X0158684Y0162279D01*
X0158707Y0162362D01*
X0158725Y0162449D01*
X0158738Y0162539D01*
X0158746Y0162633D01*
X0158748Y0162731D01*
X0159535Y0162835D01*
X0159539Y0162736D01*
D02*
G37*
D12*
X0157744Y0129941D02*
X0161779Y0125906D01*
X0166819D01*
X0175323Y0134409D01*
Y0135472D01*
X0173542Y0146357D02*
X0174221Y0147036D01*
X0173542Y0144619D02*
Y0146357D01*
Y0144619D02*
X0174221Y0143941D01*
Y0143110D02*
Y0143941D01*
X0175520Y0145439D02*
X0175716D01*
X0176065Y0145787D01*
X0146386Y0159409D02*
X0153354D01*
X0153630Y0159685D01*
X0163019Y0157894D02*
X0163354Y0157559D01*
X0158394Y0157894D02*
X0163019D01*
X0174221Y0147036D02*
Y0158228D01*
X0176065Y0145787D02*
X0176228Y0145950D01*
X0156683Y0154095D02*
X0158354D01*
X0174221Y0143110D02*
X0178197Y0139134D01*
X0163354Y0157559D02*
X0166819D01*
X0160244Y0164055D02*
X0164181D01*
X0159142Y0162953D02*
X0160244Y0164055D01*
X0159142Y0161417D02*
Y0162953D01*
X0176228Y0145950D02*
Y0153543D01*
X0153744Y0159571D02*
X0153787Y0159528D01*
X0153630Y0159685D02*
X0153744Y0159571D01*
X0153787Y0156991D02*
X0156683Y0154095D01*
X0153787Y0156991D02*
Y0159528D01*
X0182803Y0186457D02*
Y0190315D01*
X0181425Y0185079D02*
X0182803Y0186457D01*
X0181425Y0182677D02*
Y0185079D01*
X0171268Y0161181D02*
X0174221Y0158228D01*
X0170165Y0161181D02*
X0171268D01*
X0153744Y0159571D02*
Y0169524D01*
X0183984Y0182677D02*
X0186002D01*
X0192328Y0176351D01*
X0153744Y0169524D02*
X0154850Y0170630D01*
D14*
X0183984Y0177559D02*
D03*
X0181425D02*
D03*
X0178866D02*
D03*
Y0182677D02*
D03*
X0181425D02*
D03*
X0183984D02*
D03*
D15*
X0164181Y0164055D02*
D03*
X0166819Y0157559D02*
D03*
D19*
X0159858Y0124134D02*
X0168079D01*
X0153591Y0130401D02*
X0159858Y0124134D01*
X0168079D02*
X0181780Y0137835D01*
X0153591Y0130401D02*
Y0135118D01*
X0181780Y0137835D02*
Y0151626D01*
X0175913Y0182677D02*
X0178866D01*
X0172843Y0185748D02*
X0175913Y0182677D01*
X0190087Y0159933D02*
X0194170D01*
X0181780Y0151626D02*
X0190087Y0159933D01*
X0153551Y0135158D02*
X0153591Y0135118D01*
D20*
X0169417Y0171929D02*
X0173394Y0167953D01*
X0161071Y0176575D02*
X0161425Y0176929D01*
X0161268Y0176378D02*
X0161465Y0176181D01*
X0140795Y0194606D02*
X0147213Y0188189D01*
X0162291Y0155315D02*
Y0155591D01*
X0157666Y0156024D02*
X0161858D01*
X0156071Y0157619D02*
X0157666Y0156024D01*
X0156071Y0157619D02*
Y0166732D01*
X0171780Y0142717D02*
Y0151378D01*
X0171386Y0151772D02*
X0171780Y0151378D01*
X0161858Y0156024D02*
X0162291Y0155591D01*
X0169378Y0171890D02*
X0169417Y0171929D01*
X0161465Y0171890D02*
X0169378D01*
X0165205Y0149331D02*
X0167213Y0151339D01*
X0161504Y0166890D02*
Y0167402D01*
Y0171535D01*
X0161583Y0171614D01*
X0161504Y0166890D02*
X0161583Y0166811D01*
X0161071Y0185118D02*
X0165402Y0189449D01*
X0161071Y0185118D02*
X0161071Y0185118D01*
X0161110Y0176535D02*
X0161425D01*
X0158000Y0188189D02*
X0161071Y0185118D01*
X0147213Y0188189D02*
X0158000D01*
X0161425Y0180984D02*
Y0184764D01*
X0161071Y0185118D02*
X0161425Y0184764D01*
Y0176929D02*
Y0180984D01*
Y0176535D02*
X0161465D01*
X0161268Y0176378D02*
X0161425Y0176535D01*
X0161071Y0176575D02*
X0161110Y0176535D01*
X0161465Y0171890D02*
Y0176181D01*
Y0171732D02*
Y0171890D01*
Y0171732D02*
X0161583Y0171614D01*
X0165402Y0189449D02*
X0172528D01*
X0173394Y0167953D02*
X0180283D01*
X0170894Y0157717D02*
X0172075Y0156535D01*
X0171386Y0151772D02*
X0172075Y0152461D01*
X0164142Y0153583D02*
X0164850Y0154291D01*
X0180283Y0167953D02*
X0180283Y0167953D01*
D21*
X0165008Y0144449D02*
X0168905Y0148346D01*
X0165008Y0130118D02*
Y0144449D01*
Y0130118D02*
X0166386Y0128740D01*
X0168905Y0153858D02*
X0170323Y0155276D01*
X0168905Y0148346D02*
Y0153858D01*
D22*
X0161292Y0189724D02*
Y0192810D01*
X0156268Y0197835D02*
X0161292Y0192810D01*
X0136819Y0197835D02*
X0156268D01*
X0118197Y0179213D02*
X0136819Y0197835D01*
X0118197Y0168949D02*
Y0179213D01*
X0109181Y0159933D02*
X0118197Y0168949D01*
D23*
X0199102Y0152284D02*
D03*
X0198039Y0147913D02*
D03*
X0137516Y0203177D02*
D03*
X0133689Y0201524D02*
D03*
X0129839Y0199516D02*
D03*
X0129523Y0120000D02*
D03*
X0125874Y0122362D02*
D03*
D24*
X0112685Y0176440D02*
D03*
X0112554Y0143386D02*
D03*
X0121780Y0129291D02*
D03*
X0182803Y0190315D02*
D03*
X0192328Y0176351D02*
D03*
X0122173Y0190315D02*
D03*
X0109181Y0159933D02*
D03*
X0135867Y0119854D02*
D03*
X0152488Y0116693D02*
D03*
X0192340Y0143416D02*
D03*
X0195768Y0159933D02*
D03*
X0169067Y0119872D02*
D03*
X0183197Y0129291D02*
D03*
X0169021Y0199928D02*
D03*
X0152488Y0203307D02*
D03*
D25*
X0171260Y0124016D02*
D03*
X0184496Y0143110D02*
D03*
X0163079Y0128189D02*
D03*
X0161504Y0121339D02*
D03*
X0147724Y0126772D02*
D03*
X0151307Y0128189D02*
D03*
X0149102Y0134854D02*
D03*
X0174063Y0170662D02*
D03*
X0177094Y0174488D02*
D03*
X0157331Y0185551D02*
D03*
X0152567Y0154134D02*
D03*
X0162134Y0149685D02*
D03*
X0158653Y0149843D02*
D03*
X0174335Y0162323D02*
D03*
X0175716Y0159646D02*
D03*
X0188976Y0171260D02*
D03*
X0191929Y0165354D02*
D03*
Y0153543D02*
D03*
X0183071Y0171260D02*
D03*
X0186024Y0165354D02*
D03*
X0177165Y0171260D02*
D03*
X0180118Y0165354D02*
D03*
X0174213Y0188976D02*
D03*
Y0165354D02*
D03*
X0165354Y0194882D02*
D03*
X0159449Y0183071D02*
D03*
X0153543Y0194882D02*
D03*
Y0147638D02*
D03*
X0147638Y0194882D02*
D03*
X0150591Y0177165D02*
D03*
X0147638Y0147638D02*
D03*
X0141732Y0194882D02*
D03*
Y0147638D02*
D03*
X0144685Y0141732D02*
D03*
X0141732Y0135827D02*
D03*
X0144685Y0129921D02*
D03*
X0135827Y0147638D02*
D03*
X0138779Y0141732D02*
D03*
X0135827Y0135827D02*
D03*
X0129921Y0171260D02*
D03*
Y0159449D02*
D03*
Y0147638D02*
D03*
X0132874Y0141732D02*
D03*
X0129921Y0135827D02*
D03*
X0124016Y0171260D02*
D03*
X0126969Y0165354D02*
D03*
X0124016Y0159449D02*
D03*
X0126969Y0153543D02*
D03*
X0124016Y0147638D02*
D03*
X0126969Y0141732D02*
D03*
X0124016Y0135827D02*
D03*
X0121063Y0177165D02*
D03*
Y0165354D02*
D03*
X0118110Y0159449D02*
D03*
X0121063Y0153543D02*
D03*
X0118110Y0147638D02*
D03*
X0121063Y0141732D02*
D03*
X0115157Y0153543D02*
D03*
X0175323Y0135472D02*
D03*
X0168354Y0139724D02*
D03*
X0175520Y0145439D02*
D03*
X0166386Y0128740D02*
D03*
X0146425Y0159409D02*
D03*
X0134457Y0154754D02*
D03*
X0156071Y0166732D02*
D03*
X0159260Y0161299D02*
D03*
X0178472Y0143032D02*
D03*
X0183217Y0134843D02*
D03*
X0171780Y0142717D02*
D03*
X0158354Y0154095D02*
D03*
X0178197Y0139134D02*
D03*
X0176228Y0153543D02*
D03*
X0187409Y0148898D02*
D03*
Y0152717D02*
D03*
X0170323Y0155276D02*
D03*
X0187409Y0145079D02*
D03*
X0171110Y0170904D02*
D03*
X0165205Y0149331D02*
D03*
X0161504Y0167402D02*
D03*
X0144378Y0178543D02*
D03*
X0148276Y0178504D02*
D03*
X0149850Y0180748D02*
D03*
X0149795Y0183583D02*
D03*
X0149748Y0186772D02*
D03*
X0149693Y0189488D02*
D03*
X0148039Y0192323D02*
D03*
X0144772D02*
D03*
X0141779Y0192205D02*
D03*
X0138827Y0192273D02*
D03*
X0135677Y0192244D02*
D03*
X0128236Y0184685D02*
D03*
Y0181575D02*
D03*
X0128354Y0178307D02*
D03*
X0131858Y0178268D02*
D03*
X0134890Y0178189D02*
D03*
X0134496Y0159567D02*
D03*
X0137409Y0150906D02*
D03*
X0146150Y0150748D02*
D03*
X0142173Y0150839D02*
D03*
X0142291Y0158583D02*
D03*
X0142370Y0162362D02*
D03*
X0143591Y0164882D02*
D03*
Y0167934D02*
D03*
X0161292Y0189724D02*
D03*
X0172843Y0185748D02*
D03*
X0156346Y0132362D02*
D03*
X0150228Y0146102D02*
D03*
X0150165Y0149094D02*
D03*
Y0152205D02*
D03*
X0172961Y0167913D02*
D03*
X0171150Y0165630D02*
D03*
X0156780Y0177205D02*
D03*
Y0181063D02*
D03*
X0172921Y0194921D02*
D03*
X0177409Y0191850D02*
D03*
X0179299Y0162638D02*
D03*
X0187085Y0160512D02*
D03*
X0174929Y0126457D02*
D03*
X0154260Y0138641D02*
D03*
X0148276Y0130748D02*
D03*
X0143709Y0126693D02*
D03*
X0137843D02*
D03*
X0132803Y0126496D02*
D03*
X0157416Y0121102D02*
D03*
X0161425Y0180984D02*
D03*
X0161465Y0176535D02*
D03*
Y0171890D02*
D03*
X0153551Y0135158D02*
D03*
X0183787Y0162480D02*
D03*
X0157744Y0129941D02*
D03*
X0170165Y0161181D02*
D03*
X0162449Y0155433D02*
D03*
X0154850Y0170630D02*
D03*
D26*
X0158394Y0157894D02*
D03*
M02*
