G04*
G04 #@! TF.GenerationSoftware,Altium Limited,Altium Designer,19.0.15 (446)*
G04*
G04 Layer_Color=65535*
%FSAX25Y25*%
%MOIN*%
G70*
G01*
G75*
%ADD10C,0.00394*%
%ADD11C,0.01000*%
%ADD12C,0.00787*%
%ADD13C,0.00591*%
D10*
X0167174Y0164055D02*
G03*
X0167174Y0164055I-0002993J0000000D01*
G01*
X0169812Y0157559D02*
G03*
X0169812Y0157559I-0002993J0000000D01*
G01*
X0185559Y0176181D02*
X0185559Y0184055D01*
X0177252Y0184055D02*
X0177291Y0176181D01*
X0112882Y0164054D02*
Y0162480D01*
X0113669Y0161693D01*
X0114456Y0162480D01*
Y0164054D01*
X0116818Y0163661D02*
X0116424Y0164054D01*
X0115637D01*
X0115243Y0163661D01*
Y0162086D01*
X0115637Y0161693D01*
X0116424D01*
X0116818Y0162086D01*
Y0162874D01*
X0116031D01*
X0117605Y0161693D02*
Y0164054D01*
X0118786D01*
X0119179Y0163661D01*
Y0162874D01*
X0118786Y0162480D01*
X0117605D01*
X0121540Y0163661D02*
X0121147Y0164054D01*
X0120360D01*
X0119966Y0163661D01*
Y0163267D01*
X0120360Y0162874D01*
X0121147D01*
X0121540Y0162480D01*
Y0162086D01*
X0121147Y0161693D01*
X0120360D01*
X0119966Y0162086D01*
X0125677Y0186772D02*
Y0189133D01*
X0126858D01*
X0127251Y0188740D01*
Y0187952D01*
X0126858Y0187559D01*
X0125677D01*
X0126464D02*
X0127251Y0186772D01*
X0129613Y0189133D02*
X0128039D01*
Y0186772D01*
X0129613D01*
X0128039Y0187952D02*
X0128826D01*
X0131974Y0189133D02*
X0130400D01*
Y0186772D01*
X0131974D01*
X0130400Y0187952D02*
X0131187D01*
X0132762Y0189133D02*
Y0186772D01*
X0133942D01*
X0134336Y0187165D01*
Y0188740D01*
X0133942Y0189133D01*
X0132762D01*
X0125598Y0132598D02*
Y0131023D01*
X0126386Y0130236D01*
X0127173Y0131023D01*
Y0132598D01*
X0127960D02*
Y0130236D01*
X0129141D01*
X0129534Y0130630D01*
Y0131023D01*
X0129141Y0131417D01*
X0127960D01*
X0129141D01*
X0129534Y0131810D01*
Y0132204D01*
X0129141Y0132598D01*
X0127960D01*
X0130321D02*
Y0130236D01*
Y0131023D01*
X0131896Y0132598D01*
X0130715Y0131417D01*
X0131896Y0130236D01*
X0132683D02*
Y0132598D01*
X0133863D01*
X0134257Y0132204D01*
Y0131417D01*
X0133863Y0131023D01*
X0132683D01*
X0158787Y0125590D02*
X0158393Y0125984D01*
X0157606D01*
X0157213Y0125590D01*
Y0124016D01*
X0157606Y0123622D01*
X0158393D01*
X0158787Y0124016D01*
Y0124803D01*
X0158000D01*
X0159574Y0123622D02*
Y0125984D01*
X0160755D01*
X0161148Y0125590D01*
Y0124803D01*
X0160755Y0124409D01*
X0159574D01*
X0163510Y0125590D02*
X0163116Y0125984D01*
X0162329D01*
X0161935Y0125590D01*
Y0125196D01*
X0162329Y0124803D01*
X0163116D01*
X0163510Y0124409D01*
Y0124016D01*
X0163116Y0123622D01*
X0162329D01*
X0161935Y0124016D01*
X0165871Y0125984D02*
X0164297D01*
Y0123622D01*
X0165871D01*
X0164297Y0124803D02*
X0165084D01*
X0166658Y0123622D02*
Y0125984D01*
X0168233Y0123622D01*
Y0125984D01*
X0163354Y0193818D02*
X0164141D01*
X0163748D01*
Y0191457D01*
X0163354D01*
X0164141D01*
X0165322D02*
Y0193818D01*
X0166896Y0191457D01*
Y0193818D01*
X0167684D02*
X0169258D01*
X0168471D01*
Y0191457D01*
X0171619D02*
X0170045D01*
X0171619Y0193031D01*
Y0193424D01*
X0171226Y0193818D01*
X0170439D01*
X0170045Y0193424D01*
X0170717Y0132755D02*
Y0130394D01*
X0171897D01*
X0172291Y0130787D01*
Y0131181D01*
X0171897Y0131574D01*
X0170717D01*
X0171897D01*
X0172291Y0131968D01*
Y0132362D01*
X0171897Y0132755D01*
X0170717D01*
X0173078Y0130000D02*
X0174652D01*
X0177014Y0132755D02*
X0175439D01*
Y0130394D01*
X0177014D01*
X0175439Y0131574D02*
X0176227D01*
X0177801Y0130394D02*
Y0132755D01*
X0179375Y0130394D01*
Y0132755D01*
X0150591Y0121142D02*
Y0123503D01*
X0151771D01*
X0152165Y0123110D01*
Y0122322D01*
X0151771Y0121929D01*
X0150591D01*
X0151378D02*
X0152165Y0121142D01*
X0152952Y0123503D02*
X0154526Y0121142D01*
Y0123503D02*
X0152952Y0121142D01*
X0176031Y0187637D02*
X0175637Y0188031D01*
X0174850D01*
X0174457Y0187637D01*
Y0187244D01*
X0174850Y0186850D01*
X0175637D01*
X0176031Y0186456D01*
Y0186063D01*
X0175637Y0185669D01*
X0174850D01*
X0174457Y0186063D01*
X0176818Y0188031D02*
Y0185669D01*
X0177999D01*
X0178392Y0186063D01*
Y0187637D01*
X0177999Y0188031D01*
X0176818D01*
X0179180Y0185669D02*
Y0187244D01*
X0179967Y0188031D01*
X0180754Y0187244D01*
Y0185669D01*
Y0186850D01*
X0179180D01*
X0188118Y0169369D02*
X0187724Y0169763D01*
X0186937D01*
X0186543Y0169369D01*
Y0168976D01*
X0186937Y0168582D01*
X0187724D01*
X0188118Y0168189D01*
Y0167795D01*
X0187724Y0167402D01*
X0186937D01*
X0186543Y0167795D01*
X0190479Y0169369D02*
X0190085Y0169763D01*
X0189298D01*
X0188905Y0169369D01*
Y0167795D01*
X0189298Y0167402D01*
X0190085D01*
X0190479Y0167795D01*
X0191266Y0169763D02*
Y0167402D01*
X0192841D01*
X0183748Y0158661D02*
Y0157086D01*
X0184535Y0156299D01*
X0185322Y0157086D01*
Y0158661D01*
X0186109Y0156299D02*
Y0158661D01*
X0186897Y0157873D01*
X0187684Y0158661D01*
Y0156299D01*
X0190045Y0158267D02*
X0189652Y0158661D01*
X0188865D01*
X0188471Y0158267D01*
Y0156693D01*
X0188865Y0156299D01*
X0189652D01*
X0190045Y0156693D01*
X0190832Y0158661D02*
Y0156693D01*
X0191226Y0156299D01*
X0192013D01*
X0192407Y0156693D01*
Y0158661D01*
X0148945Y0199988D02*
X0149732D01*
X0149338D01*
Y0197627D01*
X0148945D01*
X0149732D01*
X0150913D02*
Y0199988D01*
X0152487Y0197627D01*
Y0199988D01*
X0153274D02*
X0154849D01*
X0154061D01*
Y0197627D01*
X0155636D02*
X0156423D01*
X0156029D01*
Y0199988D01*
X0155636Y0199595D01*
X0138984Y0124684D02*
X0140559D01*
X0139771D01*
Y0122323D01*
X0141346Y0124684D02*
X0142920Y0122323D01*
Y0124684D02*
X0141346Y0122323D01*
X0117213Y0175039D02*
Y0173464D01*
X0118000Y0172677D01*
X0118787Y0173464D01*
Y0175039D01*
X0119574D02*
Y0172677D01*
X0120755D01*
X0121148Y0173071D01*
Y0173464D01*
X0120755Y0173858D01*
X0119574D01*
X0120755D01*
X0121148Y0174251D01*
Y0174645D01*
X0120755Y0175039D01*
X0119574D01*
X0121935Y0172677D02*
Y0174251D01*
X0122723Y0175039D01*
X0123510Y0174251D01*
Y0172677D01*
Y0173858D01*
X0121935D01*
X0124297Y0175039D02*
X0125871D01*
X0125084D01*
Y0172677D01*
X0183866Y0141220D02*
X0183472Y0141613D01*
X0182685D01*
X0182291Y0141220D01*
Y0139646D01*
X0182685Y0139252D01*
X0183472D01*
X0183866Y0139646D01*
Y0140433D01*
X0183079D01*
X0184653Y0139252D02*
Y0141613D01*
X0186227Y0139252D01*
Y0141613D01*
X0187014D02*
Y0139252D01*
X0188195D01*
X0188589Y0139646D01*
Y0141220D01*
X0188195Y0141613D01*
X0187014D01*
X0118866Y0141366D02*
X0118472Y0141760D01*
X0117685D01*
X0117291Y0141366D01*
Y0139792D01*
X0117685Y0139399D01*
X0118472D01*
X0118866Y0139792D01*
Y0140579D01*
X0118078D01*
X0119653Y0139399D02*
Y0141760D01*
X0121227Y0139399D01*
Y0141760D01*
X0122014D02*
Y0139399D01*
X0123195D01*
X0123589Y0139792D01*
Y0141366D01*
X0123195Y0141760D01*
X0122014D01*
D11*
X0187284Y0182677D02*
G03*
X0187284Y0182677I-0000426J0000000D01*
G01*
D12*
X0141584Y0150709D02*
X0144208D01*
X0145520Y0152021D01*
X0144208Y0153332D01*
X0141584D01*
X0142240Y0154644D02*
X0141584Y0155300D01*
Y0156612D01*
X0142240Y0157268D01*
X0144864D01*
X0145520Y0156612D01*
Y0155300D01*
X0144864Y0154644D01*
X0142240D01*
X0135442Y0150276D02*
Y0151587D01*
Y0150932D01*
X0139378D01*
Y0150276D01*
Y0151587D01*
Y0153555D02*
X0135442D01*
Y0155523D01*
X0136098Y0156179D01*
X0137410D01*
X0138066Y0155523D01*
Y0153555D01*
Y0154867D02*
X0139378Y0156179D01*
Y0157491D02*
X0135442D01*
X0139378Y0160115D01*
X0135442D01*
X0139378Y0161427D02*
X0136754D01*
X0135442Y0162739D01*
X0136754Y0164051D01*
X0139378D01*
X0137410D01*
Y0161427D01*
X0136098Y0167986D02*
X0135442Y0167331D01*
Y0166019D01*
X0136098Y0165363D01*
X0136754D01*
X0137410Y0166019D01*
Y0167331D01*
X0138066Y0167986D01*
X0138722D01*
X0139378Y0167331D01*
Y0166019D01*
X0138722Y0165363D01*
D13*
X0162803Y0153503D02*
X0164902D01*
X0163853D01*
Y0150354D01*
X0165952D02*
Y0153503D01*
X0167526D01*
X0168051Y0152978D01*
Y0151929D01*
X0167526Y0151404D01*
X0165952D01*
X0171199Y0150354D02*
X0169100D01*
X0171199Y0152453D01*
Y0152978D01*
X0170675Y0153503D01*
X0169625D01*
X0169100Y0152978D01*
X0168433Y0165786D02*
X0170532D01*
X0169483D01*
Y0162638D01*
X0171582D02*
Y0165786D01*
X0173156D01*
X0173681Y0165262D01*
Y0164212D01*
X0173156Y0163687D01*
X0171582D01*
X0174730Y0162638D02*
X0175780D01*
X0175255D01*
Y0165786D01*
X0174730Y0165262D01*
X0178395Y0168898D02*
X0181018D01*
X0181543Y0169422D01*
Y0170472D01*
X0181018Y0170997D01*
X0178395D01*
X0178919Y0172046D02*
X0178395Y0172571D01*
Y0173620D01*
X0178919Y0174145D01*
X0179444D01*
X0179969Y0173620D01*
Y0173096D01*
Y0173620D01*
X0180494Y0174145D01*
X0181018D01*
X0181543Y0173620D01*
Y0172571D01*
X0181018Y0172046D01*
M02*
