G04*
G04 #@! TF.GenerationSoftware,Altium Limited,Altium Designer,19.1.5 (86)*
G04*
G04 Layer_Color=16711935*
%FSAX25Y25*%
%MOIN*%
G70*
G01*
G75*
%ADD10C,0.00394*%
%ADD11C,0.01000*%
%ADD52C,0.00197*%
%ADD53C,0.00472*%
D10*
X0132055Y0173268D02*
Y0174449D01*
Y0173268D02*
Y0175630D01*
X0129299Y0173268D02*
X0133236D01*
Y0175630D01*
X0129299D02*
X0133236D01*
X0129299Y0173268D02*
Y0175630D01*
X0185362Y0184055D02*
X0185362Y0176181D01*
X0177488Y0184055D02*
X0185362Y0184055D01*
X0177488Y0184055D02*
X0177488Y0176181D01*
X0185362Y0176181D01*
X0170539Y0172343D02*
X0174673D01*
X0170539Y0180020D02*
X0174673D01*
Y0172343D02*
Y0180020D01*
X0170539Y0172343D02*
Y0180020D01*
X0170106Y0183484D02*
Y0187618D01*
X0162429Y0183484D02*
Y0187618D01*
X0170106D01*
X0162429Y0183484D02*
X0170106D01*
X0132567Y0179193D02*
X0145795D01*
X0145874Y0179272D01*
X0145874Y0191161D01*
X0132527D02*
X0145874D01*
X0132527D02*
X0132567Y0191122D01*
Y0179193D02*
Y0191122D01*
X0162466Y0169390D02*
X0170143D01*
X0162466Y0165256D02*
X0170143D01*
Y0169390D01*
X0162466Y0165256D02*
Y0169390D01*
Y0178524D02*
X0170143D01*
X0162466Y0174390D02*
X0170143D01*
Y0178524D01*
X0162466Y0174390D02*
Y0178524D01*
Y0173957D02*
X0170143D01*
X0162466Y0169823D02*
X0170143D01*
Y0173957D01*
X0162466Y0169823D02*
Y0173957D01*
Y0183051D02*
X0170143D01*
X0162466Y0178917D02*
X0170143D01*
Y0183051D01*
X0162466Y0178917D02*
Y0183051D01*
X0137213Y0168898D02*
X0141150D01*
X0137213Y0176378D02*
X0141150D01*
Y0168898D02*
Y0176378D01*
X0137213Y0168898D02*
Y0176378D01*
X0137114Y0160831D02*
Y0168508D01*
X0141248Y0160831D02*
Y0168508D01*
X0137114D02*
X0141248D01*
X0137114Y0160831D02*
X0141248D01*
X0145697Y0168839D02*
Y0176516D01*
X0141563Y0168839D02*
Y0176516D01*
Y0168839D02*
X0145697D01*
X0141563Y0176516D02*
X0145697D01*
X0131567Y0164913D02*
Y0172591D01*
X0135701Y0164913D02*
Y0172591D01*
X0131567D02*
X0135701D01*
X0131567Y0164913D02*
X0135701D01*
X0137213Y0152865D02*
X0141150D01*
X0137213Y0160345D02*
X0141150D01*
Y0152865D02*
Y0160345D01*
X0137213Y0152865D02*
Y0160345D01*
X0143433Y0154095D02*
X0149339D01*
X0143433D02*
Y0158031D01*
X0149339D01*
Y0154095D02*
Y0158031D01*
X0150441Y0164882D02*
X0154378D01*
X0150441Y0172362D02*
X0154378D01*
Y0164882D02*
Y0172362D01*
X0150441Y0164882D02*
Y0172362D01*
X0146071Y0164882D02*
X0150008D01*
X0146071Y0172362D02*
X0150008D01*
Y0164882D02*
Y0172362D01*
X0146071Y0164882D02*
Y0172362D01*
X0146091Y0160295D02*
X0153768D01*
X0146091Y0164429D02*
X0153768D01*
X0146091Y0160295D02*
Y0164429D01*
X0153768Y0160295D02*
Y0164429D01*
X0156504Y0164961D02*
X0160441D01*
X0156504Y0172441D02*
X0160441D01*
Y0164961D02*
Y0172441D01*
X0156504Y0164961D02*
Y0172441D01*
X0171595Y0134488D02*
Y0140788D01*
X0165194Y0134488D02*
X0171595D01*
X0165194D02*
Y0140788D01*
X0171595D01*
X0162606Y0137598D02*
Y0141535D01*
X0155126Y0137598D02*
Y0141535D01*
X0162606D01*
X0155126Y0137598D02*
X0162606D01*
X0173236Y0137362D02*
X0177173D01*
X0173236Y0144843D02*
X0177173D01*
Y0137362D02*
Y0144843D01*
X0173236Y0137362D02*
Y0144843D01*
X0162567Y0133268D02*
Y0137205D01*
X0155087Y0133268D02*
Y0137205D01*
X0162567D01*
X0155087Y0133268D02*
X0162567D01*
X0172055Y0129606D02*
Y0133543D01*
X0164575Y0129606D02*
Y0133543D01*
X0172055D01*
X0164575Y0129606D02*
X0172055D01*
X0173118Y0146417D02*
Y0164134D01*
X0155402D02*
X0173118D01*
X0155402Y0146417D02*
Y0164134D01*
Y0146417D02*
X0173118D01*
X0185480Y0145346D02*
Y0161346D01*
X0176819D02*
X0185480D01*
X0176819Y0145346D02*
Y0161346D01*
Y0145346D02*
X0185480D01*
X0161465Y0141457D02*
Y0145394D01*
X0168945Y0141457D02*
Y0145394D01*
X0161465Y0141457D02*
X0168945D01*
X0161465Y0145394D02*
X0168945D01*
X0184457Y0177678D02*
Y0179646D01*
X0184063Y0180039D01*
X0183276D01*
X0182882Y0179646D01*
Y0177678D01*
X0182095Y0178071D02*
X0181702Y0177678D01*
X0180914D01*
X0180521Y0178071D01*
Y0178465D01*
X0180914Y0178859D01*
X0181308D01*
X0180914D01*
X0180521Y0179252D01*
Y0179646D01*
X0180914Y0180039D01*
X0181702D01*
X0182095Y0179646D01*
X0137474Y0182764D02*
X0136818Y0182108D01*
X0135506D01*
X0134850Y0182764D01*
Y0185387D01*
X0135506Y0186043D01*
X0136818D01*
X0137474Y0185387D01*
X0140754Y0182108D02*
X0139442D01*
X0138786Y0182764D01*
Y0185387D01*
X0139442Y0186043D01*
X0140754D01*
X0141410Y0185387D01*
Y0182764D01*
X0140754Y0182108D01*
X0142722Y0186043D02*
Y0182108D01*
X0145346Y0186043D01*
Y0182108D01*
X0149281Y0186043D02*
X0146658D01*
X0149281Y0183420D01*
Y0182764D01*
X0148626Y0182108D01*
X0147314D01*
X0146658Y0182764D01*
X0148354Y0156850D02*
Y0155210D01*
X0148026Y0154882D01*
X0147370D01*
X0147042Y0155210D01*
Y0156850D01*
X0145074Y0154882D02*
X0146387D01*
X0145074Y0156194D01*
Y0156522D01*
X0145403Y0156850D01*
X0146058D01*
X0146387Y0156522D01*
X0169574Y0135039D02*
Y0136614D01*
Y0135827D01*
X0167213D01*
Y0137401D02*
Y0138188D01*
Y0137794D01*
X0169574D01*
X0169181Y0137401D01*
X0162725Y0161142D02*
X0164693D01*
X0165087Y0160748D01*
Y0159961D01*
X0164693Y0159567D01*
X0162725D01*
X0165087Y0158780D02*
Y0157993D01*
Y0158387D01*
X0162725D01*
X0163119Y0158780D01*
X0183510Y0148228D02*
X0179181Y0151115D01*
X0183510D02*
X0179181Y0148228D01*
Y0152558D02*
Y0154001D01*
Y0153279D01*
X0183510D01*
X0182789Y0152558D01*
D11*
X0184477Y0182677D02*
G03*
X0184477Y0182677I-0000493J0000000D01*
G01*
X0148551Y0153110D02*
G03*
X0148551Y0153110I-0000197J0000000D01*
G01*
X0167922Y0135472D02*
G03*
X0167922Y0135472I-0000473J0000000D01*
G01*
X0157355Y0162677D02*
G03*
X0157355Y0162677I-0000418J0000000D01*
G01*
D52*
X0129693Y0173859D02*
Y0175039D01*
X0130283D01*
X0130480Y0174843D01*
Y0174055D01*
X0130283Y0173859D01*
X0129693D01*
X0130874Y0175039D02*
X0131267D01*
X0131070D01*
Y0173859D01*
X0130874Y0174055D01*
D53*
X0173295Y0174999D02*
X0173688Y0174606D01*
Y0173819D01*
X0173295Y0173425D01*
X0171720D01*
X0171327Y0173819D01*
Y0174606D01*
X0171720Y0174999D01*
Y0175787D02*
X0171327Y0176180D01*
Y0176967D01*
X0171720Y0177361D01*
X0173295D01*
X0173688Y0176967D01*
Y0176180D01*
X0173295Y0175787D01*
X0172901D01*
X0172508Y0176180D01*
Y0177361D01*
X0167449Y0186240D02*
X0167843Y0186633D01*
X0168630D01*
X0169024Y0186240D01*
Y0184665D01*
X0168630Y0184272D01*
X0167843D01*
X0167449Y0184665D01*
X0166662Y0186240D02*
X0166269Y0186633D01*
X0165481D01*
X0165088Y0186240D01*
Y0185846D01*
X0165481Y0185452D01*
X0165088Y0185059D01*
Y0184665D01*
X0165481Y0184272D01*
X0166269D01*
X0166662Y0184665D01*
Y0185059D01*
X0166269Y0185452D01*
X0166662Y0185846D01*
Y0186240D01*
X0166269Y0185452D02*
X0165481D01*
X0165123Y0166635D02*
X0164730Y0166241D01*
X0163943D01*
X0163549Y0166635D01*
Y0168209D01*
X0163943Y0168602D01*
X0164730D01*
X0165123Y0168209D01*
X0167485Y0166241D02*
X0165910D01*
Y0167422D01*
X0166698Y0167028D01*
X0167091D01*
X0167485Y0167422D01*
Y0168209D01*
X0167091Y0168602D01*
X0166304D01*
X0165910Y0168209D01*
X0165123Y0175768D02*
X0164730Y0175375D01*
X0163943D01*
X0163549Y0175768D01*
Y0177343D01*
X0163943Y0177736D01*
X0164730D01*
X0165123Y0177343D01*
X0167485Y0175375D02*
X0166698Y0175768D01*
X0165910Y0176556D01*
Y0177343D01*
X0166304Y0177736D01*
X0167091D01*
X0167485Y0177343D01*
Y0176949D01*
X0167091Y0176556D01*
X0165910D01*
X0165123Y0171201D02*
X0164730Y0170808D01*
X0163943D01*
X0163549Y0171201D01*
Y0172776D01*
X0163943Y0173169D01*
X0164730D01*
X0165123Y0172776D01*
X0167091Y0173169D02*
Y0170808D01*
X0165910Y0171989D01*
X0167485D01*
X0165123Y0180296D02*
X0164730Y0179902D01*
X0163943D01*
X0163549Y0180296D01*
Y0181870D01*
X0163943Y0182264D01*
X0164730D01*
X0165123Y0181870D01*
X0165910Y0180296D02*
X0166304Y0179902D01*
X0167091D01*
X0167485Y0180296D01*
Y0180690D01*
X0167091Y0181083D01*
X0166698D01*
X0167091D01*
X0167485Y0181477D01*
Y0181870D01*
X0167091Y0182264D01*
X0166304D01*
X0165910Y0181870D01*
X0140361Y0169882D02*
X0138000D01*
Y0171456D01*
Y0173818D02*
Y0172243D01*
X0139574Y0173818D01*
X0139968D01*
X0140361Y0173424D01*
Y0172637D01*
X0139968Y0172243D01*
X0139869Y0163488D02*
X0140263Y0163094D01*
Y0162307D01*
X0139869Y0161913D01*
X0138295D01*
X0137902Y0162307D01*
Y0163094D01*
X0138295Y0163488D01*
X0137902Y0165849D02*
Y0164275D01*
X0139476Y0165849D01*
X0139869D01*
X0140263Y0165455D01*
Y0164668D01*
X0139869Y0164275D01*
X0142942Y0173859D02*
X0142548Y0174252D01*
Y0175040D01*
X0142942Y0175433D01*
X0144516D01*
X0144909Y0175040D01*
Y0174252D01*
X0144516Y0173859D01*
X0142548Y0173072D02*
Y0171497D01*
X0142942D01*
X0144516Y0173072D01*
X0144909D01*
X0134322Y0167570D02*
X0134716Y0167177D01*
Y0166390D01*
X0134322Y0165996D01*
X0132748D01*
X0132354Y0166390D01*
Y0167177D01*
X0132748Y0167570D01*
X0132354Y0168358D02*
Y0169145D01*
Y0168751D01*
X0134716D01*
X0134322Y0168358D01*
Y0170325D02*
X0134716Y0170719D01*
Y0171506D01*
X0134322Y0171900D01*
X0132748D01*
X0132354Y0171506D01*
Y0170719D01*
X0132748Y0170325D01*
X0134322D01*
X0140361Y0153849D02*
X0138000D01*
Y0155423D01*
Y0156210D02*
Y0156998D01*
Y0156604D01*
X0140361D01*
X0139968Y0156210D01*
X0151031Y0165669D02*
X0153393D01*
Y0166850D01*
X0152999Y0167244D01*
X0152212D01*
X0151819Y0166850D01*
Y0165669D01*
Y0166456D02*
X0151031Y0167244D01*
Y0169605D02*
Y0168031D01*
X0152606Y0169605D01*
X0152999D01*
X0153393Y0169211D01*
Y0168424D01*
X0152999Y0168031D01*
X0146661Y0165669D02*
X0149023D01*
Y0166850D01*
X0148629Y0167244D01*
X0147842D01*
X0147449Y0166850D01*
Y0165669D01*
Y0166456D02*
X0146661Y0167244D01*
Y0168031D02*
Y0168818D01*
Y0168424D01*
X0149023D01*
X0148629Y0168031D01*
X0146661Y0169999D02*
Y0170786D01*
Y0170392D01*
X0149023D01*
X0148629Y0169999D01*
X0151111Y0163050D02*
X0151504Y0163444D01*
X0152292D01*
X0152685Y0163050D01*
Y0161476D01*
X0152292Y0161083D01*
X0151504D01*
X0151111Y0161476D01*
X0150324Y0161083D02*
X0149536D01*
X0149930D01*
Y0163444D01*
X0150324Y0163050D01*
X0157095Y0165748D02*
X0159456D01*
Y0166929D01*
X0159062Y0167322D01*
X0158275D01*
X0157882Y0166929D01*
Y0165748D01*
Y0166535D02*
X0157095Y0167322D01*
X0159456Y0169684D02*
X0159062Y0168897D01*
X0158275Y0168110D01*
X0157488D01*
X0157095Y0168503D01*
Y0169290D01*
X0157488Y0169684D01*
X0157882D01*
X0158275Y0169290D01*
Y0168110D01*
X0161819Y0138189D02*
Y0140550D01*
X0160638D01*
X0160245Y0140157D01*
Y0139370D01*
X0160638Y0138976D01*
X0161819D01*
X0161032D02*
X0160245Y0138189D01*
X0159458D02*
X0158670D01*
X0159064D01*
Y0140550D01*
X0159458Y0140157D01*
X0157490D02*
X0157096Y0140550D01*
X0156309D01*
X0155915Y0140157D01*
Y0138583D01*
X0156309Y0138189D01*
X0157096D01*
X0157490Y0138583D01*
Y0140157D01*
X0173827Y0138150D02*
X0176188D01*
Y0139330D01*
X0175795Y0139724D01*
X0175007D01*
X0174614Y0139330D01*
Y0138150D01*
Y0138937D02*
X0173827Y0139724D01*
X0174220Y0140511D02*
X0173827Y0140905D01*
Y0141692D01*
X0174220Y0142085D01*
X0175795D01*
X0176188Y0141692D01*
Y0140905D01*
X0175795Y0140511D01*
X0175401D01*
X0175007Y0140905D01*
Y0142085D01*
X0161779Y0133858D02*
Y0136220D01*
X0160599D01*
X0160205Y0135826D01*
Y0135039D01*
X0160599Y0134645D01*
X0161779D01*
X0160992D02*
X0160205Y0133858D01*
X0159418Y0135826D02*
X0159025Y0136220D01*
X0158237D01*
X0157844Y0135826D01*
Y0135433D01*
X0158237Y0135039D01*
X0157844Y0134645D01*
Y0134252D01*
X0158237Y0133858D01*
X0159025D01*
X0159418Y0134252D01*
Y0134645D01*
X0159025Y0135039D01*
X0159418Y0135433D01*
Y0135826D01*
X0159025Y0135039D02*
X0158237D01*
X0171268Y0130197D02*
Y0132558D01*
X0170087D01*
X0169693Y0132165D01*
Y0131378D01*
X0170087Y0130984D01*
X0171268D01*
X0170481D02*
X0169693Y0130197D01*
X0168906Y0132558D02*
X0167332D01*
Y0132165D01*
X0168906Y0130590D01*
Y0130197D01*
X0162252Y0144803D02*
Y0142442D01*
X0163433D01*
X0163826Y0142835D01*
Y0143622D01*
X0163433Y0144016D01*
X0162252D01*
X0163039D02*
X0163826Y0144803D01*
X0164613D02*
X0165401D01*
X0165007D01*
Y0142442D01*
X0164613Y0142835D01*
M02*
