G04*
G04 #@! TF.GenerationSoftware,Altium Limited,Altium Designer,19.1.5 (86)*
G04*
G04 Layer_Color=32896*
%FSAX25Y25*%
%MOIN*%
G70*
G01*
G75*
%ADD10C,0.00394*%
%ADD11C,0.01000*%
%ADD12C,0.00787*%
%ADD13C,0.00591*%
D10*
X0132062Y0173268D02*
Y0175630D01*
Y0173268D02*
Y0174449D01*
X0129299Y0173268D02*
X0132062D01*
X0129299Y0175630D02*
X0132062D01*
X0132055D02*
X0133236D01*
X0132062Y0173268D02*
X0133276D01*
X0174673Y0172343D02*
Y0180020D01*
X0170539D02*
X0174673D01*
X0170539Y0172343D02*
Y0180020D01*
Y0172343D02*
X0174673D01*
X0162429Y0187618D02*
X0170106D01*
X0162429Y0183484D02*
Y0187618D01*
Y0183484D02*
X0170106D01*
Y0187618D01*
X0162466Y0165256D02*
Y0169390D01*
X0170143D01*
Y0165256D02*
Y0169390D01*
X0162466Y0165256D02*
X0170143D01*
X0162466Y0174390D02*
Y0178524D01*
X0170143D01*
Y0174390D02*
Y0178524D01*
X0162466Y0174390D02*
X0170143D01*
X0162466Y0169823D02*
Y0173957D01*
X0170143D01*
Y0169823D02*
Y0173957D01*
X0162466Y0169823D02*
X0170143D01*
X0162466Y0178917D02*
Y0183051D01*
X0170143D01*
Y0178917D02*
Y0183051D01*
X0162466Y0178917D02*
X0170143D01*
X0137213Y0168898D02*
X0141150D01*
X0137213D02*
Y0176378D01*
X0141150D01*
Y0168898D02*
Y0176378D01*
X0137114Y0160831D02*
X0141248D01*
X0137114D02*
Y0168508D01*
X0141248D01*
Y0160831D02*
Y0168508D01*
X0141563Y0176516D02*
X0145697D01*
Y0168839D02*
Y0176516D01*
X0141563Y0168839D02*
X0145697D01*
X0141563D02*
Y0176516D01*
X0131567Y0164913D02*
X0135701D01*
X0131567D02*
Y0172591D01*
X0135701D01*
Y0164913D02*
Y0172591D01*
X0137213Y0152865D02*
X0141150D01*
X0137213D02*
Y0160345D01*
X0141150D01*
Y0152865D02*
Y0160345D01*
X0143433Y0154095D02*
Y0158031D01*
X0149339Y0154095D02*
Y0158031D01*
X0143433D02*
X0149339D01*
X0143433Y0154095D02*
X0149339D01*
X0150441Y0164882D02*
X0154378D01*
X0150441D02*
Y0172362D01*
X0154378D01*
Y0164882D02*
Y0172362D01*
X0146071Y0164882D02*
X0150008D01*
X0146071D02*
Y0172362D01*
X0150008D01*
Y0164882D02*
Y0172362D01*
X0153768Y0160295D02*
Y0164429D01*
X0146091Y0160295D02*
X0153768D01*
X0146091D02*
Y0164429D01*
X0153768D01*
X0156504Y0164961D02*
X0160441D01*
X0156504D02*
Y0172441D01*
X0160441D01*
Y0164961D02*
Y0172441D01*
X0165194Y0140984D02*
X0171622D01*
X0165205Y0134291D02*
X0171632D01*
X0162606Y0137598D02*
Y0141535D01*
X0155126Y0137598D02*
X0162606D01*
X0155126D02*
Y0141535D01*
X0162606D01*
X0173236Y0137362D02*
X0177173D01*
X0173236D02*
Y0144843D01*
X0177173D01*
Y0137362D02*
Y0144843D01*
X0162567Y0133268D02*
Y0137205D01*
X0155087Y0133268D02*
X0162567D01*
X0155087D02*
Y0137205D01*
X0162567D01*
X0172055Y0129606D02*
Y0133543D01*
X0164575Y0129606D02*
X0172055D01*
X0164575D02*
Y0133543D01*
X0172055D01*
X0173512Y0161181D02*
Y0164527D01*
X0170165D02*
X0173512D01*
Y0146024D02*
Y0149370D01*
X0170165Y0146024D02*
X0173512D01*
X0155008D02*
X0158354D01*
X0155008D02*
Y0149370D01*
Y0164527D02*
X0158354D01*
X0155008Y0161181D02*
Y0164527D01*
X0161465Y0141457D02*
Y0145394D01*
X0168945D01*
Y0141457D02*
Y0145394D01*
X0161465Y0141457D02*
X0168945D01*
D11*
X0148551Y0153110D02*
G03*
X0148551Y0153110I-0000197J0000000D01*
G01*
X0164339Y0134479D02*
G03*
X0164339Y0134479I-0000473J0000000D01*
G01*
X0154526Y0165433D02*
G03*
X0154526Y0165433I-0000424J0000000D01*
G01*
D12*
X0145874Y0190480D02*
X0145874Y0191268D01*
X0132488D02*
X0145874D01*
X0132488Y0190480D02*
Y0191268D01*
X0141937Y0179063D02*
X0145874D01*
Y0180244D01*
X0132488Y0179063D02*
X0132488Y0180244D01*
X0132488Y0179063D02*
X0136425Y0179063D01*
X0176819Y0145346D02*
Y0161346D01*
X0185650D01*
Y0145346D02*
Y0161346D01*
X0176819Y0145346D02*
X0185650D01*
D13*
X0130087Y0172322D02*
Y0169173D01*
X0128512D01*
X0127988Y0169698D01*
Y0171797D01*
X0128512Y0172322D01*
X0130087D01*
X0126938Y0169173D02*
X0125889D01*
X0126413D01*
Y0172322D01*
X0126938Y0171797D01*
X0143106Y0194986D02*
X0143630Y0195511D01*
X0144680D01*
X0145205Y0194986D01*
Y0192887D01*
X0144680Y0192362D01*
X0143630D01*
X0143106Y0192887D01*
X0140482Y0195511D02*
X0141531D01*
X0142056Y0194986D01*
Y0192887D01*
X0141531Y0192362D01*
X0140482D01*
X0139957Y0192887D01*
Y0194986D01*
X0140482Y0195511D01*
X0138908Y0192362D02*
Y0195511D01*
X0136809Y0192362D01*
Y0195511D01*
X0133660Y0192362D02*
X0135759D01*
X0133660Y0194461D01*
Y0194986D01*
X0134185Y0195511D01*
X0135234D01*
X0135759Y0194986D01*
X0190007Y0151496D02*
X0186858Y0153595D01*
X0190007D02*
X0186858Y0151496D01*
Y0154645D02*
Y0155694D01*
Y0155169D01*
X0190007D01*
X0189482Y0154645D01*
X0178394Y0165038D02*
Y0162415D01*
X0177869Y0161890D01*
X0176819D01*
X0176295Y0162415D01*
Y0165038D01*
X0175245Y0161890D02*
X0174196D01*
X0174720D01*
Y0165038D01*
X0175245Y0164514D01*
X0149181Y0151377D02*
Y0148753D01*
X0148656Y0148228D01*
X0147607D01*
X0147082Y0148753D01*
Y0151377D01*
X0143933Y0148228D02*
X0146033D01*
X0143933Y0150327D01*
Y0150852D01*
X0144458Y0151377D01*
X0145508D01*
X0146033Y0150852D01*
X0177685Y0134842D02*
X0175586D01*
X0176636D01*
Y0131693D01*
X0174536D02*
X0173487D01*
X0174012D01*
Y0134842D01*
X0174536Y0134317D01*
X0146543Y0173228D02*
X0149692D01*
Y0174803D01*
X0149167Y0175327D01*
X0148118D01*
X0147593Y0174803D01*
Y0173228D01*
Y0174278D02*
X0146543Y0175327D01*
Y0176377D02*
Y0177427D01*
Y0176902D01*
X0149692D01*
X0149167Y0176377D01*
X0146543Y0179001D02*
Y0180050D01*
Y0179525D01*
X0149692D01*
X0149167Y0179001D01*
X0154260Y0137835D02*
Y0140983D01*
X0152685D01*
X0152161Y0140459D01*
Y0139409D01*
X0152685Y0138884D01*
X0154260D01*
X0153210D02*
X0152161Y0137835D01*
X0151111D02*
X0150062D01*
X0150586D01*
Y0140983D01*
X0151111Y0140459D01*
X0148487D02*
X0147963Y0140983D01*
X0146913D01*
X0146388Y0140459D01*
Y0138359D01*
X0146913Y0137835D01*
X0147963D01*
X0148487Y0138359D01*
Y0140459D01*
X0183118Y0137992D02*
Y0141141D01*
X0181544D01*
X0181019Y0140616D01*
Y0139566D01*
X0181544Y0139042D01*
X0183118D01*
X0182069D02*
X0181019Y0137992D01*
X0179970Y0138517D02*
X0179445Y0137992D01*
X0178395D01*
X0177871Y0138517D01*
Y0140616D01*
X0178395Y0141141D01*
X0179445D01*
X0179970Y0140616D01*
Y0140091D01*
X0179445Y0139566D01*
X0177871D01*
X0154181Y0133661D02*
Y0136810D01*
X0152607D01*
X0152082Y0136285D01*
Y0135236D01*
X0152607Y0134711D01*
X0154181D01*
X0153132D02*
X0152082Y0133661D01*
X0151032Y0136285D02*
X0150508Y0136810D01*
X0149458D01*
X0148933Y0136285D01*
Y0135760D01*
X0149458Y0135236D01*
X0148933Y0134711D01*
Y0134186D01*
X0149458Y0133661D01*
X0150508D01*
X0151032Y0134186D01*
Y0134711D01*
X0150508Y0135236D01*
X0151032Y0135760D01*
Y0136285D01*
X0150508Y0135236D02*
X0149458D01*
X0163512Y0129724D02*
Y0132873D01*
X0161937D01*
X0161413Y0132348D01*
Y0131299D01*
X0161937Y0130774D01*
X0163512D01*
X0162462D02*
X0161413Y0129724D01*
X0160363Y0132873D02*
X0158264D01*
Y0132348D01*
X0160363Y0130249D01*
Y0129724D01*
X0157055Y0173346D02*
X0160204D01*
Y0174921D01*
X0159679Y0175445D01*
X0158629D01*
X0158105Y0174921D01*
Y0173346D01*
Y0174396D02*
X0157055Y0175445D01*
X0160204Y0178594D02*
X0159679Y0177545D01*
X0158629Y0176495D01*
X0157580D01*
X0157055Y0177020D01*
Y0178069D01*
X0157580Y0178594D01*
X0158105D01*
X0158629Y0178069D01*
Y0176495D01*
X0150835Y0173228D02*
X0153983D01*
Y0174803D01*
X0153458Y0175327D01*
X0152409D01*
X0151884Y0174803D01*
Y0173228D01*
Y0174278D02*
X0150835Y0175327D01*
Y0178476D02*
Y0176377D01*
X0152934Y0178476D01*
X0153458D01*
X0153983Y0177951D01*
Y0176902D01*
X0153458Y0176377D01*
X0160559Y0141772D02*
Y0144920D01*
X0158985D01*
X0158460Y0144395D01*
Y0143346D01*
X0158985Y0142821D01*
X0160559D01*
X0159510D02*
X0158460Y0141772D01*
X0157411D02*
X0156361D01*
X0156886D01*
Y0144920D01*
X0157411Y0144395D01*
X0145164Y0162598D02*
X0142016D01*
Y0164698D01*
Y0167846D02*
Y0165747D01*
X0144115Y0167846D01*
X0144640D01*
X0145164Y0167321D01*
Y0166272D01*
X0144640Y0165747D01*
X0136070Y0154479D02*
X0132921D01*
Y0156578D01*
Y0157627D02*
Y0158677D01*
Y0158152D01*
X0136070D01*
X0135545Y0157627D01*
X0128263Y0167742D02*
X0128788Y0168267D01*
X0129837D01*
X0130362Y0167742D01*
Y0165643D01*
X0129837Y0165118D01*
X0128788D01*
X0128263Y0165643D01*
X0127214Y0165118D02*
X0126164D01*
X0126689D01*
Y0168267D01*
X0127214Y0167742D01*
X0124590D02*
X0124065Y0168267D01*
X0123015D01*
X0122491Y0167742D01*
Y0165643D01*
X0123015Y0165118D01*
X0124065D01*
X0124590Y0165643D01*
Y0167742D01*
X0180179Y0177271D02*
X0179655Y0177796D01*
Y0178845D01*
X0180179Y0179370D01*
X0182278D01*
X0182803Y0178845D01*
Y0177796D01*
X0182278Y0177271D01*
Y0176222D02*
X0182803Y0175697D01*
Y0174647D01*
X0182278Y0174122D01*
X0180179D01*
X0179655Y0174647D01*
Y0175697D01*
X0180179Y0176222D01*
X0180704D01*
X0181229Y0175697D01*
Y0174122D01*
X0159523Y0186797D02*
X0160048Y0187322D01*
X0161097D01*
X0161622Y0186797D01*
Y0184698D01*
X0161097Y0184173D01*
X0160048D01*
X0159523Y0184698D01*
X0158474Y0186797D02*
X0157949Y0187322D01*
X0156899D01*
X0156374Y0186797D01*
Y0186272D01*
X0156899Y0185748D01*
X0156374Y0185223D01*
Y0184698D01*
X0156899Y0184173D01*
X0157949D01*
X0158474Y0184698D01*
Y0185223D01*
X0157949Y0185748D01*
X0158474Y0186272D01*
Y0186797D01*
X0157949Y0185748D02*
X0156899D01*
X0176164Y0177310D02*
X0175639Y0177835D01*
Y0178885D01*
X0176164Y0179409D01*
X0178263D01*
X0178787Y0178885D01*
Y0177835D01*
X0178263Y0177310D01*
X0175639Y0174162D02*
X0176164Y0175211D01*
X0177213Y0176261D01*
X0178263D01*
X0178787Y0175736D01*
Y0174687D01*
X0178263Y0174162D01*
X0177738D01*
X0177213Y0174687D01*
Y0176261D01*
X0174169Y0168451D02*
X0174693Y0168975D01*
X0175743D01*
X0176268Y0168451D01*
Y0166351D01*
X0175743Y0165827D01*
X0174693D01*
X0174169Y0166351D01*
X0171020Y0168975D02*
X0173119D01*
Y0167401D01*
X0172070Y0167926D01*
X0171545D01*
X0171020Y0167401D01*
Y0166351D01*
X0171545Y0165827D01*
X0172594D01*
X0173119Y0166351D01*
X0178696Y0172545D02*
X0179221Y0173070D01*
X0180271D01*
X0180795Y0172545D01*
Y0170446D01*
X0180271Y0169921D01*
X0179221D01*
X0178696Y0170446D01*
X0176072Y0169921D02*
Y0173070D01*
X0177647Y0171496D01*
X0175548D01*
X0159129Y0182427D02*
X0159654Y0182952D01*
X0160704D01*
X0161228Y0182427D01*
Y0180328D01*
X0160704Y0179803D01*
X0159654D01*
X0159129Y0180328D01*
X0158080Y0182427D02*
X0157555Y0182952D01*
X0156505D01*
X0155981Y0182427D01*
Y0181902D01*
X0156505Y0181377D01*
X0157030D01*
X0156505D01*
X0155981Y0180853D01*
Y0180328D01*
X0156505Y0179803D01*
X0157555D01*
X0158080Y0180328D01*
X0133499Y0163332D02*
X0134024Y0163857D01*
X0135074D01*
X0135598Y0163332D01*
Y0161233D01*
X0135074Y0160709D01*
X0134024D01*
X0133499Y0161233D01*
X0130351Y0160709D02*
X0132450D01*
X0130351Y0162808D01*
Y0163332D01*
X0130876Y0163857D01*
X0131925D01*
X0132450Y0163332D01*
X0151767Y0158844D02*
X0152292Y0159369D01*
X0153341D01*
X0153866Y0158844D01*
Y0156745D01*
X0153341Y0156220D01*
X0152292D01*
X0151767Y0156745D01*
X0150718Y0156220D02*
X0149668D01*
X0150193D01*
Y0159369D01*
X0150718Y0158844D01*
M02*
