G04*
G04 #@! TF.GenerationSoftware,Altium Limited,Altium Designer,19.0.15 (446)*
G04*
G04 Layer_Color=128*
%FSAX25Y25*%
%MOIN*%
G70*
G01*
G75*
%ADD25R,0.01417X0.00984*%
%ADD26R,0.02520X0.02362*%
%ADD27R,0.02362X0.02520*%
%ADD28R,0.03937X0.03937*%
%ADD29R,0.04134X0.08661*%
%ADD30R,0.02441X0.02244*%
%ADD31R,0.00787X0.01181*%
%ADD32R,0.02362X0.01968*%
%ADD33R,0.01772X0.01181*%
%ADD34R,0.01968X0.02362*%
%ADD35C,0.01063*%
%ADD36R,0.07480X0.04331*%
D25*
X0128905Y0174449D02*
D03*
X0133630D02*
D03*
D26*
X0172606Y0174291D02*
D03*
Y0178071D02*
D03*
X0139181Y0166559D02*
D03*
Y0162779D02*
D03*
X0143630Y0170787D02*
D03*
Y0174567D02*
D03*
X0133634Y0170642D02*
D03*
Y0166862D02*
D03*
D27*
X0168157Y0185551D02*
D03*
X0164378D02*
D03*
X0168195Y0167323D02*
D03*
X0164415D02*
D03*
X0168195Y0176457D02*
D03*
X0164415D02*
D03*
X0168195Y0171890D02*
D03*
X0164415D02*
D03*
X0168195Y0180984D02*
D03*
X0164415D02*
D03*
X0148039Y0162362D02*
D03*
X0151819D02*
D03*
D28*
X0139181Y0179457D02*
D03*
D29*
X0133374Y0185362D02*
D03*
X0144988D02*
D03*
D30*
X0139181Y0170787D02*
D03*
Y0174488D02*
D03*
Y0154754D02*
D03*
Y0158455D02*
D03*
D31*
X0148354Y0157244D02*
D03*
X0146386D02*
D03*
X0144417D02*
D03*
Y0154882D02*
D03*
X0146386D02*
D03*
X0148354D02*
D03*
D32*
X0152409Y0166654D02*
D03*
Y0170591D02*
D03*
X0148039Y0166654D02*
D03*
Y0170591D02*
D03*
X0158472Y0166732D02*
D03*
Y0170669D02*
D03*
X0175205Y0139134D02*
D03*
Y0143071D02*
D03*
D33*
X0171051Y0135669D02*
D03*
Y0137638D02*
D03*
Y0139606D02*
D03*
X0165736Y0135669D02*
D03*
Y0137638D02*
D03*
Y0139606D02*
D03*
D34*
X0160835Y0139567D02*
D03*
X0156898D02*
D03*
X0160795Y0135236D02*
D03*
X0156858D02*
D03*
X0170283Y0131575D02*
D03*
X0166347D02*
D03*
X0163236Y0143425D02*
D03*
X0167173D02*
D03*
D35*
X0172134Y0163150D02*
D03*
X0170165D02*
D03*
X0168197D02*
D03*
X0166228D02*
D03*
X0164260D02*
D03*
X0162291D02*
D03*
X0160323D02*
D03*
X0158354D02*
D03*
X0156386D02*
D03*
X0172134Y0147402D02*
D03*
Y0149370D02*
D03*
Y0151339D02*
D03*
Y0153307D02*
D03*
Y0155276D02*
D03*
Y0157244D02*
D03*
Y0159213D02*
D03*
Y0161181D02*
D03*
X0170165Y0147402D02*
D03*
X0168197D02*
D03*
Y0151339D02*
D03*
Y0153307D02*
D03*
Y0155276D02*
D03*
Y0157244D02*
D03*
Y0159213D02*
D03*
X0166228Y0147402D02*
D03*
Y0151339D02*
D03*
Y0153307D02*
D03*
Y0157244D02*
D03*
Y0159213D02*
D03*
X0164260Y0147402D02*
D03*
Y0151339D02*
D03*
Y0159213D02*
D03*
X0162291Y0147402D02*
D03*
Y0153307D02*
D03*
Y0157244D02*
D03*
Y0159213D02*
D03*
X0160323Y0147402D02*
D03*
Y0151339D02*
D03*
Y0153307D02*
D03*
Y0155276D02*
D03*
Y0157244D02*
D03*
Y0159213D02*
D03*
X0158354Y0147402D02*
D03*
X0156386D02*
D03*
Y0149370D02*
D03*
Y0151339D02*
D03*
Y0153307D02*
D03*
Y0155276D02*
D03*
Y0157244D02*
D03*
Y0159213D02*
D03*
Y0161181D02*
D03*
D36*
X0181150Y0148425D02*
D03*
Y0158268D02*
D03*
M02*
