M48
;Layer_Color=9474304
;FILE_FORMAT=2:5
INCH
;TYPE=PLATED
T1F00S00C0.01181
T2F00S00C0.03150
;TYPE=NON_PLATED
T3F00S00C0.03150
%
T01
X0126969Y0129921
X0132874
X0138779
X0139890Y0135039
X0137016Y0135079
X0133748Y0135039
X0130795
X0130717Y0138622
X0124016Y0135827
X0121063Y0141732
X0118110Y0147638
X0115157Y0153543
X0123231Y0155079
X0138276Y0151772
X0138433Y0145472
X0141976Y0146221
X0145165Y0146260
X0148472
X0151583
X0150591Y0141732
X0148118Y0142717
X0147882Y0138858
Y0134409
Y0126142
X0152252Y0126063
X0141732Y0124016
X0143315Y0138740
X0143433Y0150272
X0152055Y0154488
X0158709Y0145118
X0164220Y0139685
X0167055Y0135433
X0172724Y0138122
X0172685Y0141220
X0173433Y0148122
X0171465Y0150472
X0171504Y0153819
X0174929Y0153740
X0178000Y0153819
X0186346Y0154528
X0191929Y0153543
X0188976Y0147638
X0183071
X0186024Y0141732
X0180118
X0183071Y0135827
X0174213Y0129921
X0165354Y0124016
X0159449
X0162055Y0159724
X0163039Y0168858
X0159449Y0171260
X0160913Y0174185
X0162401Y0177165
X0162213Y0180157
X0158709Y0179961
Y0177008
X0158276Y0183307
X0164063Y0185079
X0161031Y0188465
X0164457Y0191535
X0167370
X0170283Y0191496
X0173276Y0191457
X0176307Y0191378
X0173748Y0187647
X0171260Y0194882
X0180795Y0183908
X0185559Y0179646
X0182921Y0173622
X0176189Y0172205
Y0168358
X0173551Y0173898
X0180756Y0164331
X0180874Y0161085
X0183866Y0160091
X0186346Y0157480
X0188976Y0159449
X0171583Y0157835
X0154850Y0158230
X0151504Y0162992
X0145323Y0159961
X0138276Y0158976
X0134653Y0158622
X0130165Y0160197
X0126425Y0160232
X0122488Y0160354
X0122370Y0163772
X0122252Y0167165
X0122488Y0170236
Y0174221
X0127409Y0174149
X0127488Y0178701
X0130559Y0176535
X0142488Y0175551
X0142449Y0178268
X0146228Y0182835
X0154969Y0182874
X0156189Y0186181
X0153770Y0188047
X0151425Y0190394
X0153543Y0194882
X0147638
X0141732
X0140650Y0192165
X0137252Y0192283
X0134102Y0192165
X0130165Y0191693
X0126969Y0188976
X0135827Y0194882
X0144067Y0191823
X0118110Y0171260
X0115157Y0165354
X0118110Y0159449
T02
X0121780Y0129291
X0112554Y0143386
X0135867Y0119854
X0152461Y0116693
X0169067Y0119872
X0183197Y0129291
X0192340Y0143416
X0195768Y0159933
X0192328Y0176351
X0182803Y0190315
X0169021Y0199928
X0152488Y0203307
X0122173Y0190315
X0112685Y0176440
X0109181Y0159933
T03
X0125087Y0122598
X0128736Y0120236
X0197252Y0148150
X0198315Y0152520
X0136728Y0203413
X0132902Y0201760
X0129051Y0199752
M30
