M48
;Layer_Color=9474304
;FILE_FORMAT=2:5
INCH
;TYPE=PLATED
T1F00S00C0.01181
T2F00S00C0.01968
T3F00S00C0.03937
%
T01
X0472441Y0283465
X0478346
X0484252
X0490157
X0496063
X0499016Y0289370
X0493110
X0487205
X0481299
X0475393
X0469488
X0472441Y0295275
X0478346
X0484252
X0490157
X0496063
X0499016Y0301181
X0466535Y0295275
X0460630
X0454724
X0448819
X0443323Y0297025
X0443352Y0299993
Y0302961
Y0305930
Y0308898
Y0311867
X0436175Y0310416
Y0307448
Y0304479
Y0301511
Y0298542
X0434202Y0296325
X0431233
X0429773Y0289168
X0432741Y0289148
X0435709Y0289200
X0438582Y0289947
X0441001Y0291667
X0442655Y0294132
X0445866Y0289370
X0451771
X0457677
X0463583
X0460630Y0283465
X0466535
X0454724
X0448819
X0442913
X0437008
X0431102
X0413386
X0407480
X0401575
X0416338Y0289370
Y0301181
X0410433
X0404527
X0401575Y0307086
X0407480
X0413386
X0419291
X0425197
X0431102
X0448819
X0451771Y0301181
X0445866
Y0312992
X0443352Y0314836
Y0317804
X0448819Y0318898
X0451289Y0322998
X0451233Y0330114
X0448264Y0330144
X0445296
X0441344Y0329227
X0438912Y0327525
X0437171Y0325121
X0434055Y0324803
X0436284Y0322288
X0436175Y0319322
Y0316353
Y0313385
X0428150Y0312992
X0422244
X0416338
X0410433
X0404527
X0401575Y0318898
X0407480
X0413386
X0419291
X0425197
X0431102
X0428150Y0324803
X0422244
X0416338
X0410433
X0404527
X0401575Y0330709
X0407480
X0413386
X0419291
X0425197
X0431102
X0437008
X0451771Y0312992
X0499016
Y0324803
X0502047Y0335492
T02
X0446575Y0270610
X0449528
X0452480
X0452480Y0339508
X0449528
X0446614Y0339508
T03
X0409331Y0271673
X0421890Y0271634
X0434449Y0271595
M30
