G04*
G04 #@! TF.GenerationSoftware,Altium Limited,Altium Designer,19.0.15 (446)*
G04*
G04 Layer_Color=8421504*
%FSAX25Y25*%
%MOIN*%
G70*
G01*
G75*
%ADD10C,0.03937*%
%ADD12R,0.03937X0.03937*%
%ADD13R,0.08661X0.04134*%
%ADD15R,0.02520X0.02362*%
G04:AMPARAMS|DCode=18|XSize=59.06mil|YSize=59.06mil|CornerRadius=5.91mil|HoleSize=0mil|Usage=FLASHONLY|Rotation=0.000|XOffset=0mil|YOffset=0mil|HoleType=Round|Shape=RoundedRectangle|*
%AMROUNDEDRECTD18*
21,1,0.05906,0.04724,0,0,0.0*
21,1,0.04724,0.05906,0,0,0.0*
1,1,0.01181,0.02362,-0.02362*
1,1,0.01181,-0.02362,-0.02362*
1,1,0.01181,-0.02362,0.02362*
1,1,0.01181,0.02362,0.02362*
%
%ADD18ROUNDEDRECTD18*%
%ADD19R,0.05906X0.05906*%
%ADD20R,0.02362X0.02520*%
%ADD25R,0.01575X0.03543*%
%ADD66R,0.01929X0.03740*%
%ADD67R,0.03780X0.01968*%
%ADD68R,0.03740X0.01929*%
%ADD69R,0.03740X0.01929*%
D10*
X0769685Y0342520D02*
D03*
X1259842Y0513976D02*
D03*
D12*
X1180963Y0357432D02*
D03*
Y0463731D02*
D03*
Y0570030D02*
D03*
D13*
X1186869Y0351624D02*
D03*
Y0363239D02*
D03*
Y0457924D02*
D03*
Y0469538D02*
D03*
Y0564223D02*
D03*
Y0575837D02*
D03*
D15*
X1098829Y0332313D02*
D03*
Y0328534D02*
D03*
Y0438613D02*
D03*
Y0434833D02*
D03*
Y0544912D02*
D03*
Y0541132D02*
D03*
D18*
X1058640Y0337510D02*
D03*
Y0443810D02*
D03*
Y0550109D02*
D03*
D19*
X1068483Y0337510D02*
D03*
X1078325Y0337510D02*
D03*
X1058640Y0327668D02*
D03*
X1068483D02*
D03*
X1078325D02*
D03*
X1058542Y0317825D02*
D03*
X1068483D02*
D03*
X1078325D02*
D03*
X1068483Y0443810D02*
D03*
X1078325Y0443810D02*
D03*
X1058640Y0433967D02*
D03*
X1068483D02*
D03*
X1078325D02*
D03*
X1058542Y0424124D02*
D03*
X1068483D02*
D03*
X1078325D02*
D03*
X1068483Y0550109D02*
D03*
X1078325Y0550109D02*
D03*
X1058640Y0540266D02*
D03*
X1068483D02*
D03*
X1078325D02*
D03*
X1058542Y0530424D02*
D03*
X1068483D02*
D03*
X1078325D02*
D03*
D20*
X1054302Y0299046D02*
D03*
X1058081D02*
D03*
X1054302Y0405345D02*
D03*
X1058081D02*
D03*
X1054302Y0511644D02*
D03*
X1058081D02*
D03*
D25*
X0871782Y0345345D02*
D03*
X0869223D02*
D03*
X0866664D02*
D03*
Y0350463D02*
D03*
X0869223D02*
D03*
X0871782D02*
D03*
Y0451644D02*
D03*
X0869223D02*
D03*
X0866664D02*
D03*
Y0456762D02*
D03*
X0869223D02*
D03*
X0871782D02*
D03*
Y0557943D02*
D03*
X0869223D02*
D03*
X0866664D02*
D03*
Y0563062D02*
D03*
X0869223D02*
D03*
X0871782D02*
D03*
D66*
X1085817Y0347707D02*
D03*
X1082628D02*
D03*
X1079479D02*
D03*
X1076329Y0347707D02*
D03*
X1073180Y0347707D02*
D03*
X1070030D02*
D03*
X1066880Y0347707D02*
D03*
X1063770Y0347707D02*
D03*
X1060620Y0347707D02*
D03*
X1057471Y0347707D02*
D03*
X1054321D02*
D03*
X1051132Y0347668D02*
D03*
X1085975Y0307668D02*
D03*
X1082668Y0307668D02*
D03*
X1079479D02*
D03*
X1076329Y0307668D02*
D03*
X1073180D02*
D03*
X1070030D02*
D03*
X1066880Y0307668D02*
D03*
X1063731Y0307668D02*
D03*
X1060620Y0307668D02*
D03*
X1057471Y0307668D02*
D03*
X1054282D02*
D03*
X1051132D02*
D03*
X1085817Y0454006D02*
D03*
X1082628D02*
D03*
X1079479D02*
D03*
X1076329Y0454006D02*
D03*
X1073180Y0454006D02*
D03*
X1070030D02*
D03*
X1066880Y0454006D02*
D03*
X1063770Y0454006D02*
D03*
X1060620Y0454006D02*
D03*
X1057471Y0454006D02*
D03*
X1054321D02*
D03*
X1051132Y0453967D02*
D03*
X1085975Y0413967D02*
D03*
X1082668Y0413967D02*
D03*
X1079479D02*
D03*
X1076329Y0413967D02*
D03*
X1073180D02*
D03*
X1070030D02*
D03*
X1066880Y0413967D02*
D03*
X1063731Y0413967D02*
D03*
X1060620Y0413967D02*
D03*
X1057471Y0413967D02*
D03*
X1054282D02*
D03*
X1051132D02*
D03*
X1085817Y0560306D02*
D03*
X1082628D02*
D03*
X1079479D02*
D03*
X1076329Y0560306D02*
D03*
X1073180Y0560306D02*
D03*
X1070030D02*
D03*
X1066880Y0560306D02*
D03*
X1063770Y0560306D02*
D03*
X1060620Y0560306D02*
D03*
X1057471Y0560306D02*
D03*
X1054321D02*
D03*
X1051132Y0560266D02*
D03*
X1085975Y0520266D02*
D03*
X1082668Y0520266D02*
D03*
X1079479D02*
D03*
X1076329Y0520266D02*
D03*
X1073180D02*
D03*
X1070030D02*
D03*
X1066880Y0520266D02*
D03*
X1063731Y0520266D02*
D03*
X1060620Y0520266D02*
D03*
X1057471Y0520266D02*
D03*
X1054282D02*
D03*
X1051132D02*
D03*
D67*
X1090246Y0310325D02*
D03*
Y0313475D02*
D03*
Y0316624D02*
D03*
Y0319774D02*
D03*
Y0322924D02*
D03*
Y0326073D02*
D03*
Y0329223D02*
D03*
Y0332372D02*
D03*
Y0335522D02*
D03*
Y0338672D02*
D03*
Y0341821D02*
D03*
Y0344971D02*
D03*
X1046703Y0345010D02*
D03*
X1090246Y0416624D02*
D03*
Y0419774D02*
D03*
Y0422924D02*
D03*
Y0426073D02*
D03*
Y0429223D02*
D03*
Y0432373D02*
D03*
Y0435522D02*
D03*
Y0438672D02*
D03*
Y0441821D02*
D03*
Y0444971D02*
D03*
Y0448121D02*
D03*
Y0451270D02*
D03*
X1046703Y0451309D02*
D03*
X1090246Y0522924D02*
D03*
Y0526073D02*
D03*
Y0529223D02*
D03*
Y0532373D02*
D03*
Y0535522D02*
D03*
Y0538672D02*
D03*
Y0541821D02*
D03*
Y0544971D02*
D03*
Y0548121D02*
D03*
Y0551270D02*
D03*
Y0554420D02*
D03*
Y0557569D02*
D03*
X1046703Y0557609D02*
D03*
D68*
X1046684Y0310345D02*
D03*
Y0313495D02*
D03*
X1046684Y0316644D02*
D03*
X1046684Y0319794D02*
D03*
Y0322943D02*
D03*
X1046684Y0326093D02*
D03*
X1046684Y0329243D02*
D03*
Y0332392D02*
D03*
X1046684Y0338691D02*
D03*
Y0341880D02*
D03*
X1046684Y0416644D02*
D03*
Y0419794D02*
D03*
X1046684Y0422943D02*
D03*
X1046684Y0426093D02*
D03*
Y0429243D02*
D03*
X1046684Y0432392D02*
D03*
X1046684Y0435542D02*
D03*
Y0438691D02*
D03*
X1046684Y0444991D02*
D03*
Y0448180D02*
D03*
X1046684Y0522943D02*
D03*
Y0526093D02*
D03*
X1046684Y0529243D02*
D03*
X1046684Y0532392D02*
D03*
Y0535542D02*
D03*
X1046684Y0538691D02*
D03*
X1046684Y0541841D02*
D03*
Y0544991D02*
D03*
X1046684Y0551290D02*
D03*
Y0554479D02*
D03*
D69*
X1046683Y0335542D02*
D03*
Y0441841D02*
D03*
Y0548140D02*
D03*
M02*
