G04*
G04 #@! TF.GenerationSoftware,Altium Limited,Altium Designer,19.0.15 (446)*
G04*
G04 Layer_Color=32896*
%FSAX25Y25*%
%MOIN*%
G70*
G01*
G75*
%ADD21C,0.01000*%
%ADD23C,0.00787*%
%ADD27C,0.00984*%
%ADD45C,0.01968*%
%ADD63C,0.00394*%
%ADD64C,0.00591*%
D21*
X1056132Y0353747D02*
X1081132D01*
X1056132D02*
Y0366746D01*
X1081132D01*
Y0353747D02*
Y0366746D01*
X1056132Y0460046D02*
X1081132D01*
X1056132D02*
Y0473046D01*
X1081132D01*
Y0460046D02*
Y0473046D01*
X1056132Y0566345D02*
X1081132D01*
X1056132D02*
Y0579345D01*
X1081132D01*
Y0566345D02*
Y0579345D01*
X0968475Y0354400D02*
G03*
X0968475Y0354400I-0000487J0000000D01*
G01*
X0936910Y0327542D02*
G03*
X0936910Y0327542I-0000325J0000000D01*
G01*
X0968475Y0460699D02*
G03*
X0968475Y0460699I-0000487J0000000D01*
G01*
X0936910Y0433841D02*
G03*
X0936910Y0433841I-0000325J0000000D01*
G01*
X0968475Y0566998D02*
G03*
X0968475Y0566998I-0000487J0000000D01*
G01*
X0936910Y0540140D02*
G03*
X0936910Y0540140I-0000325J0000000D01*
G01*
X0836349Y0320896D02*
G03*
X0836349Y0320896I-0000197J0000000D01*
G01*
X0852137Y0302265D02*
G03*
X0852137Y0302265I-0000473J0000000D01*
G01*
X0842324Y0333219D02*
G03*
X0842324Y0333219I-0000424J0000000D01*
G01*
X0836349Y0427195D02*
G03*
X0836349Y0427195I-0000197J0000000D01*
G01*
X0852137Y0408564D02*
G03*
X0852137Y0408564I-0000473J0000000D01*
G01*
X0842324Y0439518D02*
G03*
X0842324Y0439518I-0000424J0000000D01*
G01*
X0836349Y0533495D02*
G03*
X0836349Y0533495I-0000197J0000000D01*
G01*
X0852137Y0514863D02*
G03*
X0852137Y0514863I-0000473J0000000D01*
G01*
X0842324Y0545817D02*
G03*
X0842324Y0545817I-0000424J0000000D01*
G01*
D23*
X1159065Y0292628D02*
Y0335935D01*
X1206310D01*
X1159065Y0292628D02*
X1206310D01*
Y0335935D01*
X1159065Y0398928D02*
Y0442235D01*
X1206310D01*
X1159065Y0398928D02*
X1206310D01*
Y0442235D01*
X1159065Y0505227D02*
Y0548534D01*
X1206310D01*
X1159065Y0505227D02*
X1206310D01*
Y0548534D01*
X1100257Y0330731D02*
Y0336731D01*
X1099257Y0330731D02*
Y0336731D01*
X1087257D02*
X1100257D01*
X1087257Y0330731D02*
Y0336731D01*
Y0330731D02*
X1100257D01*
X1095199Y0309873D02*
Y0313809D01*
X1094018Y0309873D02*
X1095199Y0309873D01*
X1094018Y0323258D02*
X1095199D01*
Y0319321D02*
Y0323258D01*
X1082994Y0309873D02*
X1083782D01*
X1082994D02*
Y0323258D01*
X1083782D01*
X1044024Y0338225D02*
X1055524D01*
Y0343725D01*
X1044024D02*
X1055524D01*
X1044024Y0338225D02*
Y0343725D01*
X1076034Y0320540D02*
Y0317917D01*
X1074722Y0316605D01*
X1073410Y0317917D01*
Y0320540D01*
X1072098Y0319885D02*
X1071442Y0320540D01*
X1070130D01*
X1069474Y0319885D01*
Y0317261D01*
X1070130Y0316605D01*
X1071442D01*
X1072098Y0317261D01*
Y0319885D01*
X1076467Y0326682D02*
X1075155D01*
X1075811D01*
Y0322746D01*
X1076467D01*
X1075155D01*
X1073187D02*
Y0326682D01*
X1071219D01*
X1070563Y0326026D01*
Y0324714D01*
X1071219Y0324058D01*
X1073187D01*
X1071875D02*
X1070563Y0322746D01*
X1069252D02*
Y0326682D01*
X1066628Y0322746D01*
Y0326682D01*
X1065316Y0322746D02*
Y0325370D01*
X1064004Y0326682D01*
X1062692Y0325370D01*
Y0322746D01*
Y0324714D01*
X1065316D01*
X1058756Y0326026D02*
X1059412Y0326682D01*
X1060724D01*
X1061380Y0326026D01*
Y0325370D01*
X1060724Y0324714D01*
X1059412D01*
X1058756Y0324058D01*
Y0323403D01*
X1059412Y0322746D01*
X1060724D01*
X1061380Y0323403D01*
X1100257Y0437030D02*
Y0443030D01*
X1099257Y0437030D02*
Y0443030D01*
X1087257D02*
X1100257D01*
X1087257Y0437030D02*
Y0443030D01*
Y0437030D02*
X1100257D01*
X1095199Y0416172D02*
Y0420109D01*
X1094018Y0416172D02*
X1095199Y0416172D01*
X1094018Y0429558D02*
X1095199D01*
Y0425621D02*
Y0429558D01*
X1082994Y0416172D02*
X1083782D01*
X1082994D02*
Y0429558D01*
X1083782D01*
X1044024Y0444524D02*
X1055524D01*
Y0450024D01*
X1044024D02*
X1055524D01*
X1044024Y0444524D02*
Y0450024D01*
X1076034Y0426840D02*
Y0424216D01*
X1074722Y0422904D01*
X1073410Y0424216D01*
Y0426840D01*
X1072098Y0426184D02*
X1071442Y0426840D01*
X1070130D01*
X1069474Y0426184D01*
Y0423560D01*
X1070130Y0422904D01*
X1071442D01*
X1072098Y0423560D01*
Y0426184D01*
X1076467Y0432981D02*
X1075155D01*
X1075811D01*
Y0429046D01*
X1076467D01*
X1075155D01*
X1073187D02*
Y0432981D01*
X1071219D01*
X1070563Y0432326D01*
Y0431014D01*
X1071219Y0430358D01*
X1073187D01*
X1071875D02*
X1070563Y0429046D01*
X1069252D02*
Y0432981D01*
X1066628Y0429046D01*
Y0432981D01*
X1065316Y0429046D02*
Y0431670D01*
X1064004Y0432981D01*
X1062692Y0431670D01*
Y0429046D01*
Y0431014D01*
X1065316D01*
X1058756Y0432326D02*
X1059412Y0432981D01*
X1060724D01*
X1061380Y0432326D01*
Y0431670D01*
X1060724Y0431014D01*
X1059412D01*
X1058756Y0430358D01*
Y0429702D01*
X1059412Y0429046D01*
X1060724D01*
X1061380Y0429702D01*
X1100257Y0543329D02*
Y0549329D01*
X1099257Y0543329D02*
Y0549329D01*
X1087257D02*
X1100257D01*
X1087257Y0543329D02*
Y0549329D01*
Y0543329D02*
X1100257D01*
X1095199Y0522471D02*
Y0526408D01*
X1094018Y0522471D02*
X1095199Y0522471D01*
X1094018Y0535857D02*
X1095199D01*
Y0531920D02*
Y0535857D01*
X1082994Y0522471D02*
X1083782D01*
X1082994D02*
Y0535857D01*
X1083782D01*
X1044024Y0550823D02*
X1055524D01*
Y0556323D01*
X1044024D02*
X1055524D01*
X1044024Y0550823D02*
Y0556323D01*
X1076034Y0533139D02*
Y0530515D01*
X1074722Y0529203D01*
X1073410Y0530515D01*
Y0533139D01*
X1072098Y0532483D02*
X1071442Y0533139D01*
X1070130D01*
X1069474Y0532483D01*
Y0529859D01*
X1070130Y0529203D01*
X1071442D01*
X1072098Y0529859D01*
Y0532483D01*
X1076467Y0539281D02*
X1075155D01*
X1075811D01*
Y0535345D01*
X1076467D01*
X1075155D01*
X1073187D02*
Y0539281D01*
X1071219D01*
X1070563Y0538625D01*
Y0537313D01*
X1071219Y0536657D01*
X1073187D01*
X1071875D02*
X1070563Y0535345D01*
X1069252D02*
Y0539281D01*
X1066628Y0535345D01*
Y0539281D01*
X1065316Y0535345D02*
Y0537969D01*
X1064004Y0539281D01*
X1062692Y0537969D01*
Y0535345D01*
Y0537313D01*
X1065316D01*
X1058756Y0538625D02*
X1059412Y0539281D01*
X1060724D01*
X1061380Y0538625D01*
Y0537969D01*
X1060724Y0537313D01*
X1059412D01*
X1058756Y0536657D01*
Y0536001D01*
X1059412Y0535345D01*
X1060724D01*
X1061380Y0536001D01*
X0931172Y0316274D02*
X0931861D01*
X0931172Y0323361D02*
X0931861D01*
X0926349Y0316274D02*
X0927038D01*
X0926349Y0323361D02*
X0927038D01*
X0931861Y0316274D02*
Y0323361D01*
X0926349Y0316274D02*
Y0323361D01*
X0957924Y0316723D02*
Y0323810D01*
X0963435Y0316723D02*
Y0323810D01*
X0957924D02*
X0958613D01*
X0957924Y0316723D02*
X0958613D01*
X0962747Y0323810D02*
X0963435D01*
X0962747Y0316723D02*
X0963435D01*
X0965402Y0333894D02*
X0976902D01*
Y0339394D01*
X0965402D02*
X0976902D01*
X0965402Y0333894D02*
Y0339394D01*
X0934144Y0329203D02*
Y0340620D01*
X0925483Y0329203D02*
X0934144D01*
X0925483D02*
Y0340620D01*
X0934144D01*
X0933325Y0319101D02*
X0947325D01*
X0933325D02*
Y0327101D01*
X0947325D01*
Y0319101D02*
Y0327101D01*
X0937319Y0352882D02*
X0948819D01*
Y0358382D01*
X0937319D02*
X0948819D01*
X0937319Y0352882D02*
Y0358382D01*
X0933867Y0347044D02*
X0945367D01*
Y0352544D01*
X0933867D02*
X0945367D01*
X0933867Y0347044D02*
Y0352544D01*
X0931172Y0422573D02*
X0931861D01*
X0931172Y0429660D02*
X0931861D01*
X0926349Y0422573D02*
X0927038D01*
X0926349Y0429660D02*
X0927038D01*
X0931861Y0422573D02*
Y0429660D01*
X0926349Y0422573D02*
Y0429660D01*
X0957924Y0423022D02*
Y0430109D01*
X0963435Y0423022D02*
Y0430109D01*
X0957924D02*
X0958613D01*
X0957924Y0423022D02*
X0958613D01*
X0962747Y0430109D02*
X0963435D01*
X0962747Y0423022D02*
X0963435D01*
X0965402Y0440193D02*
X0976902D01*
Y0445693D01*
X0965402D02*
X0976902D01*
X0965402Y0440193D02*
Y0445693D01*
X0934144Y0435502D02*
Y0446920D01*
X0925483Y0435502D02*
X0934144D01*
X0925483D02*
Y0446920D01*
X0934144D01*
X0933325Y0425400D02*
X0947325D01*
X0933325D02*
Y0433400D01*
X0947325D01*
Y0425400D02*
Y0433400D01*
X0937319Y0459181D02*
X0948819D01*
Y0464681D01*
X0937319D02*
X0948819D01*
X0937319Y0459181D02*
Y0464681D01*
X0933867Y0453343D02*
X0945367D01*
Y0458843D01*
X0933867D02*
X0945367D01*
X0933867Y0453343D02*
Y0458843D01*
X0931172Y0528872D02*
X0931861D01*
X0931172Y0535959D02*
X0931861D01*
X0926349Y0528872D02*
X0927038D01*
X0926349Y0535959D02*
X0927038D01*
X0931861Y0528872D02*
Y0535959D01*
X0926349Y0528872D02*
Y0535959D01*
X0957924Y0529321D02*
Y0536408D01*
X0963435Y0529321D02*
Y0536408D01*
X0957924D02*
X0958613D01*
X0957924Y0529321D02*
X0958613D01*
X0962747Y0536408D02*
X0963435D01*
X0962747Y0529321D02*
X0963435D01*
X0965402Y0546493D02*
X0976902D01*
Y0551993D01*
X0965402D02*
X0976902D01*
X0965402Y0546493D02*
Y0551993D01*
X0934144Y0541802D02*
Y0553219D01*
X0925483Y0541802D02*
X0934144D01*
X0925483D02*
Y0553219D01*
X0934144D01*
X0933325Y0531699D02*
X0947325D01*
X0933325D02*
Y0539699D01*
X0947325D01*
Y0531699D02*
Y0539699D01*
X0937319Y0565481D02*
X0948819D01*
Y0570981D01*
X0937319D02*
X0948819D01*
X0937319Y0565481D02*
Y0570981D01*
X0933867Y0559642D02*
X0945367D01*
Y0565142D01*
X0933867D02*
X0945367D01*
X0933867Y0559642D02*
Y0565142D01*
X0833672Y0358266D02*
X0833672Y0359054D01*
X0820286D02*
X0833672D01*
X0820286Y0358266D02*
Y0359054D01*
X0829735Y0346849D02*
X0833672D01*
Y0348030D01*
X0820286Y0346849D02*
X0820286Y0348030D01*
X0820286Y0346849D02*
X0824223Y0346849D01*
X0864617Y0313132D02*
Y0329132D01*
X0873447D01*
Y0313132D02*
Y0329132D01*
X0864617Y0313132D02*
X0873447D01*
X0833672Y0464566D02*
X0833672Y0465353D01*
X0820286D02*
X0833672D01*
X0820286Y0464565D02*
Y0465353D01*
X0829735Y0453148D02*
X0833672D01*
Y0454329D01*
X0820286Y0453148D02*
X0820286Y0454329D01*
X0820286Y0453148D02*
X0824223Y0453148D01*
X0864617Y0419432D02*
Y0435432D01*
X0873447D01*
Y0419432D02*
Y0435432D01*
X0864617Y0419432D02*
X0873447D01*
X0833672Y0570865D02*
X0833672Y0571652D01*
X0820286D02*
X0833672D01*
X0820286Y0570865D02*
Y0571652D01*
X0829735Y0559447D02*
X0833672D01*
Y0560628D01*
X0820286Y0559447D02*
X0820286Y0560629D01*
X0820286Y0559447D02*
X0824223Y0559447D01*
X0864617Y0525731D02*
Y0541731D01*
X0873447D01*
Y0525731D02*
Y0541731D01*
X0864617Y0525731D02*
X0873447D01*
D27*
X1062510Y0305479D02*
G03*
X1062510Y0305479I-0000492J0000000D01*
G01*
Y0411778D02*
G03*
X1062510Y0411778I-0000492J0000000D01*
G01*
Y0518077D02*
G03*
X1062510Y0518077I-0000492J0000000D01*
G01*
X0958494Y0313573D02*
G03*
X0958494Y0313573I-0000492J0000000D01*
G01*
X0967628Y0314676D02*
G03*
X0967628Y0314676I-0000492J0000000D01*
G01*
X0958494Y0419873D02*
G03*
X0958494Y0419873I-0000492J0000000D01*
G01*
X0967628Y0420975D02*
G03*
X0967628Y0420975I-0000492J0000000D01*
G01*
X0958494Y0526172D02*
G03*
X0958494Y0526172I-0000492J0000000D01*
G01*
X0967628Y0527274D02*
G03*
X0967628Y0527274I-0000492J0000000D01*
G01*
D45*
X1156009Y0333180D02*
G03*
X1156009Y0333180I-0000880J0000000D01*
G01*
Y0439479D02*
G03*
X1156009Y0439479I-0000880J0000000D01*
G01*
Y0545778D02*
G03*
X1156009Y0545778I-0000880J0000000D01*
G01*
D63*
X1152766Y0346132D02*
X1156703D01*
X1152766D02*
Y0353613D01*
X1156703D01*
Y0346132D02*
Y0353613D01*
X1165030Y0336349D02*
Y0340483D01*
X1172707D01*
Y0336349D02*
Y0340483D01*
X1165030Y0336349D02*
X1172707D01*
X1165030Y0348829D02*
Y0352963D01*
X1172707D01*
Y0348829D02*
Y0352963D01*
X1165030Y0348829D02*
X1172707D01*
X1170286Y0348416D02*
X1174223D01*
Y0340935D02*
Y0348416D01*
X1170286Y0340935D02*
X1174223D01*
X1170286D02*
Y0348416D01*
X1145955Y0329243D02*
Y0333180D01*
X1153436D01*
Y0329243D02*
Y0333180D01*
X1145955Y0329243D02*
X1153436D01*
X1152766Y0452432D02*
X1156703D01*
X1152766D02*
Y0459912D01*
X1156703D01*
Y0452432D02*
Y0459912D01*
X1165030Y0442648D02*
Y0446782D01*
X1172707D01*
Y0442648D02*
Y0446782D01*
X1165030Y0442648D02*
X1172707D01*
X1165030Y0455128D02*
Y0459262D01*
X1172707D01*
Y0455128D02*
Y0459262D01*
X1165030Y0455128D02*
X1172707D01*
X1170286Y0454715D02*
X1174223D01*
Y0447235D02*
Y0454715D01*
X1170286Y0447235D02*
X1174223D01*
X1170286D02*
Y0454715D01*
X1145955Y0435542D02*
Y0439479D01*
X1153436D01*
Y0435542D02*
Y0439479D01*
X1145955Y0435542D02*
X1153436D01*
X1152766Y0558731D02*
X1156703D01*
X1152766D02*
Y0566211D01*
X1156703D01*
Y0558731D02*
Y0566211D01*
X1165030Y0548947D02*
Y0553081D01*
X1172707D01*
Y0548947D02*
Y0553081D01*
X1165030Y0548947D02*
X1172707D01*
X1165030Y0561428D02*
Y0565561D01*
X1172707D01*
Y0561428D02*
Y0565561D01*
X1165030Y0561428D02*
X1172707D01*
X1170286Y0561014D02*
X1174223D01*
Y0553534D02*
Y0561014D01*
X1170286Y0553534D02*
X1174223D01*
X1170286D02*
Y0561014D01*
X1145955Y0541841D02*
Y0545778D01*
X1153436D01*
Y0541841D02*
Y0545778D01*
X1145955Y0541841D02*
X1153436D01*
X1076388Y0335975D02*
X1083869D01*
X1076388Y0332038D02*
Y0335975D01*
Y0332038D02*
X1083869D01*
Y0335975D01*
X1049617Y0358849D02*
X1053554D01*
Y0351369D02*
Y0358849D01*
X1049617Y0351369D02*
X1053554D01*
X1049617D02*
Y0358849D01*
X1074617Y0308258D02*
X1082097D01*
X1074617Y0304321D02*
Y0308258D01*
Y0304321D02*
X1082097D01*
Y0308258D01*
X1069577Y0299651D02*
X1073514D01*
X1062018D02*
X1065955D01*
X1066487Y0309400D02*
X1069046D01*
X1062018Y0299651D02*
Y0306939D01*
X1073514Y0299651D02*
Y0306939D01*
X1086172Y0344498D02*
Y0352176D01*
Y0344498D02*
X1090306D01*
Y0352176D01*
X1086172D02*
X1090306D01*
X1085758Y0346487D02*
Y0353967D01*
X1081821D02*
X1085758D01*
X1081821Y0346487D02*
Y0353967D01*
Y0346487D02*
X1085758D01*
X1044872Y0333081D02*
X1052550D01*
X1044872Y0328947D02*
Y0333081D01*
Y0328947D02*
X1052550D01*
Y0333081D01*
X1044872Y0337609D02*
X1052550D01*
X1044872Y0333475D02*
Y0337609D01*
Y0333475D02*
X1052550D01*
Y0337609D01*
X1057333Y0310935D02*
X1061270D01*
Y0303455D02*
Y0310935D01*
X1057333Y0303455D02*
X1061270D01*
X1057333D02*
Y0310935D01*
X1049341Y0303298D02*
Y0307235D01*
X1056821D01*
Y0303298D02*
Y0307235D01*
X1049341Y0303298D02*
X1056821D01*
X1060995Y0299164D02*
Y0303101D01*
X1053514Y0299164D02*
X1060995D01*
X1053514D02*
Y0303101D01*
X1060995D01*
X1082274Y0299774D02*
Y0303908D01*
X1074597Y0299774D02*
X1082274D01*
X1074597D02*
Y0303908D01*
X1082274D01*
X1107727Y0328494D02*
Y0326920D01*
X1106940Y0326132D01*
X1106153Y0326920D01*
Y0328494D01*
X1105365Y0326132D02*
Y0328494D01*
X1104578Y0327707D01*
X1103791Y0328494D01*
Y0326132D01*
X1101430Y0328100D02*
X1101823Y0328494D01*
X1102610D01*
X1103004Y0328100D01*
Y0326526D01*
X1102610Y0326132D01*
X1101823D01*
X1101430Y0326526D01*
X1100642Y0328494D02*
Y0326526D01*
X1100249Y0326132D01*
X1099462D01*
X1099068Y0326526D01*
Y0328494D01*
X1103200Y0308258D02*
X1103593Y0308651D01*
X1104381D01*
X1104774Y0308258D01*
Y0306683D01*
X1104381Y0306290D01*
X1103593D01*
X1103200Y0306683D01*
Y0307471D01*
X1103987D01*
X1102413Y0306290D02*
Y0308651D01*
X1100838Y0306290D01*
Y0308651D01*
X1100051D02*
Y0306290D01*
X1098870D01*
X1098477Y0306683D01*
Y0308258D01*
X1098870Y0308651D01*
X1100051D01*
X1095050Y0301368D02*
Y0299006D01*
X1093869D01*
X1093475Y0299400D01*
Y0299794D01*
X1093869Y0300187D01*
X1095050D01*
X1093869D01*
X1093475Y0300581D01*
Y0300974D01*
X1093869Y0301368D01*
X1095050D01*
X1092688Y0298613D02*
X1091114D01*
X1088752Y0301368D02*
X1090327D01*
Y0299006D01*
X1088752D01*
X1090327Y0300187D02*
X1089540D01*
X1087965Y0299006D02*
Y0301368D01*
X1086391Y0299006D01*
Y0301368D01*
X1079853Y0290738D02*
X1080247Y0291132D01*
X1081034D01*
X1081428Y0290738D01*
Y0289164D01*
X1081034Y0288770D01*
X1080247D01*
X1079853Y0289164D01*
Y0289951D01*
X1080641D01*
X1079066Y0288770D02*
Y0291132D01*
X1077885D01*
X1077492Y0290738D01*
Y0289951D01*
X1077885Y0289557D01*
X1079066D01*
X1075130Y0290738D02*
X1075524Y0291132D01*
X1076311D01*
X1076705Y0290738D01*
Y0290344D01*
X1076311Y0289951D01*
X1075524D01*
X1075130Y0289557D01*
Y0289164D01*
X1075524Y0288770D01*
X1076311D01*
X1076705Y0289164D01*
X1072769Y0291132D02*
X1074343D01*
Y0288770D01*
X1072769D01*
X1074343Y0289951D02*
X1073556D01*
X1071982Y0288770D02*
Y0291132D01*
X1070408Y0288770D01*
Y0291132D01*
X1065798Y0288691D02*
X1064223D01*
X1065011D01*
Y0286329D01*
X1063436Y0288691D02*
X1061862Y0286329D01*
Y0288691D02*
X1063436Y0286329D01*
X1059695Y0289164D02*
Y0291525D01*
X1058515D01*
X1058121Y0291132D01*
Y0290345D01*
X1058515Y0289951D01*
X1059695D01*
X1058908D02*
X1058121Y0289164D01*
X1057334Y0291525D02*
X1055760Y0289164D01*
Y0291525D02*
X1057334Y0289164D01*
X1050640Y0298730D02*
Y0297156D01*
X1049853Y0296369D01*
X1049066Y0297156D01*
Y0298730D01*
X1048279D02*
Y0296369D01*
X1047098D01*
X1046704Y0296762D01*
Y0297156D01*
X1047098Y0297549D01*
X1048279D01*
X1047098D01*
X1046704Y0297943D01*
Y0298336D01*
X1047098Y0298730D01*
X1048279D01*
X1045917D02*
Y0296369D01*
Y0297156D01*
X1044343Y0298730D01*
X1045524Y0297549D01*
X1044343Y0296369D01*
X1043556D02*
Y0298730D01*
X1042375D01*
X1041982Y0298336D01*
Y0297549D01*
X1042375Y0297156D01*
X1043556D01*
X1073120Y0366880D02*
X1072333D01*
X1072727D01*
Y0364518D01*
X1073120D01*
X1072333D01*
X1071153D02*
Y0366880D01*
X1069578Y0364518D01*
Y0366880D01*
X1068791D02*
X1067217D01*
X1068004D01*
Y0364518D01*
X1066430D02*
X1065643D01*
X1066036D01*
Y0366880D01*
X1066430Y0366486D01*
X1102885Y0344872D02*
X1103278Y0345266D01*
X1104066D01*
X1104459Y0344872D01*
Y0344478D01*
X1104066Y0344085D01*
X1103278D01*
X1102885Y0343691D01*
Y0343298D01*
X1103278Y0342904D01*
X1104066D01*
X1104459Y0343298D01*
X1100523Y0344872D02*
X1100917Y0345266D01*
X1101704D01*
X1102098Y0344872D01*
Y0343298D01*
X1101704Y0342904D01*
X1100917D01*
X1100523Y0343298D01*
X1099736Y0345266D02*
Y0342904D01*
X1098162D01*
X1041310Y0345069D02*
Y0343494D01*
X1040522Y0342707D01*
X1039735Y0343494D01*
Y0345069D01*
X1038948D02*
Y0342707D01*
X1037767D01*
X1037374Y0343101D01*
Y0343494D01*
X1037767Y0343888D01*
X1038948D01*
X1037767D01*
X1037374Y0344281D01*
Y0344675D01*
X1037767Y0345069D01*
X1038948D01*
X1036587Y0342707D02*
Y0344281D01*
X1035800Y0345069D01*
X1035012Y0344281D01*
Y0342707D01*
Y0343888D01*
X1036587D01*
X1034225Y0345069D02*
X1032651D01*
X1033438D01*
Y0342707D01*
X1037688Y0312116D02*
X1038081Y0312509D01*
X1038869D01*
X1039262Y0312116D01*
Y0310542D01*
X1038869Y0310148D01*
X1038081D01*
X1037688Y0310542D01*
Y0311329D01*
X1038475D01*
X1036901Y0310148D02*
Y0312509D01*
X1035326Y0310148D01*
Y0312509D01*
X1034539D02*
Y0310148D01*
X1033359D01*
X1032965Y0310542D01*
Y0312116D01*
X1033359Y0312509D01*
X1034539D01*
X1100050Y0353297D02*
X1100444Y0353691D01*
X1101231D01*
X1101624Y0353297D01*
Y0352904D01*
X1101231Y0352510D01*
X1100444D01*
X1100050Y0352116D01*
Y0351723D01*
X1100444Y0351329D01*
X1101231D01*
X1101624Y0351723D01*
X1099263Y0353691D02*
Y0351329D01*
X1098082D01*
X1097689Y0351723D01*
Y0353297D01*
X1098082Y0353691D01*
X1099263D01*
X1096902Y0351329D02*
Y0352904D01*
X1096114Y0353691D01*
X1095327Y0352904D01*
Y0351329D01*
Y0352510D01*
X1096902D01*
X1090640Y0363730D02*
X1089853D01*
X1090247D01*
Y0361369D01*
X1090640D01*
X1089853D01*
X1088672D02*
Y0363730D01*
X1087098Y0361369D01*
Y0363730D01*
X1086311D02*
X1084737D01*
X1085524D01*
Y0361369D01*
X1082375D02*
X1083949D01*
X1082375Y0362943D01*
Y0363336D01*
X1082769Y0363730D01*
X1083556D01*
X1083949Y0363336D01*
X1043869Y0351290D02*
Y0353651D01*
X1042688D01*
X1042294Y0353258D01*
Y0352471D01*
X1042688Y0352077D01*
X1043869D01*
X1043081D02*
X1042294Y0351290D01*
X1039933Y0353651D02*
X1041507D01*
Y0351290D01*
X1039933D01*
X1041507Y0352471D02*
X1040720D01*
X1037571Y0353651D02*
X1039146D01*
Y0351290D01*
X1037571D01*
X1039146Y0352471D02*
X1038358D01*
X1036784Y0353651D02*
Y0351290D01*
X1035604D01*
X1035210Y0351683D01*
Y0353258D01*
X1035604Y0353651D01*
X1036784D01*
X1038002Y0329045D02*
Y0327471D01*
X1037215Y0326683D01*
X1036428Y0327471D01*
Y0329045D01*
X1034067Y0328651D02*
X1034460Y0329045D01*
X1035247D01*
X1035641Y0328651D01*
Y0327077D01*
X1035247Y0326683D01*
X1034460D01*
X1034067Y0327077D01*
Y0327864D01*
X1034854D01*
X1033280Y0326683D02*
Y0329045D01*
X1032099D01*
X1031705Y0328651D01*
Y0327864D01*
X1032099Y0327471D01*
X1033280D01*
X1029344Y0328651D02*
X1029737Y0329045D01*
X1030525D01*
X1030918Y0328651D01*
Y0328258D01*
X1030525Y0327864D01*
X1029737D01*
X1029344Y0327471D01*
Y0327077D01*
X1029737Y0326683D01*
X1030525D01*
X1030918Y0327077D01*
X1076388Y0442274D02*
X1083869D01*
X1076388Y0438337D02*
Y0442274D01*
Y0438337D02*
X1083869D01*
Y0442274D01*
X1049617Y0465148D02*
X1053554D01*
Y0457668D02*
Y0465148D01*
X1049617Y0457668D02*
X1053554D01*
X1049617D02*
Y0465148D01*
X1074617Y0414558D02*
X1082097D01*
X1074617Y0410621D02*
Y0414558D01*
Y0410621D02*
X1082097D01*
Y0414558D01*
X1069577Y0405950D02*
X1073514D01*
X1062018D02*
X1065955D01*
X1066487Y0415699D02*
X1069046D01*
X1062018Y0405950D02*
Y0413239D01*
X1073514Y0405950D02*
Y0413239D01*
X1086172Y0450798D02*
Y0458475D01*
Y0450798D02*
X1090306D01*
Y0458475D01*
X1086172D02*
X1090306D01*
X1085758Y0452786D02*
Y0460266D01*
X1081821D02*
X1085758D01*
X1081821Y0452786D02*
Y0460266D01*
Y0452786D02*
X1085758D01*
X1044872Y0439380D02*
X1052550D01*
X1044872Y0435247D02*
Y0439380D01*
Y0435247D02*
X1052550D01*
Y0439380D01*
X1044872Y0443908D02*
X1052550D01*
X1044872Y0439774D02*
Y0443908D01*
Y0439774D02*
X1052550D01*
Y0443908D01*
X1057333Y0417235D02*
X1061270D01*
Y0409754D02*
Y0417235D01*
X1057333Y0409754D02*
X1061270D01*
X1057333D02*
Y0417235D01*
X1049341Y0409597D02*
Y0413534D01*
X1056821D01*
Y0409597D02*
Y0413534D01*
X1049341Y0409597D02*
X1056821D01*
X1060995Y0405463D02*
Y0409400D01*
X1053514Y0405463D02*
X1060995D01*
X1053514D02*
Y0409400D01*
X1060995D01*
X1082274Y0406073D02*
Y0410207D01*
X1074597Y0406073D02*
X1082274D01*
X1074597D02*
Y0410207D01*
X1082274D01*
X1107727Y0434793D02*
Y0433219D01*
X1106940Y0432432D01*
X1106153Y0433219D01*
Y0434793D01*
X1105365Y0432432D02*
Y0434793D01*
X1104578Y0434006D01*
X1103791Y0434793D01*
Y0432432D01*
X1101430Y0434399D02*
X1101823Y0434793D01*
X1102610D01*
X1103004Y0434399D01*
Y0432825D01*
X1102610Y0432432D01*
X1101823D01*
X1101430Y0432825D01*
X1100642Y0434793D02*
Y0432825D01*
X1100249Y0432432D01*
X1099462D01*
X1099068Y0432825D01*
Y0434793D01*
X1103200Y0414557D02*
X1103593Y0414951D01*
X1104381D01*
X1104774Y0414557D01*
Y0412983D01*
X1104381Y0412589D01*
X1103593D01*
X1103200Y0412983D01*
Y0413770D01*
X1103987D01*
X1102413Y0412589D02*
Y0414951D01*
X1100838Y0412589D01*
Y0414951D01*
X1100051D02*
Y0412589D01*
X1098870D01*
X1098477Y0412983D01*
Y0414557D01*
X1098870Y0414951D01*
X1100051D01*
X1095050Y0407667D02*
Y0405306D01*
X1093869D01*
X1093475Y0405699D01*
Y0406093D01*
X1093869Y0406486D01*
X1095050D01*
X1093869D01*
X1093475Y0406880D01*
Y0407273D01*
X1093869Y0407667D01*
X1095050D01*
X1092688Y0404912D02*
X1091114D01*
X1088752Y0407667D02*
X1090327D01*
Y0405306D01*
X1088752D01*
X1090327Y0406486D02*
X1089540D01*
X1087965Y0405306D02*
Y0407667D01*
X1086391Y0405306D01*
Y0407667D01*
X1079853Y0397037D02*
X1080247Y0397431D01*
X1081034D01*
X1081428Y0397037D01*
Y0395463D01*
X1081034Y0395069D01*
X1080247D01*
X1079853Y0395463D01*
Y0396250D01*
X1080641D01*
X1079066Y0395069D02*
Y0397431D01*
X1077885D01*
X1077492Y0397037D01*
Y0396250D01*
X1077885Y0395856D01*
X1079066D01*
X1075130Y0397037D02*
X1075524Y0397431D01*
X1076311D01*
X1076705Y0397037D01*
Y0396644D01*
X1076311Y0396250D01*
X1075524D01*
X1075130Y0395856D01*
Y0395463D01*
X1075524Y0395069D01*
X1076311D01*
X1076705Y0395463D01*
X1072769Y0397431D02*
X1074343D01*
Y0395069D01*
X1072769D01*
X1074343Y0396250D02*
X1073556D01*
X1071982Y0395069D02*
Y0397431D01*
X1070408Y0395069D01*
Y0397431D01*
X1065798Y0394990D02*
X1064223D01*
X1065011D01*
Y0392628D01*
X1063436Y0394990D02*
X1061862Y0392628D01*
Y0394990D02*
X1063436Y0392628D01*
X1059695Y0395463D02*
Y0397825D01*
X1058515D01*
X1058121Y0397431D01*
Y0396644D01*
X1058515Y0396250D01*
X1059695D01*
X1058908D02*
X1058121Y0395463D01*
X1057334Y0397825D02*
X1055760Y0395463D01*
Y0397825D02*
X1057334Y0395463D01*
X1050640Y0405029D02*
Y0403455D01*
X1049853Y0402668D01*
X1049066Y0403455D01*
Y0405029D01*
X1048279D02*
Y0402668D01*
X1047098D01*
X1046704Y0403061D01*
Y0403455D01*
X1047098Y0403849D01*
X1048279D01*
X1047098D01*
X1046704Y0404242D01*
Y0404636D01*
X1047098Y0405029D01*
X1048279D01*
X1045917D02*
Y0402668D01*
Y0403455D01*
X1044343Y0405029D01*
X1045524Y0403849D01*
X1044343Y0402668D01*
X1043556D02*
Y0405029D01*
X1042375D01*
X1041982Y0404636D01*
Y0403849D01*
X1042375Y0403455D01*
X1043556D01*
X1073120Y0473179D02*
X1072333D01*
X1072727D01*
Y0470817D01*
X1073120D01*
X1072333D01*
X1071153D02*
Y0473179D01*
X1069578Y0470817D01*
Y0473179D01*
X1068791D02*
X1067217D01*
X1068004D01*
Y0470817D01*
X1066430D02*
X1065643D01*
X1066036D01*
Y0473179D01*
X1066430Y0472785D01*
X1102885Y0451171D02*
X1103278Y0451565D01*
X1104066D01*
X1104459Y0451171D01*
Y0450777D01*
X1104066Y0450384D01*
X1103278D01*
X1102885Y0449990D01*
Y0449597D01*
X1103278Y0449203D01*
X1104066D01*
X1104459Y0449597D01*
X1100523Y0451171D02*
X1100917Y0451565D01*
X1101704D01*
X1102098Y0451171D01*
Y0449597D01*
X1101704Y0449203D01*
X1100917D01*
X1100523Y0449597D01*
X1099736Y0451565D02*
Y0449203D01*
X1098162D01*
X1041310Y0451368D02*
Y0449793D01*
X1040522Y0449006D01*
X1039735Y0449793D01*
Y0451368D01*
X1038948D02*
Y0449006D01*
X1037767D01*
X1037374Y0449400D01*
Y0449793D01*
X1037767Y0450187D01*
X1038948D01*
X1037767D01*
X1037374Y0450581D01*
Y0450974D01*
X1037767Y0451368D01*
X1038948D01*
X1036587Y0449006D02*
Y0450581D01*
X1035800Y0451368D01*
X1035012Y0450581D01*
Y0449006D01*
Y0450187D01*
X1036587D01*
X1034225Y0451368D02*
X1032651D01*
X1033438D01*
Y0449006D01*
X1037688Y0418415D02*
X1038081Y0418809D01*
X1038869D01*
X1039262Y0418415D01*
Y0416841D01*
X1038869Y0416447D01*
X1038081D01*
X1037688Y0416841D01*
Y0417628D01*
X1038475D01*
X1036901Y0416447D02*
Y0418809D01*
X1035326Y0416447D01*
Y0418809D01*
X1034539D02*
Y0416447D01*
X1033359D01*
X1032965Y0416841D01*
Y0418415D01*
X1033359Y0418809D01*
X1034539D01*
X1100050Y0459596D02*
X1100444Y0459990D01*
X1101231D01*
X1101624Y0459596D01*
Y0459203D01*
X1101231Y0458809D01*
X1100444D01*
X1100050Y0458416D01*
Y0458022D01*
X1100444Y0457628D01*
X1101231D01*
X1101624Y0458022D01*
X1099263Y0459990D02*
Y0457628D01*
X1098082D01*
X1097689Y0458022D01*
Y0459596D01*
X1098082Y0459990D01*
X1099263D01*
X1096902Y0457628D02*
Y0459203D01*
X1096114Y0459990D01*
X1095327Y0459203D01*
Y0457628D01*
Y0458809D01*
X1096902D01*
X1090640Y0470029D02*
X1089853D01*
X1090247D01*
Y0467668D01*
X1090640D01*
X1089853D01*
X1088672D02*
Y0470029D01*
X1087098Y0467668D01*
Y0470029D01*
X1086311D02*
X1084737D01*
X1085524D01*
Y0467668D01*
X1082375D02*
X1083949D01*
X1082375Y0469242D01*
Y0469636D01*
X1082769Y0470029D01*
X1083556D01*
X1083949Y0469636D01*
X1043869Y0457589D02*
Y0459950D01*
X1042688D01*
X1042294Y0459557D01*
Y0458770D01*
X1042688Y0458376D01*
X1043869D01*
X1043081D02*
X1042294Y0457589D01*
X1039933Y0459950D02*
X1041507D01*
Y0457589D01*
X1039933D01*
X1041507Y0458770D02*
X1040720D01*
X1037571Y0459950D02*
X1039146D01*
Y0457589D01*
X1037571D01*
X1039146Y0458770D02*
X1038358D01*
X1036784Y0459950D02*
Y0457589D01*
X1035604D01*
X1035210Y0457983D01*
Y0459557D01*
X1035604Y0459950D01*
X1036784D01*
X1038002Y0435344D02*
Y0433770D01*
X1037215Y0432983D01*
X1036428Y0433770D01*
Y0435344D01*
X1034067Y0434951D02*
X1034460Y0435344D01*
X1035247D01*
X1035641Y0434951D01*
Y0433376D01*
X1035247Y0432983D01*
X1034460D01*
X1034067Y0433376D01*
Y0434164D01*
X1034854D01*
X1033280Y0432983D02*
Y0435344D01*
X1032099D01*
X1031705Y0434951D01*
Y0434164D01*
X1032099Y0433770D01*
X1033280D01*
X1029344Y0434951D02*
X1029737Y0435344D01*
X1030525D01*
X1030918Y0434951D01*
Y0434557D01*
X1030525Y0434164D01*
X1029737D01*
X1029344Y0433770D01*
Y0433376D01*
X1029737Y0432983D01*
X1030525D01*
X1030918Y0433376D01*
X1076388Y0548573D02*
X1083869D01*
X1076388Y0544636D02*
Y0548573D01*
Y0544636D02*
X1083869D01*
Y0548573D01*
X1049617Y0571447D02*
X1053554D01*
Y0563967D02*
Y0571447D01*
X1049617Y0563967D02*
X1053554D01*
X1049617D02*
Y0571447D01*
X1074617Y0520857D02*
X1082097D01*
X1074617Y0516920D02*
Y0520857D01*
Y0516920D02*
X1082097D01*
Y0520857D01*
X1069577Y0512250D02*
X1073514D01*
X1062018D02*
X1065955D01*
X1066487Y0521999D02*
X1069046D01*
X1062018Y0512250D02*
Y0519538D01*
X1073514Y0512250D02*
Y0519538D01*
X1086172Y0557097D02*
Y0564774D01*
Y0557097D02*
X1090306D01*
Y0564774D01*
X1086172D02*
X1090306D01*
X1085758Y0559085D02*
Y0566565D01*
X1081821D02*
X1085758D01*
X1081821Y0559085D02*
Y0566565D01*
Y0559085D02*
X1085758D01*
X1044872Y0545680D02*
X1052550D01*
X1044872Y0541546D02*
Y0545680D01*
Y0541546D02*
X1052550D01*
Y0545680D01*
X1044872Y0550207D02*
X1052550D01*
X1044872Y0546073D02*
Y0550207D01*
Y0546073D02*
X1052550D01*
Y0550207D01*
X1057333Y0523534D02*
X1061270D01*
Y0516054D02*
Y0523534D01*
X1057333Y0516054D02*
X1061270D01*
X1057333D02*
Y0523534D01*
X1049341Y0515896D02*
Y0519833D01*
X1056821D01*
Y0515896D02*
Y0519833D01*
X1049341Y0515896D02*
X1056821D01*
X1060995Y0511762D02*
Y0515699D01*
X1053514Y0511762D02*
X1060995D01*
X1053514D02*
Y0515699D01*
X1060995D01*
X1082274Y0512372D02*
Y0516506D01*
X1074597Y0512372D02*
X1082274D01*
X1074597D02*
Y0516506D01*
X1082274D01*
X1107727Y0541092D02*
Y0539518D01*
X1106940Y0538731D01*
X1106153Y0539518D01*
Y0541092D01*
X1105365Y0538731D02*
Y0541092D01*
X1104578Y0540305D01*
X1103791Y0541092D01*
Y0538731D01*
X1101430Y0540699D02*
X1101823Y0541092D01*
X1102610D01*
X1103004Y0540699D01*
Y0539124D01*
X1102610Y0538731D01*
X1101823D01*
X1101430Y0539124D01*
X1100642Y0541092D02*
Y0539124D01*
X1100249Y0538731D01*
X1099462D01*
X1099068Y0539124D01*
Y0541092D01*
X1103200Y0520856D02*
X1103593Y0521250D01*
X1104381D01*
X1104774Y0520856D01*
Y0519282D01*
X1104381Y0518888D01*
X1103593D01*
X1103200Y0519282D01*
Y0520069D01*
X1103987D01*
X1102413Y0518888D02*
Y0521250D01*
X1100838Y0518888D01*
Y0521250D01*
X1100051D02*
Y0518888D01*
X1098870D01*
X1098477Y0519282D01*
Y0520856D01*
X1098870Y0521250D01*
X1100051D01*
X1095050Y0513966D02*
Y0511605D01*
X1093869D01*
X1093475Y0511998D01*
Y0512392D01*
X1093869Y0512785D01*
X1095050D01*
X1093869D01*
X1093475Y0513179D01*
Y0513573D01*
X1093869Y0513966D01*
X1095050D01*
X1092688Y0511211D02*
X1091114D01*
X1088752Y0513966D02*
X1090327D01*
Y0511605D01*
X1088752D01*
X1090327Y0512785D02*
X1089540D01*
X1087965Y0511605D02*
Y0513966D01*
X1086391Y0511605D01*
Y0513966D01*
X1079853Y0503336D02*
X1080247Y0503730D01*
X1081034D01*
X1081428Y0503336D01*
Y0501762D01*
X1081034Y0501369D01*
X1080247D01*
X1079853Y0501762D01*
Y0502549D01*
X1080641D01*
X1079066Y0501369D02*
Y0503730D01*
X1077885D01*
X1077492Y0503336D01*
Y0502549D01*
X1077885Y0502156D01*
X1079066D01*
X1075130Y0503336D02*
X1075524Y0503730D01*
X1076311D01*
X1076705Y0503336D01*
Y0502943D01*
X1076311Y0502549D01*
X1075524D01*
X1075130Y0502156D01*
Y0501762D01*
X1075524Y0501369D01*
X1076311D01*
X1076705Y0501762D01*
X1072769Y0503730D02*
X1074343D01*
Y0501369D01*
X1072769D01*
X1074343Y0502549D02*
X1073556D01*
X1071982Y0501369D02*
Y0503730D01*
X1070408Y0501369D01*
Y0503730D01*
X1065798Y0501289D02*
X1064223D01*
X1065011D01*
Y0498928D01*
X1063436Y0501289D02*
X1061862Y0498928D01*
Y0501289D02*
X1063436Y0498928D01*
X1059695Y0501762D02*
Y0504124D01*
X1058515D01*
X1058121Y0503730D01*
Y0502943D01*
X1058515Y0502549D01*
X1059695D01*
X1058908D02*
X1058121Y0501762D01*
X1057334Y0504124D02*
X1055760Y0501762D01*
Y0504124D02*
X1057334Y0501762D01*
X1050640Y0511328D02*
Y0509754D01*
X1049853Y0508967D01*
X1049066Y0509754D01*
Y0511328D01*
X1048279D02*
Y0508967D01*
X1047098D01*
X1046704Y0509361D01*
Y0509754D01*
X1047098Y0510148D01*
X1048279D01*
X1047098D01*
X1046704Y0510541D01*
Y0510935D01*
X1047098Y0511328D01*
X1048279D01*
X1045917D02*
Y0508967D01*
Y0509754D01*
X1044343Y0511328D01*
X1045524Y0510148D01*
X1044343Y0508967D01*
X1043556D02*
Y0511328D01*
X1042375D01*
X1041982Y0510935D01*
Y0510148D01*
X1042375Y0509754D01*
X1043556D01*
X1073120Y0579478D02*
X1072333D01*
X1072727D01*
Y0577117D01*
X1073120D01*
X1072333D01*
X1071153D02*
Y0579478D01*
X1069578Y0577117D01*
Y0579478D01*
X1068791D02*
X1067217D01*
X1068004D01*
Y0577117D01*
X1066430D02*
X1065643D01*
X1066036D01*
Y0579478D01*
X1066430Y0579084D01*
X1102885Y0557470D02*
X1103278Y0557864D01*
X1104066D01*
X1104459Y0557470D01*
Y0557077D01*
X1104066Y0556683D01*
X1103278D01*
X1102885Y0556290D01*
Y0555896D01*
X1103278Y0555503D01*
X1104066D01*
X1104459Y0555896D01*
X1100523Y0557470D02*
X1100917Y0557864D01*
X1101704D01*
X1102098Y0557470D01*
Y0555896D01*
X1101704Y0555503D01*
X1100917D01*
X1100523Y0555896D01*
X1099736Y0557864D02*
Y0555503D01*
X1098162D01*
X1041310Y0557667D02*
Y0556093D01*
X1040522Y0555306D01*
X1039735Y0556093D01*
Y0557667D01*
X1038948D02*
Y0555306D01*
X1037767D01*
X1037374Y0555699D01*
Y0556093D01*
X1037767Y0556486D01*
X1038948D01*
X1037767D01*
X1037374Y0556880D01*
Y0557273D01*
X1037767Y0557667D01*
X1038948D01*
X1036587Y0555306D02*
Y0556880D01*
X1035800Y0557667D01*
X1035012Y0556880D01*
Y0555306D01*
Y0556486D01*
X1036587D01*
X1034225Y0557667D02*
X1032651D01*
X1033438D01*
Y0555306D01*
X1037688Y0524714D02*
X1038081Y0525108D01*
X1038869D01*
X1039262Y0524714D01*
Y0523140D01*
X1038869Y0522747D01*
X1038081D01*
X1037688Y0523140D01*
Y0523927D01*
X1038475D01*
X1036901Y0522747D02*
Y0525108D01*
X1035326Y0522747D01*
Y0525108D01*
X1034539D02*
Y0522747D01*
X1033359D01*
X1032965Y0523140D01*
Y0524714D01*
X1033359Y0525108D01*
X1034539D01*
X1100050Y0565896D02*
X1100444Y0566289D01*
X1101231D01*
X1101624Y0565896D01*
Y0565502D01*
X1101231Y0565108D01*
X1100444D01*
X1100050Y0564715D01*
Y0564321D01*
X1100444Y0563928D01*
X1101231D01*
X1101624Y0564321D01*
X1099263Y0566289D02*
Y0563928D01*
X1098082D01*
X1097689Y0564321D01*
Y0565896D01*
X1098082Y0566289D01*
X1099263D01*
X1096902Y0563928D02*
Y0565502D01*
X1096114Y0566289D01*
X1095327Y0565502D01*
Y0563928D01*
Y0565108D01*
X1096902D01*
X1090640Y0576328D02*
X1089853D01*
X1090247D01*
Y0573967D01*
X1090640D01*
X1089853D01*
X1088672D02*
Y0576328D01*
X1087098Y0573967D01*
Y0576328D01*
X1086311D02*
X1084737D01*
X1085524D01*
Y0573967D01*
X1082375D02*
X1083949D01*
X1082375Y0575541D01*
Y0575935D01*
X1082769Y0576328D01*
X1083556D01*
X1083949Y0575935D01*
X1043869Y0563888D02*
Y0566250D01*
X1042688D01*
X1042294Y0565856D01*
Y0565069D01*
X1042688Y0564675D01*
X1043869D01*
X1043081D02*
X1042294Y0563888D01*
X1039933Y0566250D02*
X1041507D01*
Y0563888D01*
X1039933D01*
X1041507Y0565069D02*
X1040720D01*
X1037571Y0566250D02*
X1039146D01*
Y0563888D01*
X1037571D01*
X1039146Y0565069D02*
X1038358D01*
X1036784Y0566250D02*
Y0563888D01*
X1035604D01*
X1035210Y0564282D01*
Y0565856D01*
X1035604Y0566250D01*
X1036784D01*
X1038002Y0541643D02*
Y0540069D01*
X1037215Y0539282D01*
X1036428Y0540069D01*
Y0541643D01*
X1034067Y0541250D02*
X1034460Y0541643D01*
X1035247D01*
X1035641Y0541250D01*
Y0539676D01*
X1035247Y0539282D01*
X1034460D01*
X1034067Y0539676D01*
Y0540463D01*
X1034854D01*
X1033280Y0539282D02*
Y0541643D01*
X1032099D01*
X1031705Y0541250D01*
Y0540463D01*
X1032099Y0540069D01*
X1033280D01*
X1029344Y0541250D02*
X1029737Y0541643D01*
X1030525D01*
X1030918Y0541250D01*
Y0540856D01*
X1030525Y0540463D01*
X1029737D01*
X1029344Y0540069D01*
Y0539676D01*
X1029737Y0539282D01*
X1030525D01*
X1030918Y0539676D01*
X0927235Y0325723D02*
G03*
X0927235Y0325723I-0000197J0000000D01*
G01*
X0958809Y0326172D02*
G03*
X0958809Y0326172I-0000197J0000000D01*
G01*
X0960325Y0300109D02*
X0967806D01*
X0960325Y0296172D02*
Y0300109D01*
Y0296172D02*
X0967806D01*
Y0300109D01*
X0950837Y0333652D02*
Y0337589D01*
X0958317D01*
Y0333652D02*
Y0337589D01*
X0950837Y0333652D02*
X0958317D01*
X0950837Y0337983D02*
Y0341920D01*
X0958317D01*
Y0337983D02*
Y0341920D01*
X0950837Y0337983D02*
X0958317D01*
X0954971Y0349872D02*
X0958908D01*
Y0342392D02*
Y0349872D01*
X0954971Y0342392D02*
X0958908D01*
X0954971D02*
Y0349872D01*
X0950640Y0349833D02*
X0954577D01*
Y0342353D02*
Y0349833D01*
X0950640Y0342353D02*
X0954577D01*
X0950640D02*
Y0349833D01*
X0946309Y0349833D02*
X0950247D01*
Y0342353D02*
Y0349833D01*
X0946309Y0342353D02*
X0950247D01*
X0946309D02*
Y0349833D01*
X0939124Y0304499D02*
X0943258D01*
X0939124D02*
Y0312176D01*
X0943258D01*
Y0304499D02*
Y0312176D01*
X0934518Y0304459D02*
X0938652D01*
X0934518D02*
Y0312136D01*
X0938652D01*
Y0304459D02*
Y0312136D01*
X0952195Y0295995D02*
Y0300128D01*
X0959873D01*
Y0295995D02*
Y0300128D01*
X0952195Y0295995D02*
X0959873D01*
X0951723D02*
Y0300128D01*
X0944046Y0295995D02*
X0951723D01*
X0944046D02*
Y0300128D01*
X0951723D01*
X0960069Y0308475D02*
X0964203D01*
Y0300798D02*
Y0308475D01*
X0960069Y0300798D02*
X0964203D01*
X0960069D02*
Y0308475D01*
X0973888Y0340050D02*
Y0344183D01*
X0966211Y0340050D02*
X0973888D01*
X0966211D02*
Y0344183D01*
X0973888D01*
X0979538Y0335699D02*
X0983475D01*
X0979538D02*
Y0343180D01*
X0983475D01*
Y0335699D02*
Y0343180D01*
X0976349Y0349400D02*
X0980286D01*
Y0341920D02*
Y0349400D01*
X0976349Y0341920D02*
X0980286D01*
X0976349D02*
Y0349400D01*
X0964514Y0354321D02*
Y0358258D01*
X0971994D01*
Y0354321D02*
Y0358258D01*
X0964514Y0354321D02*
X0971994D01*
X0975247Y0344794D02*
Y0353062D01*
X0966979Y0344794D02*
X0975247D01*
X0966979D02*
Y0353062D01*
X0975247D01*
X0948002Y0328802D02*
Y0329589D01*
X0945995Y0328802D02*
X0948002Y0328802D01*
Y0340219D02*
Y0341007D01*
X0945995D02*
X0948002D01*
X0935719D02*
X0935719Y0340219D01*
X0935719Y0341007D02*
X0937727Y0341006D01*
X0935719Y0328802D02*
Y0329589D01*
Y0328802D02*
X0937727Y0328802D01*
X0948144Y0316183D02*
X0952081D01*
X0948144D02*
Y0323664D01*
X0952081D01*
Y0316183D02*
Y0323664D01*
X0948325Y0324081D02*
Y0328018D01*
X0955806D01*
Y0324081D02*
Y0328018D01*
X0948325Y0324081D02*
X0955806D01*
X0942353Y0314341D02*
Y0318475D01*
X0934676Y0314341D02*
X0942353D01*
X0934676D02*
Y0318475D01*
X0942353D01*
X0942392Y0342294D02*
Y0346428D01*
X0934715Y0342294D02*
X0942392D01*
X0934715D02*
Y0346428D01*
X0942392D01*
X0973435Y0310699D02*
Y0314636D01*
X0980916D01*
Y0310699D02*
Y0314636D01*
X0973435Y0310699D02*
X0980916D01*
X0968731Y0306939D02*
X0972865D01*
X0968731D02*
Y0314617D01*
X0972865D01*
Y0306939D02*
Y0314617D01*
X0982156Y0325601D02*
X0986290D01*
Y0317924D02*
Y0325601D01*
X0982156Y0317924D02*
X0986290D01*
X0982156D02*
Y0325601D01*
X0980916Y0328377D02*
Y0332313D01*
X0973435Y0328377D02*
X0980916D01*
X0973435D02*
Y0332313D01*
X0980916D01*
X0965522Y0328377D02*
Y0332313D01*
X0973002D01*
Y0328377D02*
Y0332313D01*
X0965522Y0328377D02*
X0973002D01*
X0927235Y0432022D02*
G03*
X0927235Y0432022I-0000197J0000000D01*
G01*
X0958809Y0432471D02*
G03*
X0958809Y0432471I-0000197J0000000D01*
G01*
X0960325Y0406408D02*
X0967806D01*
X0960325Y0402471D02*
Y0406408D01*
Y0402471D02*
X0967806D01*
Y0406408D01*
X0950837Y0439951D02*
Y0443888D01*
X0958317D01*
Y0439951D02*
Y0443888D01*
X0950837Y0439951D02*
X0958317D01*
X0950837Y0444282D02*
Y0448219D01*
X0958317D01*
Y0444282D02*
Y0448219D01*
X0950837Y0444282D02*
X0958317D01*
X0954971Y0456172D02*
X0958908D01*
Y0448691D02*
Y0456172D01*
X0954971Y0448691D02*
X0958908D01*
X0954971D02*
Y0456172D01*
X0950640Y0456132D02*
X0954577D01*
Y0448652D02*
Y0456132D01*
X0950640Y0448652D02*
X0954577D01*
X0950640D02*
Y0456132D01*
X0946309Y0456132D02*
X0950247D01*
Y0448652D02*
Y0456132D01*
X0946309Y0448652D02*
X0950247D01*
X0946309D02*
Y0456132D01*
X0939124Y0410798D02*
X0943258D01*
X0939124D02*
Y0418475D01*
X0943258D01*
Y0410798D02*
Y0418475D01*
X0934518Y0410758D02*
X0938652D01*
X0934518D02*
Y0418435D01*
X0938652D01*
Y0410758D02*
Y0418435D01*
X0952195Y0402294D02*
Y0406428D01*
X0959873D01*
Y0402294D02*
Y0406428D01*
X0952195Y0402294D02*
X0959873D01*
X0951723D02*
Y0406428D01*
X0944046Y0402294D02*
X0951723D01*
X0944046D02*
Y0406428D01*
X0951723D01*
X0960069Y0414774D02*
X0964203D01*
Y0407097D02*
Y0414774D01*
X0960069Y0407097D02*
X0964203D01*
X0960069D02*
Y0414774D01*
X0973888Y0446349D02*
Y0450483D01*
X0966211Y0446349D02*
X0973888D01*
X0966211D02*
Y0450483D01*
X0973888D01*
X0979538Y0441998D02*
X0983475D01*
X0979538D02*
Y0449479D01*
X0983475D01*
Y0441998D02*
Y0449479D01*
X0976349Y0455699D02*
X0980286D01*
Y0448219D02*
Y0455699D01*
X0976349Y0448219D02*
X0980286D01*
X0976349D02*
Y0455699D01*
X0964514Y0460621D02*
Y0464558D01*
X0971994D01*
Y0460621D02*
Y0464558D01*
X0964514Y0460621D02*
X0971994D01*
X0975247Y0451093D02*
Y0459361D01*
X0966979Y0451093D02*
X0975247D01*
X0966979D02*
Y0459361D01*
X0975247D01*
X0948002Y0435102D02*
Y0435888D01*
X0945995Y0435101D02*
X0948002Y0435102D01*
Y0446518D02*
Y0447306D01*
X0945995D02*
X0948002D01*
X0935719D02*
X0935719Y0446518D01*
X0935719Y0447306D02*
X0937727Y0447306D01*
X0935719Y0435102D02*
Y0435888D01*
Y0435102D02*
X0937727Y0435101D01*
X0948144Y0422483D02*
X0952081D01*
X0948144D02*
Y0429963D01*
X0952081D01*
Y0422483D02*
Y0429963D01*
X0948325Y0430380D02*
Y0434317D01*
X0955806D01*
Y0430380D02*
Y0434317D01*
X0948325Y0430380D02*
X0955806D01*
X0942353Y0420640D02*
Y0424774D01*
X0934676Y0420640D02*
X0942353D01*
X0934676D02*
Y0424774D01*
X0942353D01*
X0942392Y0448593D02*
Y0452727D01*
X0934715Y0448593D02*
X0942392D01*
X0934715D02*
Y0452727D01*
X0942392D01*
X0973435Y0416998D02*
Y0420935D01*
X0980916D01*
Y0416998D02*
Y0420935D01*
X0973435Y0416998D02*
X0980916D01*
X0968731Y0413239D02*
X0972865D01*
X0968731D02*
Y0420916D01*
X0972865D01*
Y0413239D02*
Y0420916D01*
X0982156Y0431900D02*
X0986290D01*
Y0424223D02*
Y0431900D01*
X0982156Y0424223D02*
X0986290D01*
X0982156D02*
Y0431900D01*
X0980916Y0434676D02*
Y0438613D01*
X0973435Y0434676D02*
X0980916D01*
X0973435D02*
Y0438613D01*
X0980916D01*
X0965522Y0434676D02*
Y0438613D01*
X0973002D01*
Y0434676D02*
Y0438613D01*
X0965522Y0434676D02*
X0973002D01*
X0927235Y0538321D02*
G03*
X0927235Y0538321I-0000197J0000000D01*
G01*
X0958809Y0538770D02*
G03*
X0958809Y0538770I-0000197J0000000D01*
G01*
X0960325Y0512707D02*
X0967806D01*
X0960325Y0508770D02*
Y0512707D01*
Y0508770D02*
X0967806D01*
Y0512707D01*
X0950837Y0546250D02*
Y0550187D01*
X0958317D01*
Y0546250D02*
Y0550187D01*
X0950837Y0546250D02*
X0958317D01*
X0950837Y0550581D02*
Y0554518D01*
X0958317D01*
Y0550581D02*
Y0554518D01*
X0950837Y0550581D02*
X0958317D01*
X0954971Y0562471D02*
X0958908D01*
Y0554991D02*
Y0562471D01*
X0954971Y0554991D02*
X0958908D01*
X0954971D02*
Y0562471D01*
X0950640Y0562432D02*
X0954577D01*
Y0554951D02*
Y0562432D01*
X0950640Y0554951D02*
X0954577D01*
X0950640D02*
Y0562432D01*
X0946309Y0562432D02*
X0950247D01*
Y0554951D02*
Y0562432D01*
X0946309Y0554951D02*
X0950247D01*
X0946309D02*
Y0562432D01*
X0939124Y0517097D02*
X0943258D01*
X0939124D02*
Y0524774D01*
X0943258D01*
Y0517097D02*
Y0524774D01*
X0934518Y0517058D02*
X0938652D01*
X0934518D02*
Y0524735D01*
X0938652D01*
Y0517058D02*
Y0524735D01*
X0952195Y0508593D02*
Y0512727D01*
X0959873D01*
Y0508593D02*
Y0512727D01*
X0952195Y0508593D02*
X0959873D01*
X0951723D02*
Y0512727D01*
X0944046Y0508593D02*
X0951723D01*
X0944046D02*
Y0512727D01*
X0951723D01*
X0960069Y0521073D02*
X0964203D01*
Y0513396D02*
Y0521073D01*
X0960069Y0513396D02*
X0964203D01*
X0960069D02*
Y0521073D01*
X0973888Y0552648D02*
Y0556782D01*
X0966211Y0552648D02*
X0973888D01*
X0966211D02*
Y0556782D01*
X0973888D01*
X0979538Y0548298D02*
X0983475D01*
X0979538D02*
Y0555778D01*
X0983475D01*
Y0548298D02*
Y0555778D01*
X0976349Y0561999D02*
X0980286D01*
Y0554518D02*
Y0561999D01*
X0976349Y0554518D02*
X0980286D01*
X0976349D02*
Y0561999D01*
X0964514Y0566920D02*
Y0570857D01*
X0971994D01*
Y0566920D02*
Y0570857D01*
X0964514Y0566920D02*
X0971994D01*
X0975247Y0557392D02*
Y0565660D01*
X0966979Y0557392D02*
X0975247D01*
X0966979D02*
Y0565660D01*
X0975247D01*
X0948002Y0541401D02*
Y0542188D01*
X0945995Y0541400D02*
X0948002Y0541401D01*
Y0552817D02*
Y0553606D01*
X0945995D02*
X0948002D01*
X0935719D02*
X0935719Y0552817D01*
X0935719Y0553606D02*
X0937727Y0553605D01*
X0935719Y0541401D02*
Y0542188D01*
Y0541401D02*
X0937727Y0541400D01*
X0948144Y0528782D02*
X0952081D01*
X0948144D02*
Y0536262D01*
X0952081D01*
Y0528782D02*
Y0536262D01*
X0948325Y0536680D02*
Y0540617D01*
X0955806D01*
Y0536680D02*
Y0540617D01*
X0948325Y0536680D02*
X0955806D01*
X0942353Y0526939D02*
Y0531073D01*
X0934676Y0526939D02*
X0942353D01*
X0934676D02*
Y0531073D01*
X0942353D01*
X0942392Y0554892D02*
Y0559026D01*
X0934715Y0554892D02*
X0942392D01*
X0934715D02*
Y0559026D01*
X0942392D01*
X0973435Y0523298D02*
Y0527235D01*
X0980916D01*
Y0523298D02*
Y0527235D01*
X0973435Y0523298D02*
X0980916D01*
X0968731Y0519538D02*
X0972865D01*
X0968731D02*
Y0527215D01*
X0972865D01*
Y0519538D02*
Y0527215D01*
X0982156Y0538199D02*
X0986290D01*
Y0530522D02*
Y0538199D01*
X0982156Y0530522D02*
X0986290D01*
X0982156D02*
Y0538199D01*
X0980916Y0540975D02*
Y0544912D01*
X0973435Y0540975D02*
X0980916D01*
X0973435D02*
Y0544912D01*
X0980916D01*
X0965522Y0540975D02*
Y0544912D01*
X0973002D01*
Y0540975D02*
Y0544912D01*
X0965522Y0540975D02*
X0973002D01*
X0819859Y0341054D02*
Y0343416D01*
Y0341054D02*
Y0342235D01*
X0817097Y0341054D02*
X0819859D01*
X0817097Y0343416D02*
X0819859D01*
X0819853D02*
X0821034D01*
X0819859Y0341054D02*
X0821073D01*
X0862471Y0340128D02*
Y0347806D01*
X0858337D02*
X0862471D01*
X0858337Y0340128D02*
Y0347806D01*
Y0340128D02*
X0862471D01*
X0850227Y0355404D02*
X0857904D01*
X0850227Y0351270D02*
Y0355404D01*
Y0351270D02*
X0857904D01*
Y0355404D01*
X0850264Y0333042D02*
Y0337176D01*
X0857941D01*
Y0333042D02*
Y0337176D01*
X0850264Y0333042D02*
X0857941D01*
X0850264Y0342176D02*
Y0346309D01*
X0857941D01*
Y0342176D02*
Y0346309D01*
X0850264Y0342176D02*
X0857941D01*
X0850264Y0337609D02*
Y0341743D01*
X0857941D01*
Y0337609D02*
Y0341743D01*
X0850264Y0337609D02*
X0857941D01*
X0850264Y0346703D02*
Y0350837D01*
X0857941D01*
Y0346703D02*
Y0350837D01*
X0850264Y0346703D02*
X0857941D01*
X0825010Y0336684D02*
X0828947D01*
X0825010D02*
Y0344164D01*
X0828947D01*
Y0336684D02*
Y0344164D01*
X0824912Y0328617D02*
X0829046D01*
X0824912D02*
Y0336294D01*
X0829046D01*
Y0328617D02*
Y0336294D01*
X0829361Y0344302D02*
X0833494D01*
Y0336625D02*
Y0344302D01*
X0829361Y0336625D02*
X0833494D01*
X0829361D02*
Y0344302D01*
X0819365Y0332699D02*
X0823499D01*
X0819365D02*
Y0340376D01*
X0823499D01*
Y0332699D02*
Y0340376D01*
X0825010Y0320651D02*
X0828947D01*
X0825010D02*
Y0328131D01*
X0828947D01*
Y0320651D02*
Y0328131D01*
X0831231Y0321880D02*
Y0325817D01*
X0837136Y0321880D02*
Y0325817D01*
X0831231D02*
X0837136D01*
X0831231Y0321880D02*
X0837136D01*
X0838239Y0332668D02*
X0842176D01*
X0838239D02*
Y0340148D01*
X0842176D01*
Y0332668D02*
Y0340148D01*
X0833869Y0332668D02*
X0837806D01*
X0833869D02*
Y0340148D01*
X0837806D01*
Y0332668D02*
Y0340148D01*
X0841565Y0328081D02*
Y0332215D01*
X0833888Y0328081D02*
X0841565D01*
X0833888D02*
Y0332215D01*
X0841565D01*
X0844302Y0332747D02*
X0848239D01*
X0844302D02*
Y0340227D01*
X0848239D01*
Y0332747D02*
Y0340227D01*
X0852992Y0308770D02*
X0859420D01*
X0853002Y0302077D02*
X0859430D01*
X0850404Y0305384D02*
Y0309321D01*
X0842924Y0305384D02*
X0850404D01*
X0842924D02*
Y0309321D01*
X0850404D01*
X0861034Y0305148D02*
X0864971D01*
X0861034D02*
Y0312628D01*
X0864971D01*
Y0305148D02*
Y0312628D01*
X0850365Y0301054D02*
Y0304991D01*
X0842884Y0301054D02*
X0850365D01*
X0842884D02*
Y0304991D01*
X0850365D01*
X0859853Y0297392D02*
Y0301329D01*
X0852372Y0297392D02*
X0859853D01*
X0852372D02*
Y0301329D01*
X0859853D01*
X0861310Y0328967D02*
Y0332313D01*
X0857963D02*
X0861310D01*
Y0313809D02*
Y0317156D01*
X0857963Y0313809D02*
X0861310D01*
X0842806D02*
X0846152D01*
X0842806D02*
Y0317156D01*
Y0332313D02*
X0846152D01*
X0842806Y0328967D02*
Y0332313D01*
X0849262Y0309243D02*
Y0313180D01*
X0856743D01*
Y0309243D02*
Y0313180D01*
X0849262Y0309243D02*
X0856743D01*
X0819859Y0447353D02*
Y0449715D01*
Y0447353D02*
Y0448534D01*
X0817097Y0447353D02*
X0819859D01*
X0817097Y0449715D02*
X0819859D01*
X0819853D02*
X0821034D01*
X0819859Y0447353D02*
X0821073D01*
X0862471Y0446428D02*
Y0454105D01*
X0858337D02*
X0862471D01*
X0858337Y0446428D02*
Y0454105D01*
Y0446428D02*
X0862471D01*
X0850227Y0461703D02*
X0857904D01*
X0850227Y0457569D02*
Y0461703D01*
Y0457569D02*
X0857904D01*
Y0461703D01*
X0850264Y0439341D02*
Y0443475D01*
X0857941D01*
Y0439341D02*
Y0443475D01*
X0850264Y0439341D02*
X0857941D01*
X0850264Y0448475D02*
Y0452609D01*
X0857941D01*
Y0448475D02*
Y0452609D01*
X0850264Y0448475D02*
X0857941D01*
X0850264Y0443908D02*
Y0448042D01*
X0857941D01*
Y0443908D02*
Y0448042D01*
X0850264Y0443908D02*
X0857941D01*
X0850264Y0453002D02*
Y0457136D01*
X0857941D01*
Y0453002D02*
Y0457136D01*
X0850264Y0453002D02*
X0857941D01*
X0825010Y0442983D02*
X0828947D01*
X0825010D02*
Y0450463D01*
X0828947D01*
Y0442983D02*
Y0450463D01*
X0824912Y0434916D02*
X0829046D01*
X0824912D02*
Y0442593D01*
X0829046D01*
Y0434916D02*
Y0442593D01*
X0829361Y0450601D02*
X0833494D01*
Y0442924D02*
Y0450601D01*
X0829361Y0442924D02*
X0833494D01*
X0829361D02*
Y0450601D01*
X0819365Y0438999D02*
X0823499D01*
X0819365D02*
Y0446676D01*
X0823499D01*
Y0438999D02*
Y0446676D01*
X0825010Y0426950D02*
X0828947D01*
X0825010D02*
Y0434430D01*
X0828947D01*
Y0426950D02*
Y0434430D01*
X0831231Y0428180D02*
Y0432117D01*
X0837136Y0428180D02*
Y0432117D01*
X0831231D02*
X0837136D01*
X0831231Y0428180D02*
X0837136D01*
X0838239Y0438967D02*
X0842176D01*
X0838239D02*
Y0446447D01*
X0842176D01*
Y0438967D02*
Y0446447D01*
X0833869Y0438967D02*
X0837806D01*
X0833869D02*
Y0446447D01*
X0837806D01*
Y0438967D02*
Y0446447D01*
X0841565Y0434380D02*
Y0438514D01*
X0833888Y0434380D02*
X0841565D01*
X0833888D02*
Y0438514D01*
X0841565D01*
X0844302Y0439046D02*
X0848239D01*
X0844302D02*
Y0446526D01*
X0848239D01*
Y0439046D02*
Y0446526D01*
X0852992Y0415069D02*
X0859420D01*
X0853002Y0408377D02*
X0859430D01*
X0850404Y0411684D02*
Y0415621D01*
X0842924Y0411684D02*
X0850404D01*
X0842924D02*
Y0415621D01*
X0850404D01*
X0861034Y0411447D02*
X0864971D01*
X0861034D02*
Y0418928D01*
X0864971D01*
Y0411447D02*
Y0418928D01*
X0850365Y0407353D02*
Y0411290D01*
X0842884Y0407353D02*
X0850365D01*
X0842884D02*
Y0411290D01*
X0850365D01*
X0859853Y0403691D02*
Y0407628D01*
X0852372Y0403691D02*
X0859853D01*
X0852372D02*
Y0407628D01*
X0859853D01*
X0861310Y0435266D02*
Y0438613D01*
X0857963D02*
X0861310D01*
Y0420109D02*
Y0423455D01*
X0857963Y0420109D02*
X0861310D01*
X0842806D02*
X0846152D01*
X0842806D02*
Y0423455D01*
Y0438613D02*
X0846152D01*
X0842806Y0435266D02*
Y0438613D01*
X0849262Y0415542D02*
Y0419479D01*
X0856743D01*
Y0415542D02*
Y0419479D01*
X0849262Y0415542D02*
X0856743D01*
X0819859Y0553652D02*
Y0556014D01*
Y0553652D02*
Y0554833D01*
X0817097Y0553652D02*
X0819859D01*
X0817097Y0556014D02*
X0819859D01*
X0819853D02*
X0821034D01*
X0819859Y0553652D02*
X0821073D01*
X0862471Y0552727D02*
Y0560404D01*
X0858337D02*
X0862471D01*
X0858337Y0552727D02*
Y0560404D01*
Y0552727D02*
X0862471D01*
X0850227Y0568003D02*
X0857904D01*
X0850227Y0563869D02*
Y0568003D01*
Y0563869D02*
X0857904D01*
Y0568003D01*
X0850264Y0545640D02*
Y0549774D01*
X0857941D01*
Y0545640D02*
Y0549774D01*
X0850264Y0545640D02*
X0857941D01*
X0850264Y0554774D02*
Y0558908D01*
X0857941D01*
Y0554774D02*
Y0558908D01*
X0850264Y0554774D02*
X0857941D01*
X0850264Y0550207D02*
Y0554341D01*
X0857941D01*
Y0550207D02*
Y0554341D01*
X0850264Y0550207D02*
X0857941D01*
X0850264Y0559302D02*
Y0563436D01*
X0857941D01*
Y0559302D02*
Y0563436D01*
X0850264Y0559302D02*
X0857941D01*
X0825010Y0549282D02*
X0828947D01*
X0825010D02*
Y0556762D01*
X0828947D01*
Y0549282D02*
Y0556762D01*
X0824912Y0541215D02*
X0829046D01*
X0824912D02*
Y0548892D01*
X0829046D01*
Y0541215D02*
Y0548892D01*
X0829361Y0556900D02*
X0833494D01*
Y0549223D02*
Y0556900D01*
X0829361Y0549223D02*
X0833494D01*
X0829361D02*
Y0556900D01*
X0819365Y0545298D02*
X0823499D01*
X0819365D02*
Y0552975D01*
X0823499D01*
Y0545298D02*
Y0552975D01*
X0825010Y0533249D02*
X0828947D01*
X0825010D02*
Y0540729D01*
X0828947D01*
Y0533249D02*
Y0540729D01*
X0831231Y0534479D02*
Y0538416D01*
X0837136Y0534479D02*
Y0538416D01*
X0831231D02*
X0837136D01*
X0831231Y0534479D02*
X0837136D01*
X0838239Y0545266D02*
X0842176D01*
X0838239D02*
Y0552746D01*
X0842176D01*
Y0545266D02*
Y0552746D01*
X0833869Y0545266D02*
X0837806D01*
X0833869D02*
Y0552746D01*
X0837806D01*
Y0545266D02*
Y0552746D01*
X0841565Y0540680D02*
Y0544813D01*
X0833888Y0540680D02*
X0841565D01*
X0833888D02*
Y0544813D01*
X0841565D01*
X0844302Y0545345D02*
X0848239D01*
X0844302D02*
Y0552825D01*
X0848239D01*
Y0545345D02*
Y0552825D01*
X0852992Y0521369D02*
X0859420D01*
X0853002Y0514676D02*
X0859430D01*
X0850404Y0517983D02*
Y0521920D01*
X0842924Y0517983D02*
X0850404D01*
X0842924D02*
Y0521920D01*
X0850404D01*
X0861034Y0517746D02*
X0864971D01*
X0861034D02*
Y0525227D01*
X0864971D01*
Y0517746D02*
Y0525227D01*
X0850365Y0513652D02*
Y0517589D01*
X0842884Y0513652D02*
X0850365D01*
X0842884D02*
Y0517589D01*
X0850365D01*
X0859853Y0509991D02*
Y0513928D01*
X0852372Y0509991D02*
X0859853D01*
X0852372D02*
Y0513928D01*
X0859853D01*
X0861310Y0541565D02*
Y0544912D01*
X0857963D02*
X0861310D01*
Y0526408D02*
Y0529754D01*
X0857963Y0526408D02*
X0861310D01*
X0842806D02*
X0846152D01*
X0842806D02*
Y0529754D01*
Y0544912D02*
X0846152D01*
X0842806Y0541565D02*
Y0544912D01*
X0849262Y0521841D02*
Y0525778D01*
X0856743D01*
Y0521841D02*
Y0525778D01*
X0849262Y0521841D02*
X0856743D01*
D64*
X1157451Y0348022D02*
X1160600D01*
Y0349596D01*
X1160075Y0350121D01*
X1159025D01*
X1158501Y0349596D01*
Y0348022D01*
Y0349072D02*
X1157451Y0350121D01*
Y0351171D02*
Y0352220D01*
Y0351695D01*
X1160600D01*
X1160075Y0351171D01*
X1162242Y0339583D02*
X1162767Y0340108D01*
X1163816D01*
X1164341Y0339583D01*
Y0337484D01*
X1163816Y0336959D01*
X1162767D01*
X1162242Y0337484D01*
X1159093Y0336959D02*
X1161192D01*
X1159093Y0339058D01*
Y0339583D01*
X1159618Y0340108D01*
X1160668D01*
X1161192Y0339583D01*
X1147294Y0325267D02*
Y0328416D01*
X1149393D01*
X1150442Y0325792D02*
X1150967Y0325267D01*
X1152017D01*
X1152541Y0325792D01*
Y0326317D01*
X1152017Y0326841D01*
X1151492D01*
X1152017D01*
X1152541Y0327366D01*
Y0327891D01*
X1152017Y0328416D01*
X1150967D01*
X1150442Y0327891D01*
X1166192Y0347195D02*
X1169341D01*
Y0345096D01*
Y0341948D02*
Y0344047D01*
X1167242Y0341948D01*
X1166717D01*
X1166192Y0342473D01*
Y0343522D01*
X1166717Y0344047D01*
X1172634Y0356263D02*
X1173159Y0355738D01*
Y0354689D01*
X1172634Y0354164D01*
X1170535D01*
X1170010Y0354689D01*
Y0355738D01*
X1170535Y0356263D01*
X1170010Y0357312D02*
Y0358362D01*
Y0357837D01*
X1173159D01*
X1172634Y0357312D01*
X1157569Y0328495D02*
X1155470D01*
X1154421Y0327445D01*
X1155470Y0326396D01*
X1157569D01*
X1155995D01*
Y0328495D01*
X1157569Y0325346D02*
Y0324296D01*
Y0324821D01*
X1154421D01*
X1154945Y0325346D01*
X1157451Y0454321D02*
X1160600D01*
Y0455896D01*
X1160075Y0456420D01*
X1159025D01*
X1158501Y0455896D01*
Y0454321D01*
Y0455371D02*
X1157451Y0456420D01*
Y0457470D02*
Y0458520D01*
Y0457995D01*
X1160600D01*
X1160075Y0457470D01*
X1162242Y0445882D02*
X1162767Y0446407D01*
X1163816D01*
X1164341Y0445882D01*
Y0443783D01*
X1163816Y0443258D01*
X1162767D01*
X1162242Y0443783D01*
X1159093Y0443258D02*
X1161192D01*
X1159093Y0445357D01*
Y0445882D01*
X1159618Y0446407D01*
X1160668D01*
X1161192Y0445882D01*
X1147294Y0431566D02*
Y0434715D01*
X1149393D01*
X1150442Y0432091D02*
X1150967Y0431566D01*
X1152017D01*
X1152541Y0432091D01*
Y0432616D01*
X1152017Y0433141D01*
X1151492D01*
X1152017D01*
X1152541Y0433666D01*
Y0434190D01*
X1152017Y0434715D01*
X1150967D01*
X1150442Y0434190D01*
X1166192Y0453495D02*
X1169341D01*
Y0451396D01*
Y0448247D02*
Y0450346D01*
X1167242Y0448247D01*
X1166717D01*
X1166192Y0448772D01*
Y0449821D01*
X1166717Y0450346D01*
X1172634Y0462562D02*
X1173159Y0462037D01*
Y0460988D01*
X1172634Y0460463D01*
X1170535D01*
X1170010Y0460988D01*
Y0462037D01*
X1170535Y0462562D01*
X1170010Y0463612D02*
Y0464661D01*
Y0464136D01*
X1173159D01*
X1172634Y0463612D01*
X1157569Y0434794D02*
X1155470D01*
X1154421Y0433744D01*
X1155470Y0432695D01*
X1157569D01*
X1155995D01*
Y0434794D01*
X1157569Y0431645D02*
Y0430596D01*
Y0431120D01*
X1154421D01*
X1154945Y0431645D01*
X1157451Y0560621D02*
X1160600D01*
Y0562195D01*
X1160075Y0562720D01*
X1159025D01*
X1158501Y0562195D01*
Y0560621D01*
Y0561670D02*
X1157451Y0562720D01*
Y0563769D02*
Y0564819D01*
Y0564294D01*
X1160600D01*
X1160075Y0563769D01*
X1162242Y0552181D02*
X1162767Y0552706D01*
X1163816D01*
X1164341Y0552181D01*
Y0550082D01*
X1163816Y0549558D01*
X1162767D01*
X1162242Y0550082D01*
X1159093Y0549558D02*
X1161192D01*
X1159093Y0551657D01*
Y0552181D01*
X1159618Y0552706D01*
X1160668D01*
X1161192Y0552181D01*
X1147294Y0537866D02*
Y0541014D01*
X1149393D01*
X1150442Y0538390D02*
X1150967Y0537866D01*
X1152017D01*
X1152541Y0538390D01*
Y0538915D01*
X1152017Y0539440D01*
X1151492D01*
X1152017D01*
X1152541Y0539965D01*
Y0540489D01*
X1152017Y0541014D01*
X1150967D01*
X1150442Y0540489D01*
X1166192Y0559794D02*
X1169341D01*
Y0557695D01*
Y0554546D02*
Y0556645D01*
X1167242Y0554546D01*
X1166717D01*
X1166192Y0555071D01*
Y0556120D01*
X1166717Y0556645D01*
X1172634Y0568861D02*
X1173159Y0568337D01*
Y0567287D01*
X1172634Y0566762D01*
X1170535D01*
X1170010Y0567287D01*
Y0568337D01*
X1170535Y0568861D01*
X1170010Y0569911D02*
Y0570960D01*
Y0570436D01*
X1173159D01*
X1172634Y0569911D01*
X1157569Y0541093D02*
X1155470D01*
X1154421Y0540043D01*
X1155470Y0538994D01*
X1157569D01*
X1155995D01*
Y0541093D01*
X1157569Y0537944D02*
Y0536895D01*
Y0537420D01*
X1154421D01*
X1154945Y0537944D01*
X1082215Y0327589D02*
Y0330738D01*
X1080641D01*
X1080116Y0330213D01*
Y0329163D01*
X1080641Y0328639D01*
X1082215D01*
X1081166D02*
X1080116Y0327589D01*
X1079066Y0330213D02*
X1078542Y0330738D01*
X1077492D01*
X1076967Y0330213D01*
Y0329688D01*
X1077492Y0329163D01*
X1078017D01*
X1077492D01*
X1076967Y0328639D01*
Y0328114D01*
X1077492Y0327589D01*
X1078542D01*
X1079066Y0328114D01*
X1095798Y0329753D02*
Y0326605D01*
X1094223D01*
X1093699Y0327130D01*
Y0329229D01*
X1094223Y0329753D01*
X1095798D01*
X1092649Y0326605D02*
X1091600D01*
X1092124D01*
Y0329753D01*
X1092649Y0329229D01*
X1081191Y0309400D02*
Y0312549D01*
X1079617D01*
X1079092Y0312024D01*
Y0310974D01*
X1079617Y0310450D01*
X1081191D01*
X1080142D02*
X1079092Y0309400D01*
X1075944Y0312549D02*
X1078043D01*
Y0310974D01*
X1076993Y0311499D01*
X1076468D01*
X1075944Y0310974D01*
Y0309925D01*
X1076468Y0309400D01*
X1077518D01*
X1078043Y0309925D01*
X1064813Y0298060D02*
X1062714D01*
X1063764D01*
Y0294912D01*
X1061665D02*
X1060615D01*
X1061140D01*
Y0298060D01*
X1061665Y0297536D01*
X1055207Y0308140D02*
Y0311289D01*
X1053633D01*
X1053108Y0310764D01*
Y0309715D01*
X1053633Y0309190D01*
X1055207D01*
X1054158D02*
X1053108Y0308140D01*
X1052059Y0311289D02*
X1049959D01*
Y0310764D01*
X1052059Y0308665D01*
Y0308140D01*
X1057727Y0311644D02*
X1060875D01*
Y0313218D01*
X1060351Y0313743D01*
X1059301D01*
X1058776Y0313218D01*
Y0311644D01*
Y0312694D02*
X1057727Y0313743D01*
X1060875Y0316892D02*
X1060351Y0315842D01*
X1059301Y0314793D01*
X1058252D01*
X1057727Y0315318D01*
Y0316367D01*
X1058252Y0316892D01*
X1058776D01*
X1059301Y0316367D01*
Y0314793D01*
X1052648Y0299400D02*
Y0302549D01*
X1051074D01*
X1050549Y0302024D01*
Y0300974D01*
X1051074Y0300450D01*
X1052648D01*
X1051599D02*
X1050549Y0299400D01*
X1047925D02*
Y0302549D01*
X1049500Y0300974D01*
X1047400D01*
X1081453Y0316027D02*
X1081978Y0315502D01*
Y0314452D01*
X1081453Y0313928D01*
X1079354D01*
X1078829Y0314452D01*
Y0315502D01*
X1079354Y0316027D01*
X1081978Y0318651D02*
Y0317601D01*
X1081453Y0317076D01*
X1079354D01*
X1078829Y0317601D01*
Y0318651D01*
X1079354Y0319175D01*
X1081453D01*
X1081978Y0318651D01*
X1078829Y0320225D02*
X1081978D01*
X1078829Y0322324D01*
X1081978D01*
X1078829Y0325472D02*
Y0323373D01*
X1080928Y0325472D01*
X1081453D01*
X1081978Y0324948D01*
Y0323898D01*
X1081453Y0323373D01*
X1072951Y0351591D02*
X1073475Y0352116D01*
X1074525D01*
X1075050Y0351591D01*
Y0349492D01*
X1074525Y0348967D01*
X1073475D01*
X1072951Y0349492D01*
X1070327Y0352116D02*
X1071376D01*
X1071901Y0351591D01*
Y0349492D01*
X1071376Y0348967D01*
X1070327D01*
X1069802Y0349492D01*
Y0351591D01*
X1070327Y0352116D01*
X1068752Y0348967D02*
Y0352116D01*
X1066653Y0348967D01*
Y0352116D01*
X1065604Y0351591D02*
X1065079Y0352116D01*
X1064030D01*
X1063505Y0351591D01*
Y0351066D01*
X1064030Y0350541D01*
X1064554D01*
X1064030D01*
X1063505Y0350016D01*
Y0349492D01*
X1064030Y0348967D01*
X1065079D01*
X1065604Y0349492D01*
X1079171Y0298047D02*
X1079696Y0298572D01*
X1080745D01*
X1081270Y0298047D01*
Y0295949D01*
X1080745Y0295424D01*
X1079696D01*
X1079171Y0295949D01*
X1078121Y0295424D02*
X1077072D01*
X1077597D01*
Y0298572D01*
X1078121Y0298047D01*
X1075498Y0295424D02*
X1074448D01*
X1074973D01*
Y0298572D01*
X1075498Y0298047D01*
X1056179Y0331866D02*
X1056704Y0332391D01*
X1057753D01*
X1058278Y0331866D01*
Y0329767D01*
X1057753Y0329243D01*
X1056704D01*
X1056179Y0329767D01*
X1053030Y0332391D02*
X1054080Y0331866D01*
X1055129Y0330817D01*
Y0329767D01*
X1054605Y0329243D01*
X1053555D01*
X1053030Y0329767D01*
Y0330292D01*
X1053555Y0330817D01*
X1055129D01*
X1056336Y0336512D02*
X1056861Y0337037D01*
X1057911D01*
X1058436Y0336512D01*
Y0334413D01*
X1057911Y0333888D01*
X1056861D01*
X1056336Y0334413D01*
X1053188Y0337037D02*
X1055287D01*
Y0335463D01*
X1054237Y0335987D01*
X1053713D01*
X1053188Y0335463D01*
Y0334413D01*
X1053713Y0333888D01*
X1054762D01*
X1055287Y0334413D01*
X1085246Y0345699D02*
X1082098D01*
Y0344125D01*
X1082623Y0343600D01*
X1083672D01*
X1084197Y0344125D01*
Y0345699D01*
Y0344650D02*
X1085246Y0343600D01*
Y0340452D02*
Y0342551D01*
X1083148Y0340452D01*
X1082623D01*
X1082098Y0340976D01*
Y0342026D01*
X1082623Y0342551D01*
X1087229Y0341632D02*
X1086704Y0342157D01*
Y0343206D01*
X1087229Y0343731D01*
X1089328D01*
X1089853Y0343206D01*
Y0342157D01*
X1089328Y0341632D01*
X1089853Y0339008D02*
X1086704D01*
X1088278Y0340582D01*
Y0338483D01*
X1045601Y0353062D02*
X1048749D01*
Y0354636D01*
X1048225Y0355161D01*
X1047175D01*
X1046650Y0354636D01*
Y0353062D01*
Y0354111D02*
X1045601Y0355161D01*
Y0356210D02*
Y0357260D01*
Y0356735D01*
X1048749D01*
X1048225Y0356210D01*
X1053029Y0347260D02*
X1053554Y0347785D01*
X1054604D01*
X1055128Y0347260D01*
Y0345161D01*
X1054604Y0344636D01*
X1053554D01*
X1053029Y0345161D01*
X1051980Y0347785D02*
X1049881D01*
Y0347260D01*
X1051980Y0345161D01*
Y0344636D01*
X1082215Y0433888D02*
Y0437037D01*
X1080641D01*
X1080116Y0436512D01*
Y0435463D01*
X1080641Y0434938D01*
X1082215D01*
X1081166D02*
X1080116Y0433888D01*
X1079066Y0436512D02*
X1078542Y0437037D01*
X1077492D01*
X1076967Y0436512D01*
Y0435987D01*
X1077492Y0435463D01*
X1078017D01*
X1077492D01*
X1076967Y0434938D01*
Y0434413D01*
X1077492Y0433888D01*
X1078542D01*
X1079066Y0434413D01*
X1095798Y0436053D02*
Y0432904D01*
X1094223D01*
X1093699Y0433429D01*
Y0435528D01*
X1094223Y0436053D01*
X1095798D01*
X1092649Y0432904D02*
X1091600D01*
X1092124D01*
Y0436053D01*
X1092649Y0435528D01*
X1081191Y0415699D02*
Y0418848D01*
X1079617D01*
X1079092Y0418323D01*
Y0417274D01*
X1079617Y0416749D01*
X1081191D01*
X1080142D02*
X1079092Y0415699D01*
X1075944Y0418848D02*
X1078043D01*
Y0417274D01*
X1076993Y0417798D01*
X1076468D01*
X1075944Y0417274D01*
Y0416224D01*
X1076468Y0415699D01*
X1077518D01*
X1078043Y0416224D01*
X1064813Y0404360D02*
X1062714D01*
X1063764D01*
Y0401211D01*
X1061665D02*
X1060615D01*
X1061140D01*
Y0404360D01*
X1061665Y0403835D01*
X1055207Y0414439D02*
Y0417588D01*
X1053633D01*
X1053108Y0417063D01*
Y0416014D01*
X1053633Y0415489D01*
X1055207D01*
X1054158D02*
X1053108Y0414439D01*
X1052059Y0417588D02*
X1049959D01*
Y0417063D01*
X1052059Y0414964D01*
Y0414439D01*
X1057727Y0417943D02*
X1060875D01*
Y0419518D01*
X1060351Y0420043D01*
X1059301D01*
X1058776Y0419518D01*
Y0417943D01*
Y0418993D02*
X1057727Y0420043D01*
X1060875Y0423191D02*
X1060351Y0422142D01*
X1059301Y0421092D01*
X1058252D01*
X1057727Y0421617D01*
Y0422666D01*
X1058252Y0423191D01*
X1058776D01*
X1059301Y0422666D01*
Y0421092D01*
X1052648Y0405699D02*
Y0408848D01*
X1051074D01*
X1050549Y0408323D01*
Y0407274D01*
X1051074Y0406749D01*
X1052648D01*
X1051599D02*
X1050549Y0405699D01*
X1047925D02*
Y0408848D01*
X1049500Y0407274D01*
X1047400D01*
X1081453Y0422326D02*
X1081978Y0421801D01*
Y0420752D01*
X1081453Y0420227D01*
X1079354D01*
X1078829Y0420752D01*
Y0421801D01*
X1079354Y0422326D01*
X1081978Y0424950D02*
Y0423900D01*
X1081453Y0423375D01*
X1079354D01*
X1078829Y0423900D01*
Y0424950D01*
X1079354Y0425475D01*
X1081453D01*
X1081978Y0424950D01*
X1078829Y0426524D02*
X1081978D01*
X1078829Y0428623D01*
X1081978D01*
X1078829Y0431772D02*
Y0429673D01*
X1080928Y0431772D01*
X1081453D01*
X1081978Y0431247D01*
Y0430197D01*
X1081453Y0429673D01*
X1072951Y0457890D02*
X1073475Y0458415D01*
X1074525D01*
X1075050Y0457890D01*
Y0455791D01*
X1074525Y0455266D01*
X1073475D01*
X1072951Y0455791D01*
X1070327Y0458415D02*
X1071376D01*
X1071901Y0457890D01*
Y0455791D01*
X1071376Y0455266D01*
X1070327D01*
X1069802Y0455791D01*
Y0457890D01*
X1070327Y0458415D01*
X1068752Y0455266D02*
Y0458415D01*
X1066653Y0455266D01*
Y0458415D01*
X1065604Y0457890D02*
X1065079Y0458415D01*
X1064030D01*
X1063505Y0457890D01*
Y0457365D01*
X1064030Y0456841D01*
X1064554D01*
X1064030D01*
X1063505Y0456316D01*
Y0455791D01*
X1064030Y0455266D01*
X1065079D01*
X1065604Y0455791D01*
X1079171Y0404347D02*
X1079696Y0404872D01*
X1080745D01*
X1081270Y0404347D01*
Y0402248D01*
X1080745Y0401723D01*
X1079696D01*
X1079171Y0402248D01*
X1078121Y0401723D02*
X1077072D01*
X1077597D01*
Y0404872D01*
X1078121Y0404347D01*
X1075498Y0401723D02*
X1074448D01*
X1074973D01*
Y0404872D01*
X1075498Y0404347D01*
X1056179Y0438166D02*
X1056704Y0438690D01*
X1057753D01*
X1058278Y0438166D01*
Y0436067D01*
X1057753Y0435542D01*
X1056704D01*
X1056179Y0436067D01*
X1053030Y0438690D02*
X1054080Y0438166D01*
X1055129Y0437116D01*
Y0436067D01*
X1054605Y0435542D01*
X1053555D01*
X1053030Y0436067D01*
Y0436591D01*
X1053555Y0437116D01*
X1055129D01*
X1056336Y0442811D02*
X1056861Y0443336D01*
X1057911D01*
X1058436Y0442811D01*
Y0440712D01*
X1057911Y0440188D01*
X1056861D01*
X1056336Y0440712D01*
X1053188Y0443336D02*
X1055287D01*
Y0441762D01*
X1054237Y0442286D01*
X1053713D01*
X1053188Y0441762D01*
Y0440712D01*
X1053713Y0440188D01*
X1054762D01*
X1055287Y0440712D01*
X1085246Y0451999D02*
X1082098D01*
Y0450424D01*
X1082623Y0449899D01*
X1083672D01*
X1084197Y0450424D01*
Y0451999D01*
Y0450949D02*
X1085246Y0449899D01*
Y0446751D02*
Y0448850D01*
X1083148Y0446751D01*
X1082623D01*
X1082098Y0447276D01*
Y0448325D01*
X1082623Y0448850D01*
X1087229Y0447931D02*
X1086704Y0448456D01*
Y0449505D01*
X1087229Y0450030D01*
X1089328D01*
X1089853Y0449505D01*
Y0448456D01*
X1089328Y0447931D01*
X1089853Y0445307D02*
X1086704D01*
X1088278Y0446881D01*
Y0444782D01*
X1045601Y0459361D02*
X1048749D01*
Y0460935D01*
X1048225Y0461460D01*
X1047175D01*
X1046650Y0460935D01*
Y0459361D01*
Y0460410D02*
X1045601Y0461460D01*
Y0462509D02*
Y0463559D01*
Y0463034D01*
X1048749D01*
X1048225Y0462509D01*
X1053029Y0453559D02*
X1053554Y0454084D01*
X1054604D01*
X1055128Y0453559D01*
Y0451460D01*
X1054604Y0450936D01*
X1053554D01*
X1053029Y0451460D01*
X1051980Y0454084D02*
X1049881D01*
Y0453559D01*
X1051980Y0451460D01*
Y0450936D01*
X1082215Y0540188D02*
Y0543336D01*
X1080641D01*
X1080116Y0542811D01*
Y0541762D01*
X1080641Y0541237D01*
X1082215D01*
X1081166D02*
X1080116Y0540188D01*
X1079066Y0542811D02*
X1078542Y0543336D01*
X1077492D01*
X1076967Y0542811D01*
Y0542286D01*
X1077492Y0541762D01*
X1078017D01*
X1077492D01*
X1076967Y0541237D01*
Y0540712D01*
X1077492Y0540188D01*
X1078542D01*
X1079066Y0540712D01*
X1095798Y0542352D02*
Y0539203D01*
X1094223D01*
X1093699Y0539728D01*
Y0541827D01*
X1094223Y0542352D01*
X1095798D01*
X1092649Y0539203D02*
X1091600D01*
X1092124D01*
Y0542352D01*
X1092649Y0541827D01*
X1081191Y0521999D02*
Y0525147D01*
X1079617D01*
X1079092Y0524622D01*
Y0523573D01*
X1079617Y0523048D01*
X1081191D01*
X1080142D02*
X1079092Y0521999D01*
X1075944Y0525147D02*
X1078043D01*
Y0523573D01*
X1076993Y0524098D01*
X1076468D01*
X1075944Y0523573D01*
Y0522523D01*
X1076468Y0521999D01*
X1077518D01*
X1078043Y0522523D01*
X1064813Y0510659D02*
X1062714D01*
X1063764D01*
Y0507510D01*
X1061665D02*
X1060615D01*
X1061140D01*
Y0510659D01*
X1061665Y0510134D01*
X1055207Y0520739D02*
Y0523887D01*
X1053633D01*
X1053108Y0523362D01*
Y0522313D01*
X1053633Y0521788D01*
X1055207D01*
X1054158D02*
X1053108Y0520739D01*
X1052059Y0523887D02*
X1049959D01*
Y0523362D01*
X1052059Y0521263D01*
Y0520739D01*
X1057727Y0524243D02*
X1060875D01*
Y0525817D01*
X1060351Y0526342D01*
X1059301D01*
X1058776Y0525817D01*
Y0524243D01*
Y0525292D02*
X1057727Y0526342D01*
X1060875Y0529490D02*
X1060351Y0528441D01*
X1059301Y0527391D01*
X1058252D01*
X1057727Y0527916D01*
Y0528966D01*
X1058252Y0529490D01*
X1058776D01*
X1059301Y0528966D01*
Y0527391D01*
X1052648Y0511999D02*
Y0515147D01*
X1051074D01*
X1050549Y0514622D01*
Y0513573D01*
X1051074Y0513048D01*
X1052648D01*
X1051599D02*
X1050549Y0511999D01*
X1047925D02*
Y0515147D01*
X1049500Y0513573D01*
X1047400D01*
X1081453Y0528625D02*
X1081978Y0528100D01*
Y0527051D01*
X1081453Y0526526D01*
X1079354D01*
X1078829Y0527051D01*
Y0528100D01*
X1079354Y0528625D01*
X1081978Y0531249D02*
Y0530199D01*
X1081453Y0529675D01*
X1079354D01*
X1078829Y0530199D01*
Y0531249D01*
X1079354Y0531774D01*
X1081453D01*
X1081978Y0531249D01*
X1078829Y0532823D02*
X1081978D01*
X1078829Y0534922D01*
X1081978D01*
X1078829Y0538071D02*
Y0535972D01*
X1080928Y0538071D01*
X1081453D01*
X1081978Y0537546D01*
Y0536497D01*
X1081453Y0535972D01*
X1072951Y0564189D02*
X1073475Y0564714D01*
X1074525D01*
X1075050Y0564189D01*
Y0562090D01*
X1074525Y0561565D01*
X1073475D01*
X1072951Y0562090D01*
X1070327Y0564714D02*
X1071376D01*
X1071901Y0564189D01*
Y0562090D01*
X1071376Y0561565D01*
X1070327D01*
X1069802Y0562090D01*
Y0564189D01*
X1070327Y0564714D01*
X1068752Y0561565D02*
Y0564714D01*
X1066653Y0561565D01*
Y0564714D01*
X1065604Y0564189D02*
X1065079Y0564714D01*
X1064030D01*
X1063505Y0564189D01*
Y0563664D01*
X1064030Y0563140D01*
X1064554D01*
X1064030D01*
X1063505Y0562615D01*
Y0562090D01*
X1064030Y0561565D01*
X1065079D01*
X1065604Y0562090D01*
X1079171Y0510646D02*
X1079696Y0511171D01*
X1080745D01*
X1081270Y0510646D01*
Y0508547D01*
X1080745Y0508022D01*
X1079696D01*
X1079171Y0508547D01*
X1078121Y0508022D02*
X1077072D01*
X1077597D01*
Y0511171D01*
X1078121Y0510646D01*
X1075498Y0508022D02*
X1074448D01*
X1074973D01*
Y0511171D01*
X1075498Y0510646D01*
X1056179Y0544465D02*
X1056704Y0544990D01*
X1057753D01*
X1058278Y0544465D01*
Y0542366D01*
X1057753Y0541841D01*
X1056704D01*
X1056179Y0542366D01*
X1053030Y0544990D02*
X1054080Y0544465D01*
X1055129Y0543415D01*
Y0542366D01*
X1054605Y0541841D01*
X1053555D01*
X1053030Y0542366D01*
Y0542891D01*
X1053555Y0543415D01*
X1055129D01*
X1056336Y0549111D02*
X1056861Y0549635D01*
X1057911D01*
X1058436Y0549111D01*
Y0547012D01*
X1057911Y0546487D01*
X1056861D01*
X1056336Y0547012D01*
X1053188Y0549635D02*
X1055287D01*
Y0548061D01*
X1054237Y0548586D01*
X1053713D01*
X1053188Y0548061D01*
Y0547012D01*
X1053713Y0546487D01*
X1054762D01*
X1055287Y0547012D01*
X1085246Y0558298D02*
X1082098D01*
Y0556723D01*
X1082623Y0556199D01*
X1083672D01*
X1084197Y0556723D01*
Y0558298D01*
Y0557248D02*
X1085246Y0556199D01*
Y0553050D02*
Y0555149D01*
X1083148Y0553050D01*
X1082623D01*
X1082098Y0553575D01*
Y0554624D01*
X1082623Y0555149D01*
X1087229Y0554230D02*
X1086704Y0554755D01*
Y0555804D01*
X1087229Y0556329D01*
X1089328D01*
X1089853Y0555804D01*
Y0554755D01*
X1089328Y0554230D01*
X1089853Y0551606D02*
X1086704D01*
X1088278Y0553181D01*
Y0551082D01*
X1045601Y0565660D02*
X1048749D01*
Y0567234D01*
X1048225Y0567759D01*
X1047175D01*
X1046650Y0567234D01*
Y0565660D01*
Y0566710D02*
X1045601Y0567759D01*
Y0568809D02*
Y0569858D01*
Y0569333D01*
X1048749D01*
X1048225Y0568809D01*
X1053029Y0559859D02*
X1053554Y0560383D01*
X1054604D01*
X1055128Y0559859D01*
Y0557760D01*
X1054604Y0557235D01*
X1053554D01*
X1053029Y0557760D01*
X1051980Y0560383D02*
X1049881D01*
Y0559859D01*
X1051980Y0557760D01*
Y0557235D01*
X0945797Y0312195D02*
X0956821D01*
X0945797Y0300778D02*
X0956821D01*
X0945797Y0312195D02*
X0945798Y0311999D01*
X0945797Y0300975D02*
X0945798Y0300778D01*
X0956821Y0300975D02*
X0956821Y0300778D01*
X0956821Y0312195D02*
X0956821Y0311999D01*
X0956821Y0308455D02*
X0956821Y0308258D01*
X0956821Y0304715D02*
X0956821Y0304518D01*
X0945797Y0308455D02*
X0945798Y0308258D01*
X0945797Y0304715D02*
X0945798Y0304518D01*
X0968318Y0316054D02*
X0979341D01*
X0968318Y0327471D02*
X0979341D01*
X0979341Y0316250D02*
X0979341Y0316054D01*
X0979341Y0327471D02*
X0979341Y0327274D01*
X0968317Y0327471D02*
X0968318Y0327274D01*
X0968317Y0316250D02*
X0968318Y0316054D01*
X0968317Y0319991D02*
X0968318Y0319794D01*
X0968317Y0323731D02*
X0968318Y0323534D01*
X0979341Y0319991D02*
X0979341Y0319794D01*
X0979341Y0323731D02*
X0979341Y0323534D01*
X0921626Y0322432D02*
X0924774D01*
Y0320857D01*
X0924249Y0320333D01*
X0922150D01*
X0921626Y0320857D01*
Y0322432D01*
X0924774Y0317184D02*
Y0319283D01*
X0922675Y0317184D01*
X0922150D01*
X0921626Y0317709D01*
Y0318758D01*
X0922150Y0319283D01*
X0977097Y0296565D02*
Y0299714D01*
X0975523D01*
X0974998Y0299189D01*
Y0298140D01*
X0975523Y0297615D01*
X0977097D01*
X0976047D02*
X0974998Y0296565D01*
X0973948D02*
X0972899D01*
X0973423D01*
Y0299714D01*
X0973948Y0299189D01*
X0969750Y0296565D02*
Y0299714D01*
X0971325Y0298140D01*
X0969225D01*
X0930680Y0345068D02*
Y0342444D01*
X0930155Y0341920D01*
X0929105D01*
X0928580Y0342444D01*
Y0345068D01*
X0925957Y0341920D02*
Y0345068D01*
X0927531Y0343494D01*
X0925432D01*
X0953436Y0350857D02*
X0956584D01*
Y0352431D01*
X0956059Y0352956D01*
X0955010D01*
X0954485Y0352431D01*
Y0350857D01*
Y0351906D02*
X0953436Y0352956D01*
Y0354005D02*
Y0355055D01*
Y0354530D01*
X0956584D01*
X0956059Y0354005D01*
Y0356629D02*
X0956584Y0357154D01*
Y0358204D01*
X0956059Y0358728D01*
X0953960D01*
X0953436Y0358204D01*
Y0357154D01*
X0953960Y0356629D01*
X0956059D01*
X0949538Y0350896D02*
X0952686D01*
Y0352470D01*
X0952162Y0352995D01*
X0951112D01*
X0950587Y0352470D01*
Y0350896D01*
Y0351946D02*
X0949538Y0352995D01*
X0950063Y0354045D02*
X0949538Y0354570D01*
Y0355619D01*
X0950063Y0356144D01*
X0952162D01*
X0952686Y0355619D01*
Y0354570D01*
X0952162Y0354045D01*
X0951637D01*
X0951112Y0354570D01*
Y0356144D01*
X0947215Y0317983D02*
X0944066D01*
Y0316408D01*
X0944591Y0315884D01*
X0945641D01*
X0946165Y0316408D01*
Y0317983D01*
Y0316933D02*
X0947215Y0315884D01*
X0944066Y0314834D02*
Y0312735D01*
X0944591D01*
X0946690Y0314834D01*
X0947215D01*
X0961034Y0329951D02*
Y0333100D01*
X0959460D01*
X0958935Y0332575D01*
Y0331526D01*
X0959460Y0331001D01*
X0961034D01*
X0959984D02*
X0958935Y0329951D01*
X0955786Y0333100D02*
X0956836Y0332575D01*
X0957885Y0331526D01*
Y0330476D01*
X0957360Y0329951D01*
X0956311D01*
X0955786Y0330476D01*
Y0331001D01*
X0956311Y0331526D01*
X0957885D01*
X0964184Y0338455D02*
Y0341604D01*
X0962609D01*
X0962084Y0341079D01*
Y0340030D01*
X0962609Y0339505D01*
X0964184D01*
X0963134D02*
X0962084Y0338455D01*
X0958936Y0341604D02*
X0961035D01*
Y0340030D01*
X0959985Y0340554D01*
X0959461D01*
X0958936Y0340030D01*
Y0338980D01*
X0959461Y0338455D01*
X0960510D01*
X0961035Y0338980D01*
X0954695Y0328802D02*
Y0331950D01*
X0953121D01*
X0952596Y0331425D01*
Y0330376D01*
X0953121Y0329851D01*
X0954695D01*
X0953646D02*
X0952596Y0328802D01*
X0949972D02*
Y0331950D01*
X0951547Y0330376D01*
X0949448D01*
X0957530Y0351014D02*
X0960679D01*
Y0352589D01*
X0960154Y0353113D01*
X0959104D01*
X0958580Y0352589D01*
Y0351014D01*
Y0352064D02*
X0957530Y0353113D01*
X0960154Y0354163D02*
X0960679Y0354688D01*
Y0355737D01*
X0960154Y0356262D01*
X0959629D01*
X0959104Y0355737D01*
Y0355212D01*
Y0355737D01*
X0958580Y0356262D01*
X0958055D01*
X0957530Y0355737D01*
Y0354688D01*
X0958055Y0354163D01*
X0924143Y0332747D02*
X0920994D01*
Y0334846D01*
Y0335895D02*
Y0336945D01*
Y0336420D01*
X0924143D01*
X0923618Y0335895D01*
X0931533Y0315134D02*
X0932058Y0315659D01*
X0933108D01*
X0933632Y0315134D01*
Y0313035D01*
X0933108Y0312510D01*
X0932058D01*
X0931533Y0313035D01*
X0930484D02*
X0929959Y0312510D01*
X0928909D01*
X0928385Y0313035D01*
Y0315134D01*
X0928909Y0315659D01*
X0929959D01*
X0930484Y0315134D01*
Y0314609D01*
X0929959Y0314085D01*
X0928385D01*
X0918344Y0325528D02*
X0918869Y0326053D01*
X0919919D01*
X0920443Y0325528D01*
Y0323429D01*
X0919919Y0322904D01*
X0918869D01*
X0918344Y0323429D01*
X0917295Y0325528D02*
X0916770Y0326053D01*
X0915720D01*
X0915196Y0325528D01*
Y0325003D01*
X0915720Y0324478D01*
X0915196Y0323954D01*
Y0323429D01*
X0915720Y0322904D01*
X0916770D01*
X0917295Y0323429D01*
Y0323954D01*
X0916770Y0324478D01*
X0917295Y0325003D01*
Y0325528D01*
X0916770Y0324478D02*
X0915720D01*
X0943647Y0361878D02*
X0944172Y0362403D01*
X0945222D01*
X0945747Y0361878D01*
Y0359779D01*
X0945222Y0359254D01*
X0944172D01*
X0943647Y0359779D01*
X0942598Y0362403D02*
X0940499D01*
Y0361878D01*
X0942598Y0359779D01*
Y0359254D01*
X0929250Y0352693D02*
X0929775Y0353218D01*
X0930824D01*
X0931349Y0352693D01*
Y0350594D01*
X0930824Y0350069D01*
X0929775D01*
X0929250Y0350594D01*
X0926101Y0353218D02*
X0927151Y0352693D01*
X0928200Y0351644D01*
Y0350594D01*
X0927676Y0350069D01*
X0926626D01*
X0926101Y0350594D01*
Y0351119D01*
X0926626Y0351644D01*
X0928200D01*
X0929092Y0348717D02*
X0929617Y0349242D01*
X0930667D01*
X0931191Y0348717D01*
Y0346618D01*
X0930667Y0346093D01*
X0929617D01*
X0929092Y0346618D01*
X0925944Y0349242D02*
X0928043D01*
Y0347667D01*
X0926993Y0348192D01*
X0926468D01*
X0925944Y0347667D01*
Y0346618D01*
X0926468Y0346093D01*
X0927518D01*
X0928043Y0346618D01*
X0986979Y0316643D02*
Y0314019D01*
X0986454Y0313495D01*
X0985404D01*
X0984880Y0314019D01*
Y0316643D01*
X0983830Y0316118D02*
X0983305Y0316643D01*
X0982256D01*
X0981731Y0316118D01*
Y0315594D01*
X0982256Y0315069D01*
X0982781D01*
X0982256D01*
X0981731Y0314544D01*
Y0314019D01*
X0982256Y0313495D01*
X0983305D01*
X0983830Y0314019D01*
X0943258Y0303415D02*
Y0300791D01*
X0942733Y0300266D01*
X0941684D01*
X0941159Y0300791D01*
Y0303415D01*
X0938011Y0300266D02*
X0940110D01*
X0938011Y0302365D01*
Y0302890D01*
X0938535Y0303415D01*
X0939585D01*
X0940110Y0302890D01*
X0965955Y0352588D02*
Y0349964D01*
X0965430Y0349439D01*
X0964381D01*
X0963856Y0349964D01*
Y0352588D01*
X0962807Y0349439D02*
X0961757D01*
X0962282D01*
Y0352588D01*
X0962807Y0352063D01*
X0981428Y0306802D02*
Y0309950D01*
X0979853D01*
X0979329Y0309425D01*
Y0308376D01*
X0979853Y0307851D01*
X0981428D01*
X0980378D02*
X0979329Y0306802D01*
X0978279D02*
X0977229D01*
X0977754D01*
Y0309950D01*
X0978279Y0309425D01*
X0975655D02*
X0975130Y0309950D01*
X0974081D01*
X0973556Y0309425D01*
Y0308901D01*
X0974081Y0308376D01*
X0974606D01*
X0974081D01*
X0973556Y0307851D01*
Y0307326D01*
X0974081Y0306802D01*
X0975130D01*
X0975655Y0307326D01*
X0976467Y0350266D02*
X0979616D01*
Y0351840D01*
X0979091Y0352365D01*
X0978041D01*
X0977516Y0351840D01*
Y0350266D01*
Y0351316D02*
X0976467Y0352365D01*
Y0353415D02*
Y0354464D01*
Y0353940D01*
X0979616D01*
X0979091Y0353415D01*
X0976467Y0358138D02*
Y0356039D01*
X0978566Y0358138D01*
X0979091D01*
X0979616Y0357613D01*
Y0356563D01*
X0979091Y0356039D01*
X0984223Y0336250D02*
X0987372D01*
Y0337825D01*
X0986847Y0338350D01*
X0985797D01*
X0985272Y0337825D01*
Y0336250D01*
Y0337300D02*
X0984223Y0338350D01*
Y0339399D02*
Y0340449D01*
Y0339924D01*
X0987372D01*
X0986847Y0339399D01*
X0984223Y0342023D02*
Y0343072D01*
Y0342548D01*
X0987372D01*
X0986847Y0342023D01*
X0961703Y0326093D02*
X0964852D01*
Y0327667D01*
X0964327Y0328192D01*
X0963278D01*
X0962753Y0327667D01*
Y0326093D01*
Y0327143D02*
X0961703Y0328192D01*
X0964327Y0329242D02*
X0964852Y0329766D01*
Y0330816D01*
X0964327Y0331341D01*
X0963802D01*
X0963278Y0330816D01*
X0962753Y0331341D01*
X0962228D01*
X0961703Y0330816D01*
Y0329766D01*
X0962228Y0329242D01*
X0962753D01*
X0963278Y0329766D01*
X0963802Y0329242D01*
X0964327D01*
X0963278Y0329766D02*
Y0330816D01*
X0981743Y0329006D02*
X0984891D01*
Y0330581D01*
X0984366Y0331105D01*
X0983317D01*
X0982792Y0330581D01*
Y0329006D01*
Y0330056D02*
X0981743Y0331105D01*
Y0334254D02*
Y0332155D01*
X0983842Y0334254D01*
X0984366D01*
X0984891Y0333729D01*
Y0332680D01*
X0984366Y0332155D01*
X0968727Y0359006D02*
Y0362155D01*
X0967153D01*
X0966628Y0361630D01*
Y0360581D01*
X0967153Y0360056D01*
X0968727D01*
X0967677D02*
X0966628Y0359006D01*
X0965578D02*
X0964529D01*
X0965053D01*
Y0362155D01*
X0965578Y0361630D01*
X0956978Y0318376D02*
X0953829D01*
Y0319951D01*
X0954354Y0320476D01*
X0956453D01*
X0956978Y0319951D01*
Y0318376D01*
X0953829Y0321525D02*
Y0322575D01*
Y0322050D01*
X0956978D01*
X0956453Y0321525D01*
X0929130Y0306499D02*
X0929655Y0305974D01*
Y0304925D01*
X0929130Y0304400D01*
X0927031D01*
X0926506Y0304925D01*
Y0305974D01*
X0927031Y0306499D01*
X0926506Y0307549D02*
Y0308598D01*
Y0308073D01*
X0929655D01*
X0929130Y0307549D01*
X0926506Y0311747D02*
X0929655D01*
X0928081Y0310173D01*
Y0312271D01*
X0933303Y0306302D02*
X0933828Y0305778D01*
Y0304728D01*
X0933303Y0304203D01*
X0931204D01*
X0930680Y0304728D01*
Y0305778D01*
X0931204Y0306302D01*
X0930680Y0307352D02*
Y0308401D01*
Y0307877D01*
X0933828D01*
X0933303Y0307352D01*
Y0309976D02*
X0933828Y0310500D01*
Y0311550D01*
X0933303Y0312075D01*
X0932779D01*
X0932254Y0311550D01*
Y0311025D01*
Y0311550D01*
X0931729Y0312075D01*
X0931204D01*
X0930680Y0311550D01*
Y0310500D01*
X0931204Y0309976D01*
X0949289Y0294740D02*
X0949814Y0295265D01*
X0950863D01*
X0951388Y0294740D01*
Y0292641D01*
X0950863Y0292117D01*
X0949814D01*
X0949289Y0292641D01*
X0948240Y0292117D02*
X0947190D01*
X0947715D01*
Y0295265D01*
X0948240Y0294740D01*
X0943517Y0292117D02*
X0945616D01*
X0943517Y0294216D01*
Y0294740D01*
X0944042Y0295265D01*
X0945091D01*
X0945616Y0294740D01*
X0957163Y0294544D02*
X0957688Y0295068D01*
X0958737D01*
X0959262Y0294544D01*
Y0292444D01*
X0958737Y0291920D01*
X0957688D01*
X0957163Y0292444D01*
X0956114Y0291920D02*
X0955064D01*
X0955589D01*
Y0295068D01*
X0956114Y0294544D01*
X0953490Y0291920D02*
X0952440D01*
X0952965D01*
Y0295068D01*
X0953490Y0294544D01*
X0970825Y0303914D02*
X0971349Y0304438D01*
X0972399D01*
X0972924Y0303914D01*
Y0301815D01*
X0972399Y0301290D01*
X0971349D01*
X0970825Y0301815D01*
X0969775Y0301290D02*
X0968725D01*
X0969250D01*
Y0304438D01*
X0969775Y0303914D01*
X0967151D02*
X0966626Y0304438D01*
X0965577D01*
X0965052Y0303914D01*
Y0301815D01*
X0965577Y0301290D01*
X0966626D01*
X0967151Y0301815D01*
Y0303914D01*
X0967713Y0309609D02*
X0968238Y0309085D01*
Y0308035D01*
X0967713Y0307510D01*
X0965614D01*
X0965089Y0308035D01*
Y0309085D01*
X0965614Y0309609D01*
X0965089Y0312233D02*
X0968238D01*
X0966663Y0310659D01*
Y0312758D01*
X0989603Y0321302D02*
X0990127Y0320778D01*
Y0319728D01*
X0989603Y0319203D01*
X0987504D01*
X0986979Y0319728D01*
Y0320778D01*
X0987504Y0321302D01*
X0989603Y0322352D02*
X0990127Y0322877D01*
Y0323926D01*
X0989603Y0324451D01*
X0989078D01*
X0988553Y0323926D01*
Y0323401D01*
Y0323926D01*
X0988028Y0324451D01*
X0987504D01*
X0986979Y0323926D01*
Y0322877D01*
X0987504Y0322352D01*
X0962951Y0344819D02*
X0963475Y0345344D01*
X0964525D01*
X0965050Y0344819D01*
Y0342720D01*
X0964525Y0342195D01*
X0963475D01*
X0962951Y0342720D01*
X0959802Y0342195D02*
X0961901D01*
X0959802Y0344294D01*
Y0344819D01*
X0960327Y0345344D01*
X0961376D01*
X0961901Y0344819D01*
X0962163Y0336984D02*
X0962688Y0337509D01*
X0963737D01*
X0964262Y0336984D01*
Y0334886D01*
X0963737Y0334361D01*
X0962688D01*
X0962163Y0334886D01*
X0961114Y0334361D02*
X0960064D01*
X0960589D01*
Y0337509D01*
X0961114Y0336984D01*
X0945797Y0418494D02*
X0956821D01*
X0945797Y0407077D02*
X0956821D01*
X0945797Y0418494D02*
X0945798Y0418298D01*
X0945797Y0407274D02*
X0945798Y0407077D01*
X0956821Y0407274D02*
X0956821Y0407077D01*
X0956821Y0418494D02*
X0956821Y0418298D01*
X0956821Y0414754D02*
X0956821Y0414558D01*
X0956821Y0411014D02*
X0956821Y0410817D01*
X0945797Y0414754D02*
X0945798Y0414558D01*
X0945797Y0411014D02*
X0945798Y0410817D01*
X0968318Y0422353D02*
X0979341D01*
X0968318Y0433771D02*
X0979341D01*
X0979341Y0422550D02*
X0979341Y0422353D01*
X0979341Y0433770D02*
X0979341Y0433573D01*
X0968317Y0433770D02*
X0968318Y0433573D01*
X0968317Y0422550D02*
X0968318Y0422353D01*
X0968317Y0426290D02*
X0968318Y0426093D01*
X0968317Y0430030D02*
X0968318Y0429833D01*
X0979341Y0426290D02*
X0979341Y0426093D01*
X0979341Y0430030D02*
X0979341Y0429833D01*
X0921626Y0428731D02*
X0924774D01*
Y0427156D01*
X0924249Y0426632D01*
X0922150D01*
X0921626Y0427156D01*
Y0428731D01*
X0924774Y0423483D02*
Y0425582D01*
X0922675Y0423483D01*
X0922150D01*
X0921626Y0424008D01*
Y0425057D01*
X0922150Y0425582D01*
X0977097Y0402865D02*
Y0406013D01*
X0975523D01*
X0974998Y0405488D01*
Y0404439D01*
X0975523Y0403914D01*
X0977097D01*
X0976047D02*
X0974998Y0402865D01*
X0973948D02*
X0972899D01*
X0973423D01*
Y0406013D01*
X0973948Y0405488D01*
X0969750Y0402865D02*
Y0406013D01*
X0971325Y0404439D01*
X0969225D01*
X0930680Y0451368D02*
Y0448744D01*
X0930155Y0448219D01*
X0929105D01*
X0928580Y0448744D01*
Y0451368D01*
X0925957Y0448219D02*
Y0451368D01*
X0927531Y0449793D01*
X0925432D01*
X0953436Y0457156D02*
X0956584D01*
Y0458730D01*
X0956059Y0459255D01*
X0955010D01*
X0954485Y0458730D01*
Y0457156D01*
Y0458206D02*
X0953436Y0459255D01*
Y0460305D02*
Y0461354D01*
Y0460829D01*
X0956584D01*
X0956059Y0460305D01*
Y0462928D02*
X0956584Y0463453D01*
Y0464503D01*
X0956059Y0465028D01*
X0953960D01*
X0953436Y0464503D01*
Y0463453D01*
X0953960Y0462928D01*
X0956059D01*
X0949538Y0457195D02*
X0952686D01*
Y0458770D01*
X0952162Y0459294D01*
X0951112D01*
X0950587Y0458770D01*
Y0457195D01*
Y0458245D02*
X0949538Y0459294D01*
X0950063Y0460344D02*
X0949538Y0460869D01*
Y0461918D01*
X0950063Y0462443D01*
X0952162D01*
X0952686Y0461918D01*
Y0460869D01*
X0952162Y0460344D01*
X0951637D01*
X0951112Y0460869D01*
Y0462443D01*
X0947215Y0424282D02*
X0944066D01*
Y0422708D01*
X0944591Y0422183D01*
X0945641D01*
X0946165Y0422708D01*
Y0424282D01*
Y0423232D02*
X0947215Y0422183D01*
X0944066Y0421133D02*
Y0419034D01*
X0944591D01*
X0946690Y0421133D01*
X0947215D01*
X0961034Y0436250D02*
Y0439399D01*
X0959460D01*
X0958935Y0438874D01*
Y0437825D01*
X0959460Y0437300D01*
X0961034D01*
X0959984D02*
X0958935Y0436250D01*
X0955786Y0439399D02*
X0956836Y0438874D01*
X0957885Y0437825D01*
Y0436775D01*
X0957360Y0436250D01*
X0956311D01*
X0955786Y0436775D01*
Y0437300D01*
X0956311Y0437825D01*
X0957885D01*
X0964184Y0444754D02*
Y0447903D01*
X0962609D01*
X0962084Y0447378D01*
Y0446329D01*
X0962609Y0445804D01*
X0964184D01*
X0963134D02*
X0962084Y0444754D01*
X0958936Y0447903D02*
X0961035D01*
Y0446329D01*
X0959985Y0446853D01*
X0959461D01*
X0958936Y0446329D01*
Y0445279D01*
X0959461Y0444754D01*
X0960510D01*
X0961035Y0445279D01*
X0954695Y0435101D02*
Y0438249D01*
X0953121D01*
X0952596Y0437725D01*
Y0436675D01*
X0953121Y0436150D01*
X0954695D01*
X0953646D02*
X0952596Y0435101D01*
X0949972D02*
Y0438249D01*
X0951547Y0436675D01*
X0949448D01*
X0957530Y0457313D02*
X0960679D01*
Y0458888D01*
X0960154Y0459412D01*
X0959104D01*
X0958580Y0458888D01*
Y0457313D01*
Y0458363D02*
X0957530Y0459412D01*
X0960154Y0460462D02*
X0960679Y0460987D01*
Y0462036D01*
X0960154Y0462561D01*
X0959629D01*
X0959104Y0462036D01*
Y0461512D01*
Y0462036D01*
X0958580Y0462561D01*
X0958055D01*
X0957530Y0462036D01*
Y0460987D01*
X0958055Y0460462D01*
X0924143Y0439046D02*
X0920994D01*
Y0441145D01*
Y0442194D02*
Y0443244D01*
Y0442719D01*
X0924143D01*
X0923618Y0442194D01*
X0931533Y0421433D02*
X0932058Y0421958D01*
X0933108D01*
X0933632Y0421433D01*
Y0419334D01*
X0933108Y0418810D01*
X0932058D01*
X0931533Y0419334D01*
X0930484D02*
X0929959Y0418810D01*
X0928909D01*
X0928385Y0419334D01*
Y0421433D01*
X0928909Y0421958D01*
X0929959D01*
X0930484Y0421433D01*
Y0420909D01*
X0929959Y0420384D01*
X0928385D01*
X0918344Y0431827D02*
X0918869Y0432352D01*
X0919919D01*
X0920443Y0431827D01*
Y0429728D01*
X0919919Y0429203D01*
X0918869D01*
X0918344Y0429728D01*
X0917295Y0431827D02*
X0916770Y0432352D01*
X0915720D01*
X0915196Y0431827D01*
Y0431302D01*
X0915720Y0430778D01*
X0915196Y0430253D01*
Y0429728D01*
X0915720Y0429203D01*
X0916770D01*
X0917295Y0429728D01*
Y0430253D01*
X0916770Y0430778D01*
X0917295Y0431302D01*
Y0431827D01*
X0916770Y0430778D02*
X0915720D01*
X0943647Y0468177D02*
X0944172Y0468702D01*
X0945222D01*
X0945747Y0468177D01*
Y0466078D01*
X0945222Y0465554D01*
X0944172D01*
X0943647Y0466078D01*
X0942598Y0468702D02*
X0940499D01*
Y0468177D01*
X0942598Y0466078D01*
Y0465554D01*
X0929250Y0458992D02*
X0929775Y0459517D01*
X0930824D01*
X0931349Y0458992D01*
Y0456893D01*
X0930824Y0456369D01*
X0929775D01*
X0929250Y0456893D01*
X0926101Y0459517D02*
X0927151Y0458992D01*
X0928200Y0457943D01*
Y0456893D01*
X0927676Y0456369D01*
X0926626D01*
X0926101Y0456893D01*
Y0457418D01*
X0926626Y0457943D01*
X0928200D01*
X0929092Y0455016D02*
X0929617Y0455541D01*
X0930667D01*
X0931191Y0455016D01*
Y0452917D01*
X0930667Y0452392D01*
X0929617D01*
X0929092Y0452917D01*
X0925944Y0455541D02*
X0928043D01*
Y0453967D01*
X0926993Y0454491D01*
X0926468D01*
X0925944Y0453967D01*
Y0452917D01*
X0926468Y0452392D01*
X0927518D01*
X0928043Y0452917D01*
X0986979Y0422942D02*
Y0420319D01*
X0986454Y0419794D01*
X0985404D01*
X0984880Y0420319D01*
Y0422942D01*
X0983830Y0422418D02*
X0983305Y0422942D01*
X0982256D01*
X0981731Y0422418D01*
Y0421893D01*
X0982256Y0421368D01*
X0982781D01*
X0982256D01*
X0981731Y0420843D01*
Y0420319D01*
X0982256Y0419794D01*
X0983305D01*
X0983830Y0420319D01*
X0943258Y0409714D02*
Y0407090D01*
X0942733Y0406565D01*
X0941684D01*
X0941159Y0407090D01*
Y0409714D01*
X0938011Y0406565D02*
X0940110D01*
X0938011Y0408665D01*
Y0409189D01*
X0938535Y0409714D01*
X0939585D01*
X0940110Y0409189D01*
X0965955Y0458887D02*
Y0456263D01*
X0965430Y0455739D01*
X0964381D01*
X0963856Y0456263D01*
Y0458887D01*
X0962807Y0455739D02*
X0961757D01*
X0962282D01*
Y0458887D01*
X0962807Y0458362D01*
X0981428Y0413101D02*
Y0416249D01*
X0979853D01*
X0979329Y0415725D01*
Y0414675D01*
X0979853Y0414150D01*
X0981428D01*
X0980378D02*
X0979329Y0413101D01*
X0978279D02*
X0977229D01*
X0977754D01*
Y0416249D01*
X0978279Y0415725D01*
X0975655D02*
X0975130Y0416249D01*
X0974081D01*
X0973556Y0415725D01*
Y0415200D01*
X0974081Y0414675D01*
X0974606D01*
X0974081D01*
X0973556Y0414150D01*
Y0413626D01*
X0974081Y0413101D01*
X0975130D01*
X0975655Y0413626D01*
X0976467Y0456565D02*
X0979616D01*
Y0458140D01*
X0979091Y0458665D01*
X0978041D01*
X0977516Y0458140D01*
Y0456565D01*
Y0457615D02*
X0976467Y0458665D01*
Y0459714D02*
Y0460764D01*
Y0460239D01*
X0979616D01*
X0979091Y0459714D01*
X0976467Y0464437D02*
Y0462338D01*
X0978566Y0464437D01*
X0979091D01*
X0979616Y0463912D01*
Y0462863D01*
X0979091Y0462338D01*
X0984223Y0442550D02*
X0987372D01*
Y0444124D01*
X0986847Y0444649D01*
X0985797D01*
X0985272Y0444124D01*
Y0442550D01*
Y0443599D02*
X0984223Y0444649D01*
Y0445698D02*
Y0446748D01*
Y0446223D01*
X0987372D01*
X0986847Y0445698D01*
X0984223Y0448322D02*
Y0449372D01*
Y0448847D01*
X0987372D01*
X0986847Y0448322D01*
X0961703Y0432392D02*
X0964852D01*
Y0433966D01*
X0964327Y0434491D01*
X0963278D01*
X0962753Y0433966D01*
Y0432392D01*
Y0433442D02*
X0961703Y0434491D01*
X0964327Y0435541D02*
X0964852Y0436066D01*
Y0437115D01*
X0964327Y0437640D01*
X0963802D01*
X0963278Y0437115D01*
X0962753Y0437640D01*
X0962228D01*
X0961703Y0437115D01*
Y0436066D01*
X0962228Y0435541D01*
X0962753D01*
X0963278Y0436066D01*
X0963802Y0435541D01*
X0964327D01*
X0963278Y0436066D02*
Y0437115D01*
X0981743Y0435306D02*
X0984891D01*
Y0436880D01*
X0984366Y0437405D01*
X0983317D01*
X0982792Y0436880D01*
Y0435306D01*
Y0436355D02*
X0981743Y0437405D01*
Y0440553D02*
Y0438454D01*
X0983842Y0440553D01*
X0984366D01*
X0984891Y0440028D01*
Y0438979D01*
X0984366Y0438454D01*
X0968727Y0465306D02*
Y0468454D01*
X0967153D01*
X0966628Y0467929D01*
Y0466880D01*
X0967153Y0466355D01*
X0968727D01*
X0967677D02*
X0966628Y0465306D01*
X0965578D02*
X0964529D01*
X0965053D01*
Y0468454D01*
X0965578Y0467929D01*
X0956978Y0424676D02*
X0953829D01*
Y0426250D01*
X0954354Y0426775D01*
X0956453D01*
X0956978Y0426250D01*
Y0424676D01*
X0953829Y0427824D02*
Y0428874D01*
Y0428349D01*
X0956978D01*
X0956453Y0427824D01*
X0929130Y0412798D02*
X0929655Y0412274D01*
Y0411224D01*
X0929130Y0410699D01*
X0927031D01*
X0926506Y0411224D01*
Y0412274D01*
X0927031Y0412798D01*
X0926506Y0413848D02*
Y0414897D01*
Y0414373D01*
X0929655D01*
X0929130Y0413848D01*
X0926506Y0418046D02*
X0929655D01*
X0928081Y0416472D01*
Y0418571D01*
X0933303Y0412602D02*
X0933828Y0412077D01*
Y0411027D01*
X0933303Y0410502D01*
X0931204D01*
X0930680Y0411027D01*
Y0412077D01*
X0931204Y0412602D01*
X0930680Y0413651D02*
Y0414701D01*
Y0414176D01*
X0933828D01*
X0933303Y0413651D01*
Y0416275D02*
X0933828Y0416800D01*
Y0417849D01*
X0933303Y0418374D01*
X0932779D01*
X0932254Y0417849D01*
Y0417324D01*
Y0417849D01*
X0931729Y0418374D01*
X0931204D01*
X0930680Y0417849D01*
Y0416800D01*
X0931204Y0416275D01*
X0949289Y0401040D02*
X0949814Y0401564D01*
X0950863D01*
X0951388Y0401040D01*
Y0398941D01*
X0950863Y0398416D01*
X0949814D01*
X0949289Y0398941D01*
X0948240Y0398416D02*
X0947190D01*
X0947715D01*
Y0401564D01*
X0948240Y0401040D01*
X0943517Y0398416D02*
X0945616D01*
X0943517Y0400515D01*
Y0401040D01*
X0944042Y0401564D01*
X0945091D01*
X0945616Y0401040D01*
X0957163Y0400843D02*
X0957688Y0401368D01*
X0958737D01*
X0959262Y0400843D01*
Y0398744D01*
X0958737Y0398219D01*
X0957688D01*
X0957163Y0398744D01*
X0956114Y0398219D02*
X0955064D01*
X0955589D01*
Y0401368D01*
X0956114Y0400843D01*
X0953490Y0398219D02*
X0952440D01*
X0952965D01*
Y0401368D01*
X0953490Y0400843D01*
X0970825Y0410213D02*
X0971349Y0410738D01*
X0972399D01*
X0972924Y0410213D01*
Y0408114D01*
X0972399Y0407589D01*
X0971349D01*
X0970825Y0408114D01*
X0969775Y0407589D02*
X0968725D01*
X0969250D01*
Y0410738D01*
X0969775Y0410213D01*
X0967151D02*
X0966626Y0410738D01*
X0965577D01*
X0965052Y0410213D01*
Y0408114D01*
X0965577Y0407589D01*
X0966626D01*
X0967151Y0408114D01*
Y0410213D01*
X0967713Y0415909D02*
X0968238Y0415384D01*
Y0414334D01*
X0967713Y0413809D01*
X0965614D01*
X0965089Y0414334D01*
Y0415384D01*
X0965614Y0415909D01*
X0965089Y0418532D02*
X0968238D01*
X0966663Y0416958D01*
Y0419057D01*
X0989603Y0427601D02*
X0990127Y0427077D01*
Y0426027D01*
X0989603Y0425502D01*
X0987504D01*
X0986979Y0426027D01*
Y0427077D01*
X0987504Y0427601D01*
X0989603Y0428651D02*
X0990127Y0429176D01*
Y0430225D01*
X0989603Y0430750D01*
X0989078D01*
X0988553Y0430225D01*
Y0429701D01*
Y0430225D01*
X0988028Y0430750D01*
X0987504D01*
X0986979Y0430225D01*
Y0429176D01*
X0987504Y0428651D01*
X0962951Y0451118D02*
X0963475Y0451643D01*
X0964525D01*
X0965050Y0451118D01*
Y0449019D01*
X0964525Y0448495D01*
X0963475D01*
X0962951Y0449019D01*
X0959802Y0448495D02*
X0961901D01*
X0959802Y0450594D01*
Y0451118D01*
X0960327Y0451643D01*
X0961376D01*
X0961901Y0451118D01*
X0962163Y0443284D02*
X0962688Y0443809D01*
X0963737D01*
X0964262Y0443284D01*
Y0441185D01*
X0963737Y0440660D01*
X0962688D01*
X0962163Y0441185D01*
X0961114Y0440660D02*
X0960064D01*
X0960589D01*
Y0443809D01*
X0961114Y0443284D01*
X0945797Y0524794D02*
X0956821D01*
X0945797Y0513376D02*
X0956821D01*
X0945797Y0524794D02*
X0945798Y0524597D01*
X0945797Y0513573D02*
X0945798Y0513377D01*
X0956821Y0513573D02*
X0956821Y0513377D01*
X0956821Y0524794D02*
X0956821Y0524597D01*
X0956821Y0521054D02*
X0956821Y0520857D01*
X0956821Y0517313D02*
X0956821Y0517117D01*
X0945797Y0521054D02*
X0945798Y0520857D01*
X0945797Y0517313D02*
X0945798Y0517117D01*
X0968318Y0528652D02*
X0979341D01*
X0968318Y0540070D02*
X0979341D01*
X0979341Y0528849D02*
X0979341Y0528652D01*
X0979341Y0540069D02*
X0979341Y0539873D01*
X0968317Y0540069D02*
X0968318Y0539873D01*
X0968317Y0528849D02*
X0968318Y0528652D01*
X0968317Y0532589D02*
X0968318Y0532392D01*
X0968317Y0536329D02*
X0968318Y0536132D01*
X0979341Y0532589D02*
X0979341Y0532392D01*
X0979341Y0536329D02*
X0979341Y0536132D01*
X0921626Y0535030D02*
X0924774D01*
Y0533456D01*
X0924249Y0532931D01*
X0922150D01*
X0921626Y0533456D01*
Y0535030D01*
X0924774Y0529782D02*
Y0531881D01*
X0922675Y0529782D01*
X0922150D01*
X0921626Y0530307D01*
Y0531357D01*
X0922150Y0531881D01*
X0977097Y0509164D02*
Y0512312D01*
X0975523D01*
X0974998Y0511788D01*
Y0510738D01*
X0975523Y0510213D01*
X0977097D01*
X0976047D02*
X0974998Y0509164D01*
X0973948D02*
X0972899D01*
X0973423D01*
Y0512312D01*
X0973948Y0511788D01*
X0969750Y0509164D02*
Y0512312D01*
X0971325Y0510738D01*
X0969225D01*
X0930680Y0557667D02*
Y0555043D01*
X0930155Y0554518D01*
X0929105D01*
X0928580Y0555043D01*
Y0557667D01*
X0925957Y0554518D02*
Y0557667D01*
X0927531Y0556093D01*
X0925432D01*
X0953436Y0563455D02*
X0956584D01*
Y0565029D01*
X0956059Y0565554D01*
X0955010D01*
X0954485Y0565029D01*
Y0563455D01*
Y0564505D02*
X0953436Y0565554D01*
Y0566604D02*
Y0567653D01*
Y0567129D01*
X0956584D01*
X0956059Y0566604D01*
Y0569228D02*
X0956584Y0569752D01*
Y0570802D01*
X0956059Y0571327D01*
X0953960D01*
X0953436Y0570802D01*
Y0569752D01*
X0953960Y0569228D01*
X0956059D01*
X0949538Y0563495D02*
X0952686D01*
Y0565069D01*
X0952162Y0565594D01*
X0951112D01*
X0950587Y0565069D01*
Y0563495D01*
Y0564544D02*
X0949538Y0565594D01*
X0950063Y0566643D02*
X0949538Y0567168D01*
Y0568218D01*
X0950063Y0568742D01*
X0952162D01*
X0952686Y0568218D01*
Y0567168D01*
X0952162Y0566643D01*
X0951637D01*
X0951112Y0567168D01*
Y0568742D01*
X0947215Y0530581D02*
X0944066D01*
Y0529007D01*
X0944591Y0528482D01*
X0945641D01*
X0946165Y0529007D01*
Y0530581D01*
Y0529532D02*
X0947215Y0528482D01*
X0944066Y0527433D02*
Y0525333D01*
X0944591D01*
X0946690Y0527433D01*
X0947215D01*
X0961034Y0542550D02*
Y0545698D01*
X0959460D01*
X0958935Y0545174D01*
Y0544124D01*
X0959460Y0543599D01*
X0961034D01*
X0959984D02*
X0958935Y0542550D01*
X0955786Y0545698D02*
X0956836Y0545174D01*
X0957885Y0544124D01*
Y0543075D01*
X0957360Y0542550D01*
X0956311D01*
X0955786Y0543075D01*
Y0543599D01*
X0956311Y0544124D01*
X0957885D01*
X0964184Y0551054D02*
Y0554202D01*
X0962609D01*
X0962084Y0553678D01*
Y0552628D01*
X0962609Y0552103D01*
X0964184D01*
X0963134D02*
X0962084Y0551054D01*
X0958936Y0554202D02*
X0961035D01*
Y0552628D01*
X0959985Y0553153D01*
X0959461D01*
X0958936Y0552628D01*
Y0551578D01*
X0959461Y0551054D01*
X0960510D01*
X0961035Y0551578D01*
X0954695Y0541400D02*
Y0544549D01*
X0953121D01*
X0952596Y0544024D01*
Y0542974D01*
X0953121Y0542450D01*
X0954695D01*
X0953646D02*
X0952596Y0541400D01*
X0949972D02*
Y0544549D01*
X0951547Y0542974D01*
X0949448D01*
X0957530Y0563613D02*
X0960679D01*
Y0565187D01*
X0960154Y0565712D01*
X0959104D01*
X0958580Y0565187D01*
Y0563613D01*
Y0564662D02*
X0957530Y0565712D01*
X0960154Y0566761D02*
X0960679Y0567286D01*
Y0568336D01*
X0960154Y0568860D01*
X0959629D01*
X0959104Y0568336D01*
Y0567811D01*
Y0568336D01*
X0958580Y0568860D01*
X0958055D01*
X0957530Y0568336D01*
Y0567286D01*
X0958055Y0566761D01*
X0924143Y0545345D02*
X0920994D01*
Y0547444D01*
Y0548494D02*
Y0549543D01*
Y0549018D01*
X0924143D01*
X0923618Y0548494D01*
X0931533Y0527733D02*
X0932058Y0528257D01*
X0933108D01*
X0933632Y0527733D01*
Y0525633D01*
X0933108Y0525109D01*
X0932058D01*
X0931533Y0525633D01*
X0930484D02*
X0929959Y0525109D01*
X0928909D01*
X0928385Y0525633D01*
Y0527733D01*
X0928909Y0528257D01*
X0929959D01*
X0930484Y0527733D01*
Y0527208D01*
X0929959Y0526683D01*
X0928385D01*
X0918344Y0538126D02*
X0918869Y0538651D01*
X0919919D01*
X0920443Y0538126D01*
Y0536027D01*
X0919919Y0535502D01*
X0918869D01*
X0918344Y0536027D01*
X0917295Y0538126D02*
X0916770Y0538651D01*
X0915720D01*
X0915196Y0538126D01*
Y0537602D01*
X0915720Y0537077D01*
X0915196Y0536552D01*
Y0536027D01*
X0915720Y0535502D01*
X0916770D01*
X0917295Y0536027D01*
Y0536552D01*
X0916770Y0537077D01*
X0917295Y0537602D01*
Y0538126D01*
X0916770Y0537077D02*
X0915720D01*
X0943647Y0574477D02*
X0944172Y0575001D01*
X0945222D01*
X0945747Y0574477D01*
Y0572378D01*
X0945222Y0571853D01*
X0944172D01*
X0943647Y0572378D01*
X0942598Y0575001D02*
X0940499D01*
Y0574477D01*
X0942598Y0572378D01*
Y0571853D01*
X0929250Y0565292D02*
X0929775Y0565816D01*
X0930824D01*
X0931349Y0565292D01*
Y0563193D01*
X0930824Y0562668D01*
X0929775D01*
X0929250Y0563193D01*
X0926101Y0565816D02*
X0927151Y0565292D01*
X0928200Y0564242D01*
Y0563193D01*
X0927676Y0562668D01*
X0926626D01*
X0926101Y0563193D01*
Y0563717D01*
X0926626Y0564242D01*
X0928200D01*
X0929092Y0561315D02*
X0929617Y0561840D01*
X0930667D01*
X0931191Y0561315D01*
Y0559216D01*
X0930667Y0558691D01*
X0929617D01*
X0929092Y0559216D01*
X0925944Y0561840D02*
X0928043D01*
Y0560266D01*
X0926993Y0560790D01*
X0926468D01*
X0925944Y0560266D01*
Y0559216D01*
X0926468Y0558691D01*
X0927518D01*
X0928043Y0559216D01*
X0986979Y0529242D02*
Y0526618D01*
X0986454Y0526093D01*
X0985404D01*
X0984880Y0526618D01*
Y0529242D01*
X0983830Y0528717D02*
X0983305Y0529242D01*
X0982256D01*
X0981731Y0528717D01*
Y0528192D01*
X0982256Y0527667D01*
X0982781D01*
X0982256D01*
X0981731Y0527142D01*
Y0526618D01*
X0982256Y0526093D01*
X0983305D01*
X0983830Y0526618D01*
X0943258Y0516013D02*
Y0513389D01*
X0942733Y0512865D01*
X0941684D01*
X0941159Y0513389D01*
Y0516013D01*
X0938011Y0512865D02*
X0940110D01*
X0938011Y0514964D01*
Y0515488D01*
X0938535Y0516013D01*
X0939585D01*
X0940110Y0515488D01*
X0965955Y0565187D02*
Y0562563D01*
X0965430Y0562038D01*
X0964381D01*
X0963856Y0562563D01*
Y0565187D01*
X0962807Y0562038D02*
X0961757D01*
X0962282D01*
Y0565187D01*
X0962807Y0564662D01*
X0981428Y0519400D02*
Y0522549D01*
X0979853D01*
X0979329Y0522024D01*
Y0520974D01*
X0979853Y0520450D01*
X0981428D01*
X0980378D02*
X0979329Y0519400D01*
X0978279D02*
X0977229D01*
X0977754D01*
Y0522549D01*
X0978279Y0522024D01*
X0975655D02*
X0975130Y0522549D01*
X0974081D01*
X0973556Y0522024D01*
Y0521499D01*
X0974081Y0520974D01*
X0974606D01*
X0974081D01*
X0973556Y0520450D01*
Y0519925D01*
X0974081Y0519400D01*
X0975130D01*
X0975655Y0519925D01*
X0976467Y0562865D02*
X0979616D01*
Y0564439D01*
X0979091Y0564964D01*
X0978041D01*
X0977516Y0564439D01*
Y0562865D01*
Y0563914D02*
X0976467Y0564964D01*
Y0566013D02*
Y0567063D01*
Y0566538D01*
X0979616D01*
X0979091Y0566013D01*
X0976467Y0570736D02*
Y0568637D01*
X0978566Y0570736D01*
X0979091D01*
X0979616Y0570211D01*
Y0569162D01*
X0979091Y0568637D01*
X0984223Y0548849D02*
X0987372D01*
Y0550423D01*
X0986847Y0550948D01*
X0985797D01*
X0985272Y0550423D01*
Y0548849D01*
Y0549898D02*
X0984223Y0550948D01*
Y0551998D02*
Y0553047D01*
Y0552522D01*
X0987372D01*
X0986847Y0551998D01*
X0984223Y0554621D02*
Y0555671D01*
Y0555146D01*
X0987372D01*
X0986847Y0554621D01*
X0961703Y0538691D02*
X0964852D01*
Y0540266D01*
X0964327Y0540791D01*
X0963278D01*
X0962753Y0540266D01*
Y0538691D01*
Y0539741D02*
X0961703Y0540791D01*
X0964327Y0541840D02*
X0964852Y0542365D01*
Y0543414D01*
X0964327Y0543939D01*
X0963802D01*
X0963278Y0543414D01*
X0962753Y0543939D01*
X0962228D01*
X0961703Y0543414D01*
Y0542365D01*
X0962228Y0541840D01*
X0962753D01*
X0963278Y0542365D01*
X0963802Y0541840D01*
X0964327D01*
X0963278Y0542365D02*
Y0543414D01*
X0981743Y0541605D02*
X0984891D01*
Y0543179D01*
X0984366Y0543704D01*
X0983317D01*
X0982792Y0543179D01*
Y0541605D01*
Y0542654D02*
X0981743Y0543704D01*
Y0546852D02*
Y0544753D01*
X0983842Y0546852D01*
X0984366D01*
X0984891Y0546328D01*
Y0545278D01*
X0984366Y0544753D01*
X0968727Y0571605D02*
Y0574753D01*
X0967153D01*
X0966628Y0574229D01*
Y0573179D01*
X0967153Y0572654D01*
X0968727D01*
X0967677D02*
X0966628Y0571605D01*
X0965578D02*
X0964529D01*
X0965053D01*
Y0574753D01*
X0965578Y0574229D01*
X0956978Y0530975D02*
X0953829D01*
Y0532549D01*
X0954354Y0533074D01*
X0956453D01*
X0956978Y0532549D01*
Y0530975D01*
X0953829Y0534124D02*
Y0535173D01*
Y0534648D01*
X0956978D01*
X0956453Y0534124D01*
X0929130Y0519098D02*
X0929655Y0518573D01*
Y0517523D01*
X0929130Y0516998D01*
X0927031D01*
X0926506Y0517523D01*
Y0518573D01*
X0927031Y0519098D01*
X0926506Y0520147D02*
Y0521197D01*
Y0520672D01*
X0929655D01*
X0929130Y0520147D01*
X0926506Y0524345D02*
X0929655D01*
X0928081Y0522771D01*
Y0524870D01*
X0933303Y0518901D02*
X0933828Y0518376D01*
Y0517326D01*
X0933303Y0516802D01*
X0931204D01*
X0930680Y0517326D01*
Y0518376D01*
X0931204Y0518901D01*
X0930680Y0519950D02*
Y0521000D01*
Y0520475D01*
X0933828D01*
X0933303Y0519950D01*
Y0522574D02*
X0933828Y0523099D01*
Y0524148D01*
X0933303Y0524673D01*
X0932779D01*
X0932254Y0524148D01*
Y0523624D01*
Y0524148D01*
X0931729Y0524673D01*
X0931204D01*
X0930680Y0524148D01*
Y0523099D01*
X0931204Y0522574D01*
X0949289Y0507339D02*
X0949814Y0507864D01*
X0950863D01*
X0951388Y0507339D01*
Y0505240D01*
X0950863Y0504715D01*
X0949814D01*
X0949289Y0505240D01*
X0948240Y0504715D02*
X0947190D01*
X0947715D01*
Y0507864D01*
X0948240Y0507339D01*
X0943517Y0504715D02*
X0945616D01*
X0943517Y0506814D01*
Y0507339D01*
X0944042Y0507864D01*
X0945091D01*
X0945616Y0507339D01*
X0957163Y0507142D02*
X0957688Y0507667D01*
X0958737D01*
X0959262Y0507142D01*
Y0505043D01*
X0958737Y0504518D01*
X0957688D01*
X0957163Y0505043D01*
X0956114Y0504518D02*
X0955064D01*
X0955589D01*
Y0507667D01*
X0956114Y0507142D01*
X0953490Y0504518D02*
X0952440D01*
X0952965D01*
Y0507667D01*
X0953490Y0507142D01*
X0970825Y0516512D02*
X0971349Y0517037D01*
X0972399D01*
X0972924Y0516512D01*
Y0514413D01*
X0972399Y0513888D01*
X0971349D01*
X0970825Y0514413D01*
X0969775Y0513888D02*
X0968725D01*
X0969250D01*
Y0517037D01*
X0969775Y0516512D01*
X0967151D02*
X0966626Y0517037D01*
X0965577D01*
X0965052Y0516512D01*
Y0514413D01*
X0965577Y0513888D01*
X0966626D01*
X0967151Y0514413D01*
Y0516512D01*
X0967713Y0522208D02*
X0968238Y0521683D01*
Y0520634D01*
X0967713Y0520109D01*
X0965614D01*
X0965089Y0520634D01*
Y0521683D01*
X0965614Y0522208D01*
X0965089Y0524832D02*
X0968238D01*
X0966663Y0523257D01*
Y0525356D01*
X0989603Y0533901D02*
X0990127Y0533376D01*
Y0532326D01*
X0989603Y0531802D01*
X0987504D01*
X0986979Y0532326D01*
Y0533376D01*
X0987504Y0533901D01*
X0989603Y0534950D02*
X0990127Y0535475D01*
Y0536524D01*
X0989603Y0537049D01*
X0989078D01*
X0988553Y0536524D01*
Y0536000D01*
Y0536524D01*
X0988028Y0537049D01*
X0987504D01*
X0986979Y0536524D01*
Y0535475D01*
X0987504Y0534950D01*
X0962951Y0557418D02*
X0963475Y0557942D01*
X0964525D01*
X0965050Y0557418D01*
Y0555319D01*
X0964525Y0554794D01*
X0963475D01*
X0962951Y0555319D01*
X0959802Y0554794D02*
X0961901D01*
X0959802Y0556893D01*
Y0557418D01*
X0960327Y0557942D01*
X0961376D01*
X0961901Y0557418D01*
X0962163Y0549583D02*
X0962688Y0550108D01*
X0963737D01*
X0964262Y0549583D01*
Y0547484D01*
X0963737Y0546959D01*
X0962688D01*
X0962163Y0547484D01*
X0961114Y0546959D02*
X0960064D01*
X0960589D01*
Y0550108D01*
X0961114Y0549583D01*
X0817884Y0340108D02*
Y0336959D01*
X0816310D01*
X0815785Y0337484D01*
Y0339583D01*
X0816310Y0340108D01*
X0817884D01*
X0814736Y0336959D02*
X0813686D01*
X0814211D01*
Y0340108D01*
X0814736Y0339583D01*
X0830903Y0362772D02*
X0831428Y0363297D01*
X0832478D01*
X0833002Y0362772D01*
Y0360673D01*
X0832478Y0360148D01*
X0831428D01*
X0830903Y0360673D01*
X0828279Y0363297D02*
X0829329D01*
X0829854Y0362772D01*
Y0360673D01*
X0829329Y0360148D01*
X0828279D01*
X0827755Y0360673D01*
Y0362772D01*
X0828279Y0363297D01*
X0826705Y0360148D02*
Y0363297D01*
X0824606Y0360148D01*
Y0363297D01*
X0821458Y0360148D02*
X0823557D01*
X0821458Y0362247D01*
Y0362772D01*
X0821982Y0363297D01*
X0823032D01*
X0823557Y0362772D01*
X0877805Y0319282D02*
X0874656Y0321381D01*
X0877805D02*
X0874656Y0319282D01*
Y0322430D02*
Y0323480D01*
Y0322955D01*
X0877805D01*
X0877280Y0322430D01*
X0866191Y0332824D02*
Y0330200D01*
X0865667Y0329676D01*
X0864617D01*
X0864092Y0330200D01*
Y0332824D01*
X0863043Y0329676D02*
X0861993D01*
X0862518D01*
Y0332824D01*
X0863043Y0332299D01*
X0836979Y0319163D02*
Y0316539D01*
X0836454Y0316014D01*
X0835404D01*
X0834880Y0316539D01*
Y0319163D01*
X0831731Y0316014D02*
X0833830D01*
X0831731Y0318113D01*
Y0318638D01*
X0832256Y0319163D01*
X0833305D01*
X0833830Y0318638D01*
X0865483Y0302627D02*
X0863384D01*
X0864433D01*
Y0299479D01*
X0862334D02*
X0861285D01*
X0861809D01*
Y0302627D01*
X0862334Y0302103D01*
X0834341Y0341014D02*
X0837490D01*
Y0342588D01*
X0836965Y0343113D01*
X0835915D01*
X0835390Y0342588D01*
Y0341014D01*
Y0342064D02*
X0834341Y0343113D01*
Y0344163D02*
Y0345212D01*
Y0344688D01*
X0837490D01*
X0836965Y0344163D01*
X0834341Y0346787D02*
Y0347836D01*
Y0347311D01*
X0837490D01*
X0836965Y0346787D01*
X0842058Y0305621D02*
Y0308769D01*
X0840483D01*
X0839958Y0308244D01*
Y0307195D01*
X0840483Y0306670D01*
X0842058D01*
X0841008D02*
X0839958Y0305621D01*
X0838909D02*
X0837859D01*
X0838384D01*
Y0308769D01*
X0838909Y0308244D01*
X0836285D02*
X0835760Y0308769D01*
X0834711D01*
X0834186Y0308244D01*
Y0306145D01*
X0834711Y0305621D01*
X0835760D01*
X0836285Y0306145D01*
Y0308244D01*
X0870916Y0305778D02*
Y0308927D01*
X0869341D01*
X0868817Y0308402D01*
Y0307352D01*
X0869341Y0306828D01*
X0870916D01*
X0869866D02*
X0868817Y0305778D01*
X0867767Y0306303D02*
X0867242Y0305778D01*
X0866193D01*
X0865668Y0306303D01*
Y0308402D01*
X0866193Y0308927D01*
X0867242D01*
X0867767Y0308402D01*
Y0307877D01*
X0867242Y0307352D01*
X0865668D01*
X0841979Y0301447D02*
Y0304596D01*
X0840405D01*
X0839880Y0304071D01*
Y0303022D01*
X0840405Y0302497D01*
X0841979D01*
X0840929D02*
X0839880Y0301447D01*
X0838830Y0304071D02*
X0838305Y0304596D01*
X0837256D01*
X0836731Y0304071D01*
Y0303546D01*
X0837256Y0303022D01*
X0836731Y0302497D01*
Y0301972D01*
X0837256Y0301447D01*
X0838305D01*
X0838830Y0301972D01*
Y0302497D01*
X0838305Y0303022D01*
X0838830Y0303546D01*
Y0304071D01*
X0838305Y0303022D02*
X0837256D01*
X0851309Y0297510D02*
Y0300659D01*
X0849735D01*
X0849210Y0300134D01*
Y0299085D01*
X0849735Y0298560D01*
X0851309D01*
X0850260D02*
X0849210Y0297510D01*
X0848161Y0300659D02*
X0846062D01*
Y0300134D01*
X0848161Y0298035D01*
Y0297510D01*
X0844853Y0341132D02*
X0848001D01*
Y0342707D01*
X0847477Y0343231D01*
X0846427D01*
X0845902Y0342707D01*
Y0341132D01*
Y0342182D02*
X0844853Y0343231D01*
X0848001Y0346380D02*
X0847477Y0345331D01*
X0846427Y0344281D01*
X0845378D01*
X0844853Y0344806D01*
Y0345855D01*
X0845378Y0346380D01*
X0845902D01*
X0846427Y0345855D01*
Y0344281D01*
X0838632Y0341014D02*
X0841781D01*
Y0342588D01*
X0841256Y0343113D01*
X0840207D01*
X0839682Y0342588D01*
Y0341014D01*
Y0342064D02*
X0838632Y0343113D01*
Y0346262D02*
Y0344163D01*
X0840731Y0346262D01*
X0841256D01*
X0841781Y0345737D01*
Y0344688D01*
X0841256Y0344163D01*
X0848357Y0309558D02*
Y0312706D01*
X0846782D01*
X0846258Y0312181D01*
Y0311132D01*
X0846782Y0310607D01*
X0848357D01*
X0847307D02*
X0846258Y0309558D01*
X0845208D02*
X0844159D01*
X0844683D01*
Y0312706D01*
X0845208Y0312181D01*
X0832962Y0330384D02*
X0829813D01*
Y0332483D01*
Y0335632D02*
Y0333533D01*
X0831913Y0335632D01*
X0832437D01*
X0832962Y0335107D01*
Y0334058D01*
X0832437Y0333533D01*
X0823868Y0322265D02*
X0820719D01*
Y0324364D01*
Y0325413D02*
Y0326463D01*
Y0325938D01*
X0823868D01*
X0823343Y0325413D01*
X0816061Y0335528D02*
X0816586Y0336053D01*
X0817635D01*
X0818160Y0335528D01*
Y0333429D01*
X0817635Y0332904D01*
X0816586D01*
X0816061Y0333429D01*
X0815011Y0332904D02*
X0813962D01*
X0814487D01*
Y0336053D01*
X0815011Y0335528D01*
X0812387D02*
X0811863Y0336053D01*
X0810813D01*
X0810288Y0335528D01*
Y0333429D01*
X0810813Y0332904D01*
X0811863D01*
X0812387Y0333429D01*
Y0335528D01*
X0867977Y0345057D02*
X0867452Y0345582D01*
Y0346631D01*
X0867977Y0347156D01*
X0870076D01*
X0870601Y0346631D01*
Y0345582D01*
X0870076Y0345057D01*
Y0344007D02*
X0870601Y0343483D01*
Y0342433D01*
X0870076Y0341908D01*
X0867977D01*
X0867452Y0342433D01*
Y0343483D01*
X0867977Y0344007D01*
X0868502D01*
X0869026Y0343483D01*
Y0341908D01*
X0847321Y0354583D02*
X0847845Y0355108D01*
X0848895D01*
X0849420Y0354583D01*
Y0352484D01*
X0848895Y0351959D01*
X0847845D01*
X0847321Y0352484D01*
X0846271Y0354583D02*
X0845746Y0355108D01*
X0844697D01*
X0844172Y0354583D01*
Y0354058D01*
X0844697Y0353533D01*
X0844172Y0353009D01*
Y0352484D01*
X0844697Y0351959D01*
X0845746D01*
X0846271Y0352484D01*
Y0353009D01*
X0845746Y0353533D01*
X0846271Y0354058D01*
Y0354583D01*
X0845746Y0353533D02*
X0844697D01*
X0863961Y0345096D02*
X0863437Y0345621D01*
Y0346671D01*
X0863961Y0347195D01*
X0866060D01*
X0866585Y0346671D01*
Y0345621D01*
X0866060Y0345096D01*
X0863437Y0341948D02*
X0863961Y0342997D01*
X0865011Y0344047D01*
X0866060D01*
X0866585Y0343522D01*
Y0342473D01*
X0866060Y0341948D01*
X0865536D01*
X0865011Y0342473D01*
Y0344047D01*
X0861966Y0336237D02*
X0862491Y0336761D01*
X0863541D01*
X0864065Y0336237D01*
Y0334137D01*
X0863541Y0333613D01*
X0862491D01*
X0861966Y0334137D01*
X0858818Y0336761D02*
X0860917D01*
Y0335187D01*
X0859867Y0335712D01*
X0859342D01*
X0858818Y0335187D01*
Y0334137D01*
X0859342Y0333613D01*
X0860392D01*
X0860917Y0334137D01*
X0866494Y0340331D02*
X0867019Y0340856D01*
X0868068D01*
X0868593Y0340331D01*
Y0338232D01*
X0868068Y0337707D01*
X0867019D01*
X0866494Y0338232D01*
X0863870Y0337707D02*
Y0340856D01*
X0865444Y0339282D01*
X0863345D01*
X0846927Y0350213D02*
X0847452Y0350738D01*
X0848501D01*
X0849026Y0350213D01*
Y0348114D01*
X0848501Y0347589D01*
X0847452D01*
X0846927Y0348114D01*
X0845877Y0350213D02*
X0845353Y0350738D01*
X0844303D01*
X0843778Y0350213D01*
Y0349688D01*
X0844303Y0349163D01*
X0844828D01*
X0844303D01*
X0843778Y0348639D01*
Y0348114D01*
X0844303Y0347589D01*
X0845353D01*
X0845877Y0348114D01*
X0821297Y0331118D02*
X0821822Y0331643D01*
X0822871D01*
X0823396Y0331118D01*
Y0329019D01*
X0822871Y0328495D01*
X0821822D01*
X0821297Y0329019D01*
X0818149Y0328495D02*
X0820247D01*
X0818149Y0330594D01*
Y0331118D01*
X0818673Y0331643D01*
X0819723D01*
X0820247Y0331118D01*
X0839565Y0326630D02*
X0840090Y0327155D01*
X0841139D01*
X0841664Y0326630D01*
Y0324531D01*
X0841139Y0324006D01*
X0840090D01*
X0839565Y0324531D01*
X0838515Y0324006D02*
X0837466D01*
X0837990D01*
Y0327155D01*
X0838515Y0326630D01*
X0817884Y0446407D02*
Y0443258D01*
X0816310D01*
X0815785Y0443783D01*
Y0445882D01*
X0816310Y0446407D01*
X0817884D01*
X0814736Y0443258D02*
X0813686D01*
X0814211D01*
Y0446407D01*
X0814736Y0445882D01*
X0830903Y0469071D02*
X0831428Y0469596D01*
X0832478D01*
X0833002Y0469071D01*
Y0466972D01*
X0832478Y0466447D01*
X0831428D01*
X0830903Y0466972D01*
X0828279Y0469596D02*
X0829329D01*
X0829854Y0469071D01*
Y0466972D01*
X0829329Y0466447D01*
X0828279D01*
X0827755Y0466972D01*
Y0469071D01*
X0828279Y0469596D01*
X0826705Y0466447D02*
Y0469596D01*
X0824606Y0466447D01*
Y0469596D01*
X0821458Y0466447D02*
X0823557D01*
X0821458Y0468546D01*
Y0469071D01*
X0821982Y0469596D01*
X0823032D01*
X0823557Y0469071D01*
X0877805Y0425581D02*
X0874656Y0427680D01*
X0877805D02*
X0874656Y0425581D01*
Y0428730D02*
Y0429779D01*
Y0429254D01*
X0877805D01*
X0877280Y0428730D01*
X0866191Y0439123D02*
Y0436500D01*
X0865667Y0435975D01*
X0864617D01*
X0864092Y0436500D01*
Y0439123D01*
X0863043Y0435975D02*
X0861993D01*
X0862518D01*
Y0439123D01*
X0863043Y0438599D01*
X0836979Y0425462D02*
Y0422838D01*
X0836454Y0422313D01*
X0835404D01*
X0834880Y0422838D01*
Y0425462D01*
X0831731Y0422313D02*
X0833830D01*
X0831731Y0424412D01*
Y0424937D01*
X0832256Y0425462D01*
X0833305D01*
X0833830Y0424937D01*
X0865483Y0408927D02*
X0863384D01*
X0864433D01*
Y0405778D01*
X0862334D02*
X0861285D01*
X0861809D01*
Y0408927D01*
X0862334Y0408402D01*
X0834341Y0447313D02*
X0837490D01*
Y0448888D01*
X0836965Y0449412D01*
X0835915D01*
X0835390Y0448888D01*
Y0447313D01*
Y0448363D02*
X0834341Y0449412D01*
Y0450462D02*
Y0451512D01*
Y0450987D01*
X0837490D01*
X0836965Y0450462D01*
X0834341Y0453086D02*
Y0454135D01*
Y0453611D01*
X0837490D01*
X0836965Y0453086D01*
X0842058Y0411920D02*
Y0415068D01*
X0840483D01*
X0839958Y0414544D01*
Y0413494D01*
X0840483Y0412969D01*
X0842058D01*
X0841008D02*
X0839958Y0411920D01*
X0838909D02*
X0837859D01*
X0838384D01*
Y0415068D01*
X0838909Y0414544D01*
X0836285D02*
X0835760Y0415068D01*
X0834711D01*
X0834186Y0414544D01*
Y0412444D01*
X0834711Y0411920D01*
X0835760D01*
X0836285Y0412444D01*
Y0414544D01*
X0870916Y0412077D02*
Y0415226D01*
X0869341D01*
X0868817Y0414701D01*
Y0413652D01*
X0869341Y0413127D01*
X0870916D01*
X0869866D02*
X0868817Y0412077D01*
X0867767Y0412602D02*
X0867242Y0412077D01*
X0866193D01*
X0865668Y0412602D01*
Y0414701D01*
X0866193Y0415226D01*
X0867242D01*
X0867767Y0414701D01*
Y0414176D01*
X0867242Y0413652D01*
X0865668D01*
X0841979Y0407747D02*
Y0410895D01*
X0840405D01*
X0839880Y0410370D01*
Y0409321D01*
X0840405Y0408796D01*
X0841979D01*
X0840929D02*
X0839880Y0407747D01*
X0838830Y0410370D02*
X0838305Y0410895D01*
X0837256D01*
X0836731Y0410370D01*
Y0409846D01*
X0837256Y0409321D01*
X0836731Y0408796D01*
Y0408271D01*
X0837256Y0407747D01*
X0838305D01*
X0838830Y0408271D01*
Y0408796D01*
X0838305Y0409321D01*
X0838830Y0409846D01*
Y0410370D01*
X0838305Y0409321D02*
X0837256D01*
X0851309Y0403809D02*
Y0406958D01*
X0849735D01*
X0849210Y0406433D01*
Y0405384D01*
X0849735Y0404859D01*
X0851309D01*
X0850260D02*
X0849210Y0403809D01*
X0848161Y0406958D02*
X0846062D01*
Y0406433D01*
X0848161Y0404334D01*
Y0403809D01*
X0844853Y0447432D02*
X0848001D01*
Y0449006D01*
X0847477Y0449531D01*
X0846427D01*
X0845902Y0449006D01*
Y0447432D01*
Y0448481D02*
X0844853Y0449531D01*
X0848001Y0452679D02*
X0847477Y0451630D01*
X0846427Y0450580D01*
X0845378D01*
X0844853Y0451105D01*
Y0452154D01*
X0845378Y0452679D01*
X0845902D01*
X0846427Y0452154D01*
Y0450580D01*
X0838632Y0447313D02*
X0841781D01*
Y0448888D01*
X0841256Y0449412D01*
X0840207D01*
X0839682Y0448888D01*
Y0447313D01*
Y0448363D02*
X0838632Y0449412D01*
Y0452561D02*
Y0450462D01*
X0840731Y0452561D01*
X0841256D01*
X0841781Y0452036D01*
Y0450987D01*
X0841256Y0450462D01*
X0848357Y0415857D02*
Y0419005D01*
X0846782D01*
X0846258Y0418481D01*
Y0417431D01*
X0846782Y0416906D01*
X0848357D01*
X0847307D02*
X0846258Y0415857D01*
X0845208D02*
X0844159D01*
X0844683D01*
Y0419005D01*
X0845208Y0418481D01*
X0832962Y0436684D02*
X0829813D01*
Y0438783D01*
Y0441931D02*
Y0439832D01*
X0831913Y0441931D01*
X0832437D01*
X0832962Y0441406D01*
Y0440357D01*
X0832437Y0439832D01*
X0823868Y0428564D02*
X0820719D01*
Y0430663D01*
Y0431712D02*
Y0432762D01*
Y0432237D01*
X0823868D01*
X0823343Y0431712D01*
X0816061Y0441827D02*
X0816586Y0442352D01*
X0817635D01*
X0818160Y0441827D01*
Y0439728D01*
X0817635Y0439203D01*
X0816586D01*
X0816061Y0439728D01*
X0815011Y0439203D02*
X0813962D01*
X0814487D01*
Y0442352D01*
X0815011Y0441827D01*
X0812387D02*
X0811863Y0442352D01*
X0810813D01*
X0810288Y0441827D01*
Y0439728D01*
X0810813Y0439203D01*
X0811863D01*
X0812387Y0439728D01*
Y0441827D01*
X0867977Y0451356D02*
X0867452Y0451881D01*
Y0452930D01*
X0867977Y0453455D01*
X0870076D01*
X0870601Y0452930D01*
Y0451881D01*
X0870076Y0451356D01*
Y0450307D02*
X0870601Y0449782D01*
Y0448732D01*
X0870076Y0448208D01*
X0867977D01*
X0867452Y0448732D01*
Y0449782D01*
X0867977Y0450307D01*
X0868502D01*
X0869026Y0449782D01*
Y0448208D01*
X0847321Y0460882D02*
X0847845Y0461407D01*
X0848895D01*
X0849420Y0460882D01*
Y0458783D01*
X0848895Y0458258D01*
X0847845D01*
X0847321Y0458783D01*
X0846271Y0460882D02*
X0845746Y0461407D01*
X0844697D01*
X0844172Y0460882D01*
Y0460357D01*
X0844697Y0459833D01*
X0844172Y0459308D01*
Y0458783D01*
X0844697Y0458258D01*
X0845746D01*
X0846271Y0458783D01*
Y0459308D01*
X0845746Y0459833D01*
X0846271Y0460357D01*
Y0460882D01*
X0845746Y0459833D02*
X0844697D01*
X0863961Y0451396D02*
X0863437Y0451920D01*
Y0452970D01*
X0863961Y0453495D01*
X0866060D01*
X0866585Y0452970D01*
Y0451920D01*
X0866060Y0451396D01*
X0863437Y0448247D02*
X0863961Y0449297D01*
X0865011Y0450346D01*
X0866060D01*
X0866585Y0449821D01*
Y0448772D01*
X0866060Y0448247D01*
X0865536D01*
X0865011Y0448772D01*
Y0450346D01*
X0861966Y0442536D02*
X0862491Y0443060D01*
X0863541D01*
X0864065Y0442536D01*
Y0440437D01*
X0863541Y0439912D01*
X0862491D01*
X0861966Y0440437D01*
X0858818Y0443060D02*
X0860917D01*
Y0441486D01*
X0859867Y0442011D01*
X0859342D01*
X0858818Y0441486D01*
Y0440437D01*
X0859342Y0439912D01*
X0860392D01*
X0860917Y0440437D01*
X0866494Y0446630D02*
X0867019Y0447155D01*
X0868068D01*
X0868593Y0446630D01*
Y0444531D01*
X0868068Y0444006D01*
X0867019D01*
X0866494Y0444531D01*
X0863870Y0444006D02*
Y0447155D01*
X0865444Y0445581D01*
X0863345D01*
X0846927Y0456512D02*
X0847452Y0457037D01*
X0848501D01*
X0849026Y0456512D01*
Y0454413D01*
X0848501Y0453888D01*
X0847452D01*
X0846927Y0454413D01*
X0845877Y0456512D02*
X0845353Y0457037D01*
X0844303D01*
X0843778Y0456512D01*
Y0455987D01*
X0844303Y0455463D01*
X0844828D01*
X0844303D01*
X0843778Y0454938D01*
Y0454413D01*
X0844303Y0453888D01*
X0845353D01*
X0845877Y0454413D01*
X0821297Y0437418D02*
X0821822Y0437942D01*
X0822871D01*
X0823396Y0437418D01*
Y0435319D01*
X0822871Y0434794D01*
X0821822D01*
X0821297Y0435319D01*
X0818149Y0434794D02*
X0820247D01*
X0818149Y0436893D01*
Y0437418D01*
X0818673Y0437942D01*
X0819723D01*
X0820247Y0437418D01*
X0839565Y0432929D02*
X0840090Y0433454D01*
X0841139D01*
X0841664Y0432929D01*
Y0430830D01*
X0841139Y0430306D01*
X0840090D01*
X0839565Y0430830D01*
X0838515Y0430306D02*
X0837466D01*
X0837990D01*
Y0433454D01*
X0838515Y0432929D01*
X0817884Y0552706D02*
Y0549558D01*
X0816310D01*
X0815785Y0550082D01*
Y0552181D01*
X0816310Y0552706D01*
X0817884D01*
X0814736Y0549558D02*
X0813686D01*
X0814211D01*
Y0552706D01*
X0814736Y0552181D01*
X0830903Y0575370D02*
X0831428Y0575895D01*
X0832478D01*
X0833002Y0575370D01*
Y0573271D01*
X0832478Y0572747D01*
X0831428D01*
X0830903Y0573271D01*
X0828279Y0575895D02*
X0829329D01*
X0829854Y0575370D01*
Y0573271D01*
X0829329Y0572747D01*
X0828279D01*
X0827755Y0573271D01*
Y0575370D01*
X0828279Y0575895D01*
X0826705Y0572747D02*
Y0575895D01*
X0824606Y0572747D01*
Y0575895D01*
X0821458Y0572747D02*
X0823557D01*
X0821458Y0574846D01*
Y0575370D01*
X0821982Y0575895D01*
X0823032D01*
X0823557Y0575370D01*
X0877805Y0531880D02*
X0874656Y0533980D01*
X0877805D02*
X0874656Y0531880D01*
Y0535029D02*
Y0536079D01*
Y0535554D01*
X0877805D01*
X0877280Y0535029D01*
X0866191Y0545423D02*
Y0542799D01*
X0865667Y0542274D01*
X0864617D01*
X0864092Y0542799D01*
Y0545423D01*
X0863043Y0542274D02*
X0861993D01*
X0862518D01*
Y0545423D01*
X0863043Y0544898D01*
X0836979Y0531761D02*
Y0529137D01*
X0836454Y0528613D01*
X0835404D01*
X0834880Y0529137D01*
Y0531761D01*
X0831731Y0528613D02*
X0833830D01*
X0831731Y0530712D01*
Y0531237D01*
X0832256Y0531761D01*
X0833305D01*
X0833830Y0531237D01*
X0865483Y0515226D02*
X0863384D01*
X0864433D01*
Y0512077D01*
X0862334D02*
X0861285D01*
X0861809D01*
Y0515226D01*
X0862334Y0514701D01*
X0834341Y0553613D02*
X0837490D01*
Y0555187D01*
X0836965Y0555712D01*
X0835915D01*
X0835390Y0555187D01*
Y0553613D01*
Y0554662D02*
X0834341Y0555712D01*
Y0556761D02*
Y0557811D01*
Y0557286D01*
X0837490D01*
X0836965Y0556761D01*
X0834341Y0559385D02*
Y0560435D01*
Y0559910D01*
X0837490D01*
X0836965Y0559385D01*
X0842058Y0518219D02*
Y0521368D01*
X0840483D01*
X0839958Y0520843D01*
Y0519793D01*
X0840483Y0519269D01*
X0842058D01*
X0841008D02*
X0839958Y0518219D01*
X0838909D02*
X0837859D01*
X0838384D01*
Y0521368D01*
X0838909Y0520843D01*
X0836285D02*
X0835760Y0521368D01*
X0834711D01*
X0834186Y0520843D01*
Y0518744D01*
X0834711Y0518219D01*
X0835760D01*
X0836285Y0518744D01*
Y0520843D01*
X0870916Y0518376D02*
Y0521525D01*
X0869341D01*
X0868817Y0521000D01*
Y0519951D01*
X0869341Y0519426D01*
X0870916D01*
X0869866D02*
X0868817Y0518376D01*
X0867767Y0518901D02*
X0867242Y0518376D01*
X0866193D01*
X0865668Y0518901D01*
Y0521000D01*
X0866193Y0521525D01*
X0867242D01*
X0867767Y0521000D01*
Y0520475D01*
X0867242Y0519951D01*
X0865668D01*
X0841979Y0514046D02*
Y0517194D01*
X0840405D01*
X0839880Y0516670D01*
Y0515620D01*
X0840405Y0515095D01*
X0841979D01*
X0840929D02*
X0839880Y0514046D01*
X0838830Y0516670D02*
X0838305Y0517194D01*
X0837256D01*
X0836731Y0516670D01*
Y0516145D01*
X0837256Y0515620D01*
X0836731Y0515095D01*
Y0514571D01*
X0837256Y0514046D01*
X0838305D01*
X0838830Y0514571D01*
Y0515095D01*
X0838305Y0515620D01*
X0838830Y0516145D01*
Y0516670D01*
X0838305Y0515620D02*
X0837256D01*
X0851309Y0510109D02*
Y0513257D01*
X0849735D01*
X0849210Y0512733D01*
Y0511683D01*
X0849735Y0511158D01*
X0851309D01*
X0850260D02*
X0849210Y0510109D01*
X0848161Y0513257D02*
X0846062D01*
Y0512733D01*
X0848161Y0510634D01*
Y0510109D01*
X0844853Y0553731D02*
X0848001D01*
Y0555305D01*
X0847477Y0555830D01*
X0846427D01*
X0845902Y0555305D01*
Y0553731D01*
Y0554780D02*
X0844853Y0555830D01*
X0848001Y0558978D02*
X0847477Y0557929D01*
X0846427Y0556879D01*
X0845378D01*
X0844853Y0557404D01*
Y0558454D01*
X0845378Y0558978D01*
X0845902D01*
X0846427Y0558454D01*
Y0556879D01*
X0838632Y0553613D02*
X0841781D01*
Y0555187D01*
X0841256Y0555712D01*
X0840207D01*
X0839682Y0555187D01*
Y0553613D01*
Y0554662D02*
X0838632Y0555712D01*
Y0558860D02*
Y0556761D01*
X0840731Y0558860D01*
X0841256D01*
X0841781Y0558336D01*
Y0557286D01*
X0841256Y0556761D01*
X0848357Y0522156D02*
Y0525305D01*
X0846782D01*
X0846258Y0524780D01*
Y0523730D01*
X0846782Y0523206D01*
X0848357D01*
X0847307D02*
X0846258Y0522156D01*
X0845208D02*
X0844159D01*
X0844683D01*
Y0525305D01*
X0845208Y0524780D01*
X0832962Y0542983D02*
X0829813D01*
Y0545082D01*
Y0548230D02*
Y0546131D01*
X0831913Y0548230D01*
X0832437D01*
X0832962Y0547706D01*
Y0546656D01*
X0832437Y0546131D01*
X0823868Y0534863D02*
X0820719D01*
Y0536962D01*
Y0538012D02*
Y0539061D01*
Y0538537D01*
X0823868D01*
X0823343Y0538012D01*
X0816061Y0548126D02*
X0816586Y0548651D01*
X0817635D01*
X0818160Y0548126D01*
Y0546027D01*
X0817635Y0545503D01*
X0816586D01*
X0816061Y0546027D01*
X0815011Y0545503D02*
X0813962D01*
X0814487D01*
Y0548651D01*
X0815011Y0548126D01*
X0812387D02*
X0811863Y0548651D01*
X0810813D01*
X0810288Y0548126D01*
Y0546027D01*
X0810813Y0545503D01*
X0811863D01*
X0812387Y0546027D01*
Y0548126D01*
X0867977Y0557655D02*
X0867452Y0558180D01*
Y0559230D01*
X0867977Y0559754D01*
X0870076D01*
X0870601Y0559230D01*
Y0558180D01*
X0870076Y0557655D01*
Y0556606D02*
X0870601Y0556081D01*
Y0555031D01*
X0870076Y0554507D01*
X0867977D01*
X0867452Y0555031D01*
Y0556081D01*
X0867977Y0556606D01*
X0868502D01*
X0869026Y0556081D01*
Y0554507D01*
X0847321Y0567181D02*
X0847845Y0567706D01*
X0848895D01*
X0849420Y0567181D01*
Y0565082D01*
X0848895Y0564558D01*
X0847845D01*
X0847321Y0565082D01*
X0846271Y0567181D02*
X0845746Y0567706D01*
X0844697D01*
X0844172Y0567181D01*
Y0566657D01*
X0844697Y0566132D01*
X0844172Y0565607D01*
Y0565082D01*
X0844697Y0564558D01*
X0845746D01*
X0846271Y0565082D01*
Y0565607D01*
X0845746Y0566132D01*
X0846271Y0566657D01*
Y0567181D01*
X0845746Y0566132D02*
X0844697D01*
X0863961Y0557695D02*
X0863437Y0558219D01*
Y0559269D01*
X0863961Y0559794D01*
X0866060D01*
X0866585Y0559269D01*
Y0558219D01*
X0866060Y0557695D01*
X0863437Y0554546D02*
X0863961Y0555596D01*
X0865011Y0556645D01*
X0866060D01*
X0866585Y0556120D01*
Y0555071D01*
X0866060Y0554546D01*
X0865536D01*
X0865011Y0555071D01*
Y0556645D01*
X0861966Y0548835D02*
X0862491Y0549360D01*
X0863541D01*
X0864065Y0548835D01*
Y0546736D01*
X0863541Y0546211D01*
X0862491D01*
X0861966Y0546736D01*
X0858818Y0549360D02*
X0860917D01*
Y0547785D01*
X0859867Y0548310D01*
X0859342D01*
X0858818Y0547785D01*
Y0546736D01*
X0859342Y0546211D01*
X0860392D01*
X0860917Y0546736D01*
X0866494Y0552929D02*
X0867019Y0553454D01*
X0868068D01*
X0868593Y0552929D01*
Y0550830D01*
X0868068Y0550306D01*
X0867019D01*
X0866494Y0550830D01*
X0863870Y0550306D02*
Y0553454D01*
X0865444Y0551880D01*
X0863345D01*
X0846927Y0562811D02*
X0847452Y0563336D01*
X0848501D01*
X0849026Y0562811D01*
Y0560712D01*
X0848501Y0560187D01*
X0847452D01*
X0846927Y0560712D01*
X0845877Y0562811D02*
X0845353Y0563336D01*
X0844303D01*
X0843778Y0562811D01*
Y0562287D01*
X0844303Y0561762D01*
X0844828D01*
X0844303D01*
X0843778Y0561237D01*
Y0560712D01*
X0844303Y0560187D01*
X0845353D01*
X0845877Y0560712D01*
X0821297Y0543717D02*
X0821822Y0544242D01*
X0822871D01*
X0823396Y0543717D01*
Y0541618D01*
X0822871Y0541093D01*
X0821822D01*
X0821297Y0541618D01*
X0818149Y0541093D02*
X0820247D01*
X0818149Y0543192D01*
Y0543717D01*
X0818673Y0544242D01*
X0819723D01*
X0820247Y0543717D01*
X0839565Y0539229D02*
X0840090Y0539753D01*
X0841139D01*
X0841664Y0539229D01*
Y0537130D01*
X0841139Y0536605D01*
X0840090D01*
X0839565Y0537130D01*
X0838515Y0536605D02*
X0837466D01*
X0837990D01*
Y0539753D01*
X0838515Y0539229D01*
M02*
