G04*
G04 #@! TF.GenerationSoftware,Altium Limited,Altium Designer,19.0.15 (446)*
G04*
G04 Layer_Color=16711935*
%FSAX25Y25*%
%MOIN*%
G70*
G01*
G75*
%ADD21C,0.01000*%
%ADD23C,0.00787*%
%ADD27C,0.00984*%
%ADD63C,0.00394*%
%ADD64C,0.00591*%
%ADD111C,0.03150*%
%ADD112C,0.00472*%
%ADD113C,0.00197*%
G36*
X1075404Y0517101D02*
X1075463Y0517095D01*
X1075518Y0517084D01*
X1075566Y0517073D01*
X1075585Y0517068D01*
X1075605Y0517064D01*
X1075622Y0517058D01*
X1075638Y0517053D01*
X1075649Y0517049D01*
X1075657Y0517047D01*
X1075662Y0517044D01*
X1075664D01*
X1075723Y0517021D01*
X1075777Y0516992D01*
X1075830Y0516962D01*
X1075875Y0516933D01*
X1075895Y0516920D01*
X1075915Y0516907D01*
X1075930Y0516896D01*
X1075943Y0516888D01*
X1075954Y0516879D01*
X1075963Y0516872D01*
X1075967Y0516870D01*
X1075969Y0516868D01*
Y0516308D01*
X1075328D01*
Y0516487D01*
X1075773D01*
Y0516770D01*
X1075747Y0516792D01*
X1075716Y0516811D01*
X1075683Y0516829D01*
X1075653Y0516844D01*
X1075627Y0516857D01*
X1075603Y0516868D01*
X1075594Y0516872D01*
X1075590Y0516875D01*
X1075585Y0516877D01*
X1075583D01*
X1075537Y0516892D01*
X1075492Y0516905D01*
X1075450Y0516914D01*
X1075411Y0516918D01*
X1075378Y0516923D01*
X1075365D01*
X1075352Y0516925D01*
X1075330D01*
X1075276Y0516923D01*
X1075224Y0516914D01*
X1075175Y0516903D01*
X1075132Y0516892D01*
X1075097Y0516879D01*
X1075082Y0516875D01*
X1075071Y0516870D01*
X1075060Y0516866D01*
X1075053Y0516861D01*
X1075049Y0516859D01*
X1075047D01*
X1075001Y0516831D01*
X1074960Y0516800D01*
X1074925Y0516768D01*
X1074897Y0516735D01*
X1074872Y0516705D01*
X1074857Y0516680D01*
X1074851Y0516672D01*
X1074848Y0516665D01*
X1074844Y0516661D01*
Y0516659D01*
X1074822Y0516604D01*
X1074805Y0516547D01*
X1074794Y0516491D01*
X1074785Y0516436D01*
X1074783Y0516412D01*
X1074781Y0516391D01*
X1074779Y0516369D01*
Y0516351D01*
X1074777Y0516338D01*
Y0516327D01*
Y0516321D01*
Y0516319D01*
X1074779Y0516258D01*
X1074785Y0516203D01*
X1074794Y0516151D01*
X1074805Y0516105D01*
X1074809Y0516085D01*
X1074816Y0516068D01*
X1074820Y0516053D01*
X1074825Y0516040D01*
X1074829Y0516029D01*
X1074831Y0516022D01*
X1074833Y0516018D01*
Y0516016D01*
X1074848Y0515985D01*
X1074864Y0515957D01*
X1074879Y0515931D01*
X1074894Y0515909D01*
X1074907Y0515891D01*
X1074918Y0515876D01*
X1074927Y0515867D01*
X1074929Y0515865D01*
X1074953Y0515841D01*
X1074979Y0515819D01*
X1075008Y0515802D01*
X1075034Y0515785D01*
X1075056Y0515774D01*
X1075073Y0515763D01*
X1075086Y0515758D01*
X1075091Y0515756D01*
X1075130Y0515741D01*
X1075169Y0515730D01*
X1075210Y0515724D01*
X1075247Y0515717D01*
X1075280Y0515715D01*
X1075293D01*
X1075304Y0515713D01*
X1075328D01*
X1075369Y0515715D01*
X1075409Y0515719D01*
X1075444Y0515726D01*
X1075474Y0515732D01*
X1075500Y0515741D01*
X1075520Y0515747D01*
X1075531Y0515752D01*
X1075535Y0515754D01*
X1075568Y0515769D01*
X1075596Y0515787D01*
X1075622Y0515804D01*
X1075642Y0515822D01*
X1075657Y0515837D01*
X1075670Y0515848D01*
X1075677Y0515857D01*
X1075679Y0515859D01*
X1075699Y0515885D01*
X1075714Y0515915D01*
X1075729Y0515944D01*
X1075742Y0515974D01*
X1075751Y0516000D01*
X1075758Y0516020D01*
X1075760Y0516029D01*
X1075762Y0516035D01*
X1075764Y0516037D01*
Y0516040D01*
X1075945Y0515992D01*
X1075930Y0515937D01*
X1075910Y0515889D01*
X1075891Y0515846D01*
X1075873Y0515811D01*
X1075856Y0515782D01*
X1075843Y0515763D01*
X1075834Y0515750D01*
X1075830Y0515745D01*
X1075799Y0515710D01*
X1075766Y0515682D01*
X1075731Y0515656D01*
X1075699Y0515634D01*
X1075668Y0515619D01*
X1075644Y0515606D01*
X1075636Y0515601D01*
X1075629Y0515599D01*
X1075625Y0515597D01*
X1075622D01*
X1075572Y0515580D01*
X1075520Y0515566D01*
X1075472Y0515556D01*
X1075426Y0515549D01*
X1075385Y0515545D01*
X1075367D01*
X1075354Y0515543D01*
X1075284D01*
X1075245Y0515547D01*
X1075169Y0515558D01*
X1075134Y0515564D01*
X1075101Y0515573D01*
X1075071Y0515580D01*
X1075043Y0515588D01*
X1075016Y0515597D01*
X1074995Y0515606D01*
X1074975Y0515615D01*
X1074957Y0515621D01*
X1074944Y0515627D01*
X1074936Y0515632D01*
X1074929Y0515634D01*
X1074927Y0515636D01*
X1074897Y0515656D01*
X1074866Y0515675D01*
X1074814Y0515721D01*
X1074768Y0515767D01*
X1074731Y0515815D01*
X1074700Y0515857D01*
X1074689Y0515874D01*
X1074681Y0515891D01*
X1074672Y0515904D01*
X1074668Y0515913D01*
X1074665Y0515920D01*
X1074663Y0515922D01*
X1074633Y0515994D01*
X1074611Y0516066D01*
X1074594Y0516136D01*
X1074589Y0516168D01*
X1074583Y0516199D01*
X1074580Y0516227D01*
X1074576Y0516251D01*
X1074574Y0516275D01*
Y0516295D01*
X1074572Y0516310D01*
Y0516321D01*
Y0516329D01*
Y0516332D01*
X1074576Y0516412D01*
X1074587Y0516489D01*
X1074594Y0516524D01*
X1074600Y0516556D01*
X1074609Y0516589D01*
X1074617Y0516617D01*
X1074626Y0516643D01*
X1074635Y0516665D01*
X1074641Y0516687D01*
X1074648Y0516702D01*
X1074654Y0516718D01*
X1074659Y0516726D01*
X1074663Y0516733D01*
Y0516735D01*
X1074702Y0516798D01*
X1074746Y0516853D01*
X1074792Y0516901D01*
X1074835Y0516940D01*
X1074877Y0516970D01*
X1074892Y0516981D01*
X1074907Y0516992D01*
X1074920Y0516999D01*
X1074929Y0517005D01*
X1074936Y0517007D01*
X1074938Y0517010D01*
X1074973Y0517027D01*
X1075008Y0517040D01*
X1075077Y0517064D01*
X1075145Y0517079D01*
X1075208Y0517093D01*
X1075237Y0517095D01*
X1075263Y0517099D01*
X1075287Y0517101D01*
X1075306D01*
X1075322Y0517103D01*
X1075343D01*
X1075404Y0517101D01*
D02*
G37*
G36*
X1074072Y0515562D02*
X1073952D01*
X1073931Y0515599D01*
X1073907Y0515634D01*
X1073878Y0515669D01*
X1073852Y0515699D01*
X1073826Y0515726D01*
X1073806Y0515747D01*
X1073798Y0515754D01*
X1073791Y0515761D01*
X1073789Y0515763D01*
X1073787Y0515765D01*
X1073741Y0515802D01*
X1073695Y0515837D01*
X1073652Y0515867D01*
X1073608Y0515891D01*
X1073571Y0515913D01*
X1073556Y0515922D01*
X1073543Y0515928D01*
X1073532Y0515935D01*
X1073523Y0515937D01*
X1073519Y0515941D01*
X1073516D01*
Y0516120D01*
X1073549Y0516107D01*
X1073582Y0516092D01*
X1073615Y0516077D01*
X1073645Y0516061D01*
X1073671Y0516048D01*
X1073693Y0516037D01*
X1073706Y0516029D01*
X1073708Y0516026D01*
X1073711D01*
X1073750Y0516003D01*
X1073785Y0515978D01*
X1073815Y0515957D01*
X1073839Y0515937D01*
X1073861Y0515922D01*
X1073874Y0515909D01*
X1073885Y0515900D01*
X1073887Y0515898D01*
Y0517077D01*
X1074072D01*
Y0515562D01*
D02*
G37*
G36*
X1065730Y0515569D02*
X1065538D01*
Y0516755D01*
X1064746Y0515569D01*
X1064542D01*
Y0517077D01*
X1064733D01*
Y0515894D01*
X1065522Y0517077D01*
X1065730D01*
Y0515569D01*
D02*
G37*
G36*
X1070482Y0516898D02*
X1069739D01*
X1069765Y0516861D01*
X1069778Y0516846D01*
X1069789Y0516831D01*
X1069800Y0516818D01*
X1069808Y0516809D01*
X1069815Y0516803D01*
X1069817Y0516800D01*
X1069828Y0516789D01*
X1069841Y0516779D01*
X1069872Y0516750D01*
X1069907Y0516718D01*
X1069944Y0516685D01*
X1069978Y0516656D01*
X1069994Y0516643D01*
X1070007Y0516630D01*
X1070018Y0516622D01*
X1070026Y0516615D01*
X1070031Y0516611D01*
X1070033Y0516609D01*
X1070068Y0516578D01*
X1070103Y0516550D01*
X1070133Y0516521D01*
X1070162Y0516497D01*
X1070188Y0516473D01*
X1070210Y0516452D01*
X1070231Y0516432D01*
X1070249Y0516414D01*
X1070266Y0516397D01*
X1070279Y0516384D01*
X1070290Y0516373D01*
X1070301Y0516362D01*
X1070312Y0516349D01*
X1070316Y0516345D01*
X1070347Y0516308D01*
X1070373Y0516275D01*
X1070395Y0516242D01*
X1070412Y0516216D01*
X1070425Y0516192D01*
X1070434Y0516175D01*
X1070438Y0516164D01*
X1070441Y0516159D01*
X1070454Y0516127D01*
X1070462Y0516094D01*
X1070471Y0516064D01*
X1070475Y0516037D01*
X1070478Y0516013D01*
X1070480Y0515996D01*
Y0515985D01*
Y0515981D01*
X1070478Y0515948D01*
X1070473Y0515917D01*
X1070469Y0515887D01*
X1070460Y0515861D01*
X1070438Y0515808D01*
X1070417Y0515767D01*
X1070403Y0515747D01*
X1070393Y0515732D01*
X1070382Y0515717D01*
X1070371Y0515706D01*
X1070362Y0515697D01*
X1070358Y0515689D01*
X1070353Y0515686D01*
X1070351Y0515684D01*
X1070327Y0515662D01*
X1070301Y0515643D01*
X1070273Y0515627D01*
X1070244Y0515615D01*
X1070188Y0515593D01*
X1070131Y0515577D01*
X1070107Y0515573D01*
X1070083Y0515569D01*
X1070061Y0515566D01*
X1070044Y0515564D01*
X1070028Y0515562D01*
X1070007D01*
X1069967Y0515564D01*
X1069930Y0515566D01*
X1069896Y0515573D01*
X1069863Y0515580D01*
X1069832Y0515588D01*
X1069804Y0515597D01*
X1069778Y0515608D01*
X1069754Y0515619D01*
X1069732Y0515630D01*
X1069715Y0515641D01*
X1069699Y0515649D01*
X1069686Y0515658D01*
X1069675Y0515665D01*
X1069669Y0515671D01*
X1069664Y0515673D01*
X1069662Y0515675D01*
X1069641Y0515697D01*
X1069621Y0515721D01*
X1069601Y0515747D01*
X1069586Y0515774D01*
X1069560Y0515826D01*
X1069542Y0515878D01*
X1069536Y0515902D01*
X1069529Y0515926D01*
X1069525Y0515946D01*
X1069521Y0515963D01*
X1069518Y0515978D01*
Y0515989D01*
X1069516Y0515996D01*
Y0515998D01*
X1069706Y0516018D01*
X1069710Y0515968D01*
X1069719Y0515924D01*
X1069732Y0515885D01*
X1069747Y0515854D01*
X1069760Y0515828D01*
X1069773Y0515811D01*
X1069782Y0515800D01*
X1069787Y0515795D01*
X1069819Y0515769D01*
X1069854Y0515750D01*
X1069891Y0515734D01*
X1069924Y0515726D01*
X1069954Y0515719D01*
X1069981Y0515717D01*
X1069989Y0515715D01*
X1070002D01*
X1070048Y0515717D01*
X1070090Y0515726D01*
X1070125Y0515739D01*
X1070155Y0515752D01*
X1070179Y0515767D01*
X1070194Y0515778D01*
X1070205Y0515787D01*
X1070210Y0515791D01*
X1070236Y0515822D01*
X1070255Y0515852D01*
X1070271Y0515883D01*
X1070279Y0515913D01*
X1070286Y0515937D01*
X1070288Y0515959D01*
X1070290Y0515972D01*
Y0515974D01*
Y0515976D01*
X1070286Y0516016D01*
X1070277Y0516057D01*
X1070262Y0516094D01*
X1070247Y0516129D01*
X1070229Y0516157D01*
X1070214Y0516181D01*
X1070210Y0516190D01*
X1070205Y0516196D01*
X1070201Y0516199D01*
Y0516201D01*
X1070183Y0516225D01*
X1070162Y0516249D01*
X1070138Y0516275D01*
X1070111Y0516301D01*
X1070057Y0516354D01*
X1070002Y0516406D01*
X1069974Y0516430D01*
X1069950Y0516452D01*
X1069926Y0516471D01*
X1069907Y0516489D01*
X1069891Y0516502D01*
X1069878Y0516513D01*
X1069869Y0516519D01*
X1069867Y0516521D01*
X1069813Y0516567D01*
X1069763Y0516611D01*
X1069721Y0516650D01*
X1069689Y0516683D01*
X1069660Y0516711D01*
X1069641Y0516731D01*
X1069630Y0516744D01*
X1069625Y0516746D01*
Y0516748D01*
X1069595Y0516785D01*
X1069571Y0516820D01*
X1069549Y0516855D01*
X1069532Y0516885D01*
X1069518Y0516912D01*
X1069510Y0516931D01*
X1069505Y0516944D01*
X1069503Y0516947D01*
Y0516949D01*
X1069494Y0516973D01*
X1069490Y0516994D01*
X1069486Y0517016D01*
X1069483Y0517036D01*
X1069481Y0517053D01*
Y0517066D01*
Y0517075D01*
Y0517077D01*
X1070482D01*
Y0516898D01*
D02*
G37*
G36*
X1064269D02*
X1063526D01*
X1063552Y0516861D01*
X1063565Y0516846D01*
X1063576Y0516831D01*
X1063587Y0516818D01*
X1063595Y0516809D01*
X1063602Y0516803D01*
X1063604Y0516800D01*
X1063615Y0516789D01*
X1063628Y0516779D01*
X1063659Y0516750D01*
X1063694Y0516718D01*
X1063731Y0516685D01*
X1063765Y0516656D01*
X1063781Y0516643D01*
X1063794Y0516630D01*
X1063805Y0516622D01*
X1063813Y0516615D01*
X1063818Y0516611D01*
X1063820Y0516609D01*
X1063855Y0516578D01*
X1063890Y0516550D01*
X1063920Y0516521D01*
X1063949Y0516497D01*
X1063975Y0516473D01*
X1063997Y0516452D01*
X1064018Y0516432D01*
X1064036Y0516414D01*
X1064053Y0516397D01*
X1064066Y0516384D01*
X1064077Y0516373D01*
X1064088Y0516362D01*
X1064099Y0516349D01*
X1064103Y0516345D01*
X1064134Y0516308D01*
X1064160Y0516275D01*
X1064182Y0516242D01*
X1064199Y0516216D01*
X1064212Y0516192D01*
X1064221Y0516175D01*
X1064225Y0516164D01*
X1064228Y0516159D01*
X1064241Y0516127D01*
X1064249Y0516094D01*
X1064258Y0516064D01*
X1064262Y0516037D01*
X1064265Y0516013D01*
X1064267Y0515996D01*
Y0515985D01*
Y0515981D01*
X1064265Y0515948D01*
X1064260Y0515917D01*
X1064256Y0515887D01*
X1064247Y0515861D01*
X1064225Y0515808D01*
X1064204Y0515767D01*
X1064190Y0515747D01*
X1064180Y0515732D01*
X1064169Y0515717D01*
X1064158Y0515706D01*
X1064149Y0515697D01*
X1064145Y0515689D01*
X1064140Y0515686D01*
X1064138Y0515684D01*
X1064114Y0515662D01*
X1064088Y0515643D01*
X1064060Y0515627D01*
X1064031Y0515615D01*
X1063975Y0515593D01*
X1063918Y0515577D01*
X1063894Y0515573D01*
X1063870Y0515569D01*
X1063848Y0515566D01*
X1063831Y0515564D01*
X1063816Y0515562D01*
X1063794D01*
X1063754Y0515564D01*
X1063717Y0515566D01*
X1063683Y0515573D01*
X1063650Y0515580D01*
X1063619Y0515588D01*
X1063591Y0515597D01*
X1063565Y0515608D01*
X1063541Y0515619D01*
X1063519Y0515630D01*
X1063502Y0515641D01*
X1063486Y0515649D01*
X1063473Y0515658D01*
X1063462Y0515665D01*
X1063456Y0515671D01*
X1063451Y0515673D01*
X1063449Y0515675D01*
X1063428Y0515697D01*
X1063408Y0515721D01*
X1063388Y0515747D01*
X1063373Y0515774D01*
X1063347Y0515826D01*
X1063329Y0515878D01*
X1063323Y0515902D01*
X1063316Y0515926D01*
X1063312Y0515946D01*
X1063308Y0515963D01*
X1063305Y0515978D01*
Y0515989D01*
X1063303Y0515996D01*
Y0515998D01*
X1063493Y0516018D01*
X1063497Y0515968D01*
X1063506Y0515924D01*
X1063519Y0515885D01*
X1063534Y0515854D01*
X1063547Y0515828D01*
X1063560Y0515811D01*
X1063569Y0515800D01*
X1063574Y0515795D01*
X1063606Y0515769D01*
X1063641Y0515750D01*
X1063678Y0515734D01*
X1063711Y0515726D01*
X1063741Y0515719D01*
X1063768Y0515717D01*
X1063776Y0515715D01*
X1063789D01*
X1063835Y0515717D01*
X1063877Y0515726D01*
X1063912Y0515739D01*
X1063942Y0515752D01*
X1063966Y0515767D01*
X1063981Y0515778D01*
X1063992Y0515787D01*
X1063997Y0515791D01*
X1064023Y0515822D01*
X1064042Y0515852D01*
X1064058Y0515883D01*
X1064066Y0515913D01*
X1064073Y0515937D01*
X1064075Y0515959D01*
X1064077Y0515972D01*
Y0515974D01*
Y0515976D01*
X1064073Y0516016D01*
X1064064Y0516057D01*
X1064049Y0516094D01*
X1064034Y0516129D01*
X1064016Y0516157D01*
X1064001Y0516181D01*
X1063997Y0516190D01*
X1063992Y0516196D01*
X1063988Y0516199D01*
Y0516201D01*
X1063970Y0516225D01*
X1063949Y0516249D01*
X1063925Y0516275D01*
X1063898Y0516301D01*
X1063844Y0516354D01*
X1063789Y0516406D01*
X1063761Y0516430D01*
X1063737Y0516452D01*
X1063713Y0516471D01*
X1063694Y0516489D01*
X1063678Y0516502D01*
X1063665Y0516513D01*
X1063656Y0516519D01*
X1063654Y0516521D01*
X1063600Y0516567D01*
X1063550Y0516611D01*
X1063508Y0516650D01*
X1063476Y0516683D01*
X1063447Y0516711D01*
X1063428Y0516731D01*
X1063417Y0516744D01*
X1063412Y0516746D01*
Y0516748D01*
X1063382Y0516785D01*
X1063358Y0516820D01*
X1063336Y0516855D01*
X1063319Y0516885D01*
X1063305Y0516912D01*
X1063297Y0516931D01*
X1063292Y0516944D01*
X1063290Y0516947D01*
Y0516949D01*
X1063282Y0516973D01*
X1063277Y0516994D01*
X1063273Y0517016D01*
X1063271Y0517036D01*
X1063268Y0517053D01*
Y0517066D01*
Y0517075D01*
Y0517077D01*
X1064269D01*
Y0516898D01*
D02*
G37*
G36*
X1066410Y0516994D02*
X1066421Y0516918D01*
X1066432Y0516848D01*
X1066438Y0516816D01*
X1066445Y0516785D01*
X1066449Y0516759D01*
X1066455Y0516735D01*
X1066460Y0516713D01*
X1066464Y0516696D01*
X1066469Y0516683D01*
X1066471Y0516672D01*
X1066473Y0516665D01*
Y0516663D01*
X1066506Y0516563D01*
X1066541Y0516469D01*
X1066558Y0516423D01*
X1066575Y0516380D01*
X1066595Y0516340D01*
X1066613Y0516301D01*
X1066628Y0516266D01*
X1066643Y0516236D01*
X1066656Y0516210D01*
X1066667Y0516186D01*
X1066678Y0516166D01*
X1066684Y0516153D01*
X1066689Y0516144D01*
X1066691Y0516142D01*
X1066717Y0516096D01*
X1066743Y0516050D01*
X1066769Y0516009D01*
X1066796Y0515970D01*
X1066820Y0515935D01*
X1066844Y0515900D01*
X1066868Y0515870D01*
X1066887Y0515843D01*
X1066907Y0515817D01*
X1066924Y0515795D01*
X1066942Y0515778D01*
X1066955Y0515763D01*
X1066963Y0515750D01*
X1066972Y0515741D01*
X1066977Y0515736D01*
X1066979Y0515734D01*
Y0515588D01*
X1066002D01*
Y0515767D01*
X1066741D01*
X1066689Y0515830D01*
X1066639Y0515898D01*
X1066595Y0515963D01*
X1066554Y0516026D01*
X1066536Y0516055D01*
X1066521Y0516081D01*
X1066506Y0516105D01*
X1066495Y0516125D01*
X1066486Y0516142D01*
X1066479Y0516153D01*
X1066475Y0516162D01*
X1066473Y0516164D01*
X1066429Y0516251D01*
X1066390Y0516338D01*
X1066357Y0516421D01*
X1066344Y0516458D01*
X1066331Y0516495D01*
X1066318Y0516528D01*
X1066310Y0516558D01*
X1066301Y0516585D01*
X1066294Y0516606D01*
X1066288Y0516626D01*
X1066283Y0516639D01*
X1066281Y0516648D01*
Y0516650D01*
X1066259Y0516739D01*
X1066251Y0516783D01*
X1066244Y0516822D01*
X1066238Y0516859D01*
X1066231Y0516896D01*
X1066227Y0516927D01*
X1066222Y0516957D01*
X1066220Y0516984D01*
X1066218Y0517007D01*
X1066216Y0517029D01*
Y0517047D01*
X1066214Y0517060D01*
Y0517068D01*
Y0517075D01*
Y0517077D01*
X1066403D01*
X1066410Y0516994D01*
D02*
G37*
G36*
X1072747Y0515747D02*
X1073244D01*
Y0515569D01*
X1072049D01*
Y0515747D01*
X1072546D01*
Y0517077D01*
X1072747D01*
Y0515747D01*
D02*
G37*
G36*
X1071886Y0516898D02*
X1070959D01*
Y0516386D01*
X1071794D01*
Y0516207D01*
X1070959D01*
Y0515747D01*
X1071851D01*
Y0515569D01*
X1070759D01*
Y0517077D01*
X1071886D01*
Y0516898D01*
D02*
G37*
G36*
X1068886Y0517099D02*
X1068941Y0517090D01*
X1068987Y0517075D01*
X1069026Y0517060D01*
X1069059Y0517044D01*
X1069069Y0517036D01*
X1069080Y0517029D01*
X1069089Y0517025D01*
X1069096Y0517021D01*
X1069098Y0517016D01*
X1069100D01*
X1069139Y0516979D01*
X1069172Y0516940D01*
X1069200Y0516896D01*
X1069222Y0516857D01*
X1069239Y0516820D01*
X1069248Y0516805D01*
X1069252Y0516789D01*
X1069257Y0516779D01*
X1069261Y0516770D01*
X1069263Y0516765D01*
Y0516763D01*
X1069274Y0516731D01*
X1069283Y0516698D01*
X1069296Y0516628D01*
X1069307Y0516556D01*
X1069314Y0516487D01*
X1069316Y0516456D01*
X1069318Y0516428D01*
Y0516401D01*
X1069320Y0516377D01*
Y0516360D01*
Y0516345D01*
Y0516336D01*
Y0516334D01*
Y0516292D01*
X1069318Y0516253D01*
Y0516218D01*
X1069316Y0516183D01*
X1069311Y0516153D01*
X1069309Y0516122D01*
X1069307Y0516096D01*
X1069303Y0516072D01*
X1069300Y0516050D01*
X1069296Y0516031D01*
X1069294Y0516016D01*
X1069292Y0516003D01*
X1069289Y0515992D01*
X1069287Y0515985D01*
X1069285Y0515981D01*
Y0515978D01*
X1069272Y0515931D01*
X1069257Y0515887D01*
X1069239Y0515850D01*
X1069226Y0515817D01*
X1069211Y0515789D01*
X1069202Y0515769D01*
X1069194Y0515758D01*
X1069191Y0515754D01*
X1069167Y0515721D01*
X1069143Y0515693D01*
X1069117Y0515669D01*
X1069093Y0515647D01*
X1069071Y0515632D01*
X1069054Y0515621D01*
X1069043Y0515615D01*
X1069041Y0515612D01*
X1069039D01*
X1069004Y0515595D01*
X1068967Y0515584D01*
X1068932Y0515575D01*
X1068899Y0515569D01*
X1068871Y0515564D01*
X1068847Y0515562D01*
X1068827D01*
X1068769Y0515566D01*
X1068714Y0515575D01*
X1068668Y0515590D01*
X1068629Y0515606D01*
X1068596Y0515623D01*
X1068583Y0515630D01*
X1068572Y0515638D01*
X1068564Y0515643D01*
X1068557Y0515647D01*
X1068555Y0515652D01*
X1068553D01*
X1068513Y0515686D01*
X1068481Y0515728D01*
X1068452Y0515769D01*
X1068431Y0515808D01*
X1068413Y0515846D01*
X1068404Y0515861D01*
X1068400Y0515876D01*
X1068396Y0515887D01*
X1068391Y0515896D01*
X1068389Y0515900D01*
Y0515902D01*
X1068381Y0515935D01*
X1068372Y0515968D01*
X1068359Y0516040D01*
X1068348Y0516112D01*
X1068341Y0516179D01*
X1068339Y0516212D01*
X1068337Y0516240D01*
Y0516266D01*
X1068335Y0516290D01*
Y0516308D01*
Y0516323D01*
Y0516332D01*
Y0516334D01*
X1068337Y0516410D01*
X1068341Y0516482D01*
X1068348Y0516547D01*
X1068359Y0516609D01*
X1068370Y0516665D01*
X1068383Y0516715D01*
X1068396Y0516761D01*
X1068409Y0516800D01*
X1068422Y0516835D01*
X1068437Y0516866D01*
X1068448Y0516892D01*
X1068459Y0516912D01*
X1068470Y0516929D01*
X1068476Y0516940D01*
X1068481Y0516947D01*
X1068483Y0516949D01*
X1068507Y0516975D01*
X1068533Y0516999D01*
X1068561Y0517021D01*
X1068590Y0517038D01*
X1068618Y0517053D01*
X1068646Y0517066D01*
X1068675Y0517075D01*
X1068701Y0517084D01*
X1068727Y0517090D01*
X1068751Y0517095D01*
X1068773Y0517099D01*
X1068790Y0517101D01*
X1068806Y0517103D01*
X1068827D01*
X1068886Y0517099D01*
D02*
G37*
G36*
X1067713D02*
X1067768Y0517090D01*
X1067814Y0517075D01*
X1067853Y0517060D01*
X1067886Y0517044D01*
X1067896Y0517036D01*
X1067907Y0517029D01*
X1067916Y0517025D01*
X1067923Y0517021D01*
X1067925Y0517016D01*
X1067927D01*
X1067966Y0516979D01*
X1067999Y0516940D01*
X1068027Y0516896D01*
X1068049Y0516857D01*
X1068067Y0516820D01*
X1068075Y0516805D01*
X1068080Y0516789D01*
X1068084Y0516779D01*
X1068088Y0516770D01*
X1068091Y0516765D01*
Y0516763D01*
X1068101Y0516731D01*
X1068110Y0516698D01*
X1068123Y0516628D01*
X1068134Y0516556D01*
X1068141Y0516487D01*
X1068143Y0516456D01*
X1068145Y0516428D01*
Y0516401D01*
X1068147Y0516377D01*
Y0516360D01*
Y0516345D01*
Y0516336D01*
Y0516334D01*
Y0516292D01*
X1068145Y0516253D01*
Y0516218D01*
X1068143Y0516183D01*
X1068139Y0516153D01*
X1068136Y0516122D01*
X1068134Y0516096D01*
X1068130Y0516072D01*
X1068128Y0516050D01*
X1068123Y0516031D01*
X1068121Y0516016D01*
X1068119Y0516003D01*
X1068117Y0515992D01*
X1068114Y0515985D01*
X1068112Y0515981D01*
Y0515978D01*
X1068099Y0515931D01*
X1068084Y0515887D01*
X1068067Y0515850D01*
X1068054Y0515817D01*
X1068038Y0515789D01*
X1068029Y0515769D01*
X1068021Y0515758D01*
X1068019Y0515754D01*
X1067995Y0515721D01*
X1067971Y0515693D01*
X1067945Y0515669D01*
X1067920Y0515647D01*
X1067899Y0515632D01*
X1067881Y0515621D01*
X1067870Y0515615D01*
X1067868Y0515612D01*
X1067866D01*
X1067831Y0515595D01*
X1067794Y0515584D01*
X1067759Y0515575D01*
X1067727Y0515569D01*
X1067698Y0515564D01*
X1067674Y0515562D01*
X1067655D01*
X1067596Y0515566D01*
X1067541Y0515575D01*
X1067495Y0515590D01*
X1067456Y0515606D01*
X1067424Y0515623D01*
X1067410Y0515630D01*
X1067400Y0515638D01*
X1067391Y0515643D01*
X1067384Y0515647D01*
X1067382Y0515652D01*
X1067380D01*
X1067341Y0515686D01*
X1067308Y0515728D01*
X1067280Y0515769D01*
X1067258Y0515808D01*
X1067240Y0515846D01*
X1067232Y0515861D01*
X1067227Y0515876D01*
X1067223Y0515887D01*
X1067218Y0515896D01*
X1067216Y0515900D01*
Y0515902D01*
X1067208Y0515935D01*
X1067199Y0515968D01*
X1067186Y0516040D01*
X1067175Y0516112D01*
X1067168Y0516179D01*
X1067166Y0516212D01*
X1067164Y0516240D01*
Y0516266D01*
X1067162Y0516290D01*
Y0516308D01*
Y0516323D01*
Y0516332D01*
Y0516334D01*
X1067164Y0516410D01*
X1067168Y0516482D01*
X1067175Y0516547D01*
X1067186Y0516609D01*
X1067197Y0516665D01*
X1067210Y0516715D01*
X1067223Y0516761D01*
X1067236Y0516800D01*
X1067249Y0516835D01*
X1067264Y0516866D01*
X1067275Y0516892D01*
X1067286Y0516912D01*
X1067297Y0516929D01*
X1067303Y0516940D01*
X1067308Y0516947D01*
X1067310Y0516949D01*
X1067334Y0516975D01*
X1067360Y0516999D01*
X1067389Y0517021D01*
X1067417Y0517038D01*
X1067445Y0517053D01*
X1067474Y0517066D01*
X1067502Y0517075D01*
X1067528Y0517084D01*
X1067554Y0517090D01*
X1067578Y0517095D01*
X1067600Y0517099D01*
X1067618Y0517101D01*
X1067633Y0517103D01*
X1067655D01*
X1067713Y0517099D01*
D02*
G37*
G36*
X1075404Y0410802D02*
X1075463Y0410795D01*
X1075518Y0410785D01*
X1075566Y0410774D01*
X1075585Y0410769D01*
X1075605Y0410765D01*
X1075622Y0410758D01*
X1075638Y0410754D01*
X1075649Y0410750D01*
X1075657Y0410747D01*
X1075662Y0410745D01*
X1075664D01*
X1075723Y0410721D01*
X1075777Y0410693D01*
X1075830Y0410663D01*
X1075875Y0410634D01*
X1075895Y0410621D01*
X1075915Y0410608D01*
X1075930Y0410597D01*
X1075943Y0410588D01*
X1075954Y0410580D01*
X1075963Y0410573D01*
X1075967Y0410571D01*
X1075969Y0410569D01*
Y0410008D01*
X1075328D01*
Y0410187D01*
X1075773D01*
Y0410471D01*
X1075747Y0410493D01*
X1075716Y0410512D01*
X1075683Y0410530D01*
X1075653Y0410545D01*
X1075627Y0410558D01*
X1075603Y0410569D01*
X1075594Y0410573D01*
X1075590Y0410575D01*
X1075585Y0410577D01*
X1075583D01*
X1075537Y0410593D01*
X1075492Y0410606D01*
X1075450Y0410614D01*
X1075411Y0410619D01*
X1075378Y0410623D01*
X1075365D01*
X1075352Y0410625D01*
X1075330D01*
X1075276Y0410623D01*
X1075224Y0410614D01*
X1075175Y0410604D01*
X1075132Y0410593D01*
X1075097Y0410580D01*
X1075082Y0410575D01*
X1075071Y0410571D01*
X1075060Y0410567D01*
X1075053Y0410562D01*
X1075049Y0410560D01*
X1075047D01*
X1075001Y0410532D01*
X1074960Y0410501D01*
X1074925Y0410468D01*
X1074897Y0410436D01*
X1074872Y0410405D01*
X1074857Y0410381D01*
X1074851Y0410372D01*
X1074848Y0410366D01*
X1074844Y0410362D01*
Y0410359D01*
X1074822Y0410305D01*
X1074805Y0410248D01*
X1074794Y0410192D01*
X1074785Y0410137D01*
X1074783Y0410113D01*
X1074781Y0410091D01*
X1074779Y0410070D01*
Y0410052D01*
X1074777Y0410039D01*
Y0410028D01*
Y0410022D01*
Y0410019D01*
X1074779Y0409958D01*
X1074785Y0409904D01*
X1074794Y0409852D01*
X1074805Y0409806D01*
X1074809Y0409786D01*
X1074816Y0409769D01*
X1074820Y0409753D01*
X1074825Y0409740D01*
X1074829Y0409729D01*
X1074831Y0409723D01*
X1074833Y0409719D01*
Y0409716D01*
X1074848Y0409686D01*
X1074864Y0409657D01*
X1074879Y0409631D01*
X1074894Y0409610D01*
X1074907Y0409592D01*
X1074918Y0409577D01*
X1074927Y0409568D01*
X1074929Y0409566D01*
X1074953Y0409542D01*
X1074979Y0409520D01*
X1075008Y0409503D01*
X1075034Y0409485D01*
X1075056Y0409474D01*
X1075073Y0409464D01*
X1075086Y0409459D01*
X1075091Y0409457D01*
X1075130Y0409442D01*
X1075169Y0409431D01*
X1075210Y0409424D01*
X1075247Y0409418D01*
X1075280Y0409415D01*
X1075293D01*
X1075304Y0409413D01*
X1075328D01*
X1075369Y0409415D01*
X1075409Y0409420D01*
X1075444Y0409426D01*
X1075474Y0409433D01*
X1075500Y0409442D01*
X1075520Y0409448D01*
X1075531Y0409453D01*
X1075535Y0409455D01*
X1075568Y0409470D01*
X1075596Y0409487D01*
X1075622Y0409505D01*
X1075642Y0409522D01*
X1075657Y0409538D01*
X1075670Y0409549D01*
X1075677Y0409557D01*
X1075679Y0409559D01*
X1075699Y0409586D01*
X1075714Y0409616D01*
X1075729Y0409644D01*
X1075742Y0409675D01*
X1075751Y0409701D01*
X1075758Y0409721D01*
X1075760Y0409729D01*
X1075762Y0409736D01*
X1075764Y0409738D01*
Y0409740D01*
X1075945Y0409692D01*
X1075930Y0409638D01*
X1075910Y0409590D01*
X1075891Y0409546D01*
X1075873Y0409512D01*
X1075856Y0409483D01*
X1075843Y0409464D01*
X1075834Y0409450D01*
X1075830Y0409446D01*
X1075799Y0409411D01*
X1075766Y0409383D01*
X1075731Y0409357D01*
X1075699Y0409335D01*
X1075668Y0409320D01*
X1075644Y0409306D01*
X1075636Y0409302D01*
X1075629Y0409300D01*
X1075625Y0409298D01*
X1075622D01*
X1075572Y0409280D01*
X1075520Y0409267D01*
X1075472Y0409256D01*
X1075426Y0409250D01*
X1075385Y0409245D01*
X1075367D01*
X1075354Y0409243D01*
X1075284D01*
X1075245Y0409248D01*
X1075169Y0409259D01*
X1075134Y0409265D01*
X1075101Y0409274D01*
X1075071Y0409280D01*
X1075043Y0409289D01*
X1075016Y0409298D01*
X1074995Y0409306D01*
X1074975Y0409315D01*
X1074957Y0409322D01*
X1074944Y0409328D01*
X1074936Y0409333D01*
X1074929Y0409335D01*
X1074927Y0409337D01*
X1074897Y0409357D01*
X1074866Y0409376D01*
X1074814Y0409422D01*
X1074768Y0409468D01*
X1074731Y0409516D01*
X1074700Y0409557D01*
X1074689Y0409575D01*
X1074681Y0409592D01*
X1074672Y0409605D01*
X1074668Y0409614D01*
X1074665Y0409620D01*
X1074663Y0409623D01*
X1074633Y0409695D01*
X1074611Y0409766D01*
X1074594Y0409836D01*
X1074589Y0409869D01*
X1074583Y0409900D01*
X1074580Y0409928D01*
X1074576Y0409952D01*
X1074574Y0409976D01*
Y0409995D01*
X1074572Y0410011D01*
Y0410022D01*
Y0410030D01*
Y0410033D01*
X1074576Y0410113D01*
X1074587Y0410189D01*
X1074594Y0410224D01*
X1074600Y0410257D01*
X1074609Y0410290D01*
X1074617Y0410318D01*
X1074626Y0410344D01*
X1074635Y0410366D01*
X1074641Y0410388D01*
X1074648Y0410403D01*
X1074654Y0410418D01*
X1074659Y0410427D01*
X1074663Y0410434D01*
Y0410436D01*
X1074702Y0410499D01*
X1074746Y0410554D01*
X1074792Y0410602D01*
X1074835Y0410641D01*
X1074877Y0410671D01*
X1074892Y0410682D01*
X1074907Y0410693D01*
X1074920Y0410700D01*
X1074929Y0410706D01*
X1074936Y0410708D01*
X1074938Y0410710D01*
X1074973Y0410728D01*
X1075008Y0410741D01*
X1075077Y0410765D01*
X1075145Y0410780D01*
X1075208Y0410793D01*
X1075237Y0410795D01*
X1075263Y0410800D01*
X1075287Y0410802D01*
X1075306D01*
X1075322Y0410804D01*
X1075343D01*
X1075404Y0410802D01*
D02*
G37*
G36*
X1074072Y0409263D02*
X1073952D01*
X1073931Y0409300D01*
X1073907Y0409335D01*
X1073878Y0409370D01*
X1073852Y0409400D01*
X1073826Y0409426D01*
X1073806Y0409448D01*
X1073798Y0409455D01*
X1073791Y0409461D01*
X1073789Y0409464D01*
X1073787Y0409466D01*
X1073741Y0409503D01*
X1073695Y0409538D01*
X1073652Y0409568D01*
X1073608Y0409592D01*
X1073571Y0409614D01*
X1073556Y0409623D01*
X1073543Y0409629D01*
X1073532Y0409636D01*
X1073523Y0409638D01*
X1073519Y0409642D01*
X1073516D01*
Y0409821D01*
X1073549Y0409808D01*
X1073582Y0409793D01*
X1073615Y0409777D01*
X1073645Y0409762D01*
X1073671Y0409749D01*
X1073693Y0409738D01*
X1073706Y0409729D01*
X1073708Y0409727D01*
X1073711D01*
X1073750Y0409703D01*
X1073785Y0409679D01*
X1073815Y0409657D01*
X1073839Y0409638D01*
X1073861Y0409623D01*
X1073874Y0409610D01*
X1073885Y0409601D01*
X1073887Y0409599D01*
Y0410778D01*
X1074072D01*
Y0409263D01*
D02*
G37*
G36*
X1065730Y0409270D02*
X1065538D01*
Y0410455D01*
X1064746Y0409270D01*
X1064542D01*
Y0410778D01*
X1064733D01*
Y0409594D01*
X1065522Y0410778D01*
X1065730D01*
Y0409270D01*
D02*
G37*
G36*
X1070482Y0410599D02*
X1069739D01*
X1069765Y0410562D01*
X1069778Y0410547D01*
X1069789Y0410532D01*
X1069800Y0410519D01*
X1069808Y0410510D01*
X1069815Y0410503D01*
X1069817Y0410501D01*
X1069828Y0410490D01*
X1069841Y0410479D01*
X1069872Y0410451D01*
X1069907Y0410418D01*
X1069944Y0410386D01*
X1069978Y0410357D01*
X1069994Y0410344D01*
X1070007Y0410331D01*
X1070018Y0410322D01*
X1070026Y0410316D01*
X1070031Y0410312D01*
X1070033Y0410309D01*
X1070068Y0410279D01*
X1070103Y0410251D01*
X1070133Y0410222D01*
X1070162Y0410198D01*
X1070188Y0410174D01*
X1070210Y0410152D01*
X1070231Y0410133D01*
X1070249Y0410115D01*
X1070266Y0410098D01*
X1070279Y0410085D01*
X1070290Y0410074D01*
X1070301Y0410063D01*
X1070312Y0410050D01*
X1070316Y0410046D01*
X1070347Y0410008D01*
X1070373Y0409976D01*
X1070395Y0409943D01*
X1070412Y0409917D01*
X1070425Y0409893D01*
X1070434Y0409875D01*
X1070438Y0409865D01*
X1070441Y0409860D01*
X1070454Y0409828D01*
X1070462Y0409795D01*
X1070471Y0409764D01*
X1070475Y0409738D01*
X1070478Y0409714D01*
X1070480Y0409697D01*
Y0409686D01*
Y0409682D01*
X1070478Y0409649D01*
X1070473Y0409618D01*
X1070469Y0409588D01*
X1070460Y0409562D01*
X1070438Y0409509D01*
X1070417Y0409468D01*
X1070403Y0409448D01*
X1070393Y0409433D01*
X1070382Y0409418D01*
X1070371Y0409407D01*
X1070362Y0409398D01*
X1070358Y0409389D01*
X1070353Y0409387D01*
X1070351Y0409385D01*
X1070327Y0409363D01*
X1070301Y0409344D01*
X1070273Y0409328D01*
X1070244Y0409315D01*
X1070188Y0409293D01*
X1070131Y0409278D01*
X1070107Y0409274D01*
X1070083Y0409270D01*
X1070061Y0409267D01*
X1070044Y0409265D01*
X1070028Y0409263D01*
X1070007D01*
X1069967Y0409265D01*
X1069930Y0409267D01*
X1069896Y0409274D01*
X1069863Y0409280D01*
X1069832Y0409289D01*
X1069804Y0409298D01*
X1069778Y0409309D01*
X1069754Y0409320D01*
X1069732Y0409331D01*
X1069715Y0409341D01*
X1069699Y0409350D01*
X1069686Y0409359D01*
X1069675Y0409365D01*
X1069669Y0409372D01*
X1069664Y0409374D01*
X1069662Y0409376D01*
X1069641Y0409398D01*
X1069621Y0409422D01*
X1069601Y0409448D01*
X1069586Y0409474D01*
X1069560Y0409527D01*
X1069542Y0409579D01*
X1069536Y0409603D01*
X1069529Y0409627D01*
X1069525Y0409647D01*
X1069521Y0409664D01*
X1069518Y0409679D01*
Y0409690D01*
X1069516Y0409697D01*
Y0409699D01*
X1069706Y0409719D01*
X1069710Y0409668D01*
X1069719Y0409625D01*
X1069732Y0409586D01*
X1069747Y0409555D01*
X1069760Y0409529D01*
X1069773Y0409512D01*
X1069782Y0409501D01*
X1069787Y0409496D01*
X1069819Y0409470D01*
X1069854Y0409450D01*
X1069891Y0409435D01*
X1069924Y0409426D01*
X1069954Y0409420D01*
X1069981Y0409418D01*
X1069989Y0409415D01*
X1070002D01*
X1070048Y0409418D01*
X1070090Y0409426D01*
X1070125Y0409440D01*
X1070155Y0409453D01*
X1070179Y0409468D01*
X1070194Y0409479D01*
X1070205Y0409487D01*
X1070210Y0409492D01*
X1070236Y0409522D01*
X1070255Y0409553D01*
X1070271Y0409583D01*
X1070279Y0409614D01*
X1070286Y0409638D01*
X1070288Y0409660D01*
X1070290Y0409673D01*
Y0409675D01*
Y0409677D01*
X1070286Y0409716D01*
X1070277Y0409758D01*
X1070262Y0409795D01*
X1070247Y0409830D01*
X1070229Y0409858D01*
X1070214Y0409882D01*
X1070210Y0409891D01*
X1070205Y0409897D01*
X1070201Y0409900D01*
Y0409902D01*
X1070183Y0409926D01*
X1070162Y0409950D01*
X1070138Y0409976D01*
X1070111Y0410002D01*
X1070057Y0410054D01*
X1070002Y0410107D01*
X1069974Y0410131D01*
X1069950Y0410152D01*
X1069926Y0410172D01*
X1069907Y0410189D01*
X1069891Y0410203D01*
X1069878Y0410213D01*
X1069869Y0410220D01*
X1069867Y0410222D01*
X1069813Y0410268D01*
X1069763Y0410312D01*
X1069721Y0410351D01*
X1069689Y0410383D01*
X1069660Y0410412D01*
X1069641Y0410431D01*
X1069630Y0410444D01*
X1069625Y0410447D01*
Y0410449D01*
X1069595Y0410486D01*
X1069571Y0410521D01*
X1069549Y0410556D01*
X1069532Y0410586D01*
X1069518Y0410612D01*
X1069510Y0410632D01*
X1069505Y0410645D01*
X1069503Y0410647D01*
Y0410649D01*
X1069494Y0410673D01*
X1069490Y0410695D01*
X1069486Y0410717D01*
X1069483Y0410737D01*
X1069481Y0410754D01*
Y0410767D01*
Y0410776D01*
Y0410778D01*
X1070482D01*
Y0410599D01*
D02*
G37*
G36*
X1064269D02*
X1063526D01*
X1063552Y0410562D01*
X1063565Y0410547D01*
X1063576Y0410532D01*
X1063587Y0410519D01*
X1063595Y0410510D01*
X1063602Y0410503D01*
X1063604Y0410501D01*
X1063615Y0410490D01*
X1063628Y0410479D01*
X1063659Y0410451D01*
X1063694Y0410418D01*
X1063731Y0410386D01*
X1063765Y0410357D01*
X1063781Y0410344D01*
X1063794Y0410331D01*
X1063805Y0410322D01*
X1063813Y0410316D01*
X1063818Y0410312D01*
X1063820Y0410309D01*
X1063855Y0410279D01*
X1063890Y0410251D01*
X1063920Y0410222D01*
X1063949Y0410198D01*
X1063975Y0410174D01*
X1063997Y0410152D01*
X1064018Y0410133D01*
X1064036Y0410115D01*
X1064053Y0410098D01*
X1064066Y0410085D01*
X1064077Y0410074D01*
X1064088Y0410063D01*
X1064099Y0410050D01*
X1064103Y0410046D01*
X1064134Y0410008D01*
X1064160Y0409976D01*
X1064182Y0409943D01*
X1064199Y0409917D01*
X1064212Y0409893D01*
X1064221Y0409875D01*
X1064225Y0409865D01*
X1064228Y0409860D01*
X1064241Y0409828D01*
X1064249Y0409795D01*
X1064258Y0409764D01*
X1064262Y0409738D01*
X1064265Y0409714D01*
X1064267Y0409697D01*
Y0409686D01*
Y0409682D01*
X1064265Y0409649D01*
X1064260Y0409618D01*
X1064256Y0409588D01*
X1064247Y0409562D01*
X1064225Y0409509D01*
X1064204Y0409468D01*
X1064190Y0409448D01*
X1064180Y0409433D01*
X1064169Y0409418D01*
X1064158Y0409407D01*
X1064149Y0409398D01*
X1064145Y0409389D01*
X1064140Y0409387D01*
X1064138Y0409385D01*
X1064114Y0409363D01*
X1064088Y0409344D01*
X1064060Y0409328D01*
X1064031Y0409315D01*
X1063975Y0409293D01*
X1063918Y0409278D01*
X1063894Y0409274D01*
X1063870Y0409270D01*
X1063848Y0409267D01*
X1063831Y0409265D01*
X1063816Y0409263D01*
X1063794D01*
X1063754Y0409265D01*
X1063717Y0409267D01*
X1063683Y0409274D01*
X1063650Y0409280D01*
X1063619Y0409289D01*
X1063591Y0409298D01*
X1063565Y0409309D01*
X1063541Y0409320D01*
X1063519Y0409331D01*
X1063502Y0409341D01*
X1063486Y0409350D01*
X1063473Y0409359D01*
X1063462Y0409365D01*
X1063456Y0409372D01*
X1063451Y0409374D01*
X1063449Y0409376D01*
X1063428Y0409398D01*
X1063408Y0409422D01*
X1063388Y0409448D01*
X1063373Y0409474D01*
X1063347Y0409527D01*
X1063329Y0409579D01*
X1063323Y0409603D01*
X1063316Y0409627D01*
X1063312Y0409647D01*
X1063308Y0409664D01*
X1063305Y0409679D01*
Y0409690D01*
X1063303Y0409697D01*
Y0409699D01*
X1063493Y0409719D01*
X1063497Y0409668D01*
X1063506Y0409625D01*
X1063519Y0409586D01*
X1063534Y0409555D01*
X1063547Y0409529D01*
X1063560Y0409512D01*
X1063569Y0409501D01*
X1063574Y0409496D01*
X1063606Y0409470D01*
X1063641Y0409450D01*
X1063678Y0409435D01*
X1063711Y0409426D01*
X1063741Y0409420D01*
X1063768Y0409418D01*
X1063776Y0409415D01*
X1063789D01*
X1063835Y0409418D01*
X1063877Y0409426D01*
X1063912Y0409440D01*
X1063942Y0409453D01*
X1063966Y0409468D01*
X1063981Y0409479D01*
X1063992Y0409487D01*
X1063997Y0409492D01*
X1064023Y0409522D01*
X1064042Y0409553D01*
X1064058Y0409583D01*
X1064066Y0409614D01*
X1064073Y0409638D01*
X1064075Y0409660D01*
X1064077Y0409673D01*
Y0409675D01*
Y0409677D01*
X1064073Y0409716D01*
X1064064Y0409758D01*
X1064049Y0409795D01*
X1064034Y0409830D01*
X1064016Y0409858D01*
X1064001Y0409882D01*
X1063997Y0409891D01*
X1063992Y0409897D01*
X1063988Y0409900D01*
Y0409902D01*
X1063970Y0409926D01*
X1063949Y0409950D01*
X1063925Y0409976D01*
X1063898Y0410002D01*
X1063844Y0410054D01*
X1063789Y0410107D01*
X1063761Y0410131D01*
X1063737Y0410152D01*
X1063713Y0410172D01*
X1063694Y0410189D01*
X1063678Y0410203D01*
X1063665Y0410213D01*
X1063656Y0410220D01*
X1063654Y0410222D01*
X1063600Y0410268D01*
X1063550Y0410312D01*
X1063508Y0410351D01*
X1063476Y0410383D01*
X1063447Y0410412D01*
X1063428Y0410431D01*
X1063417Y0410444D01*
X1063412Y0410447D01*
Y0410449D01*
X1063382Y0410486D01*
X1063358Y0410521D01*
X1063336Y0410556D01*
X1063319Y0410586D01*
X1063305Y0410612D01*
X1063297Y0410632D01*
X1063292Y0410645D01*
X1063290Y0410647D01*
Y0410649D01*
X1063282Y0410673D01*
X1063277Y0410695D01*
X1063273Y0410717D01*
X1063271Y0410737D01*
X1063268Y0410754D01*
Y0410767D01*
Y0410776D01*
Y0410778D01*
X1064269D01*
Y0410599D01*
D02*
G37*
G36*
X1066410Y0410695D02*
X1066421Y0410619D01*
X1066432Y0410549D01*
X1066438Y0410516D01*
X1066445Y0410486D01*
X1066449Y0410460D01*
X1066455Y0410436D01*
X1066460Y0410414D01*
X1066464Y0410396D01*
X1066469Y0410383D01*
X1066471Y0410372D01*
X1066473Y0410366D01*
Y0410364D01*
X1066506Y0410264D01*
X1066541Y0410170D01*
X1066558Y0410124D01*
X1066575Y0410080D01*
X1066595Y0410041D01*
X1066613Y0410002D01*
X1066628Y0409967D01*
X1066643Y0409937D01*
X1066656Y0409910D01*
X1066667Y0409886D01*
X1066678Y0409867D01*
X1066684Y0409854D01*
X1066689Y0409845D01*
X1066691Y0409843D01*
X1066717Y0409797D01*
X1066743Y0409751D01*
X1066769Y0409710D01*
X1066796Y0409671D01*
X1066820Y0409636D01*
X1066844Y0409601D01*
X1066868Y0409570D01*
X1066887Y0409544D01*
X1066907Y0409518D01*
X1066924Y0409496D01*
X1066942Y0409479D01*
X1066955Y0409464D01*
X1066963Y0409450D01*
X1066972Y0409442D01*
X1066977Y0409437D01*
X1066979Y0409435D01*
Y0409289D01*
X1066002D01*
Y0409468D01*
X1066741D01*
X1066689Y0409531D01*
X1066639Y0409599D01*
X1066595Y0409664D01*
X1066554Y0409727D01*
X1066536Y0409756D01*
X1066521Y0409782D01*
X1066506Y0409806D01*
X1066495Y0409825D01*
X1066486Y0409843D01*
X1066479Y0409854D01*
X1066475Y0409862D01*
X1066473Y0409865D01*
X1066429Y0409952D01*
X1066390Y0410039D01*
X1066357Y0410122D01*
X1066344Y0410159D01*
X1066331Y0410196D01*
X1066318Y0410229D01*
X1066310Y0410259D01*
X1066301Y0410285D01*
X1066294Y0410307D01*
X1066288Y0410327D01*
X1066283Y0410340D01*
X1066281Y0410349D01*
Y0410351D01*
X1066259Y0410440D01*
X1066251Y0410484D01*
X1066244Y0410523D01*
X1066238Y0410560D01*
X1066231Y0410597D01*
X1066227Y0410628D01*
X1066222Y0410658D01*
X1066220Y0410684D01*
X1066218Y0410708D01*
X1066216Y0410730D01*
Y0410747D01*
X1066214Y0410761D01*
Y0410769D01*
Y0410776D01*
Y0410778D01*
X1066403D01*
X1066410Y0410695D01*
D02*
G37*
G36*
X1072747Y0409448D02*
X1073244D01*
Y0409270D01*
X1072049D01*
Y0409448D01*
X1072546D01*
Y0410778D01*
X1072747D01*
Y0409448D01*
D02*
G37*
G36*
X1071886Y0410599D02*
X1070959D01*
Y0410087D01*
X1071794D01*
Y0409908D01*
X1070959D01*
Y0409448D01*
X1071851D01*
Y0409270D01*
X1070759D01*
Y0410778D01*
X1071886D01*
Y0410599D01*
D02*
G37*
G36*
X1068886Y0410800D02*
X1068941Y0410791D01*
X1068987Y0410776D01*
X1069026Y0410761D01*
X1069059Y0410745D01*
X1069069Y0410737D01*
X1069080Y0410730D01*
X1069089Y0410726D01*
X1069096Y0410721D01*
X1069098Y0410717D01*
X1069100D01*
X1069139Y0410680D01*
X1069172Y0410641D01*
X1069200Y0410597D01*
X1069222Y0410558D01*
X1069239Y0410521D01*
X1069248Y0410505D01*
X1069252Y0410490D01*
X1069257Y0410479D01*
X1069261Y0410471D01*
X1069263Y0410466D01*
Y0410464D01*
X1069274Y0410431D01*
X1069283Y0410399D01*
X1069296Y0410329D01*
X1069307Y0410257D01*
X1069314Y0410187D01*
X1069316Y0410157D01*
X1069318Y0410128D01*
Y0410102D01*
X1069320Y0410078D01*
Y0410061D01*
Y0410046D01*
Y0410037D01*
Y0410035D01*
Y0409993D01*
X1069318Y0409954D01*
Y0409919D01*
X1069316Y0409884D01*
X1069311Y0409854D01*
X1069309Y0409823D01*
X1069307Y0409797D01*
X1069303Y0409773D01*
X1069300Y0409751D01*
X1069296Y0409732D01*
X1069294Y0409716D01*
X1069292Y0409703D01*
X1069289Y0409692D01*
X1069287Y0409686D01*
X1069285Y0409682D01*
Y0409679D01*
X1069272Y0409631D01*
X1069257Y0409588D01*
X1069239Y0409551D01*
X1069226Y0409518D01*
X1069211Y0409490D01*
X1069202Y0409470D01*
X1069194Y0409459D01*
X1069191Y0409455D01*
X1069167Y0409422D01*
X1069143Y0409394D01*
X1069117Y0409370D01*
X1069093Y0409348D01*
X1069071Y0409333D01*
X1069054Y0409322D01*
X1069043Y0409315D01*
X1069041Y0409313D01*
X1069039D01*
X1069004Y0409296D01*
X1068967Y0409285D01*
X1068932Y0409276D01*
X1068899Y0409270D01*
X1068871Y0409265D01*
X1068847Y0409263D01*
X1068827D01*
X1068769Y0409267D01*
X1068714Y0409276D01*
X1068668Y0409291D01*
X1068629Y0409306D01*
X1068596Y0409324D01*
X1068583Y0409331D01*
X1068572Y0409339D01*
X1068564Y0409344D01*
X1068557Y0409348D01*
X1068555Y0409352D01*
X1068553D01*
X1068513Y0409387D01*
X1068481Y0409429D01*
X1068452Y0409470D01*
X1068431Y0409509D01*
X1068413Y0409546D01*
X1068404Y0409562D01*
X1068400Y0409577D01*
X1068396Y0409588D01*
X1068391Y0409596D01*
X1068389Y0409601D01*
Y0409603D01*
X1068381Y0409636D01*
X1068372Y0409668D01*
X1068359Y0409740D01*
X1068348Y0409812D01*
X1068341Y0409880D01*
X1068339Y0409913D01*
X1068337Y0409941D01*
Y0409967D01*
X1068335Y0409991D01*
Y0410008D01*
Y0410024D01*
Y0410033D01*
Y0410035D01*
X1068337Y0410111D01*
X1068341Y0410183D01*
X1068348Y0410248D01*
X1068359Y0410309D01*
X1068370Y0410366D01*
X1068383Y0410416D01*
X1068396Y0410462D01*
X1068409Y0410501D01*
X1068422Y0410536D01*
X1068437Y0410567D01*
X1068448Y0410593D01*
X1068459Y0410612D01*
X1068470Y0410630D01*
X1068476Y0410641D01*
X1068481Y0410647D01*
X1068483Y0410649D01*
X1068507Y0410676D01*
X1068533Y0410700D01*
X1068561Y0410721D01*
X1068590Y0410739D01*
X1068618Y0410754D01*
X1068646Y0410767D01*
X1068675Y0410776D01*
X1068701Y0410785D01*
X1068727Y0410791D01*
X1068751Y0410795D01*
X1068773Y0410800D01*
X1068790Y0410802D01*
X1068806Y0410804D01*
X1068827D01*
X1068886Y0410800D01*
D02*
G37*
G36*
X1067713D02*
X1067768Y0410791D01*
X1067814Y0410776D01*
X1067853Y0410761D01*
X1067886Y0410745D01*
X1067896Y0410737D01*
X1067907Y0410730D01*
X1067916Y0410726D01*
X1067923Y0410721D01*
X1067925Y0410717D01*
X1067927D01*
X1067966Y0410680D01*
X1067999Y0410641D01*
X1068027Y0410597D01*
X1068049Y0410558D01*
X1068067Y0410521D01*
X1068075Y0410505D01*
X1068080Y0410490D01*
X1068084Y0410479D01*
X1068088Y0410471D01*
X1068091Y0410466D01*
Y0410464D01*
X1068101Y0410431D01*
X1068110Y0410399D01*
X1068123Y0410329D01*
X1068134Y0410257D01*
X1068141Y0410187D01*
X1068143Y0410157D01*
X1068145Y0410128D01*
Y0410102D01*
X1068147Y0410078D01*
Y0410061D01*
Y0410046D01*
Y0410037D01*
Y0410035D01*
Y0409993D01*
X1068145Y0409954D01*
Y0409919D01*
X1068143Y0409884D01*
X1068139Y0409854D01*
X1068136Y0409823D01*
X1068134Y0409797D01*
X1068130Y0409773D01*
X1068128Y0409751D01*
X1068123Y0409732D01*
X1068121Y0409716D01*
X1068119Y0409703D01*
X1068117Y0409692D01*
X1068114Y0409686D01*
X1068112Y0409682D01*
Y0409679D01*
X1068099Y0409631D01*
X1068084Y0409588D01*
X1068067Y0409551D01*
X1068054Y0409518D01*
X1068038Y0409490D01*
X1068029Y0409470D01*
X1068021Y0409459D01*
X1068019Y0409455D01*
X1067995Y0409422D01*
X1067971Y0409394D01*
X1067945Y0409370D01*
X1067920Y0409348D01*
X1067899Y0409333D01*
X1067881Y0409322D01*
X1067870Y0409315D01*
X1067868Y0409313D01*
X1067866D01*
X1067831Y0409296D01*
X1067794Y0409285D01*
X1067759Y0409276D01*
X1067727Y0409270D01*
X1067698Y0409265D01*
X1067674Y0409263D01*
X1067655D01*
X1067596Y0409267D01*
X1067541Y0409276D01*
X1067495Y0409291D01*
X1067456Y0409306D01*
X1067424Y0409324D01*
X1067410Y0409331D01*
X1067400Y0409339D01*
X1067391Y0409344D01*
X1067384Y0409348D01*
X1067382Y0409352D01*
X1067380D01*
X1067341Y0409387D01*
X1067308Y0409429D01*
X1067280Y0409470D01*
X1067258Y0409509D01*
X1067240Y0409546D01*
X1067232Y0409562D01*
X1067227Y0409577D01*
X1067223Y0409588D01*
X1067218Y0409596D01*
X1067216Y0409601D01*
Y0409603D01*
X1067208Y0409636D01*
X1067199Y0409668D01*
X1067186Y0409740D01*
X1067175Y0409812D01*
X1067168Y0409880D01*
X1067166Y0409913D01*
X1067164Y0409941D01*
Y0409967D01*
X1067162Y0409991D01*
Y0410008D01*
Y0410024D01*
Y0410033D01*
Y0410035D01*
X1067164Y0410111D01*
X1067168Y0410183D01*
X1067175Y0410248D01*
X1067186Y0410309D01*
X1067197Y0410366D01*
X1067210Y0410416D01*
X1067223Y0410462D01*
X1067236Y0410501D01*
X1067249Y0410536D01*
X1067264Y0410567D01*
X1067275Y0410593D01*
X1067286Y0410612D01*
X1067297Y0410630D01*
X1067303Y0410641D01*
X1067308Y0410647D01*
X1067310Y0410649D01*
X1067334Y0410676D01*
X1067360Y0410700D01*
X1067389Y0410721D01*
X1067417Y0410739D01*
X1067445Y0410754D01*
X1067474Y0410767D01*
X1067502Y0410776D01*
X1067528Y0410785D01*
X1067554Y0410791D01*
X1067578Y0410795D01*
X1067600Y0410800D01*
X1067618Y0410802D01*
X1067633Y0410804D01*
X1067655D01*
X1067713Y0410800D01*
D02*
G37*
G36*
X1075404Y0304503D02*
X1075463Y0304496D01*
X1075518Y0304485D01*
X1075566Y0304474D01*
X1075585Y0304470D01*
X1075605Y0304466D01*
X1075622Y0304459D01*
X1075638Y0304455D01*
X1075649Y0304450D01*
X1075657Y0304448D01*
X1075662Y0304446D01*
X1075664D01*
X1075723Y0304422D01*
X1075777Y0304394D01*
X1075830Y0304363D01*
X1075875Y0304335D01*
X1075895Y0304322D01*
X1075915Y0304309D01*
X1075930Y0304298D01*
X1075943Y0304289D01*
X1075954Y0304280D01*
X1075963Y0304274D01*
X1075967Y0304272D01*
X1075969Y0304270D01*
Y0303709D01*
X1075328D01*
Y0303888D01*
X1075773D01*
Y0304171D01*
X1075747Y0304193D01*
X1075716Y0304213D01*
X1075683Y0304230D01*
X1075653Y0304246D01*
X1075627Y0304259D01*
X1075603Y0304270D01*
X1075594Y0304274D01*
X1075590Y0304276D01*
X1075585Y0304278D01*
X1075583D01*
X1075537Y0304293D01*
X1075492Y0304307D01*
X1075450Y0304315D01*
X1075411Y0304320D01*
X1075378Y0304324D01*
X1075365D01*
X1075352Y0304326D01*
X1075330D01*
X1075276Y0304324D01*
X1075224Y0304315D01*
X1075175Y0304304D01*
X1075132Y0304293D01*
X1075097Y0304280D01*
X1075082Y0304276D01*
X1075071Y0304272D01*
X1075060Y0304267D01*
X1075053Y0304263D01*
X1075049Y0304261D01*
X1075047D01*
X1075001Y0304233D01*
X1074960Y0304202D01*
X1074925Y0304169D01*
X1074897Y0304136D01*
X1074872Y0304106D01*
X1074857Y0304082D01*
X1074851Y0304073D01*
X1074848Y0304067D01*
X1074844Y0304062D01*
Y0304060D01*
X1074822Y0304006D01*
X1074805Y0303949D01*
X1074794Y0303892D01*
X1074785Y0303838D01*
X1074783Y0303814D01*
X1074781Y0303792D01*
X1074779Y0303770D01*
Y0303753D01*
X1074777Y0303740D01*
Y0303729D01*
Y0303722D01*
Y0303720D01*
X1074779Y0303659D01*
X1074785Y0303605D01*
X1074794Y0303552D01*
X1074805Y0303506D01*
X1074809Y0303487D01*
X1074816Y0303469D01*
X1074820Y0303454D01*
X1074825Y0303441D01*
X1074829Y0303430D01*
X1074831Y0303424D01*
X1074833Y0303419D01*
Y0303417D01*
X1074848Y0303387D01*
X1074864Y0303358D01*
X1074879Y0303332D01*
X1074894Y0303310D01*
X1074907Y0303293D01*
X1074918Y0303278D01*
X1074927Y0303269D01*
X1074929Y0303267D01*
X1074953Y0303243D01*
X1074979Y0303221D01*
X1075008Y0303204D01*
X1075034Y0303186D01*
X1075056Y0303175D01*
X1075073Y0303164D01*
X1075086Y0303160D01*
X1075091Y0303158D01*
X1075130Y0303142D01*
X1075169Y0303132D01*
X1075210Y0303125D01*
X1075247Y0303118D01*
X1075280Y0303116D01*
X1075293D01*
X1075304Y0303114D01*
X1075328D01*
X1075369Y0303116D01*
X1075409Y0303121D01*
X1075444Y0303127D01*
X1075474Y0303134D01*
X1075500Y0303142D01*
X1075520Y0303149D01*
X1075531Y0303153D01*
X1075535Y0303155D01*
X1075568Y0303171D01*
X1075596Y0303188D01*
X1075622Y0303206D01*
X1075642Y0303223D01*
X1075657Y0303238D01*
X1075670Y0303249D01*
X1075677Y0303258D01*
X1075679Y0303260D01*
X1075699Y0303286D01*
X1075714Y0303317D01*
X1075729Y0303345D01*
X1075742Y0303376D01*
X1075751Y0303402D01*
X1075758Y0303421D01*
X1075760Y0303430D01*
X1075762Y0303437D01*
X1075764Y0303439D01*
Y0303441D01*
X1075945Y0303393D01*
X1075930Y0303339D01*
X1075910Y0303291D01*
X1075891Y0303247D01*
X1075873Y0303212D01*
X1075856Y0303184D01*
X1075843Y0303164D01*
X1075834Y0303151D01*
X1075830Y0303147D01*
X1075799Y0303112D01*
X1075766Y0303084D01*
X1075731Y0303058D01*
X1075699Y0303036D01*
X1075668Y0303020D01*
X1075644Y0303007D01*
X1075636Y0303003D01*
X1075629Y0303001D01*
X1075625Y0302999D01*
X1075622D01*
X1075572Y0302981D01*
X1075520Y0302968D01*
X1075472Y0302957D01*
X1075426Y0302951D01*
X1075385Y0302946D01*
X1075367D01*
X1075354Y0302944D01*
X1075284D01*
X1075245Y0302948D01*
X1075169Y0302959D01*
X1075134Y0302966D01*
X1075101Y0302975D01*
X1075071Y0302981D01*
X1075043Y0302990D01*
X1075016Y0302999D01*
X1074995Y0303007D01*
X1074975Y0303016D01*
X1074957Y0303023D01*
X1074944Y0303029D01*
X1074936Y0303033D01*
X1074929Y0303036D01*
X1074927Y0303038D01*
X1074897Y0303058D01*
X1074866Y0303077D01*
X1074814Y0303123D01*
X1074768Y0303169D01*
X1074731Y0303217D01*
X1074700Y0303258D01*
X1074689Y0303275D01*
X1074681Y0303293D01*
X1074672Y0303306D01*
X1074668Y0303315D01*
X1074665Y0303321D01*
X1074663Y0303323D01*
X1074633Y0303395D01*
X1074611Y0303467D01*
X1074594Y0303537D01*
X1074589Y0303570D01*
X1074583Y0303600D01*
X1074580Y0303629D01*
X1074576Y0303653D01*
X1074574Y0303677D01*
Y0303696D01*
X1074572Y0303712D01*
Y0303722D01*
Y0303731D01*
Y0303733D01*
X1074576Y0303814D01*
X1074587Y0303890D01*
X1074594Y0303925D01*
X1074600Y0303958D01*
X1074609Y0303991D01*
X1074617Y0304019D01*
X1074626Y0304045D01*
X1074635Y0304067D01*
X1074641Y0304089D01*
X1074648Y0304104D01*
X1074654Y0304119D01*
X1074659Y0304128D01*
X1074663Y0304134D01*
Y0304136D01*
X1074702Y0304200D01*
X1074746Y0304254D01*
X1074792Y0304302D01*
X1074835Y0304342D01*
X1074877Y0304372D01*
X1074892Y0304383D01*
X1074907Y0304394D01*
X1074920Y0304400D01*
X1074929Y0304407D01*
X1074936Y0304409D01*
X1074938Y0304411D01*
X1074973Y0304429D01*
X1075008Y0304442D01*
X1075077Y0304466D01*
X1075145Y0304481D01*
X1075208Y0304494D01*
X1075237Y0304496D01*
X1075263Y0304501D01*
X1075287Y0304503D01*
X1075306D01*
X1075322Y0304505D01*
X1075343D01*
X1075404Y0304503D01*
D02*
G37*
G36*
X1074072Y0302964D02*
X1073952D01*
X1073931Y0303001D01*
X1073907Y0303036D01*
X1073878Y0303070D01*
X1073852Y0303101D01*
X1073826Y0303127D01*
X1073806Y0303149D01*
X1073798Y0303155D01*
X1073791Y0303162D01*
X1073789Y0303164D01*
X1073787Y0303166D01*
X1073741Y0303204D01*
X1073695Y0303238D01*
X1073652Y0303269D01*
X1073608Y0303293D01*
X1073571Y0303315D01*
X1073556Y0303323D01*
X1073543Y0303330D01*
X1073532Y0303337D01*
X1073523Y0303339D01*
X1073519Y0303343D01*
X1073516D01*
Y0303522D01*
X1073549Y0303509D01*
X1073582Y0303493D01*
X1073615Y0303478D01*
X1073645Y0303463D01*
X1073671Y0303450D01*
X1073693Y0303439D01*
X1073706Y0303430D01*
X1073708Y0303428D01*
X1073711D01*
X1073750Y0303404D01*
X1073785Y0303380D01*
X1073815Y0303358D01*
X1073839Y0303339D01*
X1073861Y0303323D01*
X1073874Y0303310D01*
X1073885Y0303302D01*
X1073887Y0303299D01*
Y0304479D01*
X1074072D01*
Y0302964D01*
D02*
G37*
G36*
X1065730Y0302970D02*
X1065538D01*
Y0304156D01*
X1064746Y0302970D01*
X1064542D01*
Y0304479D01*
X1064733D01*
Y0303295D01*
X1065522Y0304479D01*
X1065730D01*
Y0302970D01*
D02*
G37*
G36*
X1070482Y0304300D02*
X1069739D01*
X1069765Y0304263D01*
X1069778Y0304248D01*
X1069789Y0304233D01*
X1069800Y0304219D01*
X1069808Y0304211D01*
X1069815Y0304204D01*
X1069817Y0304202D01*
X1069828Y0304191D01*
X1069841Y0304180D01*
X1069872Y0304152D01*
X1069907Y0304119D01*
X1069944Y0304086D01*
X1069978Y0304058D01*
X1069994Y0304045D01*
X1070007Y0304032D01*
X1070018Y0304023D01*
X1070026Y0304017D01*
X1070031Y0304012D01*
X1070033Y0304010D01*
X1070068Y0303980D01*
X1070103Y0303951D01*
X1070133Y0303923D01*
X1070162Y0303899D01*
X1070188Y0303875D01*
X1070210Y0303853D01*
X1070231Y0303834D01*
X1070249Y0303816D01*
X1070266Y0303799D01*
X1070279Y0303786D01*
X1070290Y0303775D01*
X1070301Y0303764D01*
X1070312Y0303751D01*
X1070316Y0303746D01*
X1070347Y0303709D01*
X1070373Y0303677D01*
X1070395Y0303644D01*
X1070412Y0303618D01*
X1070425Y0303594D01*
X1070434Y0303576D01*
X1070438Y0303565D01*
X1070441Y0303561D01*
X1070454Y0303528D01*
X1070462Y0303496D01*
X1070471Y0303465D01*
X1070475Y0303439D01*
X1070478Y0303415D01*
X1070480Y0303397D01*
Y0303387D01*
Y0303382D01*
X1070478Y0303350D01*
X1070473Y0303319D01*
X1070469Y0303289D01*
X1070460Y0303262D01*
X1070438Y0303210D01*
X1070417Y0303169D01*
X1070403Y0303149D01*
X1070393Y0303134D01*
X1070382Y0303118D01*
X1070371Y0303108D01*
X1070362Y0303099D01*
X1070358Y0303090D01*
X1070353Y0303088D01*
X1070351Y0303086D01*
X1070327Y0303064D01*
X1070301Y0303044D01*
X1070273Y0303029D01*
X1070244Y0303016D01*
X1070188Y0302994D01*
X1070131Y0302979D01*
X1070107Y0302975D01*
X1070083Y0302970D01*
X1070061Y0302968D01*
X1070044Y0302966D01*
X1070028Y0302964D01*
X1070007D01*
X1069967Y0302966D01*
X1069930Y0302968D01*
X1069896Y0302975D01*
X1069863Y0302981D01*
X1069832Y0302990D01*
X1069804Y0302999D01*
X1069778Y0303010D01*
X1069754Y0303020D01*
X1069732Y0303031D01*
X1069715Y0303042D01*
X1069699Y0303051D01*
X1069686Y0303060D01*
X1069675Y0303066D01*
X1069669Y0303073D01*
X1069664Y0303075D01*
X1069662Y0303077D01*
X1069641Y0303099D01*
X1069621Y0303123D01*
X1069601Y0303149D01*
X1069586Y0303175D01*
X1069560Y0303227D01*
X1069542Y0303280D01*
X1069536Y0303304D01*
X1069529Y0303328D01*
X1069525Y0303347D01*
X1069521Y0303365D01*
X1069518Y0303380D01*
Y0303391D01*
X1069516Y0303397D01*
Y0303400D01*
X1069706Y0303419D01*
X1069710Y0303369D01*
X1069719Y0303326D01*
X1069732Y0303286D01*
X1069747Y0303256D01*
X1069760Y0303230D01*
X1069773Y0303212D01*
X1069782Y0303201D01*
X1069787Y0303197D01*
X1069819Y0303171D01*
X1069854Y0303151D01*
X1069891Y0303136D01*
X1069924Y0303127D01*
X1069954Y0303121D01*
X1069981Y0303118D01*
X1069989Y0303116D01*
X1070002D01*
X1070048Y0303118D01*
X1070090Y0303127D01*
X1070125Y0303140D01*
X1070155Y0303153D01*
X1070179Y0303169D01*
X1070194Y0303180D01*
X1070205Y0303188D01*
X1070210Y0303193D01*
X1070236Y0303223D01*
X1070255Y0303254D01*
X1070271Y0303284D01*
X1070279Y0303315D01*
X1070286Y0303339D01*
X1070288Y0303361D01*
X1070290Y0303374D01*
Y0303376D01*
Y0303378D01*
X1070286Y0303417D01*
X1070277Y0303459D01*
X1070262Y0303496D01*
X1070247Y0303531D01*
X1070229Y0303559D01*
X1070214Y0303583D01*
X1070210Y0303592D01*
X1070205Y0303598D01*
X1070201Y0303600D01*
Y0303602D01*
X1070183Y0303626D01*
X1070162Y0303650D01*
X1070138Y0303677D01*
X1070111Y0303703D01*
X1070057Y0303755D01*
X1070002Y0303807D01*
X1069974Y0303831D01*
X1069950Y0303853D01*
X1069926Y0303873D01*
X1069907Y0303890D01*
X1069891Y0303903D01*
X1069878Y0303914D01*
X1069869Y0303921D01*
X1069867Y0303923D01*
X1069813Y0303969D01*
X1069763Y0304012D01*
X1069721Y0304051D01*
X1069689Y0304084D01*
X1069660Y0304113D01*
X1069641Y0304132D01*
X1069630Y0304145D01*
X1069625Y0304147D01*
Y0304150D01*
X1069595Y0304187D01*
X1069571Y0304222D01*
X1069549Y0304256D01*
X1069532Y0304287D01*
X1069518Y0304313D01*
X1069510Y0304333D01*
X1069505Y0304346D01*
X1069503Y0304348D01*
Y0304350D01*
X1069494Y0304374D01*
X1069490Y0304396D01*
X1069486Y0304418D01*
X1069483Y0304437D01*
X1069481Y0304455D01*
Y0304468D01*
Y0304477D01*
Y0304479D01*
X1070482D01*
Y0304300D01*
D02*
G37*
G36*
X1064269D02*
X1063526D01*
X1063552Y0304263D01*
X1063565Y0304248D01*
X1063576Y0304233D01*
X1063587Y0304219D01*
X1063595Y0304211D01*
X1063602Y0304204D01*
X1063604Y0304202D01*
X1063615Y0304191D01*
X1063628Y0304180D01*
X1063659Y0304152D01*
X1063694Y0304119D01*
X1063731Y0304086D01*
X1063765Y0304058D01*
X1063781Y0304045D01*
X1063794Y0304032D01*
X1063805Y0304023D01*
X1063813Y0304017D01*
X1063818Y0304012D01*
X1063820Y0304010D01*
X1063855Y0303980D01*
X1063890Y0303951D01*
X1063920Y0303923D01*
X1063949Y0303899D01*
X1063975Y0303875D01*
X1063997Y0303853D01*
X1064018Y0303834D01*
X1064036Y0303816D01*
X1064053Y0303799D01*
X1064066Y0303786D01*
X1064077Y0303775D01*
X1064088Y0303764D01*
X1064099Y0303751D01*
X1064103Y0303746D01*
X1064134Y0303709D01*
X1064160Y0303677D01*
X1064182Y0303644D01*
X1064199Y0303618D01*
X1064212Y0303594D01*
X1064221Y0303576D01*
X1064225Y0303565D01*
X1064228Y0303561D01*
X1064241Y0303528D01*
X1064249Y0303496D01*
X1064258Y0303465D01*
X1064262Y0303439D01*
X1064265Y0303415D01*
X1064267Y0303397D01*
Y0303387D01*
Y0303382D01*
X1064265Y0303350D01*
X1064260Y0303319D01*
X1064256Y0303289D01*
X1064247Y0303262D01*
X1064225Y0303210D01*
X1064204Y0303169D01*
X1064190Y0303149D01*
X1064180Y0303134D01*
X1064169Y0303118D01*
X1064158Y0303108D01*
X1064149Y0303099D01*
X1064145Y0303090D01*
X1064140Y0303088D01*
X1064138Y0303086D01*
X1064114Y0303064D01*
X1064088Y0303044D01*
X1064060Y0303029D01*
X1064031Y0303016D01*
X1063975Y0302994D01*
X1063918Y0302979D01*
X1063894Y0302975D01*
X1063870Y0302970D01*
X1063848Y0302968D01*
X1063831Y0302966D01*
X1063816Y0302964D01*
X1063794D01*
X1063754Y0302966D01*
X1063717Y0302968D01*
X1063683Y0302975D01*
X1063650Y0302981D01*
X1063619Y0302990D01*
X1063591Y0302999D01*
X1063565Y0303010D01*
X1063541Y0303020D01*
X1063519Y0303031D01*
X1063502Y0303042D01*
X1063486Y0303051D01*
X1063473Y0303060D01*
X1063462Y0303066D01*
X1063456Y0303073D01*
X1063451Y0303075D01*
X1063449Y0303077D01*
X1063428Y0303099D01*
X1063408Y0303123D01*
X1063388Y0303149D01*
X1063373Y0303175D01*
X1063347Y0303227D01*
X1063329Y0303280D01*
X1063323Y0303304D01*
X1063316Y0303328D01*
X1063312Y0303347D01*
X1063308Y0303365D01*
X1063305Y0303380D01*
Y0303391D01*
X1063303Y0303397D01*
Y0303400D01*
X1063493Y0303419D01*
X1063497Y0303369D01*
X1063506Y0303326D01*
X1063519Y0303286D01*
X1063534Y0303256D01*
X1063547Y0303230D01*
X1063560Y0303212D01*
X1063569Y0303201D01*
X1063574Y0303197D01*
X1063606Y0303171D01*
X1063641Y0303151D01*
X1063678Y0303136D01*
X1063711Y0303127D01*
X1063741Y0303121D01*
X1063768Y0303118D01*
X1063776Y0303116D01*
X1063789D01*
X1063835Y0303118D01*
X1063877Y0303127D01*
X1063912Y0303140D01*
X1063942Y0303153D01*
X1063966Y0303169D01*
X1063981Y0303180D01*
X1063992Y0303188D01*
X1063997Y0303193D01*
X1064023Y0303223D01*
X1064042Y0303254D01*
X1064058Y0303284D01*
X1064066Y0303315D01*
X1064073Y0303339D01*
X1064075Y0303361D01*
X1064077Y0303374D01*
Y0303376D01*
Y0303378D01*
X1064073Y0303417D01*
X1064064Y0303459D01*
X1064049Y0303496D01*
X1064034Y0303531D01*
X1064016Y0303559D01*
X1064001Y0303583D01*
X1063997Y0303592D01*
X1063992Y0303598D01*
X1063988Y0303600D01*
Y0303602D01*
X1063970Y0303626D01*
X1063949Y0303650D01*
X1063925Y0303677D01*
X1063898Y0303703D01*
X1063844Y0303755D01*
X1063789Y0303807D01*
X1063761Y0303831D01*
X1063737Y0303853D01*
X1063713Y0303873D01*
X1063694Y0303890D01*
X1063678Y0303903D01*
X1063665Y0303914D01*
X1063656Y0303921D01*
X1063654Y0303923D01*
X1063600Y0303969D01*
X1063550Y0304012D01*
X1063508Y0304051D01*
X1063476Y0304084D01*
X1063447Y0304113D01*
X1063428Y0304132D01*
X1063417Y0304145D01*
X1063412Y0304147D01*
Y0304150D01*
X1063382Y0304187D01*
X1063358Y0304222D01*
X1063336Y0304256D01*
X1063319Y0304287D01*
X1063305Y0304313D01*
X1063297Y0304333D01*
X1063292Y0304346D01*
X1063290Y0304348D01*
Y0304350D01*
X1063282Y0304374D01*
X1063277Y0304396D01*
X1063273Y0304418D01*
X1063271Y0304437D01*
X1063268Y0304455D01*
Y0304468D01*
Y0304477D01*
Y0304479D01*
X1064269D01*
Y0304300D01*
D02*
G37*
G36*
X1066410Y0304396D02*
X1066421Y0304320D01*
X1066432Y0304250D01*
X1066438Y0304217D01*
X1066445Y0304187D01*
X1066449Y0304160D01*
X1066455Y0304136D01*
X1066460Y0304115D01*
X1066464Y0304097D01*
X1066469Y0304084D01*
X1066471Y0304073D01*
X1066473Y0304067D01*
Y0304065D01*
X1066506Y0303964D01*
X1066541Y0303871D01*
X1066558Y0303825D01*
X1066575Y0303781D01*
X1066595Y0303742D01*
X1066613Y0303703D01*
X1066628Y0303668D01*
X1066643Y0303637D01*
X1066656Y0303611D01*
X1066667Y0303587D01*
X1066678Y0303568D01*
X1066684Y0303555D01*
X1066689Y0303546D01*
X1066691Y0303544D01*
X1066717Y0303498D01*
X1066743Y0303452D01*
X1066769Y0303411D01*
X1066796Y0303371D01*
X1066820Y0303337D01*
X1066844Y0303302D01*
X1066868Y0303271D01*
X1066887Y0303245D01*
X1066907Y0303219D01*
X1066924Y0303197D01*
X1066942Y0303180D01*
X1066955Y0303164D01*
X1066963Y0303151D01*
X1066972Y0303142D01*
X1066977Y0303138D01*
X1066979Y0303136D01*
Y0302990D01*
X1066002D01*
Y0303169D01*
X1066741D01*
X1066689Y0303232D01*
X1066639Y0303299D01*
X1066595Y0303365D01*
X1066554Y0303428D01*
X1066536Y0303456D01*
X1066521Y0303483D01*
X1066506Y0303506D01*
X1066495Y0303526D01*
X1066486Y0303544D01*
X1066479Y0303555D01*
X1066475Y0303563D01*
X1066473Y0303565D01*
X1066429Y0303653D01*
X1066390Y0303740D01*
X1066357Y0303823D01*
X1066344Y0303860D01*
X1066331Y0303897D01*
X1066318Y0303929D01*
X1066310Y0303960D01*
X1066301Y0303986D01*
X1066294Y0304008D01*
X1066288Y0304028D01*
X1066283Y0304041D01*
X1066281Y0304049D01*
Y0304051D01*
X1066259Y0304141D01*
X1066251Y0304185D01*
X1066244Y0304224D01*
X1066238Y0304261D01*
X1066231Y0304298D01*
X1066227Y0304328D01*
X1066222Y0304359D01*
X1066220Y0304385D01*
X1066218Y0304409D01*
X1066216Y0304431D01*
Y0304448D01*
X1066214Y0304461D01*
Y0304470D01*
Y0304477D01*
Y0304479D01*
X1066403D01*
X1066410Y0304396D01*
D02*
G37*
G36*
X1072747Y0303149D02*
X1073244D01*
Y0302970D01*
X1072049D01*
Y0303149D01*
X1072546D01*
Y0304479D01*
X1072747D01*
Y0303149D01*
D02*
G37*
G36*
X1071886Y0304300D02*
X1070959D01*
Y0303788D01*
X1071794D01*
Y0303609D01*
X1070959D01*
Y0303149D01*
X1071851D01*
Y0302970D01*
X1070759D01*
Y0304479D01*
X1071886D01*
Y0304300D01*
D02*
G37*
G36*
X1068886Y0304501D02*
X1068941Y0304492D01*
X1068987Y0304477D01*
X1069026Y0304461D01*
X1069059Y0304446D01*
X1069069Y0304437D01*
X1069080Y0304431D01*
X1069089Y0304427D01*
X1069096Y0304422D01*
X1069098Y0304418D01*
X1069100D01*
X1069139Y0304381D01*
X1069172Y0304342D01*
X1069200Y0304298D01*
X1069222Y0304259D01*
X1069239Y0304222D01*
X1069248Y0304206D01*
X1069252Y0304191D01*
X1069257Y0304180D01*
X1069261Y0304171D01*
X1069263Y0304167D01*
Y0304165D01*
X1069274Y0304132D01*
X1069283Y0304099D01*
X1069296Y0304030D01*
X1069307Y0303958D01*
X1069314Y0303888D01*
X1069316Y0303857D01*
X1069318Y0303829D01*
Y0303803D01*
X1069320Y0303779D01*
Y0303762D01*
Y0303746D01*
Y0303738D01*
Y0303735D01*
Y0303694D01*
X1069318Y0303655D01*
Y0303620D01*
X1069316Y0303585D01*
X1069311Y0303555D01*
X1069309Y0303524D01*
X1069307Y0303498D01*
X1069303Y0303474D01*
X1069300Y0303452D01*
X1069296Y0303432D01*
X1069294Y0303417D01*
X1069292Y0303404D01*
X1069289Y0303393D01*
X1069287Y0303387D01*
X1069285Y0303382D01*
Y0303380D01*
X1069272Y0303332D01*
X1069257Y0303289D01*
X1069239Y0303252D01*
X1069226Y0303219D01*
X1069211Y0303190D01*
X1069202Y0303171D01*
X1069194Y0303160D01*
X1069191Y0303155D01*
X1069167Y0303123D01*
X1069143Y0303095D01*
X1069117Y0303070D01*
X1069093Y0303049D01*
X1069071Y0303033D01*
X1069054Y0303023D01*
X1069043Y0303016D01*
X1069041Y0303014D01*
X1069039D01*
X1069004Y0302996D01*
X1068967Y0302986D01*
X1068932Y0302977D01*
X1068899Y0302970D01*
X1068871Y0302966D01*
X1068847Y0302964D01*
X1068827D01*
X1068769Y0302968D01*
X1068714Y0302977D01*
X1068668Y0302992D01*
X1068629Y0303007D01*
X1068596Y0303025D01*
X1068583Y0303031D01*
X1068572Y0303040D01*
X1068564Y0303044D01*
X1068557Y0303049D01*
X1068555Y0303053D01*
X1068553D01*
X1068513Y0303088D01*
X1068481Y0303129D01*
X1068452Y0303171D01*
X1068431Y0303210D01*
X1068413Y0303247D01*
X1068404Y0303262D01*
X1068400Y0303278D01*
X1068396Y0303289D01*
X1068391Y0303297D01*
X1068389Y0303302D01*
Y0303304D01*
X1068381Y0303337D01*
X1068372Y0303369D01*
X1068359Y0303441D01*
X1068348Y0303513D01*
X1068341Y0303581D01*
X1068339Y0303613D01*
X1068337Y0303642D01*
Y0303668D01*
X1068335Y0303692D01*
Y0303709D01*
Y0303725D01*
Y0303733D01*
Y0303735D01*
X1068337Y0303812D01*
X1068341Y0303884D01*
X1068348Y0303949D01*
X1068359Y0304010D01*
X1068370Y0304067D01*
X1068383Y0304117D01*
X1068396Y0304163D01*
X1068409Y0304202D01*
X1068422Y0304237D01*
X1068437Y0304267D01*
X1068448Y0304293D01*
X1068459Y0304313D01*
X1068470Y0304331D01*
X1068476Y0304342D01*
X1068481Y0304348D01*
X1068483Y0304350D01*
X1068507Y0304376D01*
X1068533Y0304400D01*
X1068561Y0304422D01*
X1068590Y0304440D01*
X1068618Y0304455D01*
X1068646Y0304468D01*
X1068675Y0304477D01*
X1068701Y0304485D01*
X1068727Y0304492D01*
X1068751Y0304496D01*
X1068773Y0304501D01*
X1068790Y0304503D01*
X1068806Y0304505D01*
X1068827D01*
X1068886Y0304501D01*
D02*
G37*
G36*
X1067713D02*
X1067768Y0304492D01*
X1067814Y0304477D01*
X1067853Y0304461D01*
X1067886Y0304446D01*
X1067896Y0304437D01*
X1067907Y0304431D01*
X1067916Y0304427D01*
X1067923Y0304422D01*
X1067925Y0304418D01*
X1067927D01*
X1067966Y0304381D01*
X1067999Y0304342D01*
X1068027Y0304298D01*
X1068049Y0304259D01*
X1068067Y0304222D01*
X1068075Y0304206D01*
X1068080Y0304191D01*
X1068084Y0304180D01*
X1068088Y0304171D01*
X1068091Y0304167D01*
Y0304165D01*
X1068101Y0304132D01*
X1068110Y0304099D01*
X1068123Y0304030D01*
X1068134Y0303958D01*
X1068141Y0303888D01*
X1068143Y0303857D01*
X1068145Y0303829D01*
Y0303803D01*
X1068147Y0303779D01*
Y0303762D01*
Y0303746D01*
Y0303738D01*
Y0303735D01*
Y0303694D01*
X1068145Y0303655D01*
Y0303620D01*
X1068143Y0303585D01*
X1068139Y0303555D01*
X1068136Y0303524D01*
X1068134Y0303498D01*
X1068130Y0303474D01*
X1068128Y0303452D01*
X1068123Y0303432D01*
X1068121Y0303417D01*
X1068119Y0303404D01*
X1068117Y0303393D01*
X1068114Y0303387D01*
X1068112Y0303382D01*
Y0303380D01*
X1068099Y0303332D01*
X1068084Y0303289D01*
X1068067Y0303252D01*
X1068054Y0303219D01*
X1068038Y0303190D01*
X1068029Y0303171D01*
X1068021Y0303160D01*
X1068019Y0303155D01*
X1067995Y0303123D01*
X1067971Y0303095D01*
X1067945Y0303070D01*
X1067920Y0303049D01*
X1067899Y0303033D01*
X1067881Y0303023D01*
X1067870Y0303016D01*
X1067868Y0303014D01*
X1067866D01*
X1067831Y0302996D01*
X1067794Y0302986D01*
X1067759Y0302977D01*
X1067727Y0302970D01*
X1067698Y0302966D01*
X1067674Y0302964D01*
X1067655D01*
X1067596Y0302968D01*
X1067541Y0302977D01*
X1067495Y0302992D01*
X1067456Y0303007D01*
X1067424Y0303025D01*
X1067410Y0303031D01*
X1067400Y0303040D01*
X1067391Y0303044D01*
X1067384Y0303049D01*
X1067382Y0303053D01*
X1067380D01*
X1067341Y0303088D01*
X1067308Y0303129D01*
X1067280Y0303171D01*
X1067258Y0303210D01*
X1067240Y0303247D01*
X1067232Y0303262D01*
X1067227Y0303278D01*
X1067223Y0303289D01*
X1067218Y0303297D01*
X1067216Y0303302D01*
Y0303304D01*
X1067208Y0303337D01*
X1067199Y0303369D01*
X1067186Y0303441D01*
X1067175Y0303513D01*
X1067168Y0303581D01*
X1067166Y0303613D01*
X1067164Y0303642D01*
Y0303668D01*
X1067162Y0303692D01*
Y0303709D01*
Y0303725D01*
Y0303733D01*
Y0303735D01*
X1067164Y0303812D01*
X1067168Y0303884D01*
X1067175Y0303949D01*
X1067186Y0304010D01*
X1067197Y0304067D01*
X1067210Y0304117D01*
X1067223Y0304163D01*
X1067236Y0304202D01*
X1067249Y0304237D01*
X1067264Y0304267D01*
X1067275Y0304293D01*
X1067286Y0304313D01*
X1067297Y0304331D01*
X1067303Y0304342D01*
X1067308Y0304348D01*
X1067310Y0304350D01*
X1067334Y0304376D01*
X1067360Y0304400D01*
X1067389Y0304422D01*
X1067417Y0304440D01*
X1067445Y0304455D01*
X1067474Y0304468D01*
X1067502Y0304477D01*
X1067528Y0304485D01*
X1067554Y0304492D01*
X1067578Y0304496D01*
X1067600Y0304501D01*
X1067618Y0304503D01*
X1067633Y0304505D01*
X1067655D01*
X1067713Y0304501D01*
D02*
G37*
%LPC*%
G36*
X1068841Y0516951D02*
X1068827D01*
X1068803Y0516949D01*
X1068782Y0516947D01*
X1068740Y0516931D01*
X1068703Y0516912D01*
X1068670Y0516890D01*
X1068646Y0516868D01*
X1068627Y0516848D01*
X1068616Y0516833D01*
X1068612Y0516831D01*
Y0516829D01*
X1068596Y0516803D01*
X1068583Y0516772D01*
X1068570Y0516737D01*
X1068561Y0516700D01*
X1068553Y0516661D01*
X1068546Y0516619D01*
X1068535Y0516534D01*
X1068531Y0516495D01*
X1068529Y0516458D01*
X1068526Y0516423D01*
Y0516395D01*
X1068524Y0516369D01*
Y0516349D01*
Y0516338D01*
Y0516334D01*
X1068526Y0516266D01*
X1068529Y0516205D01*
X1068533Y0516149D01*
X1068540Y0516096D01*
X1068546Y0516050D01*
X1068555Y0516009D01*
X1068564Y0515972D01*
X1068572Y0515939D01*
X1068581Y0515911D01*
X1068588Y0515887D01*
X1068596Y0515867D01*
X1068603Y0515850D01*
X1068609Y0515839D01*
X1068614Y0515830D01*
X1068618Y0515826D01*
Y0515824D01*
X1068633Y0515804D01*
X1068649Y0515787D01*
X1068666Y0515774D01*
X1068684Y0515761D01*
X1068718Y0515741D01*
X1068751Y0515728D01*
X1068779Y0515721D01*
X1068803Y0515717D01*
X1068812Y0515715D01*
X1068825D01*
X1068849Y0515717D01*
X1068873Y0515719D01*
X1068895Y0515726D01*
X1068915Y0515734D01*
X1068952Y0515754D01*
X1068984Y0515776D01*
X1069008Y0515800D01*
X1069028Y0515819D01*
X1069034Y0515828D01*
X1069039Y0515835D01*
X1069043Y0515837D01*
Y0515839D01*
X1069059Y0515865D01*
X1069071Y0515896D01*
X1069085Y0515931D01*
X1069093Y0515968D01*
X1069102Y0516007D01*
X1069109Y0516048D01*
X1069119Y0516131D01*
X1069124Y0516173D01*
X1069126Y0516210D01*
X1069128Y0516245D01*
Y0516273D01*
X1069130Y0516299D01*
Y0516319D01*
Y0516329D01*
Y0516332D01*
Y0516334D01*
Y0516401D01*
X1069126Y0516463D01*
X1069122Y0516517D01*
X1069117Y0516569D01*
X1069111Y0516613D01*
X1069102Y0516654D01*
X1069093Y0516689D01*
X1069087Y0516722D01*
X1069078Y0516748D01*
X1069069Y0516770D01*
X1069063Y0516789D01*
X1069054Y0516805D01*
X1069050Y0516816D01*
X1069045Y0516822D01*
X1069041Y0516827D01*
Y0516829D01*
X1069024Y0516851D01*
X1069006Y0516868D01*
X1068989Y0516885D01*
X1068971Y0516898D01*
X1068934Y0516920D01*
X1068902Y0516935D01*
X1068871Y0516944D01*
X1068849Y0516949D01*
X1068841Y0516951D01*
D02*
G37*
G36*
X1067668D02*
X1067655D01*
X1067631Y0516949D01*
X1067609Y0516947D01*
X1067567Y0516931D01*
X1067530Y0516912D01*
X1067498Y0516890D01*
X1067474Y0516868D01*
X1067454Y0516848D01*
X1067443Y0516833D01*
X1067439Y0516831D01*
Y0516829D01*
X1067424Y0516803D01*
X1067410Y0516772D01*
X1067397Y0516737D01*
X1067389Y0516700D01*
X1067380Y0516661D01*
X1067373Y0516619D01*
X1067362Y0516534D01*
X1067358Y0516495D01*
X1067356Y0516458D01*
X1067354Y0516423D01*
Y0516395D01*
X1067352Y0516369D01*
Y0516349D01*
Y0516338D01*
Y0516334D01*
X1067354Y0516266D01*
X1067356Y0516205D01*
X1067360Y0516149D01*
X1067367Y0516096D01*
X1067373Y0516050D01*
X1067382Y0516009D01*
X1067391Y0515972D01*
X1067400Y0515939D01*
X1067408Y0515911D01*
X1067415Y0515887D01*
X1067424Y0515867D01*
X1067430Y0515850D01*
X1067437Y0515839D01*
X1067441Y0515830D01*
X1067445Y0515826D01*
Y0515824D01*
X1067461Y0515804D01*
X1067476Y0515787D01*
X1067493Y0515774D01*
X1067511Y0515761D01*
X1067546Y0515741D01*
X1067578Y0515728D01*
X1067607Y0515721D01*
X1067631Y0515717D01*
X1067639Y0515715D01*
X1067652D01*
X1067676Y0515717D01*
X1067700Y0515719D01*
X1067722Y0515726D01*
X1067742Y0515734D01*
X1067779Y0515754D01*
X1067811Y0515776D01*
X1067836Y0515800D01*
X1067855Y0515819D01*
X1067862Y0515828D01*
X1067866Y0515835D01*
X1067870Y0515837D01*
Y0515839D01*
X1067886Y0515865D01*
X1067899Y0515896D01*
X1067912Y0515931D01*
X1067920Y0515968D01*
X1067929Y0516007D01*
X1067936Y0516048D01*
X1067947Y0516131D01*
X1067951Y0516173D01*
X1067953Y0516210D01*
X1067955Y0516245D01*
Y0516273D01*
X1067958Y0516299D01*
Y0516319D01*
Y0516329D01*
Y0516332D01*
Y0516334D01*
Y0516401D01*
X1067953Y0516463D01*
X1067949Y0516517D01*
X1067945Y0516569D01*
X1067938Y0516613D01*
X1067929Y0516654D01*
X1067920Y0516689D01*
X1067914Y0516722D01*
X1067905Y0516748D01*
X1067896Y0516770D01*
X1067890Y0516789D01*
X1067881Y0516805D01*
X1067877Y0516816D01*
X1067873Y0516822D01*
X1067868Y0516827D01*
Y0516829D01*
X1067851Y0516851D01*
X1067833Y0516868D01*
X1067816Y0516885D01*
X1067798Y0516898D01*
X1067761Y0516920D01*
X1067729Y0516935D01*
X1067698Y0516944D01*
X1067676Y0516949D01*
X1067668Y0516951D01*
D02*
G37*
G36*
X1068841Y0410652D02*
X1068827D01*
X1068803Y0410649D01*
X1068782Y0410647D01*
X1068740Y0410632D01*
X1068703Y0410612D01*
X1068670Y0410591D01*
X1068646Y0410569D01*
X1068627Y0410549D01*
X1068616Y0410534D01*
X1068612Y0410532D01*
Y0410530D01*
X1068596Y0410503D01*
X1068583Y0410473D01*
X1068570Y0410438D01*
X1068561Y0410401D01*
X1068553Y0410362D01*
X1068546Y0410320D01*
X1068535Y0410235D01*
X1068531Y0410196D01*
X1068529Y0410159D01*
X1068526Y0410124D01*
Y0410096D01*
X1068524Y0410070D01*
Y0410050D01*
Y0410039D01*
Y0410035D01*
X1068526Y0409967D01*
X1068529Y0409906D01*
X1068533Y0409849D01*
X1068540Y0409797D01*
X1068546Y0409751D01*
X1068555Y0409710D01*
X1068564Y0409673D01*
X1068572Y0409640D01*
X1068581Y0409612D01*
X1068588Y0409588D01*
X1068596Y0409568D01*
X1068603Y0409551D01*
X1068609Y0409540D01*
X1068614Y0409531D01*
X1068618Y0409527D01*
Y0409524D01*
X1068633Y0409505D01*
X1068649Y0409487D01*
X1068666Y0409474D01*
X1068684Y0409461D01*
X1068718Y0409442D01*
X1068751Y0409429D01*
X1068779Y0409422D01*
X1068803Y0409418D01*
X1068812Y0409415D01*
X1068825D01*
X1068849Y0409418D01*
X1068873Y0409420D01*
X1068895Y0409426D01*
X1068915Y0409435D01*
X1068952Y0409455D01*
X1068984Y0409477D01*
X1069008Y0409501D01*
X1069028Y0409520D01*
X1069034Y0409529D01*
X1069039Y0409535D01*
X1069043Y0409538D01*
Y0409540D01*
X1069059Y0409566D01*
X1069071Y0409596D01*
X1069085Y0409631D01*
X1069093Y0409668D01*
X1069102Y0409708D01*
X1069109Y0409749D01*
X1069119Y0409832D01*
X1069124Y0409873D01*
X1069126Y0409910D01*
X1069128Y0409945D01*
Y0409974D01*
X1069130Y0410000D01*
Y0410019D01*
Y0410030D01*
Y0410033D01*
Y0410035D01*
Y0410102D01*
X1069126Y0410163D01*
X1069122Y0410218D01*
X1069117Y0410270D01*
X1069111Y0410314D01*
X1069102Y0410355D01*
X1069093Y0410390D01*
X1069087Y0410423D01*
X1069078Y0410449D01*
X1069069Y0410471D01*
X1069063Y0410490D01*
X1069054Y0410505D01*
X1069050Y0410516D01*
X1069045Y0410523D01*
X1069041Y0410527D01*
Y0410530D01*
X1069024Y0410551D01*
X1069006Y0410569D01*
X1068989Y0410586D01*
X1068971Y0410599D01*
X1068934Y0410621D01*
X1068902Y0410636D01*
X1068871Y0410645D01*
X1068849Y0410649D01*
X1068841Y0410652D01*
D02*
G37*
G36*
X1067668D02*
X1067655D01*
X1067631Y0410649D01*
X1067609Y0410647D01*
X1067567Y0410632D01*
X1067530Y0410612D01*
X1067498Y0410591D01*
X1067474Y0410569D01*
X1067454Y0410549D01*
X1067443Y0410534D01*
X1067439Y0410532D01*
Y0410530D01*
X1067424Y0410503D01*
X1067410Y0410473D01*
X1067397Y0410438D01*
X1067389Y0410401D01*
X1067380Y0410362D01*
X1067373Y0410320D01*
X1067362Y0410235D01*
X1067358Y0410196D01*
X1067356Y0410159D01*
X1067354Y0410124D01*
Y0410096D01*
X1067352Y0410070D01*
Y0410050D01*
Y0410039D01*
Y0410035D01*
X1067354Y0409967D01*
X1067356Y0409906D01*
X1067360Y0409849D01*
X1067367Y0409797D01*
X1067373Y0409751D01*
X1067382Y0409710D01*
X1067391Y0409673D01*
X1067400Y0409640D01*
X1067408Y0409612D01*
X1067415Y0409588D01*
X1067424Y0409568D01*
X1067430Y0409551D01*
X1067437Y0409540D01*
X1067441Y0409531D01*
X1067445Y0409527D01*
Y0409524D01*
X1067461Y0409505D01*
X1067476Y0409487D01*
X1067493Y0409474D01*
X1067511Y0409461D01*
X1067546Y0409442D01*
X1067578Y0409429D01*
X1067607Y0409422D01*
X1067631Y0409418D01*
X1067639Y0409415D01*
X1067652D01*
X1067676Y0409418D01*
X1067700Y0409420D01*
X1067722Y0409426D01*
X1067742Y0409435D01*
X1067779Y0409455D01*
X1067811Y0409477D01*
X1067836Y0409501D01*
X1067855Y0409520D01*
X1067862Y0409529D01*
X1067866Y0409535D01*
X1067870Y0409538D01*
Y0409540D01*
X1067886Y0409566D01*
X1067899Y0409596D01*
X1067912Y0409631D01*
X1067920Y0409668D01*
X1067929Y0409708D01*
X1067936Y0409749D01*
X1067947Y0409832D01*
X1067951Y0409873D01*
X1067953Y0409910D01*
X1067955Y0409945D01*
Y0409974D01*
X1067958Y0410000D01*
Y0410019D01*
Y0410030D01*
Y0410033D01*
Y0410035D01*
Y0410102D01*
X1067953Y0410163D01*
X1067949Y0410218D01*
X1067945Y0410270D01*
X1067938Y0410314D01*
X1067929Y0410355D01*
X1067920Y0410390D01*
X1067914Y0410423D01*
X1067905Y0410449D01*
X1067896Y0410471D01*
X1067890Y0410490D01*
X1067881Y0410505D01*
X1067877Y0410516D01*
X1067873Y0410523D01*
X1067868Y0410527D01*
Y0410530D01*
X1067851Y0410551D01*
X1067833Y0410569D01*
X1067816Y0410586D01*
X1067798Y0410599D01*
X1067761Y0410621D01*
X1067729Y0410636D01*
X1067698Y0410645D01*
X1067676Y0410649D01*
X1067668Y0410652D01*
D02*
G37*
G36*
X1068841Y0304352D02*
X1068827D01*
X1068803Y0304350D01*
X1068782Y0304348D01*
X1068740Y0304333D01*
X1068703Y0304313D01*
X1068670Y0304291D01*
X1068646Y0304270D01*
X1068627Y0304250D01*
X1068616Y0304235D01*
X1068612Y0304233D01*
Y0304230D01*
X1068596Y0304204D01*
X1068583Y0304174D01*
X1068570Y0304139D01*
X1068561Y0304102D01*
X1068553Y0304062D01*
X1068546Y0304021D01*
X1068535Y0303936D01*
X1068531Y0303897D01*
X1068529Y0303860D01*
X1068526Y0303825D01*
Y0303797D01*
X1068524Y0303770D01*
Y0303751D01*
Y0303740D01*
Y0303735D01*
X1068526Y0303668D01*
X1068529Y0303607D01*
X1068533Y0303550D01*
X1068540Y0303498D01*
X1068546Y0303452D01*
X1068555Y0303411D01*
X1068564Y0303374D01*
X1068572Y0303341D01*
X1068581Y0303312D01*
X1068588Y0303289D01*
X1068596Y0303269D01*
X1068603Y0303252D01*
X1068609Y0303241D01*
X1068614Y0303232D01*
X1068618Y0303227D01*
Y0303225D01*
X1068633Y0303206D01*
X1068649Y0303188D01*
X1068666Y0303175D01*
X1068684Y0303162D01*
X1068718Y0303142D01*
X1068751Y0303129D01*
X1068779Y0303123D01*
X1068803Y0303118D01*
X1068812Y0303116D01*
X1068825D01*
X1068849Y0303118D01*
X1068873Y0303121D01*
X1068895Y0303127D01*
X1068915Y0303136D01*
X1068952Y0303155D01*
X1068984Y0303177D01*
X1069008Y0303201D01*
X1069028Y0303221D01*
X1069034Y0303230D01*
X1069039Y0303236D01*
X1069043Y0303238D01*
Y0303241D01*
X1069059Y0303267D01*
X1069071Y0303297D01*
X1069085Y0303332D01*
X1069093Y0303369D01*
X1069102Y0303408D01*
X1069109Y0303450D01*
X1069119Y0303533D01*
X1069124Y0303574D01*
X1069126Y0303611D01*
X1069128Y0303646D01*
Y0303674D01*
X1069130Y0303701D01*
Y0303720D01*
Y0303731D01*
Y0303733D01*
Y0303735D01*
Y0303803D01*
X1069126Y0303864D01*
X1069122Y0303919D01*
X1069117Y0303971D01*
X1069111Y0304014D01*
X1069102Y0304056D01*
X1069093Y0304091D01*
X1069087Y0304123D01*
X1069078Y0304150D01*
X1069069Y0304171D01*
X1069063Y0304191D01*
X1069054Y0304206D01*
X1069050Y0304217D01*
X1069045Y0304224D01*
X1069041Y0304228D01*
Y0304230D01*
X1069024Y0304252D01*
X1069006Y0304270D01*
X1068989Y0304287D01*
X1068971Y0304300D01*
X1068934Y0304322D01*
X1068902Y0304337D01*
X1068871Y0304346D01*
X1068849Y0304350D01*
X1068841Y0304352D01*
D02*
G37*
G36*
X1067668D02*
X1067655D01*
X1067631Y0304350D01*
X1067609Y0304348D01*
X1067567Y0304333D01*
X1067530Y0304313D01*
X1067498Y0304291D01*
X1067474Y0304270D01*
X1067454Y0304250D01*
X1067443Y0304235D01*
X1067439Y0304233D01*
Y0304230D01*
X1067424Y0304204D01*
X1067410Y0304174D01*
X1067397Y0304139D01*
X1067389Y0304102D01*
X1067380Y0304062D01*
X1067373Y0304021D01*
X1067362Y0303936D01*
X1067358Y0303897D01*
X1067356Y0303860D01*
X1067354Y0303825D01*
Y0303797D01*
X1067352Y0303770D01*
Y0303751D01*
Y0303740D01*
Y0303735D01*
X1067354Y0303668D01*
X1067356Y0303607D01*
X1067360Y0303550D01*
X1067367Y0303498D01*
X1067373Y0303452D01*
X1067382Y0303411D01*
X1067391Y0303374D01*
X1067400Y0303341D01*
X1067408Y0303312D01*
X1067415Y0303289D01*
X1067424Y0303269D01*
X1067430Y0303252D01*
X1067437Y0303241D01*
X1067441Y0303232D01*
X1067445Y0303227D01*
Y0303225D01*
X1067461Y0303206D01*
X1067476Y0303188D01*
X1067493Y0303175D01*
X1067511Y0303162D01*
X1067546Y0303142D01*
X1067578Y0303129D01*
X1067607Y0303123D01*
X1067631Y0303118D01*
X1067639Y0303116D01*
X1067652D01*
X1067676Y0303118D01*
X1067700Y0303121D01*
X1067722Y0303127D01*
X1067742Y0303136D01*
X1067779Y0303155D01*
X1067811Y0303177D01*
X1067836Y0303201D01*
X1067855Y0303221D01*
X1067862Y0303230D01*
X1067866Y0303236D01*
X1067870Y0303238D01*
Y0303241D01*
X1067886Y0303267D01*
X1067899Y0303297D01*
X1067912Y0303332D01*
X1067920Y0303369D01*
X1067929Y0303408D01*
X1067936Y0303450D01*
X1067947Y0303533D01*
X1067951Y0303574D01*
X1067953Y0303611D01*
X1067955Y0303646D01*
Y0303674D01*
X1067958Y0303701D01*
Y0303720D01*
Y0303731D01*
Y0303733D01*
Y0303735D01*
Y0303803D01*
X1067953Y0303864D01*
X1067949Y0303919D01*
X1067945Y0303971D01*
X1067938Y0304014D01*
X1067929Y0304056D01*
X1067920Y0304091D01*
X1067914Y0304123D01*
X1067905Y0304150D01*
X1067896Y0304171D01*
X1067890Y0304191D01*
X1067881Y0304206D01*
X1067877Y0304217D01*
X1067873Y0304224D01*
X1067868Y0304228D01*
Y0304230D01*
X1067851Y0304252D01*
X1067833Y0304270D01*
X1067816Y0304287D01*
X1067798Y0304300D01*
X1067761Y0304322D01*
X1067729Y0304337D01*
X1067698Y0304346D01*
X1067676Y0304350D01*
X1067668Y0304352D01*
D02*
G37*
%LPD*%
D21*
X1045404Y0348750D02*
G03*
X1045404Y0348750I-0000394J0000000D01*
G01*
Y0455050D02*
G03*
X1045404Y0455050I-0000394J0000000D01*
G01*
Y0561349D02*
G03*
X1045404Y0561349I-0000394J0000000D01*
G01*
X0927136Y0325723D02*
G03*
X0927136Y0325723I-0000394J0000000D01*
G01*
X0958711Y0326172D02*
G03*
X0958711Y0326172I-0000394J0000000D01*
G01*
X0968475Y0354400D02*
G03*
X0968475Y0354400I-0000487J0000000D01*
G01*
X0936910Y0327542D02*
G03*
X0936910Y0327542I-0000325J0000000D01*
G01*
X0927136Y0432022D02*
G03*
X0927136Y0432022I-0000394J0000000D01*
G01*
X0958711Y0432471D02*
G03*
X0958711Y0432471I-0000394J0000000D01*
G01*
X0968475Y0460699D02*
G03*
X0968475Y0460699I-0000487J0000000D01*
G01*
X0936910Y0433841D02*
G03*
X0936910Y0433841I-0000325J0000000D01*
G01*
X0927136Y0538321D02*
G03*
X0927136Y0538321I-0000394J0000000D01*
G01*
X0958711Y0538770D02*
G03*
X0958711Y0538770I-0000394J0000000D01*
G01*
X0968475Y0566998D02*
G03*
X0968475Y0566998I-0000487J0000000D01*
G01*
X0936910Y0540140D02*
G03*
X0936910Y0540140I-0000325J0000000D01*
G01*
X0872275Y0350463D02*
G03*
X0872275Y0350463I-0000493J0000000D01*
G01*
X0836349Y0320896D02*
G03*
X0836349Y0320896I-0000197J0000000D01*
G01*
X0855719Y0303258D02*
G03*
X0855719Y0303258I-0000473J0000000D01*
G01*
X0845153Y0330463D02*
G03*
X0845153Y0330463I-0000418J0000000D01*
G01*
X0872275Y0456762D02*
G03*
X0872275Y0456762I-0000493J0000000D01*
G01*
X0836349Y0427195D02*
G03*
X0836349Y0427195I-0000197J0000000D01*
G01*
X0855719Y0409558D02*
G03*
X0855719Y0409558I-0000473J0000000D01*
G01*
X0845153Y0436762D02*
G03*
X0845153Y0436762I-0000418J0000000D01*
G01*
X0872275Y0563062D02*
G03*
X0872275Y0563062I-0000493J0000000D01*
G01*
X0836349Y0533495D02*
G03*
X0836349Y0533495I-0000197J0000000D01*
G01*
X0855719Y0515857D02*
G03*
X0855719Y0515857I-0000473J0000000D01*
G01*
X0845153Y0543061D02*
G03*
X0845153Y0543061I-0000418J0000000D01*
G01*
D23*
X1056132Y0366746D02*
X1081132D01*
X1056132Y0353747D02*
Y0366746D01*
Y0353747D02*
X1081132D01*
Y0366746D01*
X1073033Y0361370D02*
X1073558Y0361895D01*
X1074608D01*
X1075132Y0361370D01*
Y0359271D01*
X1074608Y0358747D01*
X1073558D01*
X1073033Y0359271D01*
X1070409Y0361895D02*
X1071459D01*
X1071984Y0361370D01*
Y0359271D01*
X1071459Y0358747D01*
X1070409D01*
X1069885Y0359271D01*
Y0361370D01*
X1070409Y0361895D01*
X1068835Y0358747D02*
Y0361895D01*
X1066736Y0358747D01*
Y0361895D01*
X1065687Y0361370D02*
X1065162Y0361895D01*
X1064112D01*
X1063587Y0361370D01*
Y0360846D01*
X1064112Y0360321D01*
X1064637D01*
X1064112D01*
X1063587Y0359796D01*
Y0359271D01*
X1064112Y0358747D01*
X1065162D01*
X1065687Y0359271D01*
X1056132Y0473046D02*
X1081132D01*
X1056132Y0460046D02*
Y0473046D01*
Y0460046D02*
X1081132D01*
Y0473046D01*
X1073033Y0467670D02*
X1073558Y0468194D01*
X1074608D01*
X1075132Y0467670D01*
Y0465570D01*
X1074608Y0465046D01*
X1073558D01*
X1073033Y0465570D01*
X1070409Y0468194D02*
X1071459D01*
X1071984Y0467670D01*
Y0465570D01*
X1071459Y0465046D01*
X1070409D01*
X1069885Y0465570D01*
Y0467670D01*
X1070409Y0468194D01*
X1068835Y0465046D02*
Y0468194D01*
X1066736Y0465046D01*
Y0468194D01*
X1065687Y0467670D02*
X1065162Y0468194D01*
X1064112D01*
X1063587Y0467670D01*
Y0467145D01*
X1064112Y0466620D01*
X1064637D01*
X1064112D01*
X1063587Y0466095D01*
Y0465570D01*
X1064112Y0465046D01*
X1065162D01*
X1065687Y0465570D01*
X1056132Y0579345D02*
X1081132D01*
X1056132Y0566345D02*
Y0579345D01*
Y0566345D02*
X1081132D01*
Y0579345D01*
X1073033Y0573969D02*
X1073558Y0574494D01*
X1074608D01*
X1075132Y0573969D01*
Y0571870D01*
X1074608Y0571345D01*
X1073558D01*
X1073033Y0571870D01*
X1070409Y0574494D02*
X1071459D01*
X1071984Y0573969D01*
Y0571870D01*
X1071459Y0571345D01*
X1070409D01*
X1069885Y0571870D01*
Y0573969D01*
X1070409Y0574494D01*
X1068835Y0571345D02*
Y0574494D01*
X1066736Y0571345D01*
Y0574494D01*
X1065687Y0573969D02*
X1065162Y0574494D01*
X1064112D01*
X1063587Y0573969D01*
Y0573444D01*
X1064112Y0572919D01*
X1064637D01*
X1064112D01*
X1063587Y0572395D01*
Y0571870D01*
X1064112Y0571345D01*
X1065162D01*
X1065687Y0571870D01*
X0925483Y0329203D02*
Y0340620D01*
Y0329203D02*
X0934144D01*
Y0340620D01*
X0925483D02*
X0934144D01*
X0928436Y0339439D02*
X0931585D01*
Y0337340D01*
Y0336291D02*
Y0335241D01*
Y0335766D01*
X0928436D01*
X0928961Y0336291D01*
X0925483Y0435502D02*
Y0446920D01*
Y0435502D02*
X0934144D01*
Y0446920D01*
X0925483D02*
X0934144D01*
X0928436Y0445739D02*
X0931585D01*
Y0443640D01*
Y0442590D02*
Y0441540D01*
Y0442065D01*
X0928436D01*
X0928961Y0442590D01*
X0925483Y0541802D02*
Y0553219D01*
Y0541802D02*
X0934144D01*
Y0553219D01*
X0925483D02*
X0934144D01*
X0928436Y0552038D02*
X0931585D01*
Y0549939D01*
Y0548889D02*
Y0547840D01*
Y0548364D01*
X0928436D01*
X0928961Y0548889D01*
D27*
X1062510Y0305479D02*
G03*
X1062510Y0305479I-0000492J0000000D01*
G01*
Y0411778D02*
G03*
X1062510Y0411778I-0000492J0000000D01*
G01*
Y0518077D02*
G03*
X1062510Y0518077I-0000492J0000000D01*
G01*
X0958494Y0313573D02*
G03*
X0958494Y0313573I-0000492J0000000D01*
G01*
X0967628Y0314676D02*
G03*
X0967628Y0314676I-0000492J0000000D01*
G01*
X0958494Y0419873D02*
G03*
X0958494Y0419873I-0000492J0000000D01*
G01*
X0967628Y0420975D02*
G03*
X0967628Y0420975I-0000492J0000000D01*
G01*
X0958494Y0526172D02*
G03*
X0958494Y0526172I-0000492J0000000D01*
G01*
X0967628Y0527274D02*
G03*
X0967628Y0527274I-0000492J0000000D01*
G01*
D63*
X1152766Y0346132D02*
X1156703D01*
X1152766Y0353613D02*
X1156703D01*
Y0346132D02*
Y0353613D01*
X1152766Y0346132D02*
Y0353613D01*
X1180699Y0350817D02*
Y0364046D01*
X1180778Y0364124D01*
X1192668D01*
Y0350778D02*
Y0364124D01*
X1192628Y0350817D02*
X1192668Y0350778D01*
X1180699Y0350817D02*
X1192628D01*
X1165030Y0340483D02*
X1172707D01*
X1165030Y0336349D02*
X1172707D01*
Y0340483D01*
X1165030Y0336349D02*
Y0340483D01*
Y0352963D02*
X1172707D01*
X1165030Y0348829D02*
X1172707D01*
Y0352963D01*
X1165030Y0348829D02*
Y0352963D01*
X1170286Y0348416D02*
X1174223D01*
X1170286Y0340935D02*
X1174223D01*
X1170286D02*
Y0348416D01*
X1174223Y0340935D02*
Y0348416D01*
X1145955Y0329243D02*
Y0333180D01*
X1153436Y0329243D02*
Y0333180D01*
X1145955Y0329243D02*
X1153436D01*
X1145955Y0333180D02*
X1153436D01*
X1159065Y0335935D02*
X1206310D01*
Y0292628D02*
Y0335935D01*
X1159065Y0292628D02*
X1206310D01*
X1159065D02*
Y0335935D01*
X1184270Y0355725D02*
X1183614Y0355069D01*
Y0353757D01*
X1184270Y0353101D01*
X1186894D01*
X1187550Y0353757D01*
Y0355069D01*
X1186894Y0355725D01*
X1183614Y0359004D02*
Y0357693D01*
X1184270Y0357037D01*
X1186894D01*
X1187550Y0357693D01*
Y0359004D01*
X1186894Y0359660D01*
X1184270D01*
X1183614Y0359004D01*
X1187550Y0360972D02*
X1183614D01*
X1187550Y0363596D01*
X1183614D01*
X1187550Y0367532D02*
Y0364908D01*
X1184926Y0367532D01*
X1184270D01*
X1183614Y0366876D01*
Y0365564D01*
X1184270Y0364908D01*
X1152766Y0452432D02*
X1156703D01*
X1152766Y0459912D02*
X1156703D01*
Y0452432D02*
Y0459912D01*
X1152766Y0452432D02*
Y0459912D01*
X1180699Y0457117D02*
Y0470345D01*
X1180778Y0470424D01*
X1192668D01*
Y0457077D02*
Y0470424D01*
X1192628Y0457117D02*
X1192668Y0457077D01*
X1180699Y0457117D02*
X1192628D01*
X1165030Y0446782D02*
X1172707D01*
X1165030Y0442648D02*
X1172707D01*
Y0446782D01*
X1165030Y0442648D02*
Y0446782D01*
Y0459262D02*
X1172707D01*
X1165030Y0455128D02*
X1172707D01*
Y0459262D01*
X1165030Y0455128D02*
Y0459262D01*
X1170286Y0454715D02*
X1174223D01*
X1170286Y0447235D02*
X1174223D01*
X1170286D02*
Y0454715D01*
X1174223Y0447235D02*
Y0454715D01*
X1145955Y0435542D02*
Y0439479D01*
X1153436Y0435542D02*
Y0439479D01*
X1145955Y0435542D02*
X1153436D01*
X1145955Y0439479D02*
X1153436D01*
X1159065Y0442235D02*
X1206310D01*
Y0398928D02*
Y0442235D01*
X1159065Y0398928D02*
X1206310D01*
X1159065D02*
Y0442235D01*
X1184270Y0462024D02*
X1183614Y0461368D01*
Y0460056D01*
X1184270Y0459400D01*
X1186894D01*
X1187550Y0460056D01*
Y0461368D01*
X1186894Y0462024D01*
X1183614Y0465304D02*
Y0463992D01*
X1184270Y0463336D01*
X1186894D01*
X1187550Y0463992D01*
Y0465304D01*
X1186894Y0465960D01*
X1184270D01*
X1183614Y0465304D01*
X1187550Y0467272D02*
X1183614D01*
X1187550Y0469895D01*
X1183614D01*
X1187550Y0473831D02*
Y0471207D01*
X1184926Y0473831D01*
X1184270D01*
X1183614Y0473175D01*
Y0471863D01*
X1184270Y0471207D01*
X1152766Y0558731D02*
X1156703D01*
X1152766Y0566211D02*
X1156703D01*
Y0558731D02*
Y0566211D01*
X1152766Y0558731D02*
Y0566211D01*
X1180699Y0563416D02*
Y0576644D01*
X1180778Y0576723D01*
X1192668D01*
Y0563377D02*
Y0576723D01*
X1192628Y0563416D02*
X1192668Y0563377D01*
X1180699Y0563416D02*
X1192628D01*
X1165030Y0553081D02*
X1172707D01*
X1165030Y0548947D02*
X1172707D01*
Y0553081D01*
X1165030Y0548947D02*
Y0553081D01*
Y0565561D02*
X1172707D01*
X1165030Y0561428D02*
X1172707D01*
Y0565561D01*
X1165030Y0561428D02*
Y0565561D01*
X1170286Y0561014D02*
X1174223D01*
X1170286Y0553534D02*
X1174223D01*
X1170286D02*
Y0561014D01*
X1174223Y0553534D02*
Y0561014D01*
X1145955Y0541841D02*
Y0545778D01*
X1153436Y0541841D02*
Y0545778D01*
X1145955Y0541841D02*
X1153436D01*
X1145955Y0545778D02*
X1153436D01*
X1159065Y0548534D02*
X1206310D01*
Y0505227D02*
Y0548534D01*
X1159065Y0505227D02*
X1206310D01*
X1159065D02*
Y0548534D01*
X1184270Y0568323D02*
X1183614Y0567667D01*
Y0566355D01*
X1184270Y0565699D01*
X1186894D01*
X1187550Y0566355D01*
Y0567667D01*
X1186894Y0568323D01*
X1183614Y0571603D02*
Y0570291D01*
X1184270Y0569635D01*
X1186894D01*
X1187550Y0570291D01*
Y0571603D01*
X1186894Y0572259D01*
X1184270D01*
X1183614Y0571603D01*
X1187550Y0573571D02*
X1183614D01*
X1187550Y0576195D01*
X1183614D01*
X1187550Y0580130D02*
Y0577506D01*
X1184926Y0580130D01*
X1184270D01*
X1183614Y0579474D01*
Y0578162D01*
X1184270Y0577506D01*
X1087351Y0336880D02*
X1100343D01*
X1087351Y0330581D02*
Y0336880D01*
Y0330581D02*
X1100343D01*
Y0336880D01*
X1099162Y0330581D02*
Y0336880D01*
X1076388Y0332038D02*
X1083869D01*
X1076388Y0335975D02*
X1083869D01*
X1076388Y0332038D02*
Y0335975D01*
X1083869Y0332038D02*
Y0335975D01*
X1083140Y0309951D02*
X1095069D01*
X1083101Y0309912D02*
X1083140Y0309951D01*
X1083101Y0309912D02*
Y0323258D01*
X1094991D01*
X1095069Y0323180D01*
Y0309951D02*
Y0323180D01*
X1049617Y0358849D02*
X1053554D01*
X1049617Y0351369D02*
X1053554D01*
X1049617D02*
Y0358849D01*
X1053554Y0351369D02*
Y0358849D01*
X1074617Y0304321D02*
X1082097D01*
X1074617Y0308258D02*
X1082097D01*
X1074617Y0304321D02*
Y0308258D01*
X1082097Y0304321D02*
Y0308258D01*
X1062018Y0299651D02*
Y0306939D01*
X1073514Y0299651D02*
Y0306939D01*
X1066487Y0309400D02*
X1069046D01*
X1062018Y0299651D02*
X1065955D01*
X1069577D02*
X1073514D01*
X1100896Y0326585D02*
Y0334262D01*
X1096762Y0326585D02*
Y0334262D01*
X1100896D01*
X1096762Y0326585D02*
X1100896D01*
X1086172Y0352176D02*
X1090306D01*
X1086172Y0344498D02*
X1090306D01*
X1086172D02*
Y0352176D01*
X1090306Y0344498D02*
Y0352176D01*
X1081821Y0346487D02*
Y0353967D01*
X1085758Y0346487D02*
Y0353967D01*
X1081821D02*
X1085758D01*
X1081821Y0346487D02*
X1085758D01*
X1052550Y0328947D02*
Y0333081D01*
X1044872Y0328947D02*
Y0333081D01*
X1052550D01*
X1044872Y0328947D02*
X1052550D01*
Y0333475D02*
Y0337609D01*
X1044872Y0333475D02*
Y0337609D01*
X1052550D01*
X1044872Y0333475D02*
X1052550D01*
X1055524Y0338225D02*
Y0343725D01*
X1044024Y0338225D02*
X1055524D01*
X1044024D02*
Y0343725D01*
X1055524D01*
X1057333Y0310935D02*
X1061270D01*
X1057333Y0303455D02*
X1061270D01*
X1057333D02*
Y0310935D01*
X1061270Y0303455D02*
Y0310935D01*
X1049341Y0303298D02*
Y0307235D01*
X1056821Y0303298D02*
Y0307235D01*
X1049341Y0303298D02*
X1056821D01*
X1049341Y0307235D02*
X1056821D01*
X1060995Y0299164D02*
Y0303101D01*
X1053514Y0299164D02*
Y0303101D01*
X1060995D01*
X1053514Y0299164D02*
X1060995D01*
X1074597Y0299774D02*
X1082274D01*
X1074597Y0303908D02*
X1082274D01*
X1074597Y0299774D02*
Y0303908D01*
X1082274Y0299774D02*
Y0303908D01*
X1043632Y0350491D02*
X1093132D01*
Y0304491D02*
Y0350491D01*
X1043632Y0304491D02*
X1093132D01*
X1043632D02*
Y0350491D01*
X1052353Y0301113D02*
X1060030D01*
X1052353Y0296979D02*
X1060030D01*
X1052353D02*
Y0301113D01*
X1060030Y0296979D02*
Y0301113D01*
X1097587Y0334911D02*
Y0332550D01*
X1096407D01*
X1096013Y0332943D01*
Y0334518D01*
X1096407Y0334911D01*
X1097587D01*
X1095226Y0332550D02*
X1094439D01*
X1094832D01*
Y0334911D01*
X1095226Y0334518D01*
X1091499Y0314859D02*
X1092155Y0314203D01*
Y0312891D01*
X1091499Y0312235D01*
X1088875D01*
X1088219Y0312891D01*
Y0314203D01*
X1088875Y0314859D01*
X1092155Y0318138D02*
Y0316826D01*
X1091499Y0316170D01*
X1088875D01*
X1088219Y0316826D01*
Y0318138D01*
X1088875Y0318794D01*
X1091499D01*
X1092155Y0318138D01*
X1088219Y0320106D02*
X1092155D01*
X1088219Y0322730D01*
X1092155D01*
X1088219Y0326666D02*
Y0324042D01*
X1090843Y0326666D01*
X1091499D01*
X1092155Y0326010D01*
Y0324698D01*
X1091499Y0324042D01*
X1064420Y0303495D02*
X1066256D01*
X1065338D01*
Y0306251D01*
X1067175D02*
X1068093D01*
X1067634D01*
Y0303495D01*
X1067175Y0303955D01*
X1051950Y0341943D02*
X1052343Y0342336D01*
X1053131D01*
X1053524Y0341943D01*
Y0340368D01*
X1053131Y0339975D01*
X1052343D01*
X1051950Y0340368D01*
X1051163Y0342336D02*
X1049588D01*
Y0341943D01*
X1051163Y0340368D01*
Y0339975D01*
X1052632Y0332426D02*
Y0329147D01*
X1053288Y0328491D01*
X1054600D01*
X1055256Y0329147D01*
Y0332426D01*
X1056568Y0328491D02*
X1057880D01*
X1057224D01*
Y0332426D01*
X1056568Y0331770D01*
X1087351Y0443180D02*
X1100343D01*
X1087351Y0436880D02*
Y0443180D01*
Y0436880D02*
X1100343D01*
Y0443180D01*
X1099162Y0436880D02*
Y0443180D01*
X1076388Y0438337D02*
X1083869D01*
X1076388Y0442274D02*
X1083869D01*
X1076388Y0438337D02*
Y0442274D01*
X1083869Y0438337D02*
Y0442274D01*
X1083140Y0416251D02*
X1095069D01*
X1083101Y0416211D02*
X1083140Y0416251D01*
X1083101Y0416211D02*
Y0429558D01*
X1094991D01*
X1095069Y0429479D01*
Y0416251D02*
Y0429479D01*
X1049617Y0465148D02*
X1053554D01*
X1049617Y0457668D02*
X1053554D01*
X1049617D02*
Y0465148D01*
X1053554Y0457668D02*
Y0465148D01*
X1074617Y0410621D02*
X1082097D01*
X1074617Y0414558D02*
X1082097D01*
X1074617Y0410621D02*
Y0414558D01*
X1082097Y0410621D02*
Y0414558D01*
X1062018Y0405950D02*
Y0413239D01*
X1073514Y0405950D02*
Y0413239D01*
X1066487Y0415699D02*
X1069046D01*
X1062018Y0405950D02*
X1065955D01*
X1069577D02*
X1073514D01*
X1100896Y0432884D02*
Y0440561D01*
X1096762Y0432884D02*
Y0440561D01*
X1100896D01*
X1096762Y0432884D02*
X1100896D01*
X1086172Y0458475D02*
X1090306D01*
X1086172Y0450798D02*
X1090306D01*
X1086172D02*
Y0458475D01*
X1090306Y0450798D02*
Y0458475D01*
X1081821Y0452786D02*
Y0460266D01*
X1085758Y0452786D02*
Y0460266D01*
X1081821D02*
X1085758D01*
X1081821Y0452786D02*
X1085758D01*
X1052550Y0435247D02*
Y0439380D01*
X1044872Y0435247D02*
Y0439380D01*
X1052550D01*
X1044872Y0435247D02*
X1052550D01*
Y0439774D02*
Y0443908D01*
X1044872Y0439774D02*
Y0443908D01*
X1052550D01*
X1044872Y0439774D02*
X1052550D01*
X1055524Y0444524D02*
Y0450024D01*
X1044024Y0444524D02*
X1055524D01*
X1044024D02*
Y0450024D01*
X1055524D01*
X1057333Y0417235D02*
X1061270D01*
X1057333Y0409754D02*
X1061270D01*
X1057333D02*
Y0417235D01*
X1061270Y0409754D02*
Y0417235D01*
X1049341Y0409597D02*
Y0413534D01*
X1056821Y0409597D02*
Y0413534D01*
X1049341Y0409597D02*
X1056821D01*
X1049341Y0413534D02*
X1056821D01*
X1060995Y0405463D02*
Y0409400D01*
X1053514Y0405463D02*
Y0409400D01*
X1060995D01*
X1053514Y0405463D02*
X1060995D01*
X1074597Y0406073D02*
X1082274D01*
X1074597Y0410207D02*
X1082274D01*
X1074597Y0406073D02*
Y0410207D01*
X1082274Y0406073D02*
Y0410207D01*
X1043632Y0456790D02*
X1093132D01*
Y0410790D02*
Y0456790D01*
X1043632Y0410790D02*
X1093132D01*
X1043632D02*
Y0456790D01*
X1052353Y0407412D02*
X1060030D01*
X1052353Y0403278D02*
X1060030D01*
X1052353D02*
Y0407412D01*
X1060030Y0403278D02*
Y0407412D01*
X1097587Y0441210D02*
Y0438849D01*
X1096407D01*
X1096013Y0439243D01*
Y0440817D01*
X1096407Y0441210D01*
X1097587D01*
X1095226Y0438849D02*
X1094439D01*
X1094832D01*
Y0441210D01*
X1095226Y0440817D01*
X1091499Y0421158D02*
X1092155Y0420502D01*
Y0419190D01*
X1091499Y0418534D01*
X1088875D01*
X1088219Y0419190D01*
Y0420502D01*
X1088875Y0421158D01*
X1092155Y0424438D02*
Y0423126D01*
X1091499Y0422470D01*
X1088875D01*
X1088219Y0423126D01*
Y0424438D01*
X1088875Y0425094D01*
X1091499D01*
X1092155Y0424438D01*
X1088219Y0426405D02*
X1092155D01*
X1088219Y0429029D01*
X1092155D01*
X1088219Y0432965D02*
Y0430341D01*
X1090843Y0432965D01*
X1091499D01*
X1092155Y0432309D01*
Y0430997D01*
X1091499Y0430341D01*
X1064420Y0409795D02*
X1066256D01*
X1065338D01*
Y0412550D01*
X1067175D02*
X1068093D01*
X1067634D01*
Y0409795D01*
X1067175Y0410254D01*
X1051950Y0448242D02*
X1052343Y0448635D01*
X1053131D01*
X1053524Y0448242D01*
Y0446668D01*
X1053131Y0446274D01*
X1052343D01*
X1051950Y0446668D01*
X1051163Y0448635D02*
X1049588D01*
Y0448242D01*
X1051163Y0446668D01*
Y0446274D01*
X1052632Y0438726D02*
Y0435446D01*
X1053288Y0434790D01*
X1054600D01*
X1055256Y0435446D01*
Y0438726D01*
X1056568Y0434790D02*
X1057880D01*
X1057224D01*
Y0438726D01*
X1056568Y0438070D01*
X1087351Y0549479D02*
X1100343D01*
X1087351Y0543180D02*
Y0549479D01*
Y0543180D02*
X1100343D01*
Y0549479D01*
X1099162Y0543180D02*
Y0549479D01*
X1076388Y0544636D02*
X1083869D01*
X1076388Y0548573D02*
X1083869D01*
X1076388Y0544636D02*
Y0548573D01*
X1083869Y0544636D02*
Y0548573D01*
X1083140Y0522550D02*
X1095069D01*
X1083101Y0522510D02*
X1083140Y0522550D01*
X1083101Y0522510D02*
Y0535857D01*
X1094991D01*
X1095069Y0535778D01*
Y0522550D02*
Y0535778D01*
X1049617Y0571447D02*
X1053554D01*
X1049617Y0563967D02*
X1053554D01*
X1049617D02*
Y0571447D01*
X1053554Y0563967D02*
Y0571447D01*
X1074617Y0516920D02*
X1082097D01*
X1074617Y0520857D02*
X1082097D01*
X1074617Y0516920D02*
Y0520857D01*
X1082097Y0516920D02*
Y0520857D01*
X1062018Y0512250D02*
Y0519538D01*
X1073514Y0512250D02*
Y0519538D01*
X1066487Y0521999D02*
X1069046D01*
X1062018Y0512250D02*
X1065955D01*
X1069577D02*
X1073514D01*
X1100896Y0539184D02*
Y0546861D01*
X1096762Y0539184D02*
Y0546861D01*
X1100896D01*
X1096762Y0539184D02*
X1100896D01*
X1086172Y0564774D02*
X1090306D01*
X1086172Y0557097D02*
X1090306D01*
X1086172D02*
Y0564774D01*
X1090306Y0557097D02*
Y0564774D01*
X1081821Y0559085D02*
Y0566565D01*
X1085758Y0559085D02*
Y0566565D01*
X1081821D02*
X1085758D01*
X1081821Y0559085D02*
X1085758D01*
X1052550Y0541546D02*
Y0545680D01*
X1044872Y0541546D02*
Y0545680D01*
X1052550D01*
X1044872Y0541546D02*
X1052550D01*
Y0546073D02*
Y0550207D01*
X1044872Y0546073D02*
Y0550207D01*
X1052550D01*
X1044872Y0546073D02*
X1052550D01*
X1055524Y0550823D02*
Y0556323D01*
X1044024Y0550823D02*
X1055524D01*
X1044024D02*
Y0556323D01*
X1055524D01*
X1057333Y0523534D02*
X1061270D01*
X1057333Y0516054D02*
X1061270D01*
X1057333D02*
Y0523534D01*
X1061270Y0516054D02*
Y0523534D01*
X1049341Y0515896D02*
Y0519833D01*
X1056821Y0515896D02*
Y0519833D01*
X1049341Y0515896D02*
X1056821D01*
X1049341Y0519833D02*
X1056821D01*
X1060995Y0511762D02*
Y0515699D01*
X1053514Y0511762D02*
Y0515699D01*
X1060995D01*
X1053514Y0511762D02*
X1060995D01*
X1074597Y0512372D02*
X1082274D01*
X1074597Y0516506D02*
X1082274D01*
X1074597Y0512372D02*
Y0516506D01*
X1082274Y0512372D02*
Y0516506D01*
X1043632Y0563089D02*
X1093132D01*
Y0517089D02*
Y0563089D01*
X1043632Y0517089D02*
X1093132D01*
X1043632D02*
Y0563089D01*
X1052353Y0513711D02*
X1060030D01*
X1052353Y0509577D02*
X1060030D01*
X1052353D02*
Y0513711D01*
X1060030Y0509577D02*
Y0513711D01*
X1097587Y0547510D02*
Y0545148D01*
X1096407D01*
X1096013Y0545542D01*
Y0547116D01*
X1096407Y0547510D01*
X1097587D01*
X1095226Y0545148D02*
X1094439D01*
X1094832D01*
Y0547510D01*
X1095226Y0547116D01*
X1091499Y0527457D02*
X1092155Y0526801D01*
Y0525489D01*
X1091499Y0524833D01*
X1088875D01*
X1088219Y0525489D01*
Y0526801D01*
X1088875Y0527457D01*
X1092155Y0530737D02*
Y0529425D01*
X1091499Y0528769D01*
X1088875D01*
X1088219Y0529425D01*
Y0530737D01*
X1088875Y0531393D01*
X1091499D01*
X1092155Y0530737D01*
X1088219Y0532705D02*
X1092155D01*
X1088219Y0535328D01*
X1092155D01*
X1088219Y0539264D02*
Y0536640D01*
X1090843Y0539264D01*
X1091499D01*
X1092155Y0538608D01*
Y0537296D01*
X1091499Y0536640D01*
X1064420Y0516094D02*
X1066256D01*
X1065338D01*
Y0518849D01*
X1067175D02*
X1068093D01*
X1067634D01*
Y0516094D01*
X1067175Y0516553D01*
X1051950Y0554541D02*
X1052343Y0554935D01*
X1053131D01*
X1053524Y0554541D01*
Y0552967D01*
X1053131Y0552573D01*
X1052343D01*
X1051950Y0552967D01*
X1051163Y0554935D02*
X1049588D01*
Y0554541D01*
X1051163Y0552967D01*
Y0552573D01*
X1052632Y0545025D02*
Y0541745D01*
X1053288Y0541089D01*
X1054600D01*
X1055256Y0541745D01*
Y0545025D01*
X1056568Y0541089D02*
X1057880D01*
X1057224D01*
Y0545025D01*
X1056568Y0544369D01*
X0932648Y0312731D02*
Y0326904D01*
X0925562Y0312731D02*
Y0326904D01*
Y0312731D02*
X0932648D01*
X0925562Y0326904D02*
X0932648D01*
X0960325Y0296172D02*
X0967806D01*
X0960325Y0300109D02*
X0967806D01*
X0960325Y0296172D02*
Y0300109D01*
X0967806Y0296172D02*
Y0300109D01*
X0950837Y0333652D02*
Y0337589D01*
X0958317Y0333652D02*
Y0337589D01*
X0950837Y0333652D02*
X0958317D01*
X0950837Y0337589D02*
X0958317D01*
X0950837Y0337983D02*
Y0341920D01*
X0958317Y0337983D02*
Y0341920D01*
X0950837Y0337983D02*
X0958317D01*
X0950837Y0341920D02*
X0958317D01*
X0954971Y0349872D02*
X0958908D01*
X0954971Y0342392D02*
X0958908D01*
X0954971D02*
Y0349872D01*
X0958908Y0342392D02*
Y0349872D01*
X0950640Y0349833D02*
X0954577D01*
X0950640Y0342353D02*
X0954577D01*
X0950640D02*
Y0349833D01*
X0954577Y0342353D02*
Y0349833D01*
X0946309Y0349833D02*
X0950247D01*
X0946309Y0342353D02*
X0950247D01*
X0946309D02*
Y0349833D01*
X0950247Y0342353D02*
Y0349833D01*
X0939124Y0304499D02*
Y0312176D01*
X0943258Y0304499D02*
Y0312176D01*
X0939124D02*
X0943258D01*
X0939124Y0304499D02*
X0943258D01*
X0934518Y0304459D02*
Y0312136D01*
X0938652Y0304459D02*
Y0312136D01*
X0934518D02*
X0938652D01*
X0934518Y0304459D02*
X0938652D01*
X0952195Y0300128D02*
X0959873D01*
X0952195Y0295995D02*
X0959873D01*
Y0300128D01*
X0952195Y0295995D02*
Y0300128D01*
X0944046Y0295995D02*
X0951723D01*
X0944046Y0300128D02*
X0951723D01*
X0944046Y0295995D02*
Y0300128D01*
X0951723Y0295995D02*
Y0300128D01*
X0964203Y0300798D02*
Y0308475D01*
X0960069Y0300798D02*
Y0308475D01*
Y0300798D02*
X0964203D01*
X0960069Y0308475D02*
X0964203D01*
X0957136Y0327353D02*
X0964223D01*
X0957136Y0313180D02*
X0964223D01*
X0957136D02*
Y0327353D01*
X0964223Y0313180D02*
Y0327353D01*
X0976902Y0333894D02*
Y0339394D01*
X0965402Y0333894D02*
X0976902D01*
X0965402D02*
Y0339394D01*
X0976902D01*
X0966211Y0340050D02*
X0973888D01*
X0966211Y0344183D02*
X0973888D01*
X0966211Y0340050D02*
Y0344183D01*
X0973888Y0340050D02*
Y0344183D01*
X0979538Y0335699D02*
X0983475D01*
X0979538Y0343180D02*
X0983475D01*
Y0335699D02*
Y0343180D01*
X0979538Y0335699D02*
Y0343180D01*
X0976349Y0349400D02*
X0980286D01*
X0976349Y0341920D02*
X0980286D01*
X0976349D02*
Y0349400D01*
X0980286Y0341920D02*
Y0349400D01*
X0964514Y0354321D02*
Y0358258D01*
X0971994Y0354321D02*
Y0358258D01*
X0964514Y0354321D02*
X0971994D01*
X0964514Y0358258D02*
X0971994D01*
X0967175Y0344990D02*
Y0352864D01*
Y0344990D02*
X0975049D01*
Y0352864D01*
X0967175D02*
X0975049D01*
X0945995Y0341007D02*
X0948002D01*
Y0329550D02*
Y0341007D01*
X0935719D02*
X0945995Y0341003D01*
X0935719Y0341007D02*
X0935719Y0340219D01*
X0937727Y0328799D02*
X0948002Y0328802D01*
Y0329589D01*
X0935719Y0328802D02*
X0937727Y0328802D01*
X0935719Y0328802D02*
Y0340219D01*
X0948144Y0316183D02*
X0952081D01*
X0948144Y0323664D02*
X0952081D01*
Y0316183D02*
Y0323664D01*
X0948144Y0316183D02*
Y0323664D01*
X0948325Y0324081D02*
Y0328018D01*
X0955806Y0324081D02*
Y0328018D01*
X0948325Y0324081D02*
X0955806D01*
X0948325Y0328018D02*
X0955806D01*
X0934676Y0314341D02*
X0942353D01*
X0934676Y0318475D02*
X0942353D01*
X0934676Y0314341D02*
Y0318475D01*
X0942353Y0314341D02*
Y0318475D01*
X0933239Y0327038D02*
X0947412D01*
X0933239Y0319164D02*
Y0327038D01*
Y0319164D02*
X0947412D01*
Y0327038D01*
X0948819Y0352882D02*
Y0358382D01*
X0937319Y0352882D02*
X0948819D01*
X0937319D02*
Y0358382D01*
X0948819D01*
X0945367Y0347044D02*
Y0352544D01*
X0933867Y0347044D02*
X0945367D01*
X0933867D02*
Y0352544D01*
X0945367D01*
X0934715Y0342294D02*
X0942392D01*
X0934715Y0346428D02*
X0942392D01*
X0934715Y0342294D02*
Y0346428D01*
X0942392Y0342294D02*
Y0346428D01*
X0973435Y0310699D02*
Y0314636D01*
X0980916Y0310699D02*
Y0314636D01*
X0973435Y0310699D02*
X0980916D01*
X0973435Y0314636D02*
X0980916D01*
X0968731Y0306939D02*
Y0314617D01*
X0972865Y0306939D02*
Y0314617D01*
X0968731D02*
X0972865D01*
X0968731Y0306939D02*
X0972865D01*
X0986290Y0317924D02*
Y0325601D01*
X0982156Y0317924D02*
Y0325601D01*
Y0317924D02*
X0986290D01*
X0982156Y0325601D02*
X0986290D01*
X0980916Y0328377D02*
Y0332313D01*
X0973435Y0328377D02*
Y0332313D01*
X0980916D01*
X0973435Y0328377D02*
X0980916D01*
X0965522D02*
Y0332313D01*
X0973002Y0328377D02*
Y0332313D01*
X0965522Y0328377D02*
X0973002D01*
X0965522Y0332313D02*
X0973002D01*
X0926744Y0324148D02*
X0931467D01*
Y0321787D01*
X0930680Y0321000D01*
X0927531D01*
X0926744Y0321787D01*
Y0324148D01*
X0931467Y0316277D02*
Y0319425D01*
X0928318Y0316277D01*
X0927531D01*
X0926744Y0317064D01*
Y0318638D01*
X0927531Y0319425D01*
X0958319Y0324597D02*
X0963042D01*
Y0322235D01*
X0962255Y0321448D01*
X0959106D01*
X0958319Y0322235D01*
Y0324597D01*
X0963042Y0319874D02*
Y0318300D01*
Y0319087D01*
X0958319D01*
X0959106Y0319874D01*
X0973328Y0337612D02*
X0973721Y0338006D01*
X0974508D01*
X0974902Y0337612D01*
Y0336038D01*
X0974508Y0335644D01*
X0973721D01*
X0973328Y0336038D01*
X0972541Y0335644D02*
X0971753D01*
X0972147D01*
Y0338006D01*
X0972541Y0337612D01*
X0969736Y0351880D02*
X0971703D01*
X0972097Y0351487D01*
Y0350700D01*
X0971703Y0350306D01*
X0969736D01*
X0972097Y0349519D02*
Y0348732D01*
Y0349125D01*
X0969736D01*
X0970129Y0349519D01*
X0949539Y0311605D02*
X0951835D01*
X0952294Y0311146D01*
Y0310227D01*
X0951835Y0309768D01*
X0949539D01*
X0952294Y0307013D02*
Y0308850D01*
X0950457Y0307013D01*
X0949998D01*
X0949539Y0307472D01*
Y0308391D01*
X0949998Y0308850D01*
X0942726Y0324225D02*
X0943251Y0324749D01*
X0944300D01*
X0944825Y0324225D01*
Y0322126D01*
X0944300Y0321601D01*
X0943251D01*
X0942726Y0322126D01*
X0941677Y0324225D02*
X0941152Y0324749D01*
X0940102D01*
X0939578Y0324225D01*
Y0323700D01*
X0940102Y0323175D01*
X0939578Y0322650D01*
Y0322126D01*
X0940102Y0321601D01*
X0941152D01*
X0941677Y0322126D01*
Y0322650D01*
X0941152Y0323175D01*
X0941677Y0323700D01*
Y0324225D01*
X0941152Y0323175D02*
X0940102D01*
X0945245Y0356600D02*
X0945639Y0356994D01*
X0946426D01*
X0946819Y0356600D01*
Y0355026D01*
X0946426Y0354632D01*
X0945639D01*
X0945245Y0355026D01*
X0944458Y0356994D02*
X0942884D01*
Y0356600D01*
X0944458Y0355026D01*
Y0354632D01*
X0941792Y0350762D02*
X0942186Y0351155D01*
X0942973D01*
X0943367Y0350762D01*
Y0349187D01*
X0942973Y0348794D01*
X0942186D01*
X0941792Y0349187D01*
X0939431Y0351155D02*
X0940218Y0350762D01*
X0941005Y0349974D01*
Y0349187D01*
X0940612Y0348794D01*
X0939824D01*
X0939431Y0349187D01*
Y0349581D01*
X0939824Y0349974D01*
X0941005D01*
X0975600Y0316644D02*
X0973304D01*
X0972845Y0317103D01*
Y0318022D01*
X0973304Y0318481D01*
X0975600D01*
X0975141Y0319399D02*
X0975600Y0319858D01*
Y0320777D01*
X0975141Y0321236D01*
X0974682D01*
X0974222Y0320777D01*
Y0320318D01*
Y0320777D01*
X0973763Y0321236D01*
X0973304D01*
X0972845Y0320777D01*
Y0319858D01*
X0973304Y0319399D01*
X0932648Y0419030D02*
Y0433203D01*
X0925562Y0419030D02*
Y0433203D01*
Y0419030D02*
X0932648D01*
X0925562Y0433203D02*
X0932648D01*
X0960325Y0402471D02*
X0967806D01*
X0960325Y0406408D02*
X0967806D01*
X0960325Y0402471D02*
Y0406408D01*
X0967806Y0402471D02*
Y0406408D01*
X0950837Y0439951D02*
Y0443888D01*
X0958317Y0439951D02*
Y0443888D01*
X0950837Y0439951D02*
X0958317D01*
X0950837Y0443888D02*
X0958317D01*
X0950837Y0444282D02*
Y0448219D01*
X0958317Y0444282D02*
Y0448219D01*
X0950837Y0444282D02*
X0958317D01*
X0950837Y0448219D02*
X0958317D01*
X0954971Y0456172D02*
X0958908D01*
X0954971Y0448691D02*
X0958908D01*
X0954971D02*
Y0456172D01*
X0958908Y0448691D02*
Y0456172D01*
X0950640Y0456132D02*
X0954577D01*
X0950640Y0448652D02*
X0954577D01*
X0950640D02*
Y0456132D01*
X0954577Y0448652D02*
Y0456132D01*
X0946309Y0456132D02*
X0950247D01*
X0946309Y0448652D02*
X0950247D01*
X0946309D02*
Y0456132D01*
X0950247Y0448652D02*
Y0456132D01*
X0939124Y0410798D02*
Y0418475D01*
X0943258Y0410798D02*
Y0418475D01*
X0939124D02*
X0943258D01*
X0939124Y0410798D02*
X0943258D01*
X0934518Y0410758D02*
Y0418435D01*
X0938652Y0410758D02*
Y0418435D01*
X0934518D02*
X0938652D01*
X0934518Y0410758D02*
X0938652D01*
X0952195Y0406428D02*
X0959873D01*
X0952195Y0402294D02*
X0959873D01*
Y0406428D01*
X0952195Y0402294D02*
Y0406428D01*
X0944046Y0402294D02*
X0951723D01*
X0944046Y0406428D02*
X0951723D01*
X0944046Y0402294D02*
Y0406428D01*
X0951723Y0402294D02*
Y0406428D01*
X0964203Y0407097D02*
Y0414774D01*
X0960069Y0407097D02*
Y0414774D01*
Y0407097D02*
X0964203D01*
X0960069Y0414774D02*
X0964203D01*
X0957136Y0433652D02*
X0964223D01*
X0957136Y0419479D02*
X0964223D01*
X0957136D02*
Y0433652D01*
X0964223Y0419479D02*
Y0433652D01*
X0976902Y0440193D02*
Y0445693D01*
X0965402Y0440193D02*
X0976902D01*
X0965402D02*
Y0445693D01*
X0976902D01*
X0966211Y0446349D02*
X0973888D01*
X0966211Y0450483D02*
X0973888D01*
X0966211Y0446349D02*
Y0450483D01*
X0973888Y0446349D02*
Y0450483D01*
X0979538Y0441998D02*
X0983475D01*
X0979538Y0449479D02*
X0983475D01*
Y0441998D02*
Y0449479D01*
X0979538Y0441998D02*
Y0449479D01*
X0976349Y0455699D02*
X0980286D01*
X0976349Y0448219D02*
X0980286D01*
X0976349D02*
Y0455699D01*
X0980286Y0448219D02*
Y0455699D01*
X0964514Y0460621D02*
Y0464558D01*
X0971994Y0460621D02*
Y0464558D01*
X0964514Y0460621D02*
X0971994D01*
X0964514Y0464558D02*
X0971994D01*
X0967175Y0451289D02*
Y0459163D01*
Y0451289D02*
X0975049D01*
Y0459163D01*
X0967175D02*
X0975049D01*
X0945995Y0447306D02*
X0948002D01*
Y0435849D02*
Y0447306D01*
X0935719D02*
X0945995Y0447303D01*
X0935719Y0447306D02*
X0935719Y0446518D01*
X0937727Y0435098D02*
X0948002Y0435102D01*
Y0435888D01*
X0935719Y0435102D02*
X0937727Y0435101D01*
X0935719Y0435102D02*
Y0446518D01*
X0948144Y0422483D02*
X0952081D01*
X0948144Y0429963D02*
X0952081D01*
Y0422483D02*
Y0429963D01*
X0948144Y0422483D02*
Y0429963D01*
X0948325Y0430380D02*
Y0434317D01*
X0955806Y0430380D02*
Y0434317D01*
X0948325Y0430380D02*
X0955806D01*
X0948325Y0434317D02*
X0955806D01*
X0934676Y0420640D02*
X0942353D01*
X0934676Y0424774D02*
X0942353D01*
X0934676Y0420640D02*
Y0424774D01*
X0942353Y0420640D02*
Y0424774D01*
X0933239Y0433337D02*
X0947412D01*
X0933239Y0425463D02*
Y0433337D01*
Y0425463D02*
X0947412D01*
Y0433337D01*
X0948819Y0459181D02*
Y0464681D01*
X0937319Y0459181D02*
X0948819D01*
X0937319D02*
Y0464681D01*
X0948819D01*
X0945367Y0453343D02*
Y0458843D01*
X0933867Y0453343D02*
X0945367D01*
X0933867D02*
Y0458843D01*
X0945367D01*
X0934715Y0448593D02*
X0942392D01*
X0934715Y0452727D02*
X0942392D01*
X0934715Y0448593D02*
Y0452727D01*
X0942392Y0448593D02*
Y0452727D01*
X0973435Y0416998D02*
Y0420935D01*
X0980916Y0416998D02*
Y0420935D01*
X0973435Y0416998D02*
X0980916D01*
X0973435Y0420935D02*
X0980916D01*
X0968731Y0413239D02*
Y0420916D01*
X0972865Y0413239D02*
Y0420916D01*
X0968731D02*
X0972865D01*
X0968731Y0413239D02*
X0972865D01*
X0986290Y0424223D02*
Y0431900D01*
X0982156Y0424223D02*
Y0431900D01*
Y0424223D02*
X0986290D01*
X0982156Y0431900D02*
X0986290D01*
X0980916Y0434676D02*
Y0438613D01*
X0973435Y0434676D02*
Y0438613D01*
X0980916D01*
X0973435Y0434676D02*
X0980916D01*
X0965522D02*
Y0438613D01*
X0973002Y0434676D02*
Y0438613D01*
X0965522Y0434676D02*
X0973002D01*
X0965522Y0438613D02*
X0973002D01*
X0926744Y0430447D02*
X0931467D01*
Y0428086D01*
X0930680Y0427299D01*
X0927531D01*
X0926744Y0428086D01*
Y0430447D01*
X0931467Y0422576D02*
Y0425724D01*
X0928318Y0422576D01*
X0927531D01*
X0926744Y0423363D01*
Y0424937D01*
X0927531Y0425724D01*
X0958319Y0430896D02*
X0963042D01*
Y0428535D01*
X0962255Y0427747D01*
X0959106D01*
X0958319Y0428535D01*
Y0430896D01*
X0963042Y0426173D02*
Y0424599D01*
Y0425386D01*
X0958319D01*
X0959106Y0426173D01*
X0973328Y0443911D02*
X0973721Y0444305D01*
X0974508D01*
X0974902Y0443911D01*
Y0442337D01*
X0974508Y0441943D01*
X0973721D01*
X0973328Y0442337D01*
X0972541Y0441943D02*
X0971753D01*
X0972147D01*
Y0444305D01*
X0972541Y0443911D01*
X0969736Y0458180D02*
X0971703D01*
X0972097Y0457786D01*
Y0456999D01*
X0971703Y0456605D01*
X0969736D01*
X0972097Y0455818D02*
Y0455031D01*
Y0455425D01*
X0969736D01*
X0970129Y0455818D01*
X0949539Y0417904D02*
X0951835D01*
X0952294Y0417445D01*
Y0416527D01*
X0951835Y0416067D01*
X0949539D01*
X0952294Y0413312D02*
Y0415149D01*
X0950457Y0413312D01*
X0949998D01*
X0949539Y0413771D01*
Y0414690D01*
X0949998Y0415149D01*
X0942726Y0430524D02*
X0943251Y0431049D01*
X0944300D01*
X0944825Y0430524D01*
Y0428425D01*
X0944300Y0427900D01*
X0943251D01*
X0942726Y0428425D01*
X0941677Y0430524D02*
X0941152Y0431049D01*
X0940102D01*
X0939578Y0430524D01*
Y0429999D01*
X0940102Y0429474D01*
X0939578Y0428950D01*
Y0428425D01*
X0940102Y0427900D01*
X0941152D01*
X0941677Y0428425D01*
Y0428950D01*
X0941152Y0429474D01*
X0941677Y0429999D01*
Y0430524D01*
X0941152Y0429474D02*
X0940102D01*
X0945245Y0462899D02*
X0945639Y0463293D01*
X0946426D01*
X0946819Y0462899D01*
Y0461325D01*
X0946426Y0460931D01*
X0945639D01*
X0945245Y0461325D01*
X0944458Y0463293D02*
X0942884D01*
Y0462899D01*
X0944458Y0461325D01*
Y0460931D01*
X0941792Y0457061D02*
X0942186Y0457454D01*
X0942973D01*
X0943367Y0457061D01*
Y0455487D01*
X0942973Y0455093D01*
X0942186D01*
X0941792Y0455487D01*
X0939431Y0457454D02*
X0940218Y0457061D01*
X0941005Y0456274D01*
Y0455487D01*
X0940612Y0455093D01*
X0939824D01*
X0939431Y0455487D01*
Y0455880D01*
X0939824Y0456274D01*
X0941005D01*
X0975600Y0422943D02*
X0973304D01*
X0972845Y0423403D01*
Y0424321D01*
X0973304Y0424780D01*
X0975600D01*
X0975141Y0425698D02*
X0975600Y0426158D01*
Y0427076D01*
X0975141Y0427535D01*
X0974682D01*
X0974222Y0427076D01*
Y0426617D01*
Y0427076D01*
X0973763Y0427535D01*
X0973304D01*
X0972845Y0427076D01*
Y0426158D01*
X0973304Y0425698D01*
X0932648Y0525329D02*
Y0539502D01*
X0925562Y0525329D02*
Y0539502D01*
Y0525329D02*
X0932648D01*
X0925562Y0539502D02*
X0932648D01*
X0960325Y0508770D02*
X0967806D01*
X0960325Y0512707D02*
X0967806D01*
X0960325Y0508770D02*
Y0512707D01*
X0967806Y0508770D02*
Y0512707D01*
X0950837Y0546250D02*
Y0550187D01*
X0958317Y0546250D02*
Y0550187D01*
X0950837Y0546250D02*
X0958317D01*
X0950837Y0550187D02*
X0958317D01*
X0950837Y0550581D02*
Y0554518D01*
X0958317Y0550581D02*
Y0554518D01*
X0950837Y0550581D02*
X0958317D01*
X0950837Y0554518D02*
X0958317D01*
X0954971Y0562471D02*
X0958908D01*
X0954971Y0554991D02*
X0958908D01*
X0954971D02*
Y0562471D01*
X0958908Y0554991D02*
Y0562471D01*
X0950640Y0562432D02*
X0954577D01*
X0950640Y0554951D02*
X0954577D01*
X0950640D02*
Y0562432D01*
X0954577Y0554951D02*
Y0562432D01*
X0946309Y0562432D02*
X0950247D01*
X0946309Y0554951D02*
X0950247D01*
X0946309D02*
Y0562432D01*
X0950247Y0554951D02*
Y0562432D01*
X0939124Y0517097D02*
Y0524774D01*
X0943258Y0517097D02*
Y0524774D01*
X0939124D02*
X0943258D01*
X0939124Y0517097D02*
X0943258D01*
X0934518Y0517058D02*
Y0524735D01*
X0938652Y0517058D02*
Y0524735D01*
X0934518D02*
X0938652D01*
X0934518Y0517058D02*
X0938652D01*
X0952195Y0512727D02*
X0959873D01*
X0952195Y0508593D02*
X0959873D01*
Y0512727D01*
X0952195Y0508593D02*
Y0512727D01*
X0944046Y0508593D02*
X0951723D01*
X0944046Y0512727D02*
X0951723D01*
X0944046Y0508593D02*
Y0512727D01*
X0951723Y0508593D02*
Y0512727D01*
X0964203Y0513396D02*
Y0521073D01*
X0960069Y0513396D02*
Y0521073D01*
Y0513396D02*
X0964203D01*
X0960069Y0521073D02*
X0964203D01*
X0957136Y0539951D02*
X0964223D01*
X0957136Y0525778D02*
X0964223D01*
X0957136D02*
Y0539951D01*
X0964223Y0525778D02*
Y0539951D01*
X0976902Y0546493D02*
Y0551993D01*
X0965402Y0546493D02*
X0976902D01*
X0965402D02*
Y0551993D01*
X0976902D01*
X0966211Y0552648D02*
X0973888D01*
X0966211Y0556782D02*
X0973888D01*
X0966211Y0552648D02*
Y0556782D01*
X0973888Y0552648D02*
Y0556782D01*
X0979538Y0548298D02*
X0983475D01*
X0979538Y0555778D02*
X0983475D01*
Y0548298D02*
Y0555778D01*
X0979538Y0548298D02*
Y0555778D01*
X0976349Y0561999D02*
X0980286D01*
X0976349Y0554518D02*
X0980286D01*
X0976349D02*
Y0561999D01*
X0980286Y0554518D02*
Y0561999D01*
X0964514Y0566920D02*
Y0570857D01*
X0971994Y0566920D02*
Y0570857D01*
X0964514Y0566920D02*
X0971994D01*
X0964514Y0570857D02*
X0971994D01*
X0967175Y0557589D02*
Y0565462D01*
Y0557589D02*
X0975049D01*
Y0565462D01*
X0967175D02*
X0975049D01*
X0945995Y0553606D02*
X0948002D01*
Y0542148D02*
Y0553606D01*
X0935719D02*
X0945995Y0553602D01*
X0935719Y0553606D02*
X0935719Y0552817D01*
X0937727Y0541397D02*
X0948002Y0541401D01*
Y0542188D01*
X0935719Y0541401D02*
X0937727Y0541400D01*
X0935719Y0541401D02*
Y0552817D01*
X0948144Y0528782D02*
X0952081D01*
X0948144Y0536262D02*
X0952081D01*
Y0528782D02*
Y0536262D01*
X0948144Y0528782D02*
Y0536262D01*
X0948325Y0536680D02*
Y0540617D01*
X0955806Y0536680D02*
Y0540617D01*
X0948325Y0536680D02*
X0955806D01*
X0948325Y0540617D02*
X0955806D01*
X0934676Y0526939D02*
X0942353D01*
X0934676Y0531073D02*
X0942353D01*
X0934676Y0526939D02*
Y0531073D01*
X0942353Y0526939D02*
Y0531073D01*
X0933239Y0539636D02*
X0947412D01*
X0933239Y0531762D02*
Y0539636D01*
Y0531762D02*
X0947412D01*
Y0539636D01*
X0948819Y0565481D02*
Y0570981D01*
X0937319Y0565481D02*
X0948819D01*
X0937319D02*
Y0570981D01*
X0948819D01*
X0945367Y0559642D02*
Y0565142D01*
X0933867Y0559642D02*
X0945367D01*
X0933867D02*
Y0565142D01*
X0945367D01*
X0934715Y0554892D02*
X0942392D01*
X0934715Y0559026D02*
X0942392D01*
X0934715Y0554892D02*
Y0559026D01*
X0942392Y0554892D02*
Y0559026D01*
X0973435Y0523298D02*
Y0527235D01*
X0980916Y0523298D02*
Y0527235D01*
X0973435Y0523298D02*
X0980916D01*
X0973435Y0527235D02*
X0980916D01*
X0968731Y0519538D02*
Y0527215D01*
X0972865Y0519538D02*
Y0527215D01*
X0968731D02*
X0972865D01*
X0968731Y0519538D02*
X0972865D01*
X0986290Y0530522D02*
Y0538199D01*
X0982156Y0530522D02*
Y0538199D01*
Y0530522D02*
X0986290D01*
X0982156Y0538199D02*
X0986290D01*
X0980916Y0540975D02*
Y0544912D01*
X0973435Y0540975D02*
Y0544912D01*
X0980916D01*
X0973435Y0540975D02*
X0980916D01*
X0965522D02*
Y0544912D01*
X0973002Y0540975D02*
Y0544912D01*
X0965522Y0540975D02*
X0973002D01*
X0965522Y0544912D02*
X0973002D01*
X0926744Y0536747D02*
X0931467D01*
Y0534385D01*
X0930680Y0533598D01*
X0927531D01*
X0926744Y0534385D01*
Y0536747D01*
X0931467Y0528875D02*
Y0532024D01*
X0928318Y0528875D01*
X0927531D01*
X0926744Y0529662D01*
Y0531237D01*
X0927531Y0532024D01*
X0958319Y0537195D02*
X0963042D01*
Y0534834D01*
X0962255Y0534047D01*
X0959106D01*
X0958319Y0534834D01*
Y0537195D01*
X0963042Y0532473D02*
Y0530898D01*
Y0531685D01*
X0958319D01*
X0959106Y0532473D01*
X0973328Y0550211D02*
X0973721Y0550604D01*
X0974508D01*
X0974902Y0550211D01*
Y0548636D01*
X0974508Y0548243D01*
X0973721D01*
X0973328Y0548636D01*
X0972541Y0548243D02*
X0971753D01*
X0972147D01*
Y0550604D01*
X0972541Y0550211D01*
X0969736Y0564479D02*
X0971703D01*
X0972097Y0564085D01*
Y0563298D01*
X0971703Y0562905D01*
X0969736D01*
X0972097Y0562117D02*
Y0561330D01*
Y0561724D01*
X0969736D01*
X0970129Y0562117D01*
X0949539Y0524203D02*
X0951835D01*
X0952294Y0523744D01*
Y0522826D01*
X0951835Y0522367D01*
X0949539D01*
X0952294Y0519612D02*
Y0521448D01*
X0950457Y0519612D01*
X0949998D01*
X0949539Y0520071D01*
Y0520989D01*
X0949998Y0521448D01*
X0942726Y0536823D02*
X0943251Y0537348D01*
X0944300D01*
X0944825Y0536823D01*
Y0534724D01*
X0944300Y0534199D01*
X0943251D01*
X0942726Y0534724D01*
X0941677Y0536823D02*
X0941152Y0537348D01*
X0940102D01*
X0939578Y0536823D01*
Y0536298D01*
X0940102Y0535774D01*
X0939578Y0535249D01*
Y0534724D01*
X0940102Y0534199D01*
X0941152D01*
X0941677Y0534724D01*
Y0535249D01*
X0941152Y0535774D01*
X0941677Y0536298D01*
Y0536823D01*
X0941152Y0535774D02*
X0940102D01*
X0945245Y0569199D02*
X0945639Y0569592D01*
X0946426D01*
X0946819Y0569199D01*
Y0567624D01*
X0946426Y0567231D01*
X0945639D01*
X0945245Y0567624D01*
X0944458Y0569592D02*
X0942884D01*
Y0569199D01*
X0944458Y0567624D01*
Y0567231D01*
X0941792Y0563360D02*
X0942186Y0563754D01*
X0942973D01*
X0943367Y0563360D01*
Y0561786D01*
X0942973Y0561392D01*
X0942186D01*
X0941792Y0561786D01*
X0939431Y0563754D02*
X0940218Y0563360D01*
X0941005Y0562573D01*
Y0561786D01*
X0940612Y0561392D01*
X0939824D01*
X0939431Y0561786D01*
Y0562179D01*
X0939824Y0562573D01*
X0941005D01*
X0975600Y0529243D02*
X0973304D01*
X0972845Y0529702D01*
Y0530620D01*
X0973304Y0531079D01*
X0975600D01*
X0975141Y0531998D02*
X0975600Y0532457D01*
Y0533375D01*
X0975141Y0533834D01*
X0974682D01*
X0974222Y0533375D01*
Y0532916D01*
Y0533375D01*
X0973763Y0533834D01*
X0973304D01*
X0972845Y0533375D01*
Y0532457D01*
X0973304Y0531998D01*
X0819853Y0341054D02*
Y0342235D01*
Y0341054D02*
Y0343416D01*
X0817097Y0341054D02*
X0821034D01*
Y0343416D01*
X0817097D02*
X0821034D01*
X0817097Y0341054D02*
Y0343416D01*
X0873160Y0351841D02*
X0873160Y0343967D01*
X0865286Y0351841D02*
X0873160Y0351841D01*
X0865286Y0351841D02*
X0865286Y0343967D01*
X0873160Y0343967D01*
X0858337Y0340128D02*
X0862471D01*
X0858337Y0347806D02*
X0862471D01*
Y0340128D02*
Y0347806D01*
X0858337Y0340128D02*
Y0347806D01*
X0857904Y0351270D02*
Y0355404D01*
X0850227Y0351270D02*
Y0355404D01*
X0857904D01*
X0850227Y0351270D02*
X0857904D01*
X0820365Y0346979D02*
X0833593D01*
X0833672Y0347058D01*
X0833672Y0358947D01*
X0820325D02*
X0833672D01*
X0820325D02*
X0820365Y0358908D01*
Y0346979D02*
Y0358908D01*
X0850264Y0337176D02*
X0857941D01*
X0850264Y0333042D02*
X0857941D01*
Y0337176D01*
X0850264Y0333042D02*
Y0337176D01*
Y0346309D02*
X0857941D01*
X0850264Y0342176D02*
X0857941D01*
Y0346309D01*
X0850264Y0342176D02*
Y0346309D01*
Y0341743D02*
X0857941D01*
X0850264Y0337609D02*
X0857941D01*
Y0341743D01*
X0850264Y0337609D02*
Y0341743D01*
Y0350837D02*
X0857941D01*
X0850264Y0346703D02*
X0857941D01*
Y0350837D01*
X0850264Y0346703D02*
Y0350837D01*
X0825010Y0336684D02*
X0828947D01*
X0825010Y0344164D02*
X0828947D01*
Y0336684D02*
Y0344164D01*
X0825010Y0336684D02*
Y0344164D01*
X0824912Y0328617D02*
Y0336294D01*
X0829046Y0328617D02*
Y0336294D01*
X0824912D02*
X0829046D01*
X0824912Y0328617D02*
X0829046D01*
X0833494Y0336625D02*
Y0344302D01*
X0829361Y0336625D02*
Y0344302D01*
Y0336625D02*
X0833494D01*
X0829361Y0344302D02*
X0833494D01*
X0819365Y0332699D02*
Y0340376D01*
X0823499Y0332699D02*
Y0340376D01*
X0819365D02*
X0823499D01*
X0819365Y0332699D02*
X0823499D01*
X0825010Y0320651D02*
X0828947D01*
X0825010Y0328131D02*
X0828947D01*
Y0320651D02*
Y0328131D01*
X0825010Y0320651D02*
Y0328131D01*
X0831231Y0321880D02*
X0837136D01*
X0831231D02*
Y0325817D01*
X0837136D01*
Y0321880D02*
Y0325817D01*
X0838239Y0332668D02*
X0842176D01*
X0838239Y0340148D02*
X0842176D01*
Y0332668D02*
Y0340148D01*
X0838239Y0332668D02*
Y0340148D01*
X0833869Y0332668D02*
X0837806D01*
X0833869Y0340148D02*
X0837806D01*
Y0332668D02*
Y0340148D01*
X0833869Y0332668D02*
Y0340148D01*
X0833888Y0328081D02*
X0841565D01*
X0833888Y0332215D02*
X0841565D01*
X0833888Y0328081D02*
Y0332215D01*
X0841565Y0328081D02*
Y0332215D01*
X0844302Y0332747D02*
X0848239D01*
X0844302Y0340227D02*
X0848239D01*
Y0332747D02*
Y0340227D01*
X0844302Y0332747D02*
Y0340227D01*
X0859392Y0302274D02*
Y0308574D01*
X0852992Y0302274D02*
X0859392D01*
X0852992D02*
Y0308574D01*
X0859392D01*
X0850404Y0305384D02*
Y0309321D01*
X0842924Y0305384D02*
Y0309321D01*
X0850404D01*
X0842924Y0305384D02*
X0850404D01*
X0861034Y0305148D02*
X0864971D01*
X0861034Y0312628D02*
X0864971D01*
Y0305148D02*
Y0312628D01*
X0861034Y0305148D02*
Y0312628D01*
X0850365Y0301054D02*
Y0304991D01*
X0842884Y0301054D02*
Y0304991D01*
X0850365D01*
X0842884Y0301054D02*
X0850365D01*
X0859853Y0297392D02*
Y0301329D01*
X0852372Y0297392D02*
Y0301329D01*
X0859853D01*
X0852372Y0297392D02*
X0859853D01*
X0860916Y0314203D02*
Y0331920D01*
X0843199D02*
X0860916D01*
X0843199Y0314203D02*
Y0331920D01*
Y0314203D02*
X0860916D01*
X0873278Y0313132D02*
Y0329132D01*
X0864617D02*
X0873278D01*
X0864617Y0313132D02*
Y0329132D01*
Y0313132D02*
X0873278D01*
X0849262Y0309243D02*
Y0313180D01*
X0856743Y0309243D02*
Y0313180D01*
X0849262Y0309243D02*
X0856743D01*
X0849262Y0313180D02*
X0856743D01*
X0872254Y0345464D02*
Y0347432D01*
X0871861Y0347825D01*
X0871074D01*
X0870680Y0347432D01*
Y0345464D01*
X0869893Y0345857D02*
X0869499Y0345464D01*
X0868712D01*
X0868319Y0345857D01*
Y0346251D01*
X0868712Y0346644D01*
X0869106D01*
X0868712D01*
X0868319Y0347038D01*
Y0347432D01*
X0868712Y0347825D01*
X0869499D01*
X0869893Y0347432D01*
X0825272Y0350549D02*
X0824616Y0349893D01*
X0823304D01*
X0822648Y0350549D01*
Y0353173D01*
X0823304Y0353829D01*
X0824616D01*
X0825272Y0353173D01*
X0828552Y0349893D02*
X0827240D01*
X0826584Y0350549D01*
Y0353173D01*
X0827240Y0353829D01*
X0828552D01*
X0829208Y0353173D01*
Y0350549D01*
X0828552Y0349893D01*
X0830520Y0353829D02*
Y0349893D01*
X0833143Y0353829D01*
Y0349893D01*
X0837079Y0353829D02*
X0834455D01*
X0837079Y0351205D01*
Y0350549D01*
X0836423Y0349893D01*
X0835111D01*
X0834455Y0350549D01*
X0836152Y0324636D02*
Y0322996D01*
X0835824Y0322668D01*
X0835168D01*
X0834840Y0322996D01*
Y0324636D01*
X0832872Y0322668D02*
X0834184D01*
X0832872Y0323980D01*
Y0324308D01*
X0833200Y0324636D01*
X0833856D01*
X0834184Y0324308D01*
X0857372Y0302825D02*
Y0304400D01*
Y0303612D01*
X0855010D01*
Y0305187D02*
Y0305974D01*
Y0305580D01*
X0857372D01*
X0856978Y0305187D01*
X0850523Y0328928D02*
X0852491D01*
X0852884Y0328534D01*
Y0327747D01*
X0852491Y0327353D01*
X0850523D01*
X0852884Y0326566D02*
Y0325779D01*
Y0326173D01*
X0850523D01*
X0850916Y0326566D01*
X0871308Y0316014D02*
X0866979Y0318900D01*
X0871308D02*
X0866979Y0316014D01*
Y0320344D02*
Y0321787D01*
Y0321065D01*
X0871308D01*
X0870587Y0320344D01*
X0819853Y0447353D02*
Y0448534D01*
Y0447353D02*
Y0449715D01*
X0817097Y0447353D02*
X0821034D01*
Y0449715D01*
X0817097D02*
X0821034D01*
X0817097Y0447353D02*
Y0449715D01*
X0873160Y0458140D02*
X0873160Y0450266D01*
X0865286Y0458140D02*
X0873160Y0458140D01*
X0865286Y0458140D02*
X0865286Y0450266D01*
X0873160Y0450266D01*
X0858337Y0446428D02*
X0862471D01*
X0858337Y0454105D02*
X0862471D01*
Y0446428D02*
Y0454105D01*
X0858337Y0446428D02*
Y0454105D01*
X0857904Y0457569D02*
Y0461703D01*
X0850227Y0457569D02*
Y0461703D01*
X0857904D01*
X0850227Y0457569D02*
X0857904D01*
X0820365Y0453278D02*
X0833593D01*
X0833672Y0453357D01*
X0833672Y0465246D01*
X0820325D02*
X0833672D01*
X0820325D02*
X0820365Y0465207D01*
Y0453278D02*
Y0465207D01*
X0850264Y0443475D02*
X0857941D01*
X0850264Y0439341D02*
X0857941D01*
Y0443475D01*
X0850264Y0439341D02*
Y0443475D01*
Y0452609D02*
X0857941D01*
X0850264Y0448475D02*
X0857941D01*
Y0452609D01*
X0850264Y0448475D02*
Y0452609D01*
Y0448042D02*
X0857941D01*
X0850264Y0443908D02*
X0857941D01*
Y0448042D01*
X0850264Y0443908D02*
Y0448042D01*
Y0457136D02*
X0857941D01*
X0850264Y0453002D02*
X0857941D01*
Y0457136D01*
X0850264Y0453002D02*
Y0457136D01*
X0825010Y0442983D02*
X0828947D01*
X0825010Y0450463D02*
X0828947D01*
Y0442983D02*
Y0450463D01*
X0825010Y0442983D02*
Y0450463D01*
X0824912Y0434916D02*
Y0442593D01*
X0829046Y0434916D02*
Y0442593D01*
X0824912D02*
X0829046D01*
X0824912Y0434916D02*
X0829046D01*
X0833494Y0442924D02*
Y0450601D01*
X0829361Y0442924D02*
Y0450601D01*
Y0442924D02*
X0833494D01*
X0829361Y0450601D02*
X0833494D01*
X0819365Y0438999D02*
Y0446676D01*
X0823499Y0438999D02*
Y0446676D01*
X0819365D02*
X0823499D01*
X0819365Y0438999D02*
X0823499D01*
X0825010Y0426950D02*
X0828947D01*
X0825010Y0434430D02*
X0828947D01*
Y0426950D02*
Y0434430D01*
X0825010Y0426950D02*
Y0434430D01*
X0831231Y0428180D02*
X0837136D01*
X0831231D02*
Y0432117D01*
X0837136D01*
Y0428180D02*
Y0432117D01*
X0838239Y0438967D02*
X0842176D01*
X0838239Y0446447D02*
X0842176D01*
Y0438967D02*
Y0446447D01*
X0838239Y0438967D02*
Y0446447D01*
X0833869Y0438967D02*
X0837806D01*
X0833869Y0446447D02*
X0837806D01*
Y0438967D02*
Y0446447D01*
X0833869Y0438967D02*
Y0446447D01*
X0833888Y0434380D02*
X0841565D01*
X0833888Y0438514D02*
X0841565D01*
X0833888Y0434380D02*
Y0438514D01*
X0841565Y0434380D02*
Y0438514D01*
X0844302Y0439046D02*
X0848239D01*
X0844302Y0446526D02*
X0848239D01*
Y0439046D02*
Y0446526D01*
X0844302Y0439046D02*
Y0446526D01*
X0859392Y0408573D02*
Y0414874D01*
X0852992Y0408573D02*
X0859392D01*
X0852992D02*
Y0414874D01*
X0859392D01*
X0850404Y0411684D02*
Y0415621D01*
X0842924Y0411684D02*
Y0415621D01*
X0850404D01*
X0842924Y0411684D02*
X0850404D01*
X0861034Y0411447D02*
X0864971D01*
X0861034Y0418928D02*
X0864971D01*
Y0411447D02*
Y0418928D01*
X0861034Y0411447D02*
Y0418928D01*
X0850365Y0407353D02*
Y0411290D01*
X0842884Y0407353D02*
Y0411290D01*
X0850365D01*
X0842884Y0407353D02*
X0850365D01*
X0859853Y0403691D02*
Y0407628D01*
X0852372Y0403691D02*
Y0407628D01*
X0859853D01*
X0852372Y0403691D02*
X0859853D01*
X0860916Y0420502D02*
Y0438219D01*
X0843199D02*
X0860916D01*
X0843199Y0420502D02*
Y0438219D01*
Y0420502D02*
X0860916D01*
X0873278Y0419432D02*
Y0435432D01*
X0864617D02*
X0873278D01*
X0864617Y0419432D02*
Y0435432D01*
Y0419432D02*
X0873278D01*
X0849262Y0415542D02*
Y0419479D01*
X0856743Y0415542D02*
Y0419479D01*
X0849262Y0415542D02*
X0856743D01*
X0849262Y0419479D02*
X0856743D01*
X0872254Y0451763D02*
Y0453731D01*
X0871861Y0454124D01*
X0871074D01*
X0870680Y0453731D01*
Y0451763D01*
X0869893Y0452157D02*
X0869499Y0451763D01*
X0868712D01*
X0868319Y0452157D01*
Y0452550D01*
X0868712Y0452944D01*
X0869106D01*
X0868712D01*
X0868319Y0453337D01*
Y0453731D01*
X0868712Y0454124D01*
X0869499D01*
X0869893Y0453731D01*
X0825272Y0456849D02*
X0824616Y0456193D01*
X0823304D01*
X0822648Y0456849D01*
Y0459473D01*
X0823304Y0460128D01*
X0824616D01*
X0825272Y0459473D01*
X0828552Y0456193D02*
X0827240D01*
X0826584Y0456849D01*
Y0459473D01*
X0827240Y0460128D01*
X0828552D01*
X0829208Y0459473D01*
Y0456849D01*
X0828552Y0456193D01*
X0830520Y0460128D02*
Y0456193D01*
X0833143Y0460128D01*
Y0456193D01*
X0837079Y0460128D02*
X0834455D01*
X0837079Y0457505D01*
Y0456849D01*
X0836423Y0456193D01*
X0835111D01*
X0834455Y0456849D01*
X0836152Y0430935D02*
Y0429295D01*
X0835824Y0428967D01*
X0835168D01*
X0834840Y0429295D01*
Y0430935D01*
X0832872Y0428967D02*
X0834184D01*
X0832872Y0430279D01*
Y0430607D01*
X0833200Y0430935D01*
X0833856D01*
X0834184Y0430607D01*
X0857372Y0409125D02*
Y0410699D01*
Y0409912D01*
X0855010D01*
Y0411486D02*
Y0412273D01*
Y0411879D01*
X0857372D01*
X0856978Y0411486D01*
X0850523Y0435227D02*
X0852491D01*
X0852884Y0434833D01*
Y0434046D01*
X0852491Y0433652D01*
X0850523D01*
X0852884Y0432865D02*
Y0432078D01*
Y0432472D01*
X0850523D01*
X0850916Y0432865D01*
X0871308Y0422313D02*
X0866979Y0425200D01*
X0871308D02*
X0866979Y0422313D01*
Y0426643D02*
Y0428086D01*
Y0427364D01*
X0871308D01*
X0870587Y0426643D01*
X0819853Y0553652D02*
Y0554833D01*
Y0553652D02*
Y0556014D01*
X0817097Y0553652D02*
X0821034D01*
Y0556014D01*
X0817097D02*
X0821034D01*
X0817097Y0553652D02*
Y0556014D01*
X0873160Y0564439D02*
X0873160Y0556565D01*
X0865286Y0564439D02*
X0873160Y0564439D01*
X0865286Y0564439D02*
X0865286Y0556565D01*
X0873160Y0556565D01*
X0858337Y0552727D02*
X0862471D01*
X0858337Y0560404D02*
X0862471D01*
Y0552727D02*
Y0560404D01*
X0858337Y0552727D02*
Y0560404D01*
X0857904Y0563869D02*
Y0568003D01*
X0850227Y0563869D02*
Y0568003D01*
X0857904D01*
X0850227Y0563869D02*
X0857904D01*
X0820365Y0559577D02*
X0833593D01*
X0833672Y0559656D01*
X0833672Y0571546D01*
X0820325D02*
X0833672D01*
X0820325D02*
X0820365Y0571506D01*
Y0559577D02*
Y0571506D01*
X0850264Y0549774D02*
X0857941D01*
X0850264Y0545640D02*
X0857941D01*
Y0549774D01*
X0850264Y0545640D02*
Y0549774D01*
Y0558908D02*
X0857941D01*
X0850264Y0554774D02*
X0857941D01*
Y0558908D01*
X0850264Y0554774D02*
Y0558908D01*
Y0554341D02*
X0857941D01*
X0850264Y0550207D02*
X0857941D01*
Y0554341D01*
X0850264Y0550207D02*
Y0554341D01*
Y0563436D02*
X0857941D01*
X0850264Y0559302D02*
X0857941D01*
Y0563436D01*
X0850264Y0559302D02*
Y0563436D01*
X0825010Y0549282D02*
X0828947D01*
X0825010Y0556762D02*
X0828947D01*
Y0549282D02*
Y0556762D01*
X0825010Y0549282D02*
Y0556762D01*
X0824912Y0541215D02*
Y0548892D01*
X0829046Y0541215D02*
Y0548892D01*
X0824912D02*
X0829046D01*
X0824912Y0541215D02*
X0829046D01*
X0833494Y0549223D02*
Y0556900D01*
X0829361Y0549223D02*
Y0556900D01*
Y0549223D02*
X0833494D01*
X0829361Y0556900D02*
X0833494D01*
X0819365Y0545298D02*
Y0552975D01*
X0823499Y0545298D02*
Y0552975D01*
X0819365D02*
X0823499D01*
X0819365Y0545298D02*
X0823499D01*
X0825010Y0533249D02*
X0828947D01*
X0825010Y0540729D02*
X0828947D01*
Y0533249D02*
Y0540729D01*
X0825010Y0533249D02*
Y0540729D01*
X0831231Y0534479D02*
X0837136D01*
X0831231D02*
Y0538416D01*
X0837136D01*
Y0534479D02*
Y0538416D01*
X0838239Y0545266D02*
X0842176D01*
X0838239Y0552746D02*
X0842176D01*
Y0545266D02*
Y0552746D01*
X0838239Y0545266D02*
Y0552746D01*
X0833869Y0545266D02*
X0837806D01*
X0833869Y0552746D02*
X0837806D01*
Y0545266D02*
Y0552746D01*
X0833869Y0545266D02*
Y0552746D01*
X0833888Y0540680D02*
X0841565D01*
X0833888Y0544813D02*
X0841565D01*
X0833888Y0540680D02*
Y0544813D01*
X0841565Y0540680D02*
Y0544813D01*
X0844302Y0545345D02*
X0848239D01*
X0844302Y0552825D02*
X0848239D01*
Y0545345D02*
Y0552825D01*
X0844302Y0545345D02*
Y0552825D01*
X0859392Y0514873D02*
Y0521173D01*
X0852992Y0514873D02*
X0859392D01*
X0852992D02*
Y0521173D01*
X0859392D01*
X0850404Y0517983D02*
Y0521920D01*
X0842924Y0517983D02*
Y0521920D01*
X0850404D01*
X0842924Y0517983D02*
X0850404D01*
X0861034Y0517746D02*
X0864971D01*
X0861034Y0525227D02*
X0864971D01*
Y0517746D02*
Y0525227D01*
X0861034Y0517746D02*
Y0525227D01*
X0850365Y0513652D02*
Y0517589D01*
X0842884Y0513652D02*
Y0517589D01*
X0850365D01*
X0842884Y0513652D02*
X0850365D01*
X0859853Y0509991D02*
Y0513928D01*
X0852372Y0509991D02*
Y0513928D01*
X0859853D01*
X0852372Y0509991D02*
X0859853D01*
X0860916Y0526801D02*
Y0544518D01*
X0843199D02*
X0860916D01*
X0843199Y0526801D02*
Y0544518D01*
Y0526801D02*
X0860916D01*
X0873278Y0525731D02*
Y0541731D01*
X0864617D02*
X0873278D01*
X0864617Y0525731D02*
Y0541731D01*
Y0525731D02*
X0873278D01*
X0849262Y0521841D02*
Y0525778D01*
X0856743Y0521841D02*
Y0525778D01*
X0849262Y0521841D02*
X0856743D01*
X0849262Y0525778D02*
X0856743D01*
X0872254Y0558062D02*
Y0560030D01*
X0871861Y0560424D01*
X0871074D01*
X0870680Y0560030D01*
Y0558062D01*
X0869893Y0558456D02*
X0869499Y0558062D01*
X0868712D01*
X0868319Y0558456D01*
Y0558849D01*
X0868712Y0559243D01*
X0869106D01*
X0868712D01*
X0868319Y0559636D01*
Y0560030D01*
X0868712Y0560424D01*
X0869499D01*
X0869893Y0560030D01*
X0825272Y0563148D02*
X0824616Y0562492D01*
X0823304D01*
X0822648Y0563148D01*
Y0565772D01*
X0823304Y0566428D01*
X0824616D01*
X0825272Y0565772D01*
X0828552Y0562492D02*
X0827240D01*
X0826584Y0563148D01*
Y0565772D01*
X0827240Y0566428D01*
X0828552D01*
X0829208Y0565772D01*
Y0563148D01*
X0828552Y0562492D01*
X0830520Y0566428D02*
Y0562492D01*
X0833143Y0566428D01*
Y0562492D01*
X0837079Y0566428D02*
X0834455D01*
X0837079Y0563804D01*
Y0563148D01*
X0836423Y0562492D01*
X0835111D01*
X0834455Y0563148D01*
X0836152Y0537234D02*
Y0535594D01*
X0835824Y0535266D01*
X0835168D01*
X0834840Y0535594D01*
Y0537234D01*
X0832872Y0535266D02*
X0834184D01*
X0832872Y0536578D01*
Y0536906D01*
X0833200Y0537234D01*
X0833856D01*
X0834184Y0536906D01*
X0857372Y0515424D02*
Y0516998D01*
Y0516211D01*
X0855010D01*
Y0517785D02*
Y0518572D01*
Y0518179D01*
X0857372D01*
X0856978Y0517785D01*
X0850523Y0541526D02*
X0852491D01*
X0852884Y0541132D01*
Y0540345D01*
X0852491Y0539952D01*
X0850523D01*
X0852884Y0539165D02*
Y0538378D01*
Y0538771D01*
X0850523D01*
X0850916Y0539165D01*
X0871308Y0528613D02*
X0866979Y0531499D01*
X0871308D02*
X0866979Y0528613D01*
Y0532942D02*
Y0534385D01*
Y0533664D01*
X0871308D01*
X0870587Y0532942D01*
D64*
X0943592Y0329943D02*
X0940968D01*
X0940443Y0330468D01*
Y0331518D01*
X0940968Y0332042D01*
X0943592D01*
X0940443Y0334666D02*
X0943592D01*
X0942018Y0333092D01*
Y0335191D01*
X0943592Y0436243D02*
X0940968D01*
X0940443Y0436767D01*
Y0437817D01*
X0940968Y0438342D01*
X0943592D01*
X0940443Y0440966D02*
X0943592D01*
X0942018Y0439391D01*
Y0441490D01*
X0943592Y0542542D02*
X0940968D01*
X0940443Y0543067D01*
Y0544116D01*
X0940968Y0544641D01*
X0943592D01*
X0940443Y0547265D02*
X0943592D01*
X0942018Y0545690D01*
Y0547789D01*
D111*
X1164247Y0323731D02*
G03*
X1164247Y0323731I-0001245J0000000D01*
G01*
Y0430030D02*
G03*
X1164247Y0430030I-0001245J0000000D01*
G01*
Y0536329D02*
G03*
X1164247Y0536329I-0001245J0000000D01*
G01*
D112*
X1153357Y0346920D02*
X1155718D01*
Y0348100D01*
X1155325Y0348494D01*
X1154537D01*
X1154144Y0348100D01*
Y0346920D01*
Y0347707D02*
X1153357Y0348494D01*
Y0349281D02*
Y0350068D01*
Y0349675D01*
X1155718D01*
X1155325Y0349281D01*
X1167687Y0337727D02*
X1167293Y0337334D01*
X1166506D01*
X1166113Y0337727D01*
Y0339302D01*
X1166506Y0339695D01*
X1167293D01*
X1167687Y0339302D01*
X1170048Y0339695D02*
X1168474D01*
X1170048Y0338121D01*
Y0337727D01*
X1169655Y0337334D01*
X1168868D01*
X1168474Y0337727D01*
X1167687Y0350208D02*
X1167293Y0349814D01*
X1166506D01*
X1166113Y0350208D01*
Y0351782D01*
X1166506Y0352176D01*
X1167293D01*
X1167687Y0351782D01*
X1168474Y0352176D02*
X1169261D01*
X1168868D01*
Y0349814D01*
X1168474Y0350208D01*
X1171074Y0347432D02*
X1173435D01*
Y0345857D01*
Y0343496D02*
Y0345070D01*
X1171861Y0343496D01*
X1171468D01*
X1171074Y0343889D01*
Y0344677D01*
X1171468Y0345070D01*
X1146939Y0330031D02*
Y0332392D01*
X1148514D01*
X1149301Y0330424D02*
X1149694Y0330031D01*
X1150482D01*
X1150875Y0330424D01*
Y0330818D01*
X1150482Y0331211D01*
X1150088D01*
X1150482D01*
X1150875Y0331605D01*
Y0331999D01*
X1150482Y0332392D01*
X1149694D01*
X1149301Y0331999D01*
X1178061Y0316152D02*
Y0314578D01*
X1178849Y0313791D01*
X1179636Y0314578D01*
Y0316152D01*
Y0314971D01*
X1178061D01*
X1180423Y0316152D02*
X1181210D01*
X1180816D01*
Y0313791D01*
X1180423Y0314184D01*
X1153357Y0453219D02*
X1155718D01*
Y0454400D01*
X1155325Y0454793D01*
X1154537D01*
X1154144Y0454400D01*
Y0453219D01*
Y0454006D02*
X1153357Y0454793D01*
Y0455580D02*
Y0456368D01*
Y0455974D01*
X1155718D01*
X1155325Y0455580D01*
X1167687Y0444027D02*
X1167293Y0443633D01*
X1166506D01*
X1166113Y0444027D01*
Y0445601D01*
X1166506Y0445995D01*
X1167293D01*
X1167687Y0445601D01*
X1170048Y0445995D02*
X1168474D01*
X1170048Y0444420D01*
Y0444027D01*
X1169655Y0443633D01*
X1168868D01*
X1168474Y0444027D01*
X1167687Y0456507D02*
X1167293Y0456113D01*
X1166506D01*
X1166113Y0456507D01*
Y0458081D01*
X1166506Y0458475D01*
X1167293D01*
X1167687Y0458081D01*
X1168474Y0458475D02*
X1169261D01*
X1168868D01*
Y0456113D01*
X1168474Y0456507D01*
X1171074Y0453731D02*
X1173435D01*
Y0452156D01*
Y0449795D02*
Y0451369D01*
X1171861Y0449795D01*
X1171468D01*
X1171074Y0450189D01*
Y0450976D01*
X1171468Y0451369D01*
X1146939Y0436330D02*
Y0438691D01*
X1148514D01*
X1149301Y0436724D02*
X1149694Y0436330D01*
X1150482D01*
X1150875Y0436724D01*
Y0437117D01*
X1150482Y0437511D01*
X1150088D01*
X1150482D01*
X1150875Y0437904D01*
Y0438298D01*
X1150482Y0438691D01*
X1149694D01*
X1149301Y0438298D01*
X1178061Y0422451D02*
Y0420877D01*
X1178849Y0420090D01*
X1179636Y0420877D01*
Y0422451D01*
Y0421271D01*
X1178061D01*
X1180423Y0422451D02*
X1181210D01*
X1180816D01*
Y0420090D01*
X1180423Y0420483D01*
X1153357Y0559518D02*
X1155718D01*
Y0560699D01*
X1155325Y0561093D01*
X1154537D01*
X1154144Y0560699D01*
Y0559518D01*
Y0560305D02*
X1153357Y0561093D01*
Y0561880D02*
Y0562667D01*
Y0562273D01*
X1155718D01*
X1155325Y0561880D01*
X1167687Y0550326D02*
X1167293Y0549932D01*
X1166506D01*
X1166113Y0550326D01*
Y0551900D01*
X1166506Y0552294D01*
X1167293D01*
X1167687Y0551900D01*
X1170048Y0552294D02*
X1168474D01*
X1170048Y0550719D01*
Y0550326D01*
X1169655Y0549932D01*
X1168868D01*
X1168474Y0550326D01*
X1167687Y0562806D02*
X1167293Y0562413D01*
X1166506D01*
X1166113Y0562806D01*
Y0564381D01*
X1166506Y0564774D01*
X1167293D01*
X1167687Y0564381D01*
X1168474Y0564774D02*
X1169261D01*
X1168868D01*
Y0562413D01*
X1168474Y0562806D01*
X1171074Y0560030D02*
X1173435D01*
Y0558456D01*
Y0556094D02*
Y0557669D01*
X1171861Y0556094D01*
X1171468D01*
X1171074Y0556488D01*
Y0557275D01*
X1171468Y0557669D01*
X1146939Y0542629D02*
Y0544991D01*
X1148514D01*
X1149301Y0543023D02*
X1149694Y0542629D01*
X1150482D01*
X1150875Y0543023D01*
Y0543416D01*
X1150482Y0543810D01*
X1150088D01*
X1150482D01*
X1150875Y0544204D01*
Y0544597D01*
X1150482Y0544991D01*
X1149694D01*
X1149301Y0544597D01*
X1178061Y0528751D02*
Y0527176D01*
X1178849Y0526389D01*
X1179636Y0527176D01*
Y0528751D01*
Y0527570D01*
X1178061D01*
X1180423Y0528751D02*
X1181210D01*
X1180816D01*
Y0526389D01*
X1180423Y0526783D01*
X1083081Y0332628D02*
Y0334990D01*
X1081900D01*
X1081507Y0334596D01*
Y0333809D01*
X1081900Y0333416D01*
X1083081D01*
X1082294D02*
X1081507Y0332628D01*
X1080720Y0334596D02*
X1080326Y0334990D01*
X1079539D01*
X1079145Y0334596D01*
Y0334203D01*
X1079539Y0333809D01*
X1079933D01*
X1079539D01*
X1079145Y0333416D01*
Y0333022D01*
X1079539Y0332628D01*
X1080326D01*
X1080720Y0333022D01*
X1052963Y0358062D02*
X1050602D01*
Y0356881D01*
X1050995Y0356487D01*
X1051782D01*
X1052176Y0356881D01*
Y0358062D01*
Y0357274D02*
X1052963Y0356487D01*
Y0355700D02*
Y0354913D01*
Y0355307D01*
X1050602D01*
X1050995Y0355700D01*
X1081310Y0304912D02*
Y0307273D01*
X1080129D01*
X1079735Y0306880D01*
Y0306093D01*
X1080129Y0305699D01*
X1081310D01*
X1080522D02*
X1079735Y0304912D01*
X1077374Y0307273D02*
X1078948D01*
Y0306093D01*
X1078161Y0306486D01*
X1077767D01*
X1077374Y0306093D01*
Y0305306D01*
X1077767Y0304912D01*
X1078555D01*
X1078948Y0305306D01*
X1098141Y0329242D02*
X1097747Y0328849D01*
Y0328061D01*
X1098141Y0327668D01*
X1099715D01*
X1100109Y0328061D01*
Y0328849D01*
X1099715Y0329242D01*
X1100109Y0330029D02*
Y0330816D01*
Y0330423D01*
X1097747D01*
X1098141Y0330029D01*
X1087550Y0349519D02*
X1087157Y0349912D01*
Y0350699D01*
X1087550Y0351093D01*
X1089125D01*
X1089518Y0350699D01*
Y0349912D01*
X1089125Y0349519D01*
X1089518Y0347551D02*
X1087157D01*
X1088337Y0348732D01*
Y0347157D01*
X1082412Y0347274D02*
X1084773D01*
Y0348455D01*
X1084380Y0348848D01*
X1083593D01*
X1083199Y0348455D01*
Y0347274D01*
Y0348061D02*
X1082412Y0348848D01*
Y0351210D02*
Y0349636D01*
X1083986Y0351210D01*
X1084380D01*
X1084773Y0350816D01*
Y0350029D01*
X1084380Y0349636D01*
X1049893Y0331703D02*
X1050286Y0332096D01*
X1051073D01*
X1051467Y0331703D01*
Y0330128D01*
X1051073Y0329735D01*
X1050286D01*
X1049893Y0330128D01*
X1047531Y0332096D02*
X1048318Y0331703D01*
X1049106Y0330915D01*
Y0330128D01*
X1048712Y0329735D01*
X1047925D01*
X1047531Y0330128D01*
Y0330522D01*
X1047925Y0330915D01*
X1049106D01*
X1049893Y0336230D02*
X1050286Y0336624D01*
X1051073D01*
X1051467Y0336230D01*
Y0334656D01*
X1051073Y0334262D01*
X1050286D01*
X1049893Y0334656D01*
X1047531Y0336624D02*
X1049106D01*
Y0335443D01*
X1048318Y0335837D01*
X1047925D01*
X1047531Y0335443D01*
Y0334656D01*
X1047925Y0334262D01*
X1048712D01*
X1049106Y0334656D01*
X1060680Y0310148D02*
X1058318D01*
Y0308967D01*
X1058712Y0308574D01*
X1059499D01*
X1059892Y0308967D01*
Y0310148D01*
Y0309361D02*
X1060680Y0308574D01*
X1058318Y0306212D02*
X1058712Y0306999D01*
X1059499Y0307787D01*
X1060286D01*
X1060680Y0307393D01*
Y0306606D01*
X1060286Y0306212D01*
X1059892D01*
X1059499Y0306606D01*
Y0307787D01*
X1050128Y0306644D02*
Y0304283D01*
X1051309D01*
X1051703Y0304676D01*
Y0305464D01*
X1051309Y0305857D01*
X1050128D01*
X1050916D02*
X1051703Y0306644D01*
X1052490Y0304283D02*
X1054064D01*
Y0304676D01*
X1052490Y0306251D01*
Y0306644D01*
X1060207Y0299754D02*
Y0302116D01*
X1059026D01*
X1058633Y0301722D01*
Y0300935D01*
X1059026Y0300542D01*
X1060207D01*
X1059420D02*
X1058633Y0299754D01*
X1056665D02*
Y0302116D01*
X1057846Y0300935D01*
X1056271D01*
X1079617Y0302529D02*
X1080011Y0302923D01*
X1080798D01*
X1081191Y0302529D01*
Y0300955D01*
X1080798Y0300561D01*
X1080011D01*
X1079617Y0300955D01*
X1078830Y0300561D02*
X1078043D01*
X1078436D01*
Y0302923D01*
X1078830Y0302529D01*
X1076862Y0300561D02*
X1076075D01*
X1076468D01*
Y0302923D01*
X1076862Y0302529D01*
X1057373Y0298357D02*
X1057767Y0297964D01*
X1058554D01*
X1058947Y0298357D01*
Y0299932D01*
X1058554Y0300325D01*
X1057767D01*
X1057373Y0299932D01*
X1056586D02*
X1056192Y0300325D01*
X1055405D01*
X1055012Y0299932D01*
Y0298357D01*
X1055405Y0297964D01*
X1056192D01*
X1056586Y0298357D01*
Y0298751D01*
X1056192Y0299145D01*
X1055012D01*
X1083081Y0438928D02*
Y0441289D01*
X1081900D01*
X1081507Y0440896D01*
Y0440108D01*
X1081900Y0439715D01*
X1083081D01*
X1082294D02*
X1081507Y0438928D01*
X1080720Y0440896D02*
X1080326Y0441289D01*
X1079539D01*
X1079145Y0440896D01*
Y0440502D01*
X1079539Y0440108D01*
X1079933D01*
X1079539D01*
X1079145Y0439715D01*
Y0439321D01*
X1079539Y0438928D01*
X1080326D01*
X1080720Y0439321D01*
X1052963Y0464361D02*
X1050602D01*
Y0463180D01*
X1050995Y0462786D01*
X1051782D01*
X1052176Y0463180D01*
Y0464361D01*
Y0463574D02*
X1052963Y0462786D01*
Y0461999D02*
Y0461212D01*
Y0461606D01*
X1050602D01*
X1050995Y0461999D01*
X1081310Y0411211D02*
Y0413573D01*
X1080129D01*
X1079735Y0413179D01*
Y0412392D01*
X1080129Y0411998D01*
X1081310D01*
X1080522D02*
X1079735Y0411211D01*
X1077374Y0413573D02*
X1078948D01*
Y0412392D01*
X1078161Y0412785D01*
X1077767D01*
X1077374Y0412392D01*
Y0411605D01*
X1077767Y0411211D01*
X1078555D01*
X1078948Y0411605D01*
X1098141Y0435541D02*
X1097747Y0435148D01*
Y0434361D01*
X1098141Y0433967D01*
X1099715D01*
X1100109Y0434361D01*
Y0435148D01*
X1099715Y0435541D01*
X1100109Y0436328D02*
Y0437116D01*
Y0436722D01*
X1097747D01*
X1098141Y0436328D01*
X1087550Y0455818D02*
X1087157Y0456212D01*
Y0456999D01*
X1087550Y0457392D01*
X1089125D01*
X1089518Y0456999D01*
Y0456212D01*
X1089125Y0455818D01*
X1089518Y0453850D02*
X1087157D01*
X1088337Y0455031D01*
Y0453456D01*
X1082412Y0453573D02*
X1084773D01*
Y0454754D01*
X1084380Y0455148D01*
X1083593D01*
X1083199Y0454754D01*
Y0453573D01*
Y0454360D02*
X1082412Y0455148D01*
Y0457509D02*
Y0455935D01*
X1083986Y0457509D01*
X1084380D01*
X1084773Y0457116D01*
Y0456328D01*
X1084380Y0455935D01*
X1049893Y0438002D02*
X1050286Y0438395D01*
X1051073D01*
X1051467Y0438002D01*
Y0436427D01*
X1051073Y0436034D01*
X1050286D01*
X1049893Y0436427D01*
X1047531Y0438395D02*
X1048318Y0438002D01*
X1049106Y0437215D01*
Y0436427D01*
X1048712Y0436034D01*
X1047925D01*
X1047531Y0436427D01*
Y0436821D01*
X1047925Y0437215D01*
X1049106D01*
X1049893Y0442529D02*
X1050286Y0442923D01*
X1051073D01*
X1051467Y0442529D01*
Y0440955D01*
X1051073Y0440561D01*
X1050286D01*
X1049893Y0440955D01*
X1047531Y0442923D02*
X1049106D01*
Y0441742D01*
X1048318Y0442136D01*
X1047925D01*
X1047531Y0441742D01*
Y0440955D01*
X1047925Y0440561D01*
X1048712D01*
X1049106Y0440955D01*
X1060680Y0416447D02*
X1058318D01*
Y0415267D01*
X1058712Y0414873D01*
X1059499D01*
X1059892Y0415267D01*
Y0416447D01*
Y0415660D02*
X1060680Y0414873D01*
X1058318Y0412512D02*
X1058712Y0413299D01*
X1059499Y0414086D01*
X1060286D01*
X1060680Y0413692D01*
Y0412905D01*
X1060286Y0412512D01*
X1059892D01*
X1059499Y0412905D01*
Y0414086D01*
X1050128Y0412943D02*
Y0410582D01*
X1051309D01*
X1051703Y0410976D01*
Y0411763D01*
X1051309Y0412156D01*
X1050128D01*
X1050916D02*
X1051703Y0412943D01*
X1052490Y0410582D02*
X1054064D01*
Y0410976D01*
X1052490Y0412550D01*
Y0412943D01*
X1060207Y0406054D02*
Y0408415D01*
X1059026D01*
X1058633Y0408021D01*
Y0407234D01*
X1059026Y0406841D01*
X1060207D01*
X1059420D02*
X1058633Y0406054D01*
X1056665D02*
Y0408415D01*
X1057846Y0407234D01*
X1056271D01*
X1079617Y0408829D02*
X1080011Y0409222D01*
X1080798D01*
X1081191Y0408829D01*
Y0407254D01*
X1080798Y0406861D01*
X1080011D01*
X1079617Y0407254D01*
X1078830Y0406861D02*
X1078043D01*
X1078436D01*
Y0409222D01*
X1078830Y0408829D01*
X1076862Y0406861D02*
X1076075D01*
X1076468D01*
Y0409222D01*
X1076862Y0408829D01*
X1057373Y0404657D02*
X1057767Y0404263D01*
X1058554D01*
X1058947Y0404657D01*
Y0406231D01*
X1058554Y0406625D01*
X1057767D01*
X1057373Y0406231D01*
X1056586D02*
X1056192Y0406625D01*
X1055405D01*
X1055012Y0406231D01*
Y0404657D01*
X1055405Y0404263D01*
X1056192D01*
X1056586Y0404657D01*
Y0405050D01*
X1056192Y0405444D01*
X1055012D01*
X1083081Y0545227D02*
Y0547588D01*
X1081900D01*
X1081507Y0547195D01*
Y0546408D01*
X1081900Y0546014D01*
X1083081D01*
X1082294D02*
X1081507Y0545227D01*
X1080720Y0547195D02*
X1080326Y0547588D01*
X1079539D01*
X1079145Y0547195D01*
Y0546801D01*
X1079539Y0546408D01*
X1079933D01*
X1079539D01*
X1079145Y0546014D01*
Y0545620D01*
X1079539Y0545227D01*
X1080326D01*
X1080720Y0545620D01*
X1052963Y0570660D02*
X1050602D01*
Y0569479D01*
X1050995Y0569086D01*
X1051782D01*
X1052176Y0569479D01*
Y0570660D01*
Y0569873D02*
X1052963Y0569086D01*
Y0568298D02*
Y0567511D01*
Y0567905D01*
X1050602D01*
X1050995Y0568298D01*
X1081310Y0517510D02*
Y0519872D01*
X1080129D01*
X1079735Y0519478D01*
Y0518691D01*
X1080129Y0518297D01*
X1081310D01*
X1080522D02*
X1079735Y0517510D01*
X1077374Y0519872D02*
X1078948D01*
Y0518691D01*
X1078161Y0519085D01*
X1077767D01*
X1077374Y0518691D01*
Y0517904D01*
X1077767Y0517510D01*
X1078555D01*
X1078948Y0517904D01*
X1098141Y0541841D02*
X1097747Y0541447D01*
Y0540660D01*
X1098141Y0540266D01*
X1099715D01*
X1100109Y0540660D01*
Y0541447D01*
X1099715Y0541841D01*
X1100109Y0542628D02*
Y0543415D01*
Y0543021D01*
X1097747D01*
X1098141Y0542628D01*
X1087550Y0562117D02*
X1087157Y0562511D01*
Y0563298D01*
X1087550Y0563691D01*
X1089125D01*
X1089518Y0563298D01*
Y0562511D01*
X1089125Y0562117D01*
X1089518Y0560149D02*
X1087157D01*
X1088337Y0561330D01*
Y0559756D01*
X1082412Y0559872D02*
X1084773D01*
Y0561053D01*
X1084380Y0561447D01*
X1083593D01*
X1083199Y0561053D01*
Y0559872D01*
Y0560660D02*
X1082412Y0561447D01*
Y0563808D02*
Y0562234D01*
X1083986Y0563808D01*
X1084380D01*
X1084773Y0563415D01*
Y0562628D01*
X1084380Y0562234D01*
X1049893Y0544301D02*
X1050286Y0544695D01*
X1051073D01*
X1051467Y0544301D01*
Y0542727D01*
X1051073Y0542333D01*
X1050286D01*
X1049893Y0542727D01*
X1047531Y0544695D02*
X1048318Y0544301D01*
X1049106Y0543514D01*
Y0542727D01*
X1048712Y0542333D01*
X1047925D01*
X1047531Y0542727D01*
Y0543120D01*
X1047925Y0543514D01*
X1049106D01*
X1049893Y0548829D02*
X1050286Y0549222D01*
X1051073D01*
X1051467Y0548829D01*
Y0547254D01*
X1051073Y0546861D01*
X1050286D01*
X1049893Y0547254D01*
X1047531Y0549222D02*
X1049106D01*
Y0548041D01*
X1048318Y0548435D01*
X1047925D01*
X1047531Y0548041D01*
Y0547254D01*
X1047925Y0546861D01*
X1048712D01*
X1049106Y0547254D01*
X1060680Y0522747D02*
X1058318D01*
Y0521566D01*
X1058712Y0521172D01*
X1059499D01*
X1059892Y0521566D01*
Y0522747D01*
Y0521959D02*
X1060680Y0521172D01*
X1058318Y0518811D02*
X1058712Y0519598D01*
X1059499Y0520385D01*
X1060286D01*
X1060680Y0519991D01*
Y0519204D01*
X1060286Y0518811D01*
X1059892D01*
X1059499Y0519204D01*
Y0520385D01*
X1050128Y0519243D02*
Y0516881D01*
X1051309D01*
X1051703Y0517275D01*
Y0518062D01*
X1051309Y0518456D01*
X1050128D01*
X1050916D02*
X1051703Y0519243D01*
X1052490Y0516881D02*
X1054064D01*
Y0517275D01*
X1052490Y0518849D01*
Y0519243D01*
X1060207Y0512353D02*
Y0514714D01*
X1059026D01*
X1058633Y0514321D01*
Y0513534D01*
X1059026Y0513140D01*
X1060207D01*
X1059420D02*
X1058633Y0512353D01*
X1056665D02*
Y0514714D01*
X1057846Y0513534D01*
X1056271D01*
X1079617Y0515128D02*
X1080011Y0515521D01*
X1080798D01*
X1081191Y0515128D01*
Y0513553D01*
X1080798Y0513160D01*
X1080011D01*
X1079617Y0513553D01*
X1078830Y0513160D02*
X1078043D01*
X1078436D01*
Y0515521D01*
X1078830Y0515128D01*
X1076862Y0513160D02*
X1076075D01*
X1076468D01*
Y0515521D01*
X1076862Y0515128D01*
X1057373Y0510956D02*
X1057767Y0510562D01*
X1058554D01*
X1058947Y0510956D01*
Y0512530D01*
X1058554Y0512924D01*
X1057767D01*
X1057373Y0512530D01*
X1056586D02*
X1056192Y0512924D01*
X1055405D01*
X1055012Y0512530D01*
Y0510956D01*
X1055405Y0510562D01*
X1056192D01*
X1056586Y0510956D01*
Y0511349D01*
X1056192Y0511743D01*
X1055012D01*
X0967018Y0296762D02*
Y0299124D01*
X0965837D01*
X0965444Y0298730D01*
Y0297943D01*
X0965837Y0297549D01*
X0967018D01*
X0966231D02*
X0965444Y0296762D01*
X0964657D02*
X0963870D01*
X0964263D01*
Y0299124D01*
X0964657Y0298730D01*
X0961508Y0296762D02*
Y0299124D01*
X0962689Y0297943D01*
X0961115D01*
X0951624Y0336999D02*
Y0334637D01*
X0952805D01*
X0953199Y0335031D01*
Y0335818D01*
X0952805Y0336211D01*
X0951624D01*
X0952412D02*
X0953199Y0336999D01*
X0955560Y0334637D02*
X0954773Y0335031D01*
X0953986Y0335818D01*
Y0336605D01*
X0954379Y0336999D01*
X0955167D01*
X0955560Y0336605D01*
Y0336211D01*
X0955167Y0335818D01*
X0953986D01*
X0951624Y0341329D02*
Y0338968D01*
X0952805D01*
X0953199Y0339361D01*
Y0340148D01*
X0952805Y0340542D01*
X0951624D01*
X0952412D02*
X0953199Y0341329D01*
X0955560Y0338968D02*
X0953986D01*
Y0340148D01*
X0954773Y0339755D01*
X0955167D01*
X0955560Y0340148D01*
Y0340936D01*
X0955167Y0341329D01*
X0954379D01*
X0953986Y0340936D01*
X0958317Y0349085D02*
X0955956D01*
Y0347904D01*
X0956349Y0347511D01*
X0957137D01*
X0957530Y0347904D01*
Y0349085D01*
Y0348298D02*
X0958317Y0347511D01*
X0956349Y0346724D02*
X0955956Y0346330D01*
Y0345543D01*
X0956349Y0345149D01*
X0956743D01*
X0957137Y0345543D01*
Y0345936D01*
Y0345543D01*
X0957530Y0345149D01*
X0957924D01*
X0958317Y0345543D01*
Y0346330D01*
X0957924Y0346724D01*
X0953987Y0349046D02*
X0951625D01*
Y0347865D01*
X0952019Y0347471D01*
X0952806D01*
X0953199Y0347865D01*
Y0349046D01*
Y0348259D02*
X0953987Y0347471D01*
Y0346684D02*
Y0345897D01*
Y0346291D01*
X0951625D01*
X0952019Y0346684D01*
Y0344716D02*
X0951625Y0344323D01*
Y0343536D01*
X0952019Y0343142D01*
X0953593D01*
X0953987Y0343536D01*
Y0344323D01*
X0953593Y0344716D01*
X0952019D01*
X0949656Y0349046D02*
X0947295D01*
Y0347865D01*
X0947688Y0347471D01*
X0948475D01*
X0948869Y0347865D01*
Y0349046D01*
Y0348259D02*
X0949656Y0347471D01*
X0949262Y0346684D02*
X0949656Y0346291D01*
Y0345504D01*
X0949262Y0345110D01*
X0947688D01*
X0947295Y0345504D01*
Y0346291D01*
X0947688Y0346684D01*
X0948082D01*
X0948475Y0346291D01*
Y0345110D01*
X0941880Y0307155D02*
X0942273Y0306762D01*
Y0305975D01*
X0941880Y0305581D01*
X0940305D01*
X0939912Y0305975D01*
Y0306762D01*
X0940305Y0307155D01*
X0939912Y0307943D02*
Y0308730D01*
Y0308336D01*
X0942273D01*
X0941880Y0307943D01*
Y0309910D02*
X0942273Y0310304D01*
Y0311091D01*
X0941880Y0311485D01*
X0941486D01*
X0941093Y0311091D01*
Y0310698D01*
Y0311091D01*
X0940699Y0311485D01*
X0940305D01*
X0939912Y0311091D01*
Y0310304D01*
X0940305Y0309910D01*
X0937273Y0307116D02*
X0937667Y0306722D01*
Y0305935D01*
X0937273Y0305542D01*
X0935699D01*
X0935306Y0305935D01*
Y0306722D01*
X0935699Y0307116D01*
X0935306Y0307903D02*
Y0308690D01*
Y0308297D01*
X0937667D01*
X0937273Y0307903D01*
X0935306Y0311052D02*
X0937667D01*
X0936486Y0309871D01*
Y0311445D01*
X0954852Y0297373D02*
X0954459Y0296980D01*
X0953672D01*
X0953278Y0297373D01*
Y0298947D01*
X0953672Y0299341D01*
X0954459D01*
X0954852Y0298947D01*
X0955639Y0299341D02*
X0956427D01*
X0956033D01*
Y0296980D01*
X0955639Y0297373D01*
X0957607Y0299341D02*
X0958394D01*
X0958001D01*
Y0296980D01*
X0957607Y0297373D01*
X0949066Y0298750D02*
X0949459Y0299143D01*
X0950247D01*
X0950640Y0298750D01*
Y0297176D01*
X0950247Y0296782D01*
X0949459D01*
X0949066Y0297176D01*
X0948279Y0296782D02*
X0947492D01*
X0947885D01*
Y0299143D01*
X0948279Y0298750D01*
X0944737Y0296782D02*
X0946311D01*
X0944737Y0298356D01*
Y0298750D01*
X0945130Y0299143D01*
X0945917D01*
X0946311Y0298750D01*
X0961448Y0305818D02*
X0961054Y0306211D01*
Y0306999D01*
X0961448Y0307392D01*
X0963022D01*
X0963416Y0306999D01*
Y0306211D01*
X0963022Y0305818D01*
X0963416Y0305031D02*
Y0304244D01*
Y0304637D01*
X0961054D01*
X0961448Y0305031D01*
Y0303063D02*
X0961054Y0302669D01*
Y0301882D01*
X0961448Y0301489D01*
X0963022D01*
X0963416Y0301882D01*
Y0302669D01*
X0963022Y0303063D01*
X0961448D01*
X0971231Y0342805D02*
X0971625Y0343198D01*
X0972412D01*
X0972806Y0342805D01*
Y0341231D01*
X0972412Y0340837D01*
X0971625D01*
X0971231Y0341231D01*
X0968870Y0340837D02*
X0970444D01*
X0968870Y0342411D01*
Y0342805D01*
X0969263Y0343198D01*
X0970051D01*
X0970444Y0342805D01*
X0980128Y0336487D02*
X0982490D01*
Y0337667D01*
X0982096Y0338061D01*
X0981309D01*
X0980916Y0337667D01*
Y0336487D01*
Y0337274D02*
X0980128Y0338061D01*
Y0338848D02*
Y0339635D01*
Y0339242D01*
X0982490D01*
X0982096Y0338848D01*
X0980128Y0340816D02*
Y0341603D01*
Y0341210D01*
X0982490D01*
X0982096Y0340816D01*
X0979695Y0348613D02*
X0977334D01*
Y0347432D01*
X0977728Y0347038D01*
X0978515D01*
X0978908Y0347432D01*
Y0348613D01*
Y0347826D02*
X0979695Y0347038D01*
Y0346251D02*
Y0345464D01*
Y0345858D01*
X0977334D01*
X0977728Y0346251D01*
X0979695Y0342709D02*
Y0344283D01*
X0978121Y0342709D01*
X0977728D01*
X0977334Y0343103D01*
Y0343890D01*
X0977728Y0344283D01*
X0965302Y0357668D02*
Y0355306D01*
X0966482D01*
X0966876Y0355700D01*
Y0356487D01*
X0966482Y0356881D01*
X0965302D01*
X0966089D02*
X0966876Y0357668D01*
X0967663D02*
X0968450D01*
X0968057D01*
Y0355306D01*
X0967663Y0355700D01*
X0948735Y0316971D02*
X0951096D01*
Y0318152D01*
X0950703Y0318545D01*
X0949915D01*
X0949522Y0318152D01*
Y0316971D01*
Y0317758D02*
X0948735Y0318545D01*
X0951096Y0319332D02*
Y0320907D01*
X0950703D01*
X0949128Y0319332D01*
X0948735D01*
X0949113Y0327428D02*
Y0325066D01*
X0950293D01*
X0950687Y0325460D01*
Y0326247D01*
X0950293Y0326641D01*
X0949113D01*
X0949900D02*
X0950687Y0327428D01*
X0952655D02*
Y0325066D01*
X0951474Y0326247D01*
X0953048D01*
X0939696Y0317096D02*
X0940089Y0317490D01*
X0940877D01*
X0941270Y0317096D01*
Y0315522D01*
X0940877Y0315128D01*
X0940089D01*
X0939696Y0315522D01*
X0938909D02*
X0938515Y0315128D01*
X0937728D01*
X0937334Y0315522D01*
Y0317096D01*
X0937728Y0317490D01*
X0938515D01*
X0938909Y0317096D01*
Y0316703D01*
X0938515Y0316309D01*
X0937334D01*
X0939735Y0345049D02*
X0940129Y0345443D01*
X0940916D01*
X0941310Y0345049D01*
Y0343475D01*
X0940916Y0343081D01*
X0940129D01*
X0939735Y0343475D01*
X0937374Y0345443D02*
X0938948D01*
Y0344262D01*
X0938161Y0344655D01*
X0937767D01*
X0937374Y0344262D01*
Y0343475D01*
X0937767Y0343081D01*
X0938554D01*
X0938948Y0343475D01*
X0974223Y0314046D02*
Y0311684D01*
X0975404D01*
X0975797Y0312078D01*
Y0312865D01*
X0975404Y0313259D01*
X0974223D01*
X0975010D02*
X0975797Y0314046D01*
X0976584D02*
X0977372D01*
X0976978D01*
Y0311684D01*
X0976584Y0312078D01*
X0978552D02*
X0978946Y0311684D01*
X0979733D01*
X0980126Y0312078D01*
Y0312471D01*
X0979733Y0312865D01*
X0979339D01*
X0979733D01*
X0980126Y0313259D01*
Y0313652D01*
X0979733Y0314046D01*
X0978946D01*
X0978552Y0313652D01*
X0971486Y0309596D02*
X0971880Y0309203D01*
Y0308416D01*
X0971486Y0308022D01*
X0969912D01*
X0969518Y0308416D01*
Y0309203D01*
X0969912Y0309596D01*
X0969518Y0311564D02*
X0971880D01*
X0970699Y0310384D01*
Y0311958D01*
X0983535Y0322944D02*
X0983141Y0323338D01*
Y0324125D01*
X0983535Y0324518D01*
X0985109D01*
X0985502Y0324125D01*
Y0323338D01*
X0985109Y0322944D01*
X0983535Y0322157D02*
X0983141Y0321763D01*
Y0320976D01*
X0983535Y0320583D01*
X0983928D01*
X0984322Y0320976D01*
Y0321370D01*
Y0320976D01*
X0984715Y0320583D01*
X0985109D01*
X0985502Y0320976D01*
Y0321763D01*
X0985109Y0322157D01*
X0980128Y0328967D02*
Y0331328D01*
X0978948D01*
X0978554Y0330935D01*
Y0330148D01*
X0978948Y0329754D01*
X0980128D01*
X0979341D02*
X0978554Y0328967D01*
X0976193D02*
X0977767D01*
X0976193Y0330541D01*
Y0330935D01*
X0976586Y0331328D01*
X0977373D01*
X0977767Y0330935D01*
X0966310Y0331723D02*
Y0329362D01*
X0967490D01*
X0967884Y0329755D01*
Y0330542D01*
X0967490Y0330936D01*
X0966310D01*
X0967097D02*
X0967884Y0331723D01*
X0968671Y0329755D02*
X0969065Y0329362D01*
X0969852D01*
X0970245Y0329755D01*
Y0330149D01*
X0969852Y0330542D01*
X0970245Y0330936D01*
Y0331329D01*
X0969852Y0331723D01*
X0969065D01*
X0968671Y0331329D01*
Y0330936D01*
X0969065Y0330542D01*
X0968671Y0330149D01*
Y0329755D01*
X0969065Y0330542D02*
X0969852D01*
X0967018Y0403061D02*
Y0405423D01*
X0965837D01*
X0965444Y0405029D01*
Y0404242D01*
X0965837Y0403849D01*
X0967018D01*
X0966231D02*
X0965444Y0403061D01*
X0964657D02*
X0963870D01*
X0964263D01*
Y0405423D01*
X0964657Y0405029D01*
X0961508Y0403061D02*
Y0405423D01*
X0962689Y0404242D01*
X0961115D01*
X0951624Y0443298D02*
Y0440936D01*
X0952805D01*
X0953199Y0441330D01*
Y0442117D01*
X0952805Y0442511D01*
X0951624D01*
X0952412D02*
X0953199Y0443298D01*
X0955560Y0440936D02*
X0954773Y0441330D01*
X0953986Y0442117D01*
Y0442904D01*
X0954379Y0443298D01*
X0955167D01*
X0955560Y0442904D01*
Y0442511D01*
X0955167Y0442117D01*
X0953986D01*
X0951624Y0447628D02*
Y0445267D01*
X0952805D01*
X0953199Y0445661D01*
Y0446448D01*
X0952805Y0446841D01*
X0951624D01*
X0952412D02*
X0953199Y0447628D01*
X0955560Y0445267D02*
X0953986D01*
Y0446448D01*
X0954773Y0446054D01*
X0955167D01*
X0955560Y0446448D01*
Y0447235D01*
X0955167Y0447628D01*
X0954379D01*
X0953986Y0447235D01*
X0958317Y0455384D02*
X0955956D01*
Y0454204D01*
X0956349Y0453810D01*
X0957137D01*
X0957530Y0454204D01*
Y0455384D01*
Y0454597D02*
X0958317Y0453810D01*
X0956349Y0453023D02*
X0955956Y0452629D01*
Y0451842D01*
X0956349Y0451449D01*
X0956743D01*
X0957137Y0451842D01*
Y0452236D01*
Y0451842D01*
X0957530Y0451449D01*
X0957924D01*
X0958317Y0451842D01*
Y0452629D01*
X0957924Y0453023D01*
X0953987Y0455345D02*
X0951625D01*
Y0454164D01*
X0952019Y0453771D01*
X0952806D01*
X0953199Y0454164D01*
Y0455345D01*
Y0454558D02*
X0953987Y0453771D01*
Y0452984D02*
Y0452196D01*
Y0452590D01*
X0951625D01*
X0952019Y0452984D01*
Y0451016D02*
X0951625Y0450622D01*
Y0449835D01*
X0952019Y0449441D01*
X0953593D01*
X0953987Y0449835D01*
Y0450622D01*
X0953593Y0451016D01*
X0952019D01*
X0949656Y0455345D02*
X0947295D01*
Y0454164D01*
X0947688Y0453771D01*
X0948475D01*
X0948869Y0454164D01*
Y0455345D01*
Y0454558D02*
X0949656Y0453771D01*
X0949262Y0452984D02*
X0949656Y0452590D01*
Y0451803D01*
X0949262Y0451409D01*
X0947688D01*
X0947295Y0451803D01*
Y0452590D01*
X0947688Y0452984D01*
X0948082D01*
X0948475Y0452590D01*
Y0451409D01*
X0941880Y0413455D02*
X0942273Y0413061D01*
Y0412274D01*
X0941880Y0411880D01*
X0940305D01*
X0939912Y0412274D01*
Y0413061D01*
X0940305Y0413455D01*
X0939912Y0414242D02*
Y0415029D01*
Y0414635D01*
X0942273D01*
X0941880Y0414242D01*
Y0416210D02*
X0942273Y0416603D01*
Y0417390D01*
X0941880Y0417784D01*
X0941486D01*
X0941093Y0417390D01*
Y0416997D01*
Y0417390D01*
X0940699Y0417784D01*
X0940305D01*
X0939912Y0417390D01*
Y0416603D01*
X0940305Y0416210D01*
X0937273Y0413415D02*
X0937667Y0413022D01*
Y0412235D01*
X0937273Y0411841D01*
X0935699D01*
X0935306Y0412235D01*
Y0413022D01*
X0935699Y0413415D01*
X0935306Y0414202D02*
Y0414990D01*
Y0414596D01*
X0937667D01*
X0937273Y0414202D01*
X0935306Y0417351D02*
X0937667D01*
X0936486Y0416170D01*
Y0417745D01*
X0954852Y0403672D02*
X0954459Y0403279D01*
X0953672D01*
X0953278Y0403672D01*
Y0405247D01*
X0953672Y0405640D01*
X0954459D01*
X0954852Y0405247D01*
X0955639Y0405640D02*
X0956427D01*
X0956033D01*
Y0403279D01*
X0955639Y0403672D01*
X0957607Y0405640D02*
X0958394D01*
X0958001D01*
Y0403279D01*
X0957607Y0403672D01*
X0949066Y0405049D02*
X0949459Y0405443D01*
X0950247D01*
X0950640Y0405049D01*
Y0403475D01*
X0950247Y0403081D01*
X0949459D01*
X0949066Y0403475D01*
X0948279Y0403081D02*
X0947492D01*
X0947885D01*
Y0405443D01*
X0948279Y0405049D01*
X0944737Y0403081D02*
X0946311D01*
X0944737Y0404656D01*
Y0405049D01*
X0945130Y0405443D01*
X0945917D01*
X0946311Y0405049D01*
X0961448Y0412117D02*
X0961054Y0412511D01*
Y0413298D01*
X0961448Y0413691D01*
X0963022D01*
X0963416Y0413298D01*
Y0412511D01*
X0963022Y0412117D01*
X0963416Y0411330D02*
Y0410543D01*
Y0410936D01*
X0961054D01*
X0961448Y0411330D01*
Y0409362D02*
X0961054Y0408969D01*
Y0408181D01*
X0961448Y0407788D01*
X0963022D01*
X0963416Y0408181D01*
Y0408969D01*
X0963022Y0409362D01*
X0961448D01*
X0971231Y0449104D02*
X0971625Y0449498D01*
X0972412D01*
X0972806Y0449104D01*
Y0447530D01*
X0972412Y0447136D01*
X0971625D01*
X0971231Y0447530D01*
X0968870Y0447136D02*
X0970444D01*
X0968870Y0448711D01*
Y0449104D01*
X0969263Y0449498D01*
X0970051D01*
X0970444Y0449104D01*
X0980128Y0442786D02*
X0982490D01*
Y0443967D01*
X0982096Y0444360D01*
X0981309D01*
X0980916Y0443967D01*
Y0442786D01*
Y0443573D02*
X0980128Y0444360D01*
Y0445147D02*
Y0445934D01*
Y0445541D01*
X0982490D01*
X0982096Y0445147D01*
X0980128Y0447115D02*
Y0447902D01*
Y0447509D01*
X0982490D01*
X0982096Y0447115D01*
X0979695Y0454912D02*
X0977334D01*
Y0453731D01*
X0977728Y0453338D01*
X0978515D01*
X0978908Y0453731D01*
Y0454912D01*
Y0454125D02*
X0979695Y0453338D01*
Y0452551D02*
Y0451763D01*
Y0452157D01*
X0977334D01*
X0977728Y0452551D01*
X0979695Y0449008D02*
Y0450583D01*
X0978121Y0449008D01*
X0977728D01*
X0977334Y0449402D01*
Y0450189D01*
X0977728Y0450583D01*
X0965302Y0463967D02*
Y0461606D01*
X0966482D01*
X0966876Y0461999D01*
Y0462786D01*
X0966482Y0463180D01*
X0965302D01*
X0966089D02*
X0966876Y0463967D01*
X0967663D02*
X0968450D01*
X0968057D01*
Y0461606D01*
X0967663Y0461999D01*
X0948735Y0423270D02*
X0951096D01*
Y0424451D01*
X0950703Y0424844D01*
X0949915D01*
X0949522Y0424451D01*
Y0423270D01*
Y0424057D02*
X0948735Y0424844D01*
X0951096Y0425632D02*
Y0427206D01*
X0950703D01*
X0949128Y0425632D01*
X0948735D01*
X0949113Y0433727D02*
Y0431365D01*
X0950293D01*
X0950687Y0431759D01*
Y0432546D01*
X0950293Y0432940D01*
X0949113D01*
X0949900D02*
X0950687Y0433727D01*
X0952655D02*
Y0431365D01*
X0951474Y0432546D01*
X0953048D01*
X0939696Y0423395D02*
X0940089Y0423789D01*
X0940877D01*
X0941270Y0423395D01*
Y0421821D01*
X0940877Y0421428D01*
X0940089D01*
X0939696Y0421821D01*
X0938909D02*
X0938515Y0421428D01*
X0937728D01*
X0937334Y0421821D01*
Y0423395D01*
X0937728Y0423789D01*
X0938515D01*
X0938909Y0423395D01*
Y0423002D01*
X0938515Y0422608D01*
X0937334D01*
X0939735Y0451348D02*
X0940129Y0451742D01*
X0940916D01*
X0941310Y0451348D01*
Y0449774D01*
X0940916Y0449380D01*
X0940129D01*
X0939735Y0449774D01*
X0937374Y0451742D02*
X0938948D01*
Y0450561D01*
X0938161Y0450955D01*
X0937767D01*
X0937374Y0450561D01*
Y0449774D01*
X0937767Y0449380D01*
X0938554D01*
X0938948Y0449774D01*
X0974223Y0420345D02*
Y0417983D01*
X0975404D01*
X0975797Y0418377D01*
Y0419164D01*
X0975404Y0419558D01*
X0974223D01*
X0975010D02*
X0975797Y0420345D01*
X0976584D02*
X0977372D01*
X0976978D01*
Y0417983D01*
X0976584Y0418377D01*
X0978552D02*
X0978946Y0417983D01*
X0979733D01*
X0980126Y0418377D01*
Y0418771D01*
X0979733Y0419164D01*
X0979339D01*
X0979733D01*
X0980126Y0419558D01*
Y0419951D01*
X0979733Y0420345D01*
X0978946D01*
X0978552Y0419951D01*
X0971486Y0415896D02*
X0971880Y0415502D01*
Y0414715D01*
X0971486Y0414321D01*
X0969912D01*
X0969518Y0414715D01*
Y0415502D01*
X0969912Y0415896D01*
X0969518Y0417864D02*
X0971880D01*
X0970699Y0416683D01*
Y0418257D01*
X0983535Y0429243D02*
X0983141Y0429637D01*
Y0430424D01*
X0983535Y0430817D01*
X0985109D01*
X0985502Y0430424D01*
Y0429637D01*
X0985109Y0429243D01*
X0983535Y0428456D02*
X0983141Y0428062D01*
Y0427275D01*
X0983535Y0426882D01*
X0983928D01*
X0984322Y0427275D01*
Y0427669D01*
Y0427275D01*
X0984715Y0426882D01*
X0985109D01*
X0985502Y0427275D01*
Y0428062D01*
X0985109Y0428456D01*
X0980128Y0435266D02*
Y0437628D01*
X0978948D01*
X0978554Y0437234D01*
Y0436447D01*
X0978948Y0436053D01*
X0980128D01*
X0979341D02*
X0978554Y0435266D01*
X0976193D02*
X0977767D01*
X0976193Y0436840D01*
Y0437234D01*
X0976586Y0437628D01*
X0977373D01*
X0977767Y0437234D01*
X0966310Y0438022D02*
Y0435661D01*
X0967490D01*
X0967884Y0436054D01*
Y0436841D01*
X0967490Y0437235D01*
X0966310D01*
X0967097D02*
X0967884Y0438022D01*
X0968671Y0436054D02*
X0969065Y0435661D01*
X0969852D01*
X0970245Y0436054D01*
Y0436448D01*
X0969852Y0436841D01*
X0970245Y0437235D01*
Y0437629D01*
X0969852Y0438022D01*
X0969065D01*
X0968671Y0437629D01*
Y0437235D01*
X0969065Y0436841D01*
X0968671Y0436448D01*
Y0436054D01*
X0969065Y0436841D02*
X0969852D01*
X0967018Y0509361D02*
Y0511722D01*
X0965837D01*
X0965444Y0511329D01*
Y0510541D01*
X0965837Y0510148D01*
X0967018D01*
X0966231D02*
X0965444Y0509361D01*
X0964657D02*
X0963870D01*
X0964263D01*
Y0511722D01*
X0964657Y0511329D01*
X0961508Y0509361D02*
Y0511722D01*
X0962689Y0510541D01*
X0961115D01*
X0951624Y0549597D02*
Y0547235D01*
X0952805D01*
X0953199Y0547629D01*
Y0548416D01*
X0952805Y0548810D01*
X0951624D01*
X0952412D02*
X0953199Y0549597D01*
X0955560Y0547235D02*
X0954773Y0547629D01*
X0953986Y0548416D01*
Y0549203D01*
X0954379Y0549597D01*
X0955167D01*
X0955560Y0549203D01*
Y0548810D01*
X0955167Y0548416D01*
X0953986D01*
X0951624Y0553928D02*
Y0551566D01*
X0952805D01*
X0953199Y0551960D01*
Y0552747D01*
X0952805Y0553140D01*
X0951624D01*
X0952412D02*
X0953199Y0553928D01*
X0955560Y0551566D02*
X0953986D01*
Y0552747D01*
X0954773Y0552353D01*
X0955167D01*
X0955560Y0552747D01*
Y0553534D01*
X0955167Y0553928D01*
X0954379D01*
X0953986Y0553534D01*
X0958317Y0561684D02*
X0955956D01*
Y0560503D01*
X0956349Y0560109D01*
X0957137D01*
X0957530Y0560503D01*
Y0561684D01*
Y0560896D02*
X0958317Y0560109D01*
X0956349Y0559322D02*
X0955956Y0558928D01*
Y0558141D01*
X0956349Y0557748D01*
X0956743D01*
X0957137Y0558141D01*
Y0558535D01*
Y0558141D01*
X0957530Y0557748D01*
X0957924D01*
X0958317Y0558141D01*
Y0558928D01*
X0957924Y0559322D01*
X0953987Y0561644D02*
X0951625D01*
Y0560463D01*
X0952019Y0560070D01*
X0952806D01*
X0953199Y0560463D01*
Y0561644D01*
Y0560857D02*
X0953987Y0560070D01*
Y0559283D02*
Y0558496D01*
Y0558889D01*
X0951625D01*
X0952019Y0559283D01*
Y0557315D02*
X0951625Y0556921D01*
Y0556134D01*
X0952019Y0555741D01*
X0953593D01*
X0953987Y0556134D01*
Y0556921D01*
X0953593Y0557315D01*
X0952019D01*
X0949656Y0561644D02*
X0947295D01*
Y0560463D01*
X0947688Y0560070D01*
X0948475D01*
X0948869Y0560463D01*
Y0561644D01*
Y0560857D02*
X0949656Y0560070D01*
X0949262Y0559283D02*
X0949656Y0558889D01*
Y0558102D01*
X0949262Y0557708D01*
X0947688D01*
X0947295Y0558102D01*
Y0558889D01*
X0947688Y0559283D01*
X0948082D01*
X0948475Y0558889D01*
Y0557708D01*
X0941880Y0519754D02*
X0942273Y0519360D01*
Y0518573D01*
X0941880Y0518180D01*
X0940305D01*
X0939912Y0518573D01*
Y0519360D01*
X0940305Y0519754D01*
X0939912Y0520541D02*
Y0521328D01*
Y0520935D01*
X0942273D01*
X0941880Y0520541D01*
Y0522509D02*
X0942273Y0522902D01*
Y0523690D01*
X0941880Y0524083D01*
X0941486D01*
X0941093Y0523690D01*
Y0523296D01*
Y0523690D01*
X0940699Y0524083D01*
X0940305D01*
X0939912Y0523690D01*
Y0522902D01*
X0940305Y0522509D01*
X0937273Y0519714D02*
X0937667Y0519321D01*
Y0518534D01*
X0937273Y0518140D01*
X0935699D01*
X0935306Y0518534D01*
Y0519321D01*
X0935699Y0519714D01*
X0935306Y0520502D02*
Y0521289D01*
Y0520895D01*
X0937667D01*
X0937273Y0520502D01*
X0935306Y0523650D02*
X0937667D01*
X0936486Y0522470D01*
Y0524044D01*
X0954852Y0509972D02*
X0954459Y0509578D01*
X0953672D01*
X0953278Y0509972D01*
Y0511546D01*
X0953672Y0511939D01*
X0954459D01*
X0954852Y0511546D01*
X0955639Y0511939D02*
X0956427D01*
X0956033D01*
Y0509578D01*
X0955639Y0509972D01*
X0957607Y0511939D02*
X0958394D01*
X0958001D01*
Y0509578D01*
X0957607Y0509972D01*
X0949066Y0511348D02*
X0949459Y0511742D01*
X0950247D01*
X0950640Y0511348D01*
Y0509774D01*
X0950247Y0509380D01*
X0949459D01*
X0949066Y0509774D01*
X0948279Y0509380D02*
X0947492D01*
X0947885D01*
Y0511742D01*
X0948279Y0511348D01*
X0944737Y0509380D02*
X0946311D01*
X0944737Y0510955D01*
Y0511348D01*
X0945130Y0511742D01*
X0945917D01*
X0946311Y0511348D01*
X0961448Y0518416D02*
X0961054Y0518810D01*
Y0519597D01*
X0961448Y0519991D01*
X0963022D01*
X0963416Y0519597D01*
Y0518810D01*
X0963022Y0518416D01*
X0963416Y0517629D02*
Y0516842D01*
Y0517236D01*
X0961054D01*
X0961448Y0517629D01*
Y0515661D02*
X0961054Y0515268D01*
Y0514481D01*
X0961448Y0514087D01*
X0963022D01*
X0963416Y0514481D01*
Y0515268D01*
X0963022Y0515661D01*
X0961448D01*
X0971231Y0555403D02*
X0971625Y0555797D01*
X0972412D01*
X0972806Y0555403D01*
Y0553829D01*
X0972412Y0553436D01*
X0971625D01*
X0971231Y0553829D01*
X0968870Y0553436D02*
X0970444D01*
X0968870Y0555010D01*
Y0555403D01*
X0969263Y0555797D01*
X0970051D01*
X0970444Y0555403D01*
X0980128Y0549085D02*
X0982490D01*
Y0550266D01*
X0982096Y0550659D01*
X0981309D01*
X0980916Y0550266D01*
Y0549085D01*
Y0549872D02*
X0980128Y0550659D01*
Y0551447D02*
Y0552234D01*
Y0551840D01*
X0982490D01*
X0982096Y0551447D01*
X0980128Y0553414D02*
Y0554202D01*
Y0553808D01*
X0982490D01*
X0982096Y0553414D01*
X0979695Y0561211D02*
X0977334D01*
Y0560030D01*
X0977728Y0559637D01*
X0978515D01*
X0978908Y0560030D01*
Y0561211D01*
Y0560424D02*
X0979695Y0559637D01*
Y0558850D02*
Y0558063D01*
Y0558456D01*
X0977334D01*
X0977728Y0558850D01*
X0979695Y0555307D02*
Y0556882D01*
X0978121Y0555307D01*
X0977728D01*
X0977334Y0555701D01*
Y0556488D01*
X0977728Y0556882D01*
X0965302Y0570266D02*
Y0567905D01*
X0966482D01*
X0966876Y0568298D01*
Y0569086D01*
X0966482Y0569479D01*
X0965302D01*
X0966089D02*
X0966876Y0570266D01*
X0967663D02*
X0968450D01*
X0968057D01*
Y0567905D01*
X0967663Y0568298D01*
X0948735Y0529569D02*
X0951096D01*
Y0530750D01*
X0950703Y0531144D01*
X0949915D01*
X0949522Y0530750D01*
Y0529569D01*
Y0530357D02*
X0948735Y0531144D01*
X0951096Y0531931D02*
Y0533505D01*
X0950703D01*
X0949128Y0531931D01*
X0948735D01*
X0949113Y0540026D02*
Y0537665D01*
X0950293D01*
X0950687Y0538058D01*
Y0538845D01*
X0950293Y0539239D01*
X0949113D01*
X0949900D02*
X0950687Y0540026D01*
X0952655D02*
Y0537665D01*
X0951474Y0538845D01*
X0953048D01*
X0939696Y0529695D02*
X0940089Y0530088D01*
X0940877D01*
X0941270Y0529695D01*
Y0528120D01*
X0940877Y0527727D01*
X0940089D01*
X0939696Y0528120D01*
X0938909D02*
X0938515Y0527727D01*
X0937728D01*
X0937334Y0528120D01*
Y0529695D01*
X0937728Y0530088D01*
X0938515D01*
X0938909Y0529695D01*
Y0529301D01*
X0938515Y0528908D01*
X0937334D01*
X0939735Y0557648D02*
X0940129Y0558041D01*
X0940916D01*
X0941310Y0557648D01*
Y0556073D01*
X0940916Y0555680D01*
X0940129D01*
X0939735Y0556073D01*
X0937374Y0558041D02*
X0938948D01*
Y0556860D01*
X0938161Y0557254D01*
X0937767D01*
X0937374Y0556860D01*
Y0556073D01*
X0937767Y0555680D01*
X0938554D01*
X0938948Y0556073D01*
X0974223Y0526644D02*
Y0524283D01*
X0975404D01*
X0975797Y0524676D01*
Y0525463D01*
X0975404Y0525857D01*
X0974223D01*
X0975010D02*
X0975797Y0526644D01*
X0976584D02*
X0977372D01*
X0976978D01*
Y0524283D01*
X0976584Y0524676D01*
X0978552D02*
X0978946Y0524283D01*
X0979733D01*
X0980126Y0524676D01*
Y0525070D01*
X0979733Y0525463D01*
X0979339D01*
X0979733D01*
X0980126Y0525857D01*
Y0526251D01*
X0979733Y0526644D01*
X0978946D01*
X0978552Y0526251D01*
X0971486Y0522195D02*
X0971880Y0521801D01*
Y0521014D01*
X0971486Y0520621D01*
X0969912D01*
X0969518Y0521014D01*
Y0521801D01*
X0969912Y0522195D01*
X0969518Y0524163D02*
X0971880D01*
X0970699Y0522982D01*
Y0524556D01*
X0983535Y0535542D02*
X0983141Y0535936D01*
Y0536723D01*
X0983535Y0537117D01*
X0985109D01*
X0985502Y0536723D01*
Y0535936D01*
X0985109Y0535542D01*
X0983535Y0534755D02*
X0983141Y0534362D01*
Y0533574D01*
X0983535Y0533181D01*
X0983928D01*
X0984322Y0533574D01*
Y0533968D01*
Y0533574D01*
X0984715Y0533181D01*
X0985109D01*
X0985502Y0533574D01*
Y0534362D01*
X0985109Y0534755D01*
X0980128Y0541565D02*
Y0543927D01*
X0978948D01*
X0978554Y0543533D01*
Y0542746D01*
X0978948Y0542353D01*
X0980128D01*
X0979341D02*
X0978554Y0541565D01*
X0976193D02*
X0977767D01*
X0976193Y0543140D01*
Y0543533D01*
X0976586Y0543927D01*
X0977373D01*
X0977767Y0543533D01*
X0966310Y0544321D02*
Y0541960D01*
X0967490D01*
X0967884Y0542353D01*
Y0543141D01*
X0967490Y0543534D01*
X0966310D01*
X0967097D02*
X0967884Y0544321D01*
X0968671Y0542353D02*
X0969065Y0541960D01*
X0969852D01*
X0970245Y0542353D01*
Y0542747D01*
X0969852Y0543141D01*
X0970245Y0543534D01*
Y0543928D01*
X0969852Y0544321D01*
X0969065D01*
X0968671Y0543928D01*
Y0543534D01*
X0969065Y0543141D01*
X0968671Y0542747D01*
Y0542353D01*
X0969065Y0543141D02*
X0969852D01*
X0861092Y0342785D02*
X0861486Y0342392D01*
Y0341605D01*
X0861092Y0341211D01*
X0859518D01*
X0859124Y0341605D01*
Y0342392D01*
X0859518Y0342785D01*
Y0343572D02*
X0859124Y0343966D01*
Y0344753D01*
X0859518Y0345147D01*
X0861092D01*
X0861486Y0344753D01*
Y0343966D01*
X0861092Y0343572D01*
X0860699D01*
X0860305Y0343966D01*
Y0345147D01*
X0855247Y0354025D02*
X0855641Y0354419D01*
X0856428D01*
X0856821Y0354025D01*
Y0352451D01*
X0856428Y0352058D01*
X0855641D01*
X0855247Y0352451D01*
X0854460Y0354025D02*
X0854066Y0354419D01*
X0853279D01*
X0852886Y0354025D01*
Y0353632D01*
X0853279Y0353238D01*
X0852886Y0352845D01*
Y0352451D01*
X0853279Y0352058D01*
X0854066D01*
X0854460Y0352451D01*
Y0352845D01*
X0854066Y0353238D01*
X0854460Y0353632D01*
Y0354025D01*
X0854066Y0353238D02*
X0853279D01*
X0852921Y0334420D02*
X0852527Y0334027D01*
X0851740D01*
X0851347Y0334420D01*
Y0335995D01*
X0851740Y0336388D01*
X0852527D01*
X0852921Y0335995D01*
X0855282Y0334027D02*
X0853708D01*
Y0335208D01*
X0854495Y0334814D01*
X0854889D01*
X0855282Y0335208D01*
Y0335995D01*
X0854889Y0336388D01*
X0854102D01*
X0853708Y0335995D01*
X0852921Y0343554D02*
X0852527Y0343161D01*
X0851740D01*
X0851347Y0343554D01*
Y0345128D01*
X0851740Y0345522D01*
X0852527D01*
X0852921Y0345128D01*
X0855282Y0343161D02*
X0854495Y0343554D01*
X0853708Y0344341D01*
Y0345128D01*
X0854102Y0345522D01*
X0854889D01*
X0855282Y0345128D01*
Y0344735D01*
X0854889Y0344341D01*
X0853708D01*
X0852921Y0338987D02*
X0852527Y0338594D01*
X0851740D01*
X0851347Y0338987D01*
Y0340562D01*
X0851740Y0340955D01*
X0852527D01*
X0852921Y0340562D01*
X0854889Y0340955D02*
Y0338594D01*
X0853708Y0339774D01*
X0855282D01*
X0852921Y0348082D02*
X0852527Y0347688D01*
X0851740D01*
X0851347Y0348082D01*
Y0349656D01*
X0851740Y0350050D01*
X0852527D01*
X0852921Y0349656D01*
X0853708Y0348082D02*
X0854102Y0347688D01*
X0854889D01*
X0855282Y0348082D01*
Y0348475D01*
X0854889Y0348869D01*
X0854495D01*
X0854889D01*
X0855282Y0349262D01*
Y0349656D01*
X0854889Y0350050D01*
X0854102D01*
X0853708Y0349656D01*
X0828159Y0337668D02*
X0825798D01*
Y0339242D01*
Y0341603D02*
Y0340029D01*
X0827372Y0341603D01*
X0827766D01*
X0828159Y0341210D01*
Y0340423D01*
X0827766Y0340029D01*
X0827667Y0331274D02*
X0828061Y0330880D01*
Y0330093D01*
X0827667Y0329699D01*
X0826093D01*
X0825699Y0330093D01*
Y0330880D01*
X0826093Y0331274D01*
X0825699Y0333635D02*
Y0332061D01*
X0827274Y0333635D01*
X0827667D01*
X0828061Y0333241D01*
Y0332454D01*
X0827667Y0332061D01*
X0830739Y0341645D02*
X0830346Y0342038D01*
Y0342825D01*
X0830739Y0343219D01*
X0832314D01*
X0832707Y0342825D01*
Y0342038D01*
X0832314Y0341645D01*
X0830346Y0340858D02*
Y0339283D01*
X0830739D01*
X0832314Y0340858D01*
X0832707D01*
X0822120Y0335356D02*
X0822513Y0334963D01*
Y0334175D01*
X0822120Y0333782D01*
X0820546D01*
X0820152Y0334175D01*
Y0334963D01*
X0820546Y0335356D01*
X0820152Y0336143D02*
Y0336930D01*
Y0336537D01*
X0822513D01*
X0822120Y0336143D01*
Y0338111D02*
X0822513Y0338505D01*
Y0339292D01*
X0822120Y0339686D01*
X0820546D01*
X0820152Y0339292D01*
Y0338505D01*
X0820546Y0338111D01*
X0822120D01*
X0828159Y0321635D02*
X0825798D01*
Y0323209D01*
Y0323996D02*
Y0324783D01*
Y0324390D01*
X0828159D01*
X0827766Y0323996D01*
X0838829Y0333455D02*
X0841191D01*
Y0334636D01*
X0840797Y0335030D01*
X0840010D01*
X0839616Y0334636D01*
Y0333455D01*
Y0334242D02*
X0838829Y0335030D01*
Y0337391D02*
Y0335817D01*
X0840403Y0337391D01*
X0840797D01*
X0841191Y0336997D01*
Y0336210D01*
X0840797Y0335817D01*
X0834459Y0333455D02*
X0836821D01*
Y0334636D01*
X0836427Y0335030D01*
X0835640D01*
X0835246Y0334636D01*
Y0333455D01*
Y0334242D02*
X0834459Y0335030D01*
Y0335817D02*
Y0336604D01*
Y0336210D01*
X0836821D01*
X0836427Y0335817D01*
X0834459Y0337785D02*
Y0338572D01*
Y0338178D01*
X0836821D01*
X0836427Y0337785D01*
X0838908Y0330836D02*
X0839302Y0331230D01*
X0840089D01*
X0840483Y0330836D01*
Y0329262D01*
X0840089Y0328869D01*
X0839302D01*
X0838908Y0329262D01*
X0838121Y0328869D02*
X0837334D01*
X0837728D01*
Y0331230D01*
X0838121Y0330836D01*
X0844892Y0333534D02*
X0847254D01*
Y0334715D01*
X0846860Y0335108D01*
X0846073D01*
X0845679Y0334715D01*
Y0333534D01*
Y0334321D02*
X0844892Y0335108D01*
X0847254Y0337470D02*
X0846860Y0336683D01*
X0846073Y0335895D01*
X0845286D01*
X0844892Y0336289D01*
Y0337076D01*
X0845286Y0337470D01*
X0845679D01*
X0846073Y0337076D01*
Y0335895D01*
X0849617Y0305975D02*
Y0308336D01*
X0848436D01*
X0848042Y0307943D01*
Y0307156D01*
X0848436Y0306762D01*
X0849617D01*
X0848829D02*
X0848042Y0305975D01*
X0847255D02*
X0846468D01*
X0846862D01*
Y0308336D01*
X0847255Y0307943D01*
X0845287D02*
X0844894Y0308336D01*
X0844107D01*
X0843713Y0307943D01*
Y0306368D01*
X0844107Y0305975D01*
X0844894D01*
X0845287Y0306368D01*
Y0307943D01*
X0861625Y0305936D02*
X0863986D01*
Y0307116D01*
X0863592Y0307510D01*
X0862805D01*
X0862412Y0307116D01*
Y0305936D01*
Y0306723D02*
X0861625Y0307510D01*
X0862018Y0308297D02*
X0861625Y0308691D01*
Y0309478D01*
X0862018Y0309871D01*
X0863592D01*
X0863986Y0309478D01*
Y0308691D01*
X0863592Y0308297D01*
X0863199D01*
X0862805Y0308691D01*
Y0309871D01*
X0849577Y0301644D02*
Y0304006D01*
X0848396D01*
X0848003Y0303612D01*
Y0302825D01*
X0848396Y0302431D01*
X0849577D01*
X0848790D02*
X0848003Y0301644D01*
X0847216Y0303612D02*
X0846822Y0304006D01*
X0846035D01*
X0845642Y0303612D01*
Y0303219D01*
X0846035Y0302825D01*
X0845642Y0302431D01*
Y0302038D01*
X0846035Y0301644D01*
X0846822D01*
X0847216Y0302038D01*
Y0302431D01*
X0846822Y0302825D01*
X0847216Y0303219D01*
Y0303612D01*
X0846822Y0302825D02*
X0846035D01*
X0859065Y0297983D02*
Y0300344D01*
X0857885D01*
X0857491Y0299951D01*
Y0299164D01*
X0857885Y0298770D01*
X0859065D01*
X0858278D02*
X0857491Y0297983D01*
X0856704Y0300344D02*
X0855130D01*
Y0299951D01*
X0856704Y0298376D01*
Y0297983D01*
X0850050Y0312589D02*
Y0310228D01*
X0851230D01*
X0851624Y0310621D01*
Y0311408D01*
X0851230Y0311802D01*
X0850050D01*
X0850837D02*
X0851624Y0312589D01*
X0852411D02*
X0853198D01*
X0852805D01*
Y0310228D01*
X0852411Y0310621D01*
X0861092Y0449085D02*
X0861486Y0448691D01*
Y0447904D01*
X0861092Y0447510D01*
X0859518D01*
X0859124Y0447904D01*
Y0448691D01*
X0859518Y0449085D01*
Y0449872D02*
X0859124Y0450265D01*
Y0451053D01*
X0859518Y0451446D01*
X0861092D01*
X0861486Y0451053D01*
Y0450265D01*
X0861092Y0449872D01*
X0860699D01*
X0860305Y0450265D01*
Y0451446D01*
X0855247Y0460325D02*
X0855641Y0460718D01*
X0856428D01*
X0856821Y0460325D01*
Y0458750D01*
X0856428Y0458357D01*
X0855641D01*
X0855247Y0458750D01*
X0854460Y0460325D02*
X0854066Y0460718D01*
X0853279D01*
X0852886Y0460325D01*
Y0459931D01*
X0853279Y0459538D01*
X0852886Y0459144D01*
Y0458750D01*
X0853279Y0458357D01*
X0854066D01*
X0854460Y0458750D01*
Y0459144D01*
X0854066Y0459538D01*
X0854460Y0459931D01*
Y0460325D01*
X0854066Y0459538D02*
X0853279D01*
X0852921Y0440720D02*
X0852527Y0440326D01*
X0851740D01*
X0851347Y0440720D01*
Y0442294D01*
X0851740Y0442688D01*
X0852527D01*
X0852921Y0442294D01*
X0855282Y0440326D02*
X0853708D01*
Y0441507D01*
X0854495Y0441113D01*
X0854889D01*
X0855282Y0441507D01*
Y0442294D01*
X0854889Y0442688D01*
X0854102D01*
X0853708Y0442294D01*
X0852921Y0449854D02*
X0852527Y0449460D01*
X0851740D01*
X0851347Y0449854D01*
Y0451428D01*
X0851740Y0451821D01*
X0852527D01*
X0852921Y0451428D01*
X0855282Y0449460D02*
X0854495Y0449854D01*
X0853708Y0450641D01*
Y0451428D01*
X0854102Y0451821D01*
X0854889D01*
X0855282Y0451428D01*
Y0451034D01*
X0854889Y0450641D01*
X0853708D01*
X0852921Y0445287D02*
X0852527Y0444893D01*
X0851740D01*
X0851347Y0445287D01*
Y0446861D01*
X0851740Y0447254D01*
X0852527D01*
X0852921Y0446861D01*
X0854889Y0447254D02*
Y0444893D01*
X0853708Y0446074D01*
X0855282D01*
X0852921Y0454381D02*
X0852527Y0453987D01*
X0851740D01*
X0851347Y0454381D01*
Y0455955D01*
X0851740Y0456349D01*
X0852527D01*
X0852921Y0455955D01*
X0853708Y0454381D02*
X0854102Y0453987D01*
X0854889D01*
X0855282Y0454381D01*
Y0454775D01*
X0854889Y0455168D01*
X0854495D01*
X0854889D01*
X0855282Y0455562D01*
Y0455955D01*
X0854889Y0456349D01*
X0854102D01*
X0853708Y0455955D01*
X0828159Y0443967D02*
X0825798D01*
Y0445541D01*
Y0447903D02*
Y0446328D01*
X0827372Y0447903D01*
X0827766D01*
X0828159Y0447509D01*
Y0446722D01*
X0827766Y0446328D01*
X0827667Y0437573D02*
X0828061Y0437179D01*
Y0436392D01*
X0827667Y0435998D01*
X0826093D01*
X0825699Y0436392D01*
Y0437179D01*
X0826093Y0437573D01*
X0825699Y0439934D02*
Y0438360D01*
X0827274Y0439934D01*
X0827667D01*
X0828061Y0439541D01*
Y0438754D01*
X0827667Y0438360D01*
X0830739Y0447944D02*
X0830346Y0448338D01*
Y0449125D01*
X0830739Y0449518D01*
X0832314D01*
X0832707Y0449125D01*
Y0448338D01*
X0832314Y0447944D01*
X0830346Y0447157D02*
Y0445582D01*
X0830739D01*
X0832314Y0447157D01*
X0832707D01*
X0822120Y0441655D02*
X0822513Y0441262D01*
Y0440475D01*
X0822120Y0440081D01*
X0820546D01*
X0820152Y0440475D01*
Y0441262D01*
X0820546Y0441655D01*
X0820152Y0442443D02*
Y0443230D01*
Y0442836D01*
X0822513D01*
X0822120Y0442443D01*
Y0444411D02*
X0822513Y0444804D01*
Y0445591D01*
X0822120Y0445985D01*
X0820546D01*
X0820152Y0445591D01*
Y0444804D01*
X0820546Y0444411D01*
X0822120D01*
X0828159Y0427934D02*
X0825798D01*
Y0429508D01*
Y0430295D02*
Y0431083D01*
Y0430689D01*
X0828159D01*
X0827766Y0430295D01*
X0838829Y0439754D02*
X0841191D01*
Y0440935D01*
X0840797Y0441329D01*
X0840010D01*
X0839616Y0440935D01*
Y0439754D01*
Y0440542D02*
X0838829Y0441329D01*
Y0443690D02*
Y0442116D01*
X0840403Y0443690D01*
X0840797D01*
X0841191Y0443297D01*
Y0442509D01*
X0840797Y0442116D01*
X0834459Y0439754D02*
X0836821D01*
Y0440935D01*
X0836427Y0441329D01*
X0835640D01*
X0835246Y0440935D01*
Y0439754D01*
Y0440542D02*
X0834459Y0441329D01*
Y0442116D02*
Y0442903D01*
Y0442509D01*
X0836821D01*
X0836427Y0442116D01*
X0834459Y0444084D02*
Y0444871D01*
Y0444477D01*
X0836821D01*
X0836427Y0444084D01*
X0838908Y0437136D02*
X0839302Y0437529D01*
X0840089D01*
X0840483Y0437136D01*
Y0435561D01*
X0840089Y0435168D01*
X0839302D01*
X0838908Y0435561D01*
X0838121Y0435168D02*
X0837334D01*
X0837728D01*
Y0437529D01*
X0838121Y0437136D01*
X0844892Y0439833D02*
X0847254D01*
Y0441014D01*
X0846860Y0441407D01*
X0846073D01*
X0845679Y0441014D01*
Y0439833D01*
Y0440620D02*
X0844892Y0441407D01*
X0847254Y0443769D02*
X0846860Y0442982D01*
X0846073Y0442195D01*
X0845286D01*
X0844892Y0442588D01*
Y0443375D01*
X0845286Y0443769D01*
X0845679D01*
X0846073Y0443375D01*
Y0442195D01*
X0849617Y0412274D02*
Y0414636D01*
X0848436D01*
X0848042Y0414242D01*
Y0413455D01*
X0848436Y0413061D01*
X0849617D01*
X0848829D02*
X0848042Y0412274D01*
X0847255D02*
X0846468D01*
X0846862D01*
Y0414636D01*
X0847255Y0414242D01*
X0845287D02*
X0844894Y0414636D01*
X0844107D01*
X0843713Y0414242D01*
Y0412668D01*
X0844107Y0412274D01*
X0844894D01*
X0845287Y0412668D01*
Y0414242D01*
X0861625Y0412235D02*
X0863986D01*
Y0413415D01*
X0863592Y0413809D01*
X0862805D01*
X0862412Y0413415D01*
Y0412235D01*
Y0413022D02*
X0861625Y0413809D01*
X0862018Y0414596D02*
X0861625Y0414990D01*
Y0415777D01*
X0862018Y0416170D01*
X0863592D01*
X0863986Y0415777D01*
Y0414990D01*
X0863592Y0414596D01*
X0863199D01*
X0862805Y0414990D01*
Y0416170D01*
X0849577Y0407943D02*
Y0410305D01*
X0848396D01*
X0848003Y0409911D01*
Y0409124D01*
X0848396Y0408731D01*
X0849577D01*
X0848790D02*
X0848003Y0407943D01*
X0847216Y0409911D02*
X0846822Y0410305D01*
X0846035D01*
X0845642Y0409911D01*
Y0409518D01*
X0846035Y0409124D01*
X0845642Y0408731D01*
Y0408337D01*
X0846035Y0407943D01*
X0846822D01*
X0847216Y0408337D01*
Y0408731D01*
X0846822Y0409124D01*
X0847216Y0409518D01*
Y0409911D01*
X0846822Y0409124D02*
X0846035D01*
X0859065Y0404282D02*
Y0406643D01*
X0857885D01*
X0857491Y0406250D01*
Y0405463D01*
X0857885Y0405069D01*
X0859065D01*
X0858278D02*
X0857491Y0404282D01*
X0856704Y0406643D02*
X0855130D01*
Y0406250D01*
X0856704Y0404675D01*
Y0404282D01*
X0850050Y0418888D02*
Y0416527D01*
X0851230D01*
X0851624Y0416920D01*
Y0417707D01*
X0851230Y0418101D01*
X0850050D01*
X0850837D02*
X0851624Y0418888D01*
X0852411D02*
X0853198D01*
X0852805D01*
Y0416527D01*
X0852411Y0416920D01*
X0861092Y0555384D02*
X0861486Y0554990D01*
Y0554203D01*
X0861092Y0553809D01*
X0859518D01*
X0859124Y0554203D01*
Y0554990D01*
X0859518Y0555384D01*
Y0556171D02*
X0859124Y0556565D01*
Y0557352D01*
X0859518Y0557745D01*
X0861092D01*
X0861486Y0557352D01*
Y0556565D01*
X0861092Y0556171D01*
X0860699D01*
X0860305Y0556565D01*
Y0557745D01*
X0855247Y0566624D02*
X0855641Y0567017D01*
X0856428D01*
X0856821Y0566624D01*
Y0565050D01*
X0856428Y0564656D01*
X0855641D01*
X0855247Y0565050D01*
X0854460Y0566624D02*
X0854066Y0567017D01*
X0853279D01*
X0852886Y0566624D01*
Y0566230D01*
X0853279Y0565837D01*
X0852886Y0565443D01*
Y0565050D01*
X0853279Y0564656D01*
X0854066D01*
X0854460Y0565050D01*
Y0565443D01*
X0854066Y0565837D01*
X0854460Y0566230D01*
Y0566624D01*
X0854066Y0565837D02*
X0853279D01*
X0852921Y0547019D02*
X0852527Y0546625D01*
X0851740D01*
X0851347Y0547019D01*
Y0548593D01*
X0851740Y0548987D01*
X0852527D01*
X0852921Y0548593D01*
X0855282Y0546625D02*
X0853708D01*
Y0547806D01*
X0854495Y0547412D01*
X0854889D01*
X0855282Y0547806D01*
Y0548593D01*
X0854889Y0548987D01*
X0854102D01*
X0853708Y0548593D01*
X0852921Y0556153D02*
X0852527Y0555759D01*
X0851740D01*
X0851347Y0556153D01*
Y0557727D01*
X0851740Y0558121D01*
X0852527D01*
X0852921Y0557727D01*
X0855282Y0555759D02*
X0854495Y0556153D01*
X0853708Y0556940D01*
Y0557727D01*
X0854102Y0558121D01*
X0854889D01*
X0855282Y0557727D01*
Y0557333D01*
X0854889Y0556940D01*
X0853708D01*
X0852921Y0551586D02*
X0852527Y0551192D01*
X0851740D01*
X0851347Y0551586D01*
Y0553160D01*
X0851740Y0553554D01*
X0852527D01*
X0852921Y0553160D01*
X0854889Y0553554D02*
Y0551192D01*
X0853708Y0552373D01*
X0855282D01*
X0852921Y0560680D02*
X0852527Y0560287D01*
X0851740D01*
X0851347Y0560680D01*
Y0562254D01*
X0851740Y0562648D01*
X0852527D01*
X0852921Y0562254D01*
X0853708Y0560680D02*
X0854102Y0560287D01*
X0854889D01*
X0855282Y0560680D01*
Y0561074D01*
X0854889Y0561467D01*
X0854495D01*
X0854889D01*
X0855282Y0561861D01*
Y0562254D01*
X0854889Y0562648D01*
X0854102D01*
X0853708Y0562254D01*
X0828159Y0550266D02*
X0825798D01*
Y0551840D01*
Y0554202D02*
Y0552628D01*
X0827372Y0554202D01*
X0827766D01*
X0828159Y0553808D01*
Y0553021D01*
X0827766Y0552628D01*
X0827667Y0543872D02*
X0828061Y0543478D01*
Y0542691D01*
X0827667Y0542298D01*
X0826093D01*
X0825699Y0542691D01*
Y0543478D01*
X0826093Y0543872D01*
X0825699Y0546233D02*
Y0544659D01*
X0827274Y0546233D01*
X0827667D01*
X0828061Y0545840D01*
Y0545053D01*
X0827667Y0544659D01*
X0830739Y0554243D02*
X0830346Y0554637D01*
Y0555424D01*
X0830739Y0555817D01*
X0832314D01*
X0832707Y0555424D01*
Y0554637D01*
X0832314Y0554243D01*
X0830346Y0553456D02*
Y0551882D01*
X0830739D01*
X0832314Y0553456D01*
X0832707D01*
X0822120Y0547955D02*
X0822513Y0547561D01*
Y0546774D01*
X0822120Y0546380D01*
X0820546D01*
X0820152Y0546774D01*
Y0547561D01*
X0820546Y0547955D01*
X0820152Y0548742D02*
Y0549529D01*
Y0549135D01*
X0822513D01*
X0822120Y0548742D01*
Y0550710D02*
X0822513Y0551103D01*
Y0551890D01*
X0822120Y0552284D01*
X0820546D01*
X0820152Y0551890D01*
Y0551103D01*
X0820546Y0550710D01*
X0822120D01*
X0828159Y0534233D02*
X0825798D01*
Y0535808D01*
Y0536595D02*
Y0537382D01*
Y0536988D01*
X0828159D01*
X0827766Y0536595D01*
X0838829Y0546054D02*
X0841191D01*
Y0547234D01*
X0840797Y0547628D01*
X0840010D01*
X0839616Y0547234D01*
Y0546054D01*
Y0546841D02*
X0838829Y0547628D01*
Y0549989D02*
Y0548415D01*
X0840403Y0549989D01*
X0840797D01*
X0841191Y0549596D01*
Y0548809D01*
X0840797Y0548415D01*
X0834459Y0546054D02*
X0836821D01*
Y0547234D01*
X0836427Y0547628D01*
X0835640D01*
X0835246Y0547234D01*
Y0546054D01*
Y0546841D02*
X0834459Y0547628D01*
Y0548415D02*
Y0549202D01*
Y0548809D01*
X0836821D01*
X0836427Y0548415D01*
X0834459Y0550383D02*
Y0551170D01*
Y0550776D01*
X0836821D01*
X0836427Y0550383D01*
X0838908Y0543435D02*
X0839302Y0543828D01*
X0840089D01*
X0840483Y0543435D01*
Y0541861D01*
X0840089Y0541467D01*
X0839302D01*
X0838908Y0541861D01*
X0838121Y0541467D02*
X0837334D01*
X0837728D01*
Y0543828D01*
X0838121Y0543435D01*
X0844892Y0546132D02*
X0847254D01*
Y0547313D01*
X0846860Y0547707D01*
X0846073D01*
X0845679Y0547313D01*
Y0546132D01*
Y0546919D02*
X0844892Y0547707D01*
X0847254Y0550068D02*
X0846860Y0549281D01*
X0846073Y0548494D01*
X0845286D01*
X0844892Y0548887D01*
Y0549675D01*
X0845286Y0550068D01*
X0845679D01*
X0846073Y0549675D01*
Y0548494D01*
X0849617Y0518573D02*
Y0520935D01*
X0848436D01*
X0848042Y0520541D01*
Y0519754D01*
X0848436Y0519360D01*
X0849617D01*
X0848829D02*
X0848042Y0518573D01*
X0847255D02*
X0846468D01*
X0846862D01*
Y0520935D01*
X0847255Y0520541D01*
X0845287D02*
X0844894Y0520935D01*
X0844107D01*
X0843713Y0520541D01*
Y0518967D01*
X0844107Y0518573D01*
X0844894D01*
X0845287Y0518967D01*
Y0520541D01*
X0861625Y0518534D02*
X0863986D01*
Y0519715D01*
X0863592Y0520108D01*
X0862805D01*
X0862412Y0519715D01*
Y0518534D01*
Y0519321D02*
X0861625Y0520108D01*
X0862018Y0520895D02*
X0861625Y0521289D01*
Y0522076D01*
X0862018Y0522470D01*
X0863592D01*
X0863986Y0522076D01*
Y0521289D01*
X0863592Y0520895D01*
X0863199D01*
X0862805Y0521289D01*
Y0522470D01*
X0849577Y0514243D02*
Y0516604D01*
X0848396D01*
X0848003Y0516211D01*
Y0515423D01*
X0848396Y0515030D01*
X0849577D01*
X0848790D02*
X0848003Y0514243D01*
X0847216Y0516211D02*
X0846822Y0516604D01*
X0846035D01*
X0845642Y0516211D01*
Y0515817D01*
X0846035Y0515423D01*
X0845642Y0515030D01*
Y0514636D01*
X0846035Y0514243D01*
X0846822D01*
X0847216Y0514636D01*
Y0515030D01*
X0846822Y0515423D01*
X0847216Y0515817D01*
Y0516211D01*
X0846822Y0515423D02*
X0846035D01*
X0859065Y0510581D02*
Y0512943D01*
X0857885D01*
X0857491Y0512549D01*
Y0511762D01*
X0857885Y0511368D01*
X0859065D01*
X0858278D02*
X0857491Y0510581D01*
X0856704Y0512943D02*
X0855130D01*
Y0512549D01*
X0856704Y0510975D01*
Y0510581D01*
X0850050Y0525187D02*
Y0522826D01*
X0851230D01*
X0851624Y0523220D01*
Y0524007D01*
X0851230Y0524400D01*
X0850050D01*
X0850837D02*
X0851624Y0525187D01*
X0852411D02*
X0853198D01*
X0852805D01*
Y0522826D01*
X0852411Y0523220D01*
D113*
X0817491Y0341645D02*
Y0342825D01*
X0818081D01*
X0818278Y0342629D01*
Y0341841D01*
X0818081Y0341645D01*
X0817491D01*
X0818671Y0342825D02*
X0819065D01*
X0818868D01*
Y0341645D01*
X0818671Y0341841D01*
X0817491Y0447944D02*
Y0449124D01*
X0818081D01*
X0818278Y0448928D01*
Y0448141D01*
X0818081Y0447944D01*
X0817491D01*
X0818671Y0449124D02*
X0819065D01*
X0818868D01*
Y0447944D01*
X0818671Y0448141D01*
X0817491Y0554243D02*
Y0555424D01*
X0818081D01*
X0818278Y0555227D01*
Y0554440D01*
X0818081Y0554243D01*
X0817491D01*
X0818671Y0555424D02*
X0819065D01*
X0818868D01*
Y0554243D01*
X0818671Y0554440D01*
M02*
