G04*
G04 #@! TF.GenerationSoftware,Altium Limited,Altium Designer,19.0.15 (446)*
G04*
G04 Layer_Color=8388736*
%FSAX25Y25*%
%MOIN*%
G70*
G01*
G75*
%ADD24C,0.04724*%
%ADD28C,0.14567*%
%ADD70C,0.07874*%
%ADD71R,0.04737X0.04737*%
%ADD72R,0.09461X0.04934*%
%ADD73R,0.03320X0.03162*%
%ADD74R,0.07493X0.02769*%
%ADD75R,0.02769X0.07493*%
G04:AMPARAMS|DCode=76|XSize=67.06mil|YSize=67.06mil|CornerRadius=9.91mil|HoleSize=0mil|Usage=FLASHONLY|Rotation=0.000|XOffset=0mil|YOffset=0mil|HoleType=Round|Shape=RoundedRectangle|*
%AMROUNDEDRECTD76*
21,1,0.06706,0.04724,0,0,0.0*
21,1,0.04724,0.06706,0,0,0.0*
1,1,0.01981,0.02362,-0.02362*
1,1,0.01981,-0.02362,-0.02362*
1,1,0.01981,-0.02362,0.02362*
1,1,0.01981,0.02362,0.02362*
%
%ADD76ROUNDEDRECTD76*%
%ADD77R,0.06706X0.06706*%
%ADD78R,0.03162X0.03320*%
%ADD79R,0.02375X0.04343*%
%ADD80C,0.01784*%
%ADD81C,0.03950*%
%ADD82C,0.06706*%
%ADD83C,0.04343*%
D24*
X0851979Y0331841D02*
D03*
X0854617Y0325345D02*
D03*
X0851979Y0438140D02*
D03*
X0854617Y0431644D02*
D03*
X0851979Y0544440D02*
D03*
X0854617Y0537943D02*
D03*
D28*
X0769685Y0293307D02*
D03*
X1259842Y0563189D02*
D03*
D70*
X0769685Y0342520D02*
D03*
X1259842Y0513976D02*
D03*
D71*
X1180963Y0357432D02*
D03*
Y0463731D02*
D03*
Y0570030D02*
D03*
D72*
X1186869Y0351624D02*
D03*
Y0363239D02*
D03*
Y0457924D02*
D03*
Y0469538D02*
D03*
Y0564223D02*
D03*
Y0575837D02*
D03*
D73*
X1098829Y0332313D02*
D03*
Y0328534D02*
D03*
Y0438613D02*
D03*
Y0434833D02*
D03*
Y0544912D02*
D03*
Y0541132D02*
D03*
D74*
X1045247Y0345010D02*
D03*
Y0341861D02*
D03*
Y0338672D02*
D03*
Y0335522D02*
D03*
Y0332372D02*
D03*
Y0329223D02*
D03*
Y0326113D02*
D03*
Y0322924D02*
D03*
Y0319774D02*
D03*
Y0316664D02*
D03*
Y0313475D02*
D03*
Y0310365D02*
D03*
X1091711Y0310345D02*
D03*
Y0313498D02*
D03*
X1091711Y0316656D02*
D03*
X1091711Y0319794D02*
D03*
X1091711Y0322943D02*
D03*
X1091711Y0326093D02*
D03*
X1091703Y0329223D02*
D03*
Y0332412D02*
D03*
Y0335561D02*
D03*
Y0338672D02*
D03*
Y0341861D02*
D03*
Y0345010D02*
D03*
X1045247Y0451309D02*
D03*
Y0448160D02*
D03*
Y0444971D02*
D03*
Y0441821D02*
D03*
Y0438672D02*
D03*
Y0435522D02*
D03*
Y0432412D02*
D03*
Y0429223D02*
D03*
Y0426073D02*
D03*
Y0422963D02*
D03*
Y0419774D02*
D03*
Y0416664D02*
D03*
X1091711Y0416644D02*
D03*
Y0419798D02*
D03*
X1091711Y0422955D02*
D03*
X1091711Y0426093D02*
D03*
X1091711Y0429243D02*
D03*
X1091711Y0432392D02*
D03*
X1091703Y0435522D02*
D03*
Y0438711D02*
D03*
Y0441861D02*
D03*
Y0444971D02*
D03*
Y0448160D02*
D03*
Y0451309D02*
D03*
X1045247Y0557609D02*
D03*
Y0554459D02*
D03*
Y0551270D02*
D03*
Y0548121D02*
D03*
Y0544971D02*
D03*
Y0541821D02*
D03*
Y0538711D02*
D03*
Y0535522D02*
D03*
Y0532373D02*
D03*
Y0529262D02*
D03*
Y0526073D02*
D03*
Y0522963D02*
D03*
X1091711Y0522943D02*
D03*
Y0526097D02*
D03*
X1091711Y0529254D02*
D03*
X1091711Y0532392D02*
D03*
X1091711Y0535542D02*
D03*
X1091711Y0538691D02*
D03*
X1091703Y0541821D02*
D03*
Y0545010D02*
D03*
Y0548160D02*
D03*
Y0551270D02*
D03*
Y0554459D02*
D03*
Y0557609D02*
D03*
D75*
X1051152Y0306211D02*
D03*
X1054309D02*
D03*
X1057459D02*
D03*
X1060609Y0306211D02*
D03*
X1063758Y0306211D02*
D03*
X1066908Y0306211D02*
D03*
X1070057D02*
D03*
X1073207Y0306215D02*
D03*
X1076357Y0306215D02*
D03*
X1079506Y0306211D02*
D03*
X1082683D02*
D03*
X1085995Y0306211D02*
D03*
X1085837Y0349144D02*
D03*
X1082648D02*
D03*
X1079538D02*
D03*
X1076388D02*
D03*
X1073239D02*
D03*
X1070089D02*
D03*
X1066939D02*
D03*
X1063790D02*
D03*
X1060640D02*
D03*
X1057491D02*
D03*
X1054341D02*
D03*
X1051152D02*
D03*
Y0412510D02*
D03*
X1054309D02*
D03*
X1057459D02*
D03*
X1060609Y0412510D02*
D03*
X1063758Y0412510D02*
D03*
X1066908Y0412510D02*
D03*
X1070057D02*
D03*
X1073207Y0412514D02*
D03*
X1076357Y0412514D02*
D03*
X1079506Y0412510D02*
D03*
X1082683D02*
D03*
X1085995Y0412510D02*
D03*
X1085837Y0455443D02*
D03*
X1082648D02*
D03*
X1079538D02*
D03*
X1076388D02*
D03*
X1073239D02*
D03*
X1070089D02*
D03*
X1066939D02*
D03*
X1063790D02*
D03*
X1060640D02*
D03*
X1057491D02*
D03*
X1054341D02*
D03*
X1051152D02*
D03*
Y0518810D02*
D03*
X1054309D02*
D03*
X1057459D02*
D03*
X1060609Y0518810D02*
D03*
X1063758Y0518810D02*
D03*
X1066908Y0518810D02*
D03*
X1070057D02*
D03*
X1073207Y0518814D02*
D03*
X1076357Y0518814D02*
D03*
X1079506Y0518810D02*
D03*
X1082683D02*
D03*
X1085995Y0518810D02*
D03*
X1085837Y0561743D02*
D03*
X1082648D02*
D03*
X1079538D02*
D03*
X1076388D02*
D03*
X1073239D02*
D03*
X1070089D02*
D03*
X1066939D02*
D03*
X1063790D02*
D03*
X1060640D02*
D03*
X1057491D02*
D03*
X1054341D02*
D03*
X1051152D02*
D03*
D76*
X1058640Y0337510D02*
D03*
Y0443810D02*
D03*
Y0550109D02*
D03*
D77*
X1068483Y0337510D02*
D03*
X1078325Y0337510D02*
D03*
X1058640Y0327668D02*
D03*
X1068483D02*
D03*
X1078325D02*
D03*
X1058542Y0317825D02*
D03*
X1068483D02*
D03*
X1078325D02*
D03*
X1068483Y0443810D02*
D03*
X1078325Y0443810D02*
D03*
X1058640Y0433967D02*
D03*
X1068483D02*
D03*
X1078325D02*
D03*
X1058542Y0424124D02*
D03*
X1068483D02*
D03*
X1078325D02*
D03*
X1068483Y0550109D02*
D03*
X1078325Y0550109D02*
D03*
X1058640Y0540266D02*
D03*
X1068483D02*
D03*
X1078325D02*
D03*
X1058542Y0530424D02*
D03*
X1068483D02*
D03*
X1078325D02*
D03*
D78*
X1054302Y0299046D02*
D03*
X1058081D02*
D03*
X1054302Y0405345D02*
D03*
X1058081D02*
D03*
X1054302Y0511644D02*
D03*
X1058081D02*
D03*
D79*
X0871782Y0345345D02*
D03*
X0869223D02*
D03*
X0866664D02*
D03*
Y0350463D02*
D03*
X0869223D02*
D03*
X0871782D02*
D03*
Y0451644D02*
D03*
X0869223D02*
D03*
X0866664D02*
D03*
Y0456762D02*
D03*
X0869223D02*
D03*
X0871782D02*
D03*
Y0557943D02*
D03*
X0869223D02*
D03*
X0866664D02*
D03*
Y0563062D02*
D03*
X0869223D02*
D03*
X0871782D02*
D03*
D80*
X1228632Y0320306D02*
D03*
X1227569Y0315935D02*
D03*
X1167046Y0371199D02*
D03*
X1163219Y0369546D02*
D03*
X1159369Y0367538D02*
D03*
X1159053Y0288022D02*
D03*
X1155404Y0290384D02*
D03*
X1228632Y0426605D02*
D03*
X1227569Y0422235D02*
D03*
X1167046Y0477498D02*
D03*
X1163219Y0475845D02*
D03*
X1159369Y0473837D02*
D03*
X1159053Y0394321D02*
D03*
X1155404Y0396684D02*
D03*
X1228632Y0532904D02*
D03*
X1227569Y0528534D02*
D03*
X1167046Y0583798D02*
D03*
X1163219Y0582144D02*
D03*
X1159369Y0580136D02*
D03*
X1159053Y0500620D02*
D03*
X1155404Y0502983D02*
D03*
X1114459Y0320306D02*
D03*
X1113396Y0315935D02*
D03*
X1052872Y0371199D02*
D03*
X1049046Y0369546D02*
D03*
X1045195Y0367538D02*
D03*
X1044880Y0288022D02*
D03*
X1041231Y0290384D02*
D03*
X1114459Y0426605D02*
D03*
X1113396Y0422235D02*
D03*
X1052872Y0477498D02*
D03*
X1049046Y0475845D02*
D03*
X1045195Y0473837D02*
D03*
X1044880Y0394321D02*
D03*
X1041231Y0396684D02*
D03*
X1114459Y0532904D02*
D03*
X1113396Y0528534D02*
D03*
X1052872Y0583798D02*
D03*
X1049046Y0582144D02*
D03*
X1045195Y0580136D02*
D03*
X1044880Y0500620D02*
D03*
X1041231Y0502983D02*
D03*
X1000286Y0320306D02*
D03*
X0999223Y0315935D02*
D03*
X0938699Y0371199D02*
D03*
X0934873Y0369546D02*
D03*
X0931022Y0367538D02*
D03*
X0930707Y0288022D02*
D03*
X0927057Y0290384D02*
D03*
X1000286Y0426605D02*
D03*
X0999223Y0422235D02*
D03*
X0938699Y0477498D02*
D03*
X0934873Y0475845D02*
D03*
X0931022Y0473837D02*
D03*
X0930707Y0394321D02*
D03*
X0927057Y0396684D02*
D03*
X1000286Y0532904D02*
D03*
X0999223Y0528534D02*
D03*
X0938699Y0583798D02*
D03*
X0934873Y0582144D02*
D03*
X0931022Y0580136D02*
D03*
X0930707Y0500620D02*
D03*
X0927057Y0502983D02*
D03*
X0886900Y0320069D02*
D03*
X0885837Y0315699D02*
D03*
X0825313Y0370963D02*
D03*
X0821487Y0369309D02*
D03*
X0817636Y0367302D02*
D03*
X0817321Y0287786D02*
D03*
X0813672Y0290148D02*
D03*
X0886900Y0426369D02*
D03*
X0885837Y0421999D02*
D03*
X0825313Y0477262D02*
D03*
X0821487Y0475609D02*
D03*
X0817636Y0473601D02*
D03*
X0817321Y0394085D02*
D03*
X0813672Y0396447D02*
D03*
X0886900Y0532668D02*
D03*
X0885837Y0528298D02*
D03*
X0825313Y0583562D02*
D03*
X0821487Y0581908D02*
D03*
X0817636Y0579900D02*
D03*
X0817321Y0500384D02*
D03*
X0813672Y0502746D02*
D03*
D81*
X1167136Y0363731D02*
D03*
X1150523Y0337904D02*
D03*
X1167136Y0470030D02*
D03*
X1150523Y0444203D02*
D03*
X1167136Y0576329D02*
D03*
X1150523Y0550502D02*
D03*
D82*
X1152491Y0358101D02*
D03*
X1143002Y0344226D02*
D03*
X1139499Y0327786D02*
D03*
X1142871Y0311172D02*
D03*
X1152491Y0464400D02*
D03*
X1143002Y0450525D02*
D03*
X1139499Y0434085D02*
D03*
X1142871Y0417471D02*
D03*
X1152491Y0570699D02*
D03*
X1143002Y0556824D02*
D03*
X1139499Y0540384D02*
D03*
X1142871Y0523770D02*
D03*
X1108484Y0311202D02*
D03*
X1038317Y0358101D02*
D03*
X1028829Y0344226D02*
D03*
X1025325Y0327786D02*
D03*
X1028698Y0311172D02*
D03*
X1037924Y0297077D02*
D03*
X1052012Y0287640D02*
D03*
X1068632Y0284479D02*
D03*
X1085211Y0287658D02*
D03*
X1099236Y0297155D02*
D03*
X1111912Y0327786D02*
D03*
X1108472Y0344137D02*
D03*
X1098947Y0358101D02*
D03*
X1085166Y0367714D02*
D03*
X1068632Y0371093D02*
D03*
X1108484Y0417501D02*
D03*
X1038317Y0464400D02*
D03*
X1028829Y0450525D02*
D03*
X1025325Y0434085D02*
D03*
X1028698Y0417471D02*
D03*
X1037924Y0403376D02*
D03*
X1052012Y0393939D02*
D03*
X1068632Y0390778D02*
D03*
X1085211Y0393957D02*
D03*
X1099236Y0403454D02*
D03*
X1111912Y0434085D02*
D03*
X1108472Y0450436D02*
D03*
X1098947Y0464400D02*
D03*
X1085166Y0474013D02*
D03*
X1068632Y0477392D02*
D03*
X1108484Y0523800D02*
D03*
X1038317Y0570699D02*
D03*
X1028829Y0556824D02*
D03*
X1025325Y0540384D02*
D03*
X1028698Y0523770D02*
D03*
X1037924Y0509676D02*
D03*
X1052012Y0500239D02*
D03*
X1068632Y0497077D02*
D03*
X1085211Y0500256D02*
D03*
X1099236Y0509753D02*
D03*
X1111912Y0540384D02*
D03*
X1108472Y0556735D02*
D03*
X1098947Y0570699D02*
D03*
X1085166Y0580312D02*
D03*
X1068632Y0583691D02*
D03*
X0994299Y0344137D02*
D03*
X0984774Y0358101D02*
D03*
X0954459Y0371093D02*
D03*
X0970992Y0367714D02*
D03*
D03*
X0997739Y0327719D02*
D03*
X0984774Y0358101D02*
D03*
X0954459Y0371093D02*
D03*
D03*
D03*
X0924144Y0358101D02*
D03*
X0914656Y0344226D02*
D03*
X0911152Y0327719D02*
D03*
X0914524Y0311172D02*
D03*
X0923750Y0297077D02*
D03*
X0937838Y0287640D02*
D03*
X0954432Y0284479D02*
D03*
X0971037Y0287658D02*
D03*
X0985168Y0297077D02*
D03*
X0994311Y0311202D02*
D03*
X0994299Y0450436D02*
D03*
X0984774Y0464400D02*
D03*
X0954459Y0477392D02*
D03*
X0970992Y0474013D02*
D03*
D03*
X0997739Y0434018D02*
D03*
X0984774Y0464400D02*
D03*
X0954459Y0477392D02*
D03*
D03*
D03*
X0924144Y0464400D02*
D03*
X0914656Y0450525D02*
D03*
X0911152Y0434018D02*
D03*
X0914524Y0417471D02*
D03*
X0923750Y0403376D02*
D03*
X0937838Y0393939D02*
D03*
X0954432Y0390778D02*
D03*
X0971037Y0393957D02*
D03*
X0985168Y0403376D02*
D03*
X0994311Y0417501D02*
D03*
X0994299Y0556735D02*
D03*
X0984774Y0570699D02*
D03*
X0954459Y0583691D02*
D03*
X0970992Y0580312D02*
D03*
D03*
X0997739Y0540317D02*
D03*
X0984774Y0570699D02*
D03*
X0954459Y0583691D02*
D03*
D03*
D03*
X0924144Y0570699D02*
D03*
X0914656Y0556824D02*
D03*
X0911152Y0540317D02*
D03*
X0914524Y0523770D02*
D03*
X0923750Y0509676D02*
D03*
X0937838Y0500239D02*
D03*
X0954432Y0497077D02*
D03*
X0971037Y0500256D02*
D03*
X0985168Y0509676D02*
D03*
X0994311Y0523800D02*
D03*
X0800482Y0344226D02*
D03*
X0800351Y0311172D02*
D03*
X0809577Y0297077D02*
D03*
X0870601Y0358101D02*
D03*
X0880126Y0344137D02*
D03*
X0809971Y0358101D02*
D03*
X0796979Y0327719D02*
D03*
X0823665Y0287640D02*
D03*
X0840286Y0284479D02*
D03*
X0880138Y0311202D02*
D03*
X0883565Y0327719D02*
D03*
X0856864Y0287658D02*
D03*
X0870994Y0297077D02*
D03*
X0856819Y0367714D02*
D03*
X0840286Y0371093D02*
D03*
X0800482Y0450525D02*
D03*
X0800351Y0417471D02*
D03*
X0809577Y0403376D02*
D03*
X0870601Y0464400D02*
D03*
X0880126Y0450436D02*
D03*
X0809971Y0464400D02*
D03*
X0796979Y0434018D02*
D03*
X0823665Y0393939D02*
D03*
X0840286Y0390778D02*
D03*
X0880138Y0417501D02*
D03*
X0883565Y0434018D02*
D03*
X0856864Y0393957D02*
D03*
X0870994Y0403376D02*
D03*
X0856819Y0474013D02*
D03*
X0840286Y0477392D02*
D03*
X0800482Y0556824D02*
D03*
X0800351Y0523770D02*
D03*
X0809577Y0509676D02*
D03*
X0870601Y0570699D02*
D03*
X0880126Y0556735D02*
D03*
X0809971Y0570699D02*
D03*
X0796979Y0540317D02*
D03*
X0823665Y0500239D02*
D03*
X0840286Y0497077D02*
D03*
X0880138Y0523800D02*
D03*
X0883565Y0540317D02*
D03*
X0856864Y0500256D02*
D03*
X0870994Y0509676D02*
D03*
X0856819Y0580312D02*
D03*
X0840286Y0583691D02*
D03*
D83*
X1058632Y0356246D02*
D03*
Y0364247D02*
D03*
X1078632Y0360246D02*
D03*
X1058632Y0462546D02*
D03*
Y0470546D02*
D03*
X1078632Y0466546D02*
D03*
X1058632Y0568845D02*
D03*
Y0576845D02*
D03*
X1078632Y0572845D02*
D03*
M02*
