G04*
G04 #@! TF.GenerationSoftware,Altium Limited,Altium Designer,19.1.5 (86)*
G04*
G04 Layer_Physical_Order=1*
G04 Layer_Color=255*
%FSAX25Y25*%
%MOIN*%
G70*
G01*
G75*
%ADD10C,0.01000*%
%ADD12C,0.00787*%
%ADD18R,0.02520X0.02362*%
G04:AMPARAMS|DCode=19|XSize=59.06mil|YSize=59.06mil|CornerRadius=5.91mil|HoleSize=0mil|Usage=FLASHONLY|Rotation=0.000|XOffset=0mil|YOffset=0mil|HoleType=Round|Shape=RoundedRectangle|*
%AMROUNDEDRECTD19*
21,1,0.05906,0.04724,0,0,0.0*
21,1,0.04724,0.05906,0,0,0.0*
1,1,0.01181,0.02362,-0.02362*
1,1,0.01181,-0.02362,-0.02362*
1,1,0.01181,-0.02362,0.02362*
1,1,0.01181,0.02362,0.02362*
%
%ADD19ROUNDEDRECTD19*%
%ADD20R,0.05906X0.05906*%
%ADD21R,0.02362X0.02520*%
%ADD31R,0.06693X0.01968*%
%ADD32R,0.01968X0.06693*%
%ADD33C,0.01575*%
%ADD34C,0.01181*%
%ADD35C,0.02953*%
%ADD36C,0.00984*%
%ADD37C,0.05906*%
%ADD38C,0.03543*%
%ADD39C,0.01968*%
G36*
X0149386Y0201516D02*
X0149955Y0200774D01*
X0150697Y0200205D01*
X0151012Y0200075D01*
X0151067Y0199511D01*
X0151032Y0199487D01*
X0150682Y0198964D01*
X0150676Y0198932D01*
X0150166D01*
X0150121Y0199161D01*
X0149771Y0199684D01*
X0149248Y0200034D01*
X0148630Y0200157D01*
X0148012Y0200034D01*
X0147489Y0199684D01*
X0147139Y0199161D01*
X0147016Y0198543D01*
X0147139Y0197926D01*
X0147489Y0197402D01*
X0148012Y0197052D01*
X0148520Y0196951D01*
X0148525Y0196949D01*
X0148535Y0196942D01*
X0148552Y0196928D01*
X0148561Y0196925D01*
X0148568Y0196920D01*
X0148584Y0196917D01*
X0148587Y0196916D01*
X0148607Y0196905D01*
X0148637Y0196886D01*
X0148670Y0196862D01*
X0148781Y0196767D01*
X0148844Y0196707D01*
X0148908Y0196681D01*
X0152825Y0192764D01*
Y0185771D01*
X0152797Y0185709D01*
X0152793Y0185538D01*
X0152782Y0185410D01*
X0152767Y0185313D01*
X0152765Y0185303D01*
X0152072D01*
X0152063Y0185353D01*
X0152037Y0185681D01*
X0152033Y0185885D01*
X0152007Y0185944D01*
Y0188465D01*
X0151915Y0188928D01*
X0151653Y0189322D01*
X0149312Y0191663D01*
X0149310Y0191665D01*
X0148917Y0191927D01*
X0148453Y0192020D01*
X0145095D01*
X0144649Y0192465D01*
X0144256Y0192728D01*
X0143792Y0192821D01*
X0141184D01*
X0140720Y0192728D01*
X0140327Y0192465D01*
X0139881Y0192020D01*
X0139760D01*
X0139699Y0192046D01*
X0139598Y0192047D01*
X0139435Y0192053D01*
X0139323Y0192065D01*
X0139303Y0192068D01*
X0139300Y0192069D01*
X0139284Y0192074D01*
X0139279Y0192074D01*
X0139271Y0192076D01*
X0139267Y0192075D01*
X0138933Y0192298D01*
X0138315Y0192421D01*
X0137697Y0192298D01*
X0137174Y0191948D01*
X0136824Y0191425D01*
X0136701Y0190807D01*
X0136824Y0190190D01*
X0137174Y0189666D01*
X0137697Y0189317D01*
X0138315Y0189194D01*
X0138933Y0189317D01*
X0139267Y0189540D01*
X0139271Y0189539D01*
X0139279Y0189541D01*
X0139284Y0189541D01*
X0139300Y0189546D01*
X0139303Y0189547D01*
X0139312Y0189548D01*
X0139607Y0189568D01*
X0139638Y0189569D01*
X0139981Y0189253D01*
X0139993Y0189095D01*
X0139909Y0188461D01*
X0139997Y0187793D01*
X0140255Y0187171D01*
X0140665Y0186637D01*
X0141199Y0186227D01*
X0141821Y0185969D01*
X0142488Y0185881D01*
X0143156Y0185969D01*
X0143778Y0186227D01*
X0144312Y0186637D01*
X0144722Y0187171D01*
X0144980Y0187793D01*
X0145067Y0188461D01*
X0144984Y0189095D01*
X0144994Y0189233D01*
X0145236Y0189595D01*
X0147950D01*
X0149583Y0187962D01*
Y0185953D01*
X0149557Y0185897D01*
X0149550Y0185705D01*
X0148146D01*
Y0181358D01*
Y0177012D01*
X0149630D01*
Y0177413D01*
X0165040D01*
X0165295Y0176916D01*
X0165202Y0176530D01*
X0165067Y0176405D01*
X0165025Y0176371D01*
X0164986Y0176342D01*
X0164956Y0176323D01*
X0164937Y0176312D01*
X0164934Y0176311D01*
X0164918Y0176308D01*
X0164910Y0176303D01*
X0164901Y0176300D01*
X0164884Y0176286D01*
X0164875Y0176279D01*
X0164869Y0176277D01*
X0164362Y0176176D01*
X0163838Y0175826D01*
X0163489Y0175303D01*
X0163366Y0174685D01*
X0163467Y0174177D01*
X0163194Y0173677D01*
X0162681D01*
Y0170224D01*
X0166134D01*
Y0173564D01*
X0166470Y0174067D01*
X0166571Y0174575D01*
X0166574Y0174580D01*
X0166580Y0174590D01*
X0166595Y0174607D01*
X0166598Y0174616D01*
X0166603Y0174623D01*
X0166606Y0174639D01*
X0166607Y0174642D01*
X0166617Y0174662D01*
X0166637Y0174692D01*
X0166661Y0174725D01*
X0166756Y0174837D01*
X0166816Y0174899D01*
X0166842Y0174963D01*
X0167256Y0175378D01*
X0167499Y0175742D01*
X0167585Y0176170D01*
Y0176945D01*
X0167612Y0177007D01*
X0167617Y0177177D01*
X0167628Y0177302D01*
X0167636Y0177351D01*
X0168110Y0177413D01*
X0168110Y0177413D01*
X0168110Y0177413D01*
X0171276D01*
X0171614Y0177054D01*
Y0172492D01*
X0171614Y0172492D01*
Y0172468D01*
X0171614D01*
X0171614Y0171992D01*
Y0169050D01*
X0171579Y0169044D01*
X0171263Y0169017D01*
X0171067Y0169014D01*
X0170947Y0168962D01*
X0170614Y0168896D01*
X0170221Y0168633D01*
X0169700Y0168112D01*
X0169638Y0168087D01*
X0169567Y0168017D01*
X0169447Y0167906D01*
X0169359Y0167835D01*
X0169343Y0167823D01*
X0169340Y0167821D01*
X0169325Y0167814D01*
X0169322Y0167810D01*
X0169315Y0167806D01*
X0169312Y0167802D01*
X0168918Y0167724D01*
X0168394Y0167374D01*
X0168045Y0166850D01*
X0167922Y0166233D01*
X0168045Y0165615D01*
X0168394Y0165092D01*
X0168918Y0164742D01*
X0169535Y0164619D01*
X0170153Y0164742D01*
X0170677Y0165092D01*
X0171026Y0165615D01*
X0171114Y0165653D01*
X0171614Y0165323D01*
Y0163043D01*
X0171614D01*
Y0163020D01*
X0171614D01*
Y0159854D01*
X0171622D01*
Y0156740D01*
X0171622D01*
Y0153575D01*
X0171622D01*
Y0150854D01*
X0171221D01*
Y0149370D01*
X0175567D01*
X0178901D01*
Y0149842D01*
X0178911Y0149753D01*
X0178941Y0149672D01*
X0178991Y0149601D01*
X0179061Y0149540D01*
X0179151Y0149488D01*
X0179261Y0149446D01*
X0179391Y0149413D01*
X0179541Y0149389D01*
X0179711Y0149375D01*
X0179901Y0149370D01*
X0179913D01*
Y0150854D01*
X0179512D01*
Y0153591D01*
X0179512D01*
Y0156724D01*
X0179512D01*
Y0159890D01*
X0179504D01*
Y0163020D01*
X0179948Y0163154D01*
X0180018D01*
X0180425Y0162929D01*
Y0161248D01*
X0182685D01*
X0184945D01*
Y0162929D01*
X0185378Y0163091D01*
X0185516Y0163093D01*
X0185567Y0163115D01*
X0190655D01*
X0192464Y0161305D01*
X0192308Y0160927D01*
X0192186Y0160000D01*
X0192308Y0159073D01*
X0192666Y0158209D01*
X0193235Y0157467D01*
X0193977Y0156898D01*
X0194646Y0156621D01*
X0194632Y0156313D01*
X0194151Y0152654D01*
X0193352Y0149051D01*
X0192242Y0145531D01*
X0190830Y0142121D01*
X0189126Y0138847D01*
X0187143Y0135735D01*
X0184896Y0132807D01*
X0184669Y0132559D01*
X0184019Y0132829D01*
X0183092Y0132951D01*
X0182165Y0132829D01*
X0181301Y0132471D01*
X0180559Y0131902D01*
X0179990Y0131160D01*
X0179712Y0130489D01*
X0174259D01*
X0173830Y0130404D01*
X0173467Y0130161D01*
X0170371Y0127065D01*
X0165816D01*
X0165665Y0127565D01*
X0165716Y0127599D01*
X0166066Y0128123D01*
X0166189Y0128740D01*
X0166066Y0129358D01*
X0165716Y0129881D01*
X0165192Y0130231D01*
X0164685Y0130332D01*
X0164679Y0130335D01*
X0164670Y0130341D01*
X0164653Y0130356D01*
X0164644Y0130358D01*
X0164637Y0130363D01*
X0164620Y0130366D01*
X0164618Y0130368D01*
X0164598Y0130378D01*
X0164568Y0130397D01*
X0164535Y0130421D01*
X0164482Y0130467D01*
Y0134012D01*
X0164510Y0134075D01*
X0164514Y0134246D01*
X0164521Y0134326D01*
X0164957Y0134480D01*
X0164957Y0134480D01*
Y0134480D01*
X0164957Y0134480D01*
X0168122D01*
Y0134480D01*
X0168268Y0134480D01*
X0168622Y0134480D01*
X0171433D01*
Y0140575D01*
X0175067D01*
Y0142559D01*
X0175567D01*
Y0143059D01*
X0179913D01*
Y0143633D01*
X0183728D01*
X0184538Y0143794D01*
X0185224Y0144252D01*
X0185683Y0144939D01*
X0185844Y0145748D01*
X0185683Y0146558D01*
X0185224Y0147244D01*
X0184538Y0147703D01*
X0183728Y0147863D01*
X0179913D01*
Y0148370D01*
X0179901D01*
D01*
X0179711Y0148365D01*
X0179541Y0148351D01*
X0179391Y0148328D01*
X0179261Y0148294D01*
X0179151Y0148252D01*
X0179061Y0148200D01*
X0178991Y0148139D01*
X0178941Y0148068D01*
X0178911Y0147988D01*
X0178901Y0147898D01*
Y0148370D01*
X0175567D01*
X0171221D01*
Y0146886D01*
X0171622D01*
Y0144543D01*
X0171221D01*
Y0142370D01*
X0170092D01*
X0167613Y0144849D01*
X0167285Y0145068D01*
X0166898Y0145145D01*
X0163755D01*
X0163669Y0145275D01*
X0163601Y0145320D01*
X0163497Y0145991D01*
X0163574Y0146087D01*
X0166134D01*
Y0149539D01*
X0158228D01*
Y0146087D01*
X0161481D01*
X0161558Y0145991D01*
X0161454Y0145320D01*
X0161387Y0145275D01*
X0161037Y0144751D01*
X0160914Y0144134D01*
X0161037Y0143516D01*
X0161387Y0142993D01*
X0161564Y0142874D01*
X0161413Y0142374D01*
X0158646D01*
Y0142374D01*
X0155480D01*
Y0142370D01*
X0149181D01*
X0149181Y0142370D01*
X0149101Y0142411D01*
X0148910Y0142612D01*
X0148805Y0142768D01*
X0148782Y0142860D01*
X0148789Y0142893D01*
X0148795Y0142912D01*
X0148803Y0142924D01*
X0148805Y0142933D01*
X0148811Y0142943D01*
X0148813Y0142965D01*
X0149129Y0143438D01*
X0149252Y0144055D01*
X0149129Y0144673D01*
X0148779Y0145196D01*
X0148255Y0145546D01*
X0147638Y0145669D01*
X0147020Y0145546D01*
X0146497Y0145196D01*
X0146147Y0144673D01*
X0146024Y0144055D01*
X0146147Y0143438D01*
X0146405Y0143051D01*
X0146412Y0143029D01*
X0146415Y0143013D01*
X0146416Y0142994D01*
X0146420Y0142987D01*
X0146421Y0142979D01*
X0146431Y0142964D01*
X0146433Y0142958D01*
X0146440Y0142935D01*
X0146447Y0142898D01*
X0146454Y0142856D01*
X0146356Y0142715D01*
X0146047Y0142370D01*
Y0142370D01*
X0146047Y0142370D01*
X0142882D01*
Y0142370D01*
X0133547D01*
X0133425Y0142370D01*
X0133047Y0142665D01*
Y0146795D01*
X0133047Y0147272D01*
X0133047Y0147772D01*
Y0150406D01*
Y0153555D01*
Y0156342D01*
X0133449D01*
Y0157827D01*
X0129102D01*
X0124756D01*
Y0156342D01*
X0125157D01*
Y0153555D01*
Y0150406D01*
Y0147772D01*
X0125157Y0147295D01*
X0125157Y0146795D01*
Y0144106D01*
Y0140996D01*
X0132925D01*
X0133047Y0140996D01*
X0133425Y0140701D01*
Y0134480D01*
X0136978D01*
X0136980Y0134472D01*
X0136995Y0134375D01*
X0137006Y0134246D01*
X0137010Y0134075D01*
X0137038Y0134013D01*
Y0133587D01*
X0137010Y0133525D01*
X0137005Y0133352D01*
X0136994Y0133224D01*
X0136978Y0133128D01*
X0136976Y0133118D01*
X0136378D01*
Y0131673D01*
X0136354Y0131638D01*
X0136364Y0131588D01*
X0136342Y0131541D01*
X0136378Y0131437D01*
Y0131219D01*
X0136346Y0131162D01*
X0136267Y0131050D01*
X0135995Y0130727D01*
X0135815Y0130541D01*
X0135790Y0130476D01*
X0135725Y0130411D01*
X0125159D01*
X0124881Y0131082D01*
X0124312Y0131824D01*
X0123570Y0132393D01*
X0122707Y0132751D01*
X0121780Y0132873D01*
X0120852Y0132751D01*
X0120330Y0132535D01*
X0120080Y0132807D01*
X0117834Y0135735D01*
X0115851Y0138847D01*
X0114147Y0142121D01*
X0112734Y0145531D01*
X0111625Y0149051D01*
X0110826Y0152654D01*
X0110344Y0156313D01*
X0110330Y0156632D01*
X0110972Y0156898D01*
X0111714Y0157467D01*
X0112283Y0158209D01*
X0112641Y0159073D01*
X0112763Y0160000D01*
X0112651Y0160849D01*
X0112820Y0160996D01*
X0113103Y0161104D01*
X0118151Y0156056D01*
X0118479Y0155837D01*
X0118866Y0155760D01*
X0119961D01*
X0120048Y0155631D01*
X0120571Y0155281D01*
X0121189Y0155158D01*
X0121807Y0155281D01*
X0122330Y0155631D01*
X0122680Y0156154D01*
X0122803Y0156772D01*
X0122680Y0157389D01*
X0122330Y0157913D01*
X0121807Y0158263D01*
X0121189Y0158385D01*
X0120571Y0158263D01*
X0120048Y0157913D01*
X0119961Y0157783D01*
X0119285D01*
X0113263Y0163805D01*
Y0168990D01*
X0118164Y0173891D01*
X0118383Y0174219D01*
X0118460Y0174606D01*
X0118460Y0174606D01*
Y0178833D01*
X0130408Y0190781D01*
X0130628Y0191109D01*
X0130667Y0191306D01*
X0130834Y0191418D01*
X0131184Y0191941D01*
X0131307Y0192559D01*
X0131184Y0193177D01*
X0130834Y0193700D01*
X0130310Y0194050D01*
X0129693Y0194173D01*
X0129075Y0194050D01*
X0128552Y0193700D01*
X0128202Y0193177D01*
X0128079Y0192559D01*
X0128202Y0191941D01*
X0128405Y0191638D01*
X0126135Y0189368D01*
X0125661Y0189602D01*
X0125755Y0190315D01*
X0125633Y0191242D01*
X0125275Y0192106D01*
X0125528Y0192586D01*
X0128223Y0194654D01*
X0131336Y0196637D01*
X0134609Y0198342D01*
X0138019Y0199754D01*
X0141539Y0200864D01*
X0145142Y0201662D01*
X0148801Y0202144D01*
X0149120Y0202158D01*
X0149386Y0201516D01*
D02*
G37*
G36*
X0152917Y0199000D02*
X0152965Y0198967D01*
X0153020Y0198939D01*
X0153083Y0198915D01*
X0153153Y0198894D01*
X0153230Y0198877D01*
X0153314Y0198863D01*
X0153406Y0198854D01*
X0153612Y0198846D01*
Y0197846D01*
X0153505Y0197845D01*
X0153314Y0197829D01*
X0153230Y0197816D01*
X0153153Y0197799D01*
X0153083Y0197778D01*
X0153020Y0197754D01*
X0152965Y0197725D01*
X0152917Y0197693D01*
X0152876Y0197658D01*
Y0199035D01*
X0152917Y0199000D01*
D02*
G37*
G36*
X0167748Y0197264D02*
X0167670Y0197292D01*
X0167588Y0197304D01*
X0167501Y0197300D01*
X0167409Y0197280D01*
X0167312Y0197244D01*
X0167210Y0197193D01*
X0167104Y0197125D01*
X0166992Y0197041D01*
X0166876Y0196942D01*
X0166755Y0196827D01*
X0165920Y0197662D01*
X0166036Y0197783D01*
X0166135Y0197899D01*
X0166219Y0198010D01*
X0166286Y0198117D01*
X0166338Y0198218D01*
X0166374Y0198315D01*
X0166394Y0198407D01*
X0166398Y0198494D01*
X0166385Y0198576D01*
X0166358Y0198654D01*
X0167748Y0197264D01*
D02*
G37*
G36*
X0149618Y0198479D02*
X0149629Y0198423D01*
X0149648Y0198363D01*
X0149675Y0198302D01*
X0149709Y0198238D01*
X0149752Y0198171D01*
X0149802Y0198102D01*
X0149861Y0198030D01*
X0150001Y0197880D01*
X0149293Y0197173D01*
X0149217Y0197247D01*
X0149071Y0197371D01*
X0149002Y0197421D01*
X0148935Y0197464D01*
X0148871Y0197499D01*
X0148810Y0197525D01*
X0148751Y0197545D01*
X0148694Y0197556D01*
X0148640Y0197559D01*
X0149614Y0198533D01*
X0149618Y0198479D01*
D02*
G37*
G36*
X0173641Y0196637D02*
X0176753Y0194654D01*
X0179449Y0192586D01*
X0179701Y0192106D01*
X0179343Y0191242D01*
X0179225Y0190343D01*
X0179203Y0190290D01*
X0179200Y0189886D01*
X0179151Y0189169D01*
X0179109Y0188876D01*
X0179054Y0188610D01*
X0178989Y0188381D01*
X0178916Y0188188D01*
X0178839Y0188031D01*
X0178759Y0187909D01*
X0178649Y0187781D01*
X0178630Y0187726D01*
X0174767Y0183863D01*
X0174524Y0183500D01*
X0174439Y0183071D01*
Y0179282D01*
X0174438Y0179272D01*
X0174411Y0179214D01*
X0174408Y0179090D01*
X0174363Y0178807D01*
X0171614D01*
X0171276Y0179167D01*
Y0185303D01*
X0168110D01*
X0168110Y0185303D01*
X0168087D01*
Y0185303D01*
X0167610Y0185303D01*
X0164671D01*
X0164662Y0185353D01*
X0164635Y0185681D01*
X0164632Y0185885D01*
X0164606Y0185944D01*
Y0186348D01*
X0167195Y0188937D01*
X0167458Y0189330D01*
X0167550Y0189794D01*
Y0196152D01*
X0168050Y0196486D01*
X0168094Y0196468D01*
X0169021Y0196346D01*
X0169948Y0196468D01*
X0170812Y0196826D01*
X0171554Y0197395D01*
X0171734Y0197630D01*
X0173641Y0196637D01*
D02*
G37*
G36*
X0139042Y0191478D02*
X0139076Y0191461D01*
X0139119Y0191446D01*
X0139172Y0191433D01*
X0139235Y0191423D01*
X0139389Y0191407D01*
X0139582Y0191399D01*
X0139693Y0191398D01*
Y0190217D01*
X0139582Y0190216D01*
X0139235Y0190192D01*
X0139172Y0190181D01*
X0139119Y0190169D01*
X0139076Y0190154D01*
X0139042Y0190137D01*
X0139018Y0190118D01*
Y0191496D01*
X0139042Y0191478D01*
D02*
G37*
G36*
X0182774Y0187362D02*
X0182349Y0187359D01*
X0181589Y0187308D01*
X0181252Y0187259D01*
X0180945Y0187196D01*
X0180667Y0187117D01*
X0180418Y0187023D01*
X0180198Y0186914D01*
X0180008Y0186790D01*
X0179846Y0186651D01*
X0179139Y0187358D01*
X0179278Y0187519D01*
X0179402Y0187710D01*
X0179511Y0187929D01*
X0179605Y0188178D01*
X0179684Y0188457D01*
X0179747Y0188764D01*
X0179796Y0189101D01*
X0179847Y0189861D01*
X0179850Y0190285D01*
X0182774Y0187362D01*
D02*
G37*
G36*
X0163988Y0185649D02*
X0164019Y0185272D01*
X0164045Y0185118D01*
X0164080Y0184988D01*
X0164122Y0184882D01*
X0164171Y0184799D01*
X0164228Y0184740D01*
X0164293Y0184704D01*
X0164366Y0184693D01*
X0162422D01*
X0162494Y0184704D01*
X0162559Y0184740D01*
X0162616Y0184799D01*
X0162666Y0184882D01*
X0162708Y0184988D01*
X0162742Y0185118D01*
X0162769Y0185272D01*
X0162788Y0185449D01*
X0162803Y0185874D01*
X0163984D01*
X0163988Y0185649D01*
D02*
G37*
G36*
X0160838D02*
X0160869Y0185272D01*
X0160896Y0185118D01*
X0160930Y0184988D01*
X0160972Y0184882D01*
X0161022Y0184799D01*
X0161079Y0184740D01*
X0161144Y0184704D01*
X0161216Y0184693D01*
X0159272D01*
X0159344Y0184704D01*
X0159409Y0184740D01*
X0159467Y0184799D01*
X0159516Y0184882D01*
X0159558Y0184988D01*
X0159592Y0185118D01*
X0159619Y0185272D01*
X0159638Y0185449D01*
X0159653Y0185874D01*
X0160835D01*
X0160838Y0185649D01*
D02*
G37*
G36*
X0157599Y0185503D02*
X0157613Y0185333D01*
X0157637Y0185183D01*
X0157670Y0185053D01*
X0157713Y0184943D01*
X0157764Y0184853D01*
X0157826Y0184783D01*
X0157897Y0184733D01*
X0157977Y0184703D01*
X0158067Y0184693D01*
X0156122D01*
X0156212Y0184703D01*
X0156292Y0184733D01*
X0156363Y0184783D01*
X0156424Y0184853D01*
X0156476Y0184943D01*
X0156519Y0185053D01*
X0156552Y0185183D01*
X0156576Y0185333D01*
X0156590Y0185503D01*
X0156595Y0185693D01*
X0157595D01*
X0157599Y0185503D01*
D02*
G37*
G36*
X0154450D02*
X0154464Y0185333D01*
X0154487Y0185183D01*
X0154520Y0185053D01*
X0154563Y0184943D01*
X0154615Y0184853D01*
X0154676Y0184783D01*
X0154747Y0184733D01*
X0154827Y0184703D01*
X0154917Y0184693D01*
X0152973D01*
X0153062Y0184703D01*
X0153143Y0184733D01*
X0153214Y0184783D01*
X0153275Y0184853D01*
X0153327Y0184943D01*
X0153369Y0185053D01*
X0153402Y0185183D01*
X0153426Y0185333D01*
X0153440Y0185503D01*
X0153445Y0185693D01*
X0154445D01*
X0154450Y0185503D01*
D02*
G37*
G36*
X0151390Y0185649D02*
X0151420Y0185272D01*
X0151447Y0185118D01*
X0151481Y0184988D01*
X0151523Y0184882D01*
X0151573Y0184799D01*
X0151630Y0184740D01*
X0151695Y0184704D01*
X0151768Y0184693D01*
X0149823D01*
X0149896Y0184704D01*
X0149960Y0184740D01*
X0150018Y0184799D01*
X0150067Y0184882D01*
X0150109Y0184988D01*
X0150144Y0185118D01*
X0150170Y0185272D01*
X0150189Y0185449D01*
X0150205Y0185874D01*
X0151386D01*
X0151390Y0185649D01*
D02*
G37*
G36*
X0176064Y0179004D02*
X0176079Y0178832D01*
X0176104Y0178681D01*
X0176139Y0178549D01*
X0176184Y0178438D01*
X0176239Y0178347D01*
X0176304Y0178276D01*
X0176379Y0178225D01*
X0176464Y0178195D01*
X0176559Y0178185D01*
X0174559D01*
X0174654Y0178195D01*
X0174739Y0178225D01*
X0174814Y0178276D01*
X0174879Y0178347D01*
X0174934Y0178438D01*
X0174979Y0178549D01*
X0175014Y0178681D01*
X0175039Y0178832D01*
X0175054Y0179004D01*
X0175059Y0179197D01*
X0176059D01*
X0176064Y0179004D01*
D02*
G37*
G36*
X0167370Y0178014D02*
X0167285Y0177984D01*
X0167210Y0177934D01*
X0167145Y0177864D01*
X0167090Y0177774D01*
X0167045Y0177664D01*
X0167010Y0177534D01*
X0166985Y0177384D01*
X0166970Y0177214D01*
X0166965Y0177024D01*
X0165965D01*
X0165960Y0177214D01*
X0165947Y0177384D01*
X0165926Y0177534D01*
X0165895Y0177664D01*
X0165856Y0177774D01*
X0165809Y0177864D01*
X0165752Y0177934D01*
X0165688Y0177984D01*
X0165614Y0178014D01*
X0165532Y0178024D01*
X0167465D01*
X0167370Y0178014D01*
D02*
G37*
G36*
X0166350Y0175349D02*
X0166276Y0175272D01*
X0166152Y0175126D01*
X0166102Y0175057D01*
X0166059Y0174991D01*
X0166024Y0174926D01*
X0165997Y0174865D01*
X0165978Y0174806D01*
X0165967Y0174749D01*
X0165964Y0174695D01*
X0164989Y0175669D01*
X0165043Y0175673D01*
X0165100Y0175684D01*
X0165159Y0175703D01*
X0165221Y0175730D01*
X0165285Y0175765D01*
X0165352Y0175807D01*
X0165421Y0175857D01*
X0165492Y0175916D01*
X0165643Y0176056D01*
X0166350Y0175349D01*
D02*
G37*
G36*
X0190219Y0174284D02*
X0189933Y0174564D01*
X0189381Y0175037D01*
X0189116Y0175229D01*
X0188857Y0175391D01*
X0188604Y0175524D01*
X0188359Y0175627D01*
X0188120Y0175701D01*
X0187888Y0175746D01*
X0187663Y0175760D01*
Y0176941D01*
X0187888Y0176956D01*
X0188120Y0177000D01*
X0188359Y0177074D01*
X0188604Y0177178D01*
X0188857Y0177311D01*
X0189116Y0177473D01*
X0189381Y0177665D01*
X0189654Y0177886D01*
X0190219Y0178418D01*
Y0174284D01*
D02*
G37*
G36*
X0178902Y0174850D02*
X0178926Y0174812D01*
X0178967Y0174777D01*
X0179025Y0174748D01*
X0179098Y0174723D01*
X0179188Y0174702D01*
X0179295Y0174686D01*
X0179418Y0174674D01*
X0179713Y0174665D01*
Y0173484D01*
X0179557Y0173482D01*
X0179295Y0173464D01*
X0179188Y0173448D01*
X0179098Y0173427D01*
X0179025Y0173402D01*
X0178967Y0173372D01*
X0178926Y0173338D01*
X0178902Y0173299D01*
X0178893Y0173256D01*
Y0174894D01*
X0178902Y0174850D01*
D02*
G37*
G36*
X0178903Y0171768D02*
X0178934Y0171688D01*
X0178983Y0171617D01*
X0179053Y0171556D01*
X0179144Y0171504D01*
X0179253Y0171461D01*
X0179384Y0171428D01*
X0179534Y0171405D01*
X0179703Y0171390D01*
X0179894Y0171386D01*
Y0170386D01*
X0179703Y0170381D01*
X0179534Y0170367D01*
X0179384Y0170343D01*
X0179253Y0170310D01*
X0179144Y0170268D01*
X0179053Y0170216D01*
X0178983Y0170154D01*
X0178934Y0170084D01*
X0178903Y0170003D01*
X0178893Y0169914D01*
Y0171858D01*
X0178903Y0171768D01*
D02*
G37*
G36*
X0172225Y0166803D02*
X0172213Y0166876D01*
X0172179Y0166941D01*
X0172121Y0166998D01*
X0172041Y0167048D01*
X0171938Y0167090D01*
X0171812Y0167124D01*
X0171663Y0167151D01*
X0171491Y0167170D01*
X0171078Y0167185D01*
Y0168366D01*
X0171296Y0168370D01*
X0171663Y0168401D01*
X0171812Y0168427D01*
X0171938Y0168462D01*
X0172041Y0168503D01*
X0172121Y0168553D01*
X0172179Y0168610D01*
X0172213Y0168675D01*
X0172225Y0168748D01*
Y0166803D01*
D02*
G37*
G36*
X0170927Y0166790D02*
X0170850Y0166711D01*
X0170621Y0166448D01*
X0170584Y0166396D01*
X0170556Y0166350D01*
X0170536Y0166309D01*
X0170524Y0166273D01*
X0170520Y0166243D01*
X0169545Y0167217D01*
X0169576Y0167221D01*
X0169611Y0167233D01*
X0169652Y0167253D01*
X0169699Y0167282D01*
X0169751Y0167318D01*
X0169871Y0167416D01*
X0170013Y0167547D01*
X0170092Y0167625D01*
X0170927Y0166790D01*
D02*
G37*
G36*
X0183949Y0165624D02*
X0183996Y0165559D01*
X0184075Y0165502D01*
X0184185Y0165452D01*
X0184327Y0165410D01*
X0184500Y0165376D01*
X0184704Y0165349D01*
X0185208Y0165319D01*
X0185508Y0165315D01*
Y0163740D01*
X0185208Y0163736D01*
X0184500Y0163679D01*
X0184327Y0163645D01*
X0184185Y0163603D01*
X0184075Y0163553D01*
X0183996Y0163496D01*
X0183949Y0163431D01*
X0183933Y0163358D01*
Y0165697D01*
X0183949Y0165624D01*
D02*
G37*
G36*
X0148310Y0143336D02*
X0148273Y0143296D01*
X0148239Y0143248D01*
X0148210Y0143193D01*
X0148185Y0143131D01*
X0148163Y0143061D01*
X0148145Y0142984D01*
X0148132Y0142900D01*
X0148122Y0142808D01*
X0148117Y0142665D01*
X0148119Y0142570D01*
X0148133Y0142400D01*
X0148157Y0142250D01*
X0148190Y0142120D01*
X0148232Y0142010D01*
X0148284Y0141920D01*
X0148346Y0141850D01*
X0148416Y0141800D01*
X0148497Y0141770D01*
X0148586Y0141760D01*
X0146642D01*
X0146732Y0141770D01*
X0146812Y0141800D01*
X0146883Y0141850D01*
X0146944Y0141920D01*
X0146996Y0142010D01*
X0147039Y0142120D01*
X0147072Y0142250D01*
X0147095Y0142400D01*
X0147109Y0142570D01*
X0147113Y0142707D01*
X0147112Y0142738D01*
X0147098Y0142929D01*
X0147085Y0143014D01*
X0147069Y0143091D01*
X0147049Y0143161D01*
X0147025Y0143224D01*
X0146998Y0143280D01*
X0146967Y0143328D01*
X0146932Y0143369D01*
X0148310Y0143336D01*
D02*
G37*
G36*
X0157946Y0135085D02*
X0157865Y0135055D01*
X0157794Y0135005D01*
X0157733Y0134935D01*
X0157681Y0134845D01*
X0157639Y0134735D01*
X0157606Y0134605D01*
X0157582Y0134455D01*
X0157568Y0134285D01*
X0157563Y0134095D01*
X0156563D01*
X0156558Y0134285D01*
X0156544Y0134455D01*
X0156520Y0134605D01*
X0156487Y0134735D01*
X0156445Y0134845D01*
X0156393Y0134935D01*
X0156332Y0135005D01*
X0156261Y0135055D01*
X0156181Y0135085D01*
X0156091Y0135095D01*
X0158035D01*
X0157946Y0135085D01*
D02*
G37*
G36*
X0161095Y0135085D02*
X0161015Y0135055D01*
X0160944Y0135005D01*
X0160883Y0134935D01*
X0160831Y0134845D01*
X0160788Y0134735D01*
X0160755Y0134605D01*
X0160731Y0134455D01*
X0160717Y0134285D01*
X0160713Y0134095D01*
X0159713D01*
X0159708Y0134285D01*
X0159694Y0134455D01*
X0159670Y0134605D01*
X0159637Y0134735D01*
X0159595Y0134845D01*
X0159543Y0134935D01*
X0159481Y0135005D01*
X0159410Y0135055D01*
X0159330Y0135085D01*
X0159240Y0135095D01*
X0161185D01*
X0161095Y0135085D01*
D02*
G37*
G36*
X0151646Y0135081D02*
X0151566Y0135051D01*
X0151495Y0135001D01*
X0151434Y0134931D01*
X0151382Y0134841D01*
X0151339Y0134731D01*
X0151306Y0134601D01*
X0151283Y0134451D01*
X0151268Y0134281D01*
X0151264Y0134091D01*
X0150264D01*
X0150259Y0134281D01*
X0150245Y0134451D01*
X0150221Y0134601D01*
X0150188Y0134731D01*
X0150146Y0134841D01*
X0150094Y0134931D01*
X0150032Y0135001D01*
X0149961Y0135051D01*
X0149881Y0135081D01*
X0149792Y0135091D01*
X0151736D01*
X0151646Y0135081D01*
D02*
G37*
G36*
X0164245Y0135081D02*
X0164164Y0135051D01*
X0164094Y0135001D01*
X0164032Y0134931D01*
X0163980Y0134841D01*
X0163938Y0134731D01*
X0163905Y0134601D01*
X0163881Y0134451D01*
X0163867Y0134281D01*
X0163862Y0134091D01*
X0162862D01*
X0162857Y0134281D01*
X0162843Y0134451D01*
X0162820Y0134601D01*
X0162787Y0134731D01*
X0162744Y0134841D01*
X0162692Y0134931D01*
X0162631Y0135001D01*
X0162560Y0135051D01*
X0162480Y0135081D01*
X0162390Y0135091D01*
X0164334D01*
X0164245Y0135081D01*
D02*
G37*
G36*
X0139046D02*
X0138965Y0135051D01*
X0138893Y0135001D01*
X0138830Y0134931D01*
X0138777Y0134841D01*
X0138734Y0134731D01*
X0138701Y0134601D01*
X0138677Y0134451D01*
X0138662Y0134281D01*
X0138657Y0134091D01*
X0137657D01*
X0137653Y0134281D01*
X0137639Y0134451D01*
X0137616Y0134601D01*
X0137583Y0134731D01*
X0137541Y0134841D01*
X0137490Y0134931D01*
X0137430Y0135001D01*
X0137360Y0135051D01*
X0137281Y0135081D01*
X0137193Y0135091D01*
X0139138D01*
X0139046Y0135081D01*
D02*
G37*
G36*
X0154813Y0135079D02*
X0154748Y0135044D01*
X0154691Y0134984D01*
X0154641Y0134902D01*
X0154599Y0134795D01*
X0154565Y0134666D01*
X0154538Y0134512D01*
X0154519Y0134335D01*
X0154504Y0133910D01*
X0153323D01*
X0153319Y0134134D01*
X0153288Y0134512D01*
X0153262Y0134666D01*
X0153227Y0134795D01*
X0153185Y0134902D01*
X0153136Y0134984D01*
X0153078Y0135044D01*
X0153014Y0135079D01*
X0152941Y0135091D01*
X0154886D01*
X0154813Y0135079D01*
D02*
G37*
G36*
X0138663Y0133315D02*
X0138678Y0133143D01*
X0138702Y0132992D01*
X0138737Y0132860D01*
X0138783Y0132749D01*
X0138838Y0132658D01*
X0138902Y0132587D01*
X0138978Y0132536D01*
X0139062Y0132506D01*
X0139157Y0132496D01*
X0137157D01*
X0137252Y0132506D01*
X0137338Y0132536D01*
X0137413Y0132587D01*
X0137478Y0132658D01*
X0137532Y0132749D01*
X0137577Y0132860D01*
X0137612Y0132992D01*
X0137637Y0133143D01*
X0137653Y0133315D01*
X0137657Y0133508D01*
X0138657D01*
X0138663Y0133315D01*
D02*
G37*
G36*
X0138324Y0130012D02*
X0138250Y0130072D01*
X0138160Y0130103D01*
X0138056Y0130105D01*
X0137937Y0130078D01*
X0137803Y0130022D01*
X0137654Y0129937D01*
X0137491Y0129822D01*
X0137312Y0129679D01*
X0136910Y0129305D01*
X0136281Y0130091D01*
X0136476Y0130292D01*
X0136782Y0130655D01*
X0136894Y0130817D01*
X0136978Y0130965D01*
X0137036Y0131099D01*
X0137065Y0131221D01*
X0137067Y0131329D01*
X0137041Y0131424D01*
X0136988Y0131505D01*
X0138324Y0130012D01*
D02*
G37*
G36*
X0146031Y0134480D02*
X0149197D01*
X0149197Y0134480D01*
X0149610Y0134271D01*
X0149612Y0134246D01*
X0149616Y0134075D01*
X0149644Y0134012D01*
Y0129684D01*
X0143993Y0124033D01*
X0138926D01*
X0138498Y0123948D01*
X0138265Y0123792D01*
X0138138Y0123747D01*
X0137998Y0123620D01*
X0137879Y0123533D01*
X0137756Y0123462D01*
X0137628Y0123406D01*
X0137492Y0123363D01*
X0137346Y0123335D01*
X0137187Y0123320D01*
X0137014Y0123321D01*
X0136827Y0123339D01*
X0136601Y0123379D01*
X0136543Y0123366D01*
X0136488Y0123389D01*
X0136425Y0123363D01*
X0135867Y0123436D01*
X0134940Y0123314D01*
X0134076Y0122956D01*
X0133335Y0122387D01*
X0133299Y0122341D01*
X0131336Y0123363D01*
X0128223Y0125346D01*
X0125295Y0127592D01*
X0125209Y0127671D01*
X0125403Y0128171D01*
X0136189D01*
X0136618Y0128257D01*
X0136981Y0128499D01*
X0137267Y0128785D01*
X0137314Y0128799D01*
X0137327Y0128822D01*
X0137351Y0128831D01*
X0137736Y0129188D01*
X0137879Y0129303D01*
X0138001Y0129389D01*
X0138024Y0129402D01*
X0138212D01*
X0138288Y0129365D01*
X0138339Y0129383D01*
X0138392Y0129368D01*
X0138454Y0129402D01*
X0139756D01*
Y0129000D01*
X0141437D01*
Y0129012D01*
D01*
X0141432Y0129204D01*
X0141417Y0129376D01*
X0141392Y0129528D01*
X0141357Y0129660D01*
X0141312Y0129771D01*
X0141257Y0129862D01*
X0141192Y0129933D01*
X0141117Y0129983D01*
X0141032Y0130014D01*
X0140937Y0130024D01*
X0141437D01*
Y0131260D01*
Y0133520D01*
X0139756D01*
X0139756Y0133520D01*
X0139468Y0133556D01*
X0139326Y0133985D01*
X0139551Y0134480D01*
X0142898D01*
Y0134480D01*
X0146031D01*
Y0134480D01*
D02*
G37*
G36*
X0163988Y0130037D02*
X0164134Y0129913D01*
X0164203Y0129862D01*
X0164269Y0129820D01*
X0164333Y0129785D01*
X0164395Y0129758D01*
X0164454Y0129739D01*
X0164511Y0129728D01*
X0164565Y0129724D01*
X0163591Y0128750D01*
X0163587Y0128804D01*
X0163576Y0128861D01*
X0163557Y0128920D01*
X0163530Y0128982D01*
X0163495Y0129046D01*
X0163453Y0129112D01*
X0163402Y0129181D01*
X0163344Y0129253D01*
X0163204Y0129404D01*
X0163911Y0130111D01*
X0163988Y0130037D01*
D02*
G37*
G36*
X0139280Y0122560D02*
X0139130Y0122395D01*
X0139003Y0122220D01*
X0138896Y0122035D01*
X0138811Y0121841D01*
X0138748Y0121638D01*
X0138706Y0121424D01*
X0138686Y0121202D01*
X0138687Y0120969D01*
X0138710Y0120727D01*
X0138754Y0120475D01*
X0136488Y0122741D01*
X0136740Y0122697D01*
X0136982Y0122674D01*
X0137215Y0122672D01*
X0137438Y0122693D01*
X0137651Y0122735D01*
X0137855Y0122798D01*
X0138049Y0122883D01*
X0138233Y0122989D01*
X0138408Y0123117D01*
X0138573Y0123267D01*
X0139280Y0122560D01*
D02*
G37*
G36*
X0166818Y0122835D02*
X0166941Y0122736D01*
X0167062Y0122654D01*
X0167181Y0122590D01*
X0167299Y0122543D01*
X0167414Y0122513D01*
X0167529Y0122501D01*
X0167641Y0122505D01*
X0167752Y0122528D01*
X0167861Y0122567D01*
X0166371Y0121078D01*
X0166411Y0121187D01*
X0166433Y0121297D01*
X0166438Y0121410D01*
X0166426Y0121524D01*
X0166396Y0121640D01*
X0166349Y0121757D01*
X0166284Y0121877D01*
X0166202Y0121998D01*
X0166103Y0122120D01*
X0165987Y0122245D01*
X0166694Y0122952D01*
X0166818Y0122835D01*
D02*
G37*
G36*
X0153094Y0121133D02*
X0153138Y0120901D01*
X0153212Y0120662D01*
X0153315Y0120416D01*
X0153448Y0120164D01*
X0153610Y0119905D01*
X0153802Y0119639D01*
X0154024Y0119367D01*
X0154555Y0118802D01*
X0150421D01*
X0150702Y0119088D01*
X0151174Y0119639D01*
X0151366Y0119905D01*
X0151529Y0120164D01*
X0151661Y0120416D01*
X0151765Y0120662D01*
X0151839Y0120901D01*
X0151883Y0121133D01*
X0151898Y0121358D01*
X0153079D01*
X0153094Y0121133D01*
D02*
G37*
%LPC*%
G36*
X0142488Y0199040D02*
X0141821Y0198952D01*
X0141199Y0198694D01*
X0140665Y0198284D01*
X0140255Y0197750D01*
X0139997Y0197128D01*
X0139909Y0196461D01*
X0139997Y0195793D01*
X0140255Y0195171D01*
X0140665Y0194637D01*
X0141199Y0194227D01*
X0141821Y0193969D01*
X0142488Y0193881D01*
X0143156Y0193969D01*
X0143778Y0194227D01*
X0144312Y0194637D01*
X0144722Y0195171D01*
X0144980Y0195793D01*
X0145067Y0196461D01*
X0144980Y0197128D01*
X0144722Y0197750D01*
X0144312Y0198284D01*
X0143778Y0198694D01*
X0143156Y0198952D01*
X0142488Y0199040D01*
D02*
G37*
G36*
X0147146Y0185705D02*
X0145661D01*
Y0185303D01*
X0137091D01*
X0136614Y0185303D01*
X0136114Y0185303D01*
X0133425D01*
Y0183041D01*
X0133404Y0183001D01*
X0133398Y0182947D01*
X0133359Y0182923D01*
X0133270Y0182887D01*
X0133133Y0182851D01*
X0132951Y0182820D01*
X0132726Y0182800D01*
X0132444Y0182793D01*
X0132395Y0182771D01*
X0130461D01*
X0129920Y0182664D01*
X0129462Y0182357D01*
X0128103Y0180999D01*
X0127797Y0180541D01*
X0127689Y0180000D01*
Y0179838D01*
X0127667Y0179788D01*
X0127660Y0179507D01*
X0127640Y0179281D01*
X0127610Y0179099D01*
X0127574Y0178962D01*
X0127537Y0178873D01*
X0127514Y0178835D01*
X0127459Y0178829D01*
X0127419Y0178807D01*
X0125157D01*
Y0175642D01*
Y0172870D01*
X0124756D01*
Y0171386D01*
X0129102D01*
X0133449D01*
Y0172870D01*
X0133047D01*
Y0177119D01*
X0133425Y0177413D01*
X0136114D01*
X0136591Y0177413D01*
X0137091Y0177413D01*
X0145661D01*
Y0177012D01*
X0147146D01*
Y0181358D01*
Y0185705D01*
D02*
G37*
G36*
X0161681Y0173677D02*
X0158228D01*
Y0170224D01*
X0161681D01*
Y0173677D01*
D02*
G37*
G36*
X0144858Y0173708D02*
X0142996D01*
Y0170224D01*
X0146480D01*
Y0172087D01*
X0146356Y0172707D01*
X0146005Y0173233D01*
X0145479Y0173585D01*
X0144858Y0173708D01*
D02*
G37*
G36*
X0141996D02*
X0140134D01*
X0139513Y0173585D01*
X0138987Y0173233D01*
X0138636Y0172707D01*
X0138512Y0172087D01*
Y0170224D01*
X0141996D01*
Y0173708D01*
D02*
G37*
G36*
X0156291Y0173677D02*
X0152839D01*
Y0170224D01*
X0156291D01*
Y0173677D01*
D02*
G37*
G36*
X0151839D02*
X0148386D01*
Y0170224D01*
X0151839D01*
Y0173677D01*
D02*
G37*
G36*
X0133449Y0170386D02*
X0129102D01*
X0124756D01*
Y0169694D01*
X0124256Y0169284D01*
X0124221Y0169291D01*
X0123603Y0169168D01*
X0123079Y0168818D01*
X0122730Y0168295D01*
X0122607Y0167677D01*
X0122730Y0167060D01*
X0123079Y0166536D01*
X0123279Y0166403D01*
Y0165802D01*
X0123079Y0165669D01*
X0122730Y0165145D01*
X0122607Y0164528D01*
X0122730Y0163910D01*
X0123079Y0163386D01*
X0123220Y0163293D01*
Y0162691D01*
X0123079Y0162598D01*
X0122730Y0162074D01*
X0122607Y0161457D01*
X0122730Y0160839D01*
X0123079Y0160316D01*
X0123603Y0159966D01*
X0124221Y0159843D01*
X0124369Y0159873D01*
X0124756Y0159555D01*
Y0158827D01*
X0129102D01*
X0133449D01*
Y0160311D01*
X0133047D01*
Y0163004D01*
Y0166154D01*
Y0168902D01*
X0133449D01*
Y0170386D01*
D02*
G37*
G36*
X0166134Y0169224D02*
X0162681D01*
Y0165772D01*
X0166134D01*
Y0169224D01*
D02*
G37*
G36*
X0161681D02*
X0158228D01*
Y0165772D01*
X0161681D01*
Y0169224D01*
D02*
G37*
G36*
X0156291Y0169224D02*
X0152839D01*
Y0165772D01*
X0156291D01*
Y0169224D01*
D02*
G37*
G36*
X0151839D02*
X0148386D01*
Y0165772D01*
X0151839D01*
Y0169224D01*
D02*
G37*
G36*
X0146480Y0169224D02*
X0142996D01*
Y0165741D01*
X0144858D01*
X0145479Y0165864D01*
X0146005Y0166216D01*
X0146356Y0166742D01*
X0146480Y0167362D01*
Y0169224D01*
D02*
G37*
G36*
X0141996D02*
X0138512D01*
Y0167362D01*
X0138636Y0166742D01*
X0138987Y0166216D01*
X0139513Y0165864D01*
X0140134Y0165741D01*
X0141996D01*
Y0169224D01*
D02*
G37*
G36*
X0166134Y0163835D02*
X0162681D01*
Y0160382D01*
X0166134D01*
Y0163835D01*
D02*
G37*
G36*
X0161681D02*
X0158228D01*
Y0160382D01*
X0161681D01*
Y0163835D01*
D02*
G37*
G36*
X0156291D02*
X0152839D01*
Y0160382D01*
X0156291D01*
Y0163835D01*
D02*
G37*
G36*
X0151839D02*
X0148386D01*
Y0160382D01*
X0151839D01*
Y0163835D01*
D02*
G37*
G36*
X0146449D02*
X0142996D01*
Y0160382D01*
X0146449D01*
Y0163835D01*
D02*
G37*
G36*
X0141996D02*
X0138543D01*
Y0160382D01*
X0141996D01*
Y0163835D01*
D02*
G37*
G36*
X0184945Y0160248D02*
X0183185D01*
Y0158567D01*
X0184945D01*
Y0160248D01*
D02*
G37*
G36*
X0182185D02*
X0180425D01*
Y0158567D01*
X0182185D01*
Y0160248D01*
D02*
G37*
G36*
X0166134Y0159382D02*
X0162681D01*
Y0155929D01*
X0166134D01*
Y0159382D01*
D02*
G37*
G36*
X0161681D02*
X0158228D01*
Y0155929D01*
X0161681D01*
Y0159382D01*
D02*
G37*
G36*
X0156291D02*
X0152839D01*
Y0155929D01*
X0156291D01*
Y0159382D01*
D02*
G37*
G36*
X0151839D02*
X0148386D01*
Y0155929D01*
X0151839D01*
Y0159382D01*
D02*
G37*
G36*
X0146449D02*
X0142996D01*
Y0155929D01*
X0146449D01*
Y0159382D01*
D02*
G37*
G36*
X0141996D02*
X0138543D01*
Y0155929D01*
X0141996D01*
Y0159382D01*
D02*
G37*
G36*
X0166134Y0153992D02*
X0162681D01*
Y0150539D01*
X0166134D01*
Y0153992D01*
D02*
G37*
G36*
X0161681D02*
X0158228D01*
Y0150539D01*
X0161681D01*
Y0153992D01*
D02*
G37*
G36*
X0156291D02*
X0152839D01*
Y0150539D01*
X0156291D01*
Y0153992D01*
D02*
G37*
G36*
X0151839D02*
X0148386D01*
Y0150539D01*
X0151839D01*
Y0153992D01*
D02*
G37*
G36*
X0146350D02*
X0142898D01*
Y0150539D01*
X0146350D01*
Y0153992D01*
D02*
G37*
G36*
X0141898D02*
X0138445D01*
Y0150539D01*
X0141898D01*
Y0153992D01*
D02*
G37*
G36*
X0156291Y0149539D02*
X0152839D01*
Y0146087D01*
X0156291D01*
Y0149539D01*
D02*
G37*
G36*
X0151839D02*
X0148386D01*
Y0146087D01*
X0151839D01*
Y0149539D01*
D02*
G37*
G36*
X0146350D02*
X0142898D01*
Y0146087D01*
X0146350D01*
Y0149539D01*
D02*
G37*
G36*
X0141898D02*
X0138445D01*
Y0146087D01*
X0141898D01*
Y0149539D01*
D02*
G37*
G36*
X0179913Y0142059D02*
X0176067D01*
Y0140575D01*
X0179913D01*
Y0142059D01*
D02*
G37*
%LPD*%
G36*
X0134048Y0179783D02*
X0134032Y0179933D01*
X0133984Y0180067D01*
X0133905Y0180185D01*
X0133794Y0180287D01*
X0133651Y0180374D01*
X0133476Y0180445D01*
X0133270Y0180500D01*
X0133032Y0180539D01*
X0132762Y0180563D01*
X0132461Y0180571D01*
Y0182146D01*
X0132762Y0182153D01*
X0133032Y0182177D01*
X0133270Y0182217D01*
X0133476Y0182272D01*
X0133651Y0182343D01*
X0133794Y0182429D01*
X0133905Y0182531D01*
X0133984Y0182650D01*
X0134032Y0182783D01*
X0134048Y0182933D01*
Y0179783D01*
D02*
G37*
G36*
X0129898Y0179470D02*
X0129921Y0179200D01*
X0129961Y0178962D01*
X0130016Y0178756D01*
X0130087Y0178581D01*
X0130173Y0178439D01*
X0130276Y0178328D01*
X0130394Y0178248D01*
X0130527Y0178200D01*
X0130677Y0178185D01*
X0127528D01*
X0127677Y0178200D01*
X0127811Y0178248D01*
X0127929Y0178328D01*
X0128032Y0178439D01*
X0128118Y0178581D01*
X0128189Y0178756D01*
X0128244Y0178962D01*
X0128284Y0179200D01*
X0128307Y0179470D01*
X0128315Y0179771D01*
X0129890D01*
X0129898Y0179470D01*
D02*
G37*
G36*
X0125768Y0166764D02*
X0125753Y0166799D01*
X0125708Y0166831D01*
X0125634Y0166858D01*
X0125530Y0166882D01*
X0125396Y0166903D01*
X0125039Y0166932D01*
X0124279Y0166949D01*
Y0168524D01*
X0124562Y0168526D01*
X0125530Y0168590D01*
X0125634Y0168614D01*
X0125708Y0168642D01*
X0125753Y0168673D01*
X0125768Y0168709D01*
Y0166764D01*
D02*
G37*
G36*
X0129898Y0166832D02*
X0129903Y0166776D01*
X0130677D01*
X0130527Y0166760D01*
X0130394Y0166712D01*
X0130276Y0166633D01*
X0130173Y0166522D01*
X0130087Y0166379D01*
X0130016Y0166205D01*
X0130004Y0166161D01*
X0130016Y0166118D01*
X0130087Y0165944D01*
X0130173Y0165801D01*
X0130276Y0165690D01*
X0130394Y0165610D01*
X0130527Y0165563D01*
X0130677Y0165547D01*
X0129903D01*
X0129898Y0165491D01*
X0129890Y0165189D01*
X0128315D01*
X0128307Y0165491D01*
X0128302Y0165547D01*
X0127528D01*
X0127677Y0165563D01*
X0127811Y0165610D01*
X0127929Y0165690D01*
X0128032Y0165801D01*
X0128118Y0165944D01*
X0128189Y0166118D01*
X0128200Y0166161D01*
X0128189Y0166205D01*
X0128118Y0166379D01*
X0128032Y0166522D01*
X0127929Y0166633D01*
X0127811Y0166712D01*
X0127677Y0166760D01*
X0127528Y0166776D01*
X0128302D01*
X0128307Y0166832D01*
X0128315Y0167134D01*
X0129890D01*
X0129898Y0166832D01*
D02*
G37*
G36*
X0125768Y0163614D02*
X0125752Y0163638D01*
X0125706Y0163660D01*
X0125629Y0163679D01*
X0125520Y0163695D01*
X0125211Y0163720D01*
X0124514Y0163739D01*
X0124221Y0163740D01*
Y0165315D01*
X0124514Y0165317D01*
X0125381Y0165376D01*
X0125520Y0165403D01*
X0125629Y0165435D01*
X0125706Y0165471D01*
X0125752Y0165513D01*
X0125768Y0165559D01*
Y0163614D01*
D02*
G37*
G36*
X0129898Y0163683D02*
X0129903Y0163626D01*
X0130677D01*
X0130527Y0163610D01*
X0130394Y0163563D01*
X0130276Y0163484D01*
X0130173Y0163373D01*
X0130087Y0163230D01*
X0130016Y0163055D01*
X0130004Y0163012D01*
X0130016Y0162969D01*
X0130087Y0162794D01*
X0130173Y0162651D01*
X0130276Y0162540D01*
X0130394Y0162461D01*
X0130527Y0162413D01*
X0130677Y0162397D01*
X0129903D01*
X0129898Y0162341D01*
X0129890Y0162040D01*
X0128315D01*
X0128307Y0162341D01*
X0128302Y0162397D01*
X0127528D01*
X0127677Y0162413D01*
X0127811Y0162461D01*
X0127929Y0162540D01*
X0128032Y0162651D01*
X0128118Y0162794D01*
X0128189Y0162969D01*
X0128200Y0163012D01*
X0128189Y0163055D01*
X0128118Y0163230D01*
X0128032Y0163373D01*
X0127929Y0163484D01*
X0127811Y0163563D01*
X0127677Y0163610D01*
X0127528Y0163626D01*
X0128302D01*
X0128307Y0163683D01*
X0128315Y0163984D01*
X0129890D01*
X0129898Y0163683D01*
D02*
G37*
G36*
X0125768Y0160465D02*
X0125753Y0160500D01*
X0125707Y0160531D01*
X0125630Y0160559D01*
X0125523Y0160583D01*
X0125386Y0160603D01*
X0125019Y0160633D01*
X0124240Y0160650D01*
Y0162224D01*
X0124530Y0162226D01*
X0125523Y0162291D01*
X0125630Y0162315D01*
X0125707Y0162343D01*
X0125753Y0162374D01*
X0125768Y0162409D01*
Y0160465D01*
D02*
G37*
%LPC*%
G36*
X0144118Y0133520D02*
X0142437D01*
Y0131760D01*
X0144118D01*
Y0133520D01*
D02*
G37*
G36*
Y0130760D02*
X0142437D01*
Y0130024D01*
X0142937D01*
X0142842Y0130014D01*
X0142757Y0129983D01*
X0142682Y0129933D01*
X0142617Y0129862D01*
X0142562Y0129771D01*
X0142517Y0129660D01*
X0142482Y0129528D01*
X0142457Y0129376D01*
X0142442Y0129204D01*
X0142437Y0129012D01*
Y0129000D01*
X0144118D01*
Y0130760D01*
D02*
G37*
%LPD*%
D10*
X0184732Y0172008D02*
Y0174134D01*
X0183610Y0170886D02*
X0184732Y0172008D01*
X0174496Y0148713D02*
X0175976D01*
X0161819Y0149961D02*
X0163067Y0148713D01*
X0178079Y0142402D02*
X0184142D01*
X0142126Y0170165D02*
X0142724Y0169567D01*
X0141527Y0169567D02*
X0142126Y0170165D01*
X0128433Y0158425D02*
X0129969D01*
X0171601Y0142559D02*
X0175567D01*
X0171290Y0142870D02*
X0171601Y0142559D01*
X0170996Y0142870D02*
X0171290D01*
X0170520Y0143347D02*
X0170996Y0142870D01*
X0186307Y0147165D02*
X0186779D01*
X0157063Y0126567D02*
X0161031Y0122598D01*
X0157063Y0126567D02*
Y0138429D01*
X0161031Y0122598D02*
X0166340D01*
X0148630Y0198543D02*
X0153945Y0193228D01*
Y0181358D02*
Y0193228D01*
X0157095Y0181358D02*
Y0195590D01*
X0154339Y0198346D02*
X0157095Y0195590D01*
X0152173Y0198346D02*
X0154339D01*
X0147614Y0144031D02*
X0147638Y0144055D01*
X0147614Y0138425D02*
Y0144031D01*
X0163362Y0129953D02*
Y0138425D01*
Y0129953D02*
X0164575Y0128740D01*
X0166465Y0176170D02*
Y0181319D01*
X0164980Y0174685D02*
X0166465Y0176170D01*
X0185036Y0148436D02*
X0186307Y0147165D01*
X0186779D02*
X0186819D01*
X0186543Y0146929D02*
X0186779Y0147165D01*
X0186268Y0144528D02*
X0186543D01*
Y0146929D01*
X0181504Y0149685D02*
X0185598D01*
X0180689Y0148870D02*
X0181504Y0149685D01*
X0185598Y0148998D02*
Y0149685D01*
X0185036Y0148436D02*
X0185598Y0148998D01*
X0175567Y0148870D02*
X0180689D01*
X0184339Y0142598D02*
X0186268Y0144528D01*
X0184142Y0142402D02*
X0184339Y0142598D01*
X0175559Y0183071D02*
X0182803Y0190315D01*
X0175559Y0177224D02*
Y0183071D01*
X0166465Y0181319D02*
X0166504Y0181358D01*
X0136189Y0129291D02*
X0138157Y0131260D01*
X0121780Y0129291D02*
X0136189D01*
X0138157Y0138417D02*
X0138165Y0138425D01*
X0138157Y0131260D02*
Y0138417D01*
X0141937Y0127362D02*
X0141976Y0127323D01*
X0141937Y0127362D02*
Y0131260D01*
X0150764Y0129220D02*
Y0138425D01*
X0144457Y0122913D02*
X0150764Y0129220D01*
X0138926Y0122913D02*
X0144457D01*
X0135867Y0119854D02*
X0138926Y0122913D01*
X0160213Y0129638D02*
Y0138429D01*
Y0129638D02*
X0163906Y0125945D01*
X0170835D01*
X0174259Y0129369D01*
X0183092D01*
X0166340Y0122598D02*
X0169067Y0119872D01*
X0175559Y0170886D02*
X0183610D01*
X0192085Y0143416D02*
X0192340D01*
X0128177Y0158169D02*
X0128433Y0158425D01*
X0141898Y0131220D02*
X0141937Y0131260D01*
X0121780Y0129291D02*
X0121898Y0129173D01*
X0138157Y0131260D02*
X0138276Y0131378D01*
D12*
X0169850Y0138425D02*
Y0141181D01*
X0166898Y0144134D02*
X0169850Y0141181D01*
X0162528Y0144134D02*
X0166898D01*
X0118866Y0156772D02*
X0121189D01*
X0112252Y0163386D02*
X0118866Y0156772D01*
X0112252Y0163386D02*
Y0169409D01*
X0117449Y0174606D01*
Y0179252D01*
X0129693Y0191496D01*
Y0192559D01*
D18*
X0182685Y0164528D02*
D03*
Y0160748D02*
D03*
D19*
X0142496Y0169724D02*
D03*
D20*
X0152339Y0169724D02*
D03*
X0162181Y0169724D02*
D03*
X0142496Y0159882D02*
D03*
X0152339D02*
D03*
X0162181D02*
D03*
X0142398Y0150039D02*
D03*
X0152339D02*
D03*
X0162181D02*
D03*
D21*
X0138157Y0131260D02*
D03*
X0141937D02*
D03*
D31*
X0129102Y0177224D02*
D03*
Y0174075D02*
D03*
Y0170886D02*
D03*
Y0167736D02*
D03*
Y0164587D02*
D03*
Y0161437D02*
D03*
Y0158327D02*
D03*
Y0155138D02*
D03*
Y0151988D02*
D03*
Y0148878D02*
D03*
Y0145689D02*
D03*
Y0142579D02*
D03*
X0175567Y0142559D02*
D03*
Y0145713D02*
D03*
X0175567Y0148870D02*
D03*
X0175567Y0152008D02*
D03*
X0175567Y0155157D02*
D03*
X0175567Y0158307D02*
D03*
X0175559Y0161437D02*
D03*
Y0164626D02*
D03*
Y0167776D02*
D03*
Y0170886D02*
D03*
Y0174075D02*
D03*
Y0177224D02*
D03*
D32*
X0135008Y0138425D02*
D03*
X0138165D02*
D03*
X0141315D02*
D03*
X0144465Y0138425D02*
D03*
X0147614Y0138425D02*
D03*
X0150764Y0138425D02*
D03*
X0153913D02*
D03*
X0157063Y0138429D02*
D03*
X0160213Y0138429D02*
D03*
X0163362Y0138425D02*
D03*
X0166539D02*
D03*
X0169850Y0138425D02*
D03*
X0169693Y0181358D02*
D03*
X0166504D02*
D03*
X0163394D02*
D03*
X0160244D02*
D03*
X0157095D02*
D03*
X0153945D02*
D03*
X0150795D02*
D03*
X0147646D02*
D03*
X0144496D02*
D03*
X0141347D02*
D03*
X0138197D02*
D03*
X0135008D02*
D03*
D33*
X0175618Y0164567D02*
X0182843D01*
X0182685Y0164528D02*
X0191240D01*
X0195768Y0160000D01*
X0124221Y0161457D02*
X0124240Y0161437D01*
X0129102D01*
X0124221Y0167677D02*
X0124279Y0167736D01*
X0129102D01*
X0129043Y0164528D02*
X0129102Y0164587D01*
X0124221Y0164528D02*
X0129043D01*
X0129102Y0161437D02*
Y0164587D01*
Y0167736D01*
Y0164587D02*
X0129142Y0164626D01*
X0129102Y0177224D02*
Y0180000D01*
X0130461Y0181358D01*
X0135008D01*
X0175559Y0164626D02*
X0175618Y0164567D01*
X0175567Y0145713D02*
X0175602Y0145748D01*
D34*
X0181989Y0176351D02*
X0192328D01*
X0153913Y0126347D02*
Y0138425D01*
X0152488Y0124921D02*
X0153913Y0126347D01*
X0152488Y0116693D02*
Y0124921D01*
X0158905Y0188661D02*
X0160244Y0187323D01*
X0158905Y0188661D02*
Y0196890D01*
X0152488Y0203307D02*
X0158905Y0196890D01*
X0169535Y0166233D02*
X0171078Y0167776D01*
X0175559D01*
X0166338Y0189794D02*
Y0197244D01*
X0163394Y0186850D02*
X0166338Y0189794D01*
X0148453Y0190807D02*
X0150795Y0188465D01*
X0148453Y0190807D02*
X0148453Y0190807D01*
X0144593D02*
X0148453D01*
X0143792Y0191608D02*
X0144593Y0190807D01*
X0141184Y0191608D02*
X0143792D01*
X0140384Y0190807D02*
X0141184Y0191608D01*
X0138315Y0190807D02*
X0140384D01*
X0175559Y0174075D02*
X0179713D01*
X0181989Y0176351D01*
X0150795Y0181358D02*
Y0188465D01*
X0160244Y0181358D02*
Y0187323D01*
X0163394Y0181358D02*
Y0186850D01*
X0166338Y0197244D02*
X0169021Y0199928D01*
D35*
X0179890Y0145748D02*
X0183728D01*
D36*
X0198315Y0152520D02*
D03*
X0197252Y0148150D02*
D03*
X0136728Y0203413D02*
D03*
X0132902Y0201760D02*
D03*
X0129051Y0199752D02*
D03*
X0128736Y0120236D02*
D03*
X0125087Y0122598D02*
D03*
D37*
X0192340Y0143416D02*
D03*
X0122173Y0190315D02*
D03*
X0112685Y0176440D02*
D03*
X0109181Y0160000D02*
D03*
X0112554Y0143386D02*
D03*
X0121780Y0129291D02*
D03*
X0135867Y0119854D02*
D03*
X0152488Y0116693D02*
D03*
X0169067Y0119872D02*
D03*
X0183092Y0129369D02*
D03*
X0195768Y0160000D02*
D03*
X0192328Y0176351D02*
D03*
X0182803Y0190315D02*
D03*
X0169021Y0199928D02*
D03*
X0152488Y0203307D02*
D03*
D38*
X0142488Y0188461D02*
D03*
Y0196461D02*
D03*
X0162488Y0192461D02*
D03*
D39*
X0184732Y0174134D02*
D03*
X0183630Y0151260D02*
D03*
X0121150Y0168661D02*
D03*
X0120992Y0162165D02*
D03*
X0188976Y0159449D02*
D03*
X0191929Y0153543D02*
D03*
X0186024D02*
D03*
X0183071Y0135827D02*
D03*
X0177165D02*
D03*
X0168307Y0129921D02*
D03*
X0135827Y0147638D02*
D03*
X0124016D02*
D03*
Y0135827D02*
D03*
X0121063Y0177165D02*
D03*
Y0165354D02*
D03*
Y0153543D02*
D03*
X0115157Y0165354D02*
D03*
Y0153543D02*
D03*
X0162528Y0144134D02*
D03*
X0179260Y0139449D02*
D03*
X0121189Y0156772D02*
D03*
X0129693Y0192559D02*
D03*
X0172724Y0185630D02*
D03*
X0177528Y0188976D02*
D03*
X0174850Y0191063D02*
D03*
X0172055D02*
D03*
X0174811Y0194016D02*
D03*
X0172173Y0194095D02*
D03*
X0169021D02*
D03*
X0169024Y0190905D02*
D03*
X0169535Y0166233D02*
D03*
X0147638Y0144055D02*
D03*
X0186024Y0153543D02*
D03*
X0124016Y0147638D02*
D03*
Y0135827D02*
D03*
X0121063Y0177165D02*
D03*
Y0165354D02*
D03*
Y0153543D02*
D03*
X0115157Y0165354D02*
D03*
Y0153543D02*
D03*
X0127724Y0183780D02*
D03*
X0133984Y0196069D02*
D03*
X0145953Y0197835D02*
D03*
X0150008Y0192677D02*
D03*
X0138315Y0190807D02*
D03*
X0137921Y0197047D02*
D03*
X0148630Y0198543D02*
D03*
X0141268Y0144449D02*
D03*
X0136114Y0158937D02*
D03*
X0140827Y0175079D02*
D03*
X0150756Y0175462D02*
D03*
X0155480Y0175472D02*
D03*
X0169142Y0173189D02*
D03*
X0169102Y0175764D02*
D03*
X0164980Y0174685D02*
D03*
X0186819Y0147165D02*
D03*
X0186543Y0144528D02*
D03*
X0185598Y0149685D02*
D03*
X0147488Y0186575D02*
D03*
X0183728Y0145748D02*
D03*
X0131740Y0189291D02*
D03*
X0164575Y0128740D02*
D03*
X0180647Y0155512D02*
D03*
X0180598Y0152657D02*
D03*
X0124221Y0161457D02*
D03*
Y0167677D02*
D03*
Y0164528D02*
D03*
X0134614Y0133150D02*
D03*
X0131819Y0134921D02*
D03*
X0141976Y0127323D02*
D03*
X0181150Y0142441D02*
D03*
X0184339Y0142598D02*
D03*
X0138906Y0186575D02*
D03*
X0129496Y0186378D02*
D03*
X0152173Y0198346D02*
D03*
M02*
