G04*
G04 #@! TF.GenerationSoftware,Altium Limited,Altium Designer,19.1.5 (86)*
G04*
G04 Layer_Color=65535*
%FSAX25Y25*%
%MOIN*%
G70*
G01*
G75*
%ADD10C,0.01000*%
%ADD11C,0.00394*%
%ADD12C,0.00787*%
%ADD13C,0.00591*%
D10*
X0125992Y0181476D02*
G03*
X0125992Y0181476I-0000905J0000000D01*
G01*
D11*
X0180618Y0158799D02*
X0184752D01*
Y0166476D01*
X0180618D02*
X0184752D01*
X0180618Y0158799D02*
Y0166476D01*
X0143886Y0129193D02*
Y0133327D01*
X0136209D02*
X0143886D01*
X0136209Y0129193D02*
Y0133327D01*
Y0129193D02*
X0143886D01*
D12*
X0127488Y0136791D02*
X0127646Y0136634D01*
X0127488Y0136791D02*
Y0140768D01*
X0127646Y0136634D02*
X0133158D01*
X0171583Y0136713D02*
X0176898D01*
X0176976Y0136791D01*
Y0140728D01*
X0177016Y0179035D02*
Y0182618D01*
X0176898Y0182736D02*
X0177016Y0182618D01*
X0171504Y0182736D02*
X0176898D01*
X0127488Y0182776D02*
X0133158D01*
X0127449Y0182736D02*
X0127488Y0182776D01*
X0127449Y0179035D02*
Y0182736D01*
D13*
X0188380Y0162940D02*
X0188905Y0163465D01*
Y0164515D01*
X0188380Y0165039D01*
X0186281D01*
X0185756Y0164515D01*
Y0163465D01*
X0186281Y0162940D01*
X0185756Y0161891D02*
Y0160841D01*
Y0161366D01*
X0188905D01*
X0188380Y0161891D01*
X0146871Y0132191D02*
X0146346Y0132715D01*
X0145296D01*
X0144772Y0132191D01*
Y0130092D01*
X0145296Y0129567D01*
X0146346D01*
X0146871Y0130092D01*
X0147920D02*
X0148445Y0129567D01*
X0149495D01*
X0150019Y0130092D01*
Y0132191D01*
X0149495Y0132715D01*
X0148445D01*
X0147920Y0132191D01*
Y0131666D01*
X0148445Y0131141D01*
X0150019D01*
X0128008Y0187322D02*
Y0184698D01*
X0128533Y0184173D01*
X0129582D01*
X0130107Y0184698D01*
Y0187322D01*
X0131157Y0184173D02*
X0132206D01*
X0131681D01*
Y0187322D01*
X0131157Y0186797D01*
M02*
