G04*
G04 #@! TF.GenerationSoftware,Altium Limited,Altium Designer,19.1.5 (86)*
G04*
G04 Layer_Physical_Order=2*
G04 Layer_Color=16711680*
%FSAX25Y25*%
%MOIN*%
G70*
G01*
G75*
%ADD10C,0.01000*%
%ADD12C,0.00787*%
%ADD18R,0.02520X0.02362*%
%ADD21R,0.02362X0.02520*%
%ADD33C,0.01575*%
%ADD34C,0.01181*%
%ADD35C,0.02953*%
%ADD36C,0.00984*%
%ADD37C,0.05906*%
%ADD38C,0.03543*%
%ADD39C,0.01968*%
%ADD40R,0.03150X0.03150*%
%ADD41R,0.01968X0.02362*%
%ADD42R,0.08661X0.04134*%
%ADD43R,0.03937X0.03937*%
%ADD44R,0.02362X0.01968*%
%ADD45R,0.01890X0.03740*%
%ADD46C,0.03110*%
%ADD47C,0.01968*%
G36*
X0156175Y0202144D02*
X0159834Y0201662D01*
X0163438Y0200864D01*
X0165478Y0200220D01*
X0165440Y0199928D01*
X0165562Y0199001D01*
X0165919Y0198137D01*
X0166489Y0197395D01*
X0167230Y0196826D01*
X0168094Y0196468D01*
X0169021Y0196346D01*
X0169948Y0196468D01*
X0170812Y0196826D01*
X0171554Y0197395D01*
X0171734Y0197630D01*
X0173641Y0196637D01*
X0176753Y0194654D01*
X0179449Y0192586D01*
X0179701Y0192106D01*
X0179343Y0191242D01*
X0179221Y0190315D01*
X0179343Y0189388D01*
X0179701Y0188524D01*
X0180270Y0187782D01*
X0181012Y0187213D01*
X0181876Y0186855D01*
X0182803Y0186733D01*
X0183730Y0186855D01*
X0184594Y0187213D01*
X0185074Y0186960D01*
X0187143Y0184265D01*
X0189126Y0181153D01*
X0190161Y0179164D01*
X0189795Y0178884D01*
X0189226Y0178142D01*
X0188868Y0177278D01*
X0188746Y0176351D01*
X0188868Y0175424D01*
X0188966Y0175187D01*
X0188542Y0174904D01*
X0183400Y0180046D01*
X0183072Y0180265D01*
X0182685Y0180342D01*
X0179009D01*
X0177240Y0182112D01*
Y0186102D01*
X0177163Y0186489D01*
X0176944Y0186818D01*
X0175211Y0188550D01*
X0174883Y0188769D01*
X0174496Y0188846D01*
X0162395D01*
X0161770Y0189472D01*
X0162003Y0189945D01*
X0162488Y0189882D01*
X0163156Y0189969D01*
X0163778Y0190227D01*
X0164312Y0190637D01*
X0164722Y0191171D01*
X0164980Y0191793D01*
X0165067Y0192461D01*
X0164980Y0193128D01*
X0164722Y0193750D01*
X0164312Y0194284D01*
X0163778Y0194694D01*
X0163156Y0194952D01*
X0162488Y0195040D01*
X0161821Y0194952D01*
X0161199Y0194694D01*
X0160664Y0194284D01*
X0160255Y0193750D01*
X0159997Y0193128D01*
X0159909Y0192461D01*
X0159997Y0191793D01*
X0160151Y0191422D01*
X0159971Y0191125D01*
X0159867Y0191051D01*
X0159364Y0191113D01*
X0159311Y0191148D01*
X0159287Y0191206D01*
X0159230Y0191230D01*
X0159041Y0191513D01*
X0158328Y0191989D01*
X0157488Y0192156D01*
X0156648Y0191989D01*
X0155936Y0191513D01*
X0155460Y0190801D01*
X0155292Y0189961D01*
X0155329Y0189777D01*
X0155147Y0189549D01*
X0154890Y0189419D01*
X0154715Y0189515D01*
X0154696Y0189581D01*
X0154685Y0189644D01*
X0154681Y0189706D01*
X0154685Y0189802D01*
X0154680Y0189814D01*
X0154685Y0189826D01*
X0154666Y0189872D01*
X0154684Y0189961D01*
X0154517Y0190801D01*
X0154041Y0191513D01*
X0153329Y0191989D01*
X0152488Y0192156D01*
X0151648Y0191989D01*
X0150936Y0191513D01*
X0150460Y0190801D01*
X0150293Y0189961D01*
X0150460Y0189120D01*
X0150936Y0188408D01*
X0151648Y0187932D01*
X0152488Y0187765D01*
X0152577Y0187783D01*
X0152623Y0187764D01*
X0152635Y0187768D01*
X0152647Y0187764D01*
X0152743Y0187768D01*
X0152805Y0187763D01*
X0152868Y0187752D01*
X0152934Y0187734D01*
X0153003Y0187708D01*
X0153078Y0187671D01*
X0153157Y0187623D01*
X0153242Y0187562D01*
X0153332Y0187488D01*
X0153439Y0187387D01*
X0153501Y0187363D01*
X0155358Y0185507D01*
X0155721Y0185265D01*
X0156150Y0185179D01*
X0159387D01*
X0164885Y0179681D01*
X0165249Y0179438D01*
X0165538Y0179380D01*
X0165665Y0179325D01*
X0165804Y0179322D01*
X0165866Y0179318D01*
Y0178890D01*
X0167009D01*
X0167023Y0178878D01*
X0167072Y0178884D01*
X0167114Y0178859D01*
X0167234Y0178890D01*
X0167479D01*
X0167561Y0178843D01*
X0167673Y0178766D01*
X0167988Y0178501D01*
X0168168Y0178327D01*
X0168233Y0178301D01*
X0168665Y0177869D01*
X0169028Y0177627D01*
X0169457Y0177541D01*
X0169768D01*
X0169830Y0177514D01*
X0170002Y0177509D01*
X0170130Y0177498D01*
X0170227Y0177482D01*
X0170236Y0177480D01*
Y0176882D01*
X0170975D01*
Y0176575D01*
X0171060Y0176146D01*
X0171303Y0175783D01*
X0172680Y0174405D01*
X0172799Y0174326D01*
X0173783Y0173342D01*
X0174146Y0173099D01*
X0174575Y0173014D01*
X0183577D01*
X0183591Y0172993D01*
X0184115Y0172643D01*
X0184203Y0172626D01*
X0184153Y0172125D01*
X0166149D01*
X0165559Y0172716D01*
X0165711Y0173270D01*
X0166121Y0173544D01*
X0166470Y0174067D01*
X0166593Y0174685D01*
X0166470Y0175303D01*
X0166121Y0175826D01*
X0165597Y0176176D01*
X0164980Y0176299D01*
X0164689Y0176241D01*
X0164688Y0176242D01*
X0164667Y0176248D01*
X0164657Y0176253D01*
X0164639Y0176265D01*
X0164539Y0176346D01*
X0164481Y0176401D01*
X0164418Y0176426D01*
X0159107Y0181737D01*
X0158744Y0181980D01*
X0158315Y0182065D01*
X0125275D01*
X0123293Y0184047D01*
Y0186935D01*
X0123964Y0187213D01*
X0124706Y0187782D01*
X0125275Y0188524D01*
X0125633Y0189388D01*
X0125755Y0190315D01*
X0125633Y0191242D01*
X0125275Y0192106D01*
X0125528Y0192586D01*
X0128223Y0194654D01*
X0131336Y0196637D01*
X0134609Y0198342D01*
X0138019Y0199754D01*
X0141539Y0200864D01*
X0145142Y0201662D01*
X0148801Y0202144D01*
X0149120Y0202158D01*
X0149386Y0201516D01*
X0149955Y0200774D01*
X0150697Y0200205D01*
X0151012Y0200075D01*
X0151067Y0199511D01*
X0151032Y0199487D01*
X0150682Y0198964D01*
X0150676Y0198932D01*
X0150166D01*
X0150121Y0199161D01*
X0149771Y0199684D01*
X0149248Y0200034D01*
X0148630Y0200157D01*
X0148012Y0200034D01*
X0147489Y0199684D01*
X0147139Y0199161D01*
X0147016Y0198543D01*
X0147139Y0197926D01*
X0147333Y0197635D01*
X0147132Y0197085D01*
X0146648Y0196989D01*
X0145936Y0196513D01*
X0145460Y0195801D01*
X0144999Y0195943D01*
X0145067Y0196461D01*
X0144980Y0197128D01*
X0144722Y0197750D01*
X0144312Y0198284D01*
X0143778Y0198694D01*
X0143156Y0198952D01*
X0142488Y0199040D01*
X0141821Y0198952D01*
X0141199Y0198694D01*
X0140665Y0198284D01*
X0140255Y0197750D01*
X0139997Y0197128D01*
X0139909Y0196461D01*
X0139997Y0195793D01*
X0140255Y0195171D01*
X0140404Y0194976D01*
X0140158Y0194476D01*
X0130638D01*
X0130251Y0194399D01*
X0129922Y0194180D01*
X0129922Y0194180D01*
X0129878Y0194136D01*
X0129693Y0194173D01*
X0129075Y0194050D01*
X0128552Y0193700D01*
X0128202Y0193177D01*
X0128079Y0192559D01*
X0128202Y0191941D01*
X0128552Y0191418D01*
X0129075Y0191068D01*
X0129693Y0190945D01*
X0130310Y0191068D01*
X0130834Y0191418D01*
X0131184Y0191941D01*
X0131286Y0192453D01*
X0136573D01*
X0136622Y0191953D01*
X0136493Y0191927D01*
X0136100Y0191665D01*
X0136020Y0191585D01*
X0135958Y0191560D01*
X0135785Y0191389D01*
X0135492Y0191114D01*
X0135273Y0190932D01*
X0135226Y0190898D01*
X0135210Y0190901D01*
X0135168Y0190874D01*
X0133661D01*
Y0187839D01*
X0133661Y0187709D01*
X0133348Y0187339D01*
X0133260D01*
Y0185854D01*
X0135441D01*
X0136601D01*
X0136598Y0186315D01*
X0136609Y0186220D01*
X0136639Y0186135D01*
X0136690Y0186060D01*
X0136761Y0185995D01*
X0136853Y0185940D01*
X0136964Y0185895D01*
X0137095Y0185860D01*
X0137129Y0185854D01*
X0137622D01*
Y0187339D01*
X0137534D01*
X0137221Y0187709D01*
X0137221Y0187839D01*
Y0189034D01*
X0137604Y0189294D01*
X0137729Y0189310D01*
X0138315Y0189194D01*
X0138933Y0189317D01*
X0139456Y0189666D01*
X0139806Y0190190D01*
X0139929Y0190807D01*
X0139806Y0191425D01*
X0139456Y0191948D01*
X0139449Y0191953D01*
X0139601Y0192453D01*
X0145403D01*
X0145572Y0191953D01*
X0145351Y0191783D01*
X0144941Y0191249D01*
X0144684Y0190628D01*
X0144681Y0190605D01*
X0144630Y0190561D01*
X0144151Y0190408D01*
X0143778Y0190694D01*
X0143156Y0190952D01*
X0142488Y0191040D01*
X0141821Y0190952D01*
X0141199Y0190694D01*
X0140665Y0190284D01*
X0140255Y0189750D01*
X0139997Y0189128D01*
X0139909Y0188461D01*
X0139997Y0187793D01*
X0140255Y0187171D01*
X0140665Y0186637D01*
X0141199Y0186227D01*
X0141821Y0185969D01*
X0142488Y0185881D01*
X0143156Y0185969D01*
X0143778Y0186227D01*
X0144312Y0186637D01*
X0144722Y0187171D01*
X0144980Y0187793D01*
X0144983Y0187818D01*
X0145032Y0187860D01*
X0145513Y0188014D01*
X0145885Y0187729D01*
X0146506Y0187471D01*
X0146667Y0187450D01*
X0146671Y0187561D01*
X0146668Y0187656D01*
X0146653Y0187815D01*
X0146628Y0187965D01*
X0146593Y0188107D01*
X0146548Y0188239D01*
X0146493Y0188363D01*
X0146428Y0188478D01*
X0146353Y0188584D01*
X0146268Y0188681D01*
X0146173Y0188770D01*
X0146673D01*
Y0189961D01*
X0147173D01*
Y0190461D01*
X0149685D01*
X0149663Y0190628D01*
X0149405Y0191249D01*
X0148996Y0191783D01*
X0148462Y0192192D01*
X0148044Y0192366D01*
X0148095Y0192886D01*
X0148328Y0192932D01*
X0149041Y0193408D01*
X0149517Y0194120D01*
X0149600Y0194536D01*
X0149973Y0194733D01*
X0150145Y0194749D01*
X0150315Y0194588D01*
X0150328Y0194532D01*
X0150338Y0194518D01*
X0150336Y0194501D01*
X0150400Y0194418D01*
X0150460Y0194120D01*
X0150936Y0193408D01*
X0151648Y0192932D01*
X0152488Y0192765D01*
X0153329Y0192932D01*
X0154041Y0193408D01*
X0154517Y0194120D01*
X0154684Y0194961D01*
X0154648Y0195144D01*
X0154830Y0195372D01*
X0155086Y0195502D01*
X0155262Y0195406D01*
X0155280Y0195341D01*
X0155291Y0195278D01*
X0155295Y0195215D01*
X0155292Y0195119D01*
X0155296Y0195107D01*
X0155291Y0195096D01*
X0155310Y0195050D01*
X0155292Y0194961D01*
X0155460Y0194120D01*
X0155936Y0193408D01*
X0156648Y0192932D01*
X0157488Y0192765D01*
X0158328Y0192932D01*
X0159041Y0193408D01*
X0159517Y0194120D01*
X0159684Y0194961D01*
X0159517Y0195801D01*
X0159041Y0196513D01*
X0158328Y0196989D01*
X0157488Y0197156D01*
X0157399Y0197139D01*
X0157353Y0197158D01*
X0157342Y0197153D01*
X0157330Y0197157D01*
X0157234Y0197154D01*
X0157171Y0197158D01*
X0157108Y0197169D01*
X0157043Y0197187D01*
X0156973Y0197214D01*
X0156898Y0197250D01*
X0156819Y0197299D01*
X0156734Y0197359D01*
X0156645Y0197433D01*
X0156538Y0197534D01*
X0156475Y0197558D01*
X0154894Y0199138D01*
X0154531Y0199381D01*
X0154102Y0199466D01*
X0153802D01*
X0153706Y0199952D01*
X0153708Y0199969D01*
X0154279Y0200205D01*
X0155021Y0200774D01*
X0155590Y0201516D01*
X0155856Y0202158D01*
X0156175Y0202144D01*
D02*
G37*
G36*
X0152917Y0199000D02*
X0152965Y0198967D01*
X0153020Y0198939D01*
X0153083Y0198915D01*
X0153153Y0198894D01*
X0153230Y0198877D01*
X0153314Y0198863D01*
X0153406Y0198854D01*
X0153612Y0198846D01*
Y0197846D01*
X0153505Y0197845D01*
X0153314Y0197829D01*
X0153230Y0197816D01*
X0153153Y0197799D01*
X0153083Y0197778D01*
X0153020Y0197754D01*
X0152965Y0197725D01*
X0152917Y0197693D01*
X0152876Y0197658D01*
Y0199035D01*
X0152917Y0199000D01*
D02*
G37*
G36*
X0149578Y0198256D02*
X0149579Y0198199D01*
X0149588Y0198140D01*
X0149607Y0198078D01*
X0149635Y0198013D01*
X0149672Y0197946D01*
X0149718Y0197877D01*
X0149774Y0197805D01*
X0149838Y0197731D01*
X0149911Y0197654D01*
X0149009Y0197142D01*
X0148932Y0197218D01*
X0148662Y0197451D01*
X0148605Y0197491D01*
X0148552Y0197525D01*
X0148503Y0197551D01*
X0148458Y0197570D01*
X0148417Y0197582D01*
X0149586Y0198311D01*
X0149578Y0198256D01*
D02*
G37*
G36*
X0156216Y0196947D02*
X0156339Y0196845D01*
X0156463Y0196757D01*
X0156587Y0196682D01*
X0156713Y0196620D01*
X0156839Y0196571D01*
X0156967Y0196536D01*
X0157095Y0196514D01*
X0157223Y0196505D01*
X0157353Y0196510D01*
X0155939Y0195096D01*
X0155944Y0195225D01*
X0155935Y0195354D01*
X0155913Y0195482D01*
X0155878Y0195609D01*
X0155829Y0195736D01*
X0155767Y0195861D01*
X0155692Y0195986D01*
X0155603Y0196110D01*
X0155501Y0196233D01*
X0155386Y0196355D01*
X0156093Y0197063D01*
X0156216Y0196947D01*
D02*
G37*
G36*
X0150866Y0196708D02*
X0150989Y0196608D01*
X0151111Y0196525D01*
X0151233Y0196459D01*
X0151353Y0196410D01*
X0151473Y0196378D01*
X0151592Y0196362D01*
X0151709Y0196364D01*
X0151826Y0196382D01*
X0151942Y0196417D01*
X0150960Y0194675D01*
X0150931Y0194801D01*
X0150893Y0194927D01*
X0150845Y0195053D01*
X0150788Y0195177D01*
X0150721Y0195301D01*
X0150645Y0195423D01*
X0150559Y0195545D01*
X0150464Y0195667D01*
X0150244Y0195907D01*
X0150741Y0196824D01*
X0150866Y0196708D01*
D02*
G37*
G36*
X0137375Y0190390D02*
X0137203Y0190215D01*
X0136727Y0189679D01*
X0136661Y0189585D01*
X0136616Y0189508D01*
X0136593Y0189446D01*
X0136591Y0189401D01*
X0136610Y0189373D01*
X0135326Y0190264D01*
X0135363Y0190253D01*
X0135417Y0190264D01*
X0135486Y0190295D01*
X0135571Y0190348D01*
X0135672Y0190421D01*
X0135921Y0190629D01*
X0136233Y0190921D01*
X0136413Y0191099D01*
X0137375Y0190390D01*
D02*
G37*
G36*
X0158880Y0190673D02*
X0158941Y0190606D01*
X0159012Y0190547D01*
X0159092Y0190496D01*
X0159183Y0190453D01*
X0159283Y0190417D01*
X0159392Y0190390D01*
X0159512Y0190370D01*
X0159641Y0190358D01*
X0159780Y0190354D01*
Y0189567D01*
X0159641Y0189563D01*
X0159512Y0189551D01*
X0159392Y0189532D01*
X0159283Y0189504D01*
X0159183Y0189469D01*
X0159092Y0189425D01*
X0159012Y0189374D01*
X0158941Y0189315D01*
X0158880Y0189248D01*
X0158829Y0189173D01*
Y0190748D01*
X0158880Y0190673D01*
D02*
G37*
G36*
X0154033Y0189696D02*
X0154041Y0189567D01*
X0154063Y0189439D01*
X0154099Y0189312D01*
X0154147Y0189185D01*
X0154209Y0189060D01*
X0154284Y0188935D01*
X0154373Y0188811D01*
X0154475Y0188688D01*
X0154590Y0188566D01*
X0153883Y0187859D01*
X0153761Y0187974D01*
X0153638Y0188076D01*
X0153514Y0188164D01*
X0153389Y0188240D01*
X0153263Y0188302D01*
X0153137Y0188350D01*
X0153010Y0188385D01*
X0152882Y0188407D01*
X0152753Y0188416D01*
X0152623Y0188411D01*
X0154037Y0189826D01*
X0154033Y0189696D01*
D02*
G37*
G36*
X0168043Y0186017D02*
X0168055Y0185881D01*
X0168075Y0185761D01*
X0168102Y0185658D01*
X0168138Y0185570D01*
X0168181Y0185498D01*
X0168232Y0185442D01*
X0168291Y0185402D01*
X0168358Y0185378D01*
X0168433Y0185370D01*
X0166858D01*
X0166933Y0185378D01*
X0167000Y0185402D01*
X0167059Y0185442D01*
X0167110Y0185498D01*
X0167154Y0185570D01*
X0167189Y0185658D01*
X0167217Y0185761D01*
X0167236Y0185881D01*
X0167248Y0186017D01*
X0167252Y0186169D01*
X0168039D01*
X0168043Y0186017D01*
D02*
G37*
G36*
X0166489Y0179673D02*
X0166481Y0179730D01*
X0166456Y0179781D01*
X0166416Y0179826D01*
X0166359Y0179865D01*
X0166286Y0179898D01*
X0166197Y0179924D01*
X0166091Y0179946D01*
X0165969Y0179961D01*
X0165831Y0179970D01*
X0165677Y0179973D01*
Y0180973D01*
X0165831Y0180975D01*
X0166091Y0180999D01*
X0166197Y0181020D01*
X0166286Y0181047D01*
X0166359Y0181080D01*
X0166416Y0181119D01*
X0166456Y0181164D01*
X0166481Y0181215D01*
X0166489Y0181272D01*
Y0179673D01*
D02*
G37*
G36*
X0168749Y0180649D02*
X0168714Y0180564D01*
X0168709Y0180463D01*
X0168735Y0180345D01*
X0168790Y0180212D01*
X0168876Y0180062D01*
X0168992Y0179897D01*
X0169138Y0179715D01*
X0169522Y0179303D01*
X0168618Y0178793D01*
X0168422Y0178982D01*
X0168066Y0179281D01*
X0167906Y0179392D01*
X0167759Y0179476D01*
X0167623Y0179533D01*
X0167500Y0179564D01*
X0167389Y0179569D01*
X0167290Y0179548D01*
X0167204Y0179500D01*
X0168815Y0180718D01*
X0168749Y0180649D01*
D02*
G37*
G36*
X0170859Y0177661D02*
X0170849Y0177756D01*
X0170818Y0177841D01*
X0170768Y0177916D01*
X0170697Y0177981D01*
X0170606Y0178036D01*
X0170494Y0178081D01*
X0170363Y0178116D01*
X0170211Y0178141D01*
X0170039Y0178156D01*
X0169847Y0178161D01*
Y0179161D01*
X0170039Y0179166D01*
X0170211Y0179181D01*
X0170363Y0179206D01*
X0170494Y0179241D01*
X0170606Y0179286D01*
X0170697Y0179341D01*
X0170768Y0179406D01*
X0170818Y0179481D01*
X0170849Y0179566D01*
X0170859Y0179661D01*
Y0177661D01*
D02*
G37*
G36*
X0175217Y0185683D02*
Y0181693D01*
X0175294Y0181306D01*
X0175513Y0180978D01*
X0177875Y0178615D01*
X0177875Y0178615D01*
X0178203Y0178396D01*
X0178591Y0178319D01*
X0178591Y0178319D01*
X0182266D01*
X0184395Y0176190D01*
X0184230Y0175648D01*
X0184115Y0175625D01*
X0183591Y0175275D01*
X0183577Y0175254D01*
X0175039D01*
X0174304Y0175989D01*
X0174185Y0176068D01*
X0173782Y0176471D01*
X0173953Y0176882D01*
X0173953D01*
Y0180260D01*
X0174354D01*
Y0181941D01*
X0172095D01*
Y0182441D01*
X0171595D01*
Y0183610D01*
X0171095D01*
X0171189Y0183620D01*
X0171274Y0183650D01*
X0171350Y0183700D01*
X0171414Y0183770D01*
X0171469Y0183860D01*
X0171514Y0183970D01*
X0171549Y0184100D01*
X0171574Y0184250D01*
X0171590Y0184420D01*
X0171595Y0184609D01*
Y0184622D01*
X0169835D01*
X0169425Y0184841D01*
Y0185992D01*
X0168696D01*
X0168690Y0186054D01*
X0168687Y0186186D01*
X0168657Y0186252D01*
Y0186823D01*
X0174077D01*
X0175217Y0185683D01*
D02*
G37*
G36*
X0131910Y0174752D02*
X0129917D01*
X0129919Y0174762D01*
X0129921Y0174792D01*
X0129928Y0175240D01*
X0129929Y0175748D01*
X0131898D01*
X0131910Y0174752D01*
D02*
G37*
G36*
X0164111Y0175860D02*
X0164257Y0175741D01*
X0164325Y0175696D01*
X0164392Y0175660D01*
X0164455Y0175634D01*
X0164516Y0175617D01*
X0164575Y0175610D01*
X0164631Y0175612D01*
X0164684Y0175624D01*
X0164035Y0174408D01*
X0164022Y0174442D01*
X0164003Y0174480D01*
X0163976Y0174523D01*
X0163942Y0174572D01*
X0163852Y0174683D01*
X0163734Y0174814D01*
X0163587Y0174966D01*
X0164034Y0175933D01*
X0164111Y0175860D01*
D02*
G37*
G36*
X0115640Y0175986D02*
X0115692Y0175225D01*
X0115741Y0174889D01*
X0115804Y0174581D01*
X0115883Y0174303D01*
X0115977Y0174054D01*
X0116086Y0173835D01*
X0116210Y0173644D01*
X0116349Y0173483D01*
X0115642Y0172776D01*
X0115480Y0172915D01*
X0115290Y0173039D01*
X0115070Y0173148D01*
X0114821Y0173242D01*
X0114543Y0173320D01*
X0114236Y0173384D01*
X0113899Y0173432D01*
X0113138Y0173484D01*
X0112714Y0173487D01*
X0115637Y0176410D01*
X0115640Y0175986D01*
D02*
G37*
G36*
X0132093Y0171610D02*
X0131961Y0171563D01*
X0131844Y0171484D01*
X0131744Y0171374D01*
X0131658Y0171232D01*
X0131589Y0171059D01*
X0131534Y0170854D01*
X0131496Y0170618D01*
X0131472Y0170351D01*
X0131470Y0170260D01*
X0131526Y0169571D01*
X0131560Y0169397D01*
X0131602Y0169256D01*
X0131652Y0169146D01*
X0131709Y0169067D01*
X0131774Y0169019D01*
X0131846Y0169004D01*
X0129508D01*
X0129581Y0169019D01*
X0129646Y0169067D01*
X0129703Y0169146D01*
X0129752Y0169256D01*
X0129794Y0169397D01*
X0129829Y0169571D01*
X0129855Y0169775D01*
X0129885Y0170255D01*
X0129882Y0170351D01*
X0129859Y0170618D01*
X0129820Y0170854D01*
X0129766Y0171059D01*
X0129696Y0171232D01*
X0129611Y0171374D01*
X0129510Y0171484D01*
X0129393Y0171563D01*
X0129262Y0171610D01*
X0129114Y0171626D01*
X0132240D01*
X0132093Y0171610D01*
D02*
G37*
G36*
X0131774Y0166492D02*
X0131709Y0166445D01*
X0131652Y0166366D01*
X0131602Y0166256D01*
X0131560Y0166114D01*
X0131526Y0165941D01*
X0131499Y0165736D01*
X0131486Y0165529D01*
X0131526Y0165043D01*
X0131560Y0164870D01*
X0131602Y0164728D01*
X0131652Y0164618D01*
X0131709Y0164539D01*
X0131774Y0164492D01*
X0131846Y0164476D01*
X0129508D01*
X0129581Y0164492D01*
X0129646Y0164539D01*
X0129703Y0164618D01*
X0129752Y0164728D01*
X0129794Y0164870D01*
X0129829Y0165043D01*
X0129855Y0165248D01*
X0129868Y0165455D01*
X0129829Y0165941D01*
X0129794Y0166114D01*
X0129752Y0166256D01*
X0129703Y0166366D01*
X0129646Y0166445D01*
X0129581Y0166492D01*
X0129508Y0166508D01*
X0131846D01*
X0131774Y0166492D01*
D02*
G37*
G36*
X0129520Y0161996D02*
X0129508Y0162080D01*
X0129470Y0162156D01*
X0129408Y0162223D01*
X0129321Y0162281D01*
X0129209Y0162330D01*
X0129072Y0162370D01*
X0128910Y0162401D01*
X0128724Y0162423D01*
X0128512Y0162436D01*
X0128276Y0162441D01*
Y0164016D01*
X0128512Y0164020D01*
X0128910Y0164056D01*
X0129072Y0164087D01*
X0129209Y0164127D01*
X0129321Y0164176D01*
X0129408Y0164234D01*
X0129470Y0164301D01*
X0129508Y0164376D01*
X0129520Y0164461D01*
Y0161996D01*
D02*
G37*
G36*
X0139387Y0132189D02*
X0139319Y0132254D01*
X0139235Y0132287D01*
X0139134Y0132291D01*
X0139017Y0132265D01*
X0138884Y0132208D01*
X0138734Y0132121D01*
X0138568Y0132003D01*
X0138386Y0131856D01*
X0137973Y0131470D01*
X0137462Y0132374D01*
X0137653Y0132572D01*
X0137955Y0132929D01*
X0138066Y0133089D01*
X0138151Y0133237D01*
X0138210Y0133372D01*
X0138242Y0133495D01*
X0138248Y0133605D01*
X0138228Y0133703D01*
X0138181Y0133788D01*
X0139387Y0132189D01*
D02*
G37*
G36*
X0121053Y0186935D02*
Y0183583D01*
X0121139Y0183154D01*
X0121381Y0182791D01*
X0124019Y0180153D01*
X0124382Y0179910D01*
X0124811Y0179825D01*
X0132113D01*
X0132264Y0179325D01*
X0132095Y0179212D01*
X0129772Y0176889D01*
X0129422Y0176366D01*
X0129317Y0175835D01*
X0129281Y0175749D01*
X0129281Y0175362D01*
X0128504D01*
Y0171757D01*
X0128470Y0171695D01*
X0128481Y0171660D01*
X0128467Y0171626D01*
X0128504Y0171536D01*
Y0171016D01*
X0128984D01*
X0129045Y0170982D01*
X0129094Y0170977D01*
X0129114Y0170943D01*
X0129150Y0170854D01*
X0129186Y0170719D01*
X0129216Y0170538D01*
X0129235Y0170314D01*
X0129236Y0170266D01*
X0129210Y0169837D01*
X0129189Y0169676D01*
X0129177Y0169614D01*
X0128898D01*
Y0169094D01*
X0128860Y0169004D01*
X0128888Y0168937D01*
X0128875Y0168866D01*
X0128898Y0168834D01*
Y0166678D01*
X0128875Y0166646D01*
X0128888Y0166575D01*
X0128860Y0166508D01*
X0128898Y0166418D01*
Y0165898D01*
X0128898D01*
X0129045Y0165527D01*
X0128751Y0165090D01*
X0128403Y0165099D01*
X0127975Y0165527D01*
X0127517Y0165833D01*
X0126976Y0165940D01*
X0125633D01*
Y0166943D01*
X0125711Y0167060D01*
X0125834Y0167677D01*
X0125711Y0168295D01*
X0125362Y0168818D01*
X0124838Y0169168D01*
X0124221Y0169291D01*
X0123603Y0169168D01*
X0123079Y0168818D01*
X0122730Y0168295D01*
X0122607Y0167677D01*
X0122730Y0167060D01*
X0122808Y0166943D01*
Y0165262D01*
X0122730Y0165145D01*
X0122607Y0164528D01*
X0122730Y0163910D01*
X0122808Y0163794D01*
Y0162191D01*
X0122730Y0162074D01*
X0122607Y0161457D01*
X0122730Y0160839D01*
X0123079Y0160316D01*
X0123603Y0159966D01*
X0124221Y0159843D01*
X0124838Y0159966D01*
X0125362Y0160316D01*
X0125711Y0160839D01*
X0125834Y0161457D01*
X0125711Y0162074D01*
X0125633Y0162191D01*
Y0163115D01*
X0126391D01*
X0127276Y0162229D01*
X0127277Y0162229D01*
X0127735Y0161923D01*
X0128160Y0161838D01*
X0128263Y0161793D01*
X0128486Y0161789D01*
X0128665Y0161778D01*
X0128811Y0161760D01*
X0128898Y0161744D01*
Y0161370D01*
X0129467D01*
X0129520Y0161348D01*
X0129566Y0161367D01*
X0129614Y0161355D01*
X0129639Y0161370D01*
X0132276D01*
Y0160968D01*
X0133957D01*
Y0163228D01*
X0134457D01*
Y0163728D01*
X0136638D01*
Y0165488D01*
X0136638D01*
Y0165496D01*
X0136638D01*
Y0167256D01*
X0134457D01*
Y0167756D01*
X0133957D01*
Y0170016D01*
X0132508D01*
X0132449Y0170061D01*
X0132132Y0170456D01*
X0132139Y0170538D01*
X0132168Y0170719D01*
X0132204Y0170854D01*
X0132240Y0170943D01*
X0132261Y0170977D01*
X0132309Y0170982D01*
X0132370Y0171016D01*
X0132850D01*
Y0171536D01*
X0132888Y0171626D01*
X0132874Y0171660D01*
X0132884Y0171695D01*
X0132850Y0171757D01*
Y0175362D01*
X0132850Y0175362D01*
X0132850D01*
X0133161Y0175714D01*
X0133905Y0176457D01*
X0157253D01*
X0164339Y0169371D01*
X0164863Y0169021D01*
X0165480Y0168898D01*
X0177394D01*
X0177687Y0168520D01*
X0177687Y0168398D01*
Y0166445D01*
X0180262D01*
X0182837D01*
Y0168398D01*
X0182837Y0168520D01*
X0183130Y0168898D01*
X0184587D01*
X0187259Y0166227D01*
X0192381Y0161104D01*
X0192308Y0160927D01*
X0192186Y0160000D01*
X0192308Y0159073D01*
X0192666Y0158209D01*
X0193235Y0157467D01*
X0193977Y0156898D01*
X0194646Y0156621D01*
X0194632Y0156313D01*
X0194151Y0152654D01*
X0193352Y0149051D01*
X0192242Y0145531D01*
X0190830Y0142121D01*
X0189126Y0138847D01*
X0187143Y0135735D01*
X0184896Y0132807D01*
X0184669Y0132559D01*
X0184019Y0132829D01*
X0183092Y0132951D01*
X0182165Y0132829D01*
X0181301Y0132471D01*
X0180559Y0131902D01*
X0179990Y0131160D01*
X0179632Y0130296D01*
X0179510Y0129369D01*
X0179632Y0128442D01*
X0179901Y0127793D01*
X0179682Y0127592D01*
X0176753Y0125346D01*
X0173641Y0123363D01*
X0171657Y0122330D01*
X0171599Y0122405D01*
X0170857Y0122974D01*
X0169993Y0123332D01*
X0169067Y0123454D01*
X0168140Y0123332D01*
X0167276Y0122974D01*
X0166534Y0122405D01*
X0165964Y0121663D01*
X0165607Y0120799D01*
X0165485Y0119872D01*
X0165496Y0119785D01*
X0163438Y0119136D01*
X0159834Y0118338D01*
X0156175Y0117856D01*
X0155856Y0117842D01*
X0155590Y0118484D01*
X0155021Y0119226D01*
X0154279Y0119795D01*
X0153415Y0120153D01*
X0152488Y0120275D01*
X0151561Y0120153D01*
X0150697Y0119795D01*
X0149955Y0119226D01*
X0149386Y0118484D01*
X0149120Y0117842D01*
X0148801Y0117856D01*
X0145142Y0118338D01*
X0141539Y0119136D01*
X0139442Y0119798D01*
X0139449Y0119854D01*
X0139327Y0120781D01*
X0138969Y0121645D01*
X0138400Y0122387D01*
X0137658Y0122956D01*
X0136794Y0123314D01*
X0135867Y0123436D01*
X0134940Y0123314D01*
X0134076Y0122956D01*
X0133335Y0122387D01*
X0133299Y0122341D01*
X0131336Y0123363D01*
X0128223Y0125346D01*
X0125295Y0127592D01*
X0125023Y0127842D01*
X0125239Y0128364D01*
X0125361Y0129291D01*
X0125239Y0130218D01*
X0124881Y0131082D01*
X0124312Y0131824D01*
X0123570Y0132393D01*
X0122707Y0132751D01*
X0121780Y0132873D01*
X0120852Y0132751D01*
X0120330Y0132535D01*
X0120080Y0132807D01*
X0117834Y0135735D01*
X0115851Y0138847D01*
X0114147Y0142121D01*
X0112734Y0145531D01*
X0111625Y0149051D01*
X0110826Y0152654D01*
X0110344Y0156313D01*
X0110330Y0156632D01*
X0110972Y0156898D01*
X0111714Y0157467D01*
X0112283Y0158209D01*
X0112641Y0159073D01*
X0112763Y0160000D01*
X0112641Y0160927D01*
X0112283Y0161791D01*
X0111714Y0162533D01*
X0110972Y0163102D01*
X0110330Y0163368D01*
X0110344Y0163687D01*
X0110826Y0167346D01*
X0111625Y0170949D01*
X0112194Y0172757D01*
X0112709Y0172839D01*
X0113114Y0172836D01*
X0113831Y0172788D01*
X0114124Y0172746D01*
X0114389Y0172691D01*
X0114619Y0172626D01*
X0114812Y0172553D01*
X0114968Y0172475D01*
X0115090Y0172396D01*
X0115219Y0172285D01*
X0115274Y0172267D01*
X0116683Y0170858D01*
Y0145433D01*
X0116769Y0145004D01*
X0117011Y0144641D01*
X0131460Y0130192D01*
X0131823Y0129949D01*
X0132252Y0129864D01*
X0136779D01*
X0137208Y0129949D01*
X0137571Y0130192D01*
X0138285Y0130905D01*
X0138291Y0130906D01*
X0138312Y0130933D01*
X0138353Y0130973D01*
X0138414Y0130997D01*
X0138811Y0131367D01*
X0138959Y0131487D01*
X0139073Y0131567D01*
X0139265D01*
X0139297Y0131548D01*
X0139352Y0131562D01*
X0139405Y0131542D01*
X0139461Y0131567D01*
X0140724D01*
Y0135126D01*
X0137559D01*
Y0133911D01*
X0137540Y0133879D01*
X0137559Y0133805D01*
Y0133507D01*
X0137519Y0133436D01*
X0137440Y0133324D01*
X0137172Y0133006D01*
X0136996Y0132824D01*
X0136971Y0132759D01*
X0136316Y0132104D01*
X0132716D01*
X0118923Y0145897D01*
Y0171321D01*
X0118838Y0171750D01*
X0118595Y0172113D01*
X0116857Y0173851D01*
X0116839Y0173906D01*
X0116729Y0174034D01*
X0116649Y0174156D01*
X0116571Y0174313D01*
X0116499Y0174506D01*
X0116434Y0174735D01*
X0116379Y0175001D01*
X0116337Y0175294D01*
X0116288Y0176011D01*
X0116285Y0176415D01*
X0116263Y0176468D01*
X0116145Y0177367D01*
X0115787Y0178231D01*
X0115217Y0178973D01*
X0114859Y0179248D01*
X0115851Y0181153D01*
X0117834Y0184265D01*
X0119902Y0186960D01*
X0120382Y0187213D01*
X0121053Y0186935D01*
D02*
G37*
%LPC*%
G36*
X0149685Y0189461D02*
X0147673D01*
Y0188770D01*
X0148173D01*
X0148078Y0188681D01*
X0147993Y0188584D01*
X0147918Y0188478D01*
X0147853Y0188363D01*
X0147798Y0188239D01*
X0147753Y0188107D01*
X0147718Y0187965D01*
X0147696Y0187833D01*
X0147712Y0187759D01*
X0147734Y0187688D01*
X0147761Y0187625D01*
X0147792Y0187571D01*
X0147829Y0187525D01*
X0147870Y0187489D01*
X0147875Y0187486D01*
X0148462Y0187729D01*
X0148996Y0188138D01*
X0149405Y0188672D01*
X0149663Y0189294D01*
X0149685Y0189461D01*
D02*
G37*
G36*
X0137622Y0184854D02*
X0137610D01*
Y0184815D01*
X0137420Y0184811D01*
X0137250Y0184798D01*
X0137100Y0184776D01*
X0136970Y0184746D01*
X0136860Y0184707D01*
X0136770Y0184659D01*
X0136700Y0184603D01*
X0136650Y0184538D01*
X0136620Y0184464D01*
X0136610Y0184382D01*
X0136607Y0184854D01*
X0135941D01*
Y0183370D01*
X0137622D01*
Y0184854D01*
D02*
G37*
G36*
X0134941D02*
X0133260D01*
Y0183370D01*
X0134941D01*
Y0184854D01*
D02*
G37*
G36*
X0174354Y0184622D02*
X0172732D01*
X0172729Y0184620D01*
X0172697Y0184589D01*
X0172670Y0184547D01*
X0172647Y0184494D01*
X0172628Y0184430D01*
X0172613Y0184355D01*
X0172609Y0184316D01*
X0172615Y0184250D01*
X0172640Y0184100D01*
X0172675Y0183970D01*
X0172720Y0183860D01*
X0172775Y0183770D01*
X0172839Y0183700D01*
X0172915Y0183650D01*
X0173000Y0183620D01*
X0173094Y0183610D01*
X0172594D01*
Y0182941D01*
X0174354D01*
Y0184622D01*
D02*
G37*
G36*
X0139157Y0175764D02*
X0137083D01*
Y0173689D01*
X0139157D01*
Y0175764D01*
D02*
G37*
G36*
X0136083D02*
X0134008D01*
Y0173689D01*
X0136083D01*
Y0175764D01*
D02*
G37*
G36*
X0139157Y0172689D02*
X0137083D01*
Y0170614D01*
X0139157D01*
Y0172689D01*
D02*
G37*
G36*
X0136083D02*
X0134008D01*
Y0170614D01*
X0136083D01*
Y0172689D01*
D02*
G37*
G36*
X0136638Y0170016D02*
X0134957D01*
Y0168256D01*
X0136638D01*
Y0170016D01*
D02*
G37*
G36*
X0176136Y0168118D02*
X0171790D01*
Y0165540D01*
X0171411Y0165194D01*
X0171352Y0165203D01*
X0171256Y0165325D01*
X0171054Y0165752D01*
X0171149Y0166233D01*
X0171026Y0166850D01*
X0170677Y0167374D01*
X0170153Y0167724D01*
X0169535Y0167847D01*
X0168918Y0167724D01*
X0168501Y0167445D01*
X0167535D01*
Y0168000D01*
X0164370D01*
Y0166329D01*
X0163913Y0166130D01*
X0163598Y0166386D01*
Y0168000D01*
X0160433D01*
Y0164441D01*
X0162081D01*
X0163757Y0162765D01*
X0164150Y0162502D01*
X0164614Y0162410D01*
X0171640D01*
X0172104Y0162502D01*
X0172497Y0162765D01*
X0173504Y0163772D01*
X0176136D01*
Y0168118D01*
D02*
G37*
G36*
X0182837Y0165445D02*
X0180762D01*
Y0163370D01*
X0182837D01*
Y0165445D01*
D02*
G37*
G36*
X0179762D02*
X0177687D01*
Y0163370D01*
X0179762D01*
Y0165445D01*
D02*
G37*
G36*
X0136638Y0162728D02*
X0134957D01*
Y0160968D01*
X0136638D01*
Y0162728D01*
D02*
G37*
G36*
X0178087Y0157653D02*
X0173256D01*
Y0155087D01*
X0178087D01*
Y0157653D01*
D02*
G37*
G36*
X0172256D02*
X0167425D01*
Y0155087D01*
X0172256D01*
Y0157653D01*
D02*
G37*
G36*
X0178087Y0154087D02*
X0172756D01*
X0167425D01*
Y0151520D01*
X0167443D01*
Y0146039D01*
X0167425D01*
Y0143472D01*
X0172756D01*
X0178087D01*
Y0146039D01*
X0178515Y0146213D01*
X0181228D01*
X0181594Y0145887D01*
X0181615Y0145778D01*
X0181625Y0145779D01*
X0181772Y0145039D01*
X0182231Y0144352D01*
X0182917Y0143894D01*
X0183727Y0143733D01*
X0184536Y0143894D01*
X0185222Y0144352D01*
X0185681Y0145039D01*
X0185842Y0145848D01*
X0185828Y0145918D01*
X0185825Y0145918D01*
X0185671Y0147081D01*
X0185157Y0148323D01*
X0184338Y0149390D01*
X0183272Y0150208D01*
X0182030Y0150723D01*
X0181228Y0150828D01*
Y0151347D01*
X0178515D01*
X0178087Y0151520D01*
Y0154087D01*
D02*
G37*
G36*
X0147638Y0145669D02*
X0147020Y0145546D01*
X0146590Y0145258D01*
X0146584Y0145256D01*
X0146573Y0145254D01*
X0146551Y0145253D01*
X0146542Y0145248D01*
X0146534Y0145247D01*
X0146520Y0145237D01*
X0146517Y0145236D01*
X0146496Y0145230D01*
X0146461Y0145222D01*
X0146421Y0145216D01*
X0146275Y0145204D01*
X0146188Y0145203D01*
X0146124Y0145175D01*
X0144496D01*
X0144068Y0145090D01*
X0143704Y0144847D01*
X0142366Y0143508D01*
X0142123Y0143145D01*
X0142086Y0142961D01*
X0141378D01*
Y0139795D01*
X0144937D01*
Y0142912D01*
X0144960Y0142935D01*
X0146116D01*
X0146176Y0142908D01*
X0146260Y0142905D01*
Y0140123D01*
X0146239Y0140087D01*
X0146254Y0140034D01*
X0146235Y0139982D01*
X0146260Y0139928D01*
Y0139704D01*
X0146251Y0139689D01*
X0146169Y0139573D01*
X0145885Y0139239D01*
X0145697Y0139045D01*
X0145689Y0139023D01*
X0145669Y0139013D01*
X0145437Y0138920D01*
X0144937Y0139024D01*
Y0139024D01*
X0144419D01*
X0144331Y0139061D01*
X0144329Y0139060D01*
X0144327Y0139061D01*
X0144291Y0139046D01*
X0144255Y0139057D01*
X0144252Y0139055D01*
X0144248Y0139056D01*
X0144191Y0139024D01*
X0142124D01*
X0142067Y0139056D01*
X0142025Y0139044D01*
X0141984Y0139061D01*
X0141896Y0139024D01*
X0141378D01*
Y0138813D01*
X0140934Y0138643D01*
X0140488Y0138813D01*
Y0139260D01*
X0137453D01*
X0137323Y0139260D01*
X0136953Y0139574D01*
Y0139661D01*
X0135468D01*
Y0137480D01*
Y0135299D01*
X0136953D01*
Y0135387D01*
X0137323Y0135701D01*
X0137453Y0135701D01*
X0140488D01*
Y0136148D01*
X0140933Y0136318D01*
X0141378Y0136148D01*
Y0135858D01*
X0141941D01*
X0142004Y0135833D01*
X0142038Y0135847D01*
X0142073Y0135837D01*
X0142112Y0135858D01*
X0144194D01*
X0144255Y0135825D01*
X0144291Y0135836D01*
X0144327Y0135821D01*
X0144417Y0135858D01*
X0144937D01*
Y0136261D01*
X0144947Y0136263D01*
X0145044Y0136278D01*
X0145171Y0136289D01*
X0145343Y0136293D01*
X0145405Y0136321D01*
X0145717D01*
X0146145Y0136406D01*
X0146509Y0136649D01*
X0146548Y0136688D01*
X0146548Y0136688D01*
X0147309Y0137449D01*
X0147370Y0137472D01*
X0147746Y0137822D01*
X0147887Y0137935D01*
X0148009Y0138020D01*
X0148049Y0138043D01*
X0148303D01*
X0148371Y0138019D01*
X0148419Y0138041D01*
X0148471Y0138031D01*
X0148490Y0138043D01*
X0149346D01*
Y0142980D01*
X0149346D01*
X0149147Y0143398D01*
X0149137Y0143480D01*
X0149252Y0144055D01*
X0149129Y0144673D01*
X0148779Y0145196D01*
X0148255Y0145546D01*
X0147638Y0145669D01*
D02*
G37*
G36*
X0121189Y0158385D02*
X0120571Y0158263D01*
X0120048Y0157913D01*
X0119698Y0157389D01*
X0119575Y0156772D01*
X0119698Y0156154D01*
X0120048Y0155631D01*
X0120571Y0155281D01*
X0121189Y0155158D01*
X0121342Y0155188D01*
X0124489Y0152041D01*
X0124818Y0151821D01*
X0125205Y0151744D01*
X0153487D01*
X0160944Y0144287D01*
X0160914Y0144134D01*
X0161037Y0143516D01*
X0161387Y0142993D01*
X0161910Y0142643D01*
X0162528Y0142520D01*
X0163145Y0142643D01*
X0163669Y0142993D01*
X0164018Y0143516D01*
X0164141Y0144134D01*
X0164018Y0144751D01*
X0163669Y0145275D01*
X0163145Y0145625D01*
X0162528Y0145747D01*
X0162375Y0145717D01*
X0154621Y0153471D01*
X0154293Y0153691D01*
X0153905Y0153768D01*
X0125624D01*
X0122772Y0156619D01*
X0122803Y0156772D01*
X0122680Y0157389D01*
X0122330Y0157913D01*
X0121807Y0158263D01*
X0121189Y0158385D01*
D02*
G37*
G36*
X0178087Y0142472D02*
X0173256D01*
Y0139906D01*
X0178087D01*
Y0142472D01*
D02*
G37*
G36*
X0172256D02*
X0167425D01*
Y0139906D01*
X0172256D01*
Y0142472D01*
D02*
G37*
G36*
X0166165Y0140685D02*
X0164681D01*
Y0139004D01*
X0166165D01*
Y0140685D01*
D02*
G37*
G36*
X0134468Y0139661D02*
X0132984D01*
Y0137980D01*
X0134468D01*
Y0139661D01*
D02*
G37*
G36*
Y0136980D02*
X0132984D01*
Y0135299D01*
X0134468D01*
Y0136980D01*
D02*
G37*
G36*
X0153165Y0135343D02*
X0150079D01*
Y0133623D01*
X0150069Y0133620D01*
X0149973Y0133604D01*
X0149845Y0133593D01*
X0149672Y0133589D01*
X0149610Y0133561D01*
X0148503D01*
X0147926Y0134138D01*
X0147562Y0134381D01*
X0147134Y0134466D01*
X0145130D01*
X0145068Y0134494D01*
X0144898Y0134499D01*
X0144773Y0134510D01*
X0144679Y0134525D01*
X0144661Y0134530D01*
Y0135126D01*
X0141496D01*
Y0131567D01*
X0144661D01*
Y0132163D01*
X0144679Y0132168D01*
X0144773Y0132183D01*
X0144898Y0132194D01*
X0145068Y0132199D01*
X0145130Y0132227D01*
X0146670D01*
X0147248Y0131649D01*
X0147611Y0131406D01*
X0148039Y0131321D01*
X0149610D01*
X0149672Y0131293D01*
X0149845Y0131289D01*
X0149973Y0131278D01*
X0150069Y0131262D01*
X0150079Y0131259D01*
Y0130405D01*
X0153165D01*
Y0135343D01*
D02*
G37*
G36*
X0166362Y0133555D02*
X0164681D01*
Y0131795D01*
X0166362D01*
Y0133555D01*
D02*
G37*
G36*
X0156984Y0142980D02*
X0153898D01*
Y0138043D01*
X0155420D01*
X0155751Y0137712D01*
X0156115Y0137469D01*
X0156543Y0137384D01*
X0158193D01*
X0158255Y0137356D01*
X0158428Y0137352D01*
X0158555Y0137341D01*
X0158626Y0137329D01*
X0158661Y0137245D01*
Y0136724D01*
X0158803D01*
X0159033Y0136318D01*
X0158805Y0135913D01*
X0158622D01*
Y0135353D01*
X0158596Y0135291D01*
X0158610Y0135257D01*
X0158600Y0135222D01*
X0158622Y0135182D01*
Y0132197D01*
X0159220D01*
X0159222Y0132187D01*
X0159238Y0132091D01*
X0159249Y0131963D01*
X0159254Y0131790D01*
X0159282Y0131728D01*
Y0131220D01*
X0159367Y0130792D01*
X0159610Y0130429D01*
X0162090Y0127948D01*
X0162453Y0127705D01*
X0162882Y0127620D01*
X0163053D01*
X0163113Y0127593D01*
X0163297Y0127586D01*
X0163350Y0127581D01*
X0163398Y0127573D01*
X0163433Y0127565D01*
X0163454Y0127559D01*
X0163457Y0127558D01*
X0163471Y0127549D01*
X0163479Y0127547D01*
X0163488Y0127543D01*
X0163510Y0127541D01*
X0163521Y0127539D01*
X0163527Y0127537D01*
X0163957Y0127249D01*
X0164575Y0127127D01*
X0165192Y0127249D01*
X0165716Y0127599D01*
X0166066Y0128123D01*
X0166189Y0128740D01*
X0166066Y0129358D01*
X0165716Y0129881D01*
X0165192Y0130231D01*
X0164575Y0130354D01*
X0163957Y0130231D01*
X0163527Y0129944D01*
X0163521Y0129942D01*
X0163510Y0129939D01*
X0163488Y0129938D01*
X0163479Y0129933D01*
X0163471Y0129931D01*
X0163457Y0129922D01*
X0163454Y0129921D01*
X0163433Y0129915D01*
X0163398Y0129907D01*
X0163358Y0129901D01*
X0163309Y0129897D01*
X0161847Y0131359D01*
X0162118Y0131795D01*
X0163681D01*
Y0134055D01*
X0164181D01*
Y0134555D01*
X0166362D01*
Y0135904D01*
X0166362Y0136315D01*
X0166165Y0136733D01*
Y0138004D01*
X0164181D01*
Y0138504D01*
X0163681D01*
Y0140685D01*
X0162197D01*
Y0140597D01*
X0161827Y0140284D01*
X0161697Y0140284D01*
X0158661D01*
Y0139685D01*
X0158652Y0139683D01*
X0158555Y0139667D01*
X0158428Y0139656D01*
X0158255Y0139652D01*
X0158193Y0139624D01*
X0157007D01*
X0156984Y0139647D01*
Y0142980D01*
D02*
G37*
%LPD*%
G36*
X0146935Y0143366D02*
X0146894Y0143402D01*
X0146846Y0143434D01*
X0146791Y0143463D01*
X0146728Y0143487D01*
X0146659Y0143508D01*
X0146581Y0143525D01*
X0146497Y0143538D01*
X0146405Y0143548D01*
X0146200Y0143555D01*
Y0144555D01*
X0146306Y0144557D01*
X0146497Y0144572D01*
X0146581Y0144585D01*
X0146659Y0144602D01*
X0146728Y0144623D01*
X0146791Y0144648D01*
X0146846Y0144676D01*
X0146894Y0144708D01*
X0146935Y0144744D01*
Y0143366D01*
D02*
G37*
G36*
X0148344Y0138666D02*
X0148264Y0138718D01*
X0148171Y0138743D01*
X0148064Y0138741D01*
X0147943Y0138710D01*
X0147809Y0138652D01*
X0147661Y0138567D01*
X0147499Y0138453D01*
X0147322Y0138312D01*
X0146929Y0137947D01*
X0146163Y0138595D01*
X0146365Y0138803D01*
X0146682Y0139176D01*
X0146797Y0139340D01*
X0146884Y0139489D01*
X0146941Y0139623D01*
X0146970Y0139742D01*
X0146969Y0139846D01*
X0146940Y0139935D01*
X0146882Y0140009D01*
X0148344Y0138666D01*
D02*
G37*
G36*
X0142000Y0136480D02*
X0141990Y0136575D01*
X0141959Y0136660D01*
X0141908Y0136735D01*
X0141837Y0136800D01*
X0141746Y0136855D01*
X0141635Y0136900D01*
X0141503Y0136935D01*
X0141352Y0136960D01*
X0141180Y0136975D01*
X0140988Y0136980D01*
Y0137980D01*
X0141178Y0137985D01*
X0141348Y0137998D01*
X0141498Y0138019D01*
X0141628Y0138050D01*
X0141738Y0138089D01*
X0141828Y0138136D01*
X0141898Y0138192D01*
X0141948Y0138257D01*
X0141978Y0138331D01*
X0141988Y0138413D01*
X0142000Y0136480D01*
D02*
G37*
G36*
X0139876Y0138385D02*
X0139906Y0138300D01*
X0139957Y0138225D01*
X0140028Y0138160D01*
X0140119Y0138105D01*
X0140230Y0138060D01*
X0140362Y0138025D01*
X0140513Y0138000D01*
X0140685Y0137985D01*
X0140878Y0137980D01*
Y0136980D01*
X0140685Y0136975D01*
X0140513Y0136960D01*
X0140362Y0136935D01*
X0140230Y0136900D01*
X0140119Y0136855D01*
X0140028Y0136800D01*
X0139957Y0136735D01*
X0139906Y0136660D01*
X0139876Y0136575D01*
X0139866Y0136480D01*
Y0138480D01*
X0139876Y0138385D01*
D02*
G37*
G36*
X0144337Y0138331D02*
X0144367Y0138257D01*
X0144417Y0138192D01*
X0144487Y0138136D01*
X0144577Y0138089D01*
X0144687Y0138050D01*
X0144817Y0138019D01*
X0144967Y0137998D01*
X0145137Y0137985D01*
X0145327Y0137980D01*
Y0137941D01*
Y0136941D01*
X0145137Y0136936D01*
X0144967Y0136922D01*
X0144817Y0136898D01*
X0144687Y0136865D01*
X0144577Y0136823D01*
X0144487Y0136771D01*
X0144417Y0136709D01*
X0144367Y0136639D01*
X0144337Y0136558D01*
X0144327Y0136469D01*
Y0136579D01*
X0144325Y0136575D01*
X0144315Y0136480D01*
X0144327Y0138413D01*
X0144337Y0138331D01*
D02*
G37*
G36*
X0144061Y0134251D02*
X0144091Y0134167D01*
X0144141Y0134091D01*
X0144211Y0134027D01*
X0144301Y0133972D01*
X0144411Y0133926D01*
X0144541Y0133891D01*
X0144691Y0133867D01*
X0144861Y0133852D01*
X0145051Y0133846D01*
Y0132846D01*
X0144861Y0132842D01*
X0144691Y0132826D01*
X0144541Y0132801D01*
X0144411Y0132766D01*
X0144301Y0132721D01*
X0144211Y0132667D01*
X0144141Y0132601D01*
X0144091Y0132527D01*
X0144061Y0132441D01*
X0144051Y0132346D01*
Y0134346D01*
X0144061Y0134251D01*
D02*
G37*
G36*
X0150701Y0131441D02*
X0150691Y0131536D01*
X0150661Y0131621D01*
X0150610Y0131696D01*
X0150539Y0131761D01*
X0150448Y0131816D01*
X0150337Y0131861D01*
X0150205Y0131896D01*
X0150054Y0131921D01*
X0149881Y0131936D01*
X0149689Y0131941D01*
Y0132941D01*
X0149881Y0132946D01*
X0150054Y0132961D01*
X0150205Y0132986D01*
X0150337Y0133021D01*
X0150448Y0133066D01*
X0150539Y0133121D01*
X0150610Y0133186D01*
X0150661Y0133261D01*
X0150691Y0133346D01*
X0150701Y0133441D01*
Y0131441D01*
D02*
G37*
G36*
X0159284Y0137504D02*
X0159274Y0137599D01*
X0159243Y0137684D01*
X0159193Y0137759D01*
X0159122Y0137824D01*
X0159031Y0137879D01*
X0158920Y0137924D01*
X0158788Y0137959D01*
X0158636Y0137984D01*
X0158464Y0137999D01*
X0158272Y0138004D01*
Y0139004D01*
X0158464Y0139009D01*
X0158636Y0139024D01*
X0158788Y0139049D01*
X0158920Y0139084D01*
X0159031Y0139129D01*
X0159122Y0139184D01*
X0159193Y0139249D01*
X0159243Y0139324D01*
X0159274Y0139409D01*
X0159284Y0139504D01*
Y0137504D01*
D02*
G37*
G36*
X0161127Y0137325D02*
X0161046Y0137295D01*
X0160976Y0137245D01*
X0160914Y0137175D01*
X0160862Y0137085D01*
X0160820Y0136975D01*
X0160787Y0136845D01*
X0160763Y0136695D01*
X0160749Y0136525D01*
X0160744Y0136335D01*
X0159744D01*
X0159739Y0136525D01*
X0159725Y0136695D01*
X0159702Y0136845D01*
X0159669Y0136975D01*
X0159626Y0137085D01*
X0159574Y0137175D01*
X0159513Y0137245D01*
X0159442Y0137295D01*
X0159362Y0137325D01*
X0159272Y0137335D01*
X0161216D01*
X0161127Y0137325D01*
D02*
G37*
G36*
X0160749Y0136111D02*
X0160764Y0135939D01*
X0160789Y0135787D01*
X0160824Y0135655D01*
X0160869Y0135544D01*
X0160924Y0135453D01*
X0160989Y0135382D01*
X0161064Y0135331D01*
X0161149Y0135301D01*
X0161244Y0135291D01*
X0159244D01*
X0159339Y0135301D01*
X0159424Y0135331D01*
X0159499Y0135382D01*
X0159564Y0135453D01*
X0159619Y0135544D01*
X0159664Y0135655D01*
X0159699Y0135787D01*
X0159724Y0135939D01*
X0159739Y0136111D01*
X0159744Y0136303D01*
X0160744D01*
X0160749Y0136111D01*
D02*
G37*
G36*
X0161307Y0132809D02*
X0161222Y0132779D01*
X0161147Y0132728D01*
X0161082Y0132657D01*
X0161027Y0132566D01*
X0160982Y0132455D01*
X0160947Y0132323D01*
X0160922Y0132172D01*
X0160907Y0132000D01*
X0160902Y0131807D01*
X0159902D01*
X0159897Y0132000D01*
X0159882Y0132172D01*
X0159857Y0132323D01*
X0159822Y0132455D01*
X0159777Y0132566D01*
X0159722Y0132657D01*
X0159657Y0132728D01*
X0159582Y0132779D01*
X0159497Y0132809D01*
X0159402Y0132819D01*
X0161402D01*
X0161307Y0132809D01*
D02*
G37*
G36*
X0163872Y0128051D02*
X0163831Y0128087D01*
X0163783Y0128119D01*
X0163728Y0128148D01*
X0163665Y0128172D01*
X0163595Y0128193D01*
X0163518Y0128210D01*
X0163434Y0128223D01*
X0163342Y0128233D01*
X0163136Y0128240D01*
Y0129240D01*
X0163243Y0129242D01*
X0163434Y0129257D01*
X0163518Y0129270D01*
X0163595Y0129287D01*
X0163665Y0129308D01*
X0163728Y0129333D01*
X0163783Y0129361D01*
X0163831Y0129393D01*
X0163872Y0129429D01*
Y0128051D01*
D02*
G37*
D10*
X0173512Y0175197D02*
X0174575Y0174134D01*
X0173472Y0175197D02*
X0173512D01*
X0172095Y0176575D02*
X0173472Y0175197D01*
X0174575Y0174134D02*
X0184732D01*
X0135480Y0185315D02*
X0145756D01*
X0148315Y0198543D02*
X0151898Y0194961D01*
X0144496Y0144055D02*
X0147638D01*
X0143157Y0142717D02*
X0144496Y0144055D01*
X0143157Y0141378D02*
Y0142717D01*
X0148315Y0198543D02*
X0148630D01*
X0167646Y0180473D02*
X0169457Y0178661D01*
X0172095D01*
X0165677Y0180473D02*
X0167646D01*
X0159850Y0186299D02*
X0165677Y0180473D01*
X0164575Y0174685D02*
X0164980D01*
X0158315Y0180945D02*
X0164575Y0174685D01*
X0147331Y0186575D02*
X0147488D01*
X0147173Y0186732D02*
X0147331Y0186575D01*
X0171937Y0178504D02*
X0172095Y0178661D01*
X0145756Y0185315D02*
X0147173Y0186732D01*
X0172724Y0185630D02*
X0173866D01*
X0172095Y0185000D02*
X0172724Y0185630D01*
X0172095Y0182441D02*
Y0185000D01*
X0152488Y0189961D02*
X0156150Y0186299D01*
X0159850D01*
X0172095Y0176575D02*
Y0178661D01*
X0124811Y0180945D02*
X0158315D01*
X0135441Y0185354D02*
X0135480Y0185315D01*
X0122173Y0183583D02*
X0124811Y0180945D01*
X0122173Y0183583D02*
Y0190315D01*
X0160402Y0131220D02*
Y0134055D01*
Y0131220D02*
X0162882Y0128740D01*
X0164575D01*
X0160244Y0134213D02*
X0160402Y0134055D01*
X0160244Y0134213D02*
Y0138504D01*
X0156543D02*
X0160244D01*
X0155441Y0139606D02*
X0156543Y0138504D01*
X0155441Y0139606D02*
Y0140512D01*
X0145756Y0137480D02*
X0147803Y0139527D01*
Y0140512D01*
X0138906Y0137480D02*
X0145756D01*
X0145717Y0137441D02*
X0145756Y0137480D01*
X0143157Y0137441D02*
X0145717D01*
X0151189Y0132441D02*
X0151622Y0132874D01*
X0148039Y0132441D02*
X0151189D01*
X0147134Y0133346D02*
X0148039Y0132441D01*
X0143079Y0133346D02*
X0147134D01*
X0136779Y0130984D02*
X0139142Y0133346D01*
X0132252Y0130984D02*
X0136779D01*
X0117803Y0145433D02*
X0132252Y0130984D01*
X0117803Y0145433D02*
Y0171321D01*
X0112685Y0176440D02*
X0117803Y0171321D01*
X0112554Y0143386D02*
X0115205D01*
X0134299Y0167913D02*
X0134457Y0167756D01*
X0147173Y0186732D02*
Y0189961D01*
X0134457Y0167756D02*
X0134496Y0167717D01*
X0152173Y0198346D02*
X0154102D01*
X0151898Y0194961D02*
X0152488D01*
X0154102Y0198346D02*
X0157488Y0194961D01*
X0146976Y0189961D02*
X0147173D01*
X0152488Y0194961D02*
X0152528Y0195000D01*
X0157488Y0194961D02*
X0157606Y0195079D01*
D12*
X0176228Y0181693D02*
X0178591Y0179331D01*
X0182685D01*
X0190441Y0171575D01*
X0176228Y0181693D02*
Y0186102D01*
X0153905Y0152756D02*
X0162528Y0144134D01*
X0125205Y0152756D02*
X0153905D01*
X0121189Y0156772D02*
X0125205Y0152756D01*
X0121071Y0156653D02*
X0121189Y0156772D01*
X0129693Y0192559D02*
X0129732D01*
X0130638Y0193465D01*
X0145992D01*
X0147488Y0194961D01*
X0167646Y0184409D02*
Y0187795D01*
X0167685Y0187835D02*
X0174496D01*
X0176228Y0186102D01*
X0161976Y0187835D02*
X0167685D01*
X0167646Y0187795D02*
X0167685Y0187835D01*
X0159850Y0189961D02*
X0161976Y0187835D01*
X0188400Y0167368D02*
X0190362Y0169331D01*
X0190441D01*
Y0171575D01*
X0188400Y0167368D02*
Y0167525D01*
X0157488Y0189961D02*
X0159850D01*
D18*
X0172095Y0182441D02*
D03*
Y0178661D02*
D03*
D21*
X0134457Y0163228D02*
D03*
X0130677D02*
D03*
X0134457Y0167756D02*
D03*
X0130677D02*
D03*
X0160402Y0134055D02*
D03*
X0164181D02*
D03*
D33*
X0183728Y0145748D02*
G03*
X0183727Y0145848I-0003032J0000000D01*
G01*
X0183748Y0145827D02*
X0183827Y0145748D01*
X0183748Y0145669D02*
Y0145827D01*
Y0145669D02*
X0183827Y0145748D01*
X0183679Y0145896D02*
X0183727Y0145848D01*
X0183728Y0145847D01*
Y0145748D02*
Y0145847D01*
X0183748Y0145827D01*
X0128276Y0163228D02*
X0130677D01*
X0126976Y0164528D02*
X0128276Y0163228D01*
X0124221Y0164528D02*
X0126976D01*
X0124221Y0161457D02*
Y0164528D01*
Y0167677D01*
X0130677Y0163228D02*
Y0167756D01*
Y0173189D01*
D34*
X0171640Y0163622D02*
X0173963Y0165945D01*
X0164614Y0163622D02*
X0171640D01*
X0162016Y0166220D02*
X0164614Y0163622D01*
X0165953Y0166220D02*
X0165965Y0166233D01*
X0169535D01*
X0135441Y0189291D02*
X0136957Y0190807D01*
X0138315D01*
X0165953Y0166220D02*
X0166110Y0166063D01*
D35*
X0183727Y0145848D02*
G03*
X0180697Y0148779I-0003030J-0000100D01*
G01*
X0178661D02*
X0180697D01*
D36*
X0198315Y0152520D02*
D03*
X0197252Y0148150D02*
D03*
X0136728Y0203413D02*
D03*
X0132902Y0201760D02*
D03*
X0129051Y0199752D02*
D03*
X0128736Y0120236D02*
D03*
X0125087Y0122598D02*
D03*
D37*
X0192340Y0143416D02*
D03*
X0122173Y0190315D02*
D03*
X0112685Y0176440D02*
D03*
X0109181Y0160000D02*
D03*
X0112554Y0143386D02*
D03*
X0121780Y0129291D02*
D03*
X0135867Y0119854D02*
D03*
X0152488Y0116693D02*
D03*
X0169067Y0119872D02*
D03*
X0183092Y0129369D02*
D03*
X0195768Y0160000D02*
D03*
X0192328Y0176351D02*
D03*
X0182803Y0190315D02*
D03*
X0169021Y0199928D02*
D03*
X0152488Y0203307D02*
D03*
D38*
X0142488Y0188461D02*
D03*
Y0196461D02*
D03*
X0162488Y0192461D02*
D03*
D39*
X0184732Y0174134D02*
D03*
X0183630Y0151260D02*
D03*
X0121150Y0168661D02*
D03*
X0120992Y0162165D02*
D03*
X0188976Y0159449D02*
D03*
X0191929Y0153543D02*
D03*
X0186024D02*
D03*
X0183071Y0135827D02*
D03*
X0177165D02*
D03*
X0168307Y0129921D02*
D03*
X0135827Y0147638D02*
D03*
X0124016D02*
D03*
Y0135827D02*
D03*
X0121063Y0177165D02*
D03*
Y0165354D02*
D03*
Y0153543D02*
D03*
X0115157Y0165354D02*
D03*
Y0153543D02*
D03*
X0162528Y0144134D02*
D03*
X0179260Y0139449D02*
D03*
X0121189Y0156772D02*
D03*
X0129693Y0192559D02*
D03*
X0172724Y0185630D02*
D03*
X0177528Y0188976D02*
D03*
X0174850Y0191063D02*
D03*
X0172055D02*
D03*
X0174811Y0194016D02*
D03*
X0172173Y0194095D02*
D03*
X0169021D02*
D03*
X0169024Y0190905D02*
D03*
X0169535Y0166233D02*
D03*
X0147638Y0144055D02*
D03*
X0186024Y0153543D02*
D03*
X0124016Y0147638D02*
D03*
Y0135827D02*
D03*
X0121063Y0177165D02*
D03*
Y0165354D02*
D03*
Y0153543D02*
D03*
X0115157Y0165354D02*
D03*
Y0153543D02*
D03*
X0127724Y0183780D02*
D03*
X0133984Y0196069D02*
D03*
X0145953Y0197835D02*
D03*
X0150008Y0192677D02*
D03*
X0138315Y0190807D02*
D03*
X0137921Y0197047D02*
D03*
X0148630Y0198543D02*
D03*
X0141268Y0144449D02*
D03*
X0136114Y0158937D02*
D03*
X0140827Y0175079D02*
D03*
X0150756Y0175462D02*
D03*
X0155480Y0175472D02*
D03*
X0169142Y0173189D02*
D03*
X0169102Y0175764D02*
D03*
X0164980Y0174685D02*
D03*
X0186819Y0147165D02*
D03*
X0186543Y0144528D02*
D03*
X0185598Y0149685D02*
D03*
X0147488Y0186575D02*
D03*
X0183728Y0145748D02*
D03*
X0131740Y0189291D02*
D03*
X0164575Y0128740D02*
D03*
X0180647Y0155512D02*
D03*
X0180598Y0152657D02*
D03*
X0124221Y0161457D02*
D03*
Y0167677D02*
D03*
Y0164528D02*
D03*
X0134614Y0133150D02*
D03*
X0131819Y0134921D02*
D03*
X0141976Y0127323D02*
D03*
X0181150Y0142441D02*
D03*
X0184339Y0142598D02*
D03*
X0138906Y0186575D02*
D03*
X0129496Y0186378D02*
D03*
X0152173Y0198346D02*
D03*
D40*
X0173963Y0165945D02*
D03*
X0180262D02*
D03*
X0130677Y0173189D02*
D03*
X0136583D02*
D03*
D41*
X0162016Y0166220D02*
D03*
X0165953D02*
D03*
X0160244Y0138504D02*
D03*
X0164181D02*
D03*
X0134968Y0137480D02*
D03*
X0138906D02*
D03*
X0143079Y0133346D02*
D03*
X0139142D02*
D03*
D42*
X0172756Y0154587D02*
D03*
Y0142972D02*
D03*
D43*
X0178661Y0148779D02*
D03*
D44*
X0135441Y0189291D02*
D03*
Y0185354D02*
D03*
X0167646Y0184409D02*
D03*
Y0180473D02*
D03*
X0143157Y0141378D02*
D03*
Y0137441D02*
D03*
D45*
X0147803Y0140512D02*
D03*
X0155441D02*
D03*
X0151622Y0132874D02*
D03*
D46*
X0147488Y0194961D02*
D03*
X0147173Y0189961D02*
D03*
X0152488Y0194961D02*
D03*
Y0189961D02*
D03*
X0157488Y0194961D02*
D03*
Y0189961D02*
D03*
D47*
X0185256Y0170512D02*
X0188400Y0167368D01*
X0165480Y0170512D02*
X0185256D01*
X0157921Y0178071D02*
X0165480Y0170512D01*
X0133236Y0178071D02*
X0157921D01*
X0130913Y0175748D02*
X0133236Y0178071D01*
X0130913Y0173425D02*
Y0175748D01*
X0188400Y0167368D02*
X0195768Y0160000D01*
X0130677Y0173189D02*
X0130913Y0173425D01*
M02*
