G04*
G04 #@! TF.GenerationSoftware,Altium Limited,Altium Designer,19.1.5 (86)*
G04*
G04 Layer_Color=16711935*
%FSAX25Y25*%
%MOIN*%
G70*
G01*
G75*
%ADD22R,0.03320X0.03162*%
%ADD27R,0.03162X0.03320*%
%ADD28C,0.01784*%
%ADD29C,0.06706*%
%ADD30C,0.04343*%
%ADD48R,0.03950X0.03950*%
%ADD49R,0.02769X0.03162*%
%ADD50R,0.09461X0.04934*%
%ADD51R,0.04737X0.04737*%
%ADD52R,0.03162X0.02769*%
%ADD53R,0.02690X0.04540*%
%ADD54C,0.03910*%
D22*
X0172095Y0182441D02*
D03*
Y0178661D02*
D03*
D27*
X0134457Y0163228D02*
D03*
X0130677D02*
D03*
X0134457Y0167756D02*
D03*
X0130677D02*
D03*
X0160402Y0134055D02*
D03*
X0164181D02*
D03*
D28*
X0198315Y0152520D02*
D03*
X0197252Y0148150D02*
D03*
X0136728Y0203413D02*
D03*
X0132902Y0201760D02*
D03*
X0129051Y0199752D02*
D03*
X0128736Y0120236D02*
D03*
X0125087Y0122598D02*
D03*
D29*
X0192340Y0143416D02*
D03*
X0122173Y0190315D02*
D03*
X0112685Y0176440D02*
D03*
X0109181Y0160000D02*
D03*
X0112554Y0143386D02*
D03*
X0121780Y0129291D02*
D03*
X0135867Y0119854D02*
D03*
X0152488Y0116693D02*
D03*
X0169067Y0119872D02*
D03*
X0183092Y0129369D02*
D03*
X0195768Y0160000D02*
D03*
X0192328Y0176351D02*
D03*
X0182803Y0190315D02*
D03*
X0169021Y0199928D02*
D03*
X0152488Y0203307D02*
D03*
D30*
X0142488Y0188461D02*
D03*
Y0196461D02*
D03*
X0162488Y0192461D02*
D03*
D48*
X0173963Y0165945D02*
D03*
X0180262D02*
D03*
X0130677Y0173189D02*
D03*
X0136583D02*
D03*
D49*
X0162016Y0166220D02*
D03*
X0165953D02*
D03*
X0160244Y0138504D02*
D03*
X0164181D02*
D03*
X0134968Y0137480D02*
D03*
X0138906D02*
D03*
X0143079Y0133346D02*
D03*
X0139142D02*
D03*
D50*
X0172756Y0154587D02*
D03*
Y0142972D02*
D03*
D51*
X0178661Y0148779D02*
D03*
D52*
X0135441Y0189291D02*
D03*
Y0185354D02*
D03*
X0167646Y0184409D02*
D03*
Y0180473D02*
D03*
X0143157Y0141378D02*
D03*
Y0137441D02*
D03*
D53*
X0147803Y0140512D02*
D03*
X0155441D02*
D03*
X0151622Y0132874D02*
D03*
D54*
X0147488Y0194961D02*
D03*
X0147173Y0189961D02*
D03*
X0152488Y0194961D02*
D03*
Y0189961D02*
D03*
X0157488Y0194961D02*
D03*
Y0189961D02*
D03*
M02*
