G04*
G04 #@! TF.GenerationSoftware,Altium Limited,Altium Designer,19.1.5 (86)*
G04*
G04 Layer_Color=16711935*
%FSAX25Y25*%
%MOIN*%
G70*
G01*
G75*
%ADD10C,0.01000*%
%ADD11C,0.00394*%
%ADD12C,0.00787*%
%ADD56C,0.00984*%
%ADD58C,0.00472*%
G36*
X0159260Y0136717D02*
X0159319Y0136710D01*
X0159374Y0136699D01*
X0159422Y0136689D01*
X0159441Y0136684D01*
X0159461Y0136680D01*
X0159478Y0136673D01*
X0159494Y0136669D01*
X0159504Y0136665D01*
X0159513Y0136662D01*
X0159518Y0136660D01*
X0159520D01*
X0159579Y0136636D01*
X0159633Y0136608D01*
X0159685Y0136577D01*
X0159731Y0136549D01*
X0159751Y0136536D01*
X0159770Y0136523D01*
X0159786Y0136512D01*
X0159799Y0136503D01*
X0159810Y0136495D01*
X0159818Y0136488D01*
X0159823Y0136486D01*
X0159825Y0136484D01*
Y0135923D01*
X0159184D01*
Y0136102D01*
X0159629D01*
Y0136386D01*
X0159602Y0136407D01*
X0159572Y0136427D01*
X0159539Y0136444D01*
X0159509Y0136460D01*
X0159483Y0136473D01*
X0159459Y0136484D01*
X0159450Y0136488D01*
X0159446Y0136490D01*
X0159441Y0136492D01*
X0159439D01*
X0159393Y0136508D01*
X0159347Y0136521D01*
X0159306Y0136529D01*
X0159267Y0136534D01*
X0159234Y0136538D01*
X0159221D01*
X0159208Y0136540D01*
X0159186D01*
X0159132Y0136538D01*
X0159079Y0136529D01*
X0159031Y0136519D01*
X0158988Y0136508D01*
X0158953Y0136495D01*
X0158938Y0136490D01*
X0158927Y0136486D01*
X0158916Y0136481D01*
X0158909Y0136477D01*
X0158905Y0136475D01*
X0158903D01*
X0158857Y0136447D01*
X0158816Y0136416D01*
X0158781Y0136383D01*
X0158752Y0136351D01*
X0158728Y0136320D01*
X0158713Y0136296D01*
X0158707Y0136287D01*
X0158704Y0136281D01*
X0158700Y0136276D01*
Y0136274D01*
X0158678Y0136220D01*
X0158661Y0136163D01*
X0158650Y0136107D01*
X0158641Y0136052D01*
X0158639Y0136028D01*
X0158637Y0136006D01*
X0158635Y0135984D01*
Y0135967D01*
X0158632Y0135954D01*
Y0135943D01*
Y0135936D01*
Y0135934D01*
X0158635Y0135873D01*
X0158641Y0135819D01*
X0158650Y0135766D01*
X0158661Y0135721D01*
X0158665Y0135701D01*
X0158672Y0135684D01*
X0158676Y0135668D01*
X0158680Y0135655D01*
X0158685Y0135644D01*
X0158687Y0135638D01*
X0158689Y0135633D01*
Y0135631D01*
X0158704Y0135601D01*
X0158720Y0135572D01*
X0158735Y0135546D01*
X0158750Y0135524D01*
X0158763Y0135507D01*
X0158774Y0135492D01*
X0158783Y0135483D01*
X0158785Y0135481D01*
X0158809Y0135457D01*
X0158835Y0135435D01*
X0158863Y0135418D01*
X0158890Y0135400D01*
X0158912Y0135389D01*
X0158929Y0135378D01*
X0158942Y0135374D01*
X0158946Y0135372D01*
X0158986Y0135357D01*
X0159025Y0135346D01*
X0159066Y0135339D01*
X0159103Y0135333D01*
X0159136Y0135330D01*
X0159149D01*
X0159160Y0135328D01*
X0159184D01*
X0159225Y0135330D01*
X0159265Y0135335D01*
X0159300Y0135341D01*
X0159330Y0135348D01*
X0159356Y0135357D01*
X0159376Y0135363D01*
X0159387Y0135368D01*
X0159391Y0135370D01*
X0159424Y0135385D01*
X0159452Y0135402D01*
X0159478Y0135420D01*
X0159498Y0135437D01*
X0159513Y0135452D01*
X0159526Y0135463D01*
X0159533Y0135472D01*
X0159535Y0135474D01*
X0159555Y0135501D01*
X0159570Y0135531D01*
X0159585Y0135559D01*
X0159598Y0135590D01*
X0159607Y0135616D01*
X0159613Y0135636D01*
X0159616Y0135644D01*
X0159618Y0135651D01*
X0159620Y0135653D01*
Y0135655D01*
X0159801Y0135607D01*
X0159786Y0135553D01*
X0159766Y0135505D01*
X0159746Y0135461D01*
X0159729Y0135426D01*
X0159712Y0135398D01*
X0159698Y0135378D01*
X0159690Y0135365D01*
X0159685Y0135361D01*
X0159655Y0135326D01*
X0159622Y0135298D01*
X0159587Y0135272D01*
X0159555Y0135250D01*
X0159524Y0135234D01*
X0159500Y0135221D01*
X0159491Y0135217D01*
X0159485Y0135215D01*
X0159481Y0135213D01*
X0159478D01*
X0159428Y0135195D01*
X0159376Y0135182D01*
X0159328Y0135171D01*
X0159282Y0135165D01*
X0159241Y0135160D01*
X0159223D01*
X0159210Y0135158D01*
X0159140D01*
X0159101Y0135163D01*
X0159025Y0135173D01*
X0158990Y0135180D01*
X0158957Y0135189D01*
X0158927Y0135195D01*
X0158898Y0135204D01*
X0158872Y0135213D01*
X0158850Y0135221D01*
X0158831Y0135230D01*
X0158813Y0135237D01*
X0158800Y0135243D01*
X0158792Y0135248D01*
X0158785Y0135250D01*
X0158783Y0135252D01*
X0158752Y0135272D01*
X0158722Y0135291D01*
X0158669Y0135337D01*
X0158624Y0135383D01*
X0158587Y0135431D01*
X0158556Y0135472D01*
X0158545Y0135490D01*
X0158537Y0135507D01*
X0158528Y0135520D01*
X0158523Y0135529D01*
X0158521Y0135535D01*
X0158519Y0135538D01*
X0158489Y0135609D01*
X0158467Y0135681D01*
X0158449Y0135751D01*
X0158445Y0135784D01*
X0158438Y0135814D01*
X0158436Y0135843D01*
X0158432Y0135867D01*
X0158430Y0135891D01*
Y0135910D01*
X0158428Y0135925D01*
Y0135936D01*
Y0135945D01*
Y0135947D01*
X0158432Y0136028D01*
X0158443Y0136104D01*
X0158449Y0136139D01*
X0158456Y0136172D01*
X0158465Y0136205D01*
X0158473Y0136233D01*
X0158482Y0136259D01*
X0158491Y0136281D01*
X0158497Y0136303D01*
X0158504Y0136318D01*
X0158510Y0136333D01*
X0158515Y0136342D01*
X0158519Y0136348D01*
Y0136351D01*
X0158558Y0136414D01*
X0158602Y0136468D01*
X0158648Y0136516D01*
X0158691Y0136556D01*
X0158733Y0136586D01*
X0158748Y0136597D01*
X0158763Y0136608D01*
X0158776Y0136614D01*
X0158785Y0136621D01*
X0158792Y0136623D01*
X0158794Y0136625D01*
X0158829Y0136643D01*
X0158863Y0136656D01*
X0158933Y0136680D01*
X0159001Y0136695D01*
X0159064Y0136708D01*
X0159092Y0136710D01*
X0159119Y0136715D01*
X0159143Y0136717D01*
X0159162D01*
X0159177Y0136719D01*
X0159199D01*
X0159260Y0136717D01*
D02*
G37*
G36*
X0157928Y0135178D02*
X0157808D01*
X0157787Y0135215D01*
X0157763Y0135250D01*
X0157734Y0135285D01*
X0157708Y0135315D01*
X0157682Y0135341D01*
X0157662Y0135363D01*
X0157654Y0135370D01*
X0157647Y0135376D01*
X0157645Y0135378D01*
X0157643Y0135380D01*
X0157597Y0135418D01*
X0157551Y0135452D01*
X0157508Y0135483D01*
X0157464Y0135507D01*
X0157427Y0135529D01*
X0157412Y0135538D01*
X0157399Y0135544D01*
X0157388Y0135551D01*
X0157379Y0135553D01*
X0157375Y0135557D01*
X0157372D01*
Y0135736D01*
X0157405Y0135723D01*
X0157438Y0135707D01*
X0157471Y0135692D01*
X0157501Y0135677D01*
X0157527Y0135664D01*
X0157549Y0135653D01*
X0157562Y0135644D01*
X0157564Y0135642D01*
X0157566D01*
X0157606Y0135618D01*
X0157641Y0135594D01*
X0157671Y0135572D01*
X0157695Y0135553D01*
X0157717Y0135538D01*
X0157730Y0135524D01*
X0157741Y0135516D01*
X0157743Y0135513D01*
Y0136693D01*
X0157928D01*
Y0135178D01*
D02*
G37*
G36*
X0149585Y0135184D02*
X0149394D01*
Y0136370D01*
X0148602Y0135184D01*
X0148397D01*
Y0136693D01*
X0148589D01*
Y0135509D01*
X0149378Y0136693D01*
X0149585D01*
Y0135184D01*
D02*
G37*
G36*
X0154338Y0136514D02*
X0153595D01*
X0153621Y0136477D01*
X0153634Y0136462D01*
X0153645Y0136447D01*
X0153656Y0136433D01*
X0153664Y0136425D01*
X0153671Y0136418D01*
X0153673Y0136416D01*
X0153684Y0136405D01*
X0153697Y0136394D01*
X0153727Y0136366D01*
X0153762Y0136333D01*
X0153799Y0136301D01*
X0153834Y0136272D01*
X0153849Y0136259D01*
X0153863Y0136246D01*
X0153874Y0136237D01*
X0153882Y0136231D01*
X0153887Y0136226D01*
X0153889Y0136224D01*
X0153924Y0136194D01*
X0153958Y0136165D01*
X0153989Y0136137D01*
X0154017Y0136113D01*
X0154043Y0136089D01*
X0154065Y0136067D01*
X0154087Y0136048D01*
X0154105Y0136030D01*
X0154122Y0136013D01*
X0154135Y0136000D01*
X0154146Y0135989D01*
X0154157Y0135978D01*
X0154168Y0135965D01*
X0154172Y0135960D01*
X0154203Y0135923D01*
X0154229Y0135891D01*
X0154251Y0135858D01*
X0154268Y0135832D01*
X0154281Y0135808D01*
X0154290Y0135790D01*
X0154294Y0135780D01*
X0154296Y0135775D01*
X0154309Y0135742D01*
X0154318Y0135710D01*
X0154327Y0135679D01*
X0154331Y0135653D01*
X0154333Y0135629D01*
X0154336Y0135612D01*
Y0135601D01*
Y0135596D01*
X0154333Y0135564D01*
X0154329Y0135533D01*
X0154325Y0135503D01*
X0154316Y0135477D01*
X0154294Y0135424D01*
X0154272Y0135383D01*
X0154259Y0135363D01*
X0154248Y0135348D01*
X0154238Y0135333D01*
X0154227Y0135322D01*
X0154218Y0135313D01*
X0154214Y0135304D01*
X0154209Y0135302D01*
X0154207Y0135300D01*
X0154183Y0135278D01*
X0154157Y0135258D01*
X0154129Y0135243D01*
X0154100Y0135230D01*
X0154043Y0135208D01*
X0153987Y0135193D01*
X0153963Y0135189D01*
X0153939Y0135184D01*
X0153917Y0135182D01*
X0153900Y0135180D01*
X0153884Y0135178D01*
X0153863D01*
X0153823Y0135180D01*
X0153786Y0135182D01*
X0153751Y0135189D01*
X0153719Y0135195D01*
X0153688Y0135204D01*
X0153660Y0135213D01*
X0153634Y0135224D01*
X0153610Y0135234D01*
X0153588Y0135245D01*
X0153570Y0135256D01*
X0153555Y0135265D01*
X0153542Y0135274D01*
X0153531Y0135280D01*
X0153525Y0135287D01*
X0153520Y0135289D01*
X0153518Y0135291D01*
X0153496Y0135313D01*
X0153477Y0135337D01*
X0153457Y0135363D01*
X0153442Y0135389D01*
X0153416Y0135442D01*
X0153398Y0135494D01*
X0153392Y0135518D01*
X0153385Y0135542D01*
X0153381Y0135562D01*
X0153376Y0135579D01*
X0153374Y0135594D01*
Y0135605D01*
X0153372Y0135612D01*
Y0135614D01*
X0153562Y0135633D01*
X0153566Y0135583D01*
X0153575Y0135540D01*
X0153588Y0135501D01*
X0153603Y0135470D01*
X0153616Y0135444D01*
X0153629Y0135426D01*
X0153638Y0135415D01*
X0153642Y0135411D01*
X0153675Y0135385D01*
X0153710Y0135365D01*
X0153747Y0135350D01*
X0153780Y0135341D01*
X0153810Y0135335D01*
X0153836Y0135333D01*
X0153845Y0135330D01*
X0153858D01*
X0153904Y0135333D01*
X0153945Y0135341D01*
X0153980Y0135354D01*
X0154011Y0135368D01*
X0154035Y0135383D01*
X0154050Y0135394D01*
X0154061Y0135402D01*
X0154065Y0135407D01*
X0154092Y0135437D01*
X0154111Y0135468D01*
X0154126Y0135498D01*
X0154135Y0135529D01*
X0154142Y0135553D01*
X0154144Y0135575D01*
X0154146Y0135588D01*
Y0135590D01*
Y0135592D01*
X0154142Y0135631D01*
X0154133Y0135673D01*
X0154118Y0135710D01*
X0154102Y0135745D01*
X0154085Y0135773D01*
X0154070Y0135797D01*
X0154065Y0135806D01*
X0154061Y0135812D01*
X0154057Y0135814D01*
Y0135817D01*
X0154039Y0135840D01*
X0154017Y0135864D01*
X0153993Y0135891D01*
X0153967Y0135917D01*
X0153913Y0135969D01*
X0153858Y0136021D01*
X0153830Y0136046D01*
X0153806Y0136067D01*
X0153782Y0136087D01*
X0153762Y0136104D01*
X0153747Y0136117D01*
X0153734Y0136128D01*
X0153725Y0136135D01*
X0153723Y0136137D01*
X0153669Y0136183D01*
X0153618Y0136226D01*
X0153577Y0136266D01*
X0153544Y0136298D01*
X0153516Y0136327D01*
X0153496Y0136346D01*
X0153486Y0136359D01*
X0153481Y0136362D01*
Y0136364D01*
X0153451Y0136401D01*
X0153427Y0136436D01*
X0153405Y0136471D01*
X0153387Y0136501D01*
X0153374Y0136527D01*
X0153366Y0136547D01*
X0153361Y0136560D01*
X0153359Y0136562D01*
Y0136564D01*
X0153350Y0136588D01*
X0153346Y0136610D01*
X0153342Y0136632D01*
X0153339Y0136652D01*
X0153337Y0136669D01*
Y0136682D01*
Y0136691D01*
Y0136693D01*
X0154338D01*
Y0136514D01*
D02*
G37*
G36*
X0148125D02*
X0147381D01*
X0147408Y0136477D01*
X0147421Y0136462D01*
X0147432Y0136447D01*
X0147442Y0136433D01*
X0147451Y0136425D01*
X0147458Y0136418D01*
X0147460Y0136416D01*
X0147471Y0136405D01*
X0147484Y0136394D01*
X0147514Y0136366D01*
X0147549Y0136333D01*
X0147586Y0136301D01*
X0147621Y0136272D01*
X0147636Y0136259D01*
X0147650Y0136246D01*
X0147661Y0136237D01*
X0147669Y0136231D01*
X0147674Y0136226D01*
X0147676Y0136224D01*
X0147711Y0136194D01*
X0147746Y0136165D01*
X0147776Y0136137D01*
X0147804Y0136113D01*
X0147830Y0136089D01*
X0147852Y0136067D01*
X0147874Y0136048D01*
X0147892Y0136030D01*
X0147909Y0136013D01*
X0147922Y0136000D01*
X0147933Y0135989D01*
X0147944Y0135978D01*
X0147955Y0135965D01*
X0147959Y0135960D01*
X0147990Y0135923D01*
X0148016Y0135891D01*
X0148038Y0135858D01*
X0148055Y0135832D01*
X0148068Y0135808D01*
X0148077Y0135790D01*
X0148081Y0135780D01*
X0148083Y0135775D01*
X0148097Y0135742D01*
X0148105Y0135710D01*
X0148114Y0135679D01*
X0148118Y0135653D01*
X0148120Y0135629D01*
X0148123Y0135612D01*
Y0135601D01*
Y0135596D01*
X0148120Y0135564D01*
X0148116Y0135533D01*
X0148112Y0135503D01*
X0148103Y0135477D01*
X0148081Y0135424D01*
X0148059Y0135383D01*
X0148046Y0135363D01*
X0148036Y0135348D01*
X0148025Y0135333D01*
X0148014Y0135322D01*
X0148005Y0135313D01*
X0148001Y0135304D01*
X0147996Y0135302D01*
X0147994Y0135300D01*
X0147970Y0135278D01*
X0147944Y0135258D01*
X0147916Y0135243D01*
X0147887Y0135230D01*
X0147830Y0135208D01*
X0147774Y0135193D01*
X0147750Y0135189D01*
X0147726Y0135184D01*
X0147704Y0135182D01*
X0147687Y0135180D01*
X0147671Y0135178D01*
X0147650D01*
X0147610Y0135180D01*
X0147573Y0135182D01*
X0147538Y0135189D01*
X0147506Y0135195D01*
X0147475Y0135204D01*
X0147447Y0135213D01*
X0147421Y0135224D01*
X0147397Y0135234D01*
X0147375Y0135245D01*
X0147357Y0135256D01*
X0147342Y0135265D01*
X0147329Y0135274D01*
X0147318Y0135280D01*
X0147312Y0135287D01*
X0147307Y0135289D01*
X0147305Y0135291D01*
X0147283Y0135313D01*
X0147264Y0135337D01*
X0147244Y0135363D01*
X0147229Y0135389D01*
X0147203Y0135442D01*
X0147185Y0135494D01*
X0147179Y0135518D01*
X0147172Y0135542D01*
X0147168Y0135562D01*
X0147163Y0135579D01*
X0147161Y0135594D01*
Y0135605D01*
X0147159Y0135612D01*
Y0135614D01*
X0147349Y0135633D01*
X0147353Y0135583D01*
X0147362Y0135540D01*
X0147375Y0135501D01*
X0147390Y0135470D01*
X0147403Y0135444D01*
X0147416Y0135426D01*
X0147425Y0135415D01*
X0147429Y0135411D01*
X0147462Y0135385D01*
X0147497Y0135365D01*
X0147534Y0135350D01*
X0147567Y0135341D01*
X0147597Y0135335D01*
X0147623Y0135333D01*
X0147632Y0135330D01*
X0147645D01*
X0147691Y0135333D01*
X0147732Y0135341D01*
X0147767Y0135354D01*
X0147798Y0135368D01*
X0147822Y0135383D01*
X0147837Y0135394D01*
X0147848Y0135402D01*
X0147852Y0135407D01*
X0147879Y0135437D01*
X0147898Y0135468D01*
X0147913Y0135498D01*
X0147922Y0135529D01*
X0147929Y0135553D01*
X0147931Y0135575D01*
X0147933Y0135588D01*
Y0135590D01*
Y0135592D01*
X0147929Y0135631D01*
X0147920Y0135673D01*
X0147905Y0135710D01*
X0147889Y0135745D01*
X0147872Y0135773D01*
X0147857Y0135797D01*
X0147852Y0135806D01*
X0147848Y0135812D01*
X0147844Y0135814D01*
Y0135817D01*
X0147826Y0135840D01*
X0147804Y0135864D01*
X0147780Y0135891D01*
X0147754Y0135917D01*
X0147700Y0135969D01*
X0147645Y0136021D01*
X0147617Y0136046D01*
X0147593Y0136067D01*
X0147569Y0136087D01*
X0147549Y0136104D01*
X0147534Y0136117D01*
X0147521Y0136128D01*
X0147512Y0136135D01*
X0147510Y0136137D01*
X0147456Y0136183D01*
X0147405Y0136226D01*
X0147364Y0136266D01*
X0147331Y0136298D01*
X0147303Y0136327D01*
X0147283Y0136346D01*
X0147273Y0136359D01*
X0147268Y0136362D01*
Y0136364D01*
X0147238Y0136401D01*
X0147214Y0136436D01*
X0147192Y0136471D01*
X0147174Y0136501D01*
X0147161Y0136527D01*
X0147153Y0136547D01*
X0147148Y0136560D01*
X0147146Y0136562D01*
Y0136564D01*
X0147137Y0136588D01*
X0147133Y0136610D01*
X0147129Y0136632D01*
X0147126Y0136652D01*
X0147124Y0136669D01*
Y0136682D01*
Y0136691D01*
Y0136693D01*
X0148125D01*
Y0136514D01*
D02*
G37*
G36*
X0150266Y0136610D02*
X0150277Y0136534D01*
X0150287Y0136464D01*
X0150294Y0136431D01*
X0150301Y0136401D01*
X0150305Y0136375D01*
X0150311Y0136351D01*
X0150316Y0136329D01*
X0150320Y0136311D01*
X0150324Y0136298D01*
X0150327Y0136287D01*
X0150329Y0136281D01*
Y0136279D01*
X0150362Y0136178D01*
X0150396Y0136085D01*
X0150414Y0136039D01*
X0150431Y0135995D01*
X0150451Y0135956D01*
X0150468Y0135917D01*
X0150484Y0135882D01*
X0150499Y0135851D01*
X0150512Y0135825D01*
X0150523Y0135801D01*
X0150534Y0135782D01*
X0150540Y0135769D01*
X0150545Y0135760D01*
X0150547Y0135758D01*
X0150573Y0135712D01*
X0150599Y0135666D01*
X0150625Y0135625D01*
X0150652Y0135585D01*
X0150675Y0135551D01*
X0150699Y0135516D01*
X0150723Y0135485D01*
X0150743Y0135459D01*
X0150763Y0135433D01*
X0150780Y0135411D01*
X0150797Y0135394D01*
X0150811Y0135378D01*
X0150819Y0135365D01*
X0150828Y0135357D01*
X0150832Y0135352D01*
X0150835Y0135350D01*
Y0135204D01*
X0149858D01*
Y0135383D01*
X0150597D01*
X0150545Y0135446D01*
X0150495Y0135513D01*
X0150451Y0135579D01*
X0150409Y0135642D01*
X0150392Y0135670D01*
X0150377Y0135697D01*
X0150362Y0135721D01*
X0150351Y0135740D01*
X0150342Y0135758D01*
X0150335Y0135769D01*
X0150331Y0135777D01*
X0150329Y0135780D01*
X0150285Y0135867D01*
X0150246Y0135954D01*
X0150213Y0136037D01*
X0150200Y0136074D01*
X0150187Y0136111D01*
X0150174Y0136144D01*
X0150165Y0136174D01*
X0150157Y0136200D01*
X0150150Y0136222D01*
X0150144Y0136242D01*
X0150139Y0136255D01*
X0150137Y0136263D01*
Y0136266D01*
X0150115Y0136355D01*
X0150107Y0136399D01*
X0150100Y0136438D01*
X0150093Y0136475D01*
X0150087Y0136512D01*
X0150083Y0136542D01*
X0150078Y0136573D01*
X0150076Y0136599D01*
X0150074Y0136623D01*
X0150072Y0136645D01*
Y0136662D01*
X0150069Y0136676D01*
Y0136684D01*
Y0136691D01*
Y0136693D01*
X0150259D01*
X0150266Y0136610D01*
D02*
G37*
G36*
X0156603Y0135363D02*
X0157100D01*
Y0135184D01*
X0155905D01*
Y0135363D01*
X0156402D01*
Y0136693D01*
X0156603D01*
Y0135363D01*
D02*
G37*
G36*
X0155742Y0136514D02*
X0154815D01*
Y0136002D01*
X0155650D01*
Y0135823D01*
X0154815D01*
Y0135363D01*
X0155707D01*
Y0135184D01*
X0154615D01*
Y0136693D01*
X0155742D01*
Y0136514D01*
D02*
G37*
G36*
X0152742Y0136715D02*
X0152797Y0136706D01*
X0152842Y0136691D01*
X0152882Y0136676D01*
X0152914Y0136660D01*
X0152925Y0136652D01*
X0152936Y0136645D01*
X0152945Y0136641D01*
X0152951Y0136636D01*
X0152954Y0136632D01*
X0152956D01*
X0152995Y0136595D01*
X0153028Y0136556D01*
X0153056Y0136512D01*
X0153078Y0136473D01*
X0153095Y0136436D01*
X0153104Y0136420D01*
X0153108Y0136405D01*
X0153113Y0136394D01*
X0153117Y0136386D01*
X0153119Y0136381D01*
Y0136379D01*
X0153130Y0136346D01*
X0153139Y0136314D01*
X0153152Y0136244D01*
X0153163Y0136172D01*
X0153169Y0136102D01*
X0153172Y0136072D01*
X0153174Y0136043D01*
Y0136017D01*
X0153176Y0135993D01*
Y0135976D01*
Y0135960D01*
Y0135952D01*
Y0135950D01*
Y0135908D01*
X0153174Y0135869D01*
Y0135834D01*
X0153172Y0135799D01*
X0153167Y0135769D01*
X0153165Y0135738D01*
X0153163Y0135712D01*
X0153158Y0135688D01*
X0153156Y0135666D01*
X0153152Y0135646D01*
X0153150Y0135631D01*
X0153148Y0135618D01*
X0153145Y0135607D01*
X0153143Y0135601D01*
X0153141Y0135596D01*
Y0135594D01*
X0153128Y0135546D01*
X0153113Y0135503D01*
X0153095Y0135466D01*
X0153082Y0135433D01*
X0153067Y0135405D01*
X0153058Y0135385D01*
X0153050Y0135374D01*
X0153047Y0135370D01*
X0153023Y0135337D01*
X0152999Y0135309D01*
X0152973Y0135285D01*
X0152949Y0135263D01*
X0152927Y0135248D01*
X0152910Y0135237D01*
X0152899Y0135230D01*
X0152897Y0135228D01*
X0152895D01*
X0152860Y0135211D01*
X0152823Y0135200D01*
X0152788Y0135191D01*
X0152755Y0135184D01*
X0152727Y0135180D01*
X0152703Y0135178D01*
X0152683D01*
X0152624Y0135182D01*
X0152570Y0135191D01*
X0152524Y0135206D01*
X0152485Y0135221D01*
X0152452Y0135239D01*
X0152439Y0135245D01*
X0152428Y0135254D01*
X0152419Y0135258D01*
X0152413Y0135263D01*
X0152411Y0135267D01*
X0152409D01*
X0152369Y0135302D01*
X0152337Y0135344D01*
X0152308Y0135385D01*
X0152287Y0135424D01*
X0152269Y0135461D01*
X0152260Y0135477D01*
X0152256Y0135492D01*
X0152252Y0135503D01*
X0152247Y0135511D01*
X0152245Y0135516D01*
Y0135518D01*
X0152236Y0135551D01*
X0152228Y0135583D01*
X0152215Y0135655D01*
X0152204Y0135727D01*
X0152197Y0135795D01*
X0152195Y0135827D01*
X0152193Y0135856D01*
Y0135882D01*
X0152190Y0135906D01*
Y0135923D01*
Y0135939D01*
Y0135947D01*
Y0135950D01*
X0152193Y0136026D01*
X0152197Y0136098D01*
X0152204Y0136163D01*
X0152215Y0136224D01*
X0152225Y0136281D01*
X0152239Y0136331D01*
X0152252Y0136377D01*
X0152265Y0136416D01*
X0152278Y0136451D01*
X0152293Y0136481D01*
X0152304Y0136508D01*
X0152315Y0136527D01*
X0152326Y0136545D01*
X0152332Y0136556D01*
X0152337Y0136562D01*
X0152339Y0136564D01*
X0152363Y0136591D01*
X0152389Y0136614D01*
X0152417Y0136636D01*
X0152446Y0136654D01*
X0152474Y0136669D01*
X0152502Y0136682D01*
X0152531Y0136691D01*
X0152557Y0136699D01*
X0152583Y0136706D01*
X0152607Y0136710D01*
X0152629Y0136715D01*
X0152646Y0136717D01*
X0152661Y0136719D01*
X0152683D01*
X0152742Y0136715D01*
D02*
G37*
G36*
X0151569D02*
X0151624Y0136706D01*
X0151670Y0136691D01*
X0151709Y0136676D01*
X0151742Y0136660D01*
X0151752Y0136652D01*
X0151763Y0136645D01*
X0151772Y0136641D01*
X0151778Y0136636D01*
X0151781Y0136632D01*
X0151783D01*
X0151822Y0136595D01*
X0151855Y0136556D01*
X0151883Y0136512D01*
X0151905Y0136473D01*
X0151922Y0136436D01*
X0151931Y0136420D01*
X0151936Y0136405D01*
X0151940Y0136394D01*
X0151944Y0136386D01*
X0151946Y0136381D01*
Y0136379D01*
X0151957Y0136346D01*
X0151966Y0136314D01*
X0151979Y0136244D01*
X0151990Y0136172D01*
X0151997Y0136102D01*
X0151999Y0136072D01*
X0152001Y0136043D01*
Y0136017D01*
X0152003Y0135993D01*
Y0135976D01*
Y0135960D01*
Y0135952D01*
Y0135950D01*
Y0135908D01*
X0152001Y0135869D01*
Y0135834D01*
X0151999Y0135799D01*
X0151994Y0135769D01*
X0151992Y0135738D01*
X0151990Y0135712D01*
X0151986Y0135688D01*
X0151983Y0135666D01*
X0151979Y0135646D01*
X0151977Y0135631D01*
X0151975Y0135618D01*
X0151972Y0135607D01*
X0151970Y0135601D01*
X0151968Y0135596D01*
Y0135594D01*
X0151955Y0135546D01*
X0151940Y0135503D01*
X0151922Y0135466D01*
X0151909Y0135433D01*
X0151894Y0135405D01*
X0151885Y0135385D01*
X0151877Y0135374D01*
X0151874Y0135370D01*
X0151850Y0135337D01*
X0151827Y0135309D01*
X0151800Y0135285D01*
X0151776Y0135263D01*
X0151754Y0135248D01*
X0151737Y0135237D01*
X0151726Y0135230D01*
X0151724Y0135228D01*
X0151722D01*
X0151687Y0135211D01*
X0151650Y0135200D01*
X0151615Y0135191D01*
X0151582Y0135184D01*
X0151554Y0135180D01*
X0151530Y0135178D01*
X0151510D01*
X0151452Y0135182D01*
X0151397Y0135191D01*
X0151351Y0135206D01*
X0151312Y0135221D01*
X0151279Y0135239D01*
X0151266Y0135245D01*
X0151255Y0135254D01*
X0151247Y0135258D01*
X0151240Y0135263D01*
X0151238Y0135267D01*
X0151236D01*
X0151197Y0135302D01*
X0151164Y0135344D01*
X0151135Y0135385D01*
X0151114Y0135424D01*
X0151096Y0135461D01*
X0151087Y0135477D01*
X0151083Y0135492D01*
X0151079Y0135503D01*
X0151074Y0135511D01*
X0151072Y0135516D01*
Y0135518D01*
X0151064Y0135551D01*
X0151055Y0135583D01*
X0151042Y0135655D01*
X0151031Y0135727D01*
X0151024Y0135795D01*
X0151022Y0135827D01*
X0151020Y0135856D01*
Y0135882D01*
X0151018Y0135906D01*
Y0135923D01*
Y0135939D01*
Y0135947D01*
Y0135950D01*
X0151020Y0136026D01*
X0151024Y0136098D01*
X0151031Y0136163D01*
X0151042Y0136224D01*
X0151053Y0136281D01*
X0151066Y0136331D01*
X0151079Y0136377D01*
X0151092Y0136416D01*
X0151105Y0136451D01*
X0151120Y0136481D01*
X0151131Y0136508D01*
X0151142Y0136527D01*
X0151153Y0136545D01*
X0151159Y0136556D01*
X0151164Y0136562D01*
X0151166Y0136564D01*
X0151190Y0136591D01*
X0151216Y0136614D01*
X0151244Y0136636D01*
X0151273Y0136654D01*
X0151301Y0136669D01*
X0151329Y0136682D01*
X0151358Y0136691D01*
X0151384Y0136699D01*
X0151410Y0136706D01*
X0151434Y0136710D01*
X0151456Y0136715D01*
X0151473Y0136717D01*
X0151489Y0136719D01*
X0151510D01*
X0151569Y0136715D01*
D02*
G37*
%LPC*%
G36*
X0152696Y0136566D02*
X0152683D01*
X0152659Y0136564D01*
X0152637Y0136562D01*
X0152596Y0136547D01*
X0152559Y0136527D01*
X0152526Y0136505D01*
X0152502Y0136484D01*
X0152483Y0136464D01*
X0152472Y0136449D01*
X0152467Y0136447D01*
Y0136444D01*
X0152452Y0136418D01*
X0152439Y0136388D01*
X0152426Y0136353D01*
X0152417Y0136316D01*
X0152409Y0136276D01*
X0152402Y0136235D01*
X0152391Y0136150D01*
X0152387Y0136111D01*
X0152385Y0136074D01*
X0152382Y0136039D01*
Y0136011D01*
X0152380Y0135984D01*
Y0135965D01*
Y0135954D01*
Y0135950D01*
X0152382Y0135882D01*
X0152385Y0135821D01*
X0152389Y0135764D01*
X0152395Y0135712D01*
X0152402Y0135666D01*
X0152411Y0135625D01*
X0152419Y0135588D01*
X0152428Y0135555D01*
X0152437Y0135527D01*
X0152443Y0135503D01*
X0152452Y0135483D01*
X0152459Y0135466D01*
X0152465Y0135455D01*
X0152470Y0135446D01*
X0152474Y0135442D01*
Y0135439D01*
X0152489Y0135420D01*
X0152505Y0135402D01*
X0152522Y0135389D01*
X0152539Y0135376D01*
X0152574Y0135357D01*
X0152607Y0135344D01*
X0152635Y0135337D01*
X0152659Y0135333D01*
X0152668Y0135330D01*
X0152681D01*
X0152705Y0135333D01*
X0152729Y0135335D01*
X0152751Y0135341D01*
X0152770Y0135350D01*
X0152807Y0135370D01*
X0152840Y0135391D01*
X0152864Y0135415D01*
X0152884Y0135435D01*
X0152890Y0135444D01*
X0152895Y0135450D01*
X0152899Y0135452D01*
Y0135455D01*
X0152914Y0135481D01*
X0152927Y0135511D01*
X0152940Y0135546D01*
X0152949Y0135583D01*
X0152958Y0135623D01*
X0152964Y0135664D01*
X0152975Y0135747D01*
X0152980Y0135788D01*
X0152982Y0135825D01*
X0152984Y0135860D01*
Y0135889D01*
X0152986Y0135915D01*
Y0135934D01*
Y0135945D01*
Y0135947D01*
Y0135950D01*
Y0136017D01*
X0152982Y0136078D01*
X0152978Y0136133D01*
X0152973Y0136185D01*
X0152967Y0136229D01*
X0152958Y0136270D01*
X0152949Y0136305D01*
X0152943Y0136338D01*
X0152934Y0136364D01*
X0152925Y0136386D01*
X0152919Y0136405D01*
X0152910Y0136420D01*
X0152906Y0136431D01*
X0152901Y0136438D01*
X0152897Y0136442D01*
Y0136444D01*
X0152879Y0136466D01*
X0152862Y0136484D01*
X0152845Y0136501D01*
X0152827Y0136514D01*
X0152790Y0136536D01*
X0152757Y0136551D01*
X0152727Y0136560D01*
X0152705Y0136564D01*
X0152696Y0136566D01*
D02*
G37*
G36*
X0151523D02*
X0151510D01*
X0151486Y0136564D01*
X0151465Y0136562D01*
X0151423Y0136547D01*
X0151386Y0136527D01*
X0151353Y0136505D01*
X0151329Y0136484D01*
X0151310Y0136464D01*
X0151299Y0136449D01*
X0151295Y0136447D01*
Y0136444D01*
X0151279Y0136418D01*
X0151266Y0136388D01*
X0151253Y0136353D01*
X0151244Y0136316D01*
X0151236Y0136276D01*
X0151229Y0136235D01*
X0151218Y0136150D01*
X0151214Y0136111D01*
X0151212Y0136074D01*
X0151209Y0136039D01*
Y0136011D01*
X0151207Y0135984D01*
Y0135965D01*
Y0135954D01*
Y0135950D01*
X0151209Y0135882D01*
X0151212Y0135821D01*
X0151216Y0135764D01*
X0151223Y0135712D01*
X0151229Y0135666D01*
X0151238Y0135625D01*
X0151247Y0135588D01*
X0151255Y0135555D01*
X0151264Y0135527D01*
X0151271Y0135503D01*
X0151279Y0135483D01*
X0151286Y0135466D01*
X0151292Y0135455D01*
X0151297Y0135446D01*
X0151301Y0135442D01*
Y0135439D01*
X0151316Y0135420D01*
X0151332Y0135402D01*
X0151349Y0135389D01*
X0151366Y0135376D01*
X0151401Y0135357D01*
X0151434Y0135344D01*
X0151462Y0135337D01*
X0151486Y0135333D01*
X0151495Y0135330D01*
X0151508D01*
X0151532Y0135333D01*
X0151556Y0135335D01*
X0151578Y0135341D01*
X0151598Y0135350D01*
X0151635Y0135370D01*
X0151667Y0135391D01*
X0151691Y0135415D01*
X0151711Y0135435D01*
X0151717Y0135444D01*
X0151722Y0135450D01*
X0151726Y0135452D01*
Y0135455D01*
X0151742Y0135481D01*
X0151754Y0135511D01*
X0151768Y0135546D01*
X0151776Y0135583D01*
X0151785Y0135623D01*
X0151792Y0135664D01*
X0151803Y0135747D01*
X0151807Y0135788D01*
X0151809Y0135825D01*
X0151811Y0135860D01*
Y0135889D01*
X0151813Y0135915D01*
Y0135934D01*
Y0135945D01*
Y0135947D01*
Y0135950D01*
Y0136017D01*
X0151809Y0136078D01*
X0151805Y0136133D01*
X0151800Y0136185D01*
X0151794Y0136229D01*
X0151785Y0136270D01*
X0151776Y0136305D01*
X0151770Y0136338D01*
X0151761Y0136364D01*
X0151752Y0136386D01*
X0151746Y0136405D01*
X0151737Y0136420D01*
X0151733Y0136431D01*
X0151728Y0136438D01*
X0151724Y0136442D01*
Y0136444D01*
X0151707Y0136466D01*
X0151689Y0136484D01*
X0151672Y0136501D01*
X0151654Y0136514D01*
X0151617Y0136536D01*
X0151584Y0136551D01*
X0151554Y0136560D01*
X0151532Y0136564D01*
X0151523Y0136566D01*
D02*
G37*
%LPD*%
D10*
X0129260Y0180965D02*
G03*
X0129260Y0180965I-0000394J0000000D01*
G01*
D11*
X0171207Y0169095D02*
X0184199D01*
X0171207Y0162795D02*
Y0169095D01*
Y0162795D02*
X0184199D01*
Y0169095D01*
X0183018Y0162795D02*
Y0169095D01*
X0160244Y0164252D02*
X0167724D01*
X0160244Y0168189D02*
X0167724D01*
X0160244Y0164252D02*
Y0168189D01*
X0167724Y0164252D02*
Y0168189D01*
X0166996Y0142165D02*
X0178925D01*
X0166957Y0142126D02*
X0166996Y0142165D01*
X0166957Y0142126D02*
Y0155472D01*
X0178847D01*
X0178925Y0155394D01*
Y0142165D02*
Y0155394D01*
X0133472Y0191063D02*
X0137409D01*
X0133472Y0183583D02*
X0137409D01*
X0133472D02*
Y0191063D01*
X0137409Y0183583D02*
Y0191063D01*
X0158472Y0136535D02*
X0165953D01*
X0158472Y0140472D02*
X0165953D01*
X0158472Y0136535D02*
Y0140472D01*
X0165953Y0136535D02*
Y0140472D01*
X0145874Y0131865D02*
Y0139154D01*
X0157370Y0131865D02*
Y0139154D01*
X0150343Y0141614D02*
X0152902D01*
X0145874Y0131865D02*
X0149811D01*
X0153433D02*
X0157370D01*
X0184752Y0158799D02*
Y0166476D01*
X0180618Y0158799D02*
Y0166476D01*
X0184752D01*
X0180618Y0158799D02*
X0184752D01*
X0170028Y0184390D02*
X0174161D01*
X0170028Y0176713D02*
X0174161D01*
X0170028D02*
Y0184390D01*
X0174161Y0176713D02*
Y0184390D01*
X0165677Y0178701D02*
Y0186181D01*
X0169614Y0178701D02*
Y0186181D01*
X0165677D02*
X0169614D01*
X0165677Y0178701D02*
X0169614D01*
X0136406Y0161161D02*
Y0165295D01*
X0128728Y0161161D02*
Y0165295D01*
X0136406D01*
X0128728Y0161161D02*
X0136406D01*
Y0165689D02*
Y0169823D01*
X0128728Y0165689D02*
Y0169823D01*
X0136406D01*
X0128728Y0165689D02*
X0136406D01*
X0139380Y0170439D02*
Y0175939D01*
X0127880Y0170439D02*
X0139380D01*
X0127880D02*
Y0175939D01*
X0139380D01*
X0141189Y0143150D02*
X0145126D01*
X0141189Y0135669D02*
X0145126D01*
X0141189D02*
Y0143150D01*
X0145126Y0135669D02*
Y0143150D01*
X0133197Y0135512D02*
Y0139449D01*
X0140677Y0135512D02*
Y0139449D01*
X0133197Y0135512D02*
X0140677D01*
X0133197Y0139449D02*
X0140677D01*
X0144850Y0131378D02*
Y0135315D01*
X0137370Y0131378D02*
Y0135315D01*
X0144850D01*
X0137370Y0131378D02*
X0144850D01*
X0158453Y0131988D02*
X0166130D01*
X0158453Y0136122D02*
X0166130D01*
X0158453Y0131988D02*
Y0136122D01*
X0166130Y0131988D02*
Y0136122D01*
X0127488Y0182705D02*
X0176988D01*
Y0136705D02*
Y0182705D01*
X0127488Y0136705D02*
X0176988D01*
X0127488D02*
Y0182705D01*
X0136209Y0133327D02*
X0143886D01*
X0136209Y0129193D02*
X0143886D01*
X0136209D02*
Y0133327D01*
X0143886Y0129193D02*
Y0133327D01*
X0181443Y0167125D02*
Y0164764D01*
X0180262D01*
X0179869Y0165157D01*
Y0166732D01*
X0180262Y0167125D01*
X0181443D01*
X0179082Y0164764D02*
X0178295D01*
X0178688D01*
Y0167125D01*
X0179082Y0166732D01*
X0175355Y0147073D02*
X0176011Y0146417D01*
Y0145105D01*
X0175355Y0144449D01*
X0172731D01*
X0172075Y0145105D01*
Y0146417D01*
X0172731Y0147073D01*
X0176011Y0150352D02*
Y0149040D01*
X0175355Y0148384D01*
X0172731D01*
X0172075Y0149040D01*
Y0150352D01*
X0172731Y0151008D01*
X0175355D01*
X0176011Y0150352D01*
X0172075Y0152320D02*
X0176011D01*
X0172075Y0154944D01*
X0176011D01*
X0172075Y0158880D02*
Y0156256D01*
X0174699Y0158880D01*
X0175355D01*
X0176011Y0158224D01*
Y0156912D01*
X0175355Y0156256D01*
X0148276Y0135710D02*
X0150112D01*
X0149194D01*
Y0138465D01*
X0151031D02*
X0151949D01*
X0151490D01*
Y0135710D01*
X0151031Y0136169D01*
X0135806Y0174157D02*
X0136199Y0174550D01*
X0136986D01*
X0137380Y0174157D01*
Y0172582D01*
X0136986Y0172189D01*
X0136199D01*
X0135806Y0172582D01*
X0135019Y0174550D02*
X0133444D01*
Y0174157D01*
X0135019Y0172582D01*
Y0172189D01*
X0136488Y0164640D02*
Y0161361D01*
X0137144Y0160705D01*
X0138456D01*
X0139112Y0161361D01*
Y0164640D01*
X0140424Y0160705D02*
X0141736D01*
X0141080D01*
Y0164640D01*
X0140424Y0163985D01*
D12*
X0139988Y0198961D02*
X0164988D01*
X0139988Y0185961D02*
Y0198961D01*
Y0185961D02*
X0164988D01*
Y0198961D01*
X0156889Y0193585D02*
X0157414Y0194109D01*
X0158463D01*
X0158988Y0193585D01*
Y0191485D01*
X0158463Y0190961D01*
X0157414D01*
X0156889Y0191485D01*
X0154265Y0194109D02*
X0155315D01*
X0155840Y0193585D01*
Y0191485D01*
X0155315Y0190961D01*
X0154265D01*
X0153741Y0191485D01*
Y0193585D01*
X0154265Y0194109D01*
X0152691Y0190961D02*
Y0194109D01*
X0150592Y0190961D01*
Y0194109D01*
X0149542Y0193585D02*
X0149018Y0194109D01*
X0147968D01*
X0147443Y0193585D01*
Y0193060D01*
X0147968Y0192535D01*
X0148493D01*
X0147968D01*
X0147443Y0192010D01*
Y0191485D01*
X0147968Y0190961D01*
X0149018D01*
X0149542Y0191485D01*
D56*
X0146366Y0137693D02*
G03*
X0146366Y0137693I-0000492J0000000D01*
G01*
D58*
X0166937Y0164842D02*
Y0167204D01*
X0165756D01*
X0165363Y0166810D01*
Y0166023D01*
X0165756Y0165630D01*
X0166937D01*
X0166150D02*
X0165363Y0164842D01*
X0164576Y0166810D02*
X0164182Y0167204D01*
X0163395D01*
X0163001Y0166810D01*
Y0166417D01*
X0163395Y0166023D01*
X0163788D01*
X0163395D01*
X0163001Y0165630D01*
Y0165236D01*
X0163395Y0164842D01*
X0164182D01*
X0164576Y0165236D01*
X0136819Y0190276D02*
X0134457D01*
Y0189095D01*
X0134851Y0188701D01*
X0135638D01*
X0136032Y0189095D01*
Y0190276D01*
Y0189488D02*
X0136819Y0188701D01*
Y0187914D02*
Y0187127D01*
Y0187521D01*
X0134457D01*
X0134851Y0187914D01*
X0165165Y0137126D02*
Y0139487D01*
X0163985D01*
X0163591Y0139094D01*
Y0138307D01*
X0163985Y0137913D01*
X0165165D01*
X0164378D02*
X0163591Y0137126D01*
X0161230Y0139487D02*
X0162804D01*
Y0138307D01*
X0162017Y0138700D01*
X0161623D01*
X0161230Y0138307D01*
Y0137520D01*
X0161623Y0137126D01*
X0162410D01*
X0162804Y0137520D01*
X0181997Y0161456D02*
X0181603Y0161063D01*
Y0160275D01*
X0181997Y0159882D01*
X0183571D01*
X0183965Y0160275D01*
Y0161063D01*
X0183571Y0161456D01*
X0183965Y0162243D02*
Y0163031D01*
Y0162637D01*
X0181603D01*
X0181997Y0162243D01*
X0171406Y0181733D02*
X0171013Y0182126D01*
Y0182913D01*
X0171406Y0183307D01*
X0172980D01*
X0173374Y0182913D01*
Y0182126D01*
X0172980Y0181733D01*
X0173374Y0179765D02*
X0171013D01*
X0172193Y0180946D01*
Y0179371D01*
X0166268Y0179488D02*
X0168629D01*
Y0180669D01*
X0168236Y0181062D01*
X0167448D01*
X0167055Y0180669D01*
Y0179488D01*
Y0180275D02*
X0166268Y0181062D01*
Y0183424D02*
Y0181850D01*
X0167842Y0183424D01*
X0168236D01*
X0168629Y0183030D01*
Y0182243D01*
X0168236Y0181850D01*
X0133749Y0163917D02*
X0134142Y0164310D01*
X0134929D01*
X0135323Y0163917D01*
Y0162342D01*
X0134929Y0161949D01*
X0134142D01*
X0133749Y0162342D01*
X0131387Y0164310D02*
X0132174Y0163917D01*
X0132961Y0163129D01*
Y0162342D01*
X0132568Y0161949D01*
X0131781D01*
X0131387Y0162342D01*
Y0162736D01*
X0131781Y0163129D01*
X0132961D01*
X0133749Y0168444D02*
X0134142Y0168838D01*
X0134929D01*
X0135323Y0168444D01*
Y0166870D01*
X0134929Y0166476D01*
X0134142D01*
X0133749Y0166870D01*
X0131387Y0168838D02*
X0132961D01*
Y0167657D01*
X0132174Y0168051D01*
X0131781D01*
X0131387Y0167657D01*
Y0166870D01*
X0131781Y0166476D01*
X0132568D01*
X0132961Y0166870D01*
X0144535Y0142362D02*
X0142174D01*
Y0141182D01*
X0142568Y0140788D01*
X0143355D01*
X0143748Y0141182D01*
Y0142362D01*
Y0141575D02*
X0144535Y0140788D01*
X0142174Y0138426D02*
X0142568Y0139214D01*
X0143355Y0140001D01*
X0144142D01*
X0144535Y0139607D01*
Y0138820D01*
X0144142Y0138426D01*
X0143748D01*
X0143355Y0138820D01*
Y0140001D01*
X0133984Y0138858D02*
Y0136497D01*
X0135165D01*
X0135558Y0136890D01*
Y0137678D01*
X0135165Y0138071D01*
X0133984D01*
X0134771D02*
X0135558Y0138858D01*
X0136346Y0136497D02*
X0137920D01*
Y0136890D01*
X0136346Y0138465D01*
Y0138858D01*
X0144063Y0131968D02*
Y0134330D01*
X0142882D01*
X0142489Y0133936D01*
Y0133149D01*
X0142882Y0132756D01*
X0144063D01*
X0143276D02*
X0142489Y0131968D01*
X0140521D02*
Y0134330D01*
X0141701Y0133149D01*
X0140127D01*
X0163473Y0134743D02*
X0163866Y0135137D01*
X0164654D01*
X0165047Y0134743D01*
Y0133169D01*
X0164654Y0132776D01*
X0163866D01*
X0163473Y0133169D01*
X0162686Y0132776D02*
X0161899D01*
X0162292D01*
Y0135137D01*
X0162686Y0134743D01*
X0160718Y0132776D02*
X0159931D01*
X0160324D01*
Y0135137D01*
X0160718Y0134743D01*
X0141229Y0130571D02*
X0141622Y0130178D01*
X0142410D01*
X0142803Y0130571D01*
Y0132146D01*
X0142410Y0132539D01*
X0141622D01*
X0141229Y0132146D01*
X0140442D02*
X0140048Y0132539D01*
X0139261D01*
X0138867Y0132146D01*
Y0130571D01*
X0139261Y0130178D01*
X0140048D01*
X0140442Y0130571D01*
Y0130965D01*
X0140048Y0131359D01*
X0138867D01*
M02*
