G04*
G04 #@! TF.GenerationSoftware,Altium Limited,Altium Designer,19.1.5 (86)*
G04*
G04 Layer_Color=128*
%FSAX25Y25*%
%MOIN*%
G70*
G01*
G75*
%ADD18R,0.02520X0.02362*%
%ADD21R,0.02362X0.02520*%
%ADD40R,0.03150X0.03150*%
%ADD41R,0.01968X0.02362*%
%ADD42R,0.08661X0.04134*%
%ADD43R,0.03937X0.03937*%
%ADD44R,0.02362X0.01968*%
%ADD45R,0.01890X0.03740*%
%ADD55C,0.00039*%
D18*
X0172095Y0182441D02*
D03*
Y0178661D02*
D03*
D21*
X0134457Y0163228D02*
D03*
X0130677D02*
D03*
X0134457Y0167756D02*
D03*
X0130677D02*
D03*
X0160402Y0134055D02*
D03*
X0164181D02*
D03*
D40*
X0173963Y0165945D02*
D03*
X0180262D02*
D03*
X0130677Y0173189D02*
D03*
X0136583D02*
D03*
D41*
X0162016Y0166220D02*
D03*
X0165953D02*
D03*
X0160244Y0138504D02*
D03*
X0164181D02*
D03*
X0134968Y0137480D02*
D03*
X0138906D02*
D03*
X0143079Y0133346D02*
D03*
X0139142D02*
D03*
D42*
X0172756Y0154587D02*
D03*
Y0142972D02*
D03*
D43*
X0178661Y0148779D02*
D03*
D44*
X0135441Y0189291D02*
D03*
Y0185354D02*
D03*
X0167646Y0184409D02*
D03*
Y0180473D02*
D03*
X0143157Y0141378D02*
D03*
Y0137441D02*
D03*
D45*
X0147803Y0140512D02*
D03*
X0155441D02*
D03*
X0151622Y0132874D02*
D03*
D55*
X0147488Y0194961D02*
D03*
X0147173Y0189961D02*
D03*
X0152488Y0194961D02*
D03*
Y0189961D02*
D03*
X0157488Y0194961D02*
D03*
Y0189961D02*
D03*
M02*
