G04*
G04 #@! TF.GenerationSoftware,Altium Limited,Altium Designer,19.1.5 (86)*
G04*
G04 Layer_Color=8388736*
%FSAX25Y25*%
%MOIN*%
G70*
G01*
G75*
%ADD22R,0.03320X0.03162*%
%ADD23R,0.07493X0.02769*%
%ADD24R,0.02769X0.07493*%
G04:AMPARAMS|DCode=25|XSize=67.06mil|YSize=67.06mil|CornerRadius=9.91mil|HoleSize=0mil|Usage=FLASHONLY|Rotation=0.000|XOffset=0mil|YOffset=0mil|HoleType=Round|Shape=RoundedRectangle|*
%AMROUNDEDRECTD25*
21,1,0.06706,0.04724,0,0,0.0*
21,1,0.04724,0.06706,0,0,0.0*
1,1,0.01981,0.02362,-0.02362*
1,1,0.01981,-0.02362,-0.02362*
1,1,0.01981,-0.02362,0.02362*
1,1,0.01981,0.02362,0.02362*
%
%ADD25ROUNDEDRECTD25*%
%ADD26R,0.06706X0.06706*%
%ADD27R,0.03162X0.03320*%
%ADD28C,0.01784*%
%ADD29C,0.06706*%
%ADD30C,0.04343*%
D22*
X0182685Y0164528D02*
D03*
Y0160748D02*
D03*
D23*
X0129102Y0177224D02*
D03*
Y0174075D02*
D03*
Y0170886D02*
D03*
Y0167736D02*
D03*
Y0164587D02*
D03*
Y0161437D02*
D03*
Y0158327D02*
D03*
Y0155138D02*
D03*
Y0151988D02*
D03*
Y0148878D02*
D03*
Y0145689D02*
D03*
Y0142579D02*
D03*
X0175567Y0142559D02*
D03*
Y0145713D02*
D03*
X0175567Y0148870D02*
D03*
X0175567Y0152008D02*
D03*
X0175567Y0155157D02*
D03*
X0175567Y0158307D02*
D03*
X0175559Y0161437D02*
D03*
Y0164626D02*
D03*
Y0167776D02*
D03*
Y0170886D02*
D03*
Y0174075D02*
D03*
Y0177224D02*
D03*
D24*
X0135008Y0138425D02*
D03*
X0138165D02*
D03*
X0141315D02*
D03*
X0144465Y0138425D02*
D03*
X0147614Y0138425D02*
D03*
X0150764Y0138425D02*
D03*
X0153913D02*
D03*
X0157063Y0138429D02*
D03*
X0160213Y0138429D02*
D03*
X0163362Y0138425D02*
D03*
X0166539D02*
D03*
X0169850Y0138425D02*
D03*
X0169693Y0181358D02*
D03*
X0166504D02*
D03*
X0163394D02*
D03*
X0160244D02*
D03*
X0157095D02*
D03*
X0153945D02*
D03*
X0150795D02*
D03*
X0147646D02*
D03*
X0144496D02*
D03*
X0141347D02*
D03*
X0138197D02*
D03*
X0135008D02*
D03*
D25*
X0142496Y0169724D02*
D03*
D26*
X0152339Y0169724D02*
D03*
X0162181Y0169724D02*
D03*
X0142496Y0159882D02*
D03*
X0152339D02*
D03*
X0162181D02*
D03*
X0142398Y0150039D02*
D03*
X0152339D02*
D03*
X0162181D02*
D03*
D27*
X0138157Y0131260D02*
D03*
X0141937D02*
D03*
D28*
X0198315Y0152520D02*
D03*
X0197252Y0148150D02*
D03*
X0136728Y0203413D02*
D03*
X0132902Y0201760D02*
D03*
X0129051Y0199752D02*
D03*
X0128736Y0120236D02*
D03*
X0125087Y0122598D02*
D03*
D29*
X0192340Y0143416D02*
D03*
X0122173Y0190315D02*
D03*
X0112685Y0176440D02*
D03*
X0109181Y0160000D02*
D03*
X0112554Y0143386D02*
D03*
X0121780Y0129291D02*
D03*
X0135867Y0119854D02*
D03*
X0152488Y0116693D02*
D03*
X0169067Y0119872D02*
D03*
X0183092Y0129369D02*
D03*
X0195768Y0160000D02*
D03*
X0192328Y0176351D02*
D03*
X0182803Y0190315D02*
D03*
X0169021Y0199928D02*
D03*
X0152488Y0203307D02*
D03*
D30*
X0142488Y0188461D02*
D03*
Y0196461D02*
D03*
X0162488Y0192461D02*
D03*
M02*
