M48
;Layer_Color=9474304
;FILE_FORMAT=2:5
INCH
;TYPE=PLATED
T1F00S00C0.01181
T2F00S00C0.01575
T3F00S00C0.01968
T4F00S00C0.02362
T5F00S00C0.03937
T6F00S00C0.04331
T7F00S00C0.08268
;TYPE=NON_PLATED
T8F00S00C0.03917
%
T01
X0049496Y0153701
X0055480Y0151024
X0110284Y0150236
X0113197Y0150315
X0113276Y0147087
X0116228Y0147047
X0119102
X0110244Y0147126
X0110323Y0153386
X0112370Y0155591
X0128433Y0154921
X0131583
X0134732
X0137921
X0141071
X0141268Y0147205
X0138354Y0147244
X0135244Y0147283
X0132173Y0147362
X0129378
X0130283Y0141811
X0132803
X0127724Y0141890
X0126543Y0132126
Y0129370
X0126583Y0126102
X0127055Y0122402
X0127173Y0118347
X0123945Y0118307
X0120480Y0118347
X0117134
X0113866Y0118307
X0110835Y0118347
X0110756Y0123386
X0110795Y0126575
X0110756Y0129173
X0111268Y0135945
X0113709
X0116228
X0132253Y0130563
X0132292Y0124567
X0136260Y0120338
X0138779Y0126799
X0141071Y0133898
X0145362Y0132717
X0145992Y0130433
X0149379Y0130248
X0154141Y0123740
X0151031Y0118268
X0146780Y0118228
X0145283Y0138976
X0142732Y0139028
X0140244Y0139016
X0138591Y0141654
X0144358Y0147185
X0155992Y0144724
Y0141850
X0156071Y0138740
X0157173Y0134331
X0160087Y0133976
X0159653Y0145197
X0163276Y0145079
X0173118Y0143976
X0178276Y0140827
X0182685Y0143819
X0177567Y0149961
X0176150Y0155000
X0168236Y0152953
X0157213Y0155984
X0173974Y0134872
X0177842Y0132165
X0180992Y0132953
X0186240Y0134409
X0188945Y0138031
X0191110Y0150236
X0203886Y0153878
X0206583Y0145591
X0217645Y0149528
X0216976Y0128898
Y0125866
X0216937Y0122913
Y0119882
X0194378Y0120787
X0193512Y0127362
X0197291Y0127284
X0184142Y0126181
X0183590Y0120079
X0180834
X0174024Y0121890
X0168748Y0120079
X0168276Y0160000
X0158039Y0159803
X0173236Y0166575
X0175205Y0164803
X0174535Y0176024
X0176661Y0177874
X0179535Y0177835
X0182409Y0177795
X0182370Y0180945
X0179496
X0176622
X0173748
X0170874
X0167331Y0181732
X0164457
X0161583
X0158709
X0165953Y0178110
X0168591Y0178189
X0191937Y0181024
X0194811
X0197685
X0200559
X0203433
X0205953Y0181063
X0208866
X0211740
X0214614
X0217488
Y0177520
X0214693Y0177480
X0211858
X0209024
X0206150
X0203315
X0200480
X0197606
X0210913Y0168661
X0188118Y0162323
X0151701Y0160984
X0141504Y0161102
X0138905Y0165787
X0132606Y0166535
X0132567Y0163543
X0131150Y0161260
X0128197
X0125323Y0162362
X0123748Y0157047
X0118079Y0159016
X0118472Y0161496
X0114772Y0157717
X0106583Y0158346
X0111228Y0164685
X0113512Y0167480
X0116779Y0168347
X0118197Y0173386
X0118236Y0176260
X0118276Y0179134
Y0181850
X0121150
X0124024
X0115362
X0135520
X0138433
X0141347
X0144220Y0181811
X0150008Y0181732
X0152882
X0155795
X0147764Y0170158
X0131740Y0176654
X0063669Y0158622
T02
X0102685Y0144252
Y0148189
Y0151339
Y0155276
Y0158425
Y0162362
T03
X0122567Y0115709
X0125520
X0128472
X0121858Y0130157
X0118512
X0115126Y0130079
X0115559Y0141575
X0118748Y0141654
X0112370
X0190480Y0115709
X0193433
X0196386
X0196386Y0184606
X0193433
X0190480
X0185992Y0178465
X0146622
X0128472Y0184606
X0125520
X0122567
T04
X0205283Y0165748
T05
X0116858Y0153307
X0215268Y0133622
Y0172992
T06
X0120524Y0135898
T07
X0074142Y0141496
Y0165118
T08
X0051382Y0143622
X0059382
X0055382Y0163622
M30
