M48
;Layer_Color=9474304
;FILE_FORMAT=2:5
INCH
;TYPE=PLATED
T1F00S00C0.01181
T2F00S00C0.01968
%
T01
X0472441Y0283465
X0478346
X0484252
X0490157
X0496063
X0499016Y0289370
X0493110
X0487205
X0481299
X0475393
X0469488
X0463583
X0457677
X0451771
X0448819Y0295275
X0448740Y0300728
X0446181
X0443425
X0440669
X0437913
X0435354
X0432598
X0429646Y0300925
X0428071Y0303091
X0428268Y0305847
X0430827Y0307028
X0433779Y0307224
X0436535
X0439291
X0447756Y0307028
X0450512Y0306831
X0453050Y0306993
X0453815Y0300763
X0456284
X0458752
X0451347Y0300818
X0442913Y0295275
X0437008
X0431102
X0425197
X0419291
X0413386
X0407480
X0401575
X0404527Y0289370
X0410433
X0416338
X0422244
X0428150
X0434055
X0431102Y0283465
X0437008
X0448819
X0454724
X0460630
X0466535
X0425197
X0419291
X0413386
X0407480
X0401575
X0410433Y0301181
X0416338
X0422244
X0419291Y0307086
X0425197
X0413386
X0416338Y0312992
X0422244
X0428150
X0434055
X0439960
X0445866
X0451771
X0457677
X0454724Y0318898
X0448819
X0442913
X0437008
X0431102
X0425197
X0419291
X0413386
X0407480
X0401575
X0404527Y0324803
X0410433
X0416338
X0422244
X0428150
X0434055
X0439960
X0445866
X0451771
X0457677
X0454724Y0330709
X0448819
X0442913
X0437008
X0431102
X0425197
X0419291
X0413386
X0407480
X0401575
X0404527Y0312992
X0410433
T02
X0446575Y0276516
X0449528
X0452480
X0452480Y0339508
X0449528
X0446575
M30
