G04*
G04 #@! TF.GenerationSoftware,Altium Limited,Altium Designer,19.1.5 (86)*
G04*
G04 Layer_Physical_Order=1*
G04 Layer_Color=255*
%FSAX25Y25*%
%MOIN*%
G70*
G01*
G75*
%ADD10C,0.00787*%
%ADD11C,0.00591*%
%ADD14C,0.01575*%
%ADD15C,0.01968*%
%ADD16C,0.01181*%
%ADD17C,0.01968*%
G36*
X0113395Y0132895D02*
X0113378Y0132861D01*
X0113363Y0132818D01*
X0113350Y0132765D01*
X0113340Y0132702D01*
X0113324Y0132548D01*
X0113316Y0132355D01*
X0113315Y0132244D01*
X0112134D01*
X0112133Y0132355D01*
X0112109Y0132702D01*
X0112098Y0132765D01*
X0112086Y0132818D01*
X0112071Y0132861D01*
X0112054Y0132895D01*
X0112035Y0132919D01*
X0113413D01*
X0113395Y0132895D01*
D02*
G37*
G36*
X0151584Y0123053D02*
X0151567Y0123019D01*
X0151552Y0122975D01*
X0151539Y0122922D01*
X0151529Y0122860D01*
X0151513Y0122705D01*
X0151505Y0122512D01*
X0151504Y0122402D01*
X0150323D01*
X0150322Y0122512D01*
X0150298Y0122860D01*
X0150287Y0122922D01*
X0150275Y0122975D01*
X0150260Y0123019D01*
X0150243Y0123053D01*
X0150224Y0123077D01*
X0151602D01*
X0151584Y0123053D01*
D02*
G37*
G36*
X0218900Y0194916D02*
Y0117210D01*
X0149410Y0117210D01*
X0149219Y0117672D01*
X0151700Y0120153D01*
X0151941Y0120514D01*
X0152025Y0120939D01*
Y0122350D01*
X0152045Y0122397D01*
X0152046Y0122499D01*
X0152053Y0122667D01*
X0152065Y0122786D01*
X0152070Y0122813D01*
X0152073Y0122825D01*
X0152079Y0122845D01*
X0152079Y0122852D01*
X0152312Y0123200D01*
X0152427Y0123779D01*
X0152312Y0124359D01*
X0151983Y0124850D01*
X0151493Y0125178D01*
X0150913Y0125293D01*
X0150334Y0125178D01*
X0149843Y0124850D01*
X0149515Y0124359D01*
X0149400Y0123779D01*
X0149515Y0123200D01*
X0149748Y0122852D01*
X0149748Y0122845D01*
X0149754Y0122824D01*
X0149757Y0122813D01*
X0149760Y0122795D01*
X0149781Y0122492D01*
X0149782Y0122397D01*
X0149802Y0122350D01*
Y0121400D01*
X0147388Y0118986D01*
X0119524D01*
X0113836Y0124673D01*
Y0132193D01*
X0113856Y0132239D01*
X0113857Y0132342D01*
X0113864Y0132509D01*
X0113876Y0132629D01*
X0113881Y0132655D01*
X0113883Y0132667D01*
X0113890Y0132687D01*
X0113890Y0132695D01*
X0114122Y0133043D01*
X0114238Y0133622D01*
X0114122Y0134201D01*
X0113795Y0134692D01*
X0113303Y0135020D01*
X0112724Y0135135D01*
X0112145Y0135020D01*
X0111654Y0134692D01*
X0111326Y0134201D01*
X0111211Y0133622D01*
X0111326Y0133043D01*
X0111559Y0132695D01*
X0111558Y0132687D01*
X0111565Y0132667D01*
X0111568Y0132655D01*
X0111571Y0132638D01*
X0111592Y0132334D01*
X0111593Y0132239D01*
X0111612Y0132193D01*
Y0124213D01*
X0111612Y0124213D01*
X0111697Y0123787D01*
X0111938Y0123426D01*
X0117692Y0117672D01*
X0117501Y0117210D01*
X0109698D01*
Y0194916D01*
X0218900Y0194916D01*
D02*
G37*
%LPC*%
G36*
X0136740Y0187340D02*
X0136161Y0187225D01*
X0135670Y0186897D01*
X0135342Y0186406D01*
X0135239Y0185888D01*
X0135215Y0185835D01*
X0135213Y0185777D01*
X0135209Y0185744D01*
X0135202Y0185711D01*
X0135192Y0185678D01*
X0135178Y0185643D01*
X0135159Y0185606D01*
X0135135Y0185566D01*
X0135105Y0185524D01*
X0135068Y0185479D01*
X0135012Y0185421D01*
X0134992Y0185367D01*
X0133685Y0184060D01*
X0133631Y0184039D01*
X0133573Y0183984D01*
X0133529Y0183948D01*
X0133487Y0183919D01*
X0133449Y0183896D01*
X0133414Y0183879D01*
X0133381Y0183866D01*
X0133350Y0183857D01*
X0133319Y0183851D01*
X0133288Y0183848D01*
X0133231Y0183848D01*
X0133202Y0183835D01*
X0133197Y0183836D01*
X0132618Y0183721D01*
X0132127Y0183393D01*
X0131799Y0182902D01*
X0131684Y0182323D01*
X0131799Y0181744D01*
X0132127Y0181253D01*
X0132618Y0180925D01*
X0133197Y0180809D01*
X0133776Y0180925D01*
X0134267Y0181253D01*
X0134595Y0181744D01*
X0134686Y0182199D01*
X0134721Y0182272D01*
X0134725Y0182331D01*
X0134730Y0182366D01*
X0134738Y0182401D01*
X0134750Y0182436D01*
X0134765Y0182473D01*
X0134785Y0182511D01*
X0134810Y0182552D01*
X0134842Y0182596D01*
X0134880Y0182641D01*
X0134935Y0182700D01*
X0134956Y0182754D01*
X0136281Y0184079D01*
X0136334Y0184099D01*
X0136393Y0184154D01*
X0136437Y0184191D01*
X0136480Y0184221D01*
X0136519Y0184246D01*
X0136556Y0184264D01*
X0136591Y0184278D01*
X0136624Y0184289D01*
X0136657Y0184296D01*
X0136690Y0184300D01*
X0136748Y0184302D01*
X0136801Y0184326D01*
X0137319Y0184429D01*
X0137810Y0184757D01*
X0138138Y0185248D01*
X0138253Y0185827D01*
X0138138Y0186406D01*
X0137810Y0186897D01*
X0137319Y0187225D01*
X0136740Y0187340D01*
D02*
G37*
G36*
X0136937Y0175923D02*
X0136358Y0175808D01*
X0135867Y0175479D01*
X0135539Y0174989D01*
X0135424Y0174409D01*
X0135450Y0174277D01*
X0135439Y0174224D01*
X0135539Y0173722D01*
X0135824Y0173296D01*
X0136250Y0173012D01*
X0136752Y0172912D01*
X0136805Y0172922D01*
X0136937Y0172896D01*
X0137516Y0173011D01*
X0138007Y0173339D01*
X0138335Y0173830D01*
X0138450Y0174409D01*
X0138335Y0174989D01*
X0138007Y0175479D01*
X0137516Y0175808D01*
X0136937Y0175923D01*
D02*
G37*
G36*
X0148295Y0169093D02*
X0147165Y0168944D01*
X0146111Y0168508D01*
X0145206Y0167814D01*
X0144512Y0166909D01*
X0144076Y0165856D01*
X0143927Y0164725D01*
X0144076Y0163594D01*
X0144512Y0162541D01*
X0145206Y0161636D01*
X0146111Y0160942D01*
X0147165Y0160506D01*
X0148295Y0160357D01*
X0149426Y0160506D01*
X0150479Y0160942D01*
X0151384Y0161636D01*
X0152078Y0162541D01*
X0152514Y0163594D01*
X0152663Y0164725D01*
X0152514Y0165856D01*
X0152078Y0166909D01*
X0151384Y0167814D01*
X0150479Y0168508D01*
X0149426Y0168944D01*
X0148295Y0169093D01*
D02*
G37*
G36*
X0211150Y0188600D02*
X0210571Y0188485D01*
X0210080Y0188157D01*
X0209752Y0187666D01*
X0209636Y0187087D01*
X0209752Y0186507D01*
X0210080Y0186016D01*
X0210571Y0185688D01*
X0210981Y0185607D01*
X0210986Y0185601D01*
X0211005Y0185592D01*
X0211016Y0185585D01*
X0211030Y0185575D01*
X0211259Y0185375D01*
X0211327Y0185309D01*
X0211374Y0185290D01*
X0212439Y0184224D01*
Y0138138D01*
X0205854Y0131552D01*
X0205393Y0131799D01*
X0205411Y0131890D01*
X0205411Y0131890D01*
Y0145845D01*
X0205428Y0145877D01*
X0205422Y0145898D01*
X0205431Y0145919D01*
X0205435Y0146114D01*
X0205447Y0146254D01*
X0205452Y0146293D01*
X0205454Y0146301D01*
X0205776Y0146783D01*
X0205891Y0147362D01*
X0205776Y0147941D01*
X0205448Y0148432D01*
X0204957Y0148760D01*
X0204378Y0148875D01*
X0203799Y0148760D01*
X0203308Y0148432D01*
X0202980Y0147941D01*
X0202865Y0147362D01*
X0202980Y0146783D01*
X0203141Y0146542D01*
X0203138Y0146525D01*
X0203144Y0146503D01*
X0203167Y0146143D01*
X0203168Y0146046D01*
X0203187Y0145999D01*
Y0132350D01*
X0202483Y0131646D01*
X0202021Y0131838D01*
Y0147874D01*
X0201952Y0148223D01*
X0201755Y0148518D01*
X0201313Y0148960D01*
Y0150408D01*
X0201336Y0150460D01*
X0201339Y0150540D01*
X0201344Y0150598D01*
X0201353Y0150649D01*
X0201363Y0150694D01*
X0201376Y0150733D01*
X0201391Y0150768D01*
X0201407Y0150799D01*
X0201426Y0150827D01*
X0201446Y0150853D01*
X0201486Y0150896D01*
X0201506Y0150950D01*
X0201800Y0151389D01*
X0201915Y0151969D01*
X0201800Y0152548D01*
X0201472Y0153039D01*
X0200981Y0153367D01*
X0200402Y0153482D01*
X0199822Y0153367D01*
X0199331Y0153039D01*
X0199003Y0152548D01*
X0198888Y0151969D01*
X0199003Y0151389D01*
X0199297Y0150950D01*
X0199317Y0150896D01*
X0199357Y0150853D01*
X0199378Y0150827D01*
X0199396Y0150799D01*
X0199412Y0150768D01*
X0199427Y0150733D01*
X0199440Y0150694D01*
X0199451Y0150649D01*
X0199459Y0150598D01*
X0199464Y0150540D01*
X0199467Y0150460D01*
X0199490Y0150408D01*
Y0148583D01*
X0199560Y0148234D01*
X0199757Y0147938D01*
X0200199Y0147497D01*
Y0133596D01*
X0199699Y0133328D01*
X0199524Y0133445D01*
X0198945Y0133561D01*
X0198366Y0133445D01*
X0197926Y0133152D01*
X0197872Y0133132D01*
X0197830Y0133092D01*
X0197803Y0133071D01*
X0197775Y0133053D01*
X0197745Y0133037D01*
X0197710Y0133022D01*
X0197670Y0133009D01*
X0197626Y0132998D01*
X0197574Y0132990D01*
X0197517Y0132984D01*
X0197436Y0132982D01*
X0197384Y0132958D01*
X0194165D01*
X0193644Y0133479D01*
X0193349Y0133677D01*
X0193043Y0133737D01*
X0192970Y0133769D01*
X0192881Y0133772D01*
X0192815Y0133777D01*
X0192758Y0133784D01*
X0192712Y0133794D01*
X0192676Y0133804D01*
X0192650Y0133814D01*
X0192634Y0133823D01*
X0192624Y0133828D01*
X0192621Y0133831D01*
X0192597Y0133855D01*
X0192594Y0133857D01*
X0192592Y0133860D01*
X0192553Y0133877D01*
X0192535Y0133905D01*
X0192044Y0134233D01*
X0191465Y0134348D01*
X0191017Y0134259D01*
X0190683Y0134498D01*
X0190581Y0134631D01*
X0190616Y0134803D01*
X0190500Y0135382D01*
X0190173Y0135873D01*
X0189681Y0136201D01*
X0189102Y0136317D01*
X0166643D01*
X0166376Y0136817D01*
X0166485Y0136980D01*
X0166600Y0137559D01*
X0166485Y0138138D01*
X0166157Y0138629D01*
X0165666Y0138957D01*
X0165087Y0139072D01*
X0164507Y0138957D01*
X0164068Y0138664D01*
X0164014Y0138643D01*
X0163972Y0138604D01*
X0163945Y0138583D01*
X0163917Y0138565D01*
X0163886Y0138549D01*
X0163852Y0138534D01*
X0163812Y0138521D01*
X0163767Y0138510D01*
X0163716Y0138502D01*
X0163658Y0138496D01*
X0163578Y0138494D01*
X0163526Y0138470D01*
X0162748D01*
X0162542Y0138676D01*
X0162246Y0138873D01*
X0161898Y0138943D01*
X0146212D01*
X0144550Y0140605D01*
X0144254Y0140802D01*
X0143906Y0140872D01*
X0133104D01*
X0133052Y0140895D01*
X0132972Y0140898D01*
X0132914Y0140903D01*
X0132863Y0140912D01*
X0132818Y0140922D01*
X0132778Y0140935D01*
X0132744Y0140950D01*
X0132713Y0140966D01*
X0132685Y0140984D01*
X0132658Y0141005D01*
X0132574Y0141533D01*
X0132606Y0141554D01*
X0132934Y0142045D01*
X0132964Y0142199D01*
X0143039D01*
X0143388Y0142268D01*
X0143684Y0142466D01*
X0146291Y0145073D01*
X0146345Y0145094D01*
X0146404Y0145150D01*
X0146451Y0145189D01*
X0146496Y0145223D01*
X0146540Y0145251D01*
X0146581Y0145274D01*
X0146621Y0145292D01*
X0146660Y0145306D01*
X0146698Y0145317D01*
X0146737Y0145324D01*
X0146797Y0145331D01*
X0146889Y0145382D01*
X0147240Y0145452D01*
X0147731Y0145780D01*
X0148059Y0146271D01*
X0148175Y0146850D01*
X0148059Y0147430D01*
X0147731Y0147921D01*
X0147240Y0148249D01*
X0146661Y0148364D01*
X0146082Y0148249D01*
X0145591Y0147921D01*
X0145493Y0147774D01*
X0144904Y0147792D01*
X0144739Y0148039D01*
X0144248Y0148367D01*
X0143669Y0148482D01*
X0143090Y0148367D01*
X0142599Y0148039D01*
X0142271Y0147548D01*
X0142156Y0146968D01*
X0142169Y0146905D01*
X0142149Y0146850D01*
X0142151Y0146795D01*
X0142150Y0146768D01*
X0142146Y0146742D01*
X0142139Y0146715D01*
X0142129Y0146687D01*
X0142114Y0146655D01*
X0142094Y0146620D01*
X0142066Y0146581D01*
X0142032Y0146538D01*
X0141977Y0146480D01*
X0141971Y0146464D01*
X0141955Y0146455D01*
X0141942Y0146412D01*
X0141638Y0146108D01*
X0133868D01*
X0133712Y0146537D01*
X0133709Y0146608D01*
X0137826Y0150725D01*
X0138110Y0151151D01*
X0138210Y0151654D01*
Y0158565D01*
X0138493Y0158988D01*
X0138608Y0159567D01*
X0138493Y0160146D01*
X0138165Y0160637D01*
X0137674Y0160965D01*
X0137094Y0161080D01*
X0136515Y0160965D01*
X0136024Y0160637D01*
X0135696Y0160146D01*
X0135581Y0159567D01*
X0135585Y0159547D01*
Y0152197D01*
X0134950Y0151562D01*
X0134488Y0151753D01*
Y0165378D01*
X0134513Y0165431D01*
X0134516Y0165495D01*
X0134521Y0165534D01*
X0134530Y0165575D01*
X0134543Y0165617D01*
X0134561Y0165662D01*
X0134585Y0165710D01*
X0134615Y0165761D01*
X0134652Y0165815D01*
X0134697Y0165872D01*
X0134759Y0165943D01*
X0134789Y0166031D01*
X0135028Y0166389D01*
X0135143Y0166969D01*
X0135028Y0167548D01*
X0134700Y0168039D01*
X0134209Y0168367D01*
X0133630Y0168482D01*
X0133051Y0168367D01*
X0132560Y0168039D01*
X0132232Y0167548D01*
X0132117Y0166969D01*
X0132232Y0166389D01*
X0132560Y0165898D01*
X0132585Y0165882D01*
X0132603Y0165841D01*
X0132667Y0165780D01*
X0132711Y0165733D01*
X0132746Y0165688D01*
X0132774Y0165647D01*
X0132796Y0165607D01*
X0132813Y0165570D01*
X0132825Y0165535D01*
X0132833Y0165500D01*
X0132838Y0165464D01*
X0132841Y0165401D01*
X0132842Y0165399D01*
X0132841Y0165398D01*
X0132866Y0165346D01*
Y0164862D01*
X0132366Y0164595D01*
X0132319Y0164626D01*
X0131740Y0164742D01*
X0131161Y0164626D01*
X0130670Y0164298D01*
X0130342Y0163807D01*
X0130227Y0163228D01*
X0130342Y0162649D01*
X0130670Y0162158D01*
X0131161Y0161830D01*
X0131577Y0161747D01*
Y0152157D01*
X0131158Y0151738D01*
X0125677D01*
X0125328Y0151669D01*
X0125033Y0151471D01*
X0124088Y0150526D01*
X0123890Y0150231D01*
X0123856Y0150058D01*
X0123662Y0149928D01*
X0123334Y0149437D01*
X0123219Y0148858D01*
X0123334Y0148279D01*
X0123662Y0147788D01*
X0124093Y0147501D01*
X0124416Y0147085D01*
X0124355Y0146775D01*
Y0144639D01*
X0124329Y0144585D01*
X0124327Y0144522D01*
X0124321Y0144484D01*
X0124313Y0144447D01*
X0124300Y0144408D01*
X0124283Y0144367D01*
X0124259Y0144323D01*
X0124230Y0144277D01*
X0124194Y0144227D01*
X0124150Y0144175D01*
X0124086Y0144110D01*
X0124066Y0144058D01*
X0123767Y0143611D01*
X0123652Y0143032D01*
X0123767Y0142452D01*
X0124095Y0141961D01*
X0124377Y0141773D01*
X0124225Y0141273D01*
X0123465D01*
X0117184Y0147554D01*
X0117115Y0147902D01*
X0116787Y0148393D01*
X0116296Y0148721D01*
X0115717Y0148836D01*
X0115137Y0148721D01*
X0114646Y0148393D01*
X0114318Y0147902D01*
X0114203Y0147323D01*
X0114318Y0146744D01*
X0114646Y0146253D01*
X0115027Y0145998D01*
X0121993Y0139032D01*
X0122419Y0138748D01*
X0122921Y0138648D01*
X0126282D01*
X0126316Y0138632D01*
X0126606Y0138622D01*
X0126866Y0138593D01*
X0127116Y0138546D01*
X0127356Y0138479D01*
X0127588Y0138394D01*
X0127811Y0138291D01*
X0128028Y0138168D01*
X0128238Y0138025D01*
X0128442Y0137861D01*
X0128655Y0137663D01*
X0128690Y0137650D01*
X0130458Y0135883D01*
X0130884Y0135598D01*
X0131386Y0135498D01*
X0131368Y0135006D01*
X0126132D01*
X0125783Y0134936D01*
X0125487Y0134739D01*
X0125201Y0134452D01*
X0125148Y0134432D01*
X0125089Y0134377D01*
X0125044Y0134340D01*
X0125002Y0134310D01*
X0124962Y0134285D01*
X0124926Y0134267D01*
X0124891Y0134253D01*
X0124857Y0134242D01*
X0124825Y0134235D01*
X0124792Y0134231D01*
X0124733Y0134229D01*
X0124681Y0134205D01*
X0124162Y0134102D01*
X0123672Y0133774D01*
X0123344Y0133283D01*
X0123228Y0132704D01*
X0123344Y0132125D01*
X0123672Y0131634D01*
X0124162Y0131306D01*
X0124742Y0131191D01*
X0125321Y0131306D01*
X0125407Y0131364D01*
X0125893Y0131468D01*
X0126221Y0130977D01*
X0126712Y0130649D01*
X0127291Y0130534D01*
X0127871Y0130649D01*
X0128310Y0130943D01*
X0128364Y0130963D01*
X0128406Y0131003D01*
X0128433Y0131023D01*
X0128461Y0131042D01*
X0128492Y0131058D01*
X0128526Y0131072D01*
X0128566Y0131085D01*
X0128611Y0131096D01*
X0128662Y0131105D01*
X0128720Y0131110D01*
X0128800Y0131113D01*
X0128852Y0131136D01*
X0134512D01*
X0138970Y0126679D01*
X0139266Y0126481D01*
X0139614Y0126412D01*
X0142646D01*
X0142994Y0126481D01*
X0143290Y0126679D01*
X0147196Y0130585D01*
X0188882D01*
X0189390Y0130078D01*
X0189198Y0129616D01*
X0179063D01*
X0179063Y0129616D01*
X0178638Y0129531D01*
X0178277Y0129290D01*
X0173946Y0124960D01*
X0171516Y0122529D01*
X0169862D01*
X0169816Y0122549D01*
X0169714Y0122550D01*
X0169546Y0122557D01*
X0169427Y0122569D01*
X0169400Y0122574D01*
X0169388Y0122576D01*
X0169368Y0122583D01*
X0169360Y0122583D01*
X0169012Y0122816D01*
X0168433Y0122931D01*
X0167854Y0122816D01*
X0167363Y0122487D01*
X0167035Y0121996D01*
X0166920Y0121417D01*
X0167035Y0120838D01*
X0167363Y0120347D01*
X0167854Y0120019D01*
X0168433Y0119904D01*
X0169012Y0120019D01*
X0169360Y0120252D01*
X0169368Y0120251D01*
X0169388Y0120258D01*
X0169400Y0120261D01*
X0169418Y0120264D01*
X0169721Y0120285D01*
X0169816Y0120286D01*
X0169862Y0120305D01*
X0171976D01*
X0171976Y0120305D01*
X0172402Y0120390D01*
X0172763Y0120631D01*
X0175519Y0123387D01*
X0179524Y0127392D01*
X0184977D01*
X0185169Y0126930D01*
X0184773Y0126534D01*
X0184532Y0126174D01*
X0184447Y0125748D01*
X0184447Y0125748D01*
Y0122847D01*
X0184427Y0122800D01*
X0184426Y0122698D01*
X0184420Y0122530D01*
X0184407Y0122411D01*
X0184403Y0122384D01*
X0184400Y0122372D01*
X0184393Y0122352D01*
X0184394Y0122345D01*
X0184161Y0121996D01*
X0184046Y0121417D01*
X0184161Y0120838D01*
X0184489Y0120347D01*
X0184980Y0120019D01*
X0185559Y0119904D01*
X0186138Y0120019D01*
X0186629Y0120347D01*
X0186957Y0120838D01*
X0187072Y0121417D01*
X0186957Y0121996D01*
X0186724Y0122345D01*
X0186725Y0122352D01*
X0186718Y0122372D01*
X0186715Y0122384D01*
X0186712Y0122402D01*
X0186692Y0122705D01*
X0186691Y0122800D01*
X0186671Y0122847D01*
Y0125287D01*
X0187004Y0125620D01*
X0202606D01*
X0202606Y0125620D01*
X0203032Y0125705D01*
X0203393Y0125946D01*
X0214337Y0136891D01*
X0214337Y0136891D01*
X0214579Y0137252D01*
X0214663Y0137677D01*
X0214663Y0137677D01*
Y0184685D01*
X0214663Y0184685D01*
X0214579Y0185110D01*
X0214337Y0185471D01*
X0214337Y0185471D01*
X0212947Y0186862D01*
X0212928Y0186909D01*
X0212856Y0186982D01*
X0212742Y0187105D01*
X0212667Y0187198D01*
X0212651Y0187221D01*
X0212645Y0187231D01*
X0212635Y0187250D01*
X0212630Y0187255D01*
X0212548Y0187666D01*
X0212220Y0188157D01*
X0211729Y0188485D01*
X0211150Y0188600D01*
D02*
G37*
G36*
X0202882Y0122931D02*
X0202303Y0122816D01*
X0201812Y0122487D01*
X0201484Y0121996D01*
X0201369Y0121417D01*
X0201484Y0120838D01*
X0201812Y0120347D01*
X0202303Y0120019D01*
X0202882Y0119904D01*
X0203461Y0120019D01*
X0203952Y0120347D01*
X0204280Y0120838D01*
X0204395Y0121417D01*
X0204280Y0121996D01*
X0203952Y0122487D01*
X0203461Y0122816D01*
X0202882Y0122931D01*
D02*
G37*
G36*
X0194220D02*
X0193641Y0122816D01*
X0193150Y0122487D01*
X0192822Y0121996D01*
X0192707Y0121417D01*
X0192822Y0120838D01*
X0193150Y0120347D01*
X0193641Y0120019D01*
X0194220Y0119904D01*
X0194800Y0120019D01*
X0195291Y0120347D01*
X0195619Y0120838D01*
X0195734Y0121417D01*
X0195619Y0121996D01*
X0195291Y0122487D01*
X0194800Y0122816D01*
X0194220Y0122931D01*
D02*
G37*
G36*
X0177685D02*
X0177106Y0122816D01*
X0176615Y0122487D01*
X0176287Y0121996D01*
X0176172Y0121417D01*
X0176287Y0120838D01*
X0176615Y0120347D01*
X0177106Y0120019D01*
X0177685Y0119904D01*
X0178264Y0120019D01*
X0178755Y0120347D01*
X0179083Y0120838D01*
X0179198Y0121417D01*
X0179083Y0121996D01*
X0178755Y0122487D01*
X0178264Y0122816D01*
X0177685Y0122931D01*
D02*
G37*
%LPD*%
G36*
X0136730Y0184843D02*
X0136648Y0184840D01*
X0136567Y0184830D01*
X0136488Y0184813D01*
X0136409Y0184789D01*
X0136332Y0184757D01*
X0136256Y0184719D01*
X0136181Y0184673D01*
X0136107Y0184620D01*
X0136034Y0184560D01*
X0135963Y0184493D01*
X0135406Y0185050D01*
X0135474Y0185121D01*
X0135533Y0185194D01*
X0135586Y0185267D01*
X0135632Y0185342D01*
X0135671Y0185418D01*
X0135702Y0185496D01*
X0135726Y0185574D01*
X0135743Y0185654D01*
X0135753Y0185735D01*
X0135756Y0185817D01*
X0136730Y0184843D01*
D02*
G37*
G36*
X0134541Y0183071D02*
X0134474Y0183000D01*
X0134414Y0182928D01*
X0134361Y0182854D01*
X0134314Y0182779D01*
X0134275Y0182703D01*
X0134242Y0182626D01*
X0134217Y0182547D01*
X0134198Y0182468D01*
X0134186Y0182387D01*
X0134181Y0182305D01*
X0133235Y0183306D01*
X0133317Y0183307D01*
X0133397Y0183315D01*
X0133477Y0183330D01*
X0133555Y0183353D01*
X0133633Y0183383D01*
X0133709Y0183421D01*
X0133784Y0183466D01*
X0133858Y0183518D01*
X0133930Y0183578D01*
X0134002Y0183645D01*
X0134541Y0183071D01*
D02*
G37*
G36*
X0212138Y0187047D02*
X0212150Y0187011D01*
X0212170Y0186970D01*
X0212198Y0186923D01*
X0212235Y0186871D01*
X0212333Y0186751D01*
X0212464Y0186609D01*
X0212542Y0186530D01*
X0211706Y0185695D01*
X0211627Y0185772D01*
X0211365Y0186001D01*
X0211313Y0186038D01*
X0211267Y0186066D01*
X0211225Y0186086D01*
X0211190Y0186099D01*
X0211159Y0186102D01*
X0212134Y0187077D01*
X0212138Y0187047D01*
D02*
G37*
G36*
X0134280Y0166217D02*
X0134215Y0166135D01*
X0134158Y0166052D01*
X0134109Y0165968D01*
X0134067Y0165884D01*
X0134033Y0165799D01*
X0134007Y0165714D01*
X0133988Y0165628D01*
X0133976Y0165542D01*
X0133972Y0165455D01*
X0133382Y0165426D01*
X0133378Y0165514D01*
X0133366Y0165601D01*
X0133345Y0165685D01*
X0133317Y0165769D01*
X0133280Y0165850D01*
X0133236Y0165930D01*
X0133183Y0166009D01*
X0133122Y0166085D01*
X0133053Y0166160D01*
X0132975Y0166233D01*
X0134352Y0166299D01*
X0134280Y0166217D01*
D02*
G37*
G36*
X0201034Y0151206D02*
X0200984Y0151141D01*
X0200940Y0151073D01*
X0200902Y0151000D01*
X0200869Y0150924D01*
X0200842Y0150842D01*
X0200822Y0150757D01*
X0200807Y0150668D01*
X0200798Y0150574D01*
X0200795Y0150476D01*
X0200008D01*
X0200005Y0150574D01*
X0199996Y0150668D01*
X0199981Y0150757D01*
X0199961Y0150842D01*
X0199934Y0150924D01*
X0199902Y0151000D01*
X0199863Y0151073D01*
X0199819Y0151141D01*
X0199769Y0151206D01*
X0199713Y0151266D01*
X0201091D01*
X0201034Y0151206D01*
D02*
G37*
G36*
X0205009Y0146606D02*
X0204986Y0146582D01*
X0204966Y0146548D01*
X0204948Y0146504D01*
X0204932Y0146451D01*
X0204919Y0146388D01*
X0204909Y0146316D01*
X0204894Y0146142D01*
X0204890Y0145931D01*
X0203709Y0146050D01*
X0203708Y0146161D01*
X0203682Y0146569D01*
X0203673Y0146621D01*
X0203661Y0146663D01*
X0203649Y0146695D01*
X0203635Y0146717D01*
X0205009Y0146606D01*
D02*
G37*
G36*
X0143743Y0145987D02*
X0143661Y0145978D01*
X0143581Y0145962D01*
X0143502Y0145940D01*
X0143424Y0145911D01*
X0143347Y0145876D01*
X0143271Y0145835D01*
X0143197Y0145787D01*
X0143123Y0145732D01*
X0143051Y0145672D01*
X0142980Y0145605D01*
X0142372Y0146110D01*
X0142439Y0146182D01*
X0142499Y0146254D01*
X0142550Y0146328D01*
X0142594Y0146403D01*
X0142630Y0146479D01*
X0142657Y0146556D01*
X0142677Y0146634D01*
X0142689Y0146714D01*
X0142693Y0146794D01*
X0142690Y0146875D01*
X0143743Y0145987D01*
D02*
G37*
G36*
X0146735Y0145869D02*
X0146653Y0145860D01*
X0146573Y0145844D01*
X0146494Y0145821D01*
X0146416Y0145793D01*
X0146339Y0145758D01*
X0146263Y0145717D01*
X0146189Y0145669D01*
X0146116Y0145614D01*
X0146043Y0145554D01*
X0145973Y0145487D01*
X0145364Y0145992D01*
X0145431Y0146063D01*
X0145491Y0146136D01*
X0145542Y0146210D01*
X0145586Y0146285D01*
X0145622Y0146361D01*
X0145650Y0146438D01*
X0145669Y0146516D01*
X0145681Y0146596D01*
X0145685Y0146676D01*
X0145682Y0146757D01*
X0146735Y0145869D01*
D02*
G37*
G36*
X0125465Y0144473D02*
X0125476Y0144387D01*
X0125496Y0144301D01*
X0125524Y0144217D01*
X0125559Y0144134D01*
X0125602Y0144052D01*
X0125654Y0143971D01*
X0125713Y0143891D01*
X0125779Y0143812D01*
X0125854Y0143734D01*
X0124476D01*
X0124551Y0143812D01*
X0124618Y0143891D01*
X0124677Y0143971D01*
X0124728Y0144052D01*
X0124772Y0144134D01*
X0124807Y0144217D01*
X0124835Y0144301D01*
X0124854Y0144387D01*
X0124866Y0144473D01*
X0124870Y0144561D01*
X0125461D01*
X0125465Y0144473D01*
D02*
G37*
G36*
X0132306Y0140594D02*
X0132370Y0140543D01*
X0132439Y0140499D01*
X0132511Y0140461D01*
X0132588Y0140428D01*
X0132669Y0140401D01*
X0132755Y0140381D01*
X0132844Y0140366D01*
X0132938Y0140357D01*
X0133036Y0140354D01*
Y0139567D01*
X0132938Y0139564D01*
X0132844Y0139555D01*
X0132755Y0139540D01*
X0132669Y0139520D01*
X0132588Y0139493D01*
X0132511Y0139461D01*
X0132439Y0139422D01*
X0132370Y0139378D01*
X0132306Y0139328D01*
X0132246Y0139272D01*
Y0140650D01*
X0132306Y0140594D01*
D02*
G37*
G36*
X0129024Y0141862D02*
X0129035Y0141551D01*
X0129068Y0141250D01*
X0129124Y0140958D01*
X0129202Y0140675D01*
X0129302Y0140402D01*
X0129425Y0140138D01*
X0129569Y0139883D01*
X0129736Y0139637D01*
X0129926Y0139400D01*
X0130137Y0139173D01*
X0129024Y0138060D01*
X0128796Y0138271D01*
X0128560Y0138461D01*
X0128314Y0138628D01*
X0128059Y0138772D01*
X0127795Y0138895D01*
X0127521Y0138995D01*
X0127239Y0139073D01*
X0126947Y0139129D01*
X0126646Y0139162D01*
X0126335Y0139173D01*
X0125874Y0140748D01*
X0126173Y0140764D01*
X0126441Y0140811D01*
X0126677Y0140890D01*
X0126882Y0141000D01*
X0127055Y0141142D01*
X0127197Y0141315D01*
X0127307Y0141520D01*
X0127386Y0141756D01*
X0127433Y0142024D01*
X0127449Y0142323D01*
X0129024Y0141862D01*
D02*
G37*
G36*
X0164384Y0136870D02*
X0164324Y0136926D01*
X0164260Y0136976D01*
X0164191Y0137021D01*
X0164118Y0137059D01*
X0164042Y0137092D01*
X0163961Y0137118D01*
X0163875Y0137139D01*
X0163786Y0137153D01*
X0163692Y0137162D01*
X0163594Y0137165D01*
Y0137953D01*
X0163692Y0137956D01*
X0163786Y0137965D01*
X0163875Y0137979D01*
X0163961Y0138000D01*
X0164042Y0138027D01*
X0164118Y0138059D01*
X0164191Y0138097D01*
X0164260Y0138142D01*
X0164324Y0138192D01*
X0164384Y0138248D01*
Y0136870D01*
D02*
G37*
G36*
X0126075Y0133481D02*
X0126008Y0133410D01*
X0125948Y0133337D01*
X0125896Y0133264D01*
X0125850Y0133189D01*
X0125811Y0133113D01*
X0125780Y0133035D01*
X0125756Y0132957D01*
X0125739Y0132877D01*
X0125729Y0132796D01*
X0125726Y0132714D01*
X0124751Y0133688D01*
X0124834Y0133691D01*
X0124915Y0133701D01*
X0124994Y0133718D01*
X0125073Y0133742D01*
X0125150Y0133774D01*
X0125226Y0133812D01*
X0125301Y0133858D01*
X0125375Y0133911D01*
X0125447Y0133971D01*
X0125519Y0134038D01*
X0126075Y0133481D01*
D02*
G37*
G36*
X0192256Y0133430D02*
X0192308Y0133388D01*
X0192367Y0133351D01*
X0192433Y0133318D01*
X0192504Y0133291D01*
X0192582Y0133268D01*
X0192666Y0133251D01*
X0192757Y0133238D01*
X0192854Y0133231D01*
X0192957Y0133228D01*
Y0132441D01*
X0192854Y0132438D01*
X0192757Y0132431D01*
X0192666Y0132419D01*
X0192582Y0132401D01*
X0192504Y0132379D01*
X0192433Y0132351D01*
X0192367Y0132319D01*
X0192308Y0132281D01*
X0192256Y0132239D01*
X0192210Y0132192D01*
Y0133478D01*
X0192256Y0133430D01*
D02*
G37*
G36*
X0190762Y0132146D02*
X0190702Y0132202D01*
X0190638Y0132252D01*
X0190569Y0132296D01*
X0190496Y0132335D01*
X0190419Y0132367D01*
X0190338Y0132394D01*
X0190253Y0132414D01*
X0190164Y0132429D01*
X0190070Y0132438D01*
X0189972Y0132441D01*
Y0133228D01*
X0190070Y0133231D01*
X0190164Y0133240D01*
X0190253Y0133255D01*
X0190338Y0133276D01*
X0190419Y0133302D01*
X0190496Y0133335D01*
X0190569Y0133373D01*
X0190638Y0133417D01*
X0190702Y0133467D01*
X0190762Y0133524D01*
Y0132146D01*
D02*
G37*
G36*
X0198242Y0131358D02*
X0198182Y0131414D01*
X0198118Y0131465D01*
X0198049Y0131509D01*
X0197977Y0131547D01*
X0197900Y0131580D01*
X0197819Y0131606D01*
X0197733Y0131627D01*
X0197644Y0131642D01*
X0197550Y0131651D01*
X0197452Y0131653D01*
Y0132441D01*
X0197550Y0132444D01*
X0197644Y0132453D01*
X0197733Y0132467D01*
X0197819Y0132488D01*
X0197900Y0132515D01*
X0197977Y0132547D01*
X0198049Y0132586D01*
X0198118Y0132630D01*
X0198182Y0132680D01*
X0198242Y0132736D01*
Y0131358D01*
D02*
G37*
G36*
X0128054Y0132680D02*
X0128118Y0132630D01*
X0128187Y0132586D01*
X0128260Y0132547D01*
X0128336Y0132515D01*
X0128418Y0132488D01*
X0128503Y0132467D01*
X0128592Y0132453D01*
X0128686Y0132444D01*
X0128784Y0132441D01*
Y0131653D01*
X0128686Y0131651D01*
X0128592Y0131642D01*
X0128503Y0131627D01*
X0128418Y0131606D01*
X0128336Y0131580D01*
X0128260Y0131547D01*
X0128187Y0131509D01*
X0128118Y0131465D01*
X0128054Y0131414D01*
X0127994Y0131358D01*
Y0132736D01*
X0128054Y0132680D01*
D02*
G37*
G36*
X0186151Y0122684D02*
X0186174Y0122337D01*
X0186185Y0122274D01*
X0186198Y0122222D01*
X0186213Y0122178D01*
X0186229Y0122144D01*
X0186248Y0122120D01*
X0184870D01*
X0184889Y0122144D01*
X0184906Y0122178D01*
X0184920Y0122222D01*
X0184933Y0122274D01*
X0184944Y0122337D01*
X0184960Y0122492D01*
X0184968Y0122684D01*
X0184968Y0122795D01*
X0186150D01*
X0186151Y0122684D01*
D02*
G37*
G36*
X0169160Y0122088D02*
X0169194Y0122071D01*
X0169237Y0122056D01*
X0169290Y0122043D01*
X0169353Y0122032D01*
X0169507Y0122017D01*
X0169700Y0122009D01*
X0169811Y0122008D01*
Y0120827D01*
X0169700Y0120826D01*
X0169353Y0120802D01*
X0169290Y0120791D01*
X0169237Y0120779D01*
X0169194Y0120764D01*
X0169160Y0120747D01*
X0169136Y0120728D01*
Y0122106D01*
X0169160Y0122088D01*
D02*
G37*
D10*
X0131386Y0145197D02*
X0142016D01*
X0201110Y0131063D02*
Y0147874D01*
X0200402Y0148583D02*
X0201110Y0147874D01*
X0200402Y0148583D02*
Y0151969D01*
X0193787Y0132047D02*
X0198945D01*
X0127291D02*
X0134890D01*
X0139614Y0127323D01*
X0135165Y0134095D02*
X0140362Y0128898D01*
X0126132Y0134095D02*
X0135165D01*
X0124742Y0132704D02*
X0126132Y0134095D01*
X0146189Y0132835D02*
X0191465D01*
X0142252Y0128898D02*
X0146189Y0132835D01*
X0189260Y0131496D02*
X0190677Y0130079D01*
X0200126D02*
X0201110Y0131063D01*
X0190677Y0130079D02*
X0200126D01*
X0146819Y0131496D02*
X0189260D01*
X0142646Y0127323D02*
X0146819Y0131496D01*
X0139614Y0127323D02*
X0142646D01*
X0140362Y0128898D02*
X0142252D01*
X0193000Y0132835D02*
X0193787Y0132047D01*
X0191465Y0132835D02*
X0193000D01*
X0145835Y0138031D02*
X0161898D01*
X0162370Y0137559D02*
X0165087D01*
X0161898Y0138031D02*
X0162370Y0137559D01*
X0131425Y0143110D02*
X0143039D01*
X0142016Y0145197D02*
X0143630Y0146811D01*
X0131740Y0163228D02*
X0132488Y0162480D01*
Y0151779D02*
Y0162480D01*
X0131536Y0150827D02*
X0132488Y0151779D01*
X0143906Y0139961D02*
X0145835Y0138031D01*
X0131543Y0139961D02*
X0143906D01*
X0125677Y0150827D02*
X0131536D01*
X0124732Y0148858D02*
Y0149882D01*
X0125677Y0150827D01*
X0133315Y0182402D02*
X0136740Y0185827D01*
X0143039Y0143110D02*
X0146622Y0146693D01*
D11*
X0132173Y0149449D02*
X0133677Y0150953D01*
X0133630Y0166969D02*
X0133677Y0166921D01*
Y0150953D02*
Y0166921D01*
X0125165Y0146775D02*
X0127840Y0149449D01*
X0125165Y0143032D02*
Y0146775D01*
X0127840Y0149449D02*
X0132173D01*
D14*
X0115756Y0147126D02*
Y0147283D01*
X0115717Y0147323D02*
X0115756Y0147283D01*
X0130126Y0147520D02*
X0132764D01*
X0141465Y0135748D02*
X0141622Y0135591D01*
X0136898Y0151654D02*
Y0159567D01*
X0141465Y0131024D02*
Y0135748D01*
X0140401Y0136811D02*
X0141465Y0135748D01*
X0131386Y0136811D02*
X0140401D01*
X0115756Y0147126D02*
X0122921Y0139961D01*
X0128236D01*
X0136752Y0174224D02*
X0136937Y0174409D01*
X0132764Y0147520D02*
X0136898Y0151654D01*
X0128236Y0145630D02*
X0130126Y0147520D01*
X0128236Y0139961D02*
Y0145630D01*
Y0139961D02*
X0131386Y0136811D01*
D15*
X0141622Y0135591D02*
X0148945D01*
X0149732Y0134803D02*
X0189102D01*
X0148945Y0135591D02*
X0149732Y0134803D01*
D16*
X0186543Y0126732D02*
X0202606D01*
X0185559Y0125748D02*
X0186543Y0126732D01*
X0185559Y0121417D02*
Y0125748D01*
X0168433Y0121417D02*
X0171976D01*
X0174732Y0124173D01*
X0112724Y0133228D02*
X0113118Y0133622D01*
X0150913Y0120939D02*
Y0123779D01*
X0147848Y0117874D02*
X0150913Y0120939D01*
X0119063Y0117874D02*
X0147848D01*
X0112724Y0124213D02*
X0119063Y0117874D01*
X0174732Y0124173D02*
X0179063Y0128504D01*
X0200913D01*
X0202606Y0126732D02*
X0213551Y0137677D01*
X0204299Y0131890D02*
Y0147343D01*
X0200913Y0128504D02*
X0204299Y0131890D01*
X0112724Y0124213D02*
Y0133228D01*
X0213551Y0137677D02*
Y0184685D01*
X0211150Y0187087D02*
X0213551Y0184685D01*
D17*
X0115717Y0147323D02*
D03*
X0131535Y0142624D02*
D03*
X0131386Y0145197D02*
D03*
X0214181Y0121378D02*
D03*
X0210205Y0121457D02*
D03*
Y0125433D02*
D03*
X0213984Y0125472D02*
D03*
X0191858Y0181260D02*
D03*
Y0184016D02*
D03*
X0195008D02*
D03*
X0189890Y0168661D02*
D03*
X0179654Y0187953D02*
D03*
X0202882Y0121417D02*
D03*
X0194220D02*
D03*
X0161937Y0123779D02*
D03*
X0157606D02*
D03*
X0217843Y0121417D02*
D03*
Y0125354D02*
D03*
Y0185984D02*
D03*
Y0182441D02*
D03*
Y0178898D02*
D03*
Y0175354D02*
D03*
Y0171811D02*
D03*
Y0168268D02*
D03*
Y0164724D02*
D03*
Y0161181D02*
D03*
Y0157638D02*
D03*
Y0154095D02*
D03*
Y0150551D02*
D03*
Y0147008D02*
D03*
Y0143465D02*
D03*
Y0139921D02*
D03*
Y0136378D02*
D03*
Y0132835D02*
D03*
Y0129291D02*
D03*
X0198945Y0132047D02*
D03*
X0185559Y0121417D02*
D03*
X0177685D02*
D03*
X0168433D02*
D03*
X0150913Y0123779D02*
D03*
X0127291Y0132047D02*
D03*
X0124742Y0132704D02*
D03*
X0168433Y0127126D02*
D03*
X0183984Y0193465D02*
D03*
X0180441Y0193858D02*
D03*
X0212724Y0193465D02*
D03*
X0217843Y0189528D02*
D03*
X0111150Y0118661D02*
D03*
X0114693D02*
D03*
X0216536Y0192913D02*
D03*
X0210630Y0157480D02*
D03*
X0206693Y0149606D02*
D03*
X0202756Y0173228D02*
D03*
X0194882Y0181103D02*
D03*
X0192913Y0153543D02*
D03*
X0188977Y0161417D02*
D03*
X0190945Y0157480D02*
D03*
X0188977Y0153543D02*
D03*
X0190945Y0149606D02*
D03*
X0188977Y0145669D02*
D03*
X0185039Y0161417D02*
D03*
X0187008Y0157480D02*
D03*
X0185039Y0153543D02*
D03*
X0187008Y0149606D02*
D03*
X0185039Y0145669D02*
D03*
Y0137795D02*
D03*
X0181103Y0161417D02*
D03*
X0183071Y0157480D02*
D03*
X0181103Y0153543D02*
D03*
X0183071Y0149606D02*
D03*
X0181103Y0145669D02*
D03*
X0183071Y0141732D02*
D03*
X0181103Y0137795D02*
D03*
X0177165Y0169291D02*
D03*
X0179134Y0165354D02*
D03*
X0173228Y0192913D02*
D03*
X0175197Y0188977D02*
D03*
X0173228Y0185039D02*
D03*
X0175197Y0181103D02*
D03*
X0173228Y0177165D02*
D03*
X0175197Y0173228D02*
D03*
X0173228Y0169291D02*
D03*
X0175197Y0165354D02*
D03*
X0169291Y0192913D02*
D03*
X0171260Y0188977D02*
D03*
X0169291Y0185039D02*
D03*
X0171260Y0181103D02*
D03*
X0169291Y0177165D02*
D03*
X0171260Y0173228D02*
D03*
X0169291Y0169291D02*
D03*
X0165354Y0192913D02*
D03*
X0167323Y0188977D02*
D03*
X0165354Y0185039D02*
D03*
X0167323Y0181103D02*
D03*
X0165354Y0177165D02*
D03*
X0167323Y0173228D02*
D03*
X0165354Y0169291D02*
D03*
X0161417Y0192913D02*
D03*
X0163386Y0188977D02*
D03*
X0161417Y0185039D02*
D03*
X0163386Y0181103D02*
D03*
X0161417Y0177165D02*
D03*
X0163386Y0173228D02*
D03*
X0161417Y0169291D02*
D03*
X0157480Y0192913D02*
D03*
X0159449Y0188977D02*
D03*
X0157480Y0185039D02*
D03*
X0159449Y0181103D02*
D03*
X0153543Y0192913D02*
D03*
X0155512Y0188977D02*
D03*
Y0181103D02*
D03*
X0127953Y0125984D02*
D03*
X0122047Y0153543D02*
D03*
X0118110Y0192913D02*
D03*
X0120079Y0157480D02*
D03*
X0118110Y0153543D02*
D03*
Y0122047D02*
D03*
X0114173Y0192913D02*
D03*
X0116142Y0188977D02*
D03*
X0114173Y0185039D02*
D03*
Y0169291D02*
D03*
X0128472Y0121024D02*
D03*
Y0123779D02*
D03*
X0133787Y0121024D02*
D03*
X0131032D02*
D03*
X0139299D02*
D03*
X0136543D02*
D03*
X0173158Y0129488D02*
D03*
Y0127126D02*
D03*
X0170795D02*
D03*
Y0129488D02*
D03*
X0168433D02*
D03*
X0166071D02*
D03*
Y0127126D02*
D03*
X0163709Y0129488D02*
D03*
Y0127126D02*
D03*
X0161346Y0129488D02*
D03*
Y0127126D02*
D03*
X0158984Y0129488D02*
D03*
Y0127126D02*
D03*
X0156622Y0129488D02*
D03*
Y0127126D02*
D03*
X0154260Y0129488D02*
D03*
Y0127126D02*
D03*
X0151898Y0129488D02*
D03*
Y0127126D02*
D03*
X0149535D02*
D03*
Y0129488D02*
D03*
X0145992Y0127717D02*
D03*
X0191465Y0132835D02*
D03*
X0148945Y0135591D02*
D03*
X0165087Y0137559D02*
D03*
X0156937Y0161063D02*
D03*
X0156504Y0140354D02*
D03*
X0189102Y0134803D02*
D03*
X0210559Y0149331D02*
D03*
X0207646Y0147008D02*
D03*
X0203039Y0166654D02*
D03*
X0205756D02*
D03*
X0208512Y0160472D02*
D03*
X0183905Y0170433D02*
D03*
X0133039Y0177480D02*
D03*
X0129457Y0167244D02*
D03*
X0159339Y0147205D02*
D03*
X0155795Y0147244D02*
D03*
X0127567Y0169409D02*
D03*
X0132961Y0193661D02*
D03*
X0129142Y0193622D02*
D03*
X0125992Y0193543D02*
D03*
X0122449Y0193386D02*
D03*
X0111071Y0192992D02*
D03*
X0111189Y0189252D02*
D03*
X0111071Y0184685D02*
D03*
X0110953Y0169409D02*
D03*
X0116189Y0155669D02*
D03*
X0111228Y0146299D02*
D03*
X0112843Y0143898D02*
D03*
X0115520Y0142874D02*
D03*
X0126661Y0137047D02*
D03*
X0119929Y0137244D02*
D03*
X0115480Y0136614D02*
D03*
X0115638Y0132638D02*
D03*
X0112724Y0133622D02*
D03*
X0146268Y0140354D02*
D03*
X0157764Y0142677D02*
D03*
X0137094Y0159567D02*
D03*
X0144811Y0121024D02*
D03*
X0142055D02*
D03*
X0144811Y0123583D02*
D03*
X0142055D02*
D03*
X0141937Y0187087D02*
D03*
X0144890Y0187126D02*
D03*
X0133630Y0166969D02*
D03*
X0133197Y0182323D02*
D03*
X0124653Y0156968D02*
D03*
X0122882Y0161378D02*
D03*
X0124063Y0159173D02*
D03*
X0130283Y0160275D02*
D03*
X0128079Y0164724D02*
D03*
X0129260Y0162756D02*
D03*
X0130520Y0157835D02*
D03*
X0131740Y0163228D02*
D03*
X0130564Y0155372D02*
D03*
Y0152904D02*
D03*
X0124655Y0168373D02*
D03*
X0118586Y0167383D02*
D03*
X0117835Y0169735D02*
D03*
X0121318Y0163297D02*
D03*
X0119026Y0188973D02*
D03*
X0117806Y0186827D02*
D03*
X0117001Y0184494D02*
D03*
X0124727Y0154481D02*
D03*
X0126322Y0166553D02*
D03*
X0123621Y0170615D02*
D03*
X0123923Y0182878D02*
D03*
X0125192Y0184995D02*
D03*
X0127661D02*
D03*
X0130129D02*
D03*
X0132597D02*
D03*
X0133113Y0190832D02*
D03*
X0130644D02*
D03*
X0128176D02*
D03*
X0125707D02*
D03*
X0123239D02*
D03*
X0131543Y0139961D02*
D03*
X0125165Y0143032D02*
D03*
X0136937Y0174409D02*
D03*
X0142685Y0172480D02*
D03*
X0141032Y0170787D02*
D03*
X0139811Y0168898D02*
D03*
X0139181Y0166654D02*
D03*
Y0164370D02*
D03*
X0139378Y0162008D02*
D03*
X0140362Y0159843D02*
D03*
X0141858Y0157913D02*
D03*
X0143787Y0156457D02*
D03*
X0145992Y0155591D02*
D03*
X0148709Y0155315D02*
D03*
X0151189Y0155827D02*
D03*
X0153551Y0156968D02*
D03*
X0155520Y0158740D02*
D03*
X0157528Y0163976D02*
D03*
Y0166457D02*
D03*
X0156740Y0169055D02*
D03*
X0154417Y0170905D02*
D03*
X0158197D02*
D03*
X0159732Y0172598D02*
D03*
X0159850Y0175079D02*
D03*
X0158945Y0177441D02*
D03*
X0156543Y0178032D02*
D03*
X0154220D02*
D03*
X0151740Y0178110D02*
D03*
Y0180669D02*
D03*
X0151543Y0183346D02*
D03*
Y0185866D02*
D03*
Y0188386D02*
D03*
X0151150Y0190945D02*
D03*
X0150087Y0193110D02*
D03*
X0147685Y0193150D02*
D03*
X0145244D02*
D03*
X0142803Y0193268D02*
D03*
X0140205Y0193150D02*
D03*
X0137764Y0193268D02*
D03*
X0135559Y0193504D02*
D03*
X0124732Y0148858D02*
D03*
X0204378Y0147362D02*
D03*
X0200402Y0151969D02*
D03*
X0211150Y0187087D02*
D03*
X0211347Y0160551D02*
D03*
X0208512Y0163622D02*
D03*
X0211347D02*
D03*
X0208512Y0166693D02*
D03*
X0211347Y0166614D02*
D03*
X0189693Y0172716D02*
D03*
X0145559Y0142953D02*
D03*
X0141465Y0131024D02*
D03*
X0143669Y0146968D02*
D03*
X0146661Y0146850D02*
D03*
X0136740Y0185827D02*
D03*
M02*
