G04*
G04 #@! TF.GenerationSoftware,Altium Limited,Altium Designer,19.1.5 (86)*
G04*
G04 Layer_Color=65535*
%FSAX25Y25*%
%MOIN*%
G70*
G01*
G75*
%ADD10C,0.00787*%
%ADD11C,0.00591*%
D10*
X0112882Y0195039D02*
G03*
X0110913Y0193071I0000000J-0001969D01*
G01*
X0185717D02*
G03*
X0183748Y0195039I-0001969J0000000D01*
G01*
Y0120236D02*
G03*
X0185717Y0122205I0000000J0001969D01*
G01*
X0110913Y0128504D02*
Y0193071D01*
Y0128504D02*
X0119181Y0120236D01*
X0183748D01*
X0185717Y0122205D02*
Y0193071D01*
X0112882Y0195039D02*
X0183748D01*
X0195840Y0123018D02*
X0195184Y0122362D01*
Y0121050D01*
X0195840Y0120394D01*
X0196496D01*
X0197152Y0121050D01*
Y0122362D01*
X0197808Y0123018D01*
X0198463D01*
X0199119Y0122362D01*
Y0121050D01*
X0198463Y0120394D01*
X0199119Y0124329D02*
X0196496D01*
Y0124985D01*
X0197152Y0125641D01*
X0199119D01*
X0197152D01*
X0196496Y0126297D01*
X0197152Y0126953D01*
X0199119D01*
X0196496Y0128921D02*
Y0130233D01*
X0197152Y0130889D01*
X0199119D01*
Y0128921D01*
X0198463Y0128265D01*
X0197808Y0128921D01*
Y0130889D01*
X0196496Y0132201D02*
X0199119D01*
X0197808D01*
X0197152Y0132857D01*
X0196496Y0133513D01*
Y0134169D01*
X0195840Y0136793D02*
X0196496D01*
Y0136137D01*
Y0137449D01*
Y0136793D01*
X0198463D01*
X0199119Y0137449D01*
X0200431Y0139416D02*
X0196496D01*
Y0141384D01*
X0197152Y0142040D01*
X0198463D01*
X0199119Y0141384D01*
Y0139416D01*
X0196496Y0144008D02*
Y0145320D01*
X0197152Y0145976D01*
X0199119D01*
Y0144008D01*
X0198463Y0143352D01*
X0197808Y0144008D01*
Y0145976D01*
X0196496Y0147288D02*
X0199119D01*
X0197808D01*
X0197152Y0147944D01*
X0196496Y0148600D01*
Y0149256D01*
X0199119Y0151224D02*
X0195184D01*
X0197808D02*
X0196496Y0153191D01*
X0197808Y0151224D02*
X0199119Y0153191D01*
Y0155159D02*
Y0157127D01*
X0198463Y0157783D01*
X0197808Y0157127D01*
Y0155815D01*
X0197152Y0155159D01*
X0196496Y0155815D01*
Y0157783D01*
X0207044Y0121050D02*
Y0122362D01*
X0206388Y0123018D01*
X0205076D01*
X0204420Y0122362D01*
Y0121050D01*
X0205076Y0120394D01*
X0206388D01*
X0207044Y0121050D01*
X0208356Y0124329D02*
X0204420D01*
Y0126297D01*
X0205076Y0126953D01*
X0206388D01*
X0207044Y0126297D01*
Y0124329D01*
Y0130233D02*
Y0128921D01*
X0206388Y0128265D01*
X0205076D01*
X0204420Y0128921D01*
Y0130233D01*
X0205076Y0130889D01*
X0205732D01*
Y0128265D01*
X0207044Y0132201D02*
X0204420D01*
Y0134169D01*
X0205076Y0134825D01*
X0207044D01*
X0204420Y0138760D02*
Y0136793D01*
X0205076Y0136137D01*
X0206388D01*
X0207044Y0136793D01*
Y0138760D01*
Y0140728D02*
Y0142040D01*
X0206388Y0142696D01*
X0205076D01*
X0204420Y0142040D01*
Y0140728D01*
X0205076Y0140072D01*
X0206388D01*
X0207044Y0140728D01*
Y0144008D02*
Y0145320D01*
Y0144664D01*
X0203108D01*
Y0144008D01*
X0207044Y0147288D02*
Y0148600D01*
Y0147944D01*
X0203108D01*
Y0147288D01*
X0204420Y0151224D02*
Y0152536D01*
X0205076Y0153191D01*
X0207044D01*
Y0151224D01*
X0206388Y0150568D01*
X0205732Y0151224D01*
Y0153191D01*
X0204420Y0154503D02*
X0207044D01*
X0205732D01*
X0205076Y0155159D01*
X0204420Y0155815D01*
Y0156471D01*
X0207044Y0158439D02*
X0206388D01*
Y0159095D01*
X0207044D01*
Y0158439D01*
Y0161719D02*
Y0163031D01*
Y0162375D01*
X0204420D01*
Y0161719D01*
X0207044Y0165655D02*
Y0166967D01*
X0206388Y0167623D01*
X0205076D01*
X0204420Y0166967D01*
Y0165655D01*
X0205076Y0164999D01*
X0206388D01*
X0207044Y0165655D01*
X0214968Y0120394D02*
X0211033D01*
Y0122362D01*
X0211689Y0123018D01*
X0213001D01*
X0213657Y0122362D01*
Y0120394D01*
Y0121706D02*
X0214968Y0123018D01*
X0211033Y0124329D02*
X0214968D01*
X0213001D01*
X0212345Y0124985D01*
Y0126297D01*
X0213001Y0126953D01*
X0214968D01*
Y0128265D02*
Y0129577D01*
Y0128921D01*
X0212345D01*
Y0128265D01*
X0214968Y0131545D02*
X0212345D01*
Y0133513D01*
X0213001Y0134169D01*
X0214968D01*
Y0136137D02*
Y0137449D01*
X0214313Y0138104D01*
X0213001D01*
X0212345Y0137449D01*
Y0136137D01*
X0213001Y0135481D01*
X0214313D01*
X0214968Y0136137D01*
X0211689Y0144008D02*
X0212345D01*
Y0143352D01*
Y0144664D01*
Y0144008D01*
X0214313D01*
X0214968Y0144664D01*
X0212345Y0146632D02*
X0214968D01*
X0213657D01*
X0213001Y0147288D01*
X0212345Y0147944D01*
Y0148600D01*
Y0151224D02*
Y0152536D01*
X0213001Y0153191D01*
X0214968D01*
Y0151224D01*
X0214313Y0150568D01*
X0213657Y0151224D01*
Y0153191D01*
X0212345Y0157127D02*
Y0155159D01*
X0213001Y0154503D01*
X0214313D01*
X0214968Y0155159D01*
Y0157127D01*
Y0158439D02*
X0211033D01*
X0213657D02*
X0212345Y0160407D01*
X0213657Y0158439D02*
X0214968Y0160407D01*
Y0164343D02*
Y0163031D01*
X0214313Y0162375D01*
X0213001D01*
X0212345Y0163031D01*
Y0164343D01*
X0213001Y0164999D01*
X0213657D01*
Y0162375D01*
X0212345Y0166311D02*
X0214968D01*
X0213657D01*
X0213001Y0166967D01*
X0212345Y0167623D01*
Y0168279D01*
D11*
X0110638Y0119567D02*
Y0121666D01*
X0111687Y0122715D01*
X0112737Y0121666D01*
Y0119567D01*
Y0121141D01*
X0110638D01*
X0113786Y0119567D02*
X0114836D01*
X0114311D01*
Y0122715D01*
X0113786Y0122191D01*
M02*
