G04*
G04 #@! TF.GenerationSoftware,Altium Limited,Altium Designer,19.1.5 (86)*
G04*
G04 Layer_Color=16711935*
%FSAX25Y25*%
%MOIN*%
G70*
G01*
G75*
%ADD23C,0.04724*%
%ADD45R,0.36614X0.04724*%
%ADD46R,0.07887X0.08674*%
%ADD47R,0.02769X0.03753*%
%ADD48R,0.16548X0.14186*%
%ADD49R,0.03162X0.02769*%
%ADD50R,0.01587X0.01981*%
%ADD51R,0.03044X0.03241*%
%ADD52R,0.03320X0.03162*%
%ADD53R,0.03162X0.03320*%
%ADD54R,0.02217X0.01784*%
%ADD55R,0.03241X0.03044*%
%ADD56R,0.02769X0.03162*%
%ADD57R,0.02769X0.02769*%
%ADD58R,0.01981X0.03556*%
%ADD59C,0.01784*%
%ADD60R,0.03950X0.03950*%
%ADD61R,0.03556X0.07493*%
%ADD62R,0.03950X0.03950*%
%ADD63R,0.01981X0.02572*%
%ADD64C,0.01981*%
%ADD65R,0.05131X0.08280*%
%ADD66R,0.04737X0.04737*%
%ADD67R,0.04934X0.09461*%
%ADD68C,0.10642*%
G36*
X0189894Y0182506D02*
X0189920Y0182505D01*
X0189921Y0182505D01*
X0189921Y0182504D01*
X0189946Y0182500D01*
X0189972Y0182495D01*
X0189972Y0182494D01*
X0189973Y0182494D01*
X0189996Y0182486D01*
X0190021Y0182478D01*
X0190022Y0182478D01*
X0190022Y0182477D01*
X0190044Y0182467D01*
X0190068Y0182455D01*
X0190069Y0182455D01*
X0190069Y0182454D01*
X0190092Y0182440D01*
X0190112Y0182426D01*
X0190113Y0182425D01*
X0190113Y0182425D01*
X0190134Y0182407D01*
X0190152Y0182391D01*
X0190152Y0182391D01*
X0190152Y0182391D01*
X0190169Y0182372D01*
X0190186Y0182352D01*
X0190187Y0182352D01*
X0190187Y0182351D01*
X0190201Y0182330D01*
X0190216Y0182308D01*
X0190216Y0182308D01*
X0190216Y0182308D01*
X0190228Y0182283D01*
X0190239Y0182262D01*
X0190239Y0182261D01*
X0190239Y0182261D01*
X0190248Y0182236D01*
X0190256Y0182212D01*
X0190256Y0182211D01*
X0190256Y0182211D01*
X0190261Y0182187D01*
X0190266Y0182161D01*
X0190266Y0182160D01*
X0190267Y0182159D01*
X0190268Y0182135D01*
X0190270Y0182108D01*
X0190271Y0181816D01*
X0190271Y0181816D01*
X0190271Y0181815D01*
X0190271Y0179350D01*
X0190271Y0179350D01*
X0190271Y0179350D01*
X0190269Y0179321D01*
X0190268Y0179298D01*
X0190268Y0179297D01*
X0190268Y0179297D01*
X0190263Y0179273D01*
X0190258Y0179246D01*
X0190258Y0179246D01*
X0190258Y0179246D01*
X0190252Y0179228D01*
X0190241Y0179197D01*
X0190241Y0179196D01*
X0190241Y0179196D01*
X0190229Y0179173D01*
X0190218Y0179149D01*
X0190218Y0179149D01*
X0190217Y0179149D01*
X0190202Y0179126D01*
X0190189Y0179106D01*
X0190189Y0179106D01*
X0190188Y0179106D01*
X0190171Y0179086D01*
X0190154Y0179067D01*
X0190154Y0179066D01*
X0190154Y0179066D01*
X0189169Y0178083D01*
X0189151Y0178068D01*
X0189129Y0178048D01*
X0189129Y0178048D01*
X0189129Y0178048D01*
X0189109Y0178035D01*
X0189086Y0178019D01*
X0189085Y0178019D01*
X0189085Y0178019D01*
X0189064Y0178008D01*
X0189039Y0177996D01*
X0189038Y0177996D01*
X0189038Y0177996D01*
X0189023Y0177990D01*
X0188989Y0177979D01*
X0188989Y0177979D01*
X0188989Y0177979D01*
X0188971Y0177975D01*
X0188938Y0177969D01*
X0188937Y0177969D01*
X0188937Y0177969D01*
X0188914Y0177967D01*
X0188885Y0177965D01*
X0182193Y0177965D01*
X0182193D01*
X0182193D01*
X0182141Y0177969D01*
X0182089Y0177979D01*
X0182039Y0177996D01*
X0181992Y0178019D01*
X0181949Y0178048D01*
X0181915Y0178078D01*
X0181910Y0178083D01*
Y0178083D01*
X0181909D01*
X0181905Y0178088D01*
X0181875Y0178122D01*
X0181846Y0178166D01*
X0181823Y0178213D01*
X0181806Y0178262D01*
X0181796Y0178314D01*
X0181792Y0178366D01*
Y0178366D01*
Y0178366D01*
X0181792Y0181809D01*
X0181792Y0182105D01*
X0181792Y0182105D01*
X0181792Y0182106D01*
X0181793Y0182130D01*
X0181795Y0182157D01*
X0181795Y0182158D01*
X0181795Y0182158D01*
X0181800Y0182184D01*
X0181805Y0182209D01*
X0181805Y0182209D01*
X0181805Y0182209D01*
X0181814Y0182234D01*
X0181822Y0182258D01*
X0181822Y0182259D01*
X0181822Y0182259D01*
X0181833Y0182281D01*
X0181845Y0182305D01*
X0181845Y0182306D01*
X0181845Y0182306D01*
X0181861Y0182329D01*
X0181874Y0182349D01*
X0181874Y0182349D01*
X0181875Y0182350D01*
X0181893Y0182370D01*
X0181909Y0182388D01*
X0181909Y0182389D01*
X0181909Y0182389D01*
X0181927Y0182404D01*
X0181948Y0182423D01*
X0181948Y0182423D01*
X0181948Y0182423D01*
X0181968Y0182436D01*
X0181992Y0182452D01*
X0181992Y0182452D01*
X0181992Y0182453D01*
X0182016Y0182464D01*
X0182038Y0182476D01*
X0182039Y0182476D01*
X0182039Y0182476D01*
X0182067Y0182485D01*
X0182088Y0182493D01*
X0182088Y0182493D01*
X0182089Y0182493D01*
X0182117Y0182498D01*
X0182140Y0182503D01*
X0182140Y0182503D01*
X0182140Y0182503D01*
X0182166Y0182505D01*
X0182192Y0182506D01*
X0182192Y0182506D01*
X0182193Y0182506D01*
X0189868Y0182508D01*
D01*
D01*
X0189869D01*
X0189894Y0182506D01*
D02*
G37*
D23*
X0139181Y0151102D02*
D03*
X0167685Y0164488D02*
D03*
X0210362Y0153307D02*
D03*
X0194811Y0141260D02*
D03*
D45*
X0127488Y0119055D02*
D03*
D46*
X0211543Y0121221D02*
D03*
X0202882D02*
D03*
X0194220D02*
D03*
X0185559D02*
D03*
X0176898D02*
D03*
X0167449D02*
D03*
X0158787D02*
D03*
X0150126D02*
D03*
D47*
X0162139Y0158873D02*
D03*
X0167139D02*
D03*
X0172139D02*
D03*
X0177139D02*
D03*
Y0137613D02*
D03*
X0172139D02*
D03*
X0167139D02*
D03*
X0162139D02*
D03*
D48*
X0169639Y0148243D02*
D03*
D49*
X0113236Y0150630D02*
D03*
Y0154567D02*
D03*
X0135874Y0178661D02*
D03*
Y0182598D02*
D03*
X0187016Y0188976D02*
D03*
Y0192913D02*
D03*
Y0169803D02*
D03*
Y0165866D02*
D03*
X0211268Y0140512D02*
D03*
Y0144449D02*
D03*
X0134417Y0156653D02*
D03*
Y0160591D02*
D03*
X0133866Y0170472D02*
D03*
Y0174409D02*
D03*
X0112724Y0137106D02*
D03*
Y0141043D02*
D03*
D50*
X0135598Y0190354D02*
D03*
X0137567D02*
D03*
X0139535D02*
D03*
Y0187992D02*
D03*
X0137567D02*
D03*
X0135598D02*
D03*
D51*
X0148354Y0190315D02*
D03*
X0144653D02*
D03*
X0116150Y0163425D02*
D03*
X0112449D02*
D03*
D52*
X0148354Y0182205D02*
D03*
Y0185984D02*
D03*
X0206071Y0176221D02*
D03*
Y0172441D02*
D03*
X0153512Y0141969D02*
D03*
Y0138189D02*
D03*
X0149024Y0141929D02*
D03*
Y0138150D02*
D03*
X0137528Y0126378D02*
D03*
Y0130157D02*
D03*
X0133000Y0126457D02*
D03*
Y0130236D02*
D03*
D53*
X0140165Y0182598D02*
D03*
X0143945D02*
D03*
X0143945Y0178071D02*
D03*
X0140165D02*
D03*
X0152764Y0174370D02*
D03*
X0156543D02*
D03*
X0199772Y0162284D02*
D03*
X0203551D02*
D03*
X0116268Y0159016D02*
D03*
X0112488D02*
D03*
X0141543Y0139016D02*
D03*
X0137764D02*
D03*
X0141504Y0134567D02*
D03*
X0137724D02*
D03*
D54*
X0144811Y0174370D02*
D03*
X0140087D02*
D03*
D55*
X0148354D02*
D03*
Y0178071D02*
D03*
D56*
X0182173Y0190984D02*
D03*
X0178236D02*
D03*
X0197370Y0188858D02*
D03*
X0193433D02*
D03*
X0205244D02*
D03*
X0201307D02*
D03*
X0203394Y0184488D02*
D03*
X0199457D02*
D03*
X0207331Y0181732D02*
D03*
X0211268D02*
D03*
X0200323Y0148583D02*
D03*
X0196386D02*
D03*
X0204181Y0134921D02*
D03*
X0208118D02*
D03*
X0196307D02*
D03*
X0200244D02*
D03*
D57*
X0186031Y0180236D02*
D03*
D58*
X0188984Y0184370D02*
D03*
X0187016D02*
D03*
X0185047D02*
D03*
X0183079D02*
D03*
Y0176102D02*
D03*
X0185047D02*
D03*
X0187016D02*
D03*
X0188984D02*
D03*
D59*
X0199378Y0178189D02*
D03*
X0201346D02*
D03*
X0197409D02*
D03*
X0199378Y0176221D02*
D03*
X0197409D02*
D03*
X0201346D02*
D03*
Y0180157D02*
D03*
X0199378D02*
D03*
X0197409D02*
D03*
D60*
X0211504Y0170315D02*
D03*
Y0176221D02*
D03*
D61*
X0193118Y0169213D02*
D03*
X0199417D02*
D03*
D62*
X0205598Y0156811D02*
D03*
X0199693D02*
D03*
D63*
X0200362Y0139154D02*
D03*
X0202331D02*
D03*
X0204299D02*
D03*
X0200362Y0144468D02*
D03*
X0202331D02*
D03*
X0204299D02*
D03*
D64*
X0133551Y0135079D02*
D03*
Y0137047D02*
D03*
Y0139016D02*
D03*
Y0140984D02*
D03*
Y0142953D02*
D03*
Y0144921D02*
D03*
Y0146890D02*
D03*
Y0148858D02*
D03*
Y0150827D02*
D03*
X0117803Y0135079D02*
D03*
X0119772D02*
D03*
X0121740D02*
D03*
X0123709D02*
D03*
X0125677D02*
D03*
X0127646D02*
D03*
X0129614D02*
D03*
X0131583D02*
D03*
X0117803Y0137047D02*
D03*
Y0139016D02*
D03*
X0121740D02*
D03*
X0123709D02*
D03*
X0125677D02*
D03*
X0127646D02*
D03*
X0129614D02*
D03*
X0117803Y0140984D02*
D03*
X0121740D02*
D03*
X0123709D02*
D03*
X0127646D02*
D03*
X0129614D02*
D03*
X0117803Y0142953D02*
D03*
X0121740D02*
D03*
X0129614D02*
D03*
X0117803Y0144921D02*
D03*
X0123709D02*
D03*
X0127646D02*
D03*
X0129614D02*
D03*
X0117803Y0146890D02*
D03*
X0121740D02*
D03*
X0123709D02*
D03*
X0125677D02*
D03*
X0127646D02*
D03*
X0129614D02*
D03*
X0117803Y0148858D02*
D03*
Y0150827D02*
D03*
X0119772D02*
D03*
X0121740D02*
D03*
X0123709D02*
D03*
X0125677D02*
D03*
X0127646D02*
D03*
X0129614D02*
D03*
X0131583D02*
D03*
D65*
X0123512Y0126850D02*
D03*
X0113669D02*
D03*
D66*
X0120441Y0182315D02*
D03*
D67*
X0126248Y0176409D02*
D03*
X0114634D02*
D03*
D68*
X0148295Y0164725D02*
D03*
M02*
