G04*
G04 #@! TF.GenerationSoftware,Altium Limited,Altium Designer,19.1.5 (86)*
G04*
G04 Layer_Color=32896*
%FSAX25Y25*%
%MOIN*%
G70*
G01*
G75*
%ADD10C,0.00787*%
%ADD11C,0.00591*%
%ADD69C,0.00394*%
%ADD70C,0.01000*%
D10*
X0195287Y0174173D02*
G03*
X0195287Y0174173I-0000201J0000000D01*
G01*
X0208754Y0179018D02*
X0214254D01*
Y0167518D02*
Y0179018D01*
X0208754Y0167518D02*
X0214254D01*
X0208754D02*
Y0179018D01*
X0201976Y0164882D02*
Y0173543D01*
X0190559D02*
X0201976D01*
X0190559Y0164882D02*
Y0173543D01*
Y0164882D02*
X0201976D01*
X0196896Y0154061D02*
Y0159561D01*
X0208396D01*
Y0154061D02*
Y0159561D01*
X0196896Y0154061D02*
X0208396D01*
X0110591Y0122350D02*
Y0131181D01*
Y0122350D02*
X0126591D01*
Y0131181D01*
X0110591D02*
X0126591D01*
X0113748Y0170504D02*
Y0171291D01*
Y0170504D02*
X0127134D01*
Y0171291D01*
X0113748Y0182709D02*
X0117685D01*
X0113748Y0181527D02*
Y0182709D01*
X0127134Y0181527D02*
X0127134Y0182709D01*
X0123197D02*
X0127134D01*
D11*
X0183905Y0146142D02*
X0181281D01*
X0180756Y0146667D01*
Y0147716D01*
X0181281Y0148241D01*
X0183905D01*
Y0151389D02*
X0183380Y0150340D01*
X0182330Y0149290D01*
X0181281D01*
X0180756Y0149815D01*
Y0150865D01*
X0181281Y0151389D01*
X0181805D01*
X0182330Y0150865D01*
Y0149290D01*
X0130440Y0128898D02*
X0127816D01*
X0127291Y0129422D01*
Y0130472D01*
X0127816Y0130997D01*
X0130440D01*
X0127291Y0132046D02*
Y0133096D01*
Y0132571D01*
X0130440D01*
X0129915Y0132046D01*
X0121140Y0193456D02*
X0121664Y0193980D01*
X0122714D01*
X0123239Y0193456D01*
Y0191356D01*
X0122714Y0190832D01*
X0121664D01*
X0121140Y0191356D01*
X0118516Y0193980D02*
X0119565D01*
X0120090Y0193456D01*
Y0191356D01*
X0119565Y0190832D01*
X0118516D01*
X0117991Y0191356D01*
Y0193456D01*
X0118516Y0193980D01*
X0116941Y0190832D02*
Y0193980D01*
X0114842Y0190832D01*
Y0193980D01*
X0111694Y0190832D02*
X0113793D01*
X0111694Y0192931D01*
Y0193456D01*
X0112219Y0193980D01*
X0113268D01*
X0113793Y0193456D01*
X0115087Y0134802D02*
X0112988Y0131653D01*
Y0134802D02*
X0115087Y0131653D01*
X0111938D02*
X0110889D01*
X0111413D01*
Y0134802D01*
X0111938Y0134277D01*
X0194810Y0175906D02*
X0192186D01*
X0191661Y0176430D01*
Y0177480D01*
X0192186Y0178005D01*
X0194810D01*
Y0181153D02*
Y0179054D01*
X0193236D01*
X0193761Y0180104D01*
Y0180628D01*
X0193236Y0181153D01*
X0192186D01*
X0191661Y0180628D01*
Y0179579D01*
X0192186Y0179054D01*
X0180519Y0177953D02*
X0177895D01*
X0177370Y0178478D01*
Y0179527D01*
X0177895Y0180052D01*
X0180519D01*
X0177370Y0182676D02*
X0180519D01*
X0178944Y0181101D01*
Y0183200D01*
X0133512Y0194960D02*
Y0192336D01*
X0132987Y0191811D01*
X0131938D01*
X0131413Y0192336D01*
Y0194960D01*
X0128264Y0191811D02*
X0130363D01*
X0128264Y0193910D01*
Y0194435D01*
X0128789Y0194960D01*
X0129838D01*
X0130363Y0194435D01*
X0186938Y0146142D02*
Y0144043D01*
Y0145092D01*
X0190087D01*
Y0142993D02*
X0186938D01*
Y0141419D01*
X0187463Y0140894D01*
X0188512D01*
X0189037Y0141419D01*
Y0142993D01*
X0190087Y0138270D02*
X0186938D01*
X0188512Y0139845D01*
Y0137745D01*
X0217290Y0149331D02*
Y0151430D01*
Y0150380D01*
X0214142D01*
Y0152479D02*
X0217290D01*
Y0154054D01*
X0216766Y0154578D01*
X0215716D01*
X0215191Y0154054D01*
Y0152479D01*
X0216766Y0155628D02*
X0217290Y0156153D01*
Y0157202D01*
X0216766Y0157727D01*
X0216241D01*
X0215716Y0157202D01*
Y0156677D01*
Y0157202D01*
X0215191Y0157727D01*
X0214667D01*
X0214142Y0157202D01*
Y0156153D01*
X0214667Y0155628D01*
X0174771Y0162165D02*
Y0164264D01*
Y0163215D01*
X0171622D01*
Y0165314D02*
X0174771D01*
Y0166888D01*
X0174246Y0167413D01*
X0173196D01*
X0172672Y0166888D01*
Y0165314D01*
X0171622Y0170562D02*
Y0168463D01*
X0173721Y0170562D01*
X0174246D01*
X0174771Y0170037D01*
Y0168987D01*
X0174246Y0168463D01*
X0145971Y0146004D02*
Y0148103D01*
Y0147054D01*
X0142823D01*
Y0149153D02*
X0145971D01*
Y0150727D01*
X0145447Y0151252D01*
X0144397D01*
X0143872Y0150727D01*
Y0149153D01*
X0142823Y0152301D02*
Y0153351D01*
Y0152826D01*
X0145971D01*
X0145447Y0152301D01*
X0208984Y0150275D02*
X0206885D01*
X0207935D01*
Y0147126D01*
X0205836D02*
X0204786D01*
X0205311D01*
Y0150275D01*
X0205836Y0149750D01*
X0175205Y0191024D02*
Y0194172D01*
X0173630D01*
X0173106Y0193648D01*
Y0192598D01*
X0173630Y0192073D01*
X0175205D01*
X0174155D02*
X0173106Y0191024D01*
X0172056D02*
X0171007D01*
X0171531D01*
Y0194172D01*
X0172056Y0193648D01*
X0167333Y0194172D02*
X0168383Y0193648D01*
X0169432Y0192598D01*
Y0191548D01*
X0168907Y0191024D01*
X0167858D01*
X0167333Y0191548D01*
Y0192073D01*
X0167858Y0192598D01*
X0169432D01*
X0183433Y0185276D02*
Y0188424D01*
X0181859D01*
X0181334Y0187899D01*
Y0186850D01*
X0181859Y0186325D01*
X0183433D01*
X0182384D02*
X0181334Y0185276D01*
X0180285D02*
X0179235D01*
X0179760D01*
Y0188424D01*
X0180285Y0187899D01*
X0175562Y0188424D02*
X0177661D01*
Y0186850D01*
X0176611Y0187375D01*
X0176086D01*
X0175562Y0186850D01*
Y0185800D01*
X0176086Y0185276D01*
X0177136D01*
X0177661Y0185800D01*
X0193354Y0160158D02*
Y0163306D01*
X0191780D01*
X0191255Y0162781D01*
Y0161732D01*
X0191780Y0161207D01*
X0193354D01*
X0192305D02*
X0191255Y0160158D01*
X0190206D02*
X0189156D01*
X0189681D01*
Y0163306D01*
X0190206Y0162781D01*
X0186008Y0160158D02*
Y0163306D01*
X0187582Y0161732D01*
X0185483D01*
X0207488Y0191693D02*
Y0194842D01*
X0205914D01*
X0205389Y0194317D01*
Y0193267D01*
X0205914Y0192742D01*
X0207488D01*
X0206439D02*
X0205389Y0191693D01*
X0204340D02*
X0203290D01*
X0203815D01*
Y0194842D01*
X0204340Y0194317D01*
X0201716D02*
X0201191Y0194842D01*
X0200142D01*
X0199617Y0194317D01*
Y0193792D01*
X0200142Y0193267D01*
X0200666D01*
X0200142D01*
X0199617Y0192742D01*
Y0192218D01*
X0200142Y0191693D01*
X0201191D01*
X0201716Y0192218D01*
X0198315Y0191575D02*
Y0194723D01*
X0196741D01*
X0196216Y0194199D01*
Y0193149D01*
X0196741Y0192624D01*
X0198315D01*
X0197265D02*
X0196216Y0191575D01*
X0195166D02*
X0194117D01*
X0194642D01*
Y0194723D01*
X0195166Y0194199D01*
X0190444Y0191575D02*
X0192543D01*
X0190444Y0193674D01*
Y0194199D01*
X0190968Y0194723D01*
X0192018D01*
X0192543Y0194199D01*
X0130047Y0177598D02*
X0133196D01*
Y0179173D01*
X0132671Y0179698D01*
X0131622D01*
X0131097Y0179173D01*
Y0177598D01*
Y0178648D02*
X0130047Y0179698D01*
Y0180747D02*
Y0181797D01*
Y0181272D01*
X0133196D01*
X0132671Y0180747D01*
X0130047Y0183371D02*
Y0184420D01*
Y0183896D01*
X0133196D01*
X0132671Y0183371D01*
X0193472Y0133307D02*
Y0136456D01*
X0191898D01*
X0191373Y0135931D01*
Y0134881D01*
X0191898Y0134357D01*
X0193472D01*
X0192423D02*
X0191373Y0133307D01*
X0190324D02*
X0189274D01*
X0189799D01*
Y0136456D01*
X0190324Y0135931D01*
X0187700D02*
X0187175Y0136456D01*
X0186126D01*
X0185601Y0135931D01*
Y0133832D01*
X0186126Y0133307D01*
X0187175D01*
X0187700Y0133832D01*
Y0135931D01*
X0193669Y0146968D02*
Y0150117D01*
X0192095D01*
X0191570Y0149592D01*
Y0148543D01*
X0192095Y0148018D01*
X0193669D01*
X0192620D02*
X0191570Y0146968D01*
X0190521Y0147493D02*
X0189996Y0146968D01*
X0188946D01*
X0188422Y0147493D01*
Y0149592D01*
X0188946Y0150117D01*
X0189996D01*
X0190521Y0149592D01*
Y0149068D01*
X0189996Y0148543D01*
X0188422D01*
X0214063Y0140236D02*
X0217212D01*
Y0141811D01*
X0216687Y0142335D01*
X0215637D01*
X0215112Y0141811D01*
Y0140236D01*
Y0141286D02*
X0214063Y0142335D01*
X0216687Y0143385D02*
X0217212Y0143910D01*
Y0144959D01*
X0216687Y0145484D01*
X0216162D01*
X0215637Y0144959D01*
X0215112Y0145484D01*
X0214588D01*
X0214063Y0144959D01*
Y0143910D01*
X0214588Y0143385D01*
X0215112D01*
X0215637Y0143910D01*
X0216162Y0143385D01*
X0216687D01*
X0215637Y0143910D02*
Y0144959D01*
X0208709Y0128504D02*
Y0131652D01*
X0207134D01*
X0206610Y0131128D01*
Y0130078D01*
X0207134Y0129553D01*
X0208709D01*
X0207659D02*
X0206610Y0128504D01*
X0205560Y0131652D02*
X0203461D01*
Y0131128D01*
X0205560Y0129029D01*
Y0128504D01*
X0128787Y0165276D02*
X0131936D01*
Y0166850D01*
X0131411Y0167375D01*
X0130362D01*
X0129837Y0166850D01*
Y0165276D01*
Y0166325D02*
X0128787Y0167375D01*
X0131936Y0170523D02*
X0131411Y0169474D01*
X0130362Y0168424D01*
X0129312D01*
X0128787Y0168949D01*
Y0169999D01*
X0129312Y0170523D01*
X0129837D01*
X0130362Y0169999D01*
Y0168424D01*
X0213315Y0188425D02*
Y0191574D01*
X0211741D01*
X0211216Y0191049D01*
Y0189999D01*
X0211741Y0189475D01*
X0213315D01*
X0212265D02*
X0211216Y0188425D01*
X0208067Y0191574D02*
X0210166D01*
Y0189999D01*
X0209117Y0190524D01*
X0208592D01*
X0208067Y0189999D01*
Y0188950D01*
X0208592Y0188425D01*
X0209642D01*
X0210166Y0188950D01*
X0212961Y0184606D02*
Y0187755D01*
X0211386D01*
X0210862Y0187230D01*
Y0186181D01*
X0211386Y0185656D01*
X0212961D01*
X0211911D02*
X0210862Y0184606D01*
X0208238D02*
Y0187755D01*
X0209812Y0186181D01*
X0207713D01*
X0121386Y0153110D02*
Y0156259D01*
X0119811D01*
X0119287Y0155734D01*
Y0154684D01*
X0119811Y0154160D01*
X0121386D01*
X0120336D02*
X0119287Y0153110D01*
X0118237Y0155734D02*
X0117712Y0156259D01*
X0116663D01*
X0116138Y0155734D01*
Y0155209D01*
X0116663Y0154684D01*
X0117188D01*
X0116663D01*
X0116138Y0154160D01*
Y0153635D01*
X0116663Y0153110D01*
X0117712D01*
X0118237Y0153635D01*
X0134693Y0162795D02*
X0137841D01*
Y0164370D01*
X0137317Y0164894D01*
X0136267D01*
X0135742Y0164370D01*
Y0162795D01*
Y0163845D02*
X0134693Y0164894D01*
Y0168043D02*
Y0165944D01*
X0136792Y0168043D01*
X0137317D01*
X0137841Y0167518D01*
Y0166469D01*
X0137317Y0165944D01*
X0113915Y0147982D02*
X0110767D01*
Y0146408D01*
X0111292Y0145883D01*
X0112341D01*
X0112866Y0146408D01*
Y0147982D01*
Y0146933D02*
X0113915Y0145883D01*
Y0144834D02*
Y0143784D01*
Y0144309D01*
X0110767D01*
X0111292Y0144834D01*
X0207724Y0169133D02*
Y0165984D01*
X0205625D01*
X0203001D02*
Y0169133D01*
X0204576Y0167559D01*
X0202477D01*
X0124063Y0165117D02*
Y0161969D01*
X0121964D01*
X0120914Y0164592D02*
X0120390Y0165117D01*
X0119340D01*
X0118815Y0164592D01*
Y0164068D01*
X0119340Y0163543D01*
X0119865D01*
X0119340D01*
X0118815Y0163018D01*
Y0162493D01*
X0119340Y0161969D01*
X0120390D01*
X0120914Y0162493D01*
X0159810Y0179449D02*
X0156661D01*
Y0181548D01*
Y0184696D02*
Y0182597D01*
X0158760Y0184696D01*
X0159285D01*
X0159810Y0184172D01*
Y0183122D01*
X0159285Y0182597D01*
X0157173Y0191849D02*
Y0188701D01*
X0155074D01*
X0154025D02*
X0152975D01*
X0153500D01*
Y0191849D01*
X0154025Y0191325D01*
X0139141Y0169134D02*
X0135992D01*
Y0170708D01*
X0136517Y0171233D01*
X0138616D01*
X0139141Y0170708D01*
Y0169134D01*
X0135992Y0172282D02*
Y0173332D01*
Y0172807D01*
X0139141D01*
X0138616Y0172282D01*
X0148290Y0133098D02*
X0147765Y0133623D01*
Y0134672D01*
X0148290Y0135197D01*
X0150389D01*
X0150913Y0134672D01*
Y0133623D01*
X0150389Y0133098D01*
X0150913Y0129949D02*
Y0132048D01*
X0148814Y0129949D01*
X0148290D01*
X0147765Y0130474D01*
Y0131524D01*
X0148290Y0132048D01*
Y0128900D02*
X0147765Y0128375D01*
Y0127325D01*
X0148290Y0126801D01*
X0150389D01*
X0150913Y0127325D01*
Y0128375D01*
X0150389Y0128900D01*
X0148290D01*
X0152620Y0133098D02*
X0152095Y0133623D01*
Y0134672D01*
X0152620Y0135197D01*
X0154719D01*
X0155244Y0134672D01*
Y0133623D01*
X0154719Y0133098D01*
X0155244Y0132048D02*
Y0130999D01*
Y0131524D01*
X0152095D01*
X0152620Y0132048D01*
X0154719Y0129424D02*
X0155244Y0128900D01*
Y0127850D01*
X0154719Y0127325D01*
X0152620D01*
X0152095Y0127850D01*
Y0128900D01*
X0152620Y0129424D01*
X0153145D01*
X0153670Y0128900D01*
Y0127325D01*
X0193184Y0157703D02*
X0193709Y0158227D01*
X0194759D01*
X0195283Y0157703D01*
Y0155604D01*
X0194759Y0155079D01*
X0193709D01*
X0193184Y0155604D01*
X0192135Y0155079D02*
X0191085D01*
X0191610D01*
Y0158227D01*
X0192135Y0157703D01*
X0187412Y0158227D02*
X0189511D01*
Y0156653D01*
X0188461Y0157178D01*
X0187937D01*
X0187412Y0156653D01*
Y0155604D01*
X0187937Y0155079D01*
X0188986D01*
X0189511Y0155604D01*
X0212318Y0163293D02*
X0212843Y0163818D01*
X0213893D01*
X0214417Y0163293D01*
Y0161194D01*
X0213893Y0160669D01*
X0212843D01*
X0212318Y0161194D01*
X0211269Y0160669D02*
X0210219D01*
X0210744D01*
Y0163818D01*
X0211269Y0163293D01*
X0207071Y0160669D02*
Y0163818D01*
X0208645Y0162244D01*
X0206546D01*
X0217947Y0180997D02*
X0218471Y0180472D01*
Y0179422D01*
X0217947Y0178898D01*
X0215848D01*
X0215323Y0179422D01*
Y0180472D01*
X0215848Y0180997D01*
X0215323Y0182046D02*
Y0183096D01*
Y0182571D01*
X0218471D01*
X0217947Y0182046D01*
Y0184670D02*
X0218471Y0185195D01*
Y0186244D01*
X0217947Y0186769D01*
X0217422D01*
X0216897Y0186244D01*
Y0185720D01*
Y0186244D01*
X0216372Y0186769D01*
X0215848D01*
X0215323Y0186244D01*
Y0185195D01*
X0215848Y0184670D01*
X0217986Y0171548D02*
X0218511Y0171023D01*
Y0169974D01*
X0217986Y0169449D01*
X0215887D01*
X0215362Y0169974D01*
Y0171023D01*
X0215887Y0171548D01*
X0215362Y0172597D02*
Y0173647D01*
Y0173122D01*
X0218511D01*
X0217986Y0172597D01*
X0215362Y0177320D02*
Y0175221D01*
X0217461Y0177320D01*
X0217986D01*
X0218511Y0176795D01*
Y0175746D01*
X0217986Y0175221D01*
X0123263Y0160104D02*
X0123788Y0160629D01*
X0124837D01*
X0125362Y0160104D01*
Y0158005D01*
X0124837Y0157480D01*
X0123788D01*
X0123263Y0158005D01*
X0122214Y0157480D02*
X0121164D01*
X0121689D01*
Y0160629D01*
X0122214Y0160104D01*
X0119590Y0157480D02*
X0118540D01*
X0119065D01*
Y0160629D01*
X0119590Y0160104D01*
X0163852Y0169501D02*
X0164377Y0168976D01*
Y0167926D01*
X0163852Y0167402D01*
X0161753D01*
X0161228Y0167926D01*
Y0168976D01*
X0161753Y0169501D01*
X0161228Y0170550D02*
Y0171600D01*
Y0171075D01*
X0164377D01*
X0163852Y0170550D01*
Y0173174D02*
X0164377Y0173699D01*
Y0174748D01*
X0163852Y0175273D01*
X0161753D01*
X0161228Y0174748D01*
Y0173699D01*
X0161753Y0173174D01*
X0163852D01*
X0163893Y0179553D02*
X0164418Y0180078D01*
X0165467D01*
X0165992Y0179553D01*
Y0177454D01*
X0165467Y0176929D01*
X0164418D01*
X0163893Y0177454D01*
X0162844Y0180078D02*
X0160745D01*
Y0179553D01*
X0162844Y0177454D01*
Y0176929D01*
X0146411Y0132532D02*
X0146936Y0132007D01*
Y0130958D01*
X0146411Y0130433D01*
X0144312D01*
X0143787Y0130958D01*
Y0132007D01*
X0144312Y0132532D01*
X0146936Y0135681D02*
X0146411Y0134631D01*
X0145362Y0133582D01*
X0144312D01*
X0143787Y0134106D01*
Y0135156D01*
X0144312Y0135681D01*
X0144837D01*
X0145362Y0135156D01*
Y0133582D01*
X0140192Y0144277D02*
X0140717Y0144802D01*
X0141767D01*
X0142291Y0144277D01*
Y0142178D01*
X0141767Y0141654D01*
X0140717D01*
X0140192Y0142178D01*
X0137044Y0144802D02*
X0139143D01*
Y0143228D01*
X0138093Y0143753D01*
X0137568D01*
X0137044Y0143228D01*
Y0142178D01*
X0137568Y0141654D01*
X0138618D01*
X0139143Y0142178D01*
X0127817Y0125618D02*
X0127292Y0126142D01*
Y0127192D01*
X0127817Y0127717D01*
X0129916D01*
X0130441Y0127192D01*
Y0126142D01*
X0129916Y0125618D01*
X0130441Y0122994D02*
X0127292D01*
X0128867Y0124568D01*
Y0122469D01*
X0143696Y0129159D02*
X0144221Y0129684D01*
X0145271D01*
X0145795Y0129159D01*
Y0127060D01*
X0145271Y0126535D01*
X0144221D01*
X0143696Y0127060D01*
X0142647Y0129159D02*
X0142122Y0129684D01*
X0141072D01*
X0140548Y0129159D01*
Y0128635D01*
X0141072Y0128110D01*
X0141597D01*
X0141072D01*
X0140548Y0127585D01*
Y0127060D01*
X0141072Y0126535D01*
X0142122D01*
X0142647Y0127060D01*
X0155624Y0183123D02*
X0156149Y0182598D01*
Y0181548D01*
X0155624Y0181024D01*
X0153525D01*
X0153000Y0181548D01*
Y0182598D01*
X0153525Y0183123D01*
X0153000Y0186271D02*
Y0184172D01*
X0155099Y0186271D01*
X0155624D01*
X0156149Y0185747D01*
Y0184697D01*
X0155624Y0184172D01*
X0143578Y0187663D02*
X0144103Y0188188D01*
X0145152D01*
X0145677Y0187663D01*
Y0185564D01*
X0145152Y0185039D01*
X0144103D01*
X0143578Y0185564D01*
X0142529Y0185039D02*
X0141479D01*
X0142004D01*
Y0188188D01*
X0142529Y0187663D01*
D69*
X0142174Y0151102D02*
G03*
X0142174Y0151102I-0002993J0000000D01*
G01*
X0170678Y0164488D02*
G03*
X0170678Y0164488I-0002993J0000000D01*
G01*
X0213355Y0153307D02*
G03*
X0213355Y0153307I-0002993J0000000D01*
G01*
X0197804Y0141260D02*
G03*
X0197804Y0141260I-0002993J0000000D01*
G01*
X0111268Y0148858D02*
Y0156339D01*
Y0148858D02*
X0115205D01*
Y0156339D01*
X0111268D02*
X0115205D01*
X0134614Y0191142D02*
X0140520D01*
X0134614Y0187205D02*
X0140520D01*
X0134614D02*
Y0191142D01*
X0140520Y0187205D02*
Y0191142D01*
X0142764Y0188346D02*
X0150244D01*
Y0192283D01*
X0142764D02*
X0150244D01*
X0142764Y0188346D02*
Y0192283D01*
X0146287Y0187933D02*
X0150421D01*
Y0180256D02*
Y0187933D01*
X0146287Y0180256D02*
X0150421D01*
X0146287D02*
Y0187933D01*
X0145894Y0180532D02*
Y0184665D01*
X0138216Y0180532D02*
X0145894D01*
X0138216D02*
Y0184665D01*
X0145894D01*
X0133905Y0176890D02*
Y0184370D01*
Y0176890D02*
X0137843D01*
Y0184370D01*
X0133905D02*
X0137843D01*
X0138216Y0176004D02*
Y0180138D01*
X0145894D01*
Y0176004D02*
Y0180138D01*
X0138216Y0176004D02*
X0145894D01*
X0143243Y0173189D02*
X0144457D01*
X0143236Y0175551D02*
X0144417D01*
X0140480D02*
X0143243D01*
X0140480Y0173189D02*
X0143243D01*
Y0174370D01*
Y0173189D02*
Y0175551D01*
X0146386Y0172480D02*
Y0179961D01*
Y0172480D02*
X0150323D01*
Y0179961D01*
X0146386D02*
X0150323D01*
X0158492Y0172303D02*
Y0176437D01*
X0150815Y0172303D02*
X0158492D01*
X0150815D02*
Y0176437D01*
X0158492D01*
X0185047Y0187205D02*
Y0194685D01*
Y0187205D02*
X0188984D01*
Y0194685D01*
X0185047D02*
X0188984D01*
X0176465Y0189016D02*
X0183945D01*
Y0192953D01*
X0176465D02*
X0183945D01*
X0176465Y0189016D02*
Y0192953D01*
X0190264Y0176299D02*
Y0184173D01*
X0181780Y0176299D02*
X0181799Y0184173D01*
X0191661Y0186890D02*
X0199142D01*
Y0190827D01*
X0191661D02*
X0199142D01*
X0191661Y0186890D02*
Y0190827D01*
X0199535Y0186890D02*
X0207016D01*
Y0190827D01*
X0199535D02*
X0207016D01*
X0199535Y0186890D02*
Y0190827D01*
X0197685Y0182520D02*
X0205165D01*
Y0186457D01*
X0197685D02*
X0205165D01*
X0197685Y0182520D02*
Y0186457D01*
X0202921Y0174921D02*
Y0181457D01*
X0195835D02*
X0202921D01*
X0195835Y0174921D02*
Y0181457D01*
Y0174921D02*
X0202921D01*
X0205559Y0183701D02*
X0213039D01*
X0205559Y0179764D02*
Y0183701D01*
Y0179764D02*
X0213039D01*
Y0183701D01*
X0204004Y0170492D02*
X0208138D01*
X0204004D02*
Y0178169D01*
X0208138D01*
Y0170492D02*
Y0178169D01*
X0188984Y0164094D02*
Y0171575D01*
X0185047D02*
X0188984D01*
X0185047Y0164094D02*
Y0171575D01*
Y0164094D02*
X0188984D01*
X0205500Y0160216D02*
Y0164350D01*
X0197823Y0160216D02*
X0205500D01*
X0197823D02*
Y0164350D01*
X0205500D01*
X0194614Y0146614D02*
X0202095D01*
Y0150551D01*
X0194614D02*
X0202095D01*
X0194614Y0146614D02*
Y0150551D01*
X0205677Y0138622D02*
Y0145050D01*
X0198984Y0138612D02*
Y0145039D01*
X0209299Y0138740D02*
Y0146221D01*
Y0138740D02*
X0213236D01*
Y0146221D01*
X0209299D02*
X0213236D01*
X0202409Y0136890D02*
X0209890D01*
X0202409Y0132953D02*
Y0136890D01*
Y0132953D02*
X0209890D01*
Y0136890D01*
X0194535D02*
X0202016D01*
X0194535Y0132953D02*
Y0136890D01*
Y0132953D02*
X0202016D01*
Y0136890D01*
X0131583Y0133701D02*
X0134929D01*
Y0137047D01*
X0116425Y0133701D02*
X0119772D01*
X0116425D02*
Y0137047D01*
Y0148858D02*
Y0152205D01*
X0119772D01*
X0134929Y0148858D02*
Y0152205D01*
X0131583D02*
X0134929D01*
X0110539Y0161083D02*
X0118217D01*
X0110539Y0156949D02*
Y0161083D01*
Y0156949D02*
X0118217D01*
Y0161083D01*
X0118039Y0161457D02*
Y0165394D01*
X0110559Y0161457D02*
X0118039D01*
X0110559D02*
Y0165394D01*
X0118039D01*
X0132449Y0154882D02*
X0136386D01*
X0132449D02*
Y0162362D01*
X0136386D01*
Y0154882D02*
Y0162362D01*
X0131898Y0168701D02*
X0135835D01*
X0131898D02*
Y0176181D01*
X0135835D01*
Y0168701D02*
Y0176181D01*
X0151445Y0136240D02*
Y0143917D01*
Y0136240D02*
X0155579D01*
Y0143917D01*
X0151445D02*
X0155579D01*
X0146957Y0136201D02*
Y0143878D01*
Y0136201D02*
X0151091D01*
Y0143878D01*
X0146957D02*
X0151091D01*
X0135815Y0141083D02*
X0143492D01*
X0135815Y0136949D02*
Y0141083D01*
Y0136949D02*
X0143492D01*
Y0141083D01*
X0135776Y0136634D02*
X0143453D01*
X0135776Y0132500D02*
Y0136634D01*
Y0132500D02*
X0143453D01*
Y0136634D01*
X0139594Y0124429D02*
Y0132106D01*
X0135461D02*
X0139594D01*
X0135461Y0124429D02*
Y0132106D01*
Y0124429D02*
X0139594D01*
X0135067Y0124508D02*
Y0132185D01*
X0130933D02*
X0135067D01*
X0130933Y0124508D02*
Y0132185D01*
Y0124508D02*
X0135067D01*
X0110756Y0135335D02*
X0114693D01*
X0110756D02*
Y0142815D01*
X0114693D01*
Y0135335D02*
Y0142815D01*
D70*
X0135795Y0192126D02*
G03*
X0135795Y0192126I-0000197J0000000D01*
G01*
X0207449Y0139331D02*
G03*
X0207449Y0139331I-0000473J0000000D01*
G01*
X0136259Y0153110D02*
G03*
X0136259Y0153110I-0000424J0000000D01*
G01*
M02*
