G04*
G04 #@! TF.GenerationSoftware,Altium Limited,Altium Designer,19.1.5 (86)*
G04*
G04 Layer_Color=16711935*
%FSAX25Y25*%
%MOIN*%
G70*
G01*
G75*
%ADD10C,0.00787*%
%ADD11C,0.00591*%
%ADD69C,0.00394*%
%ADD70C,0.01000*%
%ADD71C,0.00472*%
%ADD72C,0.00197*%
%ADD73C,0.00600*%
D10*
X0189310Y0177480D02*
G03*
X0189310Y0177480I-0000326J0000000D01*
G01*
X0201976Y0164882D02*
Y0173543D01*
X0190559Y0164882D02*
X0201976D01*
X0190559D02*
Y0173543D01*
X0201976D01*
X0200795Y0170589D02*
Y0167441D01*
X0198696D01*
X0196072D02*
Y0170589D01*
X0197647Y0169015D01*
X0195548D01*
D11*
X0189178Y0181219D02*
Y0178596D01*
X0188653Y0178071D01*
X0187604D01*
X0187079Y0178596D01*
Y0181219D01*
X0184455Y0178071D02*
Y0181219D01*
X0186029Y0179645D01*
X0183930D01*
D69*
X0115205Y0148858D02*
Y0156339D01*
X0111268Y0148858D02*
Y0156339D01*
Y0148858D02*
X0115205D01*
X0111268Y0156339D02*
X0115205D01*
X0134614Y0187205D02*
Y0191142D01*
Y0187205D02*
X0140520D01*
Y0191142D01*
X0134614D02*
X0140520D01*
X0142764Y0192283D02*
X0150244D01*
X0142764Y0188346D02*
X0150244D01*
Y0192283D01*
X0142764Y0188346D02*
Y0192283D01*
X0150421Y0180256D02*
Y0187933D01*
X0146287Y0180256D02*
Y0187933D01*
Y0180256D02*
X0150421D01*
X0146287Y0187933D02*
X0150421D01*
X0138216Y0180532D02*
X0145894D01*
X0138216Y0184665D02*
X0145894D01*
X0138216Y0180532D02*
Y0184665D01*
X0145894Y0180532D02*
Y0184665D01*
X0137843Y0176890D02*
Y0184370D01*
X0133905Y0176890D02*
Y0184370D01*
Y0176890D02*
X0137843D01*
X0133905Y0184370D02*
X0137843D01*
X0138216Y0180138D02*
X0145894D01*
X0138216Y0176004D02*
X0145894D01*
Y0180138D01*
X0138216Y0176004D02*
Y0180138D01*
X0140480Y0173189D02*
Y0175551D01*
X0144418D01*
Y0173189D02*
Y0175551D01*
X0140480Y0173189D02*
X0144418D01*
X0143236Y0173189D02*
Y0175551D01*
Y0173189D02*
Y0174370D01*
X0150323Y0172480D02*
Y0179961D01*
X0146386Y0172480D02*
Y0179961D01*
Y0172480D02*
X0150323D01*
X0146386Y0179961D02*
X0150323D01*
X0150815Y0172303D02*
X0158492D01*
X0150815Y0176437D02*
X0158492D01*
X0150815Y0172303D02*
Y0176437D01*
X0158492Y0172303D02*
Y0176437D01*
X0188984Y0187205D02*
Y0194685D01*
X0185047Y0187205D02*
Y0194685D01*
Y0187205D02*
X0188984D01*
X0185047Y0194685D02*
X0188984D01*
X0176465Y0192953D02*
X0183945D01*
X0176465Y0189016D02*
X0183945D01*
Y0192953D01*
X0176465Y0189016D02*
Y0192953D01*
X0182095Y0184173D02*
X0189969Y0184173D01*
X0182095Y0184173D02*
X0182095Y0176299D01*
X0189969D01*
X0189969Y0184173D02*
X0189969Y0176299D01*
X0191661Y0190827D02*
X0199142D01*
X0191661Y0186890D02*
X0199142D01*
Y0190827D01*
X0191661Y0186890D02*
Y0190827D01*
X0199535D02*
X0207016D01*
X0199535Y0186890D02*
X0207016D01*
Y0190827D01*
X0199535Y0186890D02*
Y0190827D01*
X0197685Y0186457D02*
X0205165D01*
X0197685Y0182520D02*
X0205165D01*
Y0186457D01*
X0197685Y0182520D02*
Y0186457D01*
X0195874Y0174921D02*
X0202921D01*
Y0181457D01*
X0195874D02*
X0202921D01*
X0195874Y0174921D02*
Y0181457D01*
X0205559Y0179764D02*
X0213039D01*
X0205559Y0183701D02*
X0213039D01*
X0205559Y0179764D02*
Y0183701D01*
X0213039Y0179764D02*
Y0183701D01*
X0204004Y0170492D02*
Y0178169D01*
X0208138Y0170492D02*
Y0178169D01*
X0204004D02*
X0208138D01*
X0204004Y0170492D02*
X0208138D01*
X0214254Y0167518D02*
Y0179018D01*
X0208754D02*
X0214254D01*
X0208754Y0167518D02*
Y0179018D01*
Y0167518D02*
X0214254D01*
X0185047Y0164094D02*
Y0171575D01*
X0188984Y0164094D02*
Y0171575D01*
X0185047D02*
X0188984D01*
X0185047Y0164094D02*
X0188984D01*
X0197823Y0160216D02*
X0205500D01*
X0197823Y0164350D02*
X0205500D01*
X0197823Y0160216D02*
Y0164350D01*
X0205500Y0160216D02*
Y0164350D01*
X0196896Y0159561D02*
X0208396D01*
X0196896Y0154061D02*
Y0159561D01*
Y0154061D02*
X0208396D01*
Y0159561D01*
X0194614Y0150551D02*
X0202095D01*
X0194614Y0146614D02*
X0202095D01*
Y0150551D01*
X0194614Y0146614D02*
Y0150551D01*
X0199180Y0138612D02*
Y0145012D01*
Y0138612D02*
X0205480D01*
Y0145012D01*
X0199180D02*
X0205480D01*
X0213236Y0138740D02*
Y0146221D01*
X0209299Y0138740D02*
Y0146221D01*
Y0138740D02*
X0213236D01*
X0209299Y0146221D02*
X0213236D01*
X0202409Y0132953D02*
X0209890D01*
X0202409Y0136890D02*
X0209890D01*
X0202409Y0132953D02*
Y0136890D01*
X0209890Y0132953D02*
Y0136890D01*
X0194535Y0132953D02*
X0202016D01*
X0194535Y0136890D02*
X0202016D01*
X0194535Y0132953D02*
Y0136890D01*
X0202016Y0132953D02*
Y0136890D01*
X0116819Y0134095D02*
X0134535D01*
Y0151811D01*
X0116819D02*
X0134535D01*
X0116819Y0134095D02*
Y0151811D01*
X0118217Y0156949D02*
Y0161083D01*
X0110539Y0156949D02*
Y0161083D01*
X0118217D01*
X0110539Y0156949D02*
X0118217D01*
X0118039Y0161457D02*
Y0165394D01*
X0110559Y0161457D02*
Y0165394D01*
X0118039D01*
X0110559Y0161457D02*
X0118039D01*
X0132449Y0154882D02*
X0136386D01*
X0132449Y0162362D02*
X0136386D01*
Y0154882D02*
Y0162362D01*
X0132449Y0154882D02*
Y0162362D01*
X0131898Y0168701D02*
X0135835D01*
X0131898Y0176181D02*
X0135835D01*
Y0168701D02*
Y0176181D01*
X0131898Y0168701D02*
Y0176181D01*
X0151445Y0143917D02*
X0155579D01*
X0151445Y0136240D02*
X0155579D01*
X0151445D02*
Y0143917D01*
X0155579Y0136240D02*
Y0143917D01*
X0146957Y0143878D02*
X0151091D01*
X0146957Y0136201D02*
X0151091D01*
X0146957D02*
Y0143878D01*
X0151091Y0136201D02*
Y0143878D01*
X0143492Y0136949D02*
Y0141083D01*
X0135815Y0136949D02*
Y0141083D01*
X0143492D01*
X0135815Y0136949D02*
X0143492D01*
X0143453Y0132500D02*
Y0136634D01*
X0135776Y0132500D02*
Y0136634D01*
X0143453D01*
X0135776Y0132500D02*
X0143453D01*
X0135461Y0124429D02*
X0139594D01*
X0135461Y0132106D02*
X0139594D01*
Y0124429D02*
Y0132106D01*
X0135461Y0124429D02*
Y0132106D01*
X0130933Y0124508D02*
X0135067D01*
X0130933Y0132185D02*
X0135067D01*
Y0124508D02*
Y0132185D01*
X0130933Y0124508D02*
Y0132185D01*
X0110591Y0122520D02*
Y0131181D01*
X0126591D01*
Y0122520D02*
Y0131181D01*
X0110591Y0122520D02*
X0126591D01*
X0110756Y0135335D02*
X0114693D01*
X0110756Y0142815D02*
X0114693D01*
Y0135335D02*
Y0142815D01*
X0110756Y0135335D02*
Y0142815D01*
X0113827Y0182579D02*
X0127055D01*
X0113748Y0182500D02*
X0113827Y0182579D01*
X0113748Y0170610D02*
Y0182500D01*
Y0170610D02*
X0127094D01*
X0127055Y0170650D02*
X0127094Y0170610D01*
X0127055Y0170650D02*
Y0182579D01*
X0196858Y0177521D02*
Y0179488D01*
X0197252Y0179882D01*
X0198039D01*
X0198433Y0179488D01*
Y0177521D01*
X0200794D02*
X0199220D01*
Y0178701D01*
X0200007Y0178308D01*
X0200400D01*
X0200794Y0178701D01*
Y0179488D01*
X0200400Y0179882D01*
X0199613D01*
X0199220Y0179488D01*
X0135598Y0188386D02*
Y0190026D01*
X0135926Y0190354D01*
X0136582D01*
X0136910Y0190026D01*
Y0188386D01*
X0138878Y0190354D02*
X0137566D01*
X0138878Y0189042D01*
Y0188714D01*
X0138550Y0188386D01*
X0137894D01*
X0137566Y0188714D01*
X0212472Y0171092D02*
X0212865Y0170698D01*
Y0169911D01*
X0212472Y0169518D01*
X0210897D01*
X0210504Y0169911D01*
Y0170698D01*
X0210897Y0171092D01*
X0210504Y0171879D02*
Y0172666D01*
Y0172273D01*
X0212865D01*
X0212472Y0171879D01*
X0210504Y0175421D02*
Y0173847D01*
X0212078Y0175421D01*
X0212472D01*
X0212865Y0175028D01*
Y0174241D01*
X0212472Y0173847D01*
X0204821Y0157779D02*
X0205215Y0158173D01*
X0206002D01*
X0206396Y0157779D01*
Y0156205D01*
X0206002Y0155811D01*
X0205215D01*
X0204821Y0156205D01*
X0204034Y0155811D02*
X0203247D01*
X0203641D01*
Y0158173D01*
X0204034Y0157779D01*
X0200492Y0158173D02*
X0202066D01*
Y0156992D01*
X0201279Y0157385D01*
X0200886D01*
X0200492Y0156992D01*
Y0156205D01*
X0200886Y0155811D01*
X0201673D01*
X0202066Y0156205D01*
X0204929Y0142991D02*
X0203355D01*
X0204142D01*
Y0140630D01*
X0202568D02*
X0201781D01*
X0202174D01*
Y0142991D01*
X0202568Y0142598D01*
X0131543Y0144487D02*
Y0142520D01*
X0131150Y0142126D01*
X0130363D01*
X0129969Y0142520D01*
Y0144487D01*
X0129182Y0142126D02*
X0128395D01*
X0128788D01*
Y0144487D01*
X0129182Y0144094D01*
X0113472Y0124490D02*
X0116359Y0128819D01*
Y0124490D02*
X0113472Y0128819D01*
X0117802D02*
X0119245D01*
X0118523D01*
Y0124490D01*
X0117802Y0125211D01*
X0122148Y0179008D02*
X0122804Y0179664D01*
X0124116D01*
X0124772Y0179008D01*
Y0176384D01*
X0124116Y0175728D01*
X0122804D01*
X0122148Y0176384D01*
X0118868Y0179664D02*
X0120180D01*
X0120836Y0179008D01*
Y0176384D01*
X0120180Y0175728D01*
X0118868D01*
X0118212Y0176384D01*
Y0179008D01*
X0118868Y0179664D01*
X0116900Y0175728D02*
Y0179664D01*
X0114276Y0175728D01*
Y0179664D01*
X0110341Y0175728D02*
X0112964D01*
X0110341Y0178352D01*
Y0179008D01*
X0110997Y0179664D01*
X0112309D01*
X0112964Y0179008D01*
D70*
X0135795Y0192126D02*
G03*
X0135795Y0192126I-0000197J0000000D01*
G01*
X0207449Y0139331D02*
G03*
X0207449Y0139331I-0000473J0000000D01*
G01*
X0133497Y0150276D02*
G03*
X0133497Y0150276I-0000418J0000000D01*
G01*
X0213417Y0206031D02*
X0219417Y0208032D01*
X0213417Y0210032D02*
X0219417Y0208032D01*
X0109181D02*
X0115181Y0210032D01*
X0109181Y0208032D02*
X0115181Y0206031D01*
X0178295Y0208032D02*
X0219417D01*
X0109181D02*
X0147104D01*
X0219417Y0196433D02*
Y0209032D01*
X0109181Y0196433D02*
Y0209032D01*
X0230016Y0122693D02*
X0232016Y0116693D01*
X0234016Y0122693D01*
X0232016Y0195433D02*
X0234016Y0189433D01*
X0230016D02*
X0232016Y0195433D01*
Y0116693D02*
Y0138867D01*
Y0170058D02*
Y0195433D01*
X0220417Y0116693D02*
X0233016D01*
X0220417Y0195433D02*
X0233016D01*
D71*
X0114614Y0155551D02*
X0112253D01*
Y0154370D01*
X0112646Y0153977D01*
X0113433D01*
X0113827Y0154370D01*
Y0155551D01*
Y0154764D02*
X0114614Y0153977D01*
X0112646Y0153190D02*
X0112253Y0152796D01*
Y0152009D01*
X0112646Y0151616D01*
X0113040D01*
X0113433Y0152009D01*
Y0152403D01*
Y0152009D01*
X0113827Y0151616D01*
X0114221D01*
X0114614Y0152009D01*
Y0152796D01*
X0114221Y0153190D01*
X0143748Y0189135D02*
Y0191496D01*
X0145322D01*
X0146109D02*
X0146897D01*
X0146503D01*
Y0189135D01*
X0146109Y0189528D01*
X0147666Y0185276D02*
X0147272Y0185670D01*
Y0186457D01*
X0147666Y0186850D01*
X0149240D01*
X0149634Y0186457D01*
Y0185670D01*
X0149240Y0185276D01*
X0149634Y0182915D02*
Y0184489D01*
X0148060Y0182915D01*
X0147666D01*
X0147272Y0183308D01*
Y0184095D01*
X0147666Y0184489D01*
X0143237Y0183287D02*
X0143630Y0183680D01*
X0144418D01*
X0144811Y0183287D01*
Y0181712D01*
X0144418Y0181319D01*
X0143630D01*
X0143237Y0181712D01*
X0142450Y0181319D02*
X0141662D01*
X0142056D01*
Y0183680D01*
X0142450Y0183287D01*
X0137252Y0183583D02*
X0134890D01*
Y0182402D01*
X0135284Y0182008D01*
X0136071D01*
X0136465Y0182402D01*
Y0183583D01*
Y0182796D02*
X0137252Y0182008D01*
Y0181221D02*
Y0180434D01*
Y0180828D01*
X0134890D01*
X0135284Y0181221D01*
X0137252Y0179253D02*
Y0178466D01*
Y0178860D01*
X0134890D01*
X0135284Y0179253D01*
X0140874Y0177383D02*
X0140480Y0176989D01*
X0139693D01*
X0139299Y0177383D01*
Y0178957D01*
X0139693Y0179350D01*
X0140480D01*
X0140874Y0178957D01*
X0141661Y0176989D02*
X0143235D01*
Y0177383D01*
X0141661Y0178957D01*
Y0179350D01*
X0147174Y0178976D02*
X0149535D01*
Y0177402D01*
Y0175041D02*
Y0176615D01*
X0147961Y0175041D01*
X0147568D01*
X0147174Y0175434D01*
Y0176221D01*
X0147568Y0176615D01*
X0155835Y0175058D02*
X0156229Y0175452D01*
X0157016D01*
X0157409Y0175058D01*
Y0173484D01*
X0157016Y0173091D01*
X0156229D01*
X0155835Y0173484D01*
X0155048Y0173091D02*
X0154261D01*
X0154654D01*
Y0175452D01*
X0155048Y0175058D01*
X0153080D02*
X0152687Y0175452D01*
X0151899D01*
X0151506Y0175058D01*
Y0173484D01*
X0151899Y0173091D01*
X0152687D01*
X0153080Y0173484D01*
Y0175058D01*
X0188394Y0193898D02*
X0186032D01*
Y0192717D01*
X0186426Y0192323D01*
X0187213D01*
X0187607Y0192717D01*
Y0193898D01*
Y0193111D02*
X0188394Y0192323D01*
Y0191536D02*
Y0190749D01*
Y0191143D01*
X0186032D01*
X0186426Y0191536D01*
X0186032Y0187994D02*
X0186426Y0188781D01*
X0187213Y0189568D01*
X0188000D01*
X0188394Y0189175D01*
Y0188388D01*
X0188000Y0187994D01*
X0187607D01*
X0187213Y0188388D01*
Y0189568D01*
X0177252Y0192362D02*
Y0190001D01*
X0178433D01*
X0178826Y0190394D01*
Y0191182D01*
X0178433Y0191575D01*
X0177252D01*
X0178039D02*
X0178826Y0192362D01*
X0179613D02*
X0180401D01*
X0180007D01*
Y0190001D01*
X0179613Y0190394D01*
X0183156Y0190001D02*
X0181581D01*
Y0191182D01*
X0182368Y0190788D01*
X0182762D01*
X0183156Y0191182D01*
Y0191969D01*
X0182762Y0192362D01*
X0181975D01*
X0181581Y0191969D01*
X0192449Y0190236D02*
Y0187875D01*
X0193630D01*
X0194023Y0188268D01*
Y0189056D01*
X0193630Y0189449D01*
X0192449D01*
X0193236D02*
X0194023Y0190236D01*
X0194810D02*
X0195597D01*
X0195204D01*
Y0187875D01*
X0194810Y0188268D01*
X0198352Y0190236D02*
X0196778D01*
X0198352Y0188662D01*
Y0188268D01*
X0197959Y0187875D01*
X0197172D01*
X0196778Y0188268D01*
X0200323Y0190236D02*
Y0187875D01*
X0201503D01*
X0201897Y0188268D01*
Y0189056D01*
X0201503Y0189449D01*
X0200323D01*
X0201110D02*
X0201897Y0190236D01*
X0202684D02*
X0203471D01*
X0203078D01*
Y0187875D01*
X0202684Y0188268D01*
X0204652D02*
X0205046Y0187875D01*
X0205833D01*
X0206226Y0188268D01*
Y0188662D01*
X0205833Y0189056D01*
X0205439D01*
X0205833D01*
X0206226Y0189449D01*
Y0189843D01*
X0205833Y0190236D01*
X0205046D01*
X0204652Y0189843D01*
X0198472Y0185866D02*
Y0183505D01*
X0199653D01*
X0200047Y0183898D01*
Y0184685D01*
X0199653Y0185079D01*
X0198472D01*
X0199260D02*
X0200047Y0185866D01*
X0202408Y0183505D02*
X0200834D01*
Y0184685D01*
X0201621Y0184292D01*
X0202015D01*
X0202408Y0184685D01*
Y0185473D01*
X0202015Y0185866D01*
X0201227D01*
X0200834Y0185473D01*
X0212252Y0180354D02*
Y0182716D01*
X0211071D01*
X0210678Y0182322D01*
Y0181535D01*
X0211071Y0181141D01*
X0212252D01*
X0211465D02*
X0210678Y0180354D01*
X0208710D02*
Y0182716D01*
X0209891Y0181535D01*
X0208316D01*
X0206759Y0173149D02*
X0207153Y0172756D01*
Y0171968D01*
X0206759Y0171575D01*
X0205185D01*
X0204791Y0171968D01*
Y0172756D01*
X0205185Y0173149D01*
X0204791Y0173936D02*
Y0174723D01*
Y0174330D01*
X0207153D01*
X0206759Y0173936D01*
Y0175904D02*
X0207153Y0176298D01*
Y0177085D01*
X0206759Y0177478D01*
X0206366D01*
X0205972Y0177085D01*
Y0176691D01*
Y0177085D01*
X0205578Y0177478D01*
X0205185D01*
X0204791Y0177085D01*
Y0176298D01*
X0205185Y0175904D01*
X0185638Y0164882D02*
X0187999D01*
Y0166063D01*
X0187606Y0166456D01*
X0186819D01*
X0186425Y0166063D01*
Y0164882D01*
Y0165669D02*
X0185638Y0166456D01*
Y0167243D02*
Y0168031D01*
Y0167637D01*
X0187999D01*
X0187606Y0167243D01*
X0185638Y0170392D02*
X0187999D01*
X0186819Y0169211D01*
Y0170785D01*
X0202843Y0162972D02*
X0203237Y0163365D01*
X0204024D01*
X0204417Y0162972D01*
Y0161398D01*
X0204024Y0161004D01*
X0203237D01*
X0202843Y0161398D01*
X0202056Y0161004D02*
X0201269D01*
X0201662D01*
Y0163365D01*
X0202056Y0162972D01*
X0198907Y0161004D02*
Y0163365D01*
X0200088Y0162185D01*
X0198514D01*
X0195402Y0149961D02*
Y0147599D01*
X0196582D01*
X0196976Y0147993D01*
Y0148780D01*
X0196582Y0149173D01*
X0195402D01*
X0196189D02*
X0196976Y0149961D01*
X0197763Y0149567D02*
X0198157Y0149961D01*
X0198944D01*
X0199337Y0149567D01*
Y0147993D01*
X0198944Y0147599D01*
X0198157D01*
X0197763Y0147993D01*
Y0148386D01*
X0198157Y0148780D01*
X0199337D01*
X0212646Y0145433D02*
X0210284D01*
Y0144252D01*
X0210678Y0143859D01*
X0211465D01*
X0211859Y0144252D01*
Y0145433D01*
Y0144646D02*
X0212646Y0143859D01*
X0210678Y0143072D02*
X0210284Y0142678D01*
Y0141891D01*
X0210678Y0141497D01*
X0211071D01*
X0211465Y0141891D01*
X0211859Y0141497D01*
X0212252D01*
X0212646Y0141891D01*
Y0142678D01*
X0212252Y0143072D01*
X0211859D01*
X0211465Y0142678D01*
X0211071Y0143072D01*
X0210678D01*
X0211465Y0142678D02*
Y0141891D01*
X0209102Y0133543D02*
Y0135905D01*
X0207922D01*
X0207528Y0135511D01*
Y0134724D01*
X0207922Y0134330D01*
X0209102D01*
X0208315D02*
X0207528Y0133543D01*
X0206741Y0135905D02*
X0205167D01*
Y0135511D01*
X0206741Y0133937D01*
Y0133543D01*
X0201228D02*
Y0135905D01*
X0200048D01*
X0199654Y0135511D01*
Y0134724D01*
X0200048Y0134330D01*
X0201228D01*
X0200441D02*
X0199654Y0133543D01*
X0198867D02*
X0198080D01*
X0198473D01*
Y0135905D01*
X0198867Y0135511D01*
X0196899D02*
X0196505Y0135905D01*
X0195718D01*
X0195325Y0135511D01*
Y0133937D01*
X0195718Y0133543D01*
X0196505D01*
X0196899Y0133937D01*
Y0135511D01*
X0115560Y0159704D02*
X0115953Y0160098D01*
X0116740D01*
X0117134Y0159704D01*
Y0158130D01*
X0116740Y0157736D01*
X0115953D01*
X0115560Y0158130D01*
X0114772Y0157736D02*
X0113985D01*
X0114379D01*
Y0160098D01*
X0114772Y0159704D01*
X0112805Y0157736D02*
X0112017D01*
X0112411D01*
Y0160098D01*
X0112805Y0159704D01*
X0117055Y0164605D02*
Y0162244D01*
X0115481D01*
X0114694Y0164212D02*
X0114300Y0164605D01*
X0113513D01*
X0113119Y0164212D01*
Y0163818D01*
X0113513Y0163425D01*
X0113907D01*
X0113513D01*
X0113119Y0163031D01*
Y0162638D01*
X0113513Y0162244D01*
X0114300D01*
X0114694Y0162638D01*
X0133039Y0155669D02*
X0135401D01*
Y0156850D01*
X0135007Y0157244D01*
X0134220D01*
X0133826Y0156850D01*
Y0155669D01*
Y0156456D02*
X0133039Y0157244D01*
Y0159605D02*
Y0158031D01*
X0134614Y0159605D01*
X0135007D01*
X0135401Y0159211D01*
Y0158424D01*
X0135007Y0158031D01*
X0132488Y0169488D02*
X0134850D01*
Y0170669D01*
X0134456Y0171063D01*
X0133669D01*
X0133275Y0170669D01*
Y0169488D01*
Y0170275D02*
X0132488Y0171063D01*
X0134850Y0173424D02*
X0134456Y0172637D01*
X0133669Y0171850D01*
X0132882D01*
X0132488Y0172243D01*
Y0173030D01*
X0132882Y0173424D01*
X0133275D01*
X0133669Y0173030D01*
Y0171850D01*
X0152823Y0141260D02*
X0152430Y0141654D01*
Y0142441D01*
X0152823Y0142835D01*
X0154398D01*
X0154791Y0142441D01*
Y0141654D01*
X0154398Y0141260D01*
X0154791Y0140473D02*
Y0139686D01*
Y0140080D01*
X0152430D01*
X0152823Y0140473D01*
X0154398Y0138505D02*
X0154791Y0138112D01*
Y0137325D01*
X0154398Y0136931D01*
X0152823D01*
X0152430Y0137325D01*
Y0138112D01*
X0152823Y0138505D01*
X0153217D01*
X0153611Y0138112D01*
Y0136931D01*
X0148335Y0141221D02*
X0147942Y0141614D01*
Y0142402D01*
X0148335Y0142795D01*
X0149910D01*
X0150303Y0142402D01*
Y0141614D01*
X0149910Y0141221D01*
X0150303Y0138859D02*
Y0140434D01*
X0148729Y0138859D01*
X0148335D01*
X0147942Y0139253D01*
Y0140040D01*
X0148335Y0140434D01*
Y0138072D02*
X0147942Y0137679D01*
Y0136892D01*
X0148335Y0136498D01*
X0149910D01*
X0150303Y0136892D01*
Y0137679D01*
X0149910Y0138072D01*
X0148335D01*
X0140835Y0139704D02*
X0141229Y0140098D01*
X0142016D01*
X0142409Y0139704D01*
Y0138130D01*
X0142016Y0137736D01*
X0141229D01*
X0140835Y0138130D01*
X0138474Y0140098D02*
X0140048D01*
Y0138917D01*
X0139261Y0139311D01*
X0138867D01*
X0138474Y0138917D01*
Y0138130D01*
X0138867Y0137736D01*
X0139654D01*
X0140048Y0138130D01*
X0140796Y0135255D02*
X0141189Y0135649D01*
X0141976D01*
X0142370Y0135255D01*
Y0133681D01*
X0141976Y0133287D01*
X0141189D01*
X0140796Y0133681D01*
X0138434Y0135649D02*
X0139222Y0135255D01*
X0140009Y0134468D01*
Y0133681D01*
X0139615Y0133287D01*
X0138828D01*
X0138434Y0133681D01*
Y0134074D01*
X0138828Y0134468D01*
X0140009D01*
X0138216Y0127086D02*
X0138610Y0126692D01*
Y0125905D01*
X0138216Y0125512D01*
X0136642D01*
X0136248Y0125905D01*
Y0126692D01*
X0136642Y0127086D01*
X0138216Y0127873D02*
X0138610Y0128267D01*
Y0129054D01*
X0138216Y0129447D01*
X0137822D01*
X0137429Y0129054D01*
Y0128660D01*
Y0129054D01*
X0137035Y0129447D01*
X0136642D01*
X0136248Y0129054D01*
Y0128267D01*
X0136642Y0127873D01*
X0133688Y0127165D02*
X0134082Y0126771D01*
Y0125984D01*
X0133688Y0125591D01*
X0132114D01*
X0131720Y0125984D01*
Y0126771D01*
X0132114Y0127165D01*
X0131720Y0129133D02*
X0134082D01*
X0132901Y0127952D01*
Y0129526D01*
X0111346Y0136122D02*
X0113708D01*
Y0137303D01*
X0113314Y0137696D01*
X0112527D01*
X0112134Y0137303D01*
Y0136122D01*
Y0136909D02*
X0111346Y0137696D01*
Y0138484D02*
Y0139271D01*
Y0138877D01*
X0113708D01*
X0113314Y0138484D01*
D72*
X0140874Y0173780D02*
Y0174961D01*
X0141464D01*
X0141661Y0174764D01*
Y0173977D01*
X0141464Y0173780D01*
X0140874D01*
X0142055Y0174961D02*
X0142448D01*
X0142252D01*
Y0173780D01*
X0142055Y0173977D01*
D73*
X0152702Y0203433D02*
X0148704D01*
X0152702Y0207432D01*
Y0208431D01*
X0151703Y0209431D01*
X0149703D01*
X0148704Y0208431D01*
X0154702D02*
X0155701Y0209431D01*
X0157701D01*
X0158701Y0208431D01*
Y0207432D01*
X0157701Y0206432D01*
X0158701Y0205432D01*
Y0204433D01*
X0157701Y0203433D01*
X0155701D01*
X0154702Y0204433D01*
Y0205432D01*
X0155701Y0206432D01*
X0154702Y0207432D01*
Y0208431D01*
X0155701Y0206432D02*
X0157701D01*
X0161699Y0202433D02*
X0162699Y0203433D01*
Y0204433D01*
X0161699D01*
Y0203433D01*
X0162699D01*
X0161699Y0202433D01*
X0160700Y0201433D01*
X0166698Y0208431D02*
X0167698Y0209431D01*
X0169697D01*
X0170697Y0208431D01*
Y0204433D01*
X0169697Y0203433D01*
X0167698D01*
X0166698Y0204433D01*
Y0208431D01*
X0172696D02*
X0173696Y0209431D01*
X0175695D01*
X0176695Y0208431D01*
Y0204433D01*
X0175695Y0203433D01*
X0173696D01*
X0172696Y0204433D01*
Y0208431D01*
X0236614Y0144466D02*
Y0140468D01*
X0232616Y0144466D01*
X0231616D01*
X0230616Y0143466D01*
Y0141467D01*
X0231616Y0140468D01*
Y0146466D02*
X0230616Y0147465D01*
Y0149465D01*
X0231616Y0150464D01*
X0235615D01*
X0236614Y0149465D01*
Y0147465D01*
X0235615Y0146466D01*
X0231616D01*
X0237614Y0153463D02*
X0236614Y0154463D01*
X0235615D01*
Y0153463D01*
X0236614D01*
Y0154463D01*
X0237614Y0153463D01*
X0238614Y0152464D01*
X0231616Y0158462D02*
X0230616Y0159461D01*
Y0161461D01*
X0231616Y0162460D01*
X0235615D01*
X0236614Y0161461D01*
Y0159461D01*
X0235615Y0158462D01*
X0231616D01*
Y0164460D02*
X0230616Y0165459D01*
Y0167459D01*
X0231616Y0168458D01*
X0235615D01*
X0236614Y0167459D01*
Y0165459D01*
X0235615Y0164460D01*
X0231616D01*
M02*
