G04*
G04 #@! TF.GenerationSoftware,Altium Limited,Altium Designer,19.1.5 (86)*
G04*
G04 Layer_Physical_Order=2*
G04 Layer_Color=16711680*
%FSAX25Y25*%
%MOIN*%
G70*
G01*
G75*
%ADD10C,0.00787*%
%ADD11C,0.00591*%
%ADD14C,0.01575*%
%ADD15C,0.01968*%
%ADD16C,0.01181*%
%ADD17C,0.01968*%
%ADD18C,0.02756*%
%ADD19R,0.07087X0.07874*%
%ADD20R,0.01968X0.02953*%
%ADD21R,0.15748X0.13386*%
%ADD22R,0.02362X0.01968*%
%ADD23C,0.04724*%
%ADD24R,0.00787X0.01181*%
%ADD25R,0.02244X0.02441*%
%ADD26R,0.02520X0.02362*%
%ADD27R,0.02362X0.02520*%
%ADD28R,0.01417X0.00984*%
%ADD29R,0.02441X0.02244*%
%ADD30R,0.01968X0.02362*%
%ADD31R,0.01968X0.01968*%
%ADD32R,0.01181X0.02756*%
%ADD33C,0.00984*%
%ADD34R,0.03150X0.03150*%
%ADD35R,0.02756X0.06693*%
%ADD36R,0.03150X0.03150*%
%ADD37R,0.01181X0.01772*%
%ADD38C,0.01181*%
%ADD39R,0.04331X0.07480*%
%ADD40R,0.03937X0.03937*%
%ADD41R,0.04134X0.08661*%
%ADD42C,0.00984*%
%ADD43C,0.02953*%
%ADD44C,0.09843*%
G36*
X0188201Y0193851D02*
X0188248Y0193819D01*
X0188327Y0193791D01*
X0188437Y0193767D01*
X0188578Y0193747D01*
X0188956Y0193717D01*
X0189760Y0193701D01*
Y0192126D01*
X0189460Y0192124D01*
X0188437Y0192059D01*
X0188327Y0192035D01*
X0188248Y0192008D01*
X0188201Y0191976D01*
X0188185Y0191941D01*
Y0193886D01*
X0188201Y0193851D01*
D02*
G37*
G36*
X0206033Y0191303D02*
X0206098Y0190279D01*
X0206122Y0190169D01*
X0206150Y0190090D01*
X0206181Y0190043D01*
X0206216Y0190027D01*
X0204272D01*
X0204307Y0190043D01*
X0204338Y0190090D01*
X0204366Y0190169D01*
X0204390Y0190279D01*
X0204411Y0190421D01*
X0204440Y0190799D01*
X0204457Y0191602D01*
X0206031D01*
X0206033Y0191303D01*
D02*
G37*
G36*
X0178360Y0189814D02*
X0178260Y0189778D01*
X0178171Y0189717D01*
X0178094Y0189633D01*
X0178030Y0189526D01*
X0177976Y0189395D01*
X0177935Y0189240D01*
X0177905Y0189062D01*
X0177888Y0188860D01*
X0177882Y0188634D01*
X0176701D01*
X0177264Y0189815D01*
X0178472Y0189827D01*
X0178360Y0189814D01*
D02*
G37*
G36*
X0186539Y0188349D02*
X0186521Y0188356D01*
X0186483Y0188363D01*
X0186427Y0188368D01*
X0186149Y0188380D01*
X0185520Y0188386D01*
Y0189567D01*
X0186539Y0189603D01*
Y0188349D01*
D02*
G37*
G36*
X0200335Y0188071D02*
X0200327Y0188146D01*
X0200303Y0188213D01*
X0200264Y0188272D01*
X0200209Y0188323D01*
X0200138Y0188366D01*
X0200051Y0188402D01*
X0199949Y0188429D01*
X0199831Y0188449D01*
X0199697Y0188461D01*
X0199547Y0188465D01*
Y0189252D01*
X0199697Y0189256D01*
X0199831Y0189268D01*
X0199949Y0189287D01*
X0200051Y0189315D01*
X0200138Y0189350D01*
X0200209Y0189394D01*
X0200264Y0189445D01*
X0200303Y0189504D01*
X0200327Y0189571D01*
X0200335Y0189646D01*
Y0188071D01*
D02*
G37*
G36*
X0198338Y0189571D02*
X0198362Y0189504D01*
X0198402Y0189445D01*
X0198458Y0189394D01*
X0198530Y0189350D01*
X0198618Y0189315D01*
X0198722Y0189287D01*
X0198842Y0189268D01*
X0198978Y0189256D01*
X0199130Y0189252D01*
Y0188465D01*
X0198978Y0188461D01*
X0198842Y0188449D01*
X0198722Y0188429D01*
X0198618Y0188402D01*
X0198530Y0188366D01*
X0198458Y0188323D01*
X0198402Y0188272D01*
X0198362Y0188213D01*
X0198338Y0188146D01*
X0198330Y0188071D01*
Y0189646D01*
X0198338Y0189571D01*
D02*
G37*
G36*
X0202059Y0187693D02*
X0201992Y0187669D01*
X0201933Y0187629D01*
X0201882Y0187573D01*
X0201839Y0187501D01*
X0201803Y0187413D01*
X0201776Y0187310D01*
X0201756Y0187190D01*
X0201744Y0187054D01*
X0201740Y0186902D01*
X0200953D01*
X0200949Y0187054D01*
X0200937Y0187190D01*
X0200917Y0187310D01*
X0200890Y0187413D01*
X0200854Y0187501D01*
X0200811Y0187573D01*
X0200760Y0187629D01*
X0200701Y0187669D01*
X0200634Y0187693D01*
X0200559Y0187701D01*
X0202134D01*
X0202059Y0187693D01*
D02*
G37*
G36*
X0188075Y0187992D02*
X0187977Y0187957D01*
X0187890Y0187898D01*
X0187815Y0187815D01*
X0187751Y0187709D01*
X0187699Y0187579D01*
X0187658Y0187425D01*
X0187629Y0187248D01*
X0187612Y0187047D01*
X0187606Y0186823D01*
X0186425D01*
X0186419Y0187047D01*
X0186402Y0187248D01*
X0186373Y0187425D01*
X0186333Y0187579D01*
X0186281Y0187709D01*
X0186217Y0187815D01*
X0186142Y0187898D01*
X0186055Y0187957D01*
X0185957Y0187992D01*
X0185847Y0188004D01*
X0188185D01*
X0188075Y0187992D01*
D02*
G37*
G36*
X0189485Y0186374D02*
X0189523Y0185807D01*
X0189534Y0185767D01*
X0189548Y0185744D01*
X0189563Y0185736D01*
X0188406D01*
X0188461Y0185744D01*
X0188511Y0185767D01*
X0188554Y0185807D01*
X0188592Y0185862D01*
X0188624Y0185933D01*
X0188650Y0186020D01*
X0188671Y0186122D01*
X0188685Y0186240D01*
X0188694Y0186374D01*
X0188697Y0186523D01*
X0189484D01*
X0189485Y0186374D01*
D02*
G37*
G36*
X0211820Y0186360D02*
X0211803Y0186326D01*
X0211788Y0186282D01*
X0211776Y0186229D01*
X0211765Y0186167D01*
X0211749Y0186012D01*
X0211741Y0185820D01*
X0211740Y0185709D01*
X0210559D01*
X0210558Y0185820D01*
X0210534Y0186167D01*
X0210524Y0186229D01*
X0210511Y0186282D01*
X0210496Y0186326D01*
X0210479Y0186360D01*
X0210461Y0186384D01*
X0211839D01*
X0211820Y0186360D01*
D02*
G37*
G36*
X0203634Y0186293D02*
X0203646Y0186157D01*
X0203665Y0186037D01*
X0203693Y0185933D01*
X0203728Y0185845D01*
X0203772Y0185773D01*
X0203823Y0185717D01*
X0203882Y0185677D01*
X0203949Y0185653D01*
X0204024Y0185645D01*
X0202449D01*
X0202524Y0185653D01*
X0202591Y0185677D01*
X0202650Y0185717D01*
X0202701Y0185773D01*
X0202744Y0185845D01*
X0202780Y0185933D01*
X0202807Y0186037D01*
X0202827Y0186157D01*
X0202839Y0186293D01*
X0202842Y0186445D01*
X0203630D01*
X0203634Y0186293D01*
D02*
G37*
G36*
X0204362Y0185201D02*
X0204386Y0185134D01*
X0204426Y0185075D01*
X0204482Y0185024D01*
X0204554Y0184980D01*
X0204642Y0184945D01*
X0204746Y0184917D01*
X0204866Y0184898D01*
X0205001Y0184886D01*
X0205153Y0184882D01*
Y0184095D01*
X0205001Y0184091D01*
X0204866Y0184079D01*
X0204746Y0184059D01*
X0204642Y0184031D01*
X0204554Y0183996D01*
X0204482Y0183953D01*
X0204426Y0183902D01*
X0204386Y0183843D01*
X0204362Y0183776D01*
X0204354Y0183701D01*
Y0185276D01*
X0204362Y0185201D01*
D02*
G37*
G36*
X0211745Y0183858D02*
X0211785Y0183480D01*
X0211820Y0183327D01*
X0211865Y0183197D01*
X0211920Y0183090D01*
X0211985Y0183008D01*
X0212060Y0182949D01*
X0212145Y0182913D01*
X0212240Y0182901D01*
X0210296D01*
X0210346Y0182913D01*
X0210390Y0182949D01*
X0210430Y0183008D01*
X0210464Y0183090D01*
X0210493Y0183197D01*
X0210517Y0183327D01*
X0210535Y0183480D01*
X0210556Y0183858D01*
X0210559Y0184082D01*
X0211740D01*
X0211745Y0183858D01*
D02*
G37*
G36*
X0207727Y0183387D02*
X0207743Y0183191D01*
X0207758Y0183111D01*
X0207777Y0183043D01*
X0207800Y0182988D01*
X0207827Y0182945D01*
X0207858Y0182914D01*
X0207894Y0182896D01*
X0207933Y0182889D01*
X0206728D01*
X0206768Y0182896D01*
X0206803Y0182914D01*
X0206835Y0182945D01*
X0206862Y0182988D01*
X0206885Y0183043D01*
X0206904Y0183111D01*
X0206918Y0183191D01*
X0206929Y0183283D01*
X0206935Y0183387D01*
X0206937Y0183504D01*
X0207724D01*
X0207727Y0183387D01*
D02*
G37*
G36*
X0207275Y0180575D02*
X0207224Y0180627D01*
X0207159Y0180655D01*
X0207081Y0180659D01*
X0206990Y0180638D01*
X0206885Y0180594D01*
X0206767Y0180525D01*
X0206636Y0180431D01*
X0206491Y0180314D01*
X0206162Y0180006D01*
X0205802Y0180760D01*
X0205950Y0180914D01*
X0206186Y0181193D01*
X0206273Y0181319D01*
X0206340Y0181435D01*
X0206387Y0181541D01*
X0206413Y0181639D01*
X0206419Y0181726D01*
X0206405Y0181805D01*
X0206370Y0181874D01*
X0207275Y0180575D01*
D02*
G37*
G36*
X0197528Y0178661D02*
X0197543D01*
X0197572Y0178649D01*
X0197594Y0178627D01*
X0197606Y0178598D01*
Y0178583D01*
X0197606Y0178583D01*
Y0177835D01*
X0197328Y0177671D01*
X0196792Y0177311D01*
X0196286Y0176910D01*
X0195814Y0176470D01*
X0195591Y0176236D01*
Y0176236D01*
X0195344Y0175939D01*
X0194936Y0175284D01*
X0194656Y0174564D01*
X0194514Y0173805D01*
X0194496Y0173419D01*
X0194496Y0172205D01*
X0191740D01*
Y0177244D01*
X0191740Y0177526D01*
X0191956Y0178047D01*
X0192355Y0178446D01*
X0192876Y0178661D01*
X0193157Y0178661D01*
X0193157Y0178661D01*
X0197528Y0178661D01*
D02*
G37*
G36*
X0199763Y0179851D02*
X0199746Y0179824D01*
X0199731Y0179788D01*
X0199717Y0179743D01*
X0199706Y0179688D01*
X0199696Y0179625D01*
X0199681Y0179472D01*
X0199674Y0179282D01*
X0199673Y0179173D01*
X0199674Y0179065D01*
X0199696Y0178721D01*
X0199706Y0178658D01*
X0199717Y0178604D01*
X0199731Y0178559D01*
X0199746Y0178523D01*
X0199763Y0178496D01*
X0198993D01*
X0199010Y0178523D01*
X0199025Y0178559D01*
X0199039Y0178604D01*
X0199050Y0178658D01*
X0199060Y0178721D01*
X0199075Y0178875D01*
X0199082Y0179065D01*
X0199083Y0179173D01*
X0199378D01*
X0199083Y0179173D01*
X0199082Y0179282D01*
X0199060Y0179625D01*
X0199050Y0179688D01*
X0199039Y0179743D01*
X0199025Y0179788D01*
X0199010Y0179824D01*
X0198993Y0179851D01*
X0199763Y0179851D01*
D02*
G37*
G36*
X0199433Y0177700D02*
X0199402Y0177693D01*
X0199366Y0177678D01*
X0199324Y0177656D01*
X0199278Y0177626D01*
X0199226Y0177588D01*
X0199107Y0177489D01*
X0198968Y0177360D01*
X0198891Y0177284D01*
X0198473Y0177702D01*
X0198549Y0177779D01*
X0198777Y0178037D01*
X0198815Y0178089D01*
X0198845Y0178135D01*
X0198867Y0178177D01*
X0198882Y0178213D01*
X0198889Y0178244D01*
X0199433Y0177700D01*
D02*
G37*
G36*
X0214429Y0177013D02*
X0214641Y0177008D01*
Y0176375D01*
X0214693Y0176221D01*
X0214641Y0176077D01*
Y0175433D01*
X0214409Y0175427D01*
X0213709Y0173465D01*
X0213693Y0173839D01*
X0213646Y0174173D01*
X0213567Y0174469D01*
X0213457Y0174724D01*
X0213315Y0174941D01*
X0213207Y0175051D01*
X0213130Y0174937D01*
X0213083Y0174805D01*
X0213079Y0174770D01*
Y0174646D01*
X0209929Y0174646D01*
X0209535Y0175039D01*
X0202016Y0175039D01*
X0201346Y0175709D01*
Y0176732D01*
X0202016Y0177402D01*
X0209535Y0177402D01*
X0209929Y0177795D01*
X0213079Y0177795D01*
Y0177671D01*
X0213083Y0177636D01*
X0213130Y0177504D01*
X0213209Y0177388D01*
X0213319Y0177287D01*
X0213349Y0177269D01*
X0213512Y0177402D01*
X0213653Y0177575D01*
X0213764Y0177779D01*
X0213843Y0178016D01*
X0213890Y0178284D01*
X0213906Y0178583D01*
X0214429Y0177013D01*
D02*
G37*
G36*
X0198314Y0176708D02*
X0198238Y0176630D01*
X0198011Y0176372D01*
X0197973Y0176321D01*
X0197943Y0176274D01*
X0197920Y0176233D01*
X0197906Y0176196D01*
X0197898Y0176165D01*
X0197354Y0176709D01*
X0197385Y0176717D01*
X0197422Y0176731D01*
X0197463Y0176754D01*
X0197510Y0176784D01*
X0197561Y0176821D01*
X0197680Y0176920D01*
X0197819Y0177049D01*
X0197897Y0177125D01*
X0198314Y0176708D01*
D02*
G37*
G36*
X0199890Y0176221D02*
X0199945Y0176165D01*
X0199945Y0176165D01*
X0199996Y0176114D01*
X0200084Y0176001D01*
X0200159Y0175878D01*
X0200218Y0175747D01*
X0200239Y0175679D01*
Y0175679D01*
X0200254Y0175636D01*
X0200292Y0175552D01*
X0200339Y0175473D01*
X0200396Y0175401D01*
X0200427Y0175368D01*
X0200795Y0175000D01*
X0200795Y0172441D01*
X0198039D01*
Y0175079D01*
X0198389Y0175428D01*
X0198389D01*
X0198425Y0175469D01*
X0198486Y0175559D01*
X0198527Y0175659D01*
X0198548Y0175766D01*
X0198551Y0175820D01*
X0198551Y0175840D01*
X0198559Y0175880D01*
X0198575Y0175918D01*
X0198597Y0175952D01*
X0198612Y0175966D01*
X0198866Y0176221D01*
X0199693Y0176221D01*
X0199890Y0176221D01*
D02*
G37*
G36*
X0187578Y0174729D02*
X0187563Y0174708D01*
X0187550Y0174671D01*
X0187539Y0174621D01*
X0187530Y0174556D01*
X0187516Y0174383D01*
X0187508Y0174016D01*
X0186524D01*
X0187016Y0172953D01*
X0186618Y0171760D01*
X0187508D01*
X0187513Y0171570D01*
X0187528Y0171401D01*
X0187552Y0171252D01*
X0187587Y0171122D01*
X0187631Y0171012D01*
X0187685Y0170923D01*
X0187749Y0170853D01*
X0187823Y0170803D01*
X0187907Y0170773D01*
X0188000Y0170763D01*
X0186031D01*
X0186125Y0170773D01*
X0186209Y0170803D01*
X0186283Y0170853D01*
X0186346Y0170923D01*
X0186401Y0171012D01*
X0186445Y0171122D01*
X0186479Y0171252D01*
X0186504Y0171401D01*
X0186519Y0171570D01*
X0186514Y0171663D01*
X0186484Y0171831D01*
X0186435Y0171978D01*
X0186366Y0172106D01*
X0186277Y0172215D01*
X0186169Y0172303D01*
X0186041Y0172372D01*
X0185894Y0172421D01*
X0185726Y0172451D01*
X0185539Y0172461D01*
X0185539Y0173445D01*
X0185726Y0173451D01*
X0185894Y0173468D01*
X0186041Y0173496D01*
X0186169Y0173536D01*
X0186277Y0173588D01*
X0186366Y0173650D01*
X0186435Y0173725D01*
X0186484Y0173810D01*
X0186514Y0173907D01*
X0186524Y0174016D01*
X0186523Y0174153D01*
X0186493Y0174621D01*
X0186481Y0174671D01*
X0186468Y0174708D01*
X0186454Y0174729D01*
X0186437Y0174736D01*
X0187594D01*
X0187578Y0174729D01*
D02*
G37*
G36*
X0188197Y0166766D02*
X0188232Y0166701D01*
X0188291Y0166644D01*
X0188374Y0166594D01*
X0188480Y0166552D01*
X0188610Y0166518D01*
X0188764Y0166491D01*
X0188941Y0166472D01*
X0189366Y0166457D01*
Y0165276D01*
X0189141Y0165272D01*
X0188764Y0165241D01*
X0188610Y0165215D01*
X0188480Y0165180D01*
X0188374Y0165138D01*
X0188291Y0165089D01*
X0188232Y0165031D01*
X0188197Y0164966D01*
X0188185Y0164894D01*
Y0166838D01*
X0188197Y0166766D01*
D02*
G37*
G36*
X0185847Y0164894D02*
X0185835Y0164966D01*
X0185799Y0165031D01*
X0185740Y0165089D01*
X0185658Y0165138D01*
X0185551Y0165180D01*
X0185422Y0165215D01*
X0185268Y0165241D01*
X0185091Y0165260D01*
X0184666Y0165276D01*
Y0166457D01*
X0184890Y0166461D01*
X0185268Y0166491D01*
X0185422Y0166518D01*
X0185551Y0166552D01*
X0185658Y0166594D01*
X0185740Y0166644D01*
X0185799Y0166701D01*
X0185835Y0166766D01*
X0185847Y0166838D01*
Y0164894D01*
D02*
G37*
G36*
X0196202Y0175342D02*
X0196334Y0175145D01*
X0196827Y0174815D01*
X0197409Y0174699D01*
X0197498Y0174626D01*
Y0172441D01*
X0197539Y0172342D01*
Y0165366D01*
X0201295D01*
Y0172342D01*
X0201337Y0172441D01*
X0201337Y0174300D01*
X0201836Y0174572D01*
X0202016Y0174498D01*
X0202016Y0174498D01*
X0203811D01*
Y0172941D01*
X0204817D01*
X0204829Y0172975D01*
X0204835Y0173031D01*
Y0172941D01*
X0208331D01*
Y0174498D01*
X0208978D01*
X0209429Y0174146D01*
Y0174146D01*
X0209915Y0174110D01*
X0209929Y0174104D01*
X0209929Y0174104D01*
X0213079Y0174104D01*
X0213159Y0173643D01*
X0213168Y0173442D01*
X0213180Y0173417D01*
Y0172890D01*
X0212004D01*
Y0170315D01*
Y0168764D01*
X0212094D01*
X0212038Y0168758D01*
X0212004Y0168746D01*
Y0167740D01*
X0213180D01*
Y0155158D01*
X0212680Y0154989D01*
X0212403Y0155348D01*
X0211806Y0155807D01*
X0211109Y0156096D01*
X0210362Y0156194D01*
X0209615Y0156096D01*
X0208919Y0155807D01*
X0208673Y0155619D01*
X0208173Y0155865D01*
Y0156311D01*
X0207168D01*
X0207155Y0156277D01*
X0207149Y0156220D01*
Y0156311D01*
X0206098D01*
Y0154236D01*
X0207145D01*
X0207505Y0153770D01*
X0207406Y0153276D01*
X0207066Y0153120D01*
X0206989Y0153102D01*
X0206926Y0153100D01*
X0206882Y0153080D01*
X0201831D01*
X0201784Y0153100D01*
X0201682Y0153101D01*
X0201514Y0153108D01*
X0201395Y0153120D01*
X0201368Y0153125D01*
X0201357Y0153128D01*
X0201337Y0153134D01*
X0201329Y0153134D01*
X0200981Y0153367D01*
X0200402Y0153482D01*
X0199822Y0153367D01*
X0199331Y0153039D01*
X0199003Y0152548D01*
X0198888Y0151969D01*
X0199003Y0151389D01*
X0199236Y0151041D01*
X0199236Y0151033D01*
X0199242Y0151013D01*
X0199245Y0151002D01*
X0199248Y0150984D01*
X0199266Y0150732D01*
X0199254Y0150561D01*
X0199236Y0150421D01*
X0199213Y0150315D01*
X0199197Y0150264D01*
X0198839D01*
Y0149822D01*
X0198809Y0149752D01*
X0198824Y0149716D01*
X0198814Y0149679D01*
X0198839Y0149637D01*
Y0148409D01*
X0198339Y0148257D01*
X0198101Y0148520D01*
X0198043Y0148593D01*
X0197934Y0148749D01*
X0197899Y0148810D01*
Y0152877D01*
X0198472Y0153450D01*
X0198498Y0153460D01*
X0199266Y0154173D01*
X0199585Y0154429D01*
X0199871Y0154629D01*
X0199986Y0154695D01*
X0201268D01*
X0201367Y0154736D01*
X0201768D01*
Y0155137D01*
X0201809Y0155236D01*
Y0158386D01*
X0201803Y0158400D01*
X0201768Y0158886D01*
X0201768D01*
X0201494Y0159356D01*
Y0160024D01*
X0203051D01*
Y0162284D01*
Y0163519D01*
X0202961D01*
X0203017Y0163525D01*
X0203051Y0163538D01*
Y0164543D01*
X0201370D01*
Y0164379D01*
X0200953Y0164084D01*
X0198027Y0164084D01*
X0197862Y0164093D01*
X0197527Y0164159D01*
X0197224Y0164285D01*
X0196940Y0164475D01*
X0196818Y0164585D01*
X0194996Y0166407D01*
Y0172105D01*
X0195037Y0172205D01*
X0195037Y0173407D01*
X0195053Y0173743D01*
X0195179Y0174415D01*
X0195422Y0175041D01*
X0195605Y0175335D01*
X0196198Y0175345D01*
X0196202Y0175342D01*
D02*
G37*
G36*
X0196445Y0164193D02*
X0196606Y0164047D01*
X0196968Y0163805D01*
X0197369Y0163639D01*
X0197796Y0163554D01*
X0198013Y0163543D01*
X0198013Y0163543D01*
X0200953Y0163543D01*
X0200953Y0159146D01*
X0200958Y0159041D01*
X0200999Y0158834D01*
X0201080Y0158639D01*
X0201197Y0158464D01*
X0201268Y0158386D01*
X0201268Y0158386D01*
Y0155236D01*
X0199842D01*
X0199581Y0155086D01*
X0199260Y0154862D01*
X0198911Y0154583D01*
X0198130Y0153856D01*
X0196738Y0155248D01*
X0197129Y0155653D01*
X0197392Y0155963D01*
X0192725Y0160629D01*
X0192491Y0160863D01*
X0192123Y0161414D01*
X0191869Y0162026D01*
X0191740Y0162676D01*
X0191740Y0163007D01*
X0191740Y0166142D01*
X0194496D01*
X0196445Y0164193D01*
D02*
G37*
G36*
X0201129Y0152639D02*
X0201162Y0152622D01*
X0201206Y0152607D01*
X0201259Y0152594D01*
X0201322Y0152584D01*
X0201476Y0152568D01*
X0201669Y0152560D01*
X0201780Y0152559D01*
Y0151378D01*
X0201669Y0151377D01*
X0201322Y0151353D01*
X0201259Y0151342D01*
X0201206Y0151330D01*
X0201162Y0151315D01*
X0201129Y0151298D01*
X0201104Y0151279D01*
Y0152657D01*
X0201129Y0152639D01*
D02*
G37*
G36*
X0209346Y0151175D02*
X0209254Y0151213D01*
X0209148Y0151248D01*
X0209029Y0151278D01*
X0208897Y0151305D01*
X0208591Y0151345D01*
X0208231Y0151370D01*
X0207818Y0151378D01*
X0206941Y0152559D01*
X0207151Y0152565D01*
X0207339Y0152582D01*
X0207503Y0152610D01*
X0207645Y0152649D01*
X0207763Y0152699D01*
X0207858Y0152761D01*
X0207930Y0152834D01*
X0207979Y0152919D01*
X0208005Y0153014D01*
X0208007Y0153121D01*
X0209346Y0151175D01*
D02*
G37*
G36*
X0213180Y0151456D02*
Y0146337D01*
X0212949Y0145933D01*
X0210221D01*
X0210186Y0145955D01*
X0210141Y0145945D01*
X0210099Y0145962D01*
X0210028Y0145933D01*
X0209587D01*
Y0145637D01*
X0209558Y0145630D01*
X0209452Y0145611D01*
X0209116Y0145584D01*
X0208908Y0145580D01*
X0208863Y0145561D01*
X0206112D01*
X0206066Y0145580D01*
X0205855Y0145583D01*
X0205824Y0145585D01*
X0205611Y0145742D01*
X0205431Y0145919D01*
X0205435Y0146114D01*
X0205447Y0146254D01*
X0205452Y0146293D01*
X0205454Y0146301D01*
X0205776Y0146783D01*
X0205891Y0147362D01*
X0205776Y0147941D01*
X0205448Y0148432D01*
X0204957Y0148760D01*
X0204378Y0148875D01*
X0203799Y0148760D01*
X0203308Y0148432D01*
X0202980Y0147941D01*
X0202865Y0147362D01*
X0202980Y0146783D01*
X0203141Y0146542D01*
X0203138Y0146525D01*
X0203144Y0146503D01*
X0203153Y0146354D01*
X0202839Y0145917D01*
X0202810Y0145897D01*
X0202707Y0145854D01*
X0201837D01*
X0201498Y0146354D01*
X0201507Y0146623D01*
X0201521Y0146767D01*
X0201539Y0146884D01*
X0201543Y0146902D01*
X0201807D01*
Y0147343D01*
X0201836Y0147414D01*
X0201817Y0147461D01*
X0201828Y0147510D01*
X0201807Y0147542D01*
Y0149616D01*
X0201825Y0149643D01*
X0201815Y0149699D01*
X0201836Y0149752D01*
X0201828Y0149772D01*
X0201807Y0150264D01*
D01*
X0201863Y0150741D01*
X0201993Y0150857D01*
X0207715D01*
X0207739Y0150842D01*
X0207774Y0150851D01*
X0207807Y0150837D01*
X0208208Y0150829D01*
X0208537Y0150807D01*
X0208808Y0150771D01*
X0208909Y0150750D01*
X0208997Y0150728D01*
X0209065Y0150706D01*
X0209137Y0150676D01*
X0209197Y0150675D01*
X0209247Y0150643D01*
X0209293Y0150652D01*
X0209615Y0150519D01*
X0210362Y0150420D01*
X0211109Y0150519D01*
X0211806Y0150807D01*
X0212403Y0151266D01*
X0212680Y0151626D01*
X0213180Y0151456D01*
D02*
G37*
G36*
X0201072Y0151242D02*
X0201055Y0151208D01*
X0201040Y0151164D01*
X0201027Y0151111D01*
X0201017Y0151049D01*
X0201001Y0150894D01*
X0200995Y0150741D01*
X0200995Y0150708D01*
X0201041Y0150177D01*
X0201068Y0150047D01*
X0201101Y0149941D01*
X0201141Y0149858D01*
X0201186Y0149799D01*
X0201238Y0149764D01*
X0201295Y0149752D01*
X0199351D01*
X0199438Y0149764D01*
X0199516Y0149799D01*
X0199585Y0149858D01*
X0199645Y0149941D01*
X0199696Y0150047D01*
X0199737Y0150177D01*
X0199770Y0150330D01*
X0199793Y0150508D01*
X0199806Y0150708D01*
X0199807Y0150744D01*
X0199786Y0151049D01*
X0199776Y0151111D01*
X0199763Y0151164D01*
X0199748Y0151208D01*
X0199731Y0151242D01*
X0199713Y0151266D01*
X0201091D01*
X0201072Y0151242D01*
D02*
G37*
G36*
X0201230Y0147402D02*
X0201172Y0147366D01*
X0201120Y0147307D01*
X0201076Y0147225D01*
X0201038Y0147118D01*
X0201008Y0146988D01*
X0200984Y0146835D01*
X0200966Y0146658D01*
X0200953Y0146232D01*
X0199772D01*
X0199767Y0146457D01*
X0199734Y0146835D01*
X0199704Y0146988D01*
X0199666Y0147118D01*
X0199620Y0147225D01*
X0199565Y0147307D01*
X0199502Y0147366D01*
X0199431Y0147402D01*
X0199351Y0147414D01*
X0201295D01*
X0201230Y0147402D01*
D02*
G37*
G36*
X0196597Y0148329D02*
X0197346Y0149281D01*
X0197289Y0149181D01*
X0197264Y0149067D01*
X0197270Y0148937D01*
X0197308Y0148793D01*
X0197377Y0148633D01*
X0197477Y0148458D01*
X0197609Y0148269D01*
X0197689Y0148169D01*
X0198049Y0147770D01*
X0198752Y0147052D01*
X0197917Y0146216D01*
X0197653Y0146478D01*
X0196779Y0147253D01*
X0196656Y0147191D01*
X0196448Y0147066D01*
X0196228Y0146913D01*
X0195994Y0146731D01*
X0195489Y0146286D01*
X0195217Y0146022D01*
X0194022Y0147610D01*
X0194286Y0147882D01*
X0194913Y0148621D01*
X0195066Y0148842D01*
X0195191Y0149049D01*
X0195288Y0149244D01*
X0195358Y0149426D01*
X0195400Y0149595D01*
X0195414Y0149752D01*
X0196597Y0148329D01*
D02*
G37*
G36*
X0205009Y0146606D02*
X0204986Y0146582D01*
X0204966Y0146548D01*
X0204948Y0146504D01*
X0204932Y0146451D01*
X0204919Y0146388D01*
X0204909Y0146316D01*
X0204894Y0146142D01*
X0204890Y0145931D01*
X0203709Y0146050D01*
X0203708Y0146161D01*
X0203682Y0146569D01*
X0203673Y0146621D01*
X0203661Y0146663D01*
X0203649Y0146695D01*
X0203635Y0146717D01*
X0205009Y0146606D01*
D02*
G37*
G36*
X0204890Y0145285D02*
X0204925Y0145233D01*
X0204984Y0145188D01*
X0205067Y0145148D01*
X0205173Y0145115D01*
X0205303Y0145088D01*
X0205456Y0145067D01*
X0205834Y0145042D01*
X0206059Y0145039D01*
Y0143858D01*
X0205834Y0143856D01*
X0205303Y0143816D01*
X0205173Y0143792D01*
X0205067Y0143763D01*
X0204984Y0143729D01*
X0204925Y0143690D01*
X0204890Y0143645D01*
X0204878Y0143595D01*
Y0145342D01*
X0204890Y0145285D01*
D02*
G37*
G36*
X0210099Y0143477D02*
X0210087Y0143549D01*
X0210051Y0143614D01*
X0209992Y0143671D01*
X0209910Y0143721D01*
X0209803Y0143763D01*
X0209673Y0143797D01*
X0209520Y0143824D01*
X0209343Y0143843D01*
X0208917Y0143858D01*
Y0145039D01*
X0209142Y0145043D01*
X0209520Y0145074D01*
X0209673Y0145100D01*
X0209803Y0145135D01*
X0209910Y0145177D01*
X0209992Y0145226D01*
X0210051Y0145284D01*
X0210087Y0145349D01*
X0210099Y0145421D01*
Y0143477D01*
D02*
G37*
G36*
X0193761Y0140775D02*
X0194222Y0141228D01*
X0194779Y0140671D01*
X0193945Y0139803D01*
X0193527Y0140220D01*
X0192957D01*
X0194200Y0138978D01*
X0194067Y0139004D01*
X0193932Y0139011D01*
X0193795Y0138999D01*
X0193656Y0138969D01*
X0193514Y0138919D01*
X0193371Y0138851D01*
X0193226Y0138764D01*
X0193078Y0138658D01*
X0192928Y0138533D01*
X0192776Y0138390D01*
X0191941Y0139225D01*
X0192085Y0139377D01*
X0192209Y0139527D01*
X0192315Y0139674D01*
X0192402Y0139820D01*
X0192471Y0139963D01*
X0192520Y0140104D01*
X0192551Y0140244D01*
X0192562Y0140381D01*
X0192555Y0140516D01*
X0192529Y0140648D01*
X0192941Y0140237D01*
X0192941Y0140237D01*
X0192945Y0140276D01*
X0192952Y0140425D01*
X0192961Y0141424D01*
X0193748D01*
X0193761Y0140775D01*
D02*
G37*
G36*
X0202933Y0143358D02*
X0202969Y0143157D01*
X0203028Y0142980D01*
X0203110Y0142827D01*
X0203217Y0142697D01*
X0203346Y0142591D01*
X0203500Y0142508D01*
X0203677Y0142449D01*
X0203878Y0142413D01*
X0204102Y0142402D01*
Y0141220D01*
X0203878Y0141209D01*
X0203677Y0141173D01*
X0203500Y0141114D01*
X0203346Y0141032D01*
X0203217Y0140925D01*
X0203110Y0140795D01*
X0203028Y0140642D01*
X0202969Y0140465D01*
X0202933Y0140264D01*
X0202921Y0140039D01*
X0201740D01*
X0201728Y0140264D01*
X0201693Y0140465D01*
X0201634Y0140642D01*
X0201551Y0140795D01*
X0201445Y0140925D01*
X0201315Y0141032D01*
X0201161Y0141114D01*
X0200984Y0141173D01*
X0200783Y0141209D01*
X0200559Y0141220D01*
Y0142402D01*
X0200783Y0142413D01*
X0200984Y0142449D01*
X0201161Y0142508D01*
X0201315Y0142591D01*
X0201445Y0142697D01*
X0201551Y0142827D01*
X0201634Y0142980D01*
X0201693Y0143157D01*
X0201728Y0143358D01*
X0201740Y0143583D01*
X0202921D01*
X0202933Y0143358D01*
D02*
G37*
G36*
X0199796Y0138492D02*
X0199789Y0138505D01*
X0199769Y0138517D01*
X0199735Y0138528D01*
X0199688Y0138537D01*
X0199627Y0138545D01*
X0199466Y0138557D01*
X0199122Y0138563D01*
Y0139744D01*
X0199250Y0139745D01*
X0199735Y0139779D01*
X0199769Y0139790D01*
X0199789Y0139802D01*
X0199796Y0139815D01*
Y0138492D01*
D02*
G37*
G36*
X0212402Y0139520D02*
X0212370Y0139461D01*
X0212343Y0139362D01*
X0212318Y0139225D01*
X0212298Y0139047D01*
X0212259Y0138280D01*
X0212252Y0137571D01*
X0210283D01*
X0210282Y0137945D01*
X0210193Y0139362D01*
X0210165Y0139461D01*
X0210134Y0139520D01*
X0210099Y0139540D01*
X0212437D01*
X0212402Y0139520D01*
D02*
G37*
G36*
X0204861Y0138270D02*
X0204847Y0138240D01*
X0204834Y0138191D01*
X0204822Y0138122D01*
X0204813Y0138034D01*
X0204795Y0137650D01*
X0204791Y0137295D01*
X0203807D01*
X0203806Y0137483D01*
X0203765Y0138191D01*
X0203752Y0138240D01*
X0203737Y0138270D01*
X0203721Y0138280D01*
X0204878D01*
X0204861Y0138270D01*
D02*
G37*
G36*
X0200924D02*
X0200910Y0138240D01*
X0200897Y0138191D01*
X0200885Y0138122D01*
X0200876Y0138034D01*
X0200858Y0137650D01*
X0200854Y0137295D01*
X0199870D01*
X0199869Y0137483D01*
X0199828Y0138191D01*
X0199815Y0138240D01*
X0199800Y0138270D01*
X0199784Y0138280D01*
X0200941D01*
X0200924Y0138270D01*
D02*
G37*
G36*
X0208713Y0137047D02*
X0208743Y0136669D01*
X0208770Y0136516D01*
X0208804Y0136386D01*
X0208846Y0136279D01*
X0208896Y0136197D01*
X0208953Y0136138D01*
X0209018Y0136102D01*
X0209090Y0136090D01*
X0207146D01*
X0207218Y0136102D01*
X0207283Y0136138D01*
X0207341Y0136197D01*
X0207390Y0136279D01*
X0207432Y0136386D01*
X0207467Y0136516D01*
X0207493Y0136669D01*
X0207512Y0136846D01*
X0207528Y0137271D01*
X0208709D01*
X0208713Y0137047D01*
D02*
G37*
G36*
X0204795Y0136888D02*
X0204824Y0136573D01*
X0204849Y0136445D01*
X0204882Y0136336D01*
X0204922Y0136248D01*
X0204969Y0136179D01*
X0205023Y0136130D01*
X0205085Y0136100D01*
X0205153Y0136090D01*
X0203315Y0136078D01*
X0203408Y0136089D01*
X0203492Y0136119D01*
X0203566Y0136169D01*
X0203630Y0136239D01*
X0203684Y0136329D01*
X0203728Y0136439D01*
X0203763Y0136568D01*
X0203787Y0136717D01*
X0203802Y0136886D01*
X0203807Y0137075D01*
X0204791D01*
X0204795Y0136888D01*
D02*
G37*
G36*
X0200858D02*
X0200887Y0136573D01*
X0200912Y0136445D01*
X0200945Y0136336D01*
X0200985Y0136248D01*
X0201032Y0136179D01*
X0201086Y0136130D01*
X0201148Y0136100D01*
X0201216Y0136090D01*
X0199378Y0136078D01*
X0199471Y0136089D01*
X0199555Y0136119D01*
X0199629Y0136169D01*
X0199693Y0136239D01*
X0199747Y0136329D01*
X0199791Y0136439D01*
X0199826Y0136568D01*
X0199850Y0136717D01*
X0199865Y0136886D01*
X0199870Y0137075D01*
X0200854D01*
X0200858Y0136888D01*
D02*
G37*
G36*
X0204125Y0133764D02*
X0204074Y0133816D01*
X0204009Y0133844D01*
X0203931Y0133848D01*
X0203840Y0133827D01*
X0203735Y0133782D01*
X0203617Y0133713D01*
X0203486Y0133620D01*
X0203341Y0133503D01*
X0203012Y0133195D01*
X0202652Y0133949D01*
X0202800Y0134103D01*
X0203036Y0134382D01*
X0203123Y0134508D01*
X0203190Y0134624D01*
X0203237Y0134730D01*
X0203264Y0134827D01*
X0203270Y0134915D01*
X0203255Y0134994D01*
X0203221Y0135063D01*
X0204125Y0133764D01*
D02*
G37*
G36*
X0192056Y0134102D02*
X0192080Y0133755D01*
X0192090Y0133692D01*
X0192103Y0133639D01*
X0192118Y0133595D01*
X0192135Y0133562D01*
X0192154Y0133537D01*
X0190776D01*
X0190794Y0133562D01*
X0190811Y0133595D01*
X0190826Y0133639D01*
X0190839Y0133692D01*
X0190849Y0133755D01*
X0190865Y0133909D01*
X0190873Y0134102D01*
X0190874Y0134213D01*
X0192055D01*
X0192056Y0134102D01*
D02*
G37*
G36*
X0199708Y0132680D02*
X0199772Y0132630D01*
X0199840Y0132586D01*
X0199913Y0132547D01*
X0199990Y0132515D01*
X0200071Y0132488D01*
X0200156Y0132467D01*
X0200246Y0132453D01*
X0200340Y0132444D01*
X0200437Y0132441D01*
Y0131653D01*
X0200340Y0131651D01*
X0200246Y0131642D01*
X0200156Y0131627D01*
X0200071Y0131606D01*
X0199990Y0131580D01*
X0199913Y0131547D01*
X0199840Y0131509D01*
X0199772Y0131465D01*
X0199708Y0131414D01*
X0199648Y0131358D01*
Y0132736D01*
X0199708Y0132680D01*
D02*
G37*
G36*
X0218900Y0194916D02*
Y0117210D01*
X0206925D01*
Y0125657D01*
X0204851D01*
X0204644Y0126157D01*
X0205477Y0126991D01*
X0210756D01*
X0210756Y0126991D01*
X0211335Y0127106D01*
X0211826Y0127434D01*
X0215763Y0131371D01*
X0215763Y0131371D01*
X0216091Y0131862D01*
X0216206Y0132441D01*
Y0176221D01*
X0216091Y0176800D01*
X0216005Y0176928D01*
Y0187835D01*
X0215906Y0188337D01*
X0215621Y0188763D01*
X0210542Y0193842D01*
X0210117Y0194126D01*
X0209614Y0194226D01*
X0189807D01*
X0189771Y0194242D01*
X0188983Y0194258D01*
X0188697Y0194281D01*
Y0194398D01*
X0188255D01*
X0188185Y0194427D01*
X0188114Y0194398D01*
X0185335D01*
Y0191441D01*
X0184973Y0191096D01*
X0184298Y0191771D01*
X0183937Y0192011D01*
X0183658Y0192067D01*
Y0192665D01*
X0180689D01*
Y0189303D01*
X0183620D01*
X0184260Y0188663D01*
X0184014Y0188203D01*
X0183945Y0188216D01*
X0182134D01*
X0181747Y0188139D01*
X0181419Y0187920D01*
X0180041Y0186542D01*
X0179821Y0186214D01*
X0179744Y0185827D01*
Y0174291D01*
X0179821Y0173904D01*
X0180041Y0173576D01*
X0181379Y0172238D01*
X0181707Y0172018D01*
X0182095Y0171941D01*
X0185274D01*
X0185590Y0171572D01*
X0185448Y0171287D01*
X0185335D01*
Y0168319D01*
X0188697D01*
Y0171287D01*
X0188103D01*
X0188101Y0171294D01*
X0188082Y0171365D01*
X0188065Y0171469D01*
X0188053Y0171601D01*
X0188049Y0171774D01*
X0188027Y0171822D01*
Y0173724D01*
X0188484D01*
Y0174721D01*
X0188460Y0174731D01*
X0188406Y0174736D01*
X0188484D01*
Y0176102D01*
Y0177468D01*
X0188406D01*
X0188460Y0177474D01*
X0188484Y0177483D01*
Y0178366D01*
X0182193Y0178366D01*
X0182193Y0181810D01*
X0182193Y0182106D01*
X0188016Y0182107D01*
Y0182220D01*
X0188403Y0182492D01*
X0190075D01*
Y0185666D01*
X0190104Y0185736D01*
X0190075Y0185807D01*
X0190075Y0185842D01*
X0190080Y0185896D01*
X0190075Y0186248D01*
X0190002Y0186734D01*
Y0189178D01*
X0190858Y0190034D01*
X0191449D01*
Y0189358D01*
X0193433D01*
Y0188858D01*
X0193933D01*
Y0187701D01*
X0194024D01*
X0193967Y0187695D01*
X0193933Y0187683D01*
Y0186677D01*
X0195417D01*
Y0187101D01*
X0195886Y0187177D01*
Y0187177D01*
X0198854D01*
Y0187902D01*
X0198909Y0187911D01*
X0199008Y0187920D01*
X0199144Y0187924D01*
X0199197Y0187947D01*
X0199480D01*
X0199533Y0187924D01*
X0199666Y0187920D01*
X0199763Y0187911D01*
X0199823Y0187901D01*
Y0187177D01*
X0199823D01*
X0199828Y0187168D01*
X0199519Y0186669D01*
X0197472D01*
Y0184988D01*
X0198466D01*
X0198478Y0185023D01*
X0198484Y0185079D01*
Y0184988D01*
X0199457D01*
Y0184488D01*
X0199957D01*
Y0183331D01*
X0199969D01*
X0199957Y0183330D01*
Y0182307D01*
X0200435D01*
Y0181820D01*
X0200023Y0181563D01*
X0199935Y0181568D01*
X0199878Y0181579D01*
Y0180157D01*
X0198878D01*
Y0181579D01*
X0198796Y0181563D01*
X0198302Y0181233D01*
X0198271Y0181186D01*
X0197797Y0181092D01*
X0197409Y0181169D01*
X0197022Y0181092D01*
X0196694Y0180873D01*
X0196475Y0180545D01*
X0196398Y0180157D01*
X0196475Y0179770D01*
X0196520Y0179703D01*
X0196253Y0179203D01*
X0193157Y0179203D01*
X0193157Y0179203D01*
X0192876Y0179203D01*
X0192776Y0179161D01*
X0192668D01*
X0192148Y0178946D01*
X0192071Y0178869D01*
X0191972Y0178828D01*
X0191573Y0178430D01*
X0191532Y0178330D01*
X0191456Y0178254D01*
X0191240Y0177733D01*
Y0177625D01*
X0191199Y0177526D01*
X0191199Y0177244D01*
Y0172205D01*
X0191240Y0172105D01*
Y0166978D01*
X0189428D01*
X0189385Y0166998D01*
X0188979Y0167012D01*
X0188839Y0167027D01*
X0188726Y0167047D01*
X0188697Y0167055D01*
Y0167350D01*
X0188255D01*
X0188185Y0167380D01*
X0188143Y0167362D01*
X0188098Y0167373D01*
X0188062Y0167350D01*
X0185969D01*
X0185934Y0167373D01*
X0185889Y0167362D01*
X0185847Y0167380D01*
X0185776Y0167350D01*
X0185335D01*
Y0167055D01*
X0185306Y0167047D01*
X0185199Y0167028D01*
X0184864Y0167001D01*
X0184656Y0166998D01*
X0184611Y0166978D01*
X0184090D01*
X0178403Y0172665D01*
Y0188576D01*
X0178423Y0188620D01*
X0178428Y0188829D01*
X0178443Y0188994D01*
X0178465Y0189126D01*
X0178491Y0189223D01*
X0178515Y0189283D01*
X0178518Y0189288D01*
X0178535Y0189289D01*
X0178559Y0189303D01*
X0179720D01*
Y0192665D01*
X0176752D01*
Y0191072D01*
X0176505Y0190826D01*
X0176264Y0190465D01*
X0176179Y0190039D01*
X0176179Y0190039D01*
Y0188682D01*
X0176160Y0188634D01*
X0176179Y0188586D01*
Y0172205D01*
X0176179Y0172205D01*
X0176264Y0171779D01*
X0176505Y0171418D01*
X0182844Y0165080D01*
X0182844Y0165080D01*
X0183204Y0164839D01*
X0183630Y0164754D01*
X0183630Y0164754D01*
X0184604D01*
X0184646Y0164735D01*
X0185052Y0164720D01*
X0185192Y0164705D01*
X0185306Y0164685D01*
X0185335Y0164678D01*
Y0164382D01*
X0185776D01*
X0185847Y0164353D01*
X0185889Y0164370D01*
X0185934Y0164360D01*
X0185969Y0164382D01*
X0188062D01*
X0188098Y0164360D01*
X0188143Y0164370D01*
X0188185Y0164353D01*
X0188255Y0164382D01*
X0188697D01*
Y0164678D01*
X0188726Y0164685D01*
X0188832Y0164704D01*
X0189168Y0164731D01*
X0189375Y0164734D01*
X0189421Y0164754D01*
X0191199D01*
X0191199Y0163007D01*
X0191199Y0162676D01*
X0191220Y0162625D01*
X0191209Y0162571D01*
X0191339Y0161921D01*
X0191369Y0161875D01*
Y0161819D01*
X0191623Y0161207D01*
X0191662Y0161168D01*
X0191673Y0161114D01*
X0192041Y0160563D01*
X0192087Y0160532D01*
X0192108Y0160481D01*
X0192342Y0160246D01*
X0192342Y0160246D01*
X0196602Y0155987D01*
X0196357Y0155632D01*
X0196349Y0155624D01*
X0196346Y0155617D01*
X0196318Y0155576D01*
X0195316Y0154574D01*
X0194988Y0154083D01*
X0194872Y0153504D01*
X0194872Y0153504D01*
Y0149777D01*
X0194864Y0149685D01*
X0194841Y0149588D01*
X0194792Y0149462D01*
X0194716Y0149311D01*
X0194611Y0149136D01*
X0194483Y0148951D01*
X0193885Y0148247D01*
X0193634Y0147988D01*
X0193622Y0147959D01*
X0188217Y0142554D01*
X0187889Y0142063D01*
X0187863Y0141932D01*
X0187704Y0141694D01*
X0187589Y0141115D01*
X0187589Y0141115D01*
Y0134803D01*
X0187704Y0134224D01*
X0188032Y0133733D01*
X0188523Y0133405D01*
X0189102Y0133290D01*
X0189550Y0133379D01*
X0189884Y0133140D01*
X0189986Y0133007D01*
X0189951Y0132835D01*
X0190066Y0132255D01*
X0190181Y0132084D01*
X0189913Y0131584D01*
X0181622D01*
X0181196Y0131500D01*
X0180836Y0131259D01*
X0180836Y0131259D01*
X0176899Y0127322D01*
X0176658Y0126961D01*
X0176573Y0126535D01*
X0176573Y0126535D01*
Y0126385D01*
X0176553Y0126341D01*
X0176548Y0126130D01*
X0176533Y0125965D01*
X0176512Y0125832D01*
X0176486Y0125735D01*
X0176461Y0125675D01*
X0176460Y0125673D01*
X0176447Y0125672D01*
X0176421Y0125657D01*
X0163406D01*
Y0117210D01*
X0154169D01*
Y0125657D01*
X0146083D01*
Y0117210D01*
X0109698Y0117210D01*
Y0194916D01*
X0218900Y0194916D01*
D02*
G37*
G36*
X0203870Y0126269D02*
X0203903Y0125820D01*
X0203931Y0125638D01*
X0203968Y0125484D01*
X0204012Y0125358D01*
X0204065Y0125260D01*
X0204126Y0125190D01*
X0204195Y0125147D01*
X0204272Y0125134D01*
X0201492D01*
X0201569Y0125147D01*
X0201638Y0125190D01*
X0201699Y0125260D01*
X0201752Y0125358D01*
X0201796Y0125484D01*
X0201833Y0125638D01*
X0201861Y0125820D01*
X0201881Y0126031D01*
X0201898Y0126535D01*
X0203866D01*
X0203870Y0126269D01*
D02*
G37*
G36*
X0195213Y0126588D02*
X0195237Y0126283D01*
X0195277Y0126013D01*
X0195333Y0125780D01*
X0195405Y0125582D01*
X0195492Y0125421D01*
X0195596Y0125295D01*
X0195716Y0125205D01*
X0195852Y0125151D01*
X0196004Y0125134D01*
X0192437D01*
X0192589Y0125151D01*
X0192725Y0125205D01*
X0192844Y0125295D01*
X0192948Y0125421D01*
X0193036Y0125582D01*
X0193108Y0125780D01*
X0193164Y0126013D01*
X0193204Y0126283D01*
X0193228Y0126588D01*
X0193236Y0126929D01*
X0195205D01*
X0195213Y0126588D01*
D02*
G37*
G36*
X0178281Y0126100D02*
X0178299Y0125897D01*
X0178329Y0125718D01*
X0178370Y0125563D01*
X0178423Y0125432D01*
X0178488Y0125324D01*
X0178565Y0125241D01*
X0178654Y0125181D01*
X0178754Y0125145D01*
X0178866Y0125134D01*
X0176504D01*
X0176616Y0125145D01*
X0176716Y0125181D01*
X0176805Y0125241D01*
X0176882Y0125324D01*
X0176947Y0125432D01*
X0177000Y0125563D01*
X0177041Y0125718D01*
X0177071Y0125897D01*
X0177089Y0126100D01*
X0177094Y0126327D01*
X0178276D01*
X0178281Y0126100D01*
D02*
G37*
G36*
X0178277Y0122684D02*
X0178300Y0122337D01*
X0178311Y0122274D01*
X0178324Y0122222D01*
X0178339Y0122178D01*
X0178355Y0122144D01*
X0178374Y0122120D01*
X0177685Y0121417D01*
X0178374Y0120714D01*
X0178355Y0120690D01*
X0178339Y0120657D01*
X0178324Y0120613D01*
X0178311Y0120560D01*
X0178300Y0120497D01*
X0178277Y0120150D01*
X0178276Y0120039D01*
X0177094D01*
X0177094Y0120150D01*
X0177086Y0120343D01*
X0177070Y0120497D01*
X0177059Y0120560D01*
X0177046Y0120613D01*
X0177032Y0120657D01*
X0177015Y0120690D01*
X0176996Y0120714D01*
X0177685Y0121417D01*
X0176996Y0122120D01*
X0177015Y0122144D01*
X0177032Y0122178D01*
X0177046Y0122222D01*
X0177059Y0122274D01*
X0177070Y0122337D01*
X0177086Y0122492D01*
X0177094Y0122684D01*
X0177094Y0122795D01*
X0178276D01*
X0178277Y0122684D01*
D02*
G37*
%LPC*%
G36*
X0205571Y0171941D02*
X0204835D01*
Y0171850D01*
X0204829Y0171906D01*
X0204817Y0171941D01*
X0203811D01*
Y0170260D01*
X0205571D01*
Y0171254D01*
X0205536Y0171266D01*
X0205480Y0171272D01*
X0205571D01*
Y0171941D01*
D02*
G37*
G36*
X0211004Y0172890D02*
X0208929D01*
Y0170815D01*
X0209935D01*
X0209947Y0170849D01*
X0209953Y0170905D01*
Y0170815D01*
X0211004D01*
Y0172890D01*
D02*
G37*
G36*
X0208331Y0171941D02*
X0206571D01*
Y0171272D01*
X0206661D01*
X0206605Y0171266D01*
X0206571Y0171254D01*
Y0170260D01*
X0208331D01*
Y0171941D01*
D02*
G37*
G36*
X0211004Y0169815D02*
X0209953D01*
Y0169724D01*
X0209947Y0169781D01*
X0209935Y0169815D01*
X0208929D01*
Y0167740D01*
X0211004D01*
Y0168746D01*
X0210969Y0168758D01*
X0210913Y0168764D01*
X0211004D01*
Y0169815D01*
D02*
G37*
G36*
X0205732Y0164543D02*
X0204051D01*
Y0163538D01*
X0204086Y0163525D01*
X0204142Y0163519D01*
X0204051D01*
Y0162784D01*
X0204720D01*
Y0162874D01*
X0204726Y0162818D01*
X0204738Y0162784D01*
X0205732D01*
Y0164543D01*
D02*
G37*
G36*
Y0161784D02*
X0204738D01*
X0204726Y0161749D01*
X0204720Y0161693D01*
Y0161784D01*
X0204051D01*
Y0160024D01*
X0205732D01*
Y0161784D01*
D02*
G37*
G36*
X0208173Y0159386D02*
X0206098D01*
Y0158392D01*
X0206133Y0158380D01*
X0206189Y0158374D01*
X0206098D01*
Y0157311D01*
X0207149D01*
Y0157402D01*
X0207155Y0157345D01*
X0207168Y0157311D01*
X0208173D01*
Y0159386D01*
D02*
G37*
G36*
X0205098D02*
X0203024D01*
Y0157311D01*
X0205098D01*
Y0158374D01*
X0205008D01*
X0205064Y0158380D01*
X0205098Y0158392D01*
Y0159386D01*
D02*
G37*
G36*
Y0156311D02*
X0203024D01*
Y0154236D01*
X0205098D01*
Y0156311D01*
D02*
G37*
G36*
X0141902Y0192391D02*
Y0192347D01*
X0141807Y0192269D01*
X0140953D01*
X0140220Y0192123D01*
X0139599Y0191708D01*
X0139042Y0191767D01*
X0138961Y0191847D01*
Y0191945D01*
X0138067D01*
Y0190354D01*
X0137185D01*
Y0189776D01*
X0137179Y0189830D01*
X0137162Y0189878D01*
X0137132Y0189920D01*
X0137091Y0189957D01*
X0137038Y0189988D01*
X0136973Y0190014D01*
X0136896Y0190033D01*
X0136807Y0190048D01*
X0136707Y0190056D01*
X0136595Y0190059D01*
Y0190650D01*
X0136707Y0190652D01*
X0136807Y0190661D01*
X0136896Y0190675D01*
X0136973Y0190695D01*
X0137038Y0190720D01*
X0137067Y0190738D01*
Y0191945D01*
X0136098D01*
Y0190738D01*
X0136128Y0190720D01*
X0136193Y0190695D01*
X0136269Y0190675D01*
X0136358Y0190661D01*
X0136459Y0190652D01*
X0136571Y0190650D01*
Y0190059D01*
X0136459Y0190056D01*
X0136358Y0190048D01*
X0136269Y0190033D01*
X0136193Y0190014D01*
X0136128Y0189988D01*
X0136075Y0189957D01*
X0136033Y0189920D01*
X0136004Y0189878D01*
X0135986Y0189830D01*
X0135980Y0189776D01*
Y0190354D01*
X0135598D01*
Y0189854D01*
X0134205D01*
Y0189828D01*
X0123197D01*
Y0189831D01*
X0121997Y0189673D01*
X0120880Y0189210D01*
X0119920Y0188474D01*
X0119184Y0187514D01*
X0118721Y0186396D01*
X0118563Y0185197D01*
X0118563D01*
X0118354Y0184783D01*
X0117972D01*
Y0182128D01*
X0117701Y0181740D01*
X0117472Y0181740D01*
X0115134D01*
Y0176909D01*
X0117701D01*
Y0179274D01*
X0118130Y0179630D01*
X0118385Y0179572D01*
X0118389Y0179556D01*
X0118432Y0179301D01*
X0118516Y0178104D01*
X0118522Y0177597D01*
X0118526Y0177586D01*
Y0172449D01*
X0118526Y0172449D01*
X0118673Y0170585D01*
X0119109Y0168767D01*
X0119794Y0167115D01*
X0118126Y0165446D01*
X0117772Y0165146D01*
Y0165146D01*
X0117772Y0165146D01*
X0114571D01*
X0114528Y0165146D01*
X0114071D01*
X0114028Y0165146D01*
X0110827D01*
Y0162323D01*
X0110801Y0162276D01*
X0110810Y0162246D01*
X0110798Y0162217D01*
X0110827Y0162146D01*
Y0161705D01*
X0111232D01*
X0111269Y0161684D01*
X0111292Y0161627D01*
X0111317Y0161529D01*
X0111338Y0161396D01*
X0111351Y0161242D01*
X0111337Y0161086D01*
X0111316Y0160955D01*
X0111290Y0160859D01*
X0111267Y0160802D01*
X0111261Y0160802D01*
X0111214Y0160776D01*
X0110807D01*
Y0160334D01*
X0110778Y0160264D01*
X0110790Y0160235D01*
X0110781Y0160206D01*
X0110807Y0160158D01*
Y0157256D01*
X0111352D01*
X0111356Y0157197D01*
X0111356Y0157083D01*
X0111395Y0156991D01*
X0111461Y0156661D01*
X0111539Y0156544D01*
X0111555Y0156051D01*
X0111555Y0156051D01*
X0111555Y0156051D01*
Y0153083D01*
X0114917D01*
Y0156051D01*
X0114822D01*
X0114654Y0156260D01*
X0114769Y0156585D01*
X0114940Y0156756D01*
X0115768D01*
Y0159016D01*
X0116268D01*
Y0159516D01*
X0117437D01*
Y0159606D01*
X0117443Y0159550D01*
X0117455Y0159516D01*
X0118449D01*
Y0161276D01*
X0118129D01*
X0117846Y0161735D01*
X0117895Y0161898D01*
X0118010Y0162122D01*
X0118463Y0162213D01*
X0118889Y0162497D01*
X0121019Y0164627D01*
X0121518Y0164607D01*
X0122016Y0164025D01*
X0122016Y0164024D01*
X0122976Y0163064D01*
X0123323Y0162717D01*
X0123654Y0162354D01*
X0124350Y0161506D01*
X0125100Y0160104D01*
X0125562Y0158582D01*
X0125715Y0157025D01*
X0125692Y0157000D01*
X0125692D01*
X0125731Y0156802D01*
Y0152323D01*
X0125877Y0151590D01*
X0126292Y0150969D01*
X0126538Y0150804D01*
X0126618Y0150401D01*
X0126859Y0150040D01*
X0127220Y0149800D01*
X0127646Y0149715D01*
X0128071Y0149800D01*
X0128432Y0150040D01*
X0128673Y0150401D01*
X0128753Y0150804D01*
X0129000Y0150969D01*
X0129415Y0151590D01*
X0129560Y0152323D01*
Y0157000D01*
X0129495Y0157328D01*
X0129374Y0158863D01*
X0128938Y0160681D01*
X0128222Y0162409D01*
X0127245Y0164003D01*
X0126032Y0165424D01*
X0126031Y0165425D01*
X0126031Y0165425D01*
X0126031Y0165425D01*
X0124724Y0166732D01*
X0124650Y0166781D01*
X0123697Y0167943D01*
X0122947Y0169345D01*
X0122486Y0170867D01*
X0122338Y0172362D01*
X0122356Y0172449D01*
Y0177586D01*
X0122360Y0177597D01*
X0122366Y0178109D01*
X0122411Y0178963D01*
X0122448Y0179290D01*
X0122493Y0179556D01*
X0122497Y0179572D01*
X0122752Y0179630D01*
X0123181Y0179274D01*
Y0176909D01*
X0125748D01*
Y0181740D01*
X0123409D01*
X0123181Y0181740D01*
X0122909Y0182128D01*
Y0184783D01*
X0122655D01*
X0122410Y0185283D01*
X0122454Y0185504D01*
X0122628Y0185765D01*
X0122889Y0185940D01*
X0123191Y0186000D01*
X0123197Y0185999D01*
X0134082D01*
X0134221Y0185971D01*
X0134767Y0186080D01*
X0135125Y0185883D01*
X0135249Y0185713D01*
X0135342Y0185248D01*
X0135670Y0184757D01*
X0135931Y0184583D01*
X0135779Y0184083D01*
X0134193D01*
Y0183993D01*
X0133693Y0183738D01*
X0133197Y0183836D01*
X0132618Y0183721D01*
X0132127Y0183393D01*
X0131799Y0182902D01*
X0131696Y0182384D01*
X0131672Y0182331D01*
X0131670Y0182273D01*
X0131666Y0182240D01*
X0131659Y0182207D01*
X0131648Y0182174D01*
X0131634Y0182139D01*
X0131616Y0182102D01*
X0131591Y0182062D01*
X0131561Y0182020D01*
X0131524Y0181975D01*
X0131469Y0181917D01*
X0131449Y0181863D01*
X0130072Y0180487D01*
X0129875Y0180191D01*
X0129815Y0179891D01*
X0129315Y0179940D01*
Y0181740D01*
X0126748D01*
Y0176409D01*
Y0171079D01*
X0129315D01*
Y0173367D01*
X0129815Y0173416D01*
X0129875Y0173116D01*
X0130072Y0172820D01*
X0130829Y0172064D01*
Y0164789D01*
X0130806Y0164737D01*
X0130803Y0164657D01*
X0130798Y0164599D01*
X0130789Y0164548D01*
X0130778Y0164503D01*
X0130765Y0164463D01*
X0130751Y0164429D01*
X0130734Y0164398D01*
X0130716Y0164370D01*
X0130696Y0164343D01*
X0130656Y0164301D01*
X0130635Y0164247D01*
X0130342Y0163807D01*
X0130227Y0163228D01*
X0130342Y0162649D01*
X0130670Y0162158D01*
X0131161Y0161830D01*
X0131740Y0161715D01*
X0132236Y0161814D01*
X0132542Y0161657D01*
X0132736Y0161507D01*
Y0161269D01*
X0132719Y0161181D01*
X0132736Y0161093D01*
Y0159106D01*
X0132736D01*
X0132660Y0158638D01*
X0132236D01*
Y0157153D01*
X0136598D01*
Y0157758D01*
X0136985Y0158075D01*
X0137094Y0158054D01*
X0137674Y0158169D01*
X0138165Y0158497D01*
X0138493Y0158988D01*
X0138608Y0159567D01*
X0138493Y0160146D01*
X0138407Y0160274D01*
Y0162205D01*
X0138307Y0162707D01*
X0138250Y0162793D01*
Y0163402D01*
X0138222Y0163540D01*
Y0165200D01*
X0138250Y0165339D01*
Y0165685D01*
X0138222Y0165824D01*
Y0167483D01*
X0138250Y0167622D01*
Y0172431D01*
X0138378Y0172878D01*
X0139587D01*
Y0173883D01*
X0139552Y0173896D01*
X0139496Y0173902D01*
X0139587D01*
Y0174370D01*
Y0174838D01*
X0139496D01*
X0139552Y0174844D01*
X0139587Y0174857D01*
Y0175862D01*
X0138378D01*
Y0175787D01*
X0138308Y0175730D01*
X0137878Y0175566D01*
X0137516Y0175808D01*
X0136986Y0175913D01*
Y0176450D01*
X0137006Y0176494D01*
X0137011Y0176702D01*
X0137025Y0176866D01*
X0137047Y0176998D01*
X0137072Y0177094D01*
X0137095Y0177150D01*
X0137101Y0177151D01*
X0137149Y0177177D01*
X0137555D01*
Y0177619D01*
X0137584Y0177689D01*
X0137573Y0177717D01*
X0137581Y0177747D01*
X0137555Y0177795D01*
Y0180146D01*
X0134193D01*
Y0177795D01*
X0134167Y0177747D01*
X0134176Y0177717D01*
X0134164Y0177689D01*
X0134193Y0177619D01*
Y0177177D01*
X0134599D01*
X0134647Y0177151D01*
X0134653Y0177150D01*
X0134676Y0177094D01*
X0134701Y0176998D01*
X0134723Y0176866D01*
X0134737Y0176702D01*
X0134742Y0176494D01*
X0134762Y0176450D01*
Y0175894D01*
X0132185D01*
Y0174477D01*
X0131685Y0174210D01*
X0131628Y0174248D01*
Y0179465D01*
X0132737Y0180575D01*
X0132791Y0180595D01*
X0132850Y0180650D01*
X0132894Y0180687D01*
X0132936Y0180717D01*
X0132976Y0180742D01*
X0133013Y0180760D01*
X0133048Y0180774D01*
X0133081Y0180785D01*
X0133114Y0180792D01*
X0133147Y0180796D01*
X0133205Y0180798D01*
X0133258Y0180822D01*
X0133776Y0180925D01*
X0133776Y0180925D01*
X0133799Y0180936D01*
X0134193Y0181114D01*
X0136920D01*
X0136956Y0181092D01*
X0137001Y0181103D01*
X0137043Y0181085D01*
X0137114Y0181114D01*
X0137555D01*
Y0181345D01*
X0137925Y0181439D01*
X0138011Y0181455D01*
X0138470Y0181360D01*
X0138484Y0181334D01*
Y0180839D01*
X0141846D01*
Y0183741D01*
X0141873Y0183788D01*
X0141864Y0183818D01*
X0141876Y0183846D01*
X0141846Y0183917D01*
Y0184358D01*
X0141440D01*
X0141392Y0184384D01*
X0141386Y0184385D01*
X0141363Y0184442D01*
X0141338Y0184538D01*
X0141316Y0184669D01*
X0141302Y0184833D01*
X0141297Y0185041D01*
X0141277Y0185085D01*
Y0185354D01*
X0141193Y0185780D01*
X0140952Y0186141D01*
X0140647Y0186445D01*
Y0187992D01*
X0140798Y0188213D01*
X0141068Y0188440D01*
X0141691D01*
X0141902Y0188398D01*
Y0188400D01*
X0142961D01*
X0143693Y0188546D01*
X0143766Y0188594D01*
X0145850D01*
X0146286Y0188514D01*
X0146339Y0188121D01*
Y0187638D01*
X0146493Y0186867D01*
X0146595Y0186714D01*
Y0184386D01*
X0146595Y0184303D01*
Y0183886D01*
X0146595Y0183803D01*
Y0181809D01*
X0146585Y0181796D01*
X0146440Y0181063D01*
Y0179869D01*
X0146025Y0179567D01*
X0145626Y0179715D01*
Y0179831D01*
X0145185D01*
X0145114Y0179860D01*
X0145067Y0179841D01*
X0145018Y0179851D01*
X0144986Y0179831D01*
X0142264D01*
Y0176311D01*
X0144398D01*
X0144447Y0175811D01*
X0144232Y0175768D01*
X0143741Y0175440D01*
X0143689Y0175362D01*
X0143602D01*
Y0175233D01*
X0143413Y0174949D01*
X0143298Y0174370D01*
X0143413Y0173791D01*
X0143602Y0173507D01*
Y0173378D01*
X0143689D01*
X0143741Y0173300D01*
X0144232Y0172972D01*
X0144811Y0172857D01*
X0145141D01*
X0145169Y0172845D01*
X0146138Y0172829D01*
X0146430Y0172334D01*
X0146416Y0172044D01*
X0146361Y0171672D01*
X0146272Y0171311D01*
X0145646Y0171121D01*
X0144449Y0170481D01*
X0143400Y0169620D01*
X0142539Y0168571D01*
X0141899Y0167374D01*
X0141505Y0166076D01*
X0141372Y0164725D01*
X0141505Y0163374D01*
X0141899Y0162076D01*
X0142539Y0160879D01*
X0143400Y0159830D01*
X0144449Y0158969D01*
X0145646Y0158329D01*
X0146944Y0157935D01*
X0148295Y0157802D01*
X0149646Y0157935D01*
X0150944Y0158329D01*
X0152141Y0158969D01*
X0153191Y0159830D01*
X0154051Y0160879D01*
X0154691Y0162076D01*
X0155085Y0163374D01*
X0155218Y0164725D01*
X0155085Y0166076D01*
X0154691Y0167374D01*
X0154051Y0168571D01*
X0153191Y0169620D01*
X0152141Y0170481D01*
X0150944Y0171121D01*
X0150434Y0171276D01*
X0150346Y0171639D01*
X0150292Y0172011D01*
X0150273Y0172411D01*
X0150433Y0172651D01*
X0150634Y0172747D01*
X0151083Y0172610D01*
D01*
X0151574Y0172590D01*
X0151595Y0172581D01*
X0151665Y0172610D01*
X0154362D01*
Y0172110D01*
X0156043D01*
Y0174370D01*
Y0176630D01*
X0154362D01*
Y0176130D01*
X0151665D01*
X0151595Y0176159D01*
X0151524Y0176130D01*
X0151083D01*
Y0175978D01*
X0150575Y0175941D01*
X0150075Y0175992D01*
Y0176449D01*
X0150075Y0176492D01*
Y0178958D01*
X0150123Y0179031D01*
X0150269Y0179764D01*
Y0181063D01*
X0150123Y0181796D01*
X0150114Y0181809D01*
Y0183803D01*
X0150114Y0183886D01*
Y0184303D01*
X0150114Y0184386D01*
Y0186714D01*
X0150216Y0186867D01*
X0150369Y0187638D01*
Y0188504D01*
X0150216Y0189275D01*
X0149976Y0189634D01*
Y0192035D01*
X0146776D01*
X0146732Y0192035D01*
X0146276D01*
X0146232Y0192035D01*
X0143766D01*
X0143693Y0192084D01*
X0142961Y0192230D01*
X0142291D01*
X0141902Y0192391D01*
D02*
G37*
G36*
X0135098Y0191945D02*
X0134205D01*
Y0190854D01*
X0135098D01*
Y0191945D01*
D02*
G37*
G36*
X0192933Y0188358D02*
X0191449D01*
Y0186677D01*
X0192933D01*
Y0187683D01*
X0192899Y0187695D01*
X0192842Y0187701D01*
X0192933D01*
Y0188358D01*
D02*
G37*
G36*
X0198957Y0183988D02*
X0198484D01*
Y0183898D01*
X0198478Y0183954D01*
X0198466Y0183988D01*
X0197472D01*
Y0182307D01*
X0198957D01*
Y0183256D01*
X0198938Y0183277D01*
X0198894Y0183307D01*
X0198844Y0183325D01*
X0198787Y0183331D01*
X0198957D01*
Y0183988D01*
D02*
G37*
G36*
X0114134Y0181740D02*
X0111567D01*
Y0176909D01*
X0114134D01*
Y0181740D01*
D02*
G37*
G36*
X0190575Y0178480D02*
X0189484D01*
Y0177483D01*
X0189509Y0177474D01*
X0189563Y0177468D01*
X0189484D01*
Y0176602D01*
X0190575D01*
Y0178480D01*
D02*
G37*
G36*
X0158724Y0176630D02*
X0157043D01*
Y0174870D01*
X0158724D01*
Y0176630D01*
D02*
G37*
G36*
X0141795Y0175862D02*
X0140587D01*
Y0174870D01*
X0141795D01*
Y0175862D01*
D02*
G37*
G36*
X0190575Y0175602D02*
X0189484D01*
Y0174736D01*
X0189563D01*
X0189509Y0174731D01*
X0189484Y0174721D01*
Y0173724D01*
X0190575D01*
Y0175602D01*
D02*
G37*
G36*
X0141795Y0173870D02*
X0140587D01*
Y0172878D01*
X0141590D01*
X0141665Y0172917D01*
X0141746Y0172968D01*
X0141795Y0173005D01*
Y0173870D01*
D02*
G37*
G36*
X0158724D02*
X0157043D01*
Y0172110D01*
X0158724D01*
Y0173870D01*
D02*
G37*
G36*
X0125748Y0175909D02*
X0123181D01*
Y0171079D01*
X0125748D01*
Y0175909D01*
D02*
G37*
G36*
X0117701D02*
X0115134D01*
Y0171079D01*
X0117701D01*
Y0175909D01*
D02*
G37*
G36*
X0114134D02*
X0111567D01*
Y0171079D01*
X0114134D01*
Y0175909D01*
D02*
G37*
G36*
X0167685Y0167375D02*
X0166938Y0167277D01*
X0166242Y0166988D01*
X0165644Y0166530D01*
X0165185Y0165932D01*
X0165032Y0165561D01*
X0164965Y0165499D01*
X0164957Y0165482D01*
X0164945Y0165476D01*
X0164909Y0165462D01*
X0164852Y0165447D01*
X0164776Y0165435D01*
X0164681Y0165426D01*
X0164554Y0165423D01*
X0164473Y0165387D01*
X0164187Y0165330D01*
X0163891Y0165132D01*
X0162662Y0163903D01*
X0160323D01*
X0159974Y0163834D01*
X0159678Y0163636D01*
X0159607Y0163565D01*
X0159578Y0163546D01*
X0158194Y0162162D01*
X0157997Y0161866D01*
X0157927Y0161518D01*
Y0159366D01*
X0151284Y0152722D01*
X0144401D01*
X0141754Y0155369D01*
X0141459Y0155566D01*
X0141110Y0155636D01*
X0136819D01*
X0136598Y0155817D01*
Y0156154D01*
X0132236D01*
Y0154669D01*
X0133364D01*
X0133516Y0154169D01*
X0133426Y0154109D01*
X0131174Y0151857D01*
X0131157Y0151854D01*
X0130796Y0151613D01*
X0130555Y0151252D01*
X0130471Y0150827D01*
X0130555Y0150401D01*
X0130796Y0150040D01*
X0131157Y0149800D01*
X0131583Y0149715D01*
X0132008Y0149800D01*
X0132227Y0149946D01*
X0132404Y0149680D01*
X0132670Y0149503D01*
X0132524Y0149284D01*
X0132439Y0148858D01*
X0132524Y0148433D01*
X0132670Y0148214D01*
X0132730Y0147874D01*
X0132670Y0147534D01*
X0132524Y0147315D01*
X0132439Y0146890D01*
X0132442Y0146878D01*
X0131992Y0146577D01*
X0131965Y0146595D01*
X0131386Y0146710D01*
X0131193Y0146672D01*
X0131088Y0146721D01*
X0130690Y0147072D01*
X0130641Y0147315D01*
X0130400Y0147676D01*
X0130040Y0147917D01*
X0129614Y0148002D01*
X0129189Y0147917D01*
X0128828Y0147676D01*
X0128432D01*
X0128071Y0147917D01*
X0127646Y0148002D01*
X0127220Y0147917D01*
X0126859Y0147676D01*
X0126463D01*
X0126297Y0147787D01*
X0126235Y0147931D01*
X0126139Y0148250D01*
X0126156Y0148410D01*
X0126246Y0148858D01*
X0126130Y0149437D01*
X0125802Y0149928D01*
X0125311Y0150256D01*
X0125183Y0150282D01*
X0124738Y0150401D01*
X0124820Y0150825D01*
X0124821Y0150827D01*
X0124736Y0151252D01*
X0124495Y0151613D01*
X0124134Y0151854D01*
X0123709Y0151939D01*
X0123283Y0151854D01*
X0123064Y0151708D01*
X0122887Y0151973D01*
X0122361Y0152325D01*
X0122240Y0152349D01*
Y0150827D01*
Y0149304D01*
X0122361Y0149328D01*
X0122706Y0149559D01*
X0122920Y0149542D01*
X0123265Y0149091D01*
X0123219Y0148858D01*
X0123265Y0148625D01*
X0122920Y0148174D01*
X0122706Y0148157D01*
X0122361Y0148388D01*
X0122240Y0148412D01*
Y0146890D01*
X0121740D01*
Y0146562D01*
X0122159D01*
X0122135Y0146527D01*
X0122114Y0146484D01*
X0122096Y0146432D01*
X0122080Y0146374D01*
X0122066Y0146307D01*
X0122055Y0146233D01*
X0122040Y0146061D01*
X0122035Y0145857D01*
X0121445D01*
X0121444Y0145963D01*
X0121425Y0146233D01*
X0121414Y0146307D01*
X0121401Y0146374D01*
X0121396Y0146390D01*
X0120218D01*
X0120242Y0146269D01*
X0120593Y0145743D01*
X0121120Y0145391D01*
X0121684Y0145279D01*
X0122035Y0145807D01*
X0122041Y0145695D01*
X0122059Y0145595D01*
X0122089Y0145506D01*
X0122130Y0145429D01*
X0122183Y0145364D01*
X0122248Y0145311D01*
X0122325Y0145270D01*
X0122413Y0145240D01*
X0122514Y0145222D01*
X0122626Y0145217D01*
Y0144626D01*
X0122514Y0144620D01*
X0122413Y0144602D01*
X0122325Y0144573D01*
X0122248Y0144532D01*
X0122183Y0144478D01*
X0122130Y0144413D01*
X0122089Y0144337D01*
X0122059Y0144248D01*
X0122041Y0144148D01*
X0122035Y0144035D01*
X0121684Y0144563D01*
X0121120Y0144451D01*
X0120593Y0144099D01*
X0120242Y0143573D01*
X0120218Y0143453D01*
X0121396D01*
X0121401Y0143469D01*
X0121414Y0143535D01*
X0121425Y0143610D01*
X0121440Y0143782D01*
X0121445Y0143985D01*
X0122035D01*
X0122037Y0143880D01*
X0122055Y0143610D01*
X0122066Y0143535D01*
X0122080Y0143469D01*
X0122096Y0143410D01*
X0122114Y0143359D01*
X0122135Y0143316D01*
X0122159Y0143281D01*
X0121740D01*
Y0142625D01*
X0122159D01*
X0122135Y0142590D01*
X0122114Y0142546D01*
X0122096Y0142496D01*
X0122080Y0142437D01*
X0122066Y0142370D01*
X0122055Y0142296D01*
X0122040Y0142124D01*
X0122036Y0141952D01*
X0122037Y0141911D01*
X0122055Y0141641D01*
X0122066Y0141567D01*
X0122080Y0141500D01*
X0122096Y0141442D01*
X0122114Y0141391D01*
X0122135Y0141347D01*
X0122159Y0141312D01*
X0121740D01*
Y0140656D01*
X0122159D01*
X0122135Y0140621D01*
X0122114Y0140578D01*
X0122096Y0140527D01*
X0122080Y0140468D01*
X0122066Y0140402D01*
X0122055Y0140327D01*
X0122040Y0140155D01*
X0122036Y0139983D01*
X0122037Y0139943D01*
X0122055Y0139673D01*
X0122066Y0139598D01*
X0122080Y0139532D01*
X0122096Y0139473D01*
X0122114Y0139422D01*
X0122125Y0139400D01*
X0122146Y0139390D01*
X0122197Y0139371D01*
X0122256Y0139355D01*
X0122323Y0139342D01*
X0122397Y0139331D01*
X0122569Y0139316D01*
X0122741Y0139312D01*
X0122782Y0139312D01*
X0123052Y0139331D01*
X0123126Y0139342D01*
X0123193Y0139355D01*
X0123251Y0139371D01*
X0123302Y0139390D01*
X0123345Y0139411D01*
X0123381Y0139434D01*
Y0139016D01*
X0124209D01*
Y0137494D01*
X0124329Y0137517D01*
X0124855Y0137869D01*
X0125033Y0138135D01*
X0125252Y0137988D01*
X0125677Y0137904D01*
X0126103Y0137988D01*
X0126321Y0138135D01*
X0126661Y0138195D01*
X0127001Y0138135D01*
X0127220Y0137988D01*
X0127646Y0137904D01*
X0128071Y0137988D01*
X0128290Y0138135D01*
X0128467Y0137869D01*
X0128994Y0137517D01*
X0129114Y0137494D01*
Y0139016D01*
X0130114D01*
Y0137494D01*
X0130235Y0137517D01*
X0130761Y0137869D01*
X0131112Y0138395D01*
X0131139Y0138528D01*
X0131543Y0138447D01*
X0131939Y0138526D01*
X0132439Y0138219D01*
Y0136191D01*
X0131583D01*
X0131157Y0136106D01*
X0130938Y0135960D01*
X0130761Y0136225D01*
X0130235Y0136577D01*
X0130114Y0136601D01*
Y0135079D01*
Y0133429D01*
X0130471Y0133183D01*
Y0133150D01*
X0130471Y0133150D01*
X0130555Y0132724D01*
X0130796Y0132363D01*
X0130909Y0132250D01*
X0131240Y0131917D01*
X0131240D01*
X0131240Y0131917D01*
Y0128638D01*
X0130740D01*
Y0126957D01*
X0133000D01*
Y0126457D01*
X0133500D01*
Y0124276D01*
X0135260D01*
X0135268Y0124197D01*
X0137028D01*
Y0126378D01*
X0138028D01*
Y0124197D01*
X0139787D01*
Y0126377D01*
X0140207Y0126744D01*
X0140315Y0126744D01*
X0140415Y0126703D01*
X0140618Y0126703D01*
X0142252Y0126703D01*
X0142353Y0126703D01*
X0142453Y0126744D01*
X0142561Y0126744D01*
X0142749Y0126822D01*
X0142825Y0126898D01*
X0142924Y0126939D01*
X0143069Y0127083D01*
X0143110Y0127183D01*
X0143186Y0127259D01*
X0143264Y0127447D01*
X0143264Y0127555D01*
X0143305Y0127654D01*
X0143305Y0127756D01*
X0143305Y0131968D01*
X0143554Y0132236D01*
X0143685Y0132307D01*
Y0134067D01*
X0142691D01*
X0142679Y0134032D01*
X0142673Y0133976D01*
Y0134067D01*
X0141504D01*
Y0135067D01*
X0142673D01*
Y0135158D01*
X0142679Y0135101D01*
X0142691Y0135067D01*
X0143685D01*
Y0136756D01*
X0143724D01*
Y0138042D01*
X0144186Y0138234D01*
X0145553Y0136867D01*
Y0134921D01*
X0145623Y0134573D01*
X0145820Y0134277D01*
X0147513Y0132584D01*
X0147809Y0132387D01*
X0148158Y0132317D01*
X0159968D01*
X0160317Y0132387D01*
X0160613Y0132584D01*
X0161921Y0133892D01*
X0171386D01*
X0171734Y0133961D01*
X0172030Y0134159D01*
X0172798Y0134926D01*
X0172995Y0135222D01*
X0173040Y0135447D01*
X0173088Y0135552D01*
X0173091Y0135637D01*
X0173623D01*
Y0139404D01*
X0174217D01*
X0175144Y0138477D01*
X0175146Y0138464D01*
X0175188Y0138433D01*
X0175198Y0138422D01*
X0175220Y0138367D01*
X0175354Y0138228D01*
X0175460Y0138108D01*
X0175544Y0138002D01*
X0175607Y0137911D01*
X0175648Y0137840D01*
X0175655Y0137825D01*
Y0135637D01*
X0178623D01*
Y0139589D01*
X0176926D01*
X0176878Y0139602D01*
X0176855Y0139589D01*
X0176699D01*
X0176655Y0139621D01*
X0176375Y0139862D01*
X0176209Y0140023D01*
X0176284Y0140509D01*
X0176301Y0140550D01*
X0178513D01*
Y0147743D01*
X0169639D01*
X0160765D01*
Y0145609D01*
X0160265Y0145402D01*
X0160101Y0145566D01*
X0159805Y0145763D01*
X0159457Y0145833D01*
X0153281D01*
X0153280Y0145834D01*
X0153101Y0146333D01*
X0160303Y0153534D01*
X0160765Y0153343D01*
Y0148743D01*
X0169639D01*
X0178513D01*
Y0155896D01*
X0178513Y0155936D01*
X0178608Y0156396D01*
X0179123D01*
Y0158373D01*
X0177139D01*
X0175155D01*
Y0156436D01*
X0175155Y0156396D01*
X0175060Y0155936D01*
X0171430D01*
X0170984Y0156423D01*
X0170987Y0156527D01*
X0171335Y0156865D01*
X0171370Y0156896D01*
X0173623D01*
Y0160849D01*
X0170655D01*
Y0159207D01*
X0170638Y0159174D01*
X0170633Y0159091D01*
X0170624Y0159034D01*
X0170608Y0158972D01*
X0170585Y0158906D01*
X0170552Y0158836D01*
X0170509Y0158760D01*
X0170456Y0158679D01*
X0170391Y0158593D01*
X0170315Y0158504D01*
X0170218Y0158402D01*
X0170197Y0158348D01*
X0169123Y0157274D01*
X0168623Y0157481D01*
Y0160849D01*
X0166926D01*
X0166878Y0160862D01*
X0166855Y0160849D01*
X0166699D01*
X0166655Y0160881D01*
X0166375Y0161122D01*
X0166209Y0161283D01*
X0166153Y0161305D01*
X0165633Y0161825D01*
X0165964Y0162201D01*
X0166242Y0161988D01*
X0166938Y0161700D01*
X0167685Y0161601D01*
X0168432Y0161700D01*
X0169129Y0161988D01*
X0169726Y0162447D01*
X0170185Y0163045D01*
X0170474Y0163741D01*
X0170572Y0164488D01*
X0170474Y0165235D01*
X0170185Y0165932D01*
X0169726Y0166530D01*
X0169129Y0166988D01*
X0168432Y0167277D01*
X0167685Y0167375D01*
D02*
G37*
G36*
X0179123Y0161349D02*
X0177639D01*
Y0159373D01*
X0179123D01*
Y0161349D01*
D02*
G37*
G36*
X0176639D02*
X0175155D01*
Y0159373D01*
X0176639D01*
Y0161349D01*
D02*
G37*
G36*
X0118449Y0158516D02*
X0117455D01*
X0117443Y0158481D01*
X0117437Y0158425D01*
Y0158516D01*
X0116768D01*
Y0156756D01*
X0118449D01*
Y0158516D01*
D02*
G37*
G36*
X0119272Y0152349D02*
X0119151Y0152325D01*
X0118787Y0152082D01*
X0118424Y0152325D01*
X0118303Y0152349D01*
Y0151171D01*
X0118319Y0151166D01*
X0118386Y0151153D01*
X0118460Y0151142D01*
X0118632Y0151127D01*
X0118804Y0151123D01*
X0118845Y0151123D01*
X0119115Y0151142D01*
X0119189Y0151153D01*
X0119256Y0151166D01*
X0119272Y0151171D01*
Y0152349D01*
D02*
G37*
G36*
X0121240D02*
X0121120Y0152325D01*
X0120756Y0152082D01*
X0120392Y0152325D01*
X0120272Y0152349D01*
Y0151171D01*
X0120288Y0151166D01*
X0120354Y0151153D01*
X0120429Y0151142D01*
X0120601Y0151127D01*
X0120773Y0151123D01*
X0120813Y0151123D01*
X0121083Y0151142D01*
X0121158Y0151153D01*
X0121224Y0151166D01*
X0121240Y0151171D01*
Y0152349D01*
D02*
G37*
G36*
X0117303D02*
X0117183Y0152325D01*
X0116656Y0151973D01*
X0116305Y0151447D01*
X0116281Y0151327D01*
X0117303D01*
Y0152349D01*
D02*
G37*
G36*
X0118131Y0150827D02*
X0117803D01*
Y0150499D01*
X0118131D01*
Y0150827D01*
D02*
G37*
G36*
X0114917Y0152114D02*
X0111555D01*
Y0149146D01*
X0111884D01*
X0111906Y0148831D01*
X0111908Y0148655D01*
X0111988Y0148468D01*
X0112066Y0148279D01*
X0112069Y0148277D01*
X0112070Y0148275D01*
X0112260Y0148198D01*
X0112449Y0148120D01*
X0114024D01*
X0114222Y0147661D01*
Y0147417D01*
X0114203Y0147323D01*
X0114318Y0146744D01*
X0114646Y0146253D01*
X0115137Y0145925D01*
X0115717Y0145809D01*
X0116296Y0145925D01*
X0116461Y0146035D01*
X0116656Y0145743D01*
X0116922Y0145566D01*
X0116776Y0145347D01*
X0116691Y0144921D01*
X0116776Y0144496D01*
X0117017Y0144135D01*
Y0143739D01*
X0116776Y0143378D01*
X0116691Y0142953D01*
X0116776Y0142527D01*
X0116922Y0142308D01*
X0116982Y0141969D01*
X0116922Y0141629D01*
X0116776Y0141410D01*
X0116713Y0141096D01*
X0116349Y0140957D01*
X0116212Y0140945D01*
X0116172Y0141006D01*
X0115561Y0141617D01*
X0115298Y0141792D01*
X0114988Y0141854D01*
X0114555D01*
X0114498Y0141880D01*
X0114406Y0141882D01*
Y0142528D01*
X0111043D01*
Y0139559D01*
X0114406D01*
X0114788Y0139274D01*
Y0139252D01*
X0114849Y0138942D01*
X0115025Y0138679D01*
X0116450Y0137254D01*
X0116472Y0137195D01*
X0116601Y0137060D01*
X0116691Y0136953D01*
X0116717Y0136919D01*
X0116776Y0136622D01*
X0116922Y0136403D01*
X0116656Y0136225D01*
X0116305Y0135699D01*
X0116281Y0135579D01*
X0117803D01*
Y0135079D01*
X0118303D01*
Y0133307D01*
X0118429Y0133072D01*
X0116876Y0131518D01*
X0116741Y0131317D01*
X0116335Y0131090D01*
X0111004D01*
Y0122610D01*
X0116335D01*
Y0125736D01*
X0116427Y0125739D01*
X0116484Y0125764D01*
X0116701D01*
X0117011Y0125826D01*
X0117274Y0126001D01*
X0118022Y0126750D01*
X0118167Y0126967D01*
X0118433Y0126991D01*
X0118699Y0126967D01*
X0118844Y0126750D01*
X0119316Y0126277D01*
X0119316Y0126277D01*
X0119580Y0126101D01*
X0119890Y0126040D01*
X0119890Y0126040D01*
X0120697D01*
X0120754Y0126014D01*
X0120846Y0126012D01*
Y0122610D01*
X0126177D01*
Y0130405D01*
X0126677Y0130673D01*
X0126712Y0130649D01*
X0127291Y0130534D01*
X0127871Y0130649D01*
X0128361Y0130977D01*
X0128690Y0131468D01*
X0128805Y0132047D01*
X0128691Y0132619D01*
X0128692Y0132651D01*
X0128646Y0132768D01*
X0128636Y0132803D01*
X0128608Y0132925D01*
X0128601Y0132971D01*
X0128582Y0133206D01*
X0128581Y0133255D01*
X0128806Y0133480D01*
X0128841Y0133499D01*
X0129057Y0133568D01*
X0129114Y0133556D01*
Y0135079D01*
Y0136601D01*
X0128994Y0136577D01*
X0128467Y0136225D01*
X0128290Y0135960D01*
X0128071Y0136106D01*
X0127646Y0136191D01*
X0127220Y0136106D01*
X0127001Y0135960D01*
X0126661Y0135900D01*
X0126321Y0135960D01*
X0126103Y0136106D01*
X0125677Y0136191D01*
X0125252Y0136106D01*
X0124891Y0135865D01*
X0124495D01*
X0124134Y0136106D01*
X0123709Y0136191D01*
X0123283Y0136106D01*
X0122922Y0135865D01*
X0122526D01*
X0122166Y0136106D01*
X0121740Y0136191D01*
X0121315Y0136106D01*
X0121096Y0135960D01*
X0120756Y0135900D01*
X0120416Y0135960D01*
X0120197Y0136106D01*
X0119772Y0136191D01*
X0119346Y0136106D01*
X0119127Y0135960D01*
X0118950Y0136225D01*
X0118684Y0136403D01*
X0118830Y0136622D01*
X0118915Y0137047D01*
X0118830Y0137473D01*
X0118684Y0137691D01*
X0118624Y0138031D01*
X0118684Y0138372D01*
X0118830Y0138590D01*
X0118915Y0139016D01*
X0118830Y0139441D01*
X0118589Y0139802D01*
Y0140198D01*
X0118830Y0140559D01*
X0118915Y0140984D01*
X0118830Y0141410D01*
X0118684Y0141629D01*
X0118624Y0141969D01*
X0118684Y0142308D01*
X0118830Y0142527D01*
X0118915Y0142953D01*
X0118830Y0143378D01*
X0118589Y0143739D01*
Y0144135D01*
X0118830Y0144496D01*
X0118915Y0144921D01*
X0118830Y0145347D01*
X0118684Y0145566D01*
X0118950Y0145743D01*
X0119301Y0146269D01*
X0119325Y0146390D01*
X0117803D01*
Y0147218D01*
X0117385D01*
X0117408Y0147253D01*
X0117429Y0147296D01*
X0117448Y0147347D01*
X0117464Y0147406D01*
X0117477Y0147472D01*
X0117488Y0147547D01*
X0117503Y0147719D01*
X0117507Y0147891D01*
X0117507Y0147931D01*
X0117488Y0148201D01*
X0117477Y0148276D01*
X0117464Y0148342D01*
X0117448Y0148401D01*
X0117429Y0148452D01*
X0117408Y0148495D01*
X0117385Y0148530D01*
X0118221D01*
X0118198Y0148495D01*
X0118177Y0148452D01*
X0118159Y0148401D01*
X0118143Y0148342D01*
X0118129Y0148276D01*
X0118118Y0148201D01*
X0118103Y0148029D01*
X0118099Y0147857D01*
X0118100Y0147817D01*
X0118118Y0147547D01*
X0118129Y0147472D01*
X0118143Y0147406D01*
X0118147Y0147390D01*
X0119325D01*
X0119301Y0147510D01*
X0119058Y0147874D01*
X0119301Y0148238D01*
X0119425Y0148858D01*
X0119772Y0149205D01*
X0120392Y0149328D01*
X0120756Y0149572D01*
X0121120Y0149328D01*
X0121240Y0149304D01*
Y0150483D01*
X0121224Y0150487D01*
X0121158Y0150501D01*
X0121083Y0150512D01*
X0120911Y0150527D01*
X0120739Y0150531D01*
X0120698Y0150530D01*
X0120429Y0150512D01*
X0120354Y0150501D01*
X0120288Y0150487D01*
X0120229Y0150471D01*
X0120178Y0150453D01*
X0120135Y0150432D01*
X0120099Y0150408D01*
Y0150827D01*
X0119444D01*
Y0150408D01*
X0119409Y0150432D01*
X0119365Y0150453D01*
X0119314Y0150471D01*
X0119256Y0150487D01*
X0119189Y0150501D01*
X0119115Y0150512D01*
X0118943Y0150527D01*
X0118771Y0150531D01*
X0118730Y0150530D01*
X0118460Y0150512D01*
X0118386Y0150501D01*
X0118319Y0150487D01*
X0118260Y0150471D01*
X0118209Y0150453D01*
X0118188Y0150442D01*
X0118177Y0150420D01*
X0118159Y0150370D01*
X0118143Y0150311D01*
X0118129Y0150244D01*
X0118118Y0150170D01*
X0118103Y0149998D01*
X0118099Y0149826D01*
X0118100Y0149785D01*
X0118118Y0149515D01*
X0118129Y0149441D01*
X0118143Y0149374D01*
X0118159Y0149316D01*
X0118177Y0149265D01*
X0118198Y0149221D01*
X0118221Y0149186D01*
X0117385D01*
X0117408Y0149221D01*
X0117429Y0149265D01*
X0117448Y0149316D01*
X0117464Y0149374D01*
X0117477Y0149441D01*
X0117488Y0149515D01*
X0117503Y0149687D01*
X0117507Y0149859D01*
X0117507Y0149900D01*
X0117488Y0150170D01*
X0117477Y0150244D01*
X0117464Y0150311D01*
X0117459Y0150327D01*
X0116234D01*
X0115822Y0150097D01*
X0114917Y0151002D01*
Y0152114D01*
D02*
G37*
G36*
X0121240Y0148412D02*
X0121120Y0148388D01*
X0120593Y0148037D01*
X0120242Y0147510D01*
X0120218Y0147390D01*
X0121240D01*
Y0148412D01*
D02*
G37*
G36*
X0121396Y0142453D02*
X0120218D01*
X0120242Y0142332D01*
X0120485Y0141969D01*
X0120242Y0141605D01*
X0120218Y0141484D01*
X0121396D01*
X0121401Y0141500D01*
X0121414Y0141567D01*
X0121425Y0141641D01*
X0121440Y0141813D01*
X0121444Y0141985D01*
X0121444Y0142026D01*
X0121425Y0142296D01*
X0121414Y0142370D01*
X0121401Y0142437D01*
X0121396Y0142453D01*
D02*
G37*
G36*
Y0140484D02*
X0120218D01*
X0120242Y0140364D01*
X0120485Y0140000D01*
X0120242Y0139636D01*
X0120218Y0139516D01*
X0121396D01*
X0121401Y0139532D01*
X0121414Y0139598D01*
X0121425Y0139673D01*
X0121440Y0139845D01*
X0121444Y0140017D01*
X0121444Y0140057D01*
X0121425Y0140327D01*
X0121414Y0140402D01*
X0121401Y0140468D01*
X0121396Y0140484D01*
D02*
G37*
G36*
X0122068Y0139344D02*
X0121740D01*
Y0139016D01*
X0122068D01*
Y0139344D01*
D02*
G37*
G36*
X0122707Y0138720D02*
X0122667Y0138719D01*
X0122397Y0138701D01*
X0122323Y0138690D01*
X0122256Y0138676D01*
X0122240Y0138672D01*
Y0137494D01*
X0122361Y0137517D01*
X0122724Y0137760D01*
X0123088Y0137517D01*
X0123209Y0137494D01*
Y0138672D01*
X0123193Y0138676D01*
X0123126Y0138690D01*
X0123052Y0138701D01*
X0122880Y0138716D01*
X0122707Y0138720D01*
D02*
G37*
G36*
X0121240Y0138516D02*
X0120218D01*
X0120242Y0138395D01*
X0120593Y0137869D01*
X0121120Y0137517D01*
X0121240Y0137494D01*
Y0138516D01*
D02*
G37*
G36*
X0117303Y0134579D02*
X0116281D01*
X0116305Y0134458D01*
X0116656Y0133932D01*
X0117183Y0133581D01*
X0117303Y0133556D01*
Y0134579D01*
D02*
G37*
G36*
X0114406Y0138591D02*
X0111043D01*
Y0136240D01*
X0111017Y0136192D01*
X0111026Y0136162D01*
X0111014Y0136134D01*
X0111043Y0136064D01*
Y0135622D01*
X0111450D01*
X0111497Y0135596D01*
X0111504Y0135595D01*
X0111527Y0135538D01*
X0111552Y0135442D01*
X0111573Y0135311D01*
X0111588Y0135147D01*
X0111592Y0134960D01*
X0111592Y0134903D01*
X0111585Y0134735D01*
X0111573Y0134616D01*
X0111568Y0134589D01*
X0111565Y0134577D01*
X0111558Y0134557D01*
X0111559Y0134549D01*
X0111326Y0134201D01*
X0111211Y0133622D01*
X0111326Y0133043D01*
X0111654Y0132552D01*
X0112145Y0132224D01*
X0112724Y0132109D01*
X0113303Y0132224D01*
X0113795Y0132552D01*
X0114122Y0133043D01*
X0114238Y0133622D01*
X0114122Y0134201D01*
X0113890Y0134549D01*
X0113890Y0134557D01*
X0113883Y0134577D01*
X0113881Y0134589D01*
X0113878Y0134607D01*
X0113857Y0134910D01*
X0113856Y0134960D01*
X0113861Y0135147D01*
X0113875Y0135311D01*
X0113897Y0135442D01*
X0113922Y0135538D01*
X0113945Y0135595D01*
X0113951Y0135596D01*
X0113999Y0135622D01*
X0114406D01*
Y0136064D01*
X0114435Y0136134D01*
X0114423Y0136162D01*
X0114432Y0136192D01*
X0114406Y0136240D01*
Y0138591D01*
D02*
G37*
G36*
X0132500Y0125957D02*
X0130740D01*
Y0124276D01*
X0132500D01*
Y0125957D01*
D02*
G37*
%LPD*%
G36*
X0140762Y0184803D02*
X0140779Y0184602D01*
X0140808Y0184425D01*
X0140849Y0184272D01*
X0140901Y0184142D01*
X0140964Y0184035D01*
X0141039Y0183952D01*
X0141126Y0183894D01*
X0141225Y0183858D01*
X0141334Y0183846D01*
X0138996D01*
X0139106Y0183858D01*
X0139205Y0183894D01*
X0139291Y0183952D01*
X0139366Y0184035D01*
X0139430Y0184142D01*
X0139482Y0184272D01*
X0139523Y0184425D01*
X0139552Y0184602D01*
X0139569Y0184803D01*
X0139575Y0185027D01*
X0140756D01*
X0140762Y0184803D01*
D02*
G37*
G36*
X0139008Y0181417D02*
X0138996Y0181529D01*
X0138961Y0181630D01*
X0138901Y0181719D01*
X0138817Y0181795D01*
X0138710Y0181860D01*
X0138579Y0181913D01*
X0138424Y0181955D01*
X0138245Y0181984D01*
X0138042Y0182002D01*
X0137990Y0182003D01*
X0137622Y0181974D01*
X0137468Y0181947D01*
X0137338Y0181912D01*
X0137232Y0181870D01*
X0137149Y0181821D01*
X0137090Y0181764D01*
X0137055Y0181699D01*
X0137043Y0181626D01*
Y0183571D01*
X0137055Y0183498D01*
X0137090Y0183433D01*
X0137149Y0183376D01*
X0137232Y0183326D01*
X0137338Y0183284D01*
X0137468Y0183250D01*
X0137622Y0183223D01*
X0137799Y0183204D01*
X0138047Y0183195D01*
X0138245Y0183213D01*
X0138424Y0183242D01*
X0138579Y0183283D01*
X0138710Y0183337D01*
X0138817Y0183402D01*
X0138901Y0183478D01*
X0138961Y0183567D01*
X0138996Y0183667D01*
X0139008Y0183780D01*
Y0181417D01*
D02*
G37*
G36*
X0133187Y0181339D02*
X0133105Y0181336D01*
X0133024Y0181326D01*
X0132944Y0181309D01*
X0132866Y0181285D01*
X0132789Y0181253D01*
X0132712Y0181215D01*
X0132637Y0181169D01*
X0132564Y0181116D01*
X0132491Y0181056D01*
X0132420Y0180989D01*
X0131863Y0181546D01*
X0131930Y0181617D01*
X0131990Y0181690D01*
X0132043Y0181763D01*
X0132089Y0181838D01*
X0132127Y0181914D01*
X0132159Y0181992D01*
X0132183Y0182070D01*
X0132200Y0182150D01*
X0132210Y0182231D01*
X0132213Y0182313D01*
X0133187Y0181339D01*
D02*
G37*
G36*
X0122287Y0180331D02*
X0122189Y0180248D01*
X0122102Y0180110D01*
X0122027Y0179918D01*
X0121964Y0179669D01*
X0121912Y0179366D01*
X0121871Y0179008D01*
X0121825Y0178126D01*
X0121819Y0177603D01*
X0119063D01*
X0119057Y0178126D01*
X0118970Y0179366D01*
X0118918Y0179669D01*
X0118855Y0179918D01*
X0118780Y0180110D01*
X0118693Y0180248D01*
X0118594Y0180331D01*
X0118484Y0180358D01*
X0122397D01*
X0122287Y0180331D01*
D02*
G37*
G36*
X0145130Y0179231D02*
X0145177Y0179153D01*
X0145256Y0179084D01*
X0145366Y0179024D01*
X0145508Y0178973D01*
X0145681Y0178932D01*
X0145886Y0178900D01*
X0146110Y0178878D01*
X0146579Y0178910D01*
X0146752Y0178939D01*
X0146894Y0178974D01*
X0147004Y0179016D01*
X0147083Y0179065D01*
X0147130Y0179120D01*
X0147146Y0179181D01*
Y0176961D01*
X0147130Y0177022D01*
X0147083Y0177077D01*
X0147004Y0177125D01*
X0146894Y0177167D01*
X0146752Y0177203D01*
X0146579Y0177232D01*
X0146374Y0177254D01*
X0146187Y0177264D01*
X0145886Y0177242D01*
X0145681Y0177210D01*
X0145508Y0177168D01*
X0145366Y0177118D01*
X0145256Y0177058D01*
X0145177Y0176989D01*
X0145130Y0176910D01*
X0145114Y0176823D01*
Y0179319D01*
X0145130Y0179231D01*
D02*
G37*
G36*
X0136933Y0177677D02*
X0136835Y0177642D01*
X0136748Y0177583D01*
X0136673Y0177500D01*
X0136609Y0177394D01*
X0136557Y0177264D01*
X0136517Y0177110D01*
X0136488Y0176933D01*
X0136470Y0176732D01*
X0136465Y0176508D01*
X0135283D01*
X0135278Y0176732D01*
X0135260Y0176933D01*
X0135231Y0177110D01*
X0135191Y0177264D01*
X0135139Y0177394D01*
X0135075Y0177500D01*
X0135000Y0177583D01*
X0134913Y0177642D01*
X0134815Y0177677D01*
X0134705Y0177689D01*
X0137043D01*
X0136933Y0177677D01*
D02*
G37*
G36*
X0151595Y0173122D02*
X0151575Y0173172D01*
X0151516Y0173217D01*
X0151418Y0173257D01*
X0151280Y0173291D01*
X0151102Y0173320D01*
X0150886Y0173344D01*
X0150669Y0173353D01*
X0149583Y0173284D01*
X0149563Y0173260D01*
Y0175480D01*
X0149583Y0175456D01*
X0149642Y0175435D01*
X0149740Y0175416D01*
X0149878Y0175400D01*
X0150256Y0175375D01*
X0151280Y0175449D01*
X0151418Y0175484D01*
X0151516Y0175523D01*
X0151575Y0175568D01*
X0151595Y0175618D01*
Y0173122D01*
D02*
G37*
G36*
X0135031Y0175207D02*
X0135056Y0175205D01*
X0135226Y0175200D01*
X0135835Y0175197D01*
Y0173622D01*
X0135023Y0173610D01*
Y0175209D01*
X0135031Y0175207D01*
D02*
G37*
G36*
X0147146Y0173260D02*
X0147126Y0173284D01*
X0147067Y0173305D01*
X0146969Y0173324D01*
X0146831Y0173340D01*
X0146437Y0173366D01*
X0145177Y0173386D01*
Y0175354D01*
X0145551Y0175356D01*
X0147126Y0175456D01*
X0147146Y0175480D01*
Y0173260D01*
D02*
G37*
G36*
X0134401Y0169494D02*
X0134350Y0169477D01*
X0134306Y0169447D01*
X0134268Y0169406D01*
X0134235Y0169352D01*
X0134209Y0169288D01*
X0134188Y0169211D01*
X0134173Y0169122D01*
X0134164Y0169022D01*
X0134161Y0168910D01*
X0133571D01*
X0133568Y0169022D01*
X0133559Y0169122D01*
X0133544Y0169211D01*
X0133524Y0169288D01*
X0133497Y0169352D01*
X0133465Y0169406D01*
X0133426Y0169447D01*
X0133382Y0169477D01*
X0133332Y0169494D01*
X0133276Y0169500D01*
X0134457D01*
X0134401Y0169494D01*
D02*
G37*
G36*
X0149732Y0172384D02*
X0149753Y0171959D01*
X0149814Y0171536D01*
X0149917Y0171114D01*
X0150060Y0170693D01*
X0150245Y0170273D01*
X0150470Y0169855D01*
X0150737Y0169439D01*
X0151044Y0169024D01*
X0151393Y0168610D01*
X0151782Y0168198D01*
X0144893Y0168281D01*
X0145289Y0168681D01*
X0145643Y0169084D01*
X0145955Y0169490D01*
X0146226Y0169900D01*
X0146456Y0170312D01*
X0146643Y0170727D01*
X0146789Y0171146D01*
X0146893Y0171567D01*
X0146956Y0171992D01*
X0146976Y0172419D01*
X0149732Y0172384D01*
D02*
G37*
G36*
X0134161Y0168387D02*
X0134165Y0168305D01*
X0134174Y0168221D01*
X0134189Y0168136D01*
X0134210Y0168048D01*
X0134238Y0167959D01*
X0134272Y0167868D01*
X0134357Y0167680D01*
X0134409Y0167584D01*
X0134467Y0167485D01*
X0133130Y0167816D01*
X0133214Y0167870D01*
X0133289Y0167929D01*
X0133355Y0167991D01*
X0133412Y0168057D01*
X0133461Y0168128D01*
X0133500Y0168202D01*
X0133531Y0168281D01*
X0133553Y0168364D01*
X0133566Y0168451D01*
X0133571Y0168542D01*
X0134161Y0168387D01*
D02*
G37*
G36*
X0132137Y0164623D02*
X0132146Y0164529D01*
X0132160Y0164440D01*
X0132181Y0164354D01*
X0132208Y0164273D01*
X0132240Y0164196D01*
X0132279Y0164124D01*
X0132323Y0164055D01*
X0132373Y0163991D01*
X0132429Y0163931D01*
X0131051D01*
X0131107Y0163991D01*
X0131157Y0164055D01*
X0131202Y0164124D01*
X0131240Y0164196D01*
X0131273Y0164273D01*
X0131299Y0164354D01*
X0131320Y0164440D01*
X0131335Y0164529D01*
X0131343Y0164623D01*
X0131346Y0164721D01*
X0132134D01*
X0132137Y0164623D01*
D02*
G37*
G36*
X0132503Y0163861D02*
X0132567Y0163811D01*
X0132636Y0163767D01*
X0132708Y0163728D01*
X0132785Y0163696D01*
X0132866Y0163669D01*
X0132951Y0163648D01*
X0133041Y0163634D01*
X0133135Y0163625D01*
X0133233Y0163622D01*
Y0162835D01*
X0133135Y0162832D01*
X0133041Y0162823D01*
X0132951Y0162808D01*
X0132866Y0162787D01*
X0132785Y0162761D01*
X0132708Y0162728D01*
X0132636Y0162690D01*
X0132567Y0162646D01*
X0132503Y0162595D01*
X0132443Y0162539D01*
Y0163917D01*
X0132503Y0163861D01*
D02*
G37*
G36*
X0134618Y0162198D02*
X0134630Y0162062D01*
X0134650Y0161943D01*
X0134677Y0161839D01*
X0134713Y0161751D01*
X0134756Y0161679D01*
X0134807Y0161623D01*
X0134866Y0161583D01*
X0134933Y0161559D01*
X0135008Y0161551D01*
X0133433D01*
X0133508Y0161559D01*
X0133575Y0161583D01*
X0133634Y0161623D01*
X0133685Y0161679D01*
X0133728Y0161751D01*
X0133764Y0161839D01*
X0133791Y0161943D01*
X0133811Y0162062D01*
X0133823Y0162198D01*
X0133827Y0162350D01*
X0134614D01*
X0134618Y0162198D01*
D02*
G37*
G36*
X0113468Y0162205D02*
X0113386Y0162170D01*
X0113314Y0162110D01*
X0113252Y0162028D01*
X0113199Y0161921D01*
X0113155Y0161792D01*
X0113122Y0161638D01*
X0113098Y0161461D01*
X0113084Y0161260D01*
X0113084Y0161259D01*
X0113084Y0161220D01*
X0113102Y0161020D01*
X0113131Y0160842D01*
X0113171Y0160689D01*
X0113223Y0160559D01*
X0113287Y0160453D01*
X0113362Y0160370D01*
X0113449Y0160311D01*
X0113547Y0160275D01*
X0113657Y0160264D01*
X0111319D01*
X0111429Y0160275D01*
X0111527Y0160311D01*
X0111614Y0160370D01*
X0111689Y0160453D01*
X0111753Y0160559D01*
X0111805Y0160689D01*
X0111846Y0160842D01*
X0111874Y0161020D01*
X0111892Y0161220D01*
X0111892Y0161244D01*
X0111892Y0161260D01*
X0111875Y0161461D01*
X0111847Y0161638D01*
X0111808Y0161792D01*
X0111758Y0161921D01*
X0111696Y0162028D01*
X0111624Y0162110D01*
X0111540Y0162170D01*
X0111445Y0162205D01*
X0111339Y0162217D01*
X0113559D01*
X0113468Y0162205D01*
D02*
G37*
G36*
X0113152Y0157773D02*
X0113137Y0157752D01*
X0113123Y0157718D01*
X0113111Y0157669D01*
X0113101Y0157607D01*
X0113087Y0157440D01*
X0113080Y0157218D01*
X0113079Y0157087D01*
X0111898D01*
X0111897Y0157218D01*
X0111865Y0157669D01*
X0111853Y0157718D01*
X0111840Y0157752D01*
X0111824Y0157773D01*
X0111807Y0157780D01*
X0113170D01*
X0113152Y0157773D01*
D02*
G37*
G36*
X0113829Y0156187D02*
X0113860Y0155827D01*
X0113879Y0155739D01*
X0113902Y0155667D01*
X0113929Y0155611D01*
X0113960Y0155571D01*
X0113996Y0155547D01*
X0114036Y0155539D01*
X0112437D01*
X0112477Y0155547D01*
X0112512Y0155571D01*
X0112543Y0155611D01*
X0112571Y0155667D01*
X0112593Y0155739D01*
X0112612Y0155827D01*
X0112627Y0155931D01*
X0112637Y0156051D01*
X0112646Y0156339D01*
X0113827D01*
X0113829Y0156187D01*
D02*
G37*
G36*
X0165458Y0163701D02*
X0165424Y0163776D01*
X0165378Y0163842D01*
X0165319Y0163902D01*
X0165249Y0163953D01*
X0165166Y0163996D01*
X0165071Y0164032D01*
X0164964Y0164059D01*
X0164844Y0164079D01*
X0164712Y0164091D01*
X0164568Y0164094D01*
Y0164882D01*
X0164712Y0164886D01*
X0164844Y0164898D01*
X0164964Y0164917D01*
X0165071Y0164945D01*
X0165166Y0164980D01*
X0165249Y0165024D01*
X0165319Y0165075D01*
X0165378Y0165134D01*
X0165424Y0165201D01*
X0165458Y0165276D01*
Y0163701D01*
D02*
G37*
G36*
X0166009Y0160722D02*
X0166320Y0160455D01*
X0166454Y0160360D01*
X0166572Y0160290D01*
X0166676Y0160246D01*
X0166766Y0160227D01*
X0166840Y0160234D01*
X0166900Y0160267D01*
X0166946Y0160325D01*
X0166179Y0158889D01*
X0166207Y0158964D01*
X0166217Y0159047D01*
X0166207Y0159139D01*
X0166179Y0159238D01*
X0166131Y0159345D01*
X0166065Y0159460D01*
X0165980Y0159584D01*
X0165875Y0159715D01*
X0165752Y0159855D01*
X0165610Y0160003D01*
X0165832Y0160894D01*
X0166009Y0160722D01*
D02*
G37*
G36*
X0171167Y0157408D02*
X0171161Y0157415D01*
X0171144Y0157409D01*
X0171116Y0157391D01*
X0171078Y0157360D01*
X0170966Y0157261D01*
X0170610Y0156915D01*
Y0158029D01*
X0170717Y0158142D01*
X0170813Y0158254D01*
X0170898Y0158366D01*
X0170972Y0158478D01*
X0171035Y0158590D01*
X0171086Y0158701D01*
X0171126Y0158812D01*
X0171155Y0158922D01*
X0171172Y0159032D01*
X0171179Y0159142D01*
X0171167Y0157408D01*
D02*
G37*
G36*
X0133615Y0150299D02*
X0133574Y0150291D01*
X0133528Y0150275D01*
X0133479Y0150252D01*
X0133426Y0150222D01*
X0133370Y0150184D01*
X0133309Y0150140D01*
X0133177Y0150028D01*
X0133030Y0149888D01*
X0132612Y0150305D01*
X0132686Y0150381D01*
X0132864Y0150585D01*
X0132909Y0150645D01*
X0132946Y0150702D01*
X0132976Y0150755D01*
X0132999Y0150804D01*
X0133015Y0150849D01*
X0133024Y0150891D01*
X0133615Y0150299D01*
D02*
G37*
G36*
X0138163Y0148971D02*
X0138086Y0149000D01*
X0138006Y0149014D01*
X0137923Y0149015D01*
X0137837Y0149001D01*
X0137748Y0148973D01*
X0137656Y0148931D01*
X0137560Y0148875D01*
X0137462Y0148804D01*
X0137360Y0148719D01*
X0137256Y0148620D01*
X0136699Y0149177D01*
X0136798Y0149282D01*
X0136883Y0149383D01*
X0136953Y0149481D01*
X0137010Y0149577D01*
X0137052Y0149669D01*
X0137080Y0149758D01*
X0137094Y0149844D01*
X0137093Y0149927D01*
X0137078Y0150007D01*
X0137049Y0150084D01*
X0138163Y0148971D01*
D02*
G37*
G36*
X0133906Y0149261D02*
X0133932Y0149259D01*
X0134293Y0149253D01*
X0134696Y0149252D01*
Y0148465D01*
X0133896Y0148453D01*
Y0149263D01*
X0133906Y0149261D01*
D02*
G37*
G36*
X0125592Y0148372D02*
X0125578Y0148329D01*
X0125566Y0148277D01*
X0125556Y0148218D01*
X0125540Y0148074D01*
X0125531Y0147897D01*
X0125528Y0147688D01*
X0124740Y0147433D01*
X0124738Y0147511D01*
X0124730Y0147582D01*
X0124717Y0147646D01*
X0124699Y0147704D01*
X0124676Y0147754D01*
X0124648Y0147798D01*
X0124615Y0147835D01*
X0124577Y0147865D01*
X0124534Y0147889D01*
X0124485Y0147906D01*
X0125607Y0148407D01*
X0125592Y0148372D01*
D02*
G37*
G36*
X0145003Y0147746D02*
X0144936Y0147674D01*
X0144876Y0147602D01*
X0144823Y0147528D01*
X0144777Y0147453D01*
X0144739Y0147377D01*
X0144707Y0147300D01*
X0144683Y0147221D01*
X0144666Y0147141D01*
X0144656Y0147060D01*
X0144653Y0146978D01*
X0143679Y0147953D01*
X0143761Y0147955D01*
X0143842Y0147965D01*
X0143922Y0147982D01*
X0144000Y0148007D01*
X0144078Y0148038D01*
X0144154Y0148077D01*
X0144229Y0148122D01*
X0144302Y0148175D01*
X0144375Y0148235D01*
X0144446Y0148302D01*
X0145003Y0147746D01*
D02*
G37*
G36*
X0133906Y0147292D02*
X0133932Y0147291D01*
X0134293Y0147284D01*
X0134696Y0147283D01*
Y0146496D01*
X0133896Y0146485D01*
Y0147294D01*
X0133906Y0147292D01*
D02*
G37*
G36*
X0147424Y0147483D02*
X0147488Y0147433D01*
X0147557Y0147389D01*
X0147630Y0147350D01*
X0147706Y0147318D01*
X0147787Y0147291D01*
X0147873Y0147271D01*
X0147962Y0147256D01*
X0148056Y0147247D01*
X0148154Y0147244D01*
Y0146457D01*
X0148056Y0146454D01*
X0147962Y0146445D01*
X0147873Y0146430D01*
X0147787Y0146409D01*
X0147706Y0146383D01*
X0147630Y0146350D01*
X0147557Y0146312D01*
X0147488Y0146268D01*
X0147424Y0146218D01*
X0147364Y0146161D01*
Y0147539D01*
X0147424Y0147483D01*
D02*
G37*
G36*
X0133906Y0145324D02*
X0133932Y0145322D01*
X0134293Y0145316D01*
X0134696Y0145315D01*
Y0144527D01*
X0133896Y0144517D01*
Y0145326D01*
X0133906Y0145324D01*
D02*
G37*
G36*
X0123381Y0144503D02*
X0123345Y0144526D01*
X0123302Y0144547D01*
X0123251Y0144566D01*
X0123193Y0144582D01*
X0123126Y0144595D01*
X0123052Y0144606D01*
X0122880Y0144621D01*
X0122676Y0144626D01*
Y0145217D01*
X0122782Y0145218D01*
X0123052Y0145236D01*
X0123126Y0145247D01*
X0123193Y0145261D01*
X0123251Y0145277D01*
X0123302Y0145295D01*
X0123345Y0145316D01*
X0123381Y0145340D01*
Y0144503D01*
D02*
G37*
G36*
X0127710Y0144394D02*
X0127668Y0144385D01*
X0127623Y0144369D01*
X0127574Y0144346D01*
X0127521Y0144316D01*
X0127464Y0144279D01*
X0127404Y0144234D01*
X0127272Y0144123D01*
X0127124Y0143982D01*
X0126707Y0144400D01*
X0126781Y0144475D01*
X0126959Y0144679D01*
X0127003Y0144740D01*
X0127041Y0144797D01*
X0127071Y0144849D01*
X0127094Y0144898D01*
X0127110Y0144944D01*
X0127118Y0144985D01*
X0127710Y0144394D01*
D02*
G37*
G36*
X0126567Y0143425D02*
X0126513Y0143368D01*
X0126407Y0143239D01*
X0126356Y0143167D01*
X0126256Y0143009D01*
X0126159Y0142832D01*
X0126066Y0142635D01*
X0125592Y0143919D01*
X0125677Y0143883D01*
X0125759Y0143858D01*
X0125841Y0143844D01*
X0125920Y0143841D01*
X0125998Y0143849D01*
X0126074Y0143868D01*
X0126148Y0143898D01*
X0126220Y0143939D01*
X0126291Y0143991D01*
X0126360Y0144053D01*
X0126567Y0143425D01*
D02*
G37*
G36*
X0133906Y0143355D02*
X0133932Y0143353D01*
X0134293Y0143347D01*
X0134696Y0143347D01*
Y0142559D01*
X0133896Y0142548D01*
Y0143358D01*
X0133906Y0143355D01*
D02*
G37*
G36*
X0130871Y0141192D02*
X0131065Y0141029D01*
X0131121Y0140991D01*
X0131174Y0140962D01*
X0131222Y0140940D01*
X0131267Y0140927D01*
X0131307Y0140921D01*
X0131344Y0140925D01*
X0130579Y0140160D01*
X0130582Y0140196D01*
X0130577Y0140237D01*
X0130564Y0140281D01*
X0130542Y0140330D01*
X0130513Y0140383D01*
X0130475Y0140439D01*
X0130429Y0140500D01*
X0130312Y0140633D01*
X0130241Y0140706D01*
X0130798Y0141263D01*
X0130871Y0141192D01*
D02*
G37*
G36*
X0159175Y0143914D02*
Y0141339D01*
X0159245Y0140990D01*
X0159442Y0140694D01*
X0160296Y0139841D01*
X0160104Y0139325D01*
X0159550Y0139285D01*
X0159193Y0139281D01*
X0159165Y0139269D01*
X0156773D01*
X0156747Y0139281D01*
X0156057Y0139305D01*
X0155798Y0139332D01*
X0155581Y0139369D01*
X0155417Y0139411D01*
X0155309Y0139452D01*
X0155280Y0139470D01*
X0155272Y0139482D01*
Y0139870D01*
X0154830D01*
X0154760Y0139899D01*
X0154716Y0139881D01*
X0154670Y0139892D01*
X0154635Y0139870D01*
X0152334D01*
X0152264Y0139899D01*
X0152193Y0139870D01*
X0151752D01*
Y0139745D01*
X0151281Y0139716D01*
X0150784Y0139831D01*
X0150418Y0139840D01*
X0150343Y0139831D01*
X0150342D01*
X0150271Y0139860D01*
X0150201Y0139831D01*
X0147264D01*
Y0138441D01*
X0146764Y0138233D01*
X0145250Y0139748D01*
Y0140551D01*
X0145180Y0140900D01*
X0144983Y0141195D01*
X0142668Y0143510D01*
X0142752Y0143849D01*
X0142861Y0144010D01*
X0159079D01*
X0159175Y0143914D01*
D02*
G37*
G36*
X0152264Y0137020D02*
X0152244Y0137048D01*
X0152185Y0137072D01*
X0152087Y0137094D01*
X0151949Y0137113D01*
X0151555Y0137142D01*
X0151531Y0137143D01*
X0150449Y0137075D01*
X0150350Y0137047D01*
X0150291Y0137016D01*
X0150271Y0136980D01*
X0150206Y0136967D01*
X0150148Y0136925D01*
X0150097Y0136855D01*
X0150052Y0136758D01*
X0150015Y0136633D01*
X0149984Y0136480D01*
X0149960Y0136299D01*
X0149933Y0135855D01*
X0149929Y0135591D01*
X0147961D01*
X0147959Y0135855D01*
X0147894Y0136758D01*
X0147870Y0136855D01*
X0147842Y0136925D01*
X0147811Y0136967D01*
X0147776Y0136980D01*
X0150271D01*
Y0139319D01*
X0150291Y0139284D01*
X0150350Y0139252D01*
X0150449Y0139224D01*
X0150586Y0139200D01*
X0150764Y0139180D01*
X0151105Y0139163D01*
X0151949Y0139215D01*
X0152087Y0139244D01*
X0152185Y0139277D01*
X0152244Y0139315D01*
X0152264Y0139358D01*
Y0137020D01*
D02*
G37*
G36*
X0166179Y0138011D02*
X0166213Y0138000D01*
X0166298Y0137979D01*
X0166388Y0137965D01*
X0166481Y0137956D01*
X0166579Y0137953D01*
Y0137165D01*
X0166481Y0137162D01*
X0166388Y0137153D01*
X0166298Y0137139D01*
X0166213Y0137118D01*
X0166179Y0137107D01*
Y0136772D01*
X0166171Y0136846D01*
X0166147Y0136913D01*
X0166107Y0136972D01*
X0166051Y0137024D01*
X0166021Y0137041D01*
X0165982Y0137021D01*
X0165914Y0136976D01*
X0165849Y0136926D01*
X0165789Y0136870D01*
Y0137129D01*
X0165787Y0137130D01*
X0165667Y0137150D01*
X0165531Y0137161D01*
X0165379Y0137165D01*
Y0137953D01*
X0165531Y0137957D01*
X0165667Y0137969D01*
X0165787Y0137988D01*
X0165789Y0137989D01*
Y0138248D01*
X0165849Y0138192D01*
X0165914Y0138142D01*
X0165982Y0138097D01*
X0166021Y0138077D01*
X0166051Y0138094D01*
X0166107Y0138146D01*
X0166147Y0138205D01*
X0166171Y0138272D01*
X0166179Y0138347D01*
Y0138011D01*
D02*
G37*
G36*
X0136607Y0137835D02*
X0136595Y0137947D01*
X0136559Y0138047D01*
X0136499Y0138136D01*
X0136416Y0138213D01*
X0136308Y0138277D01*
X0136177Y0138331D01*
X0136022Y0138372D01*
X0135843Y0138402D01*
X0135640Y0138419D01*
X0135414Y0138425D01*
Y0139606D01*
X0135640Y0139612D01*
X0135843Y0139630D01*
X0136022Y0139659D01*
X0136177Y0139701D01*
X0136308Y0139754D01*
X0136416Y0139819D01*
X0136499Y0139896D01*
X0136559Y0139984D01*
X0136595Y0140085D01*
X0136607Y0140197D01*
Y0137835D01*
D02*
G37*
G36*
X0176009Y0139462D02*
X0176320Y0139195D01*
X0176454Y0139100D01*
X0176572Y0139030D01*
X0176676Y0138986D01*
X0176766Y0138968D01*
X0176840Y0138974D01*
X0176900Y0139007D01*
X0176945Y0139065D01*
X0176179Y0137629D01*
X0176207Y0137704D01*
X0176217Y0137787D01*
X0176207Y0137879D01*
X0176179Y0137978D01*
X0176131Y0138085D01*
X0176065Y0138201D01*
X0175980Y0138324D01*
X0175875Y0138456D01*
X0175752Y0138595D01*
X0175610Y0138743D01*
X0175832Y0139634D01*
X0176009Y0139462D01*
D02*
G37*
G36*
X0154779Y0139241D02*
X0154838Y0139136D01*
X0154937Y0139043D01*
X0155075Y0138963D01*
X0155252Y0138895D01*
X0155468Y0138839D01*
X0155724Y0138796D01*
X0156019Y0138765D01*
X0156728Y0138740D01*
Y0136772D01*
X0154760Y0137020D01*
Y0139358D01*
X0154779Y0139241D01*
D02*
G37*
G36*
X0161167Y0136149D02*
X0161147Y0136267D01*
X0161088Y0136373D01*
X0160989Y0136466D01*
X0160852Y0136547D01*
X0160675Y0136616D01*
X0160458Y0136672D01*
X0160202Y0136716D01*
X0159907Y0136747D01*
X0159198Y0136772D01*
Y0138740D01*
X0159572Y0138743D01*
X0160675Y0138824D01*
X0160852Y0138862D01*
X0160989Y0138905D01*
X0161088Y0138956D01*
X0161147Y0139013D01*
X0161167Y0139077D01*
Y0136149D01*
D02*
G37*
G36*
X0142573Y0137767D02*
X0142472Y0137731D01*
X0142384Y0137671D01*
X0142307Y0137587D01*
X0142242Y0137480D01*
X0142189Y0137349D01*
X0142148Y0137194D01*
X0142118Y0137015D01*
X0142100Y0136813D01*
X0142100Y0136790D01*
X0142100Y0136771D01*
X0142118Y0136571D01*
X0142147Y0136393D01*
X0142187Y0136240D01*
X0142239Y0136110D01*
X0142303Y0136004D01*
X0142378Y0135921D01*
X0142465Y0135862D01*
X0142563Y0135827D01*
X0142673Y0135815D01*
X0140335D01*
X0140445Y0135827D01*
X0140543Y0135862D01*
X0140630Y0135921D01*
X0140705Y0136004D01*
X0140769Y0136110D01*
X0140821Y0136240D01*
X0140861Y0136393D01*
X0140890Y0136571D01*
X0140908Y0136771D01*
X0140908Y0136799D01*
X0140908Y0136811D01*
X0140892Y0137012D01*
X0140865Y0137189D01*
X0140827Y0137343D01*
X0140779Y0137473D01*
X0140719Y0137579D01*
X0140649Y0137662D01*
X0140568Y0137721D01*
X0140477Y0137756D01*
X0140374Y0137768D01*
X0142685Y0137780D01*
X0142573Y0137767D01*
D02*
G37*
G36*
X0138860Y0137752D02*
X0138795Y0137705D01*
X0138738Y0137626D01*
X0138689Y0137516D01*
X0138647Y0137374D01*
X0138612Y0137201D01*
X0138585Y0136996D01*
X0138575Y0136815D01*
X0138606Y0136382D01*
X0138637Y0136208D01*
X0138674Y0136067D01*
X0138719Y0135957D01*
X0138770Y0135878D01*
X0138828Y0135830D01*
X0138893Y0135815D01*
X0136555D01*
X0136635Y0135830D01*
X0136707Y0135878D01*
X0136770Y0135957D01*
X0136825Y0136067D01*
X0136871Y0136208D01*
X0136909Y0136382D01*
X0136939Y0136586D01*
X0136952Y0136742D01*
X0136915Y0137201D01*
X0136881Y0137374D01*
X0136839Y0137516D01*
X0136789Y0137626D01*
X0136732Y0137705D01*
X0136667Y0137752D01*
X0136595Y0137768D01*
X0138933D01*
X0138860Y0137752D01*
D02*
G37*
G36*
X0172696Y0136155D02*
X0172665Y0136137D01*
X0172637Y0136108D01*
X0172614Y0136066D01*
X0172593Y0136013D01*
X0172577Y0135948D01*
X0172564Y0135872D01*
X0172555Y0135783D01*
X0172547Y0135571D01*
X0171760D01*
X0171758Y0135683D01*
X0171743Y0135872D01*
X0171730Y0135948D01*
X0171714Y0136013D01*
X0171694Y0136066D01*
X0171670Y0136108D01*
X0171642Y0136137D01*
X0171611Y0136155D01*
X0171576Y0136161D01*
X0172731D01*
X0172696Y0136155D01*
D02*
G37*
G36*
X0138945Y0133169D02*
X0138955Y0133065D01*
X0139034Y0132874D01*
X0139181Y0132727D01*
X0139373Y0132648D01*
X0139476Y0132638D01*
X0139476Y0132638D01*
X0142095Y0132638D01*
X0142228Y0132638D01*
X0142474Y0132536D01*
X0142662Y0132348D01*
X0142764Y0132102D01*
X0142764Y0131968D01*
X0142764Y0131968D01*
X0142764Y0127756D01*
X0142764Y0127654D01*
X0142686Y0127466D01*
X0142542Y0127322D01*
X0142354Y0127244D01*
X0142252Y0127244D01*
X0142252D01*
X0142252D01*
D01*
X0140618Y0127244D01*
X0140415Y0127244D01*
X0140038Y0127400D01*
X0139750Y0127688D01*
X0139594Y0128064D01*
X0139594Y0128268D01*
X0139594Y0128268D01*
X0139581Y0128406D01*
X0139475Y0128661D01*
X0139279Y0128857D01*
X0139024Y0128963D01*
X0138886Y0128976D01*
X0138886Y0128976D01*
X0136228D01*
Y0129135D01*
X0136217Y0129154D01*
X0136138Y0129223D01*
X0136028Y0129283D01*
X0135886Y0129334D01*
X0135713Y0129375D01*
X0135508Y0129407D01*
X0135304Y0129427D01*
X0134815Y0129388D01*
X0134642Y0129353D01*
X0134500Y0129311D01*
X0134390Y0129262D01*
X0134311Y0129204D01*
X0134264Y0129140D01*
X0134248Y0129067D01*
Y0131405D01*
X0134264Y0131333D01*
X0134311Y0131268D01*
X0134390Y0131211D01*
X0134500Y0131161D01*
X0134642Y0131119D01*
X0134815Y0131085D01*
X0135020Y0131058D01*
X0135263Y0131043D01*
X0135713Y0131072D01*
X0135886Y0131099D01*
X0136028Y0131133D01*
X0136138Y0131172D01*
X0136217Y0131218D01*
X0136228Y0131230D01*
Y0132766D01*
X0136228Y0132832D01*
X0136256Y0132961D01*
X0136310Y0133082D01*
X0136387Y0133189D01*
X0136436Y0133233D01*
X0136436Y0133233D01*
X0136459Y0133256D01*
X0136498Y0133309D01*
X0136525Y0133368D01*
X0136541Y0133432D01*
X0136543Y0133465D01*
X0136543Y0133465D01*
X0138945Y0133465D01*
X0138945Y0133169D01*
D02*
G37*
G36*
X0133627Y0130713D02*
X0132373D01*
X0132380Y0130731D01*
X0132386Y0130769D01*
X0132392Y0130824D01*
X0132404Y0131103D01*
X0132409Y0131732D01*
X0133590D01*
X0133627Y0130713D01*
D02*
G37*
G36*
X0138771Y0127091D02*
X0138795Y0127024D01*
X0138835Y0126965D01*
X0138891Y0126913D01*
X0138963Y0126870D01*
X0139051Y0126835D01*
X0139155Y0126807D01*
X0139275Y0126787D01*
X0139411Y0126776D01*
X0139563Y0126772D01*
Y0125984D01*
X0139411Y0125980D01*
X0139275Y0125969D01*
X0139155Y0125949D01*
X0139051Y0125921D01*
X0138963Y0125886D01*
X0138891Y0125842D01*
X0138835Y0125791D01*
X0138795Y0125732D01*
X0138771Y0125665D01*
X0138763Y0125591D01*
Y0127165D01*
X0138771Y0127091D01*
D02*
G37*
G36*
X0134260Y0127516D02*
X0134295Y0127418D01*
X0134354Y0127331D01*
X0134437Y0127255D01*
X0134543Y0127192D01*
X0134673Y0127140D01*
X0134827Y0127099D01*
X0135004Y0127070D01*
X0135205Y0127053D01*
X0135276Y0127051D01*
X0135323Y0127052D01*
X0135701Y0127092D01*
X0135854Y0127127D01*
X0135984Y0127172D01*
X0136091Y0127227D01*
X0136173Y0127292D01*
X0136232Y0127367D01*
X0136268Y0127452D01*
X0136280Y0127547D01*
X0136292Y0125276D01*
X0136279Y0125388D01*
X0136243Y0125488D01*
X0136183Y0125577D01*
X0136099Y0125654D01*
X0135992Y0125718D01*
X0135861Y0125772D01*
X0135706Y0125813D01*
X0135527Y0125842D01*
X0135325Y0125860D01*
X0135263Y0125862D01*
X0135205Y0125860D01*
X0135004Y0125843D01*
X0134827Y0125814D01*
X0134673Y0125774D01*
X0134543Y0125722D01*
X0134437Y0125658D01*
X0134354Y0125583D01*
X0134295Y0125496D01*
X0134260Y0125398D01*
X0134248Y0125288D01*
Y0127626D01*
X0134260Y0127516D01*
D02*
G37*
G36*
X0113888Y0141578D02*
X0113906Y0141528D01*
X0113936Y0141483D01*
X0113978Y0141445D01*
X0114032Y0141412D01*
X0114098Y0141386D01*
X0114177Y0141365D01*
X0114267Y0141350D01*
X0114370Y0141341D01*
X0114484Y0141339D01*
Y0140748D01*
X0114370Y0140745D01*
X0114267Y0140736D01*
X0114177Y0140721D01*
X0114098Y0140701D01*
X0114032Y0140674D01*
X0113978Y0140642D01*
X0113936Y0140603D01*
X0113906Y0140559D01*
X0113888Y0140509D01*
X0113882Y0140453D01*
Y0141634D01*
X0113888Y0141578D01*
D02*
G37*
G36*
X0117357Y0137912D02*
X0117561Y0137734D01*
X0117622Y0137690D01*
X0117678Y0137652D01*
X0117731Y0137622D01*
X0117780Y0137599D01*
X0117826Y0137583D01*
X0117867Y0137575D01*
X0117276Y0136983D01*
X0117267Y0137025D01*
X0117251Y0137070D01*
X0117228Y0137119D01*
X0117198Y0137172D01*
X0117161Y0137229D01*
X0117116Y0137289D01*
X0117005Y0137421D01*
X0116864Y0137568D01*
X0117282Y0137986D01*
X0117357Y0137912D01*
D02*
G37*
G36*
X0122135Y0134716D02*
X0122114Y0134672D01*
X0122096Y0134622D01*
X0122080Y0134563D01*
X0122066Y0134496D01*
X0122055Y0134422D01*
X0122040Y0134250D01*
X0122035Y0134046D01*
X0121445D01*
X0121444Y0134152D01*
X0121425Y0134422D01*
X0121414Y0134496D01*
X0121401Y0134563D01*
X0121385Y0134622D01*
X0121366Y0134672D01*
X0121345Y0134716D01*
X0121322Y0134751D01*
X0122159D01*
X0122135Y0134716D01*
D02*
G37*
G36*
X0120167D02*
X0120146Y0134672D01*
X0120127Y0134622D01*
X0120111Y0134563D01*
X0120098Y0134496D01*
X0120087Y0134422D01*
X0120072Y0134250D01*
X0120067Y0134046D01*
X0119476D01*
X0119475Y0134152D01*
X0119457Y0134422D01*
X0119446Y0134496D01*
X0119432Y0134563D01*
X0119416Y0134622D01*
X0119398Y0134672D01*
X0119377Y0134716D01*
X0119353Y0134751D01*
X0120190D01*
X0120167Y0134716D01*
D02*
G37*
G36*
X0128048Y0134724D02*
X0128046Y0134698D01*
X0128040Y0134337D01*
X0128039Y0133934D01*
X0127252D01*
X0127241Y0134734D01*
X0128050D01*
X0128048Y0134724D01*
D02*
G37*
G36*
X0126080D02*
X0126078Y0134698D01*
X0126072Y0134337D01*
X0126071Y0133934D01*
X0125283D01*
X0125272Y0134734D01*
X0126082D01*
X0126080Y0134724D01*
D02*
G37*
G36*
X0125955Y0133361D02*
X0125659Y0133062D01*
X0125100Y0133621D01*
X0125103Y0133624D01*
X0125148Y0133668D01*
X0125399Y0133918D01*
X0125955Y0133361D01*
D02*
G37*
G36*
X0128039Y0133277D02*
X0128041Y0133180D01*
X0128063Y0132907D01*
X0128076Y0132823D01*
X0128112Y0132665D01*
X0128134Y0132592D01*
X0128187Y0132455D01*
X0126902Y0132951D01*
X0126968Y0132985D01*
X0127028Y0133026D01*
X0127080Y0133075D01*
X0127126Y0133131D01*
X0127164Y0133194D01*
X0127196Y0133265D01*
X0127220Y0133343D01*
X0127238Y0133428D01*
X0127249Y0133521D01*
X0127252Y0133621D01*
X0128039Y0133277D01*
D02*
G37*
G36*
X0121370Y0126260D02*
X0121364Y0126316D01*
X0121346Y0126366D01*
X0121316Y0126410D01*
X0121274Y0126449D01*
X0121220Y0126481D01*
X0121153Y0126508D01*
X0121075Y0126529D01*
X0120985Y0126543D01*
X0120882Y0126552D01*
X0120768Y0126555D01*
Y0127146D01*
X0120882Y0127149D01*
X0120985Y0127157D01*
X0121075Y0127172D01*
X0121153Y0127193D01*
X0121220Y0127219D01*
X0121274Y0127252D01*
X0121316Y0127290D01*
X0121346Y0127335D01*
X0121364Y0127385D01*
X0121370Y0127441D01*
Y0126260D01*
D02*
G37*
G36*
X0115817Y0127109D02*
X0115835Y0127059D01*
X0115865Y0127015D01*
X0115907Y0126976D01*
X0115961Y0126944D01*
X0116027Y0126917D01*
X0116106Y0126897D01*
X0116196Y0126882D01*
X0116299Y0126873D01*
X0116413Y0126870D01*
Y0126279D01*
X0116299Y0126277D01*
X0116196Y0126268D01*
X0116106Y0126253D01*
X0116027Y0126232D01*
X0115961Y0126206D01*
X0115907Y0126173D01*
X0115865Y0126135D01*
X0115835Y0126091D01*
X0115817Y0126040D01*
X0115811Y0125984D01*
Y0127165D01*
X0115817Y0127109D01*
D02*
G37*
G36*
X0113784Y0136122D02*
X0113685Y0136087D01*
X0113599Y0136028D01*
X0113523Y0135945D01*
X0113460Y0135839D01*
X0113408Y0135709D01*
X0113367Y0135555D01*
X0113338Y0135378D01*
X0113321Y0135177D01*
X0113315Y0134965D01*
X0113316Y0134889D01*
X0113340Y0134542D01*
X0113350Y0134479D01*
X0113363Y0134426D01*
X0113378Y0134383D01*
X0113395Y0134349D01*
X0113413Y0134325D01*
X0112035D01*
X0112054Y0134349D01*
X0112071Y0134383D01*
X0112086Y0134426D01*
X0112098Y0134479D01*
X0112109Y0134542D01*
X0112125Y0134696D01*
X0112133Y0134889D01*
X0112134Y0134965D01*
X0112128Y0135177D01*
X0112111Y0135378D01*
X0112082Y0135555D01*
X0112041Y0135709D01*
X0111989Y0135839D01*
X0111926Y0135945D01*
X0111850Y0136028D01*
X0111764Y0136087D01*
X0111665Y0136122D01*
X0111555Y0136134D01*
X0113893D01*
X0113784Y0136122D01*
D02*
G37*
D10*
X0131583Y0150977D02*
X0134070Y0153465D01*
X0131583Y0150827D02*
Y0150977D01*
X0129943Y0142624D02*
X0131535D01*
X0131386Y0145039D02*
Y0145197D01*
X0131268Y0144921D02*
X0131386Y0145039D01*
X0134221Y0160591D02*
Y0162429D01*
X0133422Y0163228D02*
X0134221Y0162429D01*
X0131740Y0163228D02*
X0133422D01*
X0130717Y0173465D02*
Y0179842D01*
X0133197Y0182323D01*
X0201346Y0178295D02*
X0203894D01*
X0207331Y0181732D02*
Y0183504D01*
X0206347Y0184488D02*
X0207331Y0183504D01*
X0203394Y0184488D02*
X0206347D01*
X0190480Y0190945D02*
X0195283D01*
X0189091Y0189555D02*
X0190480Y0190945D01*
X0198945Y0132047D02*
X0201307D01*
X0127291D02*
X0127646Y0132402D01*
Y0135079D01*
X0127291Y0131457D02*
Y0132047D01*
X0193354Y0139803D02*
Y0141929D01*
X0125677Y0133640D02*
Y0135079D01*
X0124742Y0132704D02*
X0125677Y0133640D01*
X0193354Y0139803D02*
X0194811Y0141260D01*
X0201307Y0132047D02*
X0204181Y0134921D01*
X0148158Y0133228D02*
X0159968D01*
X0146465Y0134921D02*
X0148158Y0133228D01*
X0165087Y0137559D02*
X0166957D01*
X0161110Y0140315D02*
X0174594D01*
X0169280Y0156142D02*
X0172153Y0159016D01*
X0161622Y0156142D02*
X0169280D01*
X0152331Y0146850D02*
X0161622Y0156142D01*
X0161413Y0157990D02*
X0162296Y0158873D01*
X0161413Y0157922D02*
Y0157990D01*
X0152271Y0148779D02*
X0161413Y0157922D01*
X0160126Y0158455D02*
Y0160984D01*
X0151789Y0150118D02*
X0160126Y0158455D01*
X0158839Y0158988D02*
Y0161518D01*
X0151661Y0151811D02*
X0158839Y0158988D01*
X0166957Y0137559D02*
X0167154Y0137756D01*
X0172153Y0135571D02*
Y0137756D01*
X0159968Y0133228D02*
X0161543Y0134803D01*
X0171386D01*
X0172153Y0135571D01*
X0146465Y0134921D02*
Y0137244D01*
X0141937Y0142953D02*
X0144339Y0140551D01*
X0133551Y0142953D02*
X0141937D01*
X0131740Y0163228D02*
Y0172441D01*
X0130717Y0173465D02*
X0131740Y0172441D01*
X0146661Y0146850D02*
X0152331D01*
X0145480Y0148779D02*
X0152271D01*
X0143866Y0150118D02*
X0151789D01*
X0144024Y0151811D02*
X0151661D01*
X0174594Y0140315D02*
X0177154Y0137756D01*
X0160087Y0141339D02*
X0161110Y0140315D01*
X0142862Y0126378D02*
X0143787D01*
X0142834Y0126350D02*
X0142862Y0126378D01*
X0141882Y0126350D02*
X0142834D01*
X0141882Y0126350D02*
X0141882Y0126350D01*
X0140988Y0126350D02*
X0141882D01*
X0140988Y0126350D02*
X0140988Y0126350D01*
X0139824Y0126350D02*
X0140988D01*
X0139796Y0126378D02*
X0139824Y0126350D01*
X0137528Y0126378D02*
X0139796D01*
X0144339Y0139370D02*
X0146465Y0137244D01*
X0144339Y0139370D02*
Y0140551D01*
X0136819Y0154724D02*
X0141110D01*
X0135559Y0153465D02*
X0136819Y0154724D01*
X0141110D02*
X0144024Y0151811D01*
X0134070Y0153465D02*
X0135559D01*
X0133630Y0161181D02*
X0134221Y0160591D01*
X0134417D01*
X0129614Y0144921D02*
X0131268D01*
X0129614Y0142953D02*
X0129943Y0142624D01*
X0130520Y0140984D02*
X0131543Y0139961D01*
X0129614Y0140984D02*
X0130520D01*
X0131543Y0139449D02*
Y0139961D01*
X0143669Y0146968D02*
X0145480Y0148779D01*
X0140638Y0146890D02*
X0143866Y0150118D01*
X0133551Y0146890D02*
X0140638D01*
X0125134Y0147433D02*
Y0148457D01*
X0124732Y0148858D02*
X0125134Y0148457D01*
Y0147433D02*
X0125677Y0146890D01*
X0204299Y0144468D02*
Y0145012D01*
X0204260Y0147362D02*
X0204299Y0147323D01*
X0160323Y0162992D02*
X0163039D01*
X0160232Y0162902D02*
X0160323Y0162992D01*
X0160223Y0162902D02*
X0160232D01*
X0158839Y0161518D02*
X0160223Y0162902D01*
X0160126Y0160984D02*
X0160756Y0161614D01*
X0164555D01*
X0167154Y0159016D01*
X0160087Y0141339D02*
Y0144291D01*
X0159457Y0144921D02*
X0160087Y0144291D01*
X0133551Y0144921D02*
X0159457D01*
X0163039Y0162992D02*
X0164535Y0164488D01*
X0167685D01*
X0136937Y0148858D02*
X0139181Y0151102D01*
X0133551Y0148858D02*
X0136937D01*
X0204181Y0134921D02*
X0204221Y0134882D01*
X0200323Y0148583D02*
X0200402Y0148661D01*
X0200323Y0148583D02*
X0200362Y0148543D01*
X0195295Y0190933D02*
X0202661D01*
X0195283Y0190945D02*
X0195295Y0190933D01*
X0203236Y0184646D02*
X0203394Y0184488D01*
X0203236Y0184646D02*
Y0190315D01*
X0203185Y0190366D02*
X0203236Y0190315D01*
X0203185Y0190366D02*
Y0190410D01*
X0202661Y0190933D02*
X0203185Y0190410D01*
X0189091Y0184476D02*
Y0189555D01*
X0188984Y0184370D02*
X0189091Y0184476D01*
X0197370Y0188858D02*
X0201307D01*
X0203894Y0178295D02*
X0207331Y0181732D01*
X0197370Y0188425D02*
Y0188858D01*
X0201346Y0180157D02*
Y0188819D01*
Y0178189D02*
Y0178295D01*
X0207606Y0176339D02*
X0207685Y0176417D01*
X0201307Y0188858D02*
Y0189252D01*
Y0188858D02*
X0201346Y0188819D01*
X0137567Y0186653D02*
Y0187992D01*
X0136740Y0185827D02*
X0137567Y0186653D01*
D11*
X0140165Y0178071D02*
G03*
X0140087Y0177881I0000190J-0000190D01*
G01*
X0115756Y0145524D02*
X0116446D01*
X0117229Y0146307D01*
X0117277D01*
X0117535Y0146566D01*
Y0146622D01*
X0117803Y0146890D01*
X0119929Y0137205D02*
Y0137244D01*
X0117803Y0135079D02*
X0119929Y0137205D01*
X0194535Y0184488D02*
X0199457D01*
X0191563Y0181555D02*
X0194024Y0184016D01*
X0211504Y0156811D02*
Y0170315D01*
X0203551Y0162284D02*
Y0172441D01*
X0205598Y0156811D02*
X0211504D01*
X0140087Y0174370D02*
Y0177881D01*
X0134024Y0170315D02*
X0134339Y0170630D01*
X0188984Y0173425D02*
X0189693Y0172716D01*
X0188984Y0173425D02*
Y0176102D01*
X0191563Y0181555D02*
X0191858Y0181260D01*
X0191268D02*
X0191858D01*
X0190244Y0180236D02*
X0191268Y0181260D01*
X0194535Y0184488D02*
X0195008Y0184016D01*
X0193433Y0185591D02*
X0194535Y0184488D01*
X0194024Y0184016D02*
X0195008D01*
X0193945D02*
X0194024D01*
X0193473Y0184488D02*
X0194535D01*
X0126661Y0137047D02*
X0129614D01*
X0123709D02*
X0126661D01*
X0193433Y0185591D02*
Y0188858D01*
X0193473Y0184488D02*
X0193945Y0184016D01*
X0121740Y0133189D02*
Y0135079D01*
X0119417Y0130866D02*
X0121740Y0133189D01*
X0119417Y0127323D02*
Y0130866D01*
X0119890Y0126850D02*
X0123512D01*
X0119417Y0127323D02*
X0119890Y0126850D01*
X0113669D02*
Y0128110D01*
Y0126575D02*
Y0126850D01*
Y0126575D02*
X0116701D01*
X0117449Y0127323D01*
Y0130945D01*
X0119772Y0133268D01*
X0112724Y0141043D02*
X0114988D01*
X0115598Y0140433D01*
Y0139252D02*
Y0140433D01*
Y0139252D02*
X0117803Y0137047D01*
X0205598Y0156811D02*
Y0162284D01*
X0143787Y0126378D02*
Y0134567D01*
X0140087Y0172480D02*
X0142685D01*
X0140087D02*
Y0174370D01*
X0143945Y0186181D02*
X0144890Y0187126D01*
X0143945Y0182598D02*
Y0186181D01*
X0133866Y0167205D02*
Y0170472D01*
X0133630Y0166969D02*
X0133866Y0167205D01*
X0122506Y0159173D02*
X0124063D01*
X0122300Y0159379D02*
X0122506Y0159173D01*
X0116268Y0159016D02*
Y0159488D01*
X0121937Y0159016D02*
X0122300Y0159379D01*
X0116268Y0159016D02*
X0121937D01*
X0125165Y0143032D02*
X0125756D01*
X0132213Y0149488D02*
X0133551Y0150827D01*
X0125756Y0143032D02*
X0127646Y0144921D01*
X0125677Y0150827D02*
X0126299Y0150205D01*
X0133866Y0170472D02*
X0134024Y0170315D01*
X0119772Y0133268D02*
Y0135079D01*
X0206071Y0170315D02*
X0211504D01*
X0206071D02*
Y0172441D01*
X0203551D02*
X0206071D01*
X0203551Y0162284D02*
X0205598D01*
X0197409Y0176221D02*
X0199378Y0178189D01*
Y0180157D02*
X0199378Y0180157D01*
X0199378Y0178189D02*
Y0180157D01*
X0199378Y0184409D02*
X0199457Y0184488D01*
X0199378Y0180157D02*
Y0184409D01*
X0187173Y0180236D02*
X0190244D01*
X0186031D02*
X0187173D01*
X0188984Y0178425D01*
Y0176102D02*
Y0178425D01*
X0141504Y0134567D02*
X0143787D01*
X0141504Y0139016D02*
X0141543D01*
X0137449Y0126457D02*
X0137528Y0126378D01*
X0129614Y0149488D02*
Y0150827D01*
X0126299Y0150205D02*
X0126333D01*
X0149024Y0141929D02*
X0149063Y0141969D01*
X0153512D01*
X0129614Y0137047D02*
Y0139016D01*
Y0135079D02*
Y0137047D01*
X0123709D02*
Y0139016D01*
X0121740D02*
X0123709D01*
X0121740D02*
Y0140984D01*
Y0142953D01*
Y0144921D02*
Y0146890D01*
Y0142953D02*
Y0144921D01*
X0123709D01*
X0117803Y0146890D02*
X0121740D01*
X0117803D02*
Y0148858D01*
Y0150827D01*
X0119772D01*
X0121740D01*
X0135598Y0190354D02*
X0137567D01*
D14*
X0115539Y0147323D02*
X0115717D01*
X0115535Y0147327D02*
X0115539Y0147323D01*
X0115535Y0147327D02*
Y0148528D01*
X0113433Y0150630D02*
X0115535Y0148528D01*
X0113236Y0150630D02*
X0113433D01*
X0121187Y0166651D02*
X0122293D01*
X0202882Y0121860D02*
X0204678Y0120064D01*
X0136886Y0174358D02*
X0136937Y0174307D01*
X0209614Y0192913D02*
X0214693Y0187835D01*
Y0176221D02*
Y0187835D01*
X0211504Y0176221D02*
X0214693D01*
X0136909Y0167595D02*
X0136937Y0167622D01*
X0136909Y0165713D02*
Y0167595D01*
Y0165713D02*
X0136937Y0165685D01*
Y0165339D02*
Y0165685D01*
X0136909Y0165311D02*
X0136937Y0165339D01*
X0136909Y0163429D02*
Y0165311D01*
Y0163429D02*
X0136937Y0163402D01*
Y0162362D02*
Y0163402D01*
Y0162362D02*
X0137094Y0162205D01*
X0136937Y0167622D02*
Y0174307D01*
X0137094Y0159567D02*
Y0162205D01*
X0136886Y0174358D02*
X0136937Y0174409D01*
X0143945Y0178071D02*
X0148354D01*
X0117961Y0163425D02*
X0121187Y0166651D01*
X0116150Y0163425D02*
X0117961D01*
X0135835Y0174409D02*
X0136937D01*
X0134654D02*
X0135835D01*
X0187016Y0188976D02*
X0187016Y0188976D01*
X0205402Y0192913D02*
X0209614D01*
X0187016D02*
X0205402D01*
X0205244Y0192756D02*
X0205402Y0192913D01*
X0205244Y0188858D02*
Y0192756D01*
X0133000Y0130236D02*
X0137449D01*
X0137764Y0134606D02*
Y0139016D01*
D15*
X0204850Y0128504D02*
X0210756D01*
X0202882Y0126535D02*
X0204850Y0128504D01*
X0202882Y0121860D02*
Y0126535D01*
X0210756Y0128504D02*
X0214693Y0132441D01*
Y0176221D01*
X0196307Y0129016D02*
Y0129961D01*
X0194220Y0126929D02*
X0196307Y0129016D01*
X0194220Y0121417D02*
Y0126929D01*
X0196307Y0129961D02*
Y0134921D01*
X0194220Y0118268D02*
Y0121417D01*
X0153945Y0137756D02*
X0162153D01*
X0203709Y0131693D02*
X0209575D01*
X0201307Y0129291D02*
X0203709Y0131693D01*
X0196976Y0129291D02*
X0201307D01*
X0196307Y0129961D02*
X0196976Y0129291D01*
X0148945Y0138071D02*
X0149024Y0138150D01*
X0148945Y0135591D02*
Y0138071D01*
X0209575Y0131693D02*
X0211268Y0133386D01*
X0189102Y0134803D02*
Y0141115D01*
X0189287Y0141484D02*
X0196386Y0148583D01*
X0189287Y0141300D02*
Y0141484D01*
X0189102Y0141115D02*
X0189287Y0141300D01*
X0153512Y0138189D02*
X0153945Y0137756D01*
X0153472Y0138150D02*
X0153512Y0138189D01*
X0149024Y0138150D02*
X0153472D01*
X0196386Y0153504D02*
X0199693Y0156811D01*
X0196386Y0148583D02*
Y0153504D01*
X0211268Y0133386D02*
Y0140512D01*
X0144811Y0174370D02*
X0148354D01*
X0152764D01*
D16*
X0141504Y0134567D02*
Y0139016D01*
X0131385Y0142775D02*
X0131535Y0142624D01*
X0183630Y0165866D02*
X0187016D01*
X0177291Y0172205D02*
X0183630Y0165866D01*
X0177291Y0172205D02*
Y0190039D01*
X0178236Y0190984D01*
X0193748Y0131575D02*
Y0136142D01*
X0192646Y0130472D02*
X0193748Y0131575D01*
X0177685Y0126535D02*
X0181622Y0130472D01*
X0177685Y0118268D02*
Y0126535D01*
X0168433Y0121417D02*
X0169024D01*
X0204299Y0145012D02*
X0204862Y0144449D01*
X0193748Y0136142D02*
X0194890Y0137284D01*
X0181622Y0130472D02*
X0192646D01*
X0191465Y0137913D02*
X0193354Y0139803D01*
X0191465Y0132835D02*
Y0137913D01*
X0112724Y0133622D02*
Y0137106D01*
X0194890Y0137284D02*
X0197252D01*
X0196386Y0148583D02*
X0198354Y0146614D01*
Y0142677D02*
Y0146614D01*
Y0142677D02*
X0199221Y0141811D01*
X0197252Y0137284D02*
X0199122Y0139154D01*
X0200362D01*
X0209693Y0151969D02*
X0210303Y0152579D01*
X0200402Y0151969D02*
X0209693D01*
X0112449Y0163425D02*
X0112488Y0163386D01*
Y0159016D02*
Y0163386D01*
Y0157087D02*
Y0159016D01*
Y0157087D02*
X0113236Y0156339D01*
Y0154567D02*
Y0156339D01*
X0135835Y0174409D02*
X0135874Y0174449D01*
Y0178661D01*
X0204299Y0145012D02*
Y0147323D01*
X0204862Y0144449D02*
X0211268D01*
X0200402Y0148661D02*
Y0151969D01*
X0211268Y0144449D02*
X0211307Y0144409D01*
X0211150Y0181850D02*
X0211268Y0181732D01*
X0211150Y0181850D02*
Y0187087D01*
X0208118Y0134921D02*
Y0140039D01*
X0206346Y0141811D02*
X0208118Y0140039D01*
X0202331Y0141811D02*
X0206346D01*
X0202331D02*
Y0144468D01*
Y0139154D02*
Y0141811D01*
X0199221D02*
X0202331D01*
X0200362Y0144468D02*
Y0148543D01*
X0185520Y0188976D02*
X0187016D01*
X0183512Y0190984D02*
X0185520Y0188976D01*
X0182173Y0190984D02*
X0183512D01*
X0192961Y0165866D02*
X0193039Y0165945D01*
X0187016Y0165866D02*
X0192961D01*
X0187016Y0184370D02*
Y0188976D01*
X0133551Y0139016D02*
X0137764D01*
X0137449Y0130236D02*
X0137528Y0130157D01*
X0133000Y0126457D02*
X0137449D01*
X0137528Y0130157D02*
Y0132106D01*
X0137724Y0132303D01*
Y0134567D01*
X0137764Y0134606D01*
X0133551Y0139016D02*
X0133551Y0139016D01*
X0131583Y0133150D02*
Y0135079D01*
Y0133150D02*
X0133000Y0131732D01*
Y0130236D02*
Y0131732D01*
X0133551Y0137047D02*
Y0139016D01*
Y0135079D02*
Y0137047D01*
X0131583Y0135079D02*
X0133551D01*
X0139535Y0185984D02*
Y0187992D01*
Y0185984D02*
X0140165Y0185354D01*
Y0182598D02*
Y0185354D01*
X0135874Y0182598D02*
X0140165D01*
X0135874Y0182598D02*
Y0182598D01*
D17*
X0115717Y0147323D02*
D03*
X0131535Y0142624D02*
D03*
X0131386Y0145197D02*
D03*
X0214181Y0121378D02*
D03*
X0210205Y0121457D02*
D03*
Y0125433D02*
D03*
X0213984Y0125472D02*
D03*
X0191858Y0181260D02*
D03*
Y0184016D02*
D03*
X0195008D02*
D03*
X0189890Y0168661D02*
D03*
X0179654Y0187953D02*
D03*
X0202882Y0121417D02*
D03*
X0194220D02*
D03*
X0161937Y0123779D02*
D03*
X0157606D02*
D03*
X0217843Y0121417D02*
D03*
Y0125354D02*
D03*
Y0185984D02*
D03*
Y0182441D02*
D03*
Y0178898D02*
D03*
Y0175354D02*
D03*
Y0171811D02*
D03*
Y0168268D02*
D03*
Y0164724D02*
D03*
Y0161181D02*
D03*
Y0157638D02*
D03*
Y0154095D02*
D03*
Y0150551D02*
D03*
Y0147008D02*
D03*
Y0143465D02*
D03*
Y0139921D02*
D03*
Y0136378D02*
D03*
Y0132835D02*
D03*
Y0129291D02*
D03*
X0198945Y0132047D02*
D03*
X0185559Y0121417D02*
D03*
X0177685D02*
D03*
X0168433D02*
D03*
X0150913Y0123779D02*
D03*
X0127291Y0132047D02*
D03*
X0124742Y0132704D02*
D03*
X0168433Y0127126D02*
D03*
X0183984Y0193465D02*
D03*
X0180441Y0193858D02*
D03*
X0212724Y0193465D02*
D03*
X0217843Y0189528D02*
D03*
X0111150Y0118661D02*
D03*
X0114693D02*
D03*
X0216536Y0192913D02*
D03*
X0210630Y0157480D02*
D03*
X0206693Y0149606D02*
D03*
X0202756Y0173228D02*
D03*
X0194882Y0181103D02*
D03*
X0192913Y0153543D02*
D03*
X0188977Y0161417D02*
D03*
X0190945Y0157480D02*
D03*
X0188977Y0153543D02*
D03*
X0190945Y0149606D02*
D03*
X0188977Y0145669D02*
D03*
X0185039Y0161417D02*
D03*
X0187008Y0157480D02*
D03*
X0185039Y0153543D02*
D03*
X0187008Y0149606D02*
D03*
X0185039Y0145669D02*
D03*
Y0137795D02*
D03*
X0181103Y0161417D02*
D03*
X0183071Y0157480D02*
D03*
X0181103Y0153543D02*
D03*
X0183071Y0149606D02*
D03*
X0181103Y0145669D02*
D03*
X0183071Y0141732D02*
D03*
X0181103Y0137795D02*
D03*
X0177165Y0169291D02*
D03*
X0179134Y0165354D02*
D03*
X0173228Y0192913D02*
D03*
X0175197Y0188977D02*
D03*
X0173228Y0185039D02*
D03*
X0175197Y0181103D02*
D03*
X0173228Y0177165D02*
D03*
X0175197Y0173228D02*
D03*
X0173228Y0169291D02*
D03*
X0175197Y0165354D02*
D03*
X0169291Y0192913D02*
D03*
X0171260Y0188977D02*
D03*
X0169291Y0185039D02*
D03*
X0171260Y0181103D02*
D03*
X0169291Y0177165D02*
D03*
X0171260Y0173228D02*
D03*
X0169291Y0169291D02*
D03*
X0165354Y0192913D02*
D03*
X0167323Y0188977D02*
D03*
X0165354Y0185039D02*
D03*
X0167323Y0181103D02*
D03*
X0165354Y0177165D02*
D03*
X0167323Y0173228D02*
D03*
X0165354Y0169291D02*
D03*
X0161417Y0192913D02*
D03*
X0163386Y0188977D02*
D03*
X0161417Y0185039D02*
D03*
X0163386Y0181103D02*
D03*
X0161417Y0177165D02*
D03*
X0163386Y0173228D02*
D03*
X0161417Y0169291D02*
D03*
X0157480Y0192913D02*
D03*
X0159449Y0188977D02*
D03*
X0157480Y0185039D02*
D03*
X0159449Y0181103D02*
D03*
X0153543Y0192913D02*
D03*
X0155512Y0188977D02*
D03*
Y0181103D02*
D03*
X0127953Y0125984D02*
D03*
X0122047Y0153543D02*
D03*
X0118110Y0192913D02*
D03*
X0120079Y0157480D02*
D03*
X0118110Y0153543D02*
D03*
Y0122047D02*
D03*
X0114173Y0192913D02*
D03*
X0116142Y0188977D02*
D03*
X0114173Y0185039D02*
D03*
Y0169291D02*
D03*
X0128472Y0121024D02*
D03*
Y0123779D02*
D03*
X0133787Y0121024D02*
D03*
X0131032D02*
D03*
X0139299D02*
D03*
X0136543D02*
D03*
X0173158Y0129488D02*
D03*
Y0127126D02*
D03*
X0170795D02*
D03*
Y0129488D02*
D03*
X0168433D02*
D03*
X0166071D02*
D03*
Y0127126D02*
D03*
X0163709Y0129488D02*
D03*
Y0127126D02*
D03*
X0161346Y0129488D02*
D03*
Y0127126D02*
D03*
X0158984Y0129488D02*
D03*
Y0127126D02*
D03*
X0156622Y0129488D02*
D03*
Y0127126D02*
D03*
X0154260Y0129488D02*
D03*
Y0127126D02*
D03*
X0151898Y0129488D02*
D03*
Y0127126D02*
D03*
X0149535D02*
D03*
Y0129488D02*
D03*
X0145992Y0127717D02*
D03*
X0191465Y0132835D02*
D03*
X0148945Y0135591D02*
D03*
X0165087Y0137559D02*
D03*
X0156937Y0161063D02*
D03*
X0156504Y0140354D02*
D03*
X0189102Y0134803D02*
D03*
X0210559Y0149331D02*
D03*
X0207646Y0147008D02*
D03*
X0203039Y0166654D02*
D03*
X0205756D02*
D03*
X0208512Y0160472D02*
D03*
X0183905Y0170433D02*
D03*
X0133039Y0177480D02*
D03*
X0129457Y0167244D02*
D03*
X0159339Y0147205D02*
D03*
X0155795Y0147244D02*
D03*
X0127567Y0169409D02*
D03*
X0132961Y0193661D02*
D03*
X0129142Y0193622D02*
D03*
X0125992Y0193543D02*
D03*
X0122449Y0193386D02*
D03*
X0111071Y0192992D02*
D03*
X0111189Y0189252D02*
D03*
X0111071Y0184685D02*
D03*
X0110953Y0169409D02*
D03*
X0116189Y0155669D02*
D03*
X0111228Y0146299D02*
D03*
X0112843Y0143898D02*
D03*
X0115520Y0142874D02*
D03*
X0126661Y0137047D02*
D03*
X0119929Y0137244D02*
D03*
X0115480Y0136614D02*
D03*
X0115638Y0132638D02*
D03*
X0112724Y0133622D02*
D03*
X0146268Y0140354D02*
D03*
X0157764Y0142677D02*
D03*
X0137094Y0159567D02*
D03*
X0144811Y0121024D02*
D03*
X0142055D02*
D03*
X0144811Y0123583D02*
D03*
X0142055D02*
D03*
X0141937Y0187087D02*
D03*
X0144890Y0187126D02*
D03*
X0133630Y0166969D02*
D03*
X0133197Y0182323D02*
D03*
X0124653Y0156968D02*
D03*
X0122882Y0161378D02*
D03*
X0124063Y0159173D02*
D03*
X0130283Y0160275D02*
D03*
X0128079Y0164724D02*
D03*
X0129260Y0162756D02*
D03*
X0130520Y0157835D02*
D03*
X0131740Y0163228D02*
D03*
X0130564Y0155372D02*
D03*
Y0152904D02*
D03*
X0124655Y0168373D02*
D03*
X0118586Y0167383D02*
D03*
X0117835Y0169735D02*
D03*
X0121318Y0163297D02*
D03*
X0119026Y0188973D02*
D03*
X0117806Y0186827D02*
D03*
X0117001Y0184494D02*
D03*
X0124727Y0154481D02*
D03*
X0126322Y0166553D02*
D03*
X0123621Y0170615D02*
D03*
X0123923Y0182878D02*
D03*
X0125192Y0184995D02*
D03*
X0127661D02*
D03*
X0130129D02*
D03*
X0132597D02*
D03*
X0133113Y0190832D02*
D03*
X0130644D02*
D03*
X0128176D02*
D03*
X0125707D02*
D03*
X0123239D02*
D03*
X0131543Y0139961D02*
D03*
X0125165Y0143032D02*
D03*
X0136937Y0174409D02*
D03*
X0142685Y0172480D02*
D03*
X0141032Y0170787D02*
D03*
X0139811Y0168898D02*
D03*
X0139181Y0166654D02*
D03*
Y0164370D02*
D03*
X0139378Y0162008D02*
D03*
X0140362Y0159843D02*
D03*
X0141858Y0157913D02*
D03*
X0143787Y0156457D02*
D03*
X0145992Y0155591D02*
D03*
X0148709Y0155315D02*
D03*
X0151189Y0155827D02*
D03*
X0153551Y0156968D02*
D03*
X0155520Y0158740D02*
D03*
X0157528Y0163976D02*
D03*
Y0166457D02*
D03*
X0156740Y0169055D02*
D03*
X0154417Y0170905D02*
D03*
X0158197D02*
D03*
X0159732Y0172598D02*
D03*
X0159850Y0175079D02*
D03*
X0158945Y0177441D02*
D03*
X0156543Y0178032D02*
D03*
X0154220D02*
D03*
X0151740Y0178110D02*
D03*
Y0180669D02*
D03*
X0151543Y0183346D02*
D03*
Y0185866D02*
D03*
Y0188386D02*
D03*
X0151150Y0190945D02*
D03*
X0150087Y0193110D02*
D03*
X0147685Y0193150D02*
D03*
X0145244D02*
D03*
X0142803Y0193268D02*
D03*
X0140205Y0193150D02*
D03*
X0137764Y0193268D02*
D03*
X0135559Y0193504D02*
D03*
X0124732Y0148858D02*
D03*
X0204378Y0147362D02*
D03*
X0200402Y0151969D02*
D03*
X0211150Y0187087D02*
D03*
X0211347Y0160551D02*
D03*
X0208512Y0163622D02*
D03*
X0211347D02*
D03*
X0208512Y0166693D02*
D03*
X0211347Y0166614D02*
D03*
X0189693Y0172716D02*
D03*
X0145559Y0142953D02*
D03*
X0141465Y0131024D02*
D03*
X0143669Y0146968D02*
D03*
X0146661Y0146850D02*
D03*
X0136740Y0185827D02*
D03*
D18*
X0127606Y0157000D02*
G03*
X0124677Y0164071I-0010000J0000000D01*
G01*
X0122293Y0166651D02*
G03*
X0123370Y0165378I0008147J0005798D01*
G01*
X0123197Y0187913D02*
G03*
X0120480Y0185197I0000000J-0002716D01*
G01*
X0120441Y0172449D02*
G03*
X0122293Y0166651I0010000J0000000D01*
G01*
X0141807Y0190354D02*
G03*
X0141902Y0190315I0000095J0000095D01*
G01*
X0123197Y0187913D02*
X0134221D01*
X0120480Y0182315D02*
Y0185197D01*
X0123370Y0165378D02*
X0124677Y0164071D01*
X0120441Y0172449D02*
Y0182315D01*
X0148354Y0179764D02*
Y0181063D01*
X0127646Y0152323D02*
Y0157000D01*
X0120441Y0182315D02*
X0120480D01*
X0134221Y0187886D02*
Y0187913D01*
X0148354Y0164803D02*
Y0173189D01*
X0141902Y0190315D02*
X0142961D01*
X0140953Y0190354D02*
X0141807D01*
D19*
X0211543Y0121221D02*
D03*
X0202882D02*
D03*
X0194220D02*
D03*
X0185559D02*
D03*
X0176898D02*
D03*
X0167449D02*
D03*
X0158787D02*
D03*
X0150126D02*
D03*
D20*
X0162139Y0158873D02*
D03*
X0167139D02*
D03*
X0172139D02*
D03*
X0177139D02*
D03*
Y0137613D02*
D03*
X0172139D02*
D03*
X0167139D02*
D03*
X0162139D02*
D03*
D21*
X0169639Y0148243D02*
D03*
D22*
X0113236Y0150630D02*
D03*
Y0154567D02*
D03*
X0135874Y0178661D02*
D03*
Y0182598D02*
D03*
X0187016Y0188976D02*
D03*
Y0192913D02*
D03*
Y0169803D02*
D03*
Y0165866D02*
D03*
X0211268Y0140512D02*
D03*
Y0144449D02*
D03*
X0134417Y0156653D02*
D03*
Y0160591D02*
D03*
X0133866Y0170472D02*
D03*
Y0174409D02*
D03*
X0112724Y0137106D02*
D03*
Y0141043D02*
D03*
D23*
X0139181Y0151102D02*
D03*
X0167685Y0164488D02*
D03*
X0210362Y0153307D02*
D03*
X0194811Y0141260D02*
D03*
D24*
X0135598Y0190354D02*
D03*
X0137567D02*
D03*
X0139535D02*
D03*
Y0187992D02*
D03*
X0137567D02*
D03*
X0135598D02*
D03*
D25*
X0148354Y0190315D02*
D03*
X0144653D02*
D03*
X0116150Y0163425D02*
D03*
X0112449D02*
D03*
D26*
X0148354Y0182205D02*
D03*
Y0185984D02*
D03*
X0206071Y0176221D02*
D03*
Y0172441D02*
D03*
X0153512Y0141969D02*
D03*
Y0138189D02*
D03*
X0149024Y0141929D02*
D03*
Y0138150D02*
D03*
X0137528Y0126378D02*
D03*
Y0130157D02*
D03*
X0133000Y0126457D02*
D03*
Y0130236D02*
D03*
D27*
X0140165Y0182598D02*
D03*
X0143945D02*
D03*
X0143945Y0178071D02*
D03*
X0140165D02*
D03*
X0152764Y0174370D02*
D03*
X0156543D02*
D03*
X0199772Y0162284D02*
D03*
X0203551D02*
D03*
X0116268Y0159016D02*
D03*
X0112488D02*
D03*
X0141543Y0139016D02*
D03*
X0137764D02*
D03*
X0141504Y0134567D02*
D03*
X0137724D02*
D03*
D28*
X0144811Y0174370D02*
D03*
X0140087D02*
D03*
D29*
X0148354D02*
D03*
Y0178071D02*
D03*
D30*
X0182173Y0190984D02*
D03*
X0178236D02*
D03*
X0197370Y0188858D02*
D03*
X0193433D02*
D03*
X0205244D02*
D03*
X0201307D02*
D03*
X0203394Y0184488D02*
D03*
X0199457D02*
D03*
X0207331Y0181732D02*
D03*
X0211268D02*
D03*
X0200323Y0148583D02*
D03*
X0196386D02*
D03*
X0204181Y0134921D02*
D03*
X0208118D02*
D03*
X0196307D02*
D03*
X0200244D02*
D03*
D31*
X0186031Y0180236D02*
D03*
D32*
X0188984Y0184370D02*
D03*
X0187016D02*
D03*
X0185047D02*
D03*
X0183079D02*
D03*
Y0176102D02*
D03*
X0185047D02*
D03*
X0187016D02*
D03*
X0188984D02*
D03*
D33*
X0199378Y0178189D02*
D03*
X0201346D02*
D03*
X0197409D02*
D03*
X0199378Y0176221D02*
D03*
X0197409D02*
D03*
X0201346D02*
D03*
Y0180157D02*
D03*
X0199378D02*
D03*
X0197409D02*
D03*
D34*
X0211504Y0170315D02*
D03*
Y0176221D02*
D03*
D35*
X0193118Y0169213D02*
D03*
X0199417D02*
D03*
D36*
X0205598Y0156811D02*
D03*
X0199693D02*
D03*
D37*
X0200362Y0139154D02*
D03*
X0202331D02*
D03*
X0204299D02*
D03*
X0200362Y0144468D02*
D03*
X0202331D02*
D03*
X0204299D02*
D03*
D38*
X0133551Y0135079D02*
D03*
Y0137047D02*
D03*
Y0139016D02*
D03*
Y0140984D02*
D03*
Y0142953D02*
D03*
Y0144921D02*
D03*
Y0146890D02*
D03*
Y0148858D02*
D03*
Y0150827D02*
D03*
X0117803Y0135079D02*
D03*
X0119772D02*
D03*
X0121740D02*
D03*
X0123709D02*
D03*
X0125677D02*
D03*
X0127646D02*
D03*
X0129614D02*
D03*
X0131583D02*
D03*
X0117803Y0137047D02*
D03*
Y0139016D02*
D03*
X0121740D02*
D03*
X0123709D02*
D03*
X0125677D02*
D03*
X0127646D02*
D03*
X0129614D02*
D03*
X0117803Y0140984D02*
D03*
X0121740D02*
D03*
X0123709D02*
D03*
X0127646D02*
D03*
X0129614D02*
D03*
X0117803Y0142953D02*
D03*
X0121740D02*
D03*
X0129614D02*
D03*
X0117803Y0144921D02*
D03*
X0123709D02*
D03*
X0127646D02*
D03*
X0129614D02*
D03*
X0117803Y0146890D02*
D03*
X0121740D02*
D03*
X0123709D02*
D03*
X0125677D02*
D03*
X0127646D02*
D03*
X0129614D02*
D03*
X0117803Y0148858D02*
D03*
Y0150827D02*
D03*
X0119772D02*
D03*
X0121740D02*
D03*
X0123709D02*
D03*
X0125677D02*
D03*
X0127646D02*
D03*
X0129614D02*
D03*
X0131583D02*
D03*
D39*
X0123512Y0126850D02*
D03*
X0113669D02*
D03*
D40*
X0120441Y0182315D02*
D03*
D41*
X0126248Y0176409D02*
D03*
X0114634D02*
D03*
D42*
X0200244Y0134921D02*
X0200362Y0135039D01*
Y0139154D01*
X0204181Y0134921D02*
X0204299Y0135039D01*
Y0139154D01*
X0187016Y0174016D02*
Y0176102D01*
Y0172953D02*
Y0174016D01*
X0182095Y0172953D02*
X0187016D01*
Y0174016D02*
X0187016Y0174016D01*
Y0169803D02*
Y0174016D01*
X0185047Y0184370D02*
Y0186102D01*
X0183945Y0187205D02*
X0185047Y0186102D01*
X0182134Y0187205D02*
X0183945D01*
X0180756Y0185827D02*
X0182134Y0187205D01*
X0180756Y0174291D02*
Y0185827D01*
Y0174291D02*
X0182095Y0172953D01*
D43*
X0148354Y0187638D02*
Y0188504D01*
D44*
X0148295Y0164725D02*
D03*
M02*
