G04*
G04 #@! TF.GenerationSoftware,Altium Limited,Altium Designer,19.1.6 (110)*
G04*
G04 Layer_Color=65535*
%FSAX25Y25*%
%MOIN*%
G70*
G01*
G75*
%ADD27C,0.00787*%
%ADD30C,0.01000*%
%ADD33C,0.00591*%
%ADD34C,0.00598*%
%ADD77C,0.00394*%
D27*
X0305589Y0340472D02*
G03*
X0305589Y0340472I0000435J0000000D01*
G01*
X0374457Y0329818D02*
Y0316818D01*
Y0329818D02*
X0368457D01*
Y0316818D01*
X0374457Y0317818D02*
X0368457D01*
X0374457Y0316818D02*
X0368457D01*
X0287522Y0338116D02*
X0276022D01*
Y0343616D02*
Y0338116D01*
X0287522Y0343616D02*
X0276022D01*
X0287522D02*
Y0338116D01*
X0288102Y0354267D02*
X0274102D01*
X0288102Y0362267D02*
Y0354267D01*
Y0362267D02*
X0274102D01*
Y0354267D01*
X0288102Y0362968D02*
X0274102D01*
X0288102Y0370968D02*
Y0362968D01*
Y0370968D02*
X0274102D01*
Y0362968D01*
X0305589Y0247558D02*
G03*
X0305589Y0247558I0000435J0000000D01*
G01*
X0374457Y0236905D02*
Y0223905D01*
Y0236905D02*
X0368457D01*
Y0223905D01*
X0374457Y0224905D02*
X0368457D01*
X0374457Y0223905D02*
X0368457D01*
X0287522Y0245202D02*
X0276022D01*
Y0250702D02*
Y0245202D01*
X0287522Y0250702D02*
X0276022D01*
X0287522D02*
Y0245202D01*
X0288102Y0261354D02*
X0274102D01*
X0288102Y0269354D02*
Y0261354D01*
Y0269354D02*
X0274102D01*
Y0261354D01*
X0288102Y0270055D02*
X0274102D01*
X0288102Y0278055D02*
Y0270055D01*
Y0278055D02*
X0274102D01*
Y0270055D01*
X0305589Y0154645D02*
G03*
X0305589Y0154645I0000435J0000000D01*
G01*
X0374457Y0143992D02*
Y0130992D01*
Y0143992D02*
X0368457D01*
Y0130992D01*
X0374457Y0131992D02*
X0368457D01*
X0374457Y0130992D02*
X0368457D01*
X0287522Y0152289D02*
X0276022D01*
Y0157789D02*
Y0152289D01*
X0287522Y0157789D02*
X0276022D01*
X0287522D02*
Y0152289D01*
X0288102Y0168440D02*
X0274102D01*
X0288102Y0176440D02*
Y0168440D01*
Y0176440D02*
X0274102D01*
Y0168440D01*
X0288102Y0177141D02*
X0274102D01*
X0288102Y0185141D02*
Y0177141D01*
Y0185141D02*
X0274102D01*
Y0177141D01*
X0158858Y0200591D02*
G03*
X0156890Y0198622I0000000J-0001969D01*
G01*
Y0127756D02*
G03*
X0158858Y0125787I0001969J0000000D01*
G01*
X0229724D02*
G03*
X0231693Y0127756I0000000J0001969D01*
G01*
X0158858Y0125787D02*
X0229724D01*
X0156890Y0127756D02*
Y0198622D01*
X0158858Y0200591D02*
X0223425D01*
X0231693Y0192323D01*
Y0127756D02*
Y0192323D01*
X0158858Y0293504D02*
G03*
X0156890Y0291535I0000000J-0001969D01*
G01*
Y0220669D02*
G03*
X0158858Y0218701I0001969J0000000D01*
G01*
X0229724D02*
G03*
X0231693Y0220669I0000000J0001969D01*
G01*
X0158858Y0218701D02*
X0229724D01*
X0156890Y0220669D02*
Y0291535D01*
X0158858Y0293504D02*
X0223425D01*
X0231693Y0285236D01*
Y0220669D02*
Y0285236D01*
X0158858Y0386417D02*
G03*
X0156890Y0384449I0000000J-0001969D01*
G01*
Y0313583D02*
G03*
X0158858Y0311614I0001969J0000000D01*
G01*
X0229724D02*
G03*
X0231693Y0313583I0000000J0001969D01*
G01*
X0158858Y0311614D02*
X0229724D01*
X0156890Y0313583D02*
Y0384449D01*
X0158858Y0386417D02*
X0223425D01*
X0231693Y0378150D01*
Y0313583D02*
Y0378150D01*
D30*
X0296062Y0363936D02*
G03*
X0296062Y0363936I0000473J0000000D01*
G01*
Y0271023D02*
G03*
X0296062Y0271023I0000473J0000000D01*
G01*
Y0178110D02*
G03*
X0296062Y0178110I0000473J0000000D01*
G01*
D33*
X0298242Y0324097D02*
X0298701Y0323638D01*
X0299620D01*
X0300079Y0324097D01*
Y0324557D01*
X0299620Y0325016D01*
X0298701D01*
X0298242Y0325475D01*
Y0325934D01*
X0298701Y0326393D01*
X0299620D01*
X0300079Y0325934D01*
X0297324Y0326393D02*
Y0324557D01*
X0296865D01*
X0296405Y0325016D01*
Y0326393D01*
Y0325016D01*
X0295946Y0324557D01*
X0295487Y0325016D01*
Y0326393D01*
X0294110Y0324557D02*
X0293191D01*
X0292732Y0325016D01*
Y0326393D01*
X0294110D01*
X0294569Y0325934D01*
X0294110Y0325475D01*
X0292732D01*
X0291814Y0324557D02*
Y0326393D01*
Y0325475D01*
X0291354Y0325016D01*
X0290895Y0324557D01*
X0290436D01*
X0288599Y0324097D02*
Y0324557D01*
X0289059D01*
X0288140D01*
X0288599D01*
Y0325934D01*
X0288140Y0326393D01*
X0286763Y0327312D02*
Y0324557D01*
X0285385D01*
X0284926Y0325016D01*
Y0325934D01*
X0285385Y0326393D01*
X0286763D01*
X0283548Y0324557D02*
X0282630D01*
X0282171Y0325016D01*
Y0326393D01*
X0283548D01*
X0284008Y0325934D01*
X0283548Y0325475D01*
X0282171D01*
X0281253Y0324557D02*
Y0326393D01*
Y0325475D01*
X0280793Y0325016D01*
X0280334Y0324557D01*
X0279875D01*
X0278498Y0326393D02*
Y0323638D01*
Y0325475D02*
X0277120Y0324557D01*
X0278498Y0325475D02*
X0277120Y0326393D01*
X0275743D02*
X0274365D01*
X0273906Y0325934D01*
X0274365Y0325475D01*
X0275284D01*
X0275743Y0325016D01*
X0275284Y0324557D01*
X0273906D01*
X0299620Y0332035D02*
X0298701D01*
X0298242Y0331576D01*
Y0330658D01*
X0298701Y0330198D01*
X0299620D01*
X0300079Y0330658D01*
Y0331576D01*
X0299620Y0332035D01*
X0297324Y0332953D02*
Y0330198D01*
X0295946D01*
X0295487Y0330658D01*
Y0331576D01*
X0295946Y0332035D01*
X0297324D01*
X0293191D02*
X0294110D01*
X0294569Y0331576D01*
Y0330658D01*
X0294110Y0330198D01*
X0293191D01*
X0292732Y0330658D01*
Y0331117D01*
X0294569D01*
X0291814Y0332035D02*
Y0330198D01*
X0290436D01*
X0289977Y0330658D01*
Y0332035D01*
X0287222Y0330198D02*
X0288599D01*
X0289059Y0330658D01*
Y0331576D01*
X0288599Y0332035D01*
X0287222D01*
X0285844D02*
X0284926D01*
X0284467Y0331576D01*
Y0330658D01*
X0284926Y0330198D01*
X0285844D01*
X0286304Y0330658D01*
Y0331576D01*
X0285844Y0332035D01*
X0283548D02*
X0282630D01*
X0283089D01*
Y0329280D01*
X0283548D01*
X0281253Y0332035D02*
X0280334D01*
X0280793D01*
Y0329280D01*
X0281253D01*
X0278498Y0330198D02*
X0277579D01*
X0277120Y0330658D01*
Y0332035D01*
X0278498D01*
X0278957Y0331576D01*
X0278498Y0331117D01*
X0277120D01*
X0276202Y0330198D02*
Y0332035D01*
Y0331117D01*
X0275743Y0330658D01*
X0275284Y0330198D01*
X0274824D01*
X0273447Y0332035D02*
Y0331576D01*
X0272988D01*
Y0332035D01*
X0273447D01*
X0271151D02*
X0270233D01*
X0270692D01*
Y0330198D01*
X0271151D01*
X0268396Y0332035D02*
X0267478D01*
X0267018Y0331576D01*
Y0330658D01*
X0267478Y0330198D01*
X0268396D01*
X0268855Y0330658D01*
Y0331576D01*
X0268396Y0332035D01*
X0300079Y0337677D02*
Y0334922D01*
X0298701D01*
X0298242Y0335381D01*
Y0336299D01*
X0298701Y0336758D01*
X0300079D01*
X0299160D02*
X0298242Y0337677D01*
X0297324Y0334922D02*
Y0337677D01*
Y0336299D01*
X0296865Y0335840D01*
X0295946D01*
X0295487Y0336299D01*
Y0337677D01*
X0294569D02*
X0293650D01*
X0294110D01*
Y0335840D01*
X0294569D01*
X0292273Y0337677D02*
Y0335840D01*
X0290895D01*
X0290436Y0336299D01*
Y0337677D01*
X0289059D02*
X0288140D01*
X0287681Y0337217D01*
Y0336299D01*
X0288140Y0335840D01*
X0289059D01*
X0289518Y0336299D01*
Y0337217D01*
X0289059Y0337677D01*
X0283548Y0335381D02*
Y0335840D01*
X0284008D01*
X0283089D01*
X0283548D01*
Y0337217D01*
X0283089Y0337677D01*
X0281712Y0335840D02*
Y0337677D01*
Y0336758D01*
X0281253Y0336299D01*
X0280793Y0335840D01*
X0280334D01*
X0278498D02*
X0277579D01*
X0277120Y0336299D01*
Y0337677D01*
X0278498D01*
X0278957Y0337217D01*
X0278498Y0336758D01*
X0277120D01*
X0274365Y0335840D02*
X0275743D01*
X0276202Y0336299D01*
Y0337217D01*
X0275743Y0337677D01*
X0274365D01*
X0273447D02*
Y0334922D01*
Y0336758D02*
X0272069Y0335840D01*
X0273447Y0336758D02*
X0272069Y0337677D01*
X0269314D02*
X0270233D01*
X0270692Y0337217D01*
Y0336299D01*
X0270233Y0335840D01*
X0269314D01*
X0268855Y0336299D01*
Y0336758D01*
X0270692D01*
X0267937Y0335840D02*
Y0337677D01*
Y0336758D01*
X0267478Y0336299D01*
X0267018Y0335840D01*
X0266559D01*
X0362795Y0336810D02*
X0365944D01*
Y0335236D01*
X0365419Y0334712D01*
X0364370D01*
X0363845Y0335236D01*
Y0336810D01*
Y0335761D02*
X0362795Y0334712D01*
Y0333662D02*
Y0332612D01*
Y0333137D01*
X0365944D01*
X0365419Y0333662D01*
X0362795Y0331038D02*
Y0329989D01*
Y0330513D01*
X0365944D01*
X0365419Y0331038D01*
X0365276Y0352126D02*
Y0348977D01*
X0363701D01*
X0363176Y0349502D01*
Y0350551D01*
X0363701Y0351076D01*
X0365276D01*
X0364226D02*
X0363176Y0352126D01*
X0362127D02*
X0361077D01*
X0361602D01*
Y0348977D01*
X0362127Y0349502D01*
X0357404Y0348977D02*
X0359503D01*
Y0350551D01*
X0358454Y0350026D01*
X0357929D01*
X0357404Y0350551D01*
Y0351601D01*
X0357929Y0352126D01*
X0358978D01*
X0359503Y0351601D01*
X0350197Y0328543D02*
X0353345D01*
Y0326969D01*
X0352821Y0326444D01*
X0351771D01*
X0351246Y0326969D01*
Y0328543D01*
Y0327493D02*
X0350197Y0326444D01*
Y0325394D02*
Y0324345D01*
Y0324869D01*
X0353345D01*
X0352821Y0325394D01*
X0350197Y0321196D02*
X0353345D01*
X0351771Y0322770D01*
Y0320671D01*
X0352165Y0334842D02*
Y0331693D01*
X0350591D01*
X0350066Y0332218D01*
Y0333268D01*
X0350591Y0333792D01*
X0352165D01*
X0351116D02*
X0350066Y0334842D01*
X0349017D02*
X0347967D01*
X0348492D01*
Y0331693D01*
X0349017Y0332218D01*
X0346393D02*
X0345868Y0331693D01*
X0344819D01*
X0344294Y0332218D01*
Y0332743D01*
X0344819Y0333268D01*
X0345343D01*
X0344819D01*
X0344294Y0333792D01*
Y0334317D01*
X0344819Y0334842D01*
X0345868D01*
X0346393Y0334317D01*
X0363976Y0328937D02*
X0367125D01*
Y0327362D01*
X0366600Y0326837D01*
X0365551D01*
X0365026Y0327362D01*
Y0328937D01*
Y0327887D02*
X0363976Y0326837D01*
Y0325788D02*
Y0324738D01*
Y0325263D01*
X0367125D01*
X0366600Y0325788D01*
Y0323164D02*
X0367125Y0322639D01*
Y0321590D01*
X0366600Y0321065D01*
X0364501D01*
X0363976Y0321590D01*
Y0322639D01*
X0364501Y0323164D01*
X0366600D01*
X0327232Y0329462D02*
X0327756Y0328938D01*
X0328806D01*
X0329331Y0329462D01*
Y0331561D01*
X0328806Y0332086D01*
X0327756D01*
X0327232Y0331561D01*
X0326182Y0329462D02*
X0325657Y0328938D01*
X0324608D01*
X0324083Y0329462D01*
Y0329987D01*
X0324608Y0330512D01*
X0325132D01*
X0324608D01*
X0324083Y0331037D01*
Y0331561D01*
X0324608Y0332086D01*
X0325657D01*
X0326182Y0331561D01*
X0373228Y0338111D02*
Y0341259D01*
X0371654D01*
X0371129Y0340735D01*
Y0340210D01*
X0371654Y0339685D01*
X0373228D01*
X0371654D01*
X0371129Y0339160D01*
Y0338635D01*
X0371654Y0338111D01*
X0373228D01*
X0370080Y0341259D02*
Y0339160D01*
X0369030Y0338111D01*
X0367981Y0339160D01*
Y0341259D01*
Y0339685D01*
X0370080D01*
X0366931Y0338111D02*
X0364832D01*
X0365882D01*
Y0341259D01*
X0363783D02*
X0362733D01*
X0363258D01*
Y0338111D01*
X0363783Y0338635D01*
X0308857Y0347440D02*
X0306233D01*
X0305709Y0346916D01*
Y0345866D01*
X0306233Y0345341D01*
X0308857D01*
X0305709Y0342718D02*
X0308857D01*
X0307283Y0344292D01*
Y0342193D01*
X0284724Y0352322D02*
Y0349174D01*
X0283150D01*
X0282625Y0349698D01*
Y0350748D01*
X0283150Y0351273D01*
X0284724D01*
X0283675D02*
X0282625Y0352322D01*
X0279477Y0349174D02*
X0280526Y0349698D01*
X0281576Y0350748D01*
Y0351798D01*
X0281051Y0352322D01*
X0280001D01*
X0279477Y0351798D01*
Y0351273D01*
X0280001Y0350748D01*
X0281576D01*
X0336417Y0339960D02*
X0339566D01*
Y0338386D01*
X0339041Y0337861D01*
X0337991D01*
X0337467Y0338386D01*
Y0339960D01*
Y0338911D02*
X0336417Y0337861D01*
Y0335237D02*
X0339566D01*
X0337991Y0336811D01*
Y0334713D01*
X0321457Y0332086D02*
Y0328938D01*
X0319882D01*
X0319357Y0329462D01*
Y0330512D01*
X0319882Y0331037D01*
X0321457D01*
X0320407D02*
X0319357Y0332086D01*
X0318308Y0329462D02*
X0317783Y0328938D01*
X0316734D01*
X0316209Y0329462D01*
Y0329987D01*
X0316734Y0330512D01*
X0317259D01*
X0316734D01*
X0316209Y0331037D01*
Y0331561D01*
X0316734Y0332086D01*
X0317783D01*
X0318308Y0331561D01*
X0373424Y0336810D02*
X0370275D01*
Y0335236D01*
X0370800Y0334712D01*
X0372899D01*
X0373424Y0335236D01*
Y0336810D01*
X0370275Y0333662D02*
Y0332612D01*
Y0333137D01*
X0373424D01*
X0372899Y0333662D01*
X0312663Y0341011D02*
X0313188Y0341535D01*
Y0342585D01*
X0312663Y0343110D01*
X0310564D01*
X0310039Y0342585D01*
Y0341535D01*
X0310564Y0341011D01*
X0310039Y0339961D02*
Y0338912D01*
Y0339436D01*
X0313188D01*
X0312663Y0339961D01*
X0313188Y0335238D02*
X0312663Y0336288D01*
X0311614Y0337337D01*
X0310564D01*
X0310039Y0336812D01*
Y0335763D01*
X0310564Y0335238D01*
X0311089D01*
X0311614Y0335763D01*
Y0337337D01*
X0282901Y0345446D02*
X0283426Y0344922D01*
X0284475D01*
X0285000Y0345446D01*
Y0347546D01*
X0284475Y0348070D01*
X0283426D01*
X0282901Y0347546D01*
X0281851Y0348070D02*
X0280802D01*
X0281327D01*
Y0344922D01*
X0281851Y0345446D01*
X0277128Y0344922D02*
X0279227D01*
Y0346496D01*
X0278178Y0345971D01*
X0277653D01*
X0277128Y0346496D01*
Y0347546D01*
X0277653Y0348070D01*
X0278703D01*
X0279227Y0347546D01*
X0341405Y0325919D02*
X0341930Y0325394D01*
X0342979D01*
X0343504Y0325919D01*
Y0328018D01*
X0342979Y0328543D01*
X0341930D01*
X0341405Y0328018D01*
X0340355Y0328543D02*
X0339306D01*
X0339830D01*
Y0325394D01*
X0340355Y0325919D01*
X0336157Y0328543D02*
Y0325394D01*
X0337731Y0326969D01*
X0335632D01*
X0317428Y0366155D02*
X0317953Y0365630D01*
X0319003D01*
X0319528Y0366155D01*
Y0368254D01*
X0319003Y0368779D01*
X0317953D01*
X0317428Y0368254D01*
X0316379Y0368779D02*
X0315329D01*
X0315854D01*
Y0365630D01*
X0316379Y0366155D01*
X0313755D02*
X0313230Y0365630D01*
X0312181D01*
X0311656Y0366155D01*
Y0368254D01*
X0312181Y0368779D01*
X0313230D01*
X0313755Y0368254D01*
Y0366155D01*
X0326482Y0341798D02*
X0327007Y0342323D01*
Y0343372D01*
X0326482Y0343897D01*
X0324383D01*
X0323858Y0343372D01*
Y0342323D01*
X0324383Y0341798D01*
X0327007Y0340749D02*
Y0338650D01*
X0326482D01*
X0324383Y0340749D01*
X0323858D01*
X0270854Y0355604D02*
X0271378Y0355079D01*
X0272428D01*
X0272953Y0355604D01*
Y0357703D01*
X0272428Y0358228D01*
X0271378D01*
X0270854Y0357703D01*
X0267705Y0358228D02*
X0269804D01*
X0267705Y0356129D01*
Y0355604D01*
X0268230Y0355079D01*
X0269279D01*
X0269804Y0355604D01*
X0270854Y0359502D02*
X0271378Y0358977D01*
X0272428D01*
X0272953Y0359502D01*
Y0361601D01*
X0272428Y0362125D01*
X0271378D01*
X0270854Y0361601D01*
X0269804Y0362125D02*
X0268755D01*
X0269279D01*
Y0358977D01*
X0269804Y0359502D01*
X0298242Y0231184D02*
X0298701Y0230725D01*
X0299620D01*
X0300079Y0231184D01*
Y0231643D01*
X0299620Y0232102D01*
X0298701D01*
X0298242Y0232562D01*
Y0233021D01*
X0298701Y0233480D01*
X0299620D01*
X0300079Y0233021D01*
X0297324Y0233480D02*
Y0231643D01*
X0296865D01*
X0296405Y0232102D01*
Y0233480D01*
Y0232102D01*
X0295946Y0231643D01*
X0295487Y0232102D01*
Y0233480D01*
X0294110Y0231643D02*
X0293191D01*
X0292732Y0232102D01*
Y0233480D01*
X0294110D01*
X0294569Y0233021D01*
X0294110Y0232562D01*
X0292732D01*
X0291814Y0231643D02*
Y0233480D01*
Y0232562D01*
X0291354Y0232102D01*
X0290895Y0231643D01*
X0290436D01*
X0288599Y0231184D02*
Y0231643D01*
X0289059D01*
X0288140D01*
X0288599D01*
Y0233021D01*
X0288140Y0233480D01*
X0286763Y0234398D02*
Y0231643D01*
X0285385D01*
X0284926Y0232102D01*
Y0233021D01*
X0285385Y0233480D01*
X0286763D01*
X0283548Y0231643D02*
X0282630D01*
X0282171Y0232102D01*
Y0233480D01*
X0283548D01*
X0284008Y0233021D01*
X0283548Y0232562D01*
X0282171D01*
X0281253Y0231643D02*
Y0233480D01*
Y0232562D01*
X0280793Y0232102D01*
X0280334Y0231643D01*
X0279875D01*
X0278498Y0233480D02*
Y0230725D01*
Y0232562D02*
X0277120Y0231643D01*
X0278498Y0232562D02*
X0277120Y0233480D01*
X0275743D02*
X0274365D01*
X0273906Y0233021D01*
X0274365Y0232562D01*
X0275284D01*
X0275743Y0232102D01*
X0275284Y0231643D01*
X0273906D01*
X0299620Y0239122D02*
X0298701D01*
X0298242Y0238662D01*
Y0237744D01*
X0298701Y0237285D01*
X0299620D01*
X0300079Y0237744D01*
Y0238662D01*
X0299620Y0239122D01*
X0297324Y0240040D02*
Y0237285D01*
X0295946D01*
X0295487Y0237744D01*
Y0238662D01*
X0295946Y0239122D01*
X0297324D01*
X0293191D02*
X0294110D01*
X0294569Y0238662D01*
Y0237744D01*
X0294110Y0237285D01*
X0293191D01*
X0292732Y0237744D01*
Y0238203D01*
X0294569D01*
X0291814Y0239122D02*
Y0237285D01*
X0290436D01*
X0289977Y0237744D01*
Y0239122D01*
X0287222Y0237285D02*
X0288599D01*
X0289059Y0237744D01*
Y0238662D01*
X0288599Y0239122D01*
X0287222D01*
X0285844D02*
X0284926D01*
X0284467Y0238662D01*
Y0237744D01*
X0284926Y0237285D01*
X0285844D01*
X0286304Y0237744D01*
Y0238662D01*
X0285844Y0239122D01*
X0283548D02*
X0282630D01*
X0283089D01*
Y0236367D01*
X0283548D01*
X0281253Y0239122D02*
X0280334D01*
X0280793D01*
Y0236367D01*
X0281253D01*
X0278498Y0237285D02*
X0277579D01*
X0277120Y0237744D01*
Y0239122D01*
X0278498D01*
X0278957Y0238662D01*
X0278498Y0238203D01*
X0277120D01*
X0276202Y0237285D02*
Y0239122D01*
Y0238203D01*
X0275743Y0237744D01*
X0275284Y0237285D01*
X0274824D01*
X0273447Y0239122D02*
Y0238662D01*
X0272988D01*
Y0239122D01*
X0273447D01*
X0271151D02*
X0270233D01*
X0270692D01*
Y0237285D01*
X0271151D01*
X0268396Y0239122D02*
X0267478D01*
X0267018Y0238662D01*
Y0237744D01*
X0267478Y0237285D01*
X0268396D01*
X0268855Y0237744D01*
Y0238662D01*
X0268396Y0239122D01*
X0300079Y0244763D02*
Y0242008D01*
X0298701D01*
X0298242Y0242467D01*
Y0243386D01*
X0298701Y0243845D01*
X0300079D01*
X0299160D02*
X0298242Y0244763D01*
X0297324Y0242008D02*
Y0244763D01*
Y0243386D01*
X0296865Y0242927D01*
X0295946D01*
X0295487Y0243386D01*
Y0244763D01*
X0294569D02*
X0293650D01*
X0294110D01*
Y0242927D01*
X0294569D01*
X0292273Y0244763D02*
Y0242927D01*
X0290895D01*
X0290436Y0243386D01*
Y0244763D01*
X0289059D02*
X0288140D01*
X0287681Y0244304D01*
Y0243386D01*
X0288140Y0242927D01*
X0289059D01*
X0289518Y0243386D01*
Y0244304D01*
X0289059Y0244763D01*
X0283548Y0242467D02*
Y0242927D01*
X0284008D01*
X0283089D01*
X0283548D01*
Y0244304D01*
X0283089Y0244763D01*
X0281712Y0242927D02*
Y0244763D01*
Y0243845D01*
X0281253Y0243386D01*
X0280793Y0242927D01*
X0280334D01*
X0278498D02*
X0277579D01*
X0277120Y0243386D01*
Y0244763D01*
X0278498D01*
X0278957Y0244304D01*
X0278498Y0243845D01*
X0277120D01*
X0274365Y0242927D02*
X0275743D01*
X0276202Y0243386D01*
Y0244304D01*
X0275743Y0244763D01*
X0274365D01*
X0273447D02*
Y0242008D01*
Y0243845D02*
X0272069Y0242927D01*
X0273447Y0243845D02*
X0272069Y0244763D01*
X0269314D02*
X0270233D01*
X0270692Y0244304D01*
Y0243386D01*
X0270233Y0242927D01*
X0269314D01*
X0268855Y0243386D01*
Y0243845D01*
X0270692D01*
X0267937Y0242927D02*
Y0244763D01*
Y0243845D01*
X0267478Y0243386D01*
X0267018Y0242927D01*
X0266559D01*
X0362795Y0243897D02*
X0365944D01*
Y0242323D01*
X0365419Y0241798D01*
X0364370D01*
X0363845Y0242323D01*
Y0243897D01*
Y0242848D02*
X0362795Y0241798D01*
Y0240749D02*
Y0239699D01*
Y0240224D01*
X0365944D01*
X0365419Y0240749D01*
X0362795Y0238125D02*
Y0237075D01*
Y0237600D01*
X0365944D01*
X0365419Y0238125D01*
X0365276Y0259212D02*
Y0256064D01*
X0363701D01*
X0363176Y0256588D01*
Y0257638D01*
X0363701Y0258162D01*
X0365276D01*
X0364226D02*
X0363176Y0259212D01*
X0362127D02*
X0361077D01*
X0361602D01*
Y0256064D01*
X0362127Y0256588D01*
X0357404Y0256064D02*
X0359503D01*
Y0257638D01*
X0358454Y0257113D01*
X0357929D01*
X0357404Y0257638D01*
Y0258687D01*
X0357929Y0259212D01*
X0358978D01*
X0359503Y0258687D01*
X0350197Y0235629D02*
X0353345D01*
Y0234055D01*
X0352821Y0233530D01*
X0351771D01*
X0351246Y0234055D01*
Y0235629D01*
Y0234580D02*
X0350197Y0233530D01*
Y0232481D02*
Y0231431D01*
Y0231956D01*
X0353345D01*
X0352821Y0232481D01*
X0350197Y0228283D02*
X0353345D01*
X0351771Y0229857D01*
Y0227758D01*
X0352165Y0241929D02*
Y0238780D01*
X0350591D01*
X0350066Y0239305D01*
Y0240354D01*
X0350591Y0240879D01*
X0352165D01*
X0351116D02*
X0350066Y0241929D01*
X0349017D02*
X0347967D01*
X0348492D01*
Y0238780D01*
X0349017Y0239305D01*
X0346393D02*
X0345868Y0238780D01*
X0344819D01*
X0344294Y0239305D01*
Y0239829D01*
X0344819Y0240354D01*
X0345343D01*
X0344819D01*
X0344294Y0240879D01*
Y0241404D01*
X0344819Y0241929D01*
X0345868D01*
X0346393Y0241404D01*
X0363976Y0236023D02*
X0367125D01*
Y0234449D01*
X0366600Y0233924D01*
X0365551D01*
X0365026Y0234449D01*
Y0236023D01*
Y0234974D02*
X0363976Y0233924D01*
Y0232874D02*
Y0231825D01*
Y0232350D01*
X0367125D01*
X0366600Y0232874D01*
Y0230251D02*
X0367125Y0229726D01*
Y0228676D01*
X0366600Y0228152D01*
X0364501D01*
X0363976Y0228676D01*
Y0229726D01*
X0364501Y0230251D01*
X0366600D01*
X0327232Y0236549D02*
X0327756Y0236024D01*
X0328806D01*
X0329331Y0236549D01*
Y0238648D01*
X0328806Y0239173D01*
X0327756D01*
X0327232Y0238648D01*
X0326182Y0236549D02*
X0325657Y0236024D01*
X0324608D01*
X0324083Y0236549D01*
Y0237074D01*
X0324608Y0237598D01*
X0325132D01*
X0324608D01*
X0324083Y0238123D01*
Y0238648D01*
X0324608Y0239173D01*
X0325657D01*
X0326182Y0238648D01*
X0373228Y0245197D02*
Y0248346D01*
X0371654D01*
X0371129Y0247821D01*
Y0247296D01*
X0371654Y0246772D01*
X0373228D01*
X0371654D01*
X0371129Y0246247D01*
Y0245722D01*
X0371654Y0245197D01*
X0373228D01*
X0370080Y0248346D02*
Y0246247D01*
X0369030Y0245197D01*
X0367981Y0246247D01*
Y0248346D01*
Y0246772D01*
X0370080D01*
X0366931Y0245197D02*
X0364832D01*
X0365882D01*
Y0248346D01*
X0363783D02*
X0362733D01*
X0363258D01*
Y0245197D01*
X0363783Y0245722D01*
X0308857Y0254527D02*
X0306233D01*
X0305709Y0254002D01*
Y0252953D01*
X0306233Y0252428D01*
X0308857D01*
X0305709Y0249804D02*
X0308857D01*
X0307283Y0251378D01*
Y0249279D01*
X0284724Y0259409D02*
Y0256260D01*
X0283150D01*
X0282625Y0256785D01*
Y0257835D01*
X0283150Y0258359D01*
X0284724D01*
X0283675D02*
X0282625Y0259409D01*
X0279477Y0256260D02*
X0280526Y0256785D01*
X0281576Y0257835D01*
Y0258884D01*
X0281051Y0259409D01*
X0280001D01*
X0279477Y0258884D01*
Y0258359D01*
X0280001Y0257835D01*
X0281576D01*
X0336417Y0247047D02*
X0339566D01*
Y0245472D01*
X0339041Y0244948D01*
X0337991D01*
X0337467Y0245472D01*
Y0247047D01*
Y0245997D02*
X0336417Y0244948D01*
Y0242324D02*
X0339566D01*
X0337991Y0243898D01*
Y0241799D01*
X0321457Y0239173D02*
Y0236024D01*
X0319882D01*
X0319357Y0236549D01*
Y0237598D01*
X0319882Y0238123D01*
X0321457D01*
X0320407D02*
X0319357Y0239173D01*
X0318308Y0236549D02*
X0317783Y0236024D01*
X0316734D01*
X0316209Y0236549D01*
Y0237074D01*
X0316734Y0237598D01*
X0317259D01*
X0316734D01*
X0316209Y0238123D01*
Y0238648D01*
X0316734Y0239173D01*
X0317783D01*
X0318308Y0238648D01*
X0373424Y0243897D02*
X0370275D01*
Y0242323D01*
X0370800Y0241798D01*
X0372899D01*
X0373424Y0242323D01*
Y0243897D01*
X0370275Y0240749D02*
Y0239699D01*
Y0240224D01*
X0373424D01*
X0372899Y0240749D01*
X0312663Y0248097D02*
X0313188Y0248622D01*
Y0249672D01*
X0312663Y0250196D01*
X0310564D01*
X0310039Y0249672D01*
Y0248622D01*
X0310564Y0248097D01*
X0310039Y0247048D02*
Y0245998D01*
Y0246523D01*
X0313188D01*
X0312663Y0247048D01*
X0313188Y0242325D02*
X0312663Y0243374D01*
X0311614Y0244424D01*
X0310564D01*
X0310039Y0243899D01*
Y0242850D01*
X0310564Y0242325D01*
X0311089D01*
X0311614Y0242850D01*
Y0244424D01*
X0282901Y0252533D02*
X0283426Y0252008D01*
X0284475D01*
X0285000Y0252533D01*
Y0254632D01*
X0284475Y0255157D01*
X0283426D01*
X0282901Y0254632D01*
X0281851Y0255157D02*
X0280802D01*
X0281327D01*
Y0252008D01*
X0281851Y0252533D01*
X0277128Y0252008D02*
X0279227D01*
Y0253583D01*
X0278178Y0253058D01*
X0277653D01*
X0277128Y0253583D01*
Y0254632D01*
X0277653Y0255157D01*
X0278703D01*
X0279227Y0254632D01*
X0341405Y0233005D02*
X0341930Y0232481D01*
X0342979D01*
X0343504Y0233005D01*
Y0235105D01*
X0342979Y0235629D01*
X0341930D01*
X0341405Y0235105D01*
X0340355Y0235629D02*
X0339306D01*
X0339830D01*
Y0232481D01*
X0340355Y0233005D01*
X0336157Y0235629D02*
Y0232481D01*
X0337731Y0234055D01*
X0335632D01*
X0317428Y0273242D02*
X0317953Y0272717D01*
X0319003D01*
X0319528Y0273242D01*
Y0275341D01*
X0319003Y0275866D01*
X0317953D01*
X0317428Y0275341D01*
X0316379Y0275866D02*
X0315329D01*
X0315854D01*
Y0272717D01*
X0316379Y0273242D01*
X0313755D02*
X0313230Y0272717D01*
X0312181D01*
X0311656Y0273242D01*
Y0275341D01*
X0312181Y0275866D01*
X0313230D01*
X0313755Y0275341D01*
Y0273242D01*
X0326482Y0248885D02*
X0327007Y0249409D01*
Y0250459D01*
X0326482Y0250984D01*
X0324383D01*
X0323858Y0250459D01*
Y0249409D01*
X0324383Y0248885D01*
X0327007Y0247835D02*
Y0245736D01*
X0326482D01*
X0324383Y0247835D01*
X0323858D01*
X0270854Y0262691D02*
X0271378Y0262166D01*
X0272428D01*
X0272953Y0262691D01*
Y0264790D01*
X0272428Y0265314D01*
X0271378D01*
X0270854Y0264790D01*
X0267705Y0265314D02*
X0269804D01*
X0267705Y0263215D01*
Y0262691D01*
X0268230Y0262166D01*
X0269279D01*
X0269804Y0262691D01*
X0270854Y0266588D02*
X0271378Y0266063D01*
X0272428D01*
X0272953Y0266588D01*
Y0268687D01*
X0272428Y0269212D01*
X0271378D01*
X0270854Y0268687D01*
X0269804Y0269212D02*
X0268755D01*
X0269279D01*
Y0266063D01*
X0269804Y0266588D01*
X0298242Y0138271D02*
X0298701Y0137812D01*
X0299620D01*
X0300079Y0138271D01*
Y0138730D01*
X0299620Y0139189D01*
X0298701D01*
X0298242Y0139648D01*
Y0140107D01*
X0298701Y0140567D01*
X0299620D01*
X0300079Y0140107D01*
X0297324Y0140567D02*
Y0138730D01*
X0296865D01*
X0296405Y0139189D01*
Y0140567D01*
Y0139189D01*
X0295946Y0138730D01*
X0295487Y0139189D01*
Y0140567D01*
X0294110Y0138730D02*
X0293191D01*
X0292732Y0139189D01*
Y0140567D01*
X0294110D01*
X0294569Y0140107D01*
X0294110Y0139648D01*
X0292732D01*
X0291814Y0138730D02*
Y0140567D01*
Y0139648D01*
X0291354Y0139189D01*
X0290895Y0138730D01*
X0290436D01*
X0288599Y0138271D02*
Y0138730D01*
X0289059D01*
X0288140D01*
X0288599D01*
Y0140107D01*
X0288140Y0140567D01*
X0286763Y0141485D02*
Y0138730D01*
X0285385D01*
X0284926Y0139189D01*
Y0140107D01*
X0285385Y0140567D01*
X0286763D01*
X0283548Y0138730D02*
X0282630D01*
X0282171Y0139189D01*
Y0140567D01*
X0283548D01*
X0284008Y0140107D01*
X0283548Y0139648D01*
X0282171D01*
X0281253Y0138730D02*
Y0140567D01*
Y0139648D01*
X0280793Y0139189D01*
X0280334Y0138730D01*
X0279875D01*
X0278498Y0140567D02*
Y0137812D01*
Y0139648D02*
X0277120Y0138730D01*
X0278498Y0139648D02*
X0277120Y0140567D01*
X0275743D02*
X0274365D01*
X0273906Y0140107D01*
X0274365Y0139648D01*
X0275284D01*
X0275743Y0139189D01*
X0275284Y0138730D01*
X0273906D01*
X0299620Y0146208D02*
X0298701D01*
X0298242Y0145749D01*
Y0144831D01*
X0298701Y0144371D01*
X0299620D01*
X0300079Y0144831D01*
Y0145749D01*
X0299620Y0146208D01*
X0297324Y0147126D02*
Y0144371D01*
X0295946D01*
X0295487Y0144831D01*
Y0145749D01*
X0295946Y0146208D01*
X0297324D01*
X0293191D02*
X0294110D01*
X0294569Y0145749D01*
Y0144831D01*
X0294110Y0144371D01*
X0293191D01*
X0292732Y0144831D01*
Y0145290D01*
X0294569D01*
X0291814Y0146208D02*
Y0144371D01*
X0290436D01*
X0289977Y0144831D01*
Y0146208D01*
X0287222Y0144371D02*
X0288599D01*
X0289059Y0144831D01*
Y0145749D01*
X0288599Y0146208D01*
X0287222D01*
X0285844D02*
X0284926D01*
X0284467Y0145749D01*
Y0144831D01*
X0284926Y0144371D01*
X0285844D01*
X0286304Y0144831D01*
Y0145749D01*
X0285844Y0146208D01*
X0283548D02*
X0282630D01*
X0283089D01*
Y0143453D01*
X0283548D01*
X0281253Y0146208D02*
X0280334D01*
X0280793D01*
Y0143453D01*
X0281253D01*
X0278498Y0144371D02*
X0277579D01*
X0277120Y0144831D01*
Y0146208D01*
X0278498D01*
X0278957Y0145749D01*
X0278498Y0145290D01*
X0277120D01*
X0276202Y0144371D02*
Y0146208D01*
Y0145290D01*
X0275743Y0144831D01*
X0275284Y0144371D01*
X0274824D01*
X0273447Y0146208D02*
Y0145749D01*
X0272988D01*
Y0146208D01*
X0273447D01*
X0271151D02*
X0270233D01*
X0270692D01*
Y0144371D01*
X0271151D01*
X0268396Y0146208D02*
X0267478D01*
X0267018Y0145749D01*
Y0144831D01*
X0267478Y0144371D01*
X0268396D01*
X0268855Y0144831D01*
Y0145749D01*
X0268396Y0146208D01*
X0300079Y0151850D02*
Y0149095D01*
X0298701D01*
X0298242Y0149554D01*
Y0150472D01*
X0298701Y0150932D01*
X0300079D01*
X0299160D02*
X0298242Y0151850D01*
X0297324Y0149095D02*
Y0151850D01*
Y0150472D01*
X0296865Y0150013D01*
X0295946D01*
X0295487Y0150472D01*
Y0151850D01*
X0294569D02*
X0293650D01*
X0294110D01*
Y0150013D01*
X0294569D01*
X0292273Y0151850D02*
Y0150013D01*
X0290895D01*
X0290436Y0150472D01*
Y0151850D01*
X0289059D02*
X0288140D01*
X0287681Y0151391D01*
Y0150472D01*
X0288140Y0150013D01*
X0289059D01*
X0289518Y0150472D01*
Y0151391D01*
X0289059Y0151850D01*
X0283548Y0149554D02*
Y0150013D01*
X0284008D01*
X0283089D01*
X0283548D01*
Y0151391D01*
X0283089Y0151850D01*
X0281712Y0150013D02*
Y0151850D01*
Y0150932D01*
X0281253Y0150472D01*
X0280793Y0150013D01*
X0280334D01*
X0278498D02*
X0277579D01*
X0277120Y0150472D01*
Y0151850D01*
X0278498D01*
X0278957Y0151391D01*
X0278498Y0150932D01*
X0277120D01*
X0274365Y0150013D02*
X0275743D01*
X0276202Y0150472D01*
Y0151391D01*
X0275743Y0151850D01*
X0274365D01*
X0273447D02*
Y0149095D01*
Y0150932D02*
X0272069Y0150013D01*
X0273447Y0150932D02*
X0272069Y0151850D01*
X0269314D02*
X0270233D01*
X0270692Y0151391D01*
Y0150472D01*
X0270233Y0150013D01*
X0269314D01*
X0268855Y0150472D01*
Y0150932D01*
X0270692D01*
X0267937Y0150013D02*
Y0151850D01*
Y0150932D01*
X0267478Y0150472D01*
X0267018Y0150013D01*
X0266559D01*
X0362795Y0150984D02*
X0365944D01*
Y0149409D01*
X0365419Y0148885D01*
X0364370D01*
X0363845Y0149409D01*
Y0150984D01*
Y0149934D02*
X0362795Y0148885D01*
Y0147835D02*
Y0146786D01*
Y0147310D01*
X0365944D01*
X0365419Y0147835D01*
X0362795Y0145211D02*
Y0144162D01*
Y0144686D01*
X0365944D01*
X0365419Y0145211D01*
X0365276Y0166299D02*
Y0163150D01*
X0363701D01*
X0363176Y0163675D01*
Y0164724D01*
X0363701Y0165249D01*
X0365276D01*
X0364226D02*
X0363176Y0166299D01*
X0362127D02*
X0361077D01*
X0361602D01*
Y0163150D01*
X0362127Y0163675D01*
X0357404Y0163150D02*
X0359503D01*
Y0164724D01*
X0358454Y0164200D01*
X0357929D01*
X0357404Y0164724D01*
Y0165774D01*
X0357929Y0166299D01*
X0358978D01*
X0359503Y0165774D01*
X0350197Y0142716D02*
X0353345D01*
Y0141142D01*
X0352821Y0140617D01*
X0351771D01*
X0351246Y0141142D01*
Y0142716D01*
Y0141666D02*
X0350197Y0140617D01*
Y0139567D02*
Y0138518D01*
Y0139043D01*
X0353345D01*
X0352821Y0139567D01*
X0350197Y0135369D02*
X0353345D01*
X0351771Y0136944D01*
Y0134845D01*
X0352165Y0149015D02*
Y0145867D01*
X0350591D01*
X0350066Y0146391D01*
Y0147441D01*
X0350591Y0147966D01*
X0352165D01*
X0351116D02*
X0350066Y0149015D01*
X0349017D02*
X0347967D01*
X0348492D01*
Y0145867D01*
X0349017Y0146391D01*
X0346393D02*
X0345868Y0145867D01*
X0344819D01*
X0344294Y0146391D01*
Y0146916D01*
X0344819Y0147441D01*
X0345343D01*
X0344819D01*
X0344294Y0147966D01*
Y0148490D01*
X0344819Y0149015D01*
X0345868D01*
X0346393Y0148490D01*
X0363976Y0143110D02*
X0367125D01*
Y0141535D01*
X0366600Y0141011D01*
X0365551D01*
X0365026Y0141535D01*
Y0143110D01*
Y0142060D02*
X0363976Y0141011D01*
Y0139961D02*
Y0138912D01*
Y0139436D01*
X0367125D01*
X0366600Y0139961D01*
Y0137337D02*
X0367125Y0136812D01*
Y0135763D01*
X0366600Y0135238D01*
X0364501D01*
X0363976Y0135763D01*
Y0136812D01*
X0364501Y0137337D01*
X0366600D01*
X0327232Y0143635D02*
X0327756Y0143111D01*
X0328806D01*
X0329331Y0143635D01*
Y0145735D01*
X0328806Y0146259D01*
X0327756D01*
X0327232Y0145735D01*
X0326182Y0143635D02*
X0325657Y0143111D01*
X0324608D01*
X0324083Y0143635D01*
Y0144160D01*
X0324608Y0144685D01*
X0325132D01*
X0324608D01*
X0324083Y0145210D01*
Y0145735D01*
X0324608Y0146259D01*
X0325657D01*
X0326182Y0145735D01*
X0373228Y0152284D02*
Y0155432D01*
X0371654D01*
X0371129Y0154908D01*
Y0154383D01*
X0371654Y0153858D01*
X0373228D01*
X0371654D01*
X0371129Y0153333D01*
Y0152809D01*
X0371654Y0152284D01*
X0373228D01*
X0370080Y0155432D02*
Y0153333D01*
X0369030Y0152284D01*
X0367981Y0153333D01*
Y0155432D01*
Y0153858D01*
X0370080D01*
X0366931Y0152284D02*
X0364832D01*
X0365882D01*
Y0155432D01*
X0363783D02*
X0362733D01*
X0363258D01*
Y0152284D01*
X0363783Y0152809D01*
X0308857Y0161614D02*
X0306233D01*
X0305709Y0161089D01*
Y0160039D01*
X0306233Y0159515D01*
X0308857D01*
X0305709Y0156891D02*
X0308857D01*
X0307283Y0158465D01*
Y0156366D01*
X0284724Y0166496D02*
Y0163347D01*
X0283150D01*
X0282625Y0163872D01*
Y0164921D01*
X0283150Y0165446D01*
X0284724D01*
X0283675D02*
X0282625Y0166496D01*
X0279477Y0163347D02*
X0280526Y0163872D01*
X0281576Y0164921D01*
Y0165971D01*
X0281051Y0166496D01*
X0280001D01*
X0279477Y0165971D01*
Y0165446D01*
X0280001Y0164921D01*
X0281576D01*
X0336417Y0154133D02*
X0339566D01*
Y0152559D01*
X0339041Y0152034D01*
X0337991D01*
X0337467Y0152559D01*
Y0154133D01*
Y0153084D02*
X0336417Y0152034D01*
Y0149410D02*
X0339566D01*
X0337991Y0150985D01*
Y0148886D01*
X0321457Y0146259D02*
Y0143111D01*
X0319882D01*
X0319357Y0143635D01*
Y0144685D01*
X0319882Y0145210D01*
X0321457D01*
X0320407D02*
X0319357Y0146259D01*
X0318308Y0143635D02*
X0317783Y0143111D01*
X0316734D01*
X0316209Y0143635D01*
Y0144160D01*
X0316734Y0144685D01*
X0317259D01*
X0316734D01*
X0316209Y0145210D01*
Y0145735D01*
X0316734Y0146259D01*
X0317783D01*
X0318308Y0145735D01*
X0373424Y0150984D02*
X0370275D01*
Y0149409D01*
X0370800Y0148885D01*
X0372899D01*
X0373424Y0149409D01*
Y0150984D01*
X0370275Y0147835D02*
Y0146786D01*
Y0147310D01*
X0373424D01*
X0372899Y0147835D01*
X0312663Y0155184D02*
X0313188Y0155709D01*
Y0156758D01*
X0312663Y0157283D01*
X0310564D01*
X0310039Y0156758D01*
Y0155709D01*
X0310564Y0155184D01*
X0310039Y0154134D02*
Y0153085D01*
Y0153610D01*
X0313188D01*
X0312663Y0154134D01*
X0313188Y0149411D02*
X0312663Y0150461D01*
X0311614Y0151511D01*
X0310564D01*
X0310039Y0150986D01*
Y0149936D01*
X0310564Y0149411D01*
X0311089D01*
X0311614Y0149936D01*
Y0151511D01*
X0282901Y0159620D02*
X0283426Y0159095D01*
X0284475D01*
X0285000Y0159620D01*
Y0161719D01*
X0284475Y0162243D01*
X0283426D01*
X0282901Y0161719D01*
X0281851Y0162243D02*
X0280802D01*
X0281327D01*
Y0159095D01*
X0281851Y0159620D01*
X0277128Y0159095D02*
X0279227D01*
Y0160669D01*
X0278178Y0160144D01*
X0277653D01*
X0277128Y0160669D01*
Y0161719D01*
X0277653Y0162243D01*
X0278703D01*
X0279227Y0161719D01*
X0341405Y0140092D02*
X0341930Y0139567D01*
X0342979D01*
X0343504Y0140092D01*
Y0142191D01*
X0342979Y0142716D01*
X0341930D01*
X0341405Y0142191D01*
X0340355Y0142716D02*
X0339306D01*
X0339830D01*
Y0139567D01*
X0340355Y0140092D01*
X0336157Y0142716D02*
Y0139567D01*
X0337731Y0141142D01*
X0335632D01*
X0317428Y0180328D02*
X0317953Y0179804D01*
X0319003D01*
X0319528Y0180328D01*
Y0182427D01*
X0319003Y0182952D01*
X0317953D01*
X0317428Y0182427D01*
X0316379Y0182952D02*
X0315329D01*
X0315854D01*
Y0179804D01*
X0316379Y0180328D01*
X0313755D02*
X0313230Y0179804D01*
X0312181D01*
X0311656Y0180328D01*
Y0182427D01*
X0312181Y0182952D01*
X0313230D01*
X0313755Y0182427D01*
Y0180328D01*
X0326482Y0155971D02*
X0327007Y0156496D01*
Y0157545D01*
X0326482Y0158070D01*
X0324383D01*
X0323858Y0157545D01*
Y0156496D01*
X0324383Y0155971D01*
X0327007Y0154922D02*
Y0152823D01*
X0326482D01*
X0324383Y0154922D01*
X0323858D01*
X0270854Y0169777D02*
X0271378Y0169252D01*
X0272428D01*
X0272953Y0169777D01*
Y0171876D01*
X0272428Y0172401D01*
X0271378D01*
X0270854Y0171876D01*
X0267705Y0172401D02*
X0269804D01*
X0267705Y0170302D01*
Y0169777D01*
X0268230Y0169252D01*
X0269279D01*
X0269804Y0169777D01*
X0270854Y0173675D02*
X0271378Y0173150D01*
X0272428D01*
X0272953Y0173675D01*
Y0175774D01*
X0272428Y0176299D01*
X0271378D01*
X0270854Y0175774D01*
X0269804Y0176299D02*
X0268755D01*
X0269279D01*
Y0173150D01*
X0269804Y0173675D01*
X0140358Y0128201D02*
X0139834Y0127677D01*
Y0126627D01*
X0140358Y0126102D01*
X0140883D01*
X0141408Y0126627D01*
Y0127677D01*
X0141933Y0128201D01*
X0142457D01*
X0142982Y0127677D01*
Y0126627D01*
X0142457Y0126102D01*
X0142982Y0129251D02*
X0140883D01*
Y0129776D01*
X0141408Y0130300D01*
X0142982D01*
X0141408D01*
X0140883Y0130825D01*
X0141408Y0131350D01*
X0142982D01*
X0140883Y0132924D02*
Y0133974D01*
X0141408Y0134499D01*
X0142982D01*
Y0132924D01*
X0142457Y0132400D01*
X0141933Y0132924D01*
Y0134499D01*
X0140883Y0135548D02*
X0142982D01*
X0141933D01*
X0141408Y0136073D01*
X0140883Y0136598D01*
Y0137122D01*
X0140358Y0139222D02*
X0140883D01*
Y0138697D01*
Y0139746D01*
Y0139222D01*
X0142457D01*
X0142982Y0139746D01*
X0144032Y0141321D02*
X0140883D01*
Y0142895D01*
X0141408Y0143420D01*
X0142457D01*
X0142982Y0142895D01*
Y0141321D01*
X0140883Y0144994D02*
Y0146044D01*
X0141408Y0146568D01*
X0142982D01*
Y0144994D01*
X0142457Y0144469D01*
X0141933Y0144994D01*
Y0146568D01*
X0140883Y0147618D02*
X0142982D01*
X0141933D01*
X0141408Y0148143D01*
X0140883Y0148667D01*
Y0149192D01*
X0142982Y0150766D02*
X0139834D01*
X0141933D02*
X0140883Y0152341D01*
X0141933Y0150766D02*
X0142982Y0152341D01*
Y0153915D02*
Y0155489D01*
X0142457Y0156014D01*
X0141933Y0155489D01*
Y0154440D01*
X0141408Y0153915D01*
X0140883Y0154440D01*
Y0156014D01*
X0149227Y0126627D02*
Y0127677D01*
X0148703Y0128201D01*
X0147653D01*
X0147128Y0127677D01*
Y0126627D01*
X0147653Y0126102D01*
X0148703D01*
X0149227Y0126627D01*
X0150277Y0129251D02*
X0147128D01*
Y0130825D01*
X0147653Y0131350D01*
X0148703D01*
X0149227Y0130825D01*
Y0129251D01*
Y0133974D02*
Y0132924D01*
X0148703Y0132400D01*
X0147653D01*
X0147128Y0132924D01*
Y0133974D01*
X0147653Y0134499D01*
X0148178D01*
Y0132400D01*
X0149227Y0135548D02*
X0147128D01*
Y0137122D01*
X0147653Y0137647D01*
X0149227D01*
X0147128Y0140796D02*
Y0139222D01*
X0147653Y0138697D01*
X0148703D01*
X0149227Y0139222D01*
Y0140796D01*
Y0142370D02*
Y0143420D01*
X0148703Y0143944D01*
X0147653D01*
X0147128Y0143420D01*
Y0142370D01*
X0147653Y0141845D01*
X0148703D01*
X0149227Y0142370D01*
Y0144994D02*
Y0146044D01*
Y0145519D01*
X0146079D01*
Y0144994D01*
X0149227Y0147618D02*
Y0148667D01*
Y0148143D01*
X0146079D01*
Y0147618D01*
X0147128Y0150766D02*
Y0151816D01*
X0147653Y0152341D01*
X0149227D01*
Y0150766D01*
X0148703Y0150242D01*
X0148178Y0150766D01*
Y0152341D01*
X0147128Y0153390D02*
X0149227D01*
X0148178D01*
X0147653Y0153915D01*
X0147128Y0154440D01*
Y0154964D01*
X0149227Y0156539D02*
X0148703D01*
Y0157063D01*
X0149227D01*
Y0156539D01*
Y0159163D02*
Y0160212D01*
Y0159687D01*
X0147128D01*
Y0159163D01*
X0149227Y0162311D02*
Y0163361D01*
X0148703Y0163885D01*
X0147653D01*
X0147128Y0163361D01*
Y0162311D01*
X0147653Y0161786D01*
X0148703D01*
X0149227Y0162311D01*
X0155473Y0126102D02*
X0152324D01*
Y0127677D01*
X0152849Y0128201D01*
X0153898D01*
X0154423Y0127677D01*
Y0126102D01*
Y0127152D02*
X0155473Y0128201D01*
X0152324Y0129251D02*
X0155473D01*
X0153898D01*
X0153373Y0129776D01*
Y0130825D01*
X0153898Y0131350D01*
X0155473D01*
Y0132400D02*
Y0133449D01*
Y0132924D01*
X0153373D01*
Y0132400D01*
X0155473Y0135023D02*
X0153373D01*
Y0136598D01*
X0153898Y0137122D01*
X0155473D01*
Y0138697D02*
Y0139746D01*
X0154948Y0140271D01*
X0153898D01*
X0153373Y0139746D01*
Y0138697D01*
X0153898Y0138172D01*
X0154948D01*
X0155473Y0138697D01*
X0152849Y0144994D02*
X0153373D01*
Y0144469D01*
Y0145519D01*
Y0144994D01*
X0154948D01*
X0155473Y0145519D01*
X0153373Y0147093D02*
X0155473D01*
X0154423D01*
X0153898Y0147618D01*
X0153373Y0148143D01*
Y0148667D01*
Y0150766D02*
Y0151816D01*
X0153898Y0152341D01*
X0155473D01*
Y0150766D01*
X0154948Y0150242D01*
X0154423Y0150766D01*
Y0152341D01*
X0153373Y0155489D02*
Y0153915D01*
X0153898Y0153390D01*
X0154948D01*
X0155473Y0153915D01*
Y0155489D01*
Y0156539D02*
X0152324D01*
X0154423D02*
X0153373Y0158113D01*
X0154423Y0156539D02*
X0155473Y0158113D01*
Y0161262D02*
Y0160212D01*
X0154948Y0159687D01*
X0153898D01*
X0153373Y0160212D01*
Y0161262D01*
X0153898Y0161786D01*
X0154423D01*
Y0159687D01*
X0153373Y0162836D02*
X0155473D01*
X0154423D01*
X0153898Y0163361D01*
X0153373Y0163885D01*
Y0164410D01*
X0227683Y0198249D02*
Y0200348D01*
X0228733Y0201397D01*
X0229782Y0200348D01*
Y0198249D01*
Y0199823D01*
X0227683D01*
X0230832Y0198249D02*
X0231881D01*
X0231357D01*
Y0201397D01*
X0230832Y0200873D01*
X0233780Y0156810D02*
X0235879D01*
X0234829D01*
Y0153662D01*
X0236928D02*
Y0156810D01*
X0238502D01*
X0239027Y0156285D01*
Y0155236D01*
X0238502Y0154711D01*
X0236928D01*
X0241651Y0153662D02*
Y0156810D01*
X0240077Y0155236D01*
X0242176D01*
X0233425Y0164054D02*
X0235524D01*
X0234475D01*
Y0160906D01*
X0236574D02*
Y0164054D01*
X0238148D01*
X0238673Y0163529D01*
Y0162480D01*
X0238148Y0161955D01*
X0236574D01*
X0239722Y0163529D02*
X0240247Y0164054D01*
X0241297D01*
X0241821Y0163529D01*
Y0163005D01*
X0241297Y0162480D01*
X0240772D01*
X0241297D01*
X0241821Y0161955D01*
Y0161430D01*
X0241297Y0160906D01*
X0240247D01*
X0239722Y0161430D01*
X0233504Y0179369D02*
X0235603D01*
X0234554D01*
Y0176221D01*
X0236652D02*
Y0179369D01*
X0238227D01*
X0238752Y0178844D01*
Y0177795D01*
X0238227Y0177270D01*
X0236652D01*
X0241900Y0176221D02*
X0239801D01*
X0241900Y0178320D01*
Y0178844D01*
X0241375Y0179369D01*
X0240326D01*
X0239801Y0178844D01*
X0234567Y0171495D02*
X0236666D01*
X0235616D01*
Y0168347D01*
X0237716D02*
Y0171495D01*
X0239290D01*
X0239815Y0170970D01*
Y0169921D01*
X0239290Y0169396D01*
X0237716D01*
X0240864Y0168347D02*
X0241914D01*
X0241389D01*
Y0171495D01*
X0240864Y0170970D01*
X0140358Y0221115D02*
X0139834Y0220590D01*
Y0219541D01*
X0140358Y0219016D01*
X0140883D01*
X0141408Y0219541D01*
Y0220590D01*
X0141933Y0221115D01*
X0142457D01*
X0142982Y0220590D01*
Y0219541D01*
X0142457Y0219016D01*
X0142982Y0222164D02*
X0140883D01*
Y0222689D01*
X0141408Y0223214D01*
X0142982D01*
X0141408D01*
X0140883Y0223739D01*
X0141408Y0224264D01*
X0142982D01*
X0140883Y0225838D02*
Y0226887D01*
X0141408Y0227412D01*
X0142982D01*
Y0225838D01*
X0142457Y0225313D01*
X0141933Y0225838D01*
Y0227412D01*
X0140883Y0228462D02*
X0142982D01*
X0141933D01*
X0141408Y0228986D01*
X0140883Y0229511D01*
Y0230036D01*
X0140358Y0232135D02*
X0140883D01*
Y0231610D01*
Y0232660D01*
Y0232135D01*
X0142457D01*
X0142982Y0232660D01*
X0144032Y0234234D02*
X0140883D01*
Y0235808D01*
X0141408Y0236333D01*
X0142457D01*
X0142982Y0235808D01*
Y0234234D01*
X0140883Y0237907D02*
Y0238957D01*
X0141408Y0239482D01*
X0142982D01*
Y0237907D01*
X0142457Y0237383D01*
X0141933Y0237907D01*
Y0239482D01*
X0140883Y0240531D02*
X0142982D01*
X0141933D01*
X0141408Y0241056D01*
X0140883Y0241581D01*
Y0242106D01*
X0142982Y0243680D02*
X0139834D01*
X0141933D02*
X0140883Y0245254D01*
X0141933Y0243680D02*
X0142982Y0245254D01*
Y0246828D02*
Y0248403D01*
X0142457Y0248927D01*
X0141933Y0248403D01*
Y0247353D01*
X0141408Y0246828D01*
X0140883Y0247353D01*
Y0248927D01*
X0149227Y0219541D02*
Y0220590D01*
X0148703Y0221115D01*
X0147653D01*
X0147128Y0220590D01*
Y0219541D01*
X0147653Y0219016D01*
X0148703D01*
X0149227Y0219541D01*
X0150277Y0222164D02*
X0147128D01*
Y0223739D01*
X0147653Y0224264D01*
X0148703D01*
X0149227Y0223739D01*
Y0222164D01*
Y0226887D02*
Y0225838D01*
X0148703Y0225313D01*
X0147653D01*
X0147128Y0225838D01*
Y0226887D01*
X0147653Y0227412D01*
X0148178D01*
Y0225313D01*
X0149227Y0228462D02*
X0147128D01*
Y0230036D01*
X0147653Y0230561D01*
X0149227D01*
X0147128Y0233709D02*
Y0232135D01*
X0147653Y0231610D01*
X0148703D01*
X0149227Y0232135D01*
Y0233709D01*
Y0235283D02*
Y0236333D01*
X0148703Y0236858D01*
X0147653D01*
X0147128Y0236333D01*
Y0235283D01*
X0147653Y0234759D01*
X0148703D01*
X0149227Y0235283D01*
Y0237907D02*
Y0238957D01*
Y0238432D01*
X0146079D01*
Y0237907D01*
X0149227Y0240531D02*
Y0241581D01*
Y0241056D01*
X0146079D01*
Y0240531D01*
X0147128Y0243680D02*
Y0244729D01*
X0147653Y0245254D01*
X0149227D01*
Y0243680D01*
X0148703Y0243155D01*
X0148178Y0243680D01*
Y0245254D01*
X0147128Y0246304D02*
X0149227D01*
X0148178D01*
X0147653Y0246828D01*
X0147128Y0247353D01*
Y0247878D01*
X0149227Y0249452D02*
X0148703D01*
Y0249977D01*
X0149227D01*
Y0249452D01*
Y0252076D02*
Y0253126D01*
Y0252601D01*
X0147128D01*
Y0252076D01*
X0149227Y0255225D02*
Y0256274D01*
X0148703Y0256799D01*
X0147653D01*
X0147128Y0256274D01*
Y0255225D01*
X0147653Y0254700D01*
X0148703D01*
X0149227Y0255225D01*
X0155473Y0219016D02*
X0152324D01*
Y0220590D01*
X0152849Y0221115D01*
X0153898D01*
X0154423Y0220590D01*
Y0219016D01*
Y0220065D02*
X0155473Y0221115D01*
X0152324Y0222164D02*
X0155473D01*
X0153898D01*
X0153373Y0222689D01*
Y0223739D01*
X0153898Y0224264D01*
X0155473D01*
Y0225313D02*
Y0226362D01*
Y0225838D01*
X0153373D01*
Y0225313D01*
X0155473Y0227937D02*
X0153373D01*
Y0229511D01*
X0153898Y0230036D01*
X0155473D01*
Y0231610D02*
Y0232660D01*
X0154948Y0233185D01*
X0153898D01*
X0153373Y0232660D01*
Y0231610D01*
X0153898Y0231085D01*
X0154948D01*
X0155473Y0231610D01*
X0152849Y0237907D02*
X0153373D01*
Y0237383D01*
Y0238432D01*
Y0237907D01*
X0154948D01*
X0155473Y0238432D01*
X0153373Y0240006D02*
X0155473D01*
X0154423D01*
X0153898Y0240531D01*
X0153373Y0241056D01*
Y0241581D01*
Y0243680D02*
Y0244729D01*
X0153898Y0245254D01*
X0155473D01*
Y0243680D01*
X0154948Y0243155D01*
X0154423Y0243680D01*
Y0245254D01*
X0153373Y0248403D02*
Y0246828D01*
X0153898Y0246304D01*
X0154948D01*
X0155473Y0246828D01*
Y0248403D01*
Y0249452D02*
X0152324D01*
X0154423D02*
X0153373Y0251027D01*
X0154423Y0249452D02*
X0155473Y0251027D01*
Y0254175D02*
Y0253126D01*
X0154948Y0252601D01*
X0153898D01*
X0153373Y0253126D01*
Y0254175D01*
X0153898Y0254700D01*
X0154423D01*
Y0252601D01*
X0153373Y0255749D02*
X0155473D01*
X0154423D01*
X0153898Y0256274D01*
X0153373Y0256799D01*
Y0257324D01*
X0227683Y0291162D02*
Y0293261D01*
X0228733Y0294311D01*
X0229782Y0293261D01*
Y0291162D01*
Y0292737D01*
X0227683D01*
X0230832Y0291162D02*
X0231881D01*
X0231357D01*
Y0294311D01*
X0230832Y0293786D01*
X0233780Y0249724D02*
X0235879D01*
X0234829D01*
Y0246575D01*
X0236928D02*
Y0249724D01*
X0238502D01*
X0239027Y0249199D01*
Y0248149D01*
X0238502Y0247624D01*
X0236928D01*
X0241651Y0246575D02*
Y0249724D01*
X0240077Y0248149D01*
X0242176D01*
X0233425Y0256967D02*
X0235524D01*
X0234475D01*
Y0253819D01*
X0236574D02*
Y0256967D01*
X0238148D01*
X0238673Y0256443D01*
Y0255393D01*
X0238148Y0254869D01*
X0236574D01*
X0239722Y0256443D02*
X0240247Y0256967D01*
X0241297D01*
X0241821Y0256443D01*
Y0255918D01*
X0241297Y0255393D01*
X0240772D01*
X0241297D01*
X0241821Y0254869D01*
Y0254344D01*
X0241297Y0253819D01*
X0240247D01*
X0239722Y0254344D01*
X0233504Y0272283D02*
X0235603D01*
X0234554D01*
Y0269134D01*
X0236652D02*
Y0272283D01*
X0238227D01*
X0238752Y0271758D01*
Y0270708D01*
X0238227Y0270183D01*
X0236652D01*
X0241900Y0269134D02*
X0239801D01*
X0241900Y0271233D01*
Y0271758D01*
X0241375Y0272283D01*
X0240326D01*
X0239801Y0271758D01*
X0234567Y0264408D02*
X0236666D01*
X0235616D01*
Y0261260D01*
X0237716D02*
Y0264408D01*
X0239290D01*
X0239815Y0263884D01*
Y0262834D01*
X0239290Y0262309D01*
X0237716D01*
X0240864Y0261260D02*
X0241914D01*
X0241389D01*
Y0264408D01*
X0240864Y0263884D01*
X0140358Y0314028D02*
X0139834Y0313504D01*
Y0312454D01*
X0140358Y0311929D01*
X0140883D01*
X0141408Y0312454D01*
Y0313504D01*
X0141933Y0314028D01*
X0142457D01*
X0142982Y0313504D01*
Y0312454D01*
X0142457Y0311929D01*
X0142982Y0315078D02*
X0140883D01*
Y0315603D01*
X0141408Y0316127D01*
X0142982D01*
X0141408D01*
X0140883Y0316652D01*
X0141408Y0317177D01*
X0142982D01*
X0140883Y0318751D02*
Y0319801D01*
X0141408Y0320325D01*
X0142982D01*
Y0318751D01*
X0142457Y0318226D01*
X0141933Y0318751D01*
Y0320325D01*
X0140883Y0321375D02*
X0142982D01*
X0141933D01*
X0141408Y0321900D01*
X0140883Y0322425D01*
Y0322949D01*
X0140358Y0325048D02*
X0140883D01*
Y0324524D01*
Y0325573D01*
Y0325048D01*
X0142457D01*
X0142982Y0325573D01*
X0144032Y0327147D02*
X0140883D01*
Y0328722D01*
X0141408Y0329246D01*
X0142457D01*
X0142982Y0328722D01*
Y0327147D01*
X0140883Y0330821D02*
Y0331870D01*
X0141408Y0332395D01*
X0142982D01*
Y0330821D01*
X0142457Y0330296D01*
X0141933Y0330821D01*
Y0332395D01*
X0140883Y0333445D02*
X0142982D01*
X0141933D01*
X0141408Y0333969D01*
X0140883Y0334494D01*
Y0335019D01*
X0142982Y0336593D02*
X0139834D01*
X0141933D02*
X0140883Y0338168D01*
X0141933Y0336593D02*
X0142982Y0338168D01*
Y0339742D02*
Y0341316D01*
X0142457Y0341841D01*
X0141933Y0341316D01*
Y0340266D01*
X0141408Y0339742D01*
X0140883Y0340266D01*
Y0341841D01*
X0149227Y0312454D02*
Y0313504D01*
X0148703Y0314028D01*
X0147653D01*
X0147128Y0313504D01*
Y0312454D01*
X0147653Y0311929D01*
X0148703D01*
X0149227Y0312454D01*
X0150277Y0315078D02*
X0147128D01*
Y0316652D01*
X0147653Y0317177D01*
X0148703D01*
X0149227Y0316652D01*
Y0315078D01*
Y0319801D02*
Y0318751D01*
X0148703Y0318226D01*
X0147653D01*
X0147128Y0318751D01*
Y0319801D01*
X0147653Y0320325D01*
X0148178D01*
Y0318226D01*
X0149227Y0321375D02*
X0147128D01*
Y0322949D01*
X0147653Y0323474D01*
X0149227D01*
X0147128Y0326623D02*
Y0325048D01*
X0147653Y0324524D01*
X0148703D01*
X0149227Y0325048D01*
Y0326623D01*
Y0328197D02*
Y0329246D01*
X0148703Y0329771D01*
X0147653D01*
X0147128Y0329246D01*
Y0328197D01*
X0147653Y0327672D01*
X0148703D01*
X0149227Y0328197D01*
Y0330821D02*
Y0331870D01*
Y0331346D01*
X0146079D01*
Y0330821D01*
X0149227Y0333445D02*
Y0334494D01*
Y0333969D01*
X0146079D01*
Y0333445D01*
X0147128Y0336593D02*
Y0337643D01*
X0147653Y0338168D01*
X0149227D01*
Y0336593D01*
X0148703Y0336068D01*
X0148178Y0336593D01*
Y0338168D01*
X0147128Y0339217D02*
X0149227D01*
X0148178D01*
X0147653Y0339742D01*
X0147128Y0340266D01*
Y0340791D01*
X0149227Y0342366D02*
X0148703D01*
Y0342890D01*
X0149227D01*
Y0342366D01*
Y0344989D02*
Y0346039D01*
Y0345514D01*
X0147128D01*
Y0344989D01*
X0149227Y0348138D02*
Y0349188D01*
X0148703Y0349712D01*
X0147653D01*
X0147128Y0349188D01*
Y0348138D01*
X0147653Y0347613D01*
X0148703D01*
X0149227Y0348138D01*
X0155473Y0311929D02*
X0152324D01*
Y0313504D01*
X0152849Y0314028D01*
X0153898D01*
X0154423Y0313504D01*
Y0311929D01*
Y0312979D02*
X0155473Y0314028D01*
X0152324Y0315078D02*
X0155473D01*
X0153898D01*
X0153373Y0315603D01*
Y0316652D01*
X0153898Y0317177D01*
X0155473D01*
Y0318226D02*
Y0319276D01*
Y0318751D01*
X0153373D01*
Y0318226D01*
X0155473Y0320850D02*
X0153373D01*
Y0322425D01*
X0153898Y0322949D01*
X0155473D01*
Y0324524D02*
Y0325573D01*
X0154948Y0326098D01*
X0153898D01*
X0153373Y0325573D01*
Y0324524D01*
X0153898Y0323999D01*
X0154948D01*
X0155473Y0324524D01*
X0152849Y0330821D02*
X0153373D01*
Y0330296D01*
Y0331346D01*
Y0330821D01*
X0154948D01*
X0155473Y0331346D01*
X0153373Y0332920D02*
X0155473D01*
X0154423D01*
X0153898Y0333445D01*
X0153373Y0333969D01*
Y0334494D01*
Y0336593D02*
Y0337643D01*
X0153898Y0338168D01*
X0155473D01*
Y0336593D01*
X0154948Y0336068D01*
X0154423Y0336593D01*
Y0338168D01*
X0153373Y0341316D02*
Y0339742D01*
X0153898Y0339217D01*
X0154948D01*
X0155473Y0339742D01*
Y0341316D01*
Y0342366D02*
X0152324D01*
X0154423D02*
X0153373Y0343940D01*
X0154423Y0342366D02*
X0155473Y0343940D01*
Y0347089D02*
Y0346039D01*
X0154948Y0345514D01*
X0153898D01*
X0153373Y0346039D01*
Y0347089D01*
X0153898Y0347613D01*
X0154423D01*
Y0345514D01*
X0153373Y0348663D02*
X0155473D01*
X0154423D01*
X0153898Y0349187D01*
X0153373Y0349712D01*
Y0350237D01*
X0227683Y0384076D02*
Y0386175D01*
X0228733Y0387224D01*
X0229782Y0386175D01*
Y0384076D01*
Y0385650D01*
X0227683D01*
X0230832Y0384076D02*
X0231881D01*
X0231357D01*
Y0387224D01*
X0230832Y0386700D01*
X0233780Y0342637D02*
X0235879D01*
X0234829D01*
Y0339488D01*
X0236928D02*
Y0342637D01*
X0238502D01*
X0239027Y0342112D01*
Y0341063D01*
X0238502Y0340538D01*
X0236928D01*
X0241651Y0339488D02*
Y0342637D01*
X0240077Y0341063D01*
X0242176D01*
X0233425Y0349881D02*
X0235524D01*
X0234475D01*
Y0346732D01*
X0236574D02*
Y0349881D01*
X0238148D01*
X0238673Y0349356D01*
Y0348307D01*
X0238148Y0347782D01*
X0236574D01*
X0239722Y0349356D02*
X0240247Y0349881D01*
X0241297D01*
X0241821Y0349356D01*
Y0348831D01*
X0241297Y0348307D01*
X0240772D01*
X0241297D01*
X0241821Y0347782D01*
Y0347257D01*
X0241297Y0346732D01*
X0240247D01*
X0239722Y0347257D01*
X0233504Y0365196D02*
X0235603D01*
X0234554D01*
Y0362047D01*
X0236652D02*
Y0365196D01*
X0238227D01*
X0238752Y0364671D01*
Y0363622D01*
X0238227Y0363097D01*
X0236652D01*
X0241900Y0362047D02*
X0239801D01*
X0241900Y0364146D01*
Y0364671D01*
X0241375Y0365196D01*
X0240326D01*
X0239801Y0364671D01*
X0234567Y0357322D02*
X0236666D01*
X0235616D01*
Y0354173D01*
X0237716D02*
Y0357322D01*
X0239290D01*
X0239815Y0356797D01*
Y0355748D01*
X0239290Y0355223D01*
X0237716D01*
X0240864Y0354173D02*
X0241914D01*
X0241389D01*
Y0357322D01*
X0240864Y0356797D01*
D34*
X0317795Y0356497D02*
X0315696D01*
X0316746D01*
Y0359645D01*
X0312547D02*
X0314647D01*
X0312547Y0357546D01*
Y0357021D01*
X0313072Y0356497D01*
X0314122D01*
X0314647Y0357021D01*
X0309803Y0355590D02*
Y0352441D01*
X0308229D01*
X0307704Y0352966D01*
Y0354016D01*
X0308229Y0354540D01*
X0309803D01*
X0308753D02*
X0307704Y0355590D01*
X0306655D02*
X0305605D01*
X0306130D01*
Y0352441D01*
X0306655Y0352966D01*
X0304031Y0355065D02*
X0303506Y0355590D01*
X0302456D01*
X0301932Y0355065D01*
Y0352966D01*
X0302456Y0352441D01*
X0303506D01*
X0304031Y0352966D01*
Y0353491D01*
X0303506Y0354016D01*
X0301932D01*
X0305315Y0372952D02*
X0308464D01*
Y0371378D01*
X0307939Y0370853D01*
X0306889D01*
X0306364Y0371378D01*
Y0372952D01*
Y0371903D02*
X0305315Y0370853D01*
Y0369804D02*
Y0368754D01*
Y0369279D01*
X0308464D01*
X0307939Y0369804D01*
Y0367180D02*
X0308464Y0366655D01*
Y0365605D01*
X0307939Y0365081D01*
X0307414D01*
X0306889Y0365605D01*
X0306364Y0365081D01*
X0305840D01*
X0305315Y0365605D01*
Y0366655D01*
X0305840Y0367180D01*
X0306364D01*
X0306889Y0366655D01*
X0307414Y0367180D01*
X0307939D01*
X0306889Y0366655D02*
Y0365605D01*
X0309685Y0359645D02*
Y0356497D01*
X0308111D01*
X0307586Y0357021D01*
Y0358071D01*
X0308111Y0358596D01*
X0309685D01*
X0308635D02*
X0307586Y0359645D01*
X0306536D02*
X0305487D01*
X0306012D01*
Y0356497D01*
X0306536Y0357021D01*
X0303912Y0356497D02*
X0301814D01*
Y0357021D01*
X0303912Y0359120D01*
Y0359645D01*
X0299882Y0353464D02*
Y0350315D01*
X0298307D01*
X0297783Y0350840D01*
Y0351890D01*
X0298307Y0352414D01*
X0299882D01*
X0298832D02*
X0297783Y0353464D01*
X0296733D02*
X0295684D01*
X0296208D01*
Y0350315D01*
X0296733Y0350840D01*
X0292010Y0350315D02*
X0293060Y0350840D01*
X0294109Y0351890D01*
Y0352939D01*
X0293585Y0353464D01*
X0292535D01*
X0292010Y0352939D01*
Y0352414D01*
X0292535Y0351890D01*
X0294109D01*
X0319016Y0364055D02*
Y0360906D01*
X0317441D01*
X0316917Y0361431D01*
Y0362480D01*
X0317441Y0363005D01*
X0319016D01*
X0317966D02*
X0316917Y0364055D01*
X0315867D02*
X0314818D01*
X0315342D01*
Y0360906D01*
X0315867Y0361431D01*
X0311144Y0364055D02*
X0313243D01*
X0311144Y0361955D01*
Y0361431D01*
X0311669Y0360906D01*
X0312719D01*
X0313243Y0361431D01*
X0317795Y0263583D02*
X0315696D01*
X0316746D01*
Y0266732D01*
X0312547D02*
X0314647D01*
X0312547Y0264633D01*
Y0264108D01*
X0313072Y0263583D01*
X0314122D01*
X0314647Y0264108D01*
X0309803Y0262677D02*
Y0259528D01*
X0308229D01*
X0307704Y0260053D01*
Y0261102D01*
X0308229Y0261627D01*
X0309803D01*
X0308753D02*
X0307704Y0262677D01*
X0306655D02*
X0305605D01*
X0306130D01*
Y0259528D01*
X0306655Y0260053D01*
X0304031Y0262152D02*
X0303506Y0262677D01*
X0302456D01*
X0301932Y0262152D01*
Y0260053D01*
X0302456Y0259528D01*
X0303506D01*
X0304031Y0260053D01*
Y0260578D01*
X0303506Y0261102D01*
X0301932D01*
X0305315Y0280039D02*
X0308464D01*
Y0278465D01*
X0307939Y0277940D01*
X0306889D01*
X0306364Y0278465D01*
Y0280039D01*
Y0278989D02*
X0305315Y0277940D01*
Y0276890D02*
Y0275841D01*
Y0276365D01*
X0308464D01*
X0307939Y0276890D01*
Y0274266D02*
X0308464Y0273742D01*
Y0272692D01*
X0307939Y0272167D01*
X0307414D01*
X0306889Y0272692D01*
X0306364Y0272167D01*
X0305840D01*
X0305315Y0272692D01*
Y0273742D01*
X0305840Y0274266D01*
X0306364D01*
X0306889Y0273742D01*
X0307414Y0274266D01*
X0307939D01*
X0306889Y0273742D02*
Y0272692D01*
X0309685Y0266732D02*
Y0263583D01*
X0308111D01*
X0307586Y0264108D01*
Y0265157D01*
X0308111Y0265682D01*
X0309685D01*
X0308635D02*
X0307586Y0266732D01*
X0306536D02*
X0305487D01*
X0306012D01*
Y0263583D01*
X0306536Y0264108D01*
X0303912Y0263583D02*
X0301814D01*
Y0264108D01*
X0303912Y0266207D01*
Y0266732D01*
X0299882Y0260551D02*
Y0257402D01*
X0298307D01*
X0297783Y0257927D01*
Y0258976D01*
X0298307Y0259501D01*
X0299882D01*
X0298832D02*
X0297783Y0260551D01*
X0296733D02*
X0295684D01*
X0296208D01*
Y0257402D01*
X0296733Y0257927D01*
X0292010Y0257402D02*
X0293060Y0257927D01*
X0294109Y0258976D01*
Y0260026D01*
X0293585Y0260551D01*
X0292535D01*
X0292010Y0260026D01*
Y0259501D01*
X0292535Y0258976D01*
X0294109D01*
X0319016Y0271141D02*
Y0267993D01*
X0317441D01*
X0316917Y0268517D01*
Y0269567D01*
X0317441Y0270092D01*
X0319016D01*
X0317966D02*
X0316917Y0271141D01*
X0315867D02*
X0314818D01*
X0315342D01*
Y0267993D01*
X0315867Y0268517D01*
X0311144Y0271141D02*
X0313243D01*
X0311144Y0269042D01*
Y0268517D01*
X0311669Y0267993D01*
X0312719D01*
X0313243Y0268517D01*
X0317795Y0170670D02*
X0315696D01*
X0316746D01*
Y0173818D01*
X0312547D02*
X0314647D01*
X0312547Y0171719D01*
Y0171195D01*
X0313072Y0170670D01*
X0314122D01*
X0314647Y0171195D01*
X0309803Y0169763D02*
Y0166615D01*
X0308229D01*
X0307704Y0167139D01*
Y0168189D01*
X0308229Y0168714D01*
X0309803D01*
X0308753D02*
X0307704Y0169763D01*
X0306655D02*
X0305605D01*
X0306130D01*
Y0166615D01*
X0306655Y0167139D01*
X0304031Y0169238D02*
X0303506Y0169763D01*
X0302456D01*
X0301932Y0169238D01*
Y0167139D01*
X0302456Y0166615D01*
X0303506D01*
X0304031Y0167139D01*
Y0167664D01*
X0303506Y0168189D01*
X0301932D01*
X0305315Y0187125D02*
X0308464D01*
Y0185551D01*
X0307939Y0185026D01*
X0306889D01*
X0306364Y0185551D01*
Y0187125D01*
Y0186076D02*
X0305315Y0185026D01*
Y0183977D02*
Y0182927D01*
Y0183452D01*
X0308464D01*
X0307939Y0183977D01*
Y0181353D02*
X0308464Y0180828D01*
Y0179779D01*
X0307939Y0179254D01*
X0307414D01*
X0306889Y0179779D01*
X0306364Y0179254D01*
X0305840D01*
X0305315Y0179779D01*
Y0180828D01*
X0305840Y0181353D01*
X0306364D01*
X0306889Y0180828D01*
X0307414Y0181353D01*
X0307939D01*
X0306889Y0180828D02*
Y0179779D01*
X0309685Y0173818D02*
Y0170670D01*
X0308111D01*
X0307586Y0171195D01*
Y0172244D01*
X0308111Y0172769D01*
X0309685D01*
X0308635D02*
X0307586Y0173818D01*
X0306536D02*
X0305487D01*
X0306012D01*
Y0170670D01*
X0306536Y0171195D01*
X0303912Y0170670D02*
X0301814D01*
Y0171195D01*
X0303912Y0173294D01*
Y0173818D01*
X0299882Y0167637D02*
Y0164489D01*
X0298307D01*
X0297783Y0165013D01*
Y0166063D01*
X0298307Y0166588D01*
X0299882D01*
X0298832D02*
X0297783Y0167637D01*
X0296733D02*
X0295684D01*
X0296208D01*
Y0164489D01*
X0296733Y0165013D01*
X0292010Y0164489D02*
X0293060Y0165013D01*
X0294109Y0166063D01*
Y0167113D01*
X0293585Y0167637D01*
X0292535D01*
X0292010Y0167113D01*
Y0166588D01*
X0292535Y0166063D01*
X0294109D01*
X0319016Y0178228D02*
Y0175079D01*
X0317441D01*
X0316917Y0175604D01*
Y0176654D01*
X0317441Y0177178D01*
X0319016D01*
X0317966D02*
X0316917Y0178228D01*
X0315867D02*
X0314818D01*
X0315342D01*
Y0175079D01*
X0315867Y0175604D01*
X0311144Y0178228D02*
X0313243D01*
X0311144Y0176129D01*
Y0175604D01*
X0311669Y0175079D01*
X0312719D01*
X0313243Y0175604D01*
D77*
X0294961Y0364724D02*
Y0359212D01*
X0289449Y0364724D02*
Y0359212D01*
X0296339Y0358267D02*
Y0354330D01*
Y0358267D02*
X0288858D01*
Y0354330D01*
X0296339D02*
X0288858D01*
X0309173Y0364212D02*
Y0360275D01*
Y0364212D02*
X0301693D01*
Y0360275D01*
X0309173D02*
X0301693D01*
X0300709Y0356574D02*
X0296772D01*
X0300709Y0364055D02*
Y0356574D01*
Y0364055D02*
X0296772D01*
Y0356574D01*
X0296299Y0370787D02*
Y0366850D01*
Y0370787D02*
X0288819D01*
Y0366850D01*
X0296299D02*
X0288819D01*
X0304409Y0370866D02*
Y0366929D01*
Y0370866D02*
X0296929D01*
Y0366929D01*
X0304409D02*
X0296929D01*
X0302953Y0347598D02*
X0295079Y0347578D01*
X0302953Y0339114D02*
X0295079D01*
X0365118Y0357007D02*
Y0353070D01*
Y0357007D02*
X0357638D01*
Y0353070D01*
X0365118D02*
X0357638D01*
X0358701Y0328622D02*
X0354764D01*
Y0321141D01*
X0358701D02*
X0354764D01*
X0358701Y0328622D02*
Y0321141D01*
X0344291Y0340157D02*
Y0336220D01*
X0351772D02*
X0344291D01*
X0351772Y0340157D02*
Y0336220D01*
Y0340157D02*
X0344291D01*
X0353937Y0335629D02*
Y0331692D01*
X0361417D02*
X0353937D01*
X0361417Y0335629D02*
Y0331692D01*
Y0335629D02*
X0353937D01*
X0362992Y0328622D02*
X0359055D01*
Y0321141D01*
X0362992D02*
X0359055D01*
X0362992Y0328622D02*
Y0321141D01*
X0291142Y0343110D02*
X0287205D01*
X0291142Y0350590D02*
Y0343110D01*
Y0350590D02*
X0287205D01*
Y0343110D01*
X0335236Y0336810D02*
X0331299D01*
Y0329330D01*
X0335236D02*
X0331299D01*
X0335236Y0336810D02*
Y0329330D01*
X0315236Y0336889D02*
Y0332952D01*
X0322716D02*
X0315236D01*
X0322716Y0336889D02*
Y0332952D01*
Y0336889D02*
X0315236D01*
X0308878Y0339074D02*
X0301201D01*
X0308878D02*
Y0334940D01*
X0301201D01*
Y0339074D02*
Y0334940D01*
X0342972Y0329507D02*
X0335295D01*
Y0333641D02*
Y0329507D01*
X0342972Y0333641D02*
X0335295D01*
X0342972D02*
Y0329507D01*
X0319311Y0369822D02*
X0311634D01*
Y0373956D02*
Y0369822D01*
X0319311Y0373956D02*
X0311634D01*
X0319311D02*
Y0369822D01*
X0327894Y0345137D02*
Y0337460D01*
X0332028Y0345137D02*
X0327894D01*
X0332028D02*
Y0337460D01*
X0327894D01*
X0330807Y0337106D02*
X0323130D01*
X0330807D02*
Y0332972D01*
X0323130D01*
Y0337106D02*
Y0332972D01*
X0294961Y0271811D02*
Y0266299D01*
X0289449Y0271811D02*
Y0266299D01*
X0296339Y0265354D02*
Y0261417D01*
Y0265354D02*
X0288858D01*
Y0261417D01*
X0296339D02*
X0288858D01*
X0309173Y0271299D02*
Y0267362D01*
Y0271299D02*
X0301693D01*
Y0267362D01*
X0309173D02*
X0301693D01*
X0300709Y0263661D02*
X0296772D01*
X0300709Y0271141D02*
Y0263661D01*
Y0271141D02*
X0296772D01*
Y0263661D01*
X0296299Y0277873D02*
Y0273937D01*
Y0277873D02*
X0288819D01*
Y0273937D01*
X0296299D02*
X0288819D01*
X0304409Y0277952D02*
Y0274015D01*
Y0277952D02*
X0296929D01*
Y0274015D01*
X0304409D02*
X0296929D01*
X0302953Y0254684D02*
X0295079Y0254665D01*
X0302953Y0246200D02*
X0295079D01*
X0365118Y0264094D02*
Y0260157D01*
Y0264094D02*
X0357638D01*
Y0260157D01*
X0365118D02*
X0357638D01*
X0358701Y0235708D02*
X0354764D01*
Y0228228D01*
X0358701D02*
X0354764D01*
X0358701Y0235708D02*
Y0228228D01*
X0344291Y0247244D02*
Y0243307D01*
X0351772D02*
X0344291D01*
X0351772Y0247244D02*
Y0243307D01*
Y0247244D02*
X0344291D01*
X0353937Y0242716D02*
Y0238779D01*
X0361417D02*
X0353937D01*
X0361417Y0242716D02*
Y0238779D01*
Y0242716D02*
X0353937D01*
X0362992Y0235708D02*
X0359055D01*
Y0228228D01*
X0362992D02*
X0359055D01*
X0362992Y0235708D02*
Y0228228D01*
X0291142Y0250196D02*
X0287205D01*
X0291142Y0257677D02*
Y0250196D01*
Y0257677D02*
X0287205D01*
Y0250196D01*
X0335236Y0243897D02*
X0331299D01*
Y0236417D01*
X0335236D02*
X0331299D01*
X0335236Y0243897D02*
Y0236417D01*
X0315236Y0243976D02*
Y0240039D01*
X0322716D02*
X0315236D01*
X0322716Y0243976D02*
Y0240039D01*
Y0243976D02*
X0315236D01*
X0308878Y0246161D02*
X0301201D01*
X0308878D02*
Y0242027D01*
X0301201D01*
Y0246161D02*
Y0242027D01*
X0342972Y0236594D02*
X0335295D01*
Y0240728D02*
Y0236594D01*
X0342972Y0240728D02*
X0335295D01*
X0342972D02*
Y0236594D01*
X0319311Y0276909D02*
X0311634D01*
Y0281043D02*
Y0276909D01*
X0319311Y0281043D02*
X0311634D01*
X0319311D02*
Y0276909D01*
X0327894Y0252224D02*
Y0244547D01*
X0332028Y0252224D02*
X0327894D01*
X0332028D02*
Y0244547D01*
X0327894D01*
X0330807Y0244192D02*
X0323130D01*
X0330807D02*
Y0240058D01*
X0323130D01*
Y0244192D02*
Y0240058D01*
X0294961Y0178897D02*
Y0173385D01*
X0289449Y0178897D02*
Y0173385D01*
X0296339Y0172440D02*
Y0168503D01*
Y0172440D02*
X0288858D01*
Y0168503D01*
X0296339D02*
X0288858D01*
X0309173Y0178385D02*
Y0174448D01*
Y0178385D02*
X0301693D01*
Y0174448D01*
X0309173D02*
X0301693D01*
X0300709Y0170747D02*
X0296772D01*
X0300709Y0178228D02*
Y0170747D01*
Y0178228D02*
X0296772D01*
Y0170747D01*
X0296299Y0184960D02*
Y0181023D01*
Y0184960D02*
X0288819D01*
Y0181023D01*
X0296299D02*
X0288819D01*
X0304409Y0185039D02*
Y0181102D01*
Y0185039D02*
X0296929D01*
Y0181102D01*
X0304409D02*
X0296929D01*
X0302953Y0161771D02*
X0295079Y0161751D01*
X0302953Y0153287D02*
X0295079D01*
X0365118Y0171180D02*
Y0167244D01*
Y0171180D02*
X0357638D01*
Y0167244D01*
X0365118D02*
X0357638D01*
X0358701Y0142795D02*
X0354764D01*
Y0135314D01*
X0358701D02*
X0354764D01*
X0358701Y0142795D02*
Y0135314D01*
X0344291Y0154330D02*
Y0150393D01*
X0351772D02*
X0344291D01*
X0351772Y0154330D02*
Y0150393D01*
Y0154330D02*
X0344291D01*
X0353937Y0149803D02*
Y0145866D01*
X0361417D02*
X0353937D01*
X0361417Y0149803D02*
Y0145866D01*
Y0149803D02*
X0353937D01*
X0362992Y0142795D02*
X0359055D01*
Y0135314D01*
X0362992D02*
X0359055D01*
X0362992Y0142795D02*
Y0135314D01*
X0291142Y0157283D02*
X0287205D01*
X0291142Y0164763D02*
Y0157283D01*
Y0164763D02*
X0287205D01*
Y0157283D01*
X0335236Y0150984D02*
X0331299D01*
Y0143503D01*
X0335236D02*
X0331299D01*
X0335236Y0150984D02*
Y0143503D01*
X0315236Y0151062D02*
Y0147125D01*
X0322716D02*
X0315236D01*
X0322716Y0151062D02*
Y0147125D01*
Y0151062D02*
X0315236D01*
X0308878Y0153247D02*
X0301201D01*
X0308878D02*
Y0149114D01*
X0301201D01*
Y0153247D02*
Y0149114D01*
X0342972Y0143681D02*
X0335295D01*
Y0147814D02*
Y0143681D01*
X0342972Y0147814D02*
X0335295D01*
X0342972D02*
Y0143681D01*
X0319311Y0183995D02*
X0311634D01*
Y0188129D02*
Y0183995D01*
X0319311Y0188129D02*
X0311634D01*
X0319311D02*
Y0183995D01*
X0327894Y0159310D02*
Y0151633D01*
X0332028Y0159310D02*
X0327894D01*
X0332028D02*
Y0151633D01*
X0327894D01*
X0330807Y0151279D02*
X0323130D01*
X0330807D02*
Y0147145D01*
X0323130D01*
Y0151279D02*
Y0147145D01*
X0249174Y0155276D02*
G03*
X0249174Y0155276I-0002993J0000000D01*
G01*
X0249135Y0170118D02*
G03*
X0249135Y0170118I-0002993J0000000D01*
G01*
X0249056Y0177717D02*
G03*
X0249056Y0177717I-0002993J0000000D01*
G01*
X0249135Y0162677D02*
G03*
X0249135Y0162677I-0002993J0000000D01*
G01*
X0249174Y0248189D02*
G03*
X0249174Y0248189I-0002993J0000000D01*
G01*
X0249135Y0263032D02*
G03*
X0249135Y0263032I-0002993J0000000D01*
G01*
X0249056Y0270630D02*
G03*
X0249056Y0270630I-0002993J0000000D01*
G01*
X0249135Y0255591D02*
G03*
X0249135Y0255591I-0002993J0000000D01*
G01*
X0249174Y0341102D02*
G03*
X0249174Y0341102I-0002993J0000000D01*
G01*
X0249135Y0355945D02*
G03*
X0249135Y0355945I-0002993J0000000D01*
G01*
X0249056Y0363543D02*
G03*
X0249056Y0363543I-0002993J0000000D01*
G01*
X0249135Y0348504D02*
G03*
X0249135Y0348504I-0002993J0000000D01*
G01*
M02*
