M48
;Layer_Color=9474304
;FILE_FORMAT=2:5
INCH
;TYPE=PLATED
T1F00S00C0.00787
T2F00S00C0.01181
T3F00S00C0.03150
%
T01
X0158394Y0157894
T02
X0132803Y0126496
X0137843Y0126693
X0143709
X0147724Y0126772
X0148276Y0130748
X0144685Y0129921
X0151307Y0128189
X0149102Y0134854
X0153551Y0135158
X0154260Y0138641
X0153543Y0147638
X0150165Y0149094
X0150228Y0146102
X0147638Y0147638
X0146150Y0150748
X0142173Y0150839
X0141732Y0147638
X0135827
X0137409Y0150906
X0134457Y0154754
X0126969Y0153543
X0121063
X0115157
X0118110Y0147638
X0124016
X0129921
X0132874Y0141732
X0138779
X0144685
X0141732Y0135827
X0135827
X0129921
X0124016
X0126969Y0141732
X0121063
X0150165Y0152205
X0152567Y0154134
X0158354Y0154095
X0158653Y0149843
X0162134Y0149685
X0165205Y0149331
X0162449Y0155433
X0170323Y0155276
X0176228Y0153543
X0175520Y0145439
X0178472Y0143032
X0178197Y0139134
X0175323Y0135472
X0183217Y0134843
X0184496Y0143110
X0187409Y0145079
Y0148898
Y0152717
X0191929Y0153543
X0171780Y0142717
X0168354Y0139724
X0166386Y0128740
X0163079Y0128189
X0157744Y0129941
X0156346Y0132362
X0157416Y0121102
X0161504Y0121339
X0171260Y0124016
X0174929Y0126457
X0175716Y0159646
X0174335Y0162323
X0174213Y0165354
X0171150Y0165630
X0172961Y0167913
X0174063Y0170662
X0171110Y0170904
X0177165Y0171260
X0177094Y0174488
X0183071Y0171260
X0188976
X0191929Y0165354
X0186024
X0183787Y0162480
X0179299Y0162638
X0180118Y0165354
X0187085Y0160512
X0170165Y0161181
X0159260Y0161299
X0161504Y0167402
X0161465Y0171890
Y0176535
X0161425Y0180984
X0159449Y0183071
X0157331Y0185551
X0156780Y0181063
Y0177205
X0161292Y0189724
X0165354Y0194882
X0172921Y0194921
X0174213Y0188976
X0172843Y0185748
X0177409Y0191850
X0153543Y0194882
X0147638
X0148039Y0192323
X0144772
X0141779Y0192205
X0141732Y0194882
X0138827Y0192273
X0135677Y0192244
X0134890Y0178189
X0131858Y0178268
X0128354Y0178307
X0128236Y0181575
Y0184685
X0121063Y0177165
X0124016Y0171260
X0129921
X0126969Y0165354
X0121063
X0118110Y0159449
X0124016
X0129921
X0134496Y0159567
X0142291Y0158583
X0142370Y0162362
X0143591Y0164882
Y0167934
X0146425Y0159409
X0156071Y0166732
X0154850Y0170630
X0150591Y0177165
X0148276Y0178504
X0149850Y0180748
X0149795Y0183583
X0149748Y0186772
X0149693Y0189488
X0144378Y0178543
T03
X0121780Y0129291
X0112554Y0143386
X0135867Y0119854
X0152488Y0116693
X0169067Y0119872
X0183197Y0129291
X0192340Y0143416
X0195768Y0159933
X0192328Y0176351
X0182803Y0190315
X0169021Y0199928
X0152488Y0203307
X0122173Y0190315
X0112685Y0176440
X0109181Y0159933
M30
